/* XPM */
static char * explosions_engels_xpm[] = {
"45 222 26 1",
" 	c None",
".	c #631118",
"+	c #9A7047",
"@	c #F1F331",
"#	c #E3AF2F",
"$	c #F58D1B",
"%	c #E7D12C",
"&	c #8F4E26",
"*	c #E4731A",
"=	c #705039",
"-	c #61301B",
";	c #F0F0E0",
">	c #903622",
",	c #AEB0AD",
"'	c #A2090A",
")	c #CFCDC8",
"!	c #929295",
"~	c #A38F59",
"{	c #B1CAAE",
"]	c #D5B497",
"^	c #D8937C",
"/	c #995980",
"(	c #E90A0C",
"_	c #70716A",
":	c #F24F1A",
"<	c #95759C",
"                                             ",
"                                             ",
"                                             ",
"                                             ",
"                                             ",
"                                             ",
"                                             ",
"                                             ",
"                                             ",
"                                             ",
"                                             ",
"                                             ",
"                                             ",
"                                             ",
"               (                             ",
"                                             ",
"                 &;                          ",
"                  )     ,)                   ",
"                 ;,%#@%##                    ",
"                 #%@@@@%% ;                  ",
"                 @@@;;;,]);                  ",
"                #@@);;;)!!@@                 ",
"               )#];;;;;;{,@@                 ",
"                )@;;;;;;;{@%                 ",
"                @@@;,;;;;@@%                 ",
"                ;@@;;;;;;@@@                 ",
"                 )%@@;;;;)!  .               ",
"                . ,]@;;;;,);  '              ",
"               ''  ;@@%%,);                  ",
"                                             ",
"                                             ",
"                                             ",
"                                             ",
"                                             ",
"                                             ",
"                                             ",
"                                             ",
"                                             ",
"                                             ",
"                                             ",
"                                             ",
"                                             ",
"                                             ",
"                                             ",
"                                             ",
"                                             ",
"                                             ",
"                                             ",
"                                             ",
"   (.                                        ",
"                                             ",
"                                             ",
"                                             ",
"                                             ",
"                                             ",
"                                             ",
"                                             ",
"                                             ",
"                                             ",
"                ))  +!                       ",
"               :,,~$$~~$^,~  ,               ",
"                 ~,^$$$#%)$$!),              ",
"                *~~###%%%##~!,               ",
"               *$#%#],@@@%%# +               ",
"               *##%@{,;;@@%##$               ",
"               ##%,;;@;;;@@%%$               ",
"             ,,#@@;;;;@;@,,%%$+              ",
"              +#@@;@@@@;;,,@%$+              ",
"              $#@);@@@%@@;;@#$+ ..'          ",
"              ,$@@)@@@@@@;@@#$ '             ",
"               $#@);@@@;;;@@#$               ",
"               $#@@;;;;;;@@@#$>'             ",
"               ^#%@@@;;;@@##+,,'             ",
"               ,,!#%%,%@@#$~ {               ",
"                {,#%%%%%%#$ !)               ",
"                ),~$##@%*+                   ",
"                 ,                           ",
"                                             ",
"        .                                    ",
"      '.                                     ",
"      '                            .         ",
"                                    .'       ",
"                                     '       ",
"                                             ",
"                                             ",
"                                             ",
"                                             ",
"                                             ",
"                                             ",
"                                             ",
"                                             ",
"                                             ",
"      !!                                     ",
"      !,,                                    ",
"          .                                  ",
"                                        ,    ",
"                                       ,     ",
"                    !                 !{     ",
"        '        ..!,      .           _     ",
"                   +,<...           ...      ",
"               . &++~*++*+>..         .      ",
"            ..  +%###%#%%#^&.-               ",
"               +#%%@@@@@@%#$+&               ",
"            .&~#%%;@@@@@;@@%##>'             ",
"           .&#%@@@@@@@@@@@@@@%+>             ",
"           -+%%@@@;@%@;@@@@@@%$+-      ''    ",
"         . >#@@@@@%%%%%%%%@@@@@$&-.          ",
"         ..&%@@@@%%%$$###%%@@@@#+&.          ",
"         .>$%@@@%%%#$$$##%%@@@@%$&           ",
"          &#@@@%%#$*$*++$##@@@@@$+&          ",
"         .+#))@%%$$*++&-+$#%@@@%#*&          ",
"  ''.    -+#@@%%%$*++ ''>$#%@@@@#*&          ",
"         -+#@@@%%$$+*'.'>&*%;@@@#*&          ",
"       .  &#@@@%%#$+>'..&+$%;@;;#*&          ",
"          +$%@@@%%#$*+>.+*#%;;;%$+&          ",
"          &*#@@@@%###$$*$#%@@@%#&.           ",
"          >+#@@@;%#%%####%%%%%%*>-           ",
"         ..&$%@@;@%@%%%%%%%%%#~~-  .         ",
"           -+$%@;@@@@;;;@@%%#*&&=            ",
"          ..>+#%@@@@@@;;@@%%*+>.             ",
"           ..>+$#%@@@@@@@@%#+&.              ",
"             .>&$#%%%%@%%%#*&.  .            ",
"              .>&+*$####$*+>.                ",
"        ,! .     &&++++++&&                  ",
"        !,/.       ======    .        ..     ",
"         ,!.     .     .                     ",
"                 '            .          ,   ",
"                 '             .        ,,   ",
"                               '.       !!   ",
"                                             ",
"                                             ",
"                                             ",
"              ,,                             ",
"               ,                      .      ",
"  '                                  .'.     ",
"  ..                                 ..      ",
"                                             ",
"                ... ..   ..                  ",
"              ....-..... .... .              ",
"              ...-&&++*+&&&&=-..             ",
"             ..=&++$$$$$*+++&&=              ",
"         '.  -=+++###%%%%#$$++=-             ",
"         . .-=&+$#@@@@@@@@@%##&>. ..         ",
"          &-&+$#@@@@%%%%%%@@@%$+=.  .        ",
"         .-=+$%@@%%#%#####%@@@##+>....       ",
"         -&+$#%@@#%$**$+*$##%%%%#*& ..       ",
"        .>&~#%@%%#$*+*+++**###%%%$+=         ",
"      ..>=+#%@@%#$+&+&&&&+++*$#%%#$&= .      ",
"       .=&*%@%#$$+&&===-/+++++$#%%#+--.      ",
"      ..&+#%%@#*+&>&&&.--=&=&+*$#@%$&=..     ",
"      .-&*#@@%#++&=......&>&&++*$%@#+= .     ",
"      .-+$%@%$**+=...  . ...>=&+$#@#+&.      ",
"      .&$#%@#$$&==..      .. =&+$#@%$+=      ",
"      .+$%@@#$++=..        ..-&+*$%%$+=.     ",
"     ..&$@@@#$+&=..        ...>=+*%%$+=.     ",
"     ..+$@@@#$+==..         .- .+*##$&=.     ",
"      =+$%@@#$+==..          .>>++##*==      ",
"      !+$%@%%$&=-..         .->.++##+-..     ",
"       =$#%@#$+==-.         . .'&+*$+&.      ",
"      .-+#%@#$+>>-..       ....>&++*+-.      ",
"       .&$#%@#$+&=-.... ......>=&*#*.-.      ",
"       .&+$%@%#++&>&>-.-.....>>&++++.-       ",
"       . &*#@%#$++=>>>'>--.>->&++++&=        ",
"''      .=+$#@@#$*+>-..>>>>>&&+*++&-- .      ",
"        . &+$%@@@#*+++&&&++++&~$+=..  .      ",
"         .->+$#@@@##$**++++*$$*+&...         ",
"        .. =-*$#@@@%%#$$$$###%+&.....        ",
"          .---&*##@%%%%@@%%%$*&...      .    ",
"            -==&+*$#%%%%%%$$+>..         '   ",
"             ====>++******++-. .          .  ",
"          .   - .>=&&&&&&&   .               ",
"           .   . ..--.       .               ",
"                .  . .                       ",
"                 ..                          ",
"                                             ",
"                                             ",
"                                             ",
"                                             ",
"                                             ",
"                     .                       ",
"                ... .                  .     ",
"               ...& -....                    ",
"              ..-=&+&+=---==                 ",
"        . >.>..&=&+*++*+$+&  ...             ",
"       . -  =>&&&+$$##$###++ +&-             ",
"      .  >&& +**+*######$####$+&-..          ",
"     .     +*$##%#%#*$$$*$###%#$+&..         ",
"      . &++*$#####$$++*+&+$$$$$$$+&..        ",
"    ..=-&++$#$#%$$+++&=&&+*++$$$##*&..       ",
"     .>&+$$#####*+====&&=&&&++*$###+&-       ",
"    ..-+$$#%#$$++&&>-....--==&+*$##$*>       ",
"     -+*$#%#$**+=>.....  ...-&&++$##$+>      ",
"     .+*#%%$*$+=...  .  ......&&&+$%#*&      ",
"     .&$#%#$$+&..   .....   ..-&&+*$#$+=.    ",
"    .  $%#$*+&.. ...         ..- &+$$#*& .   ",
"    .>+$#$++&-..              .. =&*$%$+..   ",
"   ..>**#$+&=. ..           . ....&*$%#+..   ",
"   ..+$#$**=-...             .  ..&+$$#*&.   ",
"   -&+$#$$+=.. .             .  ...+*#$*&.   ",
"   -&*$##$+=...               .....>+$$*&    ",
"   ->+$##$+=....               . ...&*$$/    ",
"   .&*$%#$+=..                  .-..&*$*&    ",
"   -+*$%$*+&...                   ..=+$+     ",
"   >++$##$++= .                    .&++=     ",
"   .&++#%*++-.                    ..&+&=     ",
"  ..-&&$#$*&=>.                   .. +&=     ",
"  .  -&+#$$&=.-.                   ..&&=     ",
"    .=&++#*+&...      '            .+&>      ",
"      .++##*&=&= ...              .-=        ",
"  .   .-=+##++++&=-..        .  ....         ",
"       .-/$$*$*++&==>- ....     >-           ",
"        .>+$#$#$*+++&&&&  .....>>+           ",
"       .. ++#$#$$$**++++++&----&&>           ",
"          .=+$##$$$$*$$*$*+&&++&=            ",
"           .-++$$##$$####$*+++&=>            ",
"          . .>&++$$$#%##%$$$+&=              ",
"             ..--&++******++&&>              ",
"           .  .....&&&&&&&>...               ",
"                ............                 ",
"                 ..                          ",
"                                             ",
"                                             "};
