<?xml version="1.0" encoding="UTF-8" standalone="no"?>
<!DOCTYPE svg PUBLIC "-//W3C//DTD SVG 20010904//EN"
"http://www.w3.org/TR/2001/REC-SVG-20010904/DTD/svg10.dtd">
<!-- Created with Sodipodi ("http://www.sodipodi.com/") -->
<svg
   xmlns="http://www.w3.org/2000/svg"
   xmlns:sodipodi="http://sodipodi.sourceforge.net/DTD/sodipodi-0.dtd"
   xmlns:xlink="http://www.w3.org/1999/xlink"
   id="svg602"
   sodipodi:version="0.34"
   width="210mm"
   height="297mm"
   xml:space="preserve"
   sodipodi:docname="cancer"><defs
   id="defs604"><linearGradient
   id="linearGradient689"><stop
   style="stop-color:#606060;stop-opacity:1;"
   offset="0"
   id="stop690" /><stop
   style="stop-color:#000000;stop-opacity:1;"
   offset="1"
   id="stop691" /></linearGradient><linearGradient
   id="linearGradient650"><stop
   style="stop-color:#606060;stop-opacity:1;"
   offset="0"
   id="stop651" /><stop
   style="stop-color:#000000;stop-opacity:1;"
   offset="1"
   id="stop652" /></linearGradient><linearGradient
   id="linearGradient633"><stop
   style="stop-color:#c0c0c0;stop-opacity:1;"
   offset="0"
   id="stop634" /><stop
   style="stop-color:#909090;stop-opacity:1;"
   offset="1"
   id="stop635" /></linearGradient><linearGradient
   id="linearGradient628"><stop
   style="stop-color:#ffff99;stop-opacity:1;"
   offset="0"
   id="stop629" /><stop
   style="stop-color:#cccc00;stop-opacity:1;"
   offset="1"
   id="stop630" /></linearGradient><linearGradient
   id="linearGradient623"><stop
   style="stop-color:#9999ff;stop-opacity:1;"
   offset="0"
   id="stop624" /><stop
   style="stop-color:#0000cc;stop-opacity:1;"
   offset="1"
   id="stop625" /></linearGradient><linearGradient
   id="linearGradient618"><stop
   style="stop-color:#99ff99;stop-opacity:1;"
   offset="0"
   id="stop619" /><stop
   style="stop-color:#00cc00;stop-opacity:1;"
   offset="1"
   id="stop620" /></linearGradient><linearGradient
   id="linearGradient611"><stop
   style="stop-color:#ff9999;stop-opacity:1;"
   offset="0"
   id="stop612" /><stop
   style="stop-color:#cc0000;stop-opacity:1;"
   offset="1"
   id="stop613" /></linearGradient><radialGradient
   xlink:href="#linearGradient611"
   id="radialGradient614"
   cx="0.85496181"
   cy="7.03173876e-2"
   r="1.18116236"
   fx="0.85496181"
   fy="7.03173876e-2" /><linearGradient
   xlink:href="#linearGradient650"
   id="linearGradient615"
   x1="0.88047802"
   y1="9.51528251e-2"
   x2="0.20318726"
   y2="1.40475583"
   gradientTransform="translate(2.156767e-9,-1.197952e-6)" /><radialGradient
   xlink:href="#linearGradient618"
   id="radialGradient621"
   cx="0.85496157"
   cy="7.0318222e-2"
   r="1.18116236"
   fx="0.85496157"
   fy="7.0318222e-2" /><radialGradient
   xlink:href="#linearGradient623"
   id="radialGradient626"
   cx="0.85496122"
   cy="7.03185722e-2"
   r="1.18116236"
   fx="0.85496122"
   fy="7.03185722e-2" /><radialGradient
   xlink:href="#linearGradient628"
   id="radialGradient631"
   cx="0.85496056"
   cy="7.03197196e-2"
   r="1.18116236"
   fx="0.85496056"
   fy="7.03197196e-2" /><radialGradient
   xlink:href="#linearGradient633"
   id="radialGradient636"
   cx="0.8549605"
   cy="7.03209713e-2"
   r="1.18116236"
   fx="0.8549605"
   fy="7.03209713e-2" /><linearGradient
   xlink:href="#linearGradient650"
   id="linearGradient655"
   x1="0.8600142"
   y1="0.47662818"
   x2="0.16881292"
   y2="0.46045253"
   gradientTransform="translate(-5.05921e-8,-1.768983e-6)" /><linearGradient
   xlink:href="#linearGradient650"
   id="linearGradient658"
   x1="0.60669178"
   y1="3.37634659"
   x2="0.35468796"
   y2="-3.29593706" /><radialGradient
   xlink:href="#linearGradient611"
   id="radialGradient675"
   cx="0.85496145"
   cy="7.03183189e-2"
   r="1.18116236"
   fx="0.85496145"
   fy="7.03183189e-2" /><radialGradient
   xlink:href="#linearGradient611"
   id="radialGradient676"
   cx="0.85496145"
   cy="7.03173578e-2"
   r="1.18116236"
   fx="0.85496145"
   fy="7.03173578e-2" /><radialGradient
   xlink:href="#linearGradient611"
   id="radialGradient684"
   cx="0.8549602"
   cy="7.0322074e-2"
   r="1.18116236"
   fx="0.8549602"
   fy="7.0322074e-2" /><radialGradient
   xlink:href="#linearGradient623"
   id="radialGradient687"
   cx="0.85496014"
   cy="7.03208223e-2"
   r="1.18116236"
   fx="0.85496014"
   fy="7.03208223e-2" /><linearGradient
   xlink:href="#linearGradient689"
   id="linearGradient692"
   x1="0.14846641"
   y1="3.36841965"
   x2="0.81250018"
   y2="3.26315665" /><radialGradient
   xlink:href="#linearGradient611"
   id="radialGradient695"
   cx="0.85496068"
   cy="7.03194961e-2"
   r="1.18116236"
   fx="0.85496068"
   fy="7.03194961e-2" /><radialGradient
   xlink:href="#linearGradient628"
   id="radialGradient697"
   cx="0.85496122"
   cy="7.03173578e-2"
   r="1.18116236"
   fx="0.85496122"
   fy="7.03173578e-2" /></defs><sodipodi:namedview
   id="base" /><rect
   style="font-size:12;fill:url(#linearGradient655);fill-rule:evenodd;stroke-width:1;fill-opacity:1;"
   id="rect705"
   width="106.297934"
   height="14.1730379"
   x="1057.49454"
   y="-393.697726"
   transform="matrix(0.5,0.866025,0.866025,-0.5,0,0)" /><rect
   style="font-size:12;fill:url(#linearGradient655);fill-rule:evenodd;stroke-width:1;fill-opacity:1;"
   id="rect704"
   width="106.298086"
   height="14.1730608"
   x="863.563832"
   y="-729.59875"
   transform="matrix(-0.5,0.866025,-0.866025,-0.5,0,0)" /><rect
   style="font-size:12;fill:url(#linearGradient655);fill-rule:evenodd;stroke-width:1;fill-opacity:1;"
   id="rect703"
   width="106.298735"
   height="14.1731581"
   x="-812.48202"
   y="428.172347"
   transform="matrix(0.5,-0.866025,0.866025,0.5,0,0)" /><rect
   style="font-size:12;fill:url(#linearGradient658);fill-rule:evenodd;stroke-width:1;fill-opacity:1;"
   id="rect701"
   width="106.299171"
   height="14.1732154"
   x="-903.659238"
   y="-284.423081"
   transform="matrix(-0.5,-0.866026,0.866026,-0.5,0,0)" /><rect
   style="font-size:12;fill:url(#linearGradient615);fill-rule:evenodd;stroke-width:1;fill-opacity:1;"
   id="rect698"
   width="106.299232"
   height="14.1732311"
   x="35.4330692"
   y="1024.01572" /><rect
   style="font-size:12;fill:url(#linearGradient692);fill-rule:evenodd;stroke-width:1;fill-opacity:1;"
   id="rect693"
   width="106.299232"
   height="14.1732311"
   x="928.346375"
   y="-131.102356"
   transform="matrix(-6.123032e-17,1,1,6.123032e-17,0,0)" /><rect
   style="font-size:12;fill:url(#linearGradient692);fill-rule:evenodd;stroke-width:1;fill-opacity:1;"
   id="rect688"
   width="106.299232"
   height="14.1732311"
   x="822.047211"
   y="-131.102358"
   transform="matrix(-6.123032e-17,1,1,6.123032e-17,0,0)" /><rect
   style="font-size:12;fill:url(#linearGradient615);fill-rule:evenodd;stroke-width:1;fill-opacity:1;"
   id="rect685"
   width="106.299232"
   height="14.1732311"
   x="354.331299"
   y="-839.763245"
   transform="scale(1,-1)" /><rect
   style="font-size:12;fill:url(#linearGradient615);fill-rule:evenodd;stroke-width:1;fill-opacity:1;"
   id="rect682"
   width="106.299232"
   height="14.1732311"
   x="-389.763803"
   y="1009.84244" /><rect
   style="font-size:12;fill:url(#linearGradient655);fill-rule:evenodd;stroke-width:1;fill-opacity:1;"
   id="rect679"
   width="106.297743"
   height="14.1730093"
   x="557.176816"
   y="-714.481339"
   transform="matrix(-0.5,0.866025,-0.866025,-0.5,0,0)" /><rect
   style="font-size:12;fill:url(#linearGradient655);fill-rule:evenodd;stroke-width:1;fill-opacity:1;"
   id="rect680"
   width="106.297857"
   height="14.1730265"
   x="539.459355"
   y="-745.16651"
   transform="matrix(-0.5,0.866025,-0.866025,-0.5,0,0)" /><path
   sodipodi:type="arc"
   style="fill-rule:evenodd;stroke:#000000;fill:url(#radialGradient631);fill-opacity:1;stroke-opacity:1;stroke-width:0.125;stroke-linejoin:miter;stroke-linecap:butt;stroke-dasharray:none;"
   id="path681"
   d="M 106.508 998.9977 A 53.25401 52.70157 0 1 0 0 998.9977 A 53.25401 52.70157 0 1 0  106.508 998.9977 z"
   sodipodi:cx="53.2540092"
   sodipodi:cy="998.997681"
   sodipodi:rx="53.2540092"
   sodipodi:ry="52.7015686"
   transform="matrix(-0.66536,8.148039e-17,-8.233448e-17,-0.672334,389.7784,1504.337)" /><rect
   style="font-size:12;fill:url(#linearGradient655);fill-rule:evenodd;stroke-width:1;fill-opacity:1;"
   id="rect678"
   width="106.298201"
   height="14.173078"
   x="955.860422"
   y="-208.185112"
   transform="matrix(0.5,0.866025,0.866025,-0.5,0,0)" /><rect
   style="font-size:12;fill:url(#linearGradient655);fill-rule:evenodd;stroke-width:1;fill-opacity:1;"
   id="rect677"
   width="106.298353"
   height="14.1731009"
   x="-1009.19256"
   y="271.706979"
   transform="matrix(0.5,-0.866025,0.866025,0.5,0,0)" /><rect
   style="font-size:12;fill:url(#linearGradient615);fill-rule:evenodd;stroke-width:1;fill-opacity:1;"
   id="rect674"
   width="106.299232"
   height="14.1732311"
   x="194.881889"
   y="917.716522" /><rect
   style="font-size:12;fill:url(#linearGradient655);fill-rule:evenodd;stroke-width:1;fill-opacity:1;"
   id="rect669"
   width="106.298353"
   height="14.1731009"
   x="867.3362"
   y="-545.762977"
   transform="matrix(-0.5,0.866025,-0.866025,-0.5,0,0)" /><rect
   style="font-size:12;fill:url(#linearGradient658);fill-rule:evenodd;stroke-width:1;fill-opacity:1;"
   id="rect670"
   width="106.299652"
   height="14.1732793"
   x="956.868688"
   y="376.514597"
   transform="matrix(0.5,0.866026,-0.866026,0.5,0,0)" /><path
   sodipodi:type="arc"
   style="fill-rule:evenodd;stroke:#000000;fill:url(#radialGradient697);fill-opacity:1;stroke-opacity:1;stroke-width:0.125;stroke-linejoin:miter;stroke-linecap:butt;stroke-dasharray:none;"
   id="path671"
   d="M 106.508 998.9977 A 53.25401 52.70157 0 1 0 0 998.9977 A 53.25401 52.70157 0 1 0  106.508 998.9977 z"
   sodipodi:cx="53.2540092"
   sodipodi:cy="998.997681"
   sodipodi:rx="53.2540092"
   sodipodi:ry="52.7015686"
   transform="matrix(-0.66536,-8.14804e-17,8.233444e-17,-0.672334,230.3155,1780.715)" /><path
   sodipodi:type="arc"
   style="fill-rule:evenodd;stroke:#000000;fill:url(#radialGradient676);fill-opacity:1;stroke-opacity:1;stroke-width:0.125;stroke-linejoin:miter;stroke-linecap:butt;stroke-dasharray:none;"
   id="path672"
   d="M 106.508 998.9977 A 53.25401 52.70157 0 1 0 0 998.9977 A 53.25401 52.70157 0 1 0  106.508 998.9977 z"
   sodipodi:cx="53.2540092"
   sodipodi:cy="998.997681"
   sodipodi:rx="53.2540092"
   sodipodi:ry="52.7015686"
   transform="matrix(-0.66536,-8.14804e-17,8.233444e-17,-0.672334,17.71656,1780.715)" /><rect
   style="font-size:12;fill:url(#linearGradient655);fill-rule:evenodd;stroke-width:1;fill-opacity:1;"
   id="rect668"
   width="106.298544"
   height="14.1731295"
   x="-645.887891"
   y="532.470472"
   transform="matrix(0.5,-0.866025,0.866025,0.5,0,0)" /><rect
   style="font-size:12;fill:url(#linearGradient658);fill-rule:evenodd;stroke-width:1;fill-opacity:1;"
   id="rect666"
   width="106.299385"
   height="14.173244"
   x="-733.521237"
   y="-394.858179"
   transform="matrix(-0.5,-0.866026,0.866026,-0.5,0,0)" /><rect
   style="font-size:12;fill:url(#linearGradient655);fill-rule:evenodd;stroke-width:1;fill-opacity:1;"
   id="rect665"
   width="106.298468"
   height="14.173118"
   x="-1026.91017"
   y="241.021653"
   transform="matrix(0.5,-0.866025,0.866025,0.5,0,0)" /><rect
   style="font-size:12;fill:url(#linearGradient658);fill-rule:evenodd;stroke-width:1;fill-opacity:1;"
   id="rect664"
   width="106.3004"
   height="14.1733775"
   x="-682.209709"
   y="-668.000729"
   transform="matrix(-0.5,-0.866026,0.866026,-0.5,0,0)" /><rect
   style="font-size:12;fill:url(#linearGradient615);fill-rule:evenodd;stroke-width:1;fill-opacity:1;"
   id="rect661"
   width="106.299232"
   height="14.1732311"
   x="-230.314957"
   y="917.716492" /><path
   sodipodi:type="arc"
   style="fill-rule:evenodd;stroke:#000000;fill:url(#radialGradient614);fill-opacity:1;stroke-opacity:1;stroke-width:0.125;stroke-linejoin:miter;stroke-linecap:butt;stroke-dasharray:none;"
   id="path610"
   d="M 106.508 998.9977 A 53.25401 52.70157 0 1 0 0 998.9977 A 53.25401 52.70157 0 1 0  106.508 998.9977 z"
   sodipodi:cx="53.2540092"
   sodipodi:cy="998.997681"
   sodipodi:rx="53.2540092"
   sodipodi:ry="52.7015686"
   transform="matrix(0.66536,-8.148039e-17,-8.233448e-17,-0.672334,318.898,1688.589)" /><path
   sodipodi:type="arc"
   style="fill-rule:evenodd;stroke:#000000;fill:url(#radialGradient621);fill-opacity:1;stroke-opacity:1;stroke-width:0.125;stroke-linejoin:miter;stroke-linecap:butt;stroke-dasharray:none;"
   id="path617"
   d="M 106.508 998.9977 A 53.25401 52.70157 0 1 0 0 998.9977 A 53.25401 52.70157 0 1 0  106.508 998.9977 z"
   sodipodi:cx="53.2540092"
   sodipodi:cy="998.997681"
   sodipodi:rx="53.2540092"
   sodipodi:ry="52.7015686"
   transform="matrix(0.66536,0,0,0.672334,-53.1496,68.89111)" /><path
   sodipodi:type="arc"
   style="fill-rule:evenodd;stroke:#000000;fill:url(#radialGradient626);fill-opacity:1;stroke-opacity:1;stroke-width:0.125;stroke-linejoin:miter;stroke-linecap:butt;stroke-dasharray:none;"
   id="path622"
   d="M 106.508 998.9977 A 53.25401 52.70157 0 1 0 0 998.9977 A 53.25401 52.70157 0 1 0  106.508 998.9977 z"
   sodipodi:cx="53.2540092"
   sodipodi:cy="998.997681"
   sodipodi:rx="53.2540092"
   sodipodi:ry="52.7015686"
   transform="matrix(0.66536,0,0,0.672334,-318.8976,161.017)" /><path
   sodipodi:type="arc"
   style="fill-rule:evenodd;stroke:#000000;fill:url(#radialGradient631);fill-opacity:1;stroke-opacity:1;stroke-width:0.125;stroke-linejoin:miter;stroke-linecap:butt;stroke-dasharray:none;"
   id="path627"
   d="M 106.508 998.9977 A 53.25401 52.70157 0 1 0 0 998.9977 A 53.25401 52.70157 0 1 0  106.508 998.9977 z"
   sodipodi:cx="53.2540092"
   sodipodi:cy="998.997681"
   sodipodi:rx="53.2540092"
   sodipodi:ry="52.7015686"
   transform="matrix(0.66536,0,0,0.672334,-318.8976,345.269)" /><rect
   style="font-size:12;fill:url(#linearGradient615);fill-rule:evenodd;stroke-width:1;fill-opacity:1;"
   id="rect649"
   width="106.299232"
   height="14.1732311"
   x="35.4330788"
   y="995.669235" /><rect
   style="font-size:12;fill:url(#linearGradient615);fill-rule:evenodd;stroke-width:1;fill-opacity:1;"
   id="rect660"
   width="106.299232"
   height="14.1732311"
   x="-124.015753"
   y="917.716537" /><path
   sodipodi:type="arc"
   style="fill-rule:evenodd;stroke:#000000;fill:url(#radialGradient636);fill-opacity:1;stroke-opacity:1;stroke-width:0.125;stroke-linejoin:miter;stroke-linecap:butt;stroke-dasharray:none;"
   id="path632"
   d="M 106.508 998.9977 A 53.25401 52.70157 0 1 0 0 998.9977 A 53.25401 52.70157 0 1 0  106.508 998.9977 z"
   sodipodi:cx="53.2540092"
   sodipodi:cy="998.997681"
   sodipodi:rx="53.2540092"
   sodipodi:ry="52.7015686"
   transform="matrix(0.665359,0,0,0.672334,-159.4488,253.1431)" /><rect
   style="font-size:12;fill:url(#linearGradient658);fill-rule:evenodd;stroke-width:1;fill-opacity:1;"
   id="rect657"
   width="106.298904"
   height="14.1731801"
   x="-889.545072"
   y="-493.121671"
   transform="matrix(-0.5,-0.866026,0.866026,-0.5,0,0)" /><path
   sodipodi:type="arc"
   style="fill-rule:evenodd;stroke:#000000;fill:url(#radialGradient636);fill-opacity:1;stroke-opacity:1;stroke-width:0.125;stroke-linejoin:miter;stroke-linecap:butt;stroke-dasharray:none;"
   id="path640"
   d="M 106.508 998.9977 A 53.25401 52.70157 0 1 0 0 998.9977 A 53.25401 52.70157 0 1 0  106.508 998.9977 z"
   sodipodi:cx="53.2540092"
   sodipodi:cy="998.997681"
   sodipodi:rx="53.2540092"
   sodipodi:ry="52.7015686"
   transform="matrix(0.66536,0,0,0.672334,5.722046e-5,345.269)" /><rect
   style="font-size:12;fill:url(#linearGradient655);fill-rule:evenodd;stroke-width:1;fill-opacity:1;"
   id="rect656"
   width="106.298582"
   height="14.1731352"
   x="-798.36776"
   y="636.870813"
   transform="matrix(0.5,-0.866025,0.866025,0.5,0,0)" /><path
   sodipodi:type="arc"
   style="fill-rule:evenodd;stroke:#000000;fill:url(#radialGradient636);fill-opacity:1;stroke-opacity:1;stroke-width:0.125;stroke-linejoin:miter;stroke-linecap:butt;stroke-dasharray:none;"
   id="path641"
   d="M 106.508 998.9977 A 53.25401 52.70157 0 1 0 0 998.9977 A 53.25401 52.70157 0 1 0  106.508 998.9977 z"
   sodipodi:cx="53.2540092"
   sodipodi:cy="998.997681"
   sodipodi:rx="53.2540092"
   sodipodi:ry="52.7015686"
   transform="matrix(0.66536,0,0,0.672334,106.2994,345.269)" /><rect
   style="font-size:12;fill:url(#linearGradient615);fill-rule:evenodd;stroke-width:1;fill-opacity:1;"
   id="rect653"
   width="106.299232"
   height="14.1732311"
   x="35.4330711"
   y="811.417282" /><rect
   style="font-size:12;fill:url(#linearGradient655);fill-rule:evenodd;stroke-width:1;fill-opacity:1;"
   id="rect654"
   width="106.298735"
   height="14.1731581"
   x="-798.308784"
   y="452.721102"
   transform="matrix(0.5,-0.866025,0.866025,0.5,0,0)" /><path
   sodipodi:type="arc"
   style="fill-rule:evenodd;stroke:#000000;fill:url(#radialGradient636);fill-opacity:1;stroke-opacity:1;stroke-width:0.125;stroke-linejoin:miter;stroke-linecap:butt;stroke-dasharray:none;"
   id="path642"
   d="M 106.508 998.9977 A 53.25401 52.70157 0 1 0 0 998.9977 A 53.25401 52.70157 0 1 0  106.508 998.9977 z"
   sodipodi:cx="53.2540092"
   sodipodi:cy="998.997681"
   sodipodi:rx="53.2540092"
   sodipodi:ry="52.7015686"
   transform="matrix(0.66536,0,0,0.672334,0,161.0171)" /><rect
   style="font-size:12;fill:url(#linearGradient658);fill-rule:evenodd;stroke-width:1;fill-opacity:1;"
   id="rect659"
   width="106.299171"
   height="14.1732154"
   x="-889.486021"
   y="-308.971828"
   transform="matrix(-0.5,-0.866026,0.866026,-0.5,0,0)" /><path
   sodipodi:type="arc"
   style="fill-rule:evenodd;stroke:#000000;fill:url(#radialGradient636);fill-opacity:1;stroke-opacity:1;stroke-width:0.125;stroke-linejoin:miter;stroke-linecap:butt;stroke-dasharray:none;"
   id="path643"
   d="M 106.508 998.9977 A 53.25401 52.70157 0 1 0 0 998.9977 A 53.25401 52.70157 0 1 0  106.508 998.9977 z"
   sodipodi:cx="53.2540092"
   sodipodi:cy="998.997681"
   sodipodi:rx="53.2540092"
   sodipodi:ry="52.7015686"
   transform="matrix(0.66536,0,0,0.672334,-53.14961,253.143)" /><path
   sodipodi:type="arc"
   style="fill-rule:evenodd;stroke:#000000;fill:url(#radialGradient636);fill-opacity:1;stroke-opacity:1;stroke-width:0.125;stroke-linejoin:miter;stroke-linecap:butt;stroke-dasharray:none;"
   id="path644"
   d="M 106.508 998.9977 A 53.25401 52.70157 0 1 0 0 998.9977 A 53.25401 52.70157 0 1 0  106.508 998.9977 z"
   sodipodi:cx="53.2540092"
   sodipodi:cy="998.997681"
   sodipodi:rx="53.2540092"
   sodipodi:ry="52.7015686"
   transform="matrix(0.66536,0,0,0.672334,106.2994,161.0171)" /><path
   sodipodi:type="arc"
   style="fill-rule:evenodd;stroke:#000000;fill:url(#radialGradient636);fill-opacity:1;stroke-opacity:1;stroke-width:0.125;stroke-linejoin:miter;stroke-linecap:butt;stroke-dasharray:none;"
   id="path645"
   d="M 106.508 998.9977 A 53.25401 52.70157 0 1 0 0 998.9977 A 53.25401 52.70157 0 1 0  106.508 998.9977 z"
   sodipodi:cx="53.2540092"
   sodipodi:cy="998.997681"
   sodipodi:rx="53.2540092"
   sodipodi:ry="52.7015686"
   transform="matrix(0.66536,0,0,0.672334,159.4488,253.1431)" /><path
   sodipodi:type="arc"
   style="fill-rule:evenodd;stroke:#000000;fill:url(#radialGradient636);fill-opacity:1;stroke-opacity:1;stroke-width:0.125;stroke-linejoin:miter;stroke-linecap:butt;stroke-dasharray:none;"
   id="path663"
   d="M 106.508 998.9977 A 53.25401 52.70157 0 1 0 0 998.9977 A 53.25401 52.70157 0 1 0  106.508 998.9977 z"
   sodipodi:cx="53.2540092"
   sodipodi:cy="998.997681"
   sodipodi:rx="53.2540092"
   sodipodi:ry="52.7015686"
   transform="matrix(0.665359,0,0,0.672334,-265.748,253.1431)" /><path
   sodipodi:type="arc"
   style="fill-rule:evenodd;stroke:#000000;fill:url(#radialGradient675);fill-opacity:1;stroke-opacity:1;stroke-width:0.125;stroke-linejoin:miter;stroke-linecap:butt;stroke-dasharray:none;"
   id="path667"
   d="M 106.508 998.9977 A 53.25401 52.70157 0 1 0 0 998.9977 A 53.25401 52.70157 0 1 0  106.508 998.9977 z"
   sodipodi:cx="53.2540092"
   sodipodi:cy="998.997681"
   sodipodi:rx="53.2540092"
   sodipodi:ry="52.7015686"
   transform="matrix(0.66536,0,0,0.672334,159.4488,68.89111)" /><path
   sodipodi:type="arc"
   style="fill-rule:evenodd;stroke:#000000;fill:url(#radialGradient636);fill-opacity:1;stroke-opacity:1;stroke-width:0.125;stroke-linejoin:miter;stroke-linecap:butt;stroke-dasharray:none;"
   id="path673"
   d="M 106.508 998.9977 A 53.25401 52.70157 0 1 0 0 998.9977 A 53.25401 52.70157 0 1 0  106.508 998.9977 z"
   sodipodi:cx="53.2540092"
   sodipodi:cy="998.997681"
   sodipodi:rx="53.2540092"
   sodipodi:ry="52.7015686"
   transform="matrix(0.66536,-8.148039e-17,-8.233448e-17,-0.672334,265.7484,1596.463)" /><path
   sodipodi:type="arc"
   style="fill-rule:evenodd;stroke:#000000;fill:url(#radialGradient684);fill-opacity:1;stroke-opacity:1;stroke-width:0.125;stroke-linejoin:miter;stroke-linecap:butt;stroke-dasharray:none;"
   id="path683"
   d="M 106.508 998.9977 A 53.25401 52.70157 0 1 0 0 998.9977 A 53.25401 52.70157 0 1 0  106.508 998.9977 z"
   sodipodi:cx="53.2540092"
   sodipodi:cy="998.997681"
   sodipodi:rx="53.2540092"
   sodipodi:ry="52.7015686"
   transform="matrix(0.66536,0,0,0.672334,-425.1968,345.269)" /><path
   sodipodi:type="arc"
   style="fill-rule:evenodd;stroke:#000000;fill:url(#radialGradient687);fill-opacity:1;stroke-opacity:1;stroke-width:0.125;stroke-linejoin:miter;stroke-linecap:butt;stroke-dasharray:none;"
   id="path686"
   d="M 106.508 998.9977 A 53.25401 52.70157 0 1 0 0 998.9977 A 53.25401 52.70157 0 1 0  106.508 998.9977 z"
   sodipodi:cx="53.2540092"
   sodipodi:cy="998.997681"
   sodipodi:rx="53.2540092"
   sodipodi:ry="52.7015686"
   transform="matrix(-0.66536,8.148039e-17,-8.233448e-17,-0.672334,496.063,1504.337)" /><path
   sodipodi:type="arc"
   style="fill-rule:evenodd;stroke:#000000;fill:url(#radialGradient695);fill-opacity:1;stroke-opacity:1;stroke-width:0.125;stroke-linejoin:miter;stroke-linecap:butt;stroke-dasharray:none;"
   id="path694"
   d="M 106.508 998.9977 A 53.25401 52.70157 0 1 0 0 998.9977 A 53.25401 52.70157 0 1 0  106.508 998.9977 z"
   sodipodi:cx="53.2540092"
   sodipodi:cy="998.997681"
   sodipodi:rx="53.2540092"
   sodipodi:ry="52.7015686"
   transform="matrix(0.66536,0,0,0.672334,-159.4488,146.8438)" /><path
   sodipodi:type="arc"
   style="fill-rule:evenodd;stroke:#000000;fill:url(#radialGradient626);fill-opacity:1;stroke-opacity:1;stroke-width:0.125;stroke-linejoin:miter;stroke-linecap:butt;stroke-dasharray:none;"
   id="path696"
   d="M 106.508 998.9977 A 53.25401 52.70157 0 1 0 0 998.9977 A 53.25401 52.70157 0 1 0  106.508 998.9977 z"
   sodipodi:cx="53.2540092"
   sodipodi:cy="998.997681"
   sodipodi:rx="53.2540092"
   sodipodi:ry="52.7015686"
   transform="matrix(0.66536,0,0,0.672334,-159.4488,345.269)" /><path
   sodipodi:type="arc"
   style="fill-rule:evenodd;stroke:#000000;fill:url(#radialGradient626);fill-opacity:1;stroke-opacity:1;stroke-width:0.125;stroke-linejoin:miter;stroke-linecap:butt;stroke-dasharray:none;"
   id="path706"
   d="M 106.508 998.9977 A 53.25401 52.70157 0 1 0 0 998.9977 A 53.25401 52.70157 0 1 0  106.508 998.9977 z"
   sodipodi:cx="53.2540092"
   sodipodi:cy="998.997681"
   sodipodi:rx="53.2540092"
   sodipodi:ry="52.7015686"
   transform="matrix(0.66536,0,0,0.672334,106.2992,529.5211)" /><path
   sodipodi:type="arc"
   style="fill-rule:evenodd;stroke:#000000;fill:url(#radialGradient621);fill-opacity:1;stroke-opacity:1;stroke-width:0.125;stroke-linejoin:miter;stroke-linecap:butt;stroke-dasharray:none;"
   id="path707"
   d="M 106.508 998.9977 A 53.25401 52.70157 0 1 0 0 998.9977 A 53.25401 52.70157 0 1 0  106.508 998.9977 z"
   sodipodi:cx="53.2540092"
   sodipodi:cy="998.997681"
   sodipodi:rx="53.2540092"
   sodipodi:ry="52.7015686"
   transform="matrix(0.66536,0,0,0.672334,212.5984,529.521)" /></svg>
