/* XPM */
static char * nuke_xpm[] = {
"90 88 8 1",
" 	c None",
".	c #242424",
"+	c #4A4A4A",
"@	c #A05F4A",
"#	c #BFA076",
"$	c #FFB012",
"%	c #EEEE12",
"&	c #FFFFFF",
"                                        ........                                          ",
"                                      ...++@+@@@...                                       ",
"                                     ..++@#$$#$#+@...       ......                        ",
"                                     .++##%%##@#@++...   .....++++...                     ",
"                                ......+@#%%#$##@@@@++.....+++@@@@+@+...                   ",
"                              ...++++#$$#%%$#@@#++@@@+...+@@@@@@@@+@++..                  ",
"                             ..+@@@+#$$@#%$%#@@@#@@@@@+..+@@++++++@++@+..                 ",
"                            .+@$$###$#@@$%%%$##@$#@@+@++.+++@@@@@@@+@+++.                 ",
"                           .+@$%$##$#@##$%%%%$$#@@#@@++.++@###@@@@@@+@++..                ",
"                   ........+@$%$##$$##$%%%&%&%$$##@#@@++++##$@#@###@@++++.                ",
"                ...++++++++@$%%#@##$#$%%&%&&&&%%$#$@$@@+@@#@#$#$@$##@@@++.                ",
"              ..++@@@@+@+@+@#$$@#@$$$%%%&&&&%%&%%$#$#$@@@@$#$$$%$$@$#@@++....             ",
"             ..++@@@#@@+@+@@##@#@##$%%%&&&&%%%%&%%$##$#@$@#$%%%%$%$$$@@@++.....           ",
"            .++@#@@@@@#@@@#@@#$$#@#%%&%&&%&&%%&%&%$%$#@$##$%$%%%&&%$$@+@+++..+..          ",
"           ..+@#@+@###@#@#@##@#$$%%%%%%&%&%&&&&&%&%$%$#$#%$%%%%&&&&%%$@+++@++.++.         ",
"          ..+@#@++##$$##$$#@###$%%%%&%%%%%&&%&&&%&%%#$$$#$%$&%&&&&&%@@+@@+@+@++.+.        ",
"          ..@@@+@#$$%$$%%%$###$$%%%%&&$$%$%&&&&&&%&%%#$#$%$%%&&&&&%@+@@#@@+@@@@+.+.       ",
"         ..+@++$$$$%$%$%$%%$$%%%%%$###$$$%$%%&%&%&%%$###%%%%&&&&&%@+@##$#@@#$@@@+.+.      ",
"         ..++@$$%$%$%%%%$%$%%%%%$$######$$%$%$%%&%&%$$#$#%&%$$%%$@@#$#$#$#@@#$@@+++..     ",
"         .++@@%$$%%%&&&%%%%%%%%$#$$#@@#@#$$%$%$$%$%%%$#$#@#@@##$@@#$$$$$%%@@@#@@@+.+.     ",
"        ..+@@#$%$%%&&%%&%&&%$#####@@##@#@#$$%%$%$%$%%%$&$$@#@@@@@@$%%$%%$%#@@##@@++.+.    ",
"        ..+@#$$%%%&&%&&%&&&%##@#@@##@####@$%%$%$%$%&&%&%&$$#@#@@@#$%%%$$%$@#@#$#@@++..    ",
"        .+@#$#%$%&&&&%&&&&&$#@#@@#@##$$###@$&%%&%#%%%&%&&%$$#@@@#%%%%&%%%%#@#%#$$@+++.    ",
"        .+@##$$%%&&%%%%&%&$#@#@#@@##$$$$$#$&&&&&&$##$$%%&&%$%@#@@$%%&%&%%$#$%$%$#@@+.+.   ",
"        .+@#$#$%&&&%%&%&&%$##@@@@@$@@@$$$$$%&%%&$$#@##$$%&%%$#@##$%%&&%&##%#$%%$#@@++..   ",
"        .+@@#$%%%&%%%%&%&%$#@#@@#$$@$$$%$%$%%%%$$%$#@#@##%&&%$#@@#$%&&&%%$$$%$$$$@++.+.   ",
"        ..+@@#$%&%%$%%&%&%%#@@@#@$%$$%%%%%%##%%%%%%#@@#@@#&&&%@##$$&%&&&$%%$$%%$#@@++..   ",
"        ..++@$%$%%$%%&&&%&%$#@@$$$$%%&%%%%%%$#%%%%%$$#@@#$%&&%#@##$%&&&%%%$%$%#$$@@+.+.   ",
"         .+@@$$%%$$%%&&&&%%$@$$$%$%&%&%%%%&&&%$%%&&%$@@@@#%&&%####%&%&&%%$%$%%$$$@@++..   ",
"         ..+#$%$%$#%&&&%&%%#@$$%$%$%&%&&%&&%&&%&&%&&%$@@@#$&&%#$#$%%&&%$%%%$%%#$#@@++..   ",
"         ..@##$%$$$%&&%&%$#@$#%$%$%%&&&%&&&&&&&%&&&&%%#@@@$&&$%#$#%&&&%%&&$%%$$$#@++.+.   ",
"       ...@#$##$$#$&%%%#@@@@#$$%$@#$%&&&&&&&&&&&&&%&&%$@#@$&%%#$$%&&&%&&&&&$%%#$@+@++..   ",
"      ..+@@$%$####$%%$#@#@#$$%%%#@@$%&%&&&&&&&&%%&&&%%%#@@#&%#$$%%&&%%%&&&$$$$$#@@++...   ",
"     ..+@#$%$$###$%%%##$$$%$$%&%@@#%%&&&&&&&&&&&%$%&&%$#@@@&%%#$#%&%%%%&&&##%$##@+@++.    ",
"     ..+#$$&%$$#@$%%$#$$%%%&&&%&$$%%&%&&&&&&&&&&&%#%&%%##@#&$$#@#$%%%%%%&#$$$@#@@@++..    ",
"    ..+@#$%&%%$@$%%%$#%%%%&&%$&%%%&%&&&&&&&&&&&&&&$#%%%$@@$%$##@#%$%%&%&%$$$%#@@+@+..     ",
"    ..+@#$&&&$@$%%%&#%&&%$%%$%&$%%%&%&%&&&&&&&&&&&%##%$%#@#%#$@@#$%&%%%%$$#@#@#@++..      ",
"    ..+@$%&%#@@$%%&%#%&&&##%%&%#$&%%&%&&&&&&&&&&&&%$@$%$$#$%##@##$%&%%%$%#@#@#@++.+.      ",
"    ..+@$%%%$@##$&$$%$&&&$##%&%@#%&%&&&&&&&&&&&&&&%@@#%%%$%$#@@##$%%$$$$#@#$#@#@++.+.     ",
"   ..+@#$%%$#$#$%%#&&&$%#$&&&&$#@%%&&%&&&&&&&&&&&&&$@#%&$%%$#@@#$%$%$#$#$#$%$#@#@++..     ",
"  ...@#$%$%$$$$&&$##%#$&%#%&%&%#@%&%&&&&&&&&&&&&&&&%##$&%%$#@@#$$%$$#$$%&&&%%$##@@++..    ",
"  ..@##$$%$$#$%&&%#%&%#%&%&$%%&$#%%&&&&&&&&&&&&&&&&%#@$%$$@@##$$%$$%%$$%%&%&%$$##@@@+..   ",
" ..+##$%$%$%#$%&&%%&&&##%%&%%&%%$%&%&&&&&&&&&&&&&&&$#@$$$$##$$$%$%&&%$%%%&&%%%$$$#@@++..  ",
" ..+#$$$%&%#@#%&&%%%&%$#%&%%%%&&%&&&&&&&&&&&&&&&&&&#@@%%$$$$$%%%%%%&%%$%&%%&&%%%$$#@@++.. ",
" .+@#$%%&%$#@#%&&&%&&&#&&%%%%&%&%%%&&&&&&&&&&&&&&&%#$$%$%%%%$%$%%$%&%&%$%&&%&&&%%$$#@++.. ",
"..+@$%%%&&%#@#$&&&%%&%#$%%%%%&%%&%&&&&&&&&&&&&&&&&&$#%$%&%&%%%%%$%%%%%%%%&&&&%%%%$$#@@+...",
"..+$$%&&&%%#@#$%&&&%%#$&$&%%%%%&%&&%&&&&%&&&&&&&&&%$%&%&&&%&&%%%%$%$%%&&&%&%&&&%$%$#$@+...",
"..+@$&&&&&%#@@#%&&&$#$&&&$&%$%%%%%&&&%&&&&&&&&&&&&%%&&&&%&&&&%%%$%$%%%%%&&$##$$$%$$#$@+...",
"..+$$&&&&%%$#@#$%&&&$%%$$$$$%$%%%%%&&&&&&&&&%&&&&&&%&&&&&&&&&&%%%$%$%$%%&$$$#####$$%$@++..",
"..+@$&&&&%%&$@@#%&&&%%%$$%$$$&%%%%&&%&&&&&&&&&&&&&%&&&&&&&&&&&&%%$$%$%%%%##$#@@#$%%%$@+...",
"..+@$%&&%%&%$#@#$&&&&%$%%$$$&$$%&&%&&&&%&&&&&&&&&&&&&&&&&&&&&&%%%%%$%%$%%#$$#@@@#&&$#@++..",
"..++#%&%%%&&$#$#$%&&&&%%%%%%&%$&%%&%%&&&&&&&&&&&&&&&&&&&&&&&&&&%%%$$%$%%#$###@@#%&%##@++. ",
" .++#$%%%$%&%$###%&&&&$%%%%%%%%%&&%%&%&&&%&%&&&&&&&&&&&&&&&&&&&%%$#%$%%###@@##@#&%$#@++.. ",
" ..+@#$%$%$%&%%$$$%&%%&$$#%%%%%%%%$%%&&%%&&&&&&%&&&&&&&&&&&&%&%$$%%$%%%$##@@@@@$%$#@@++.. ",
" ..+@@$$%$$$%%$#$$%%%%%$#$#$%%%$$#&%%%%&%&%&%&&&&&&&&&&&&%&&%$$##$%%$%$%$##@@@@#@#@@++..  ",
"  .++@#$$###$$$#%#$#$%%&#%%%$%$##&#&&%%%&%%&&&&&&%&&&&&&&&%$@###$%$$$$&%%$####@@@@@++..   ",
"  ..++@##$####$%$%$$$#$%##$%#$$$$@$&&&%$$%&&%&%&&&&&%&%&&%$##@@$&%%%$$%&%$##$#@##@@@+..   ",
"   ..++@###@####%%%%%#$$$$##@@##@#%%%%$#&%%%%%%&%&&&&&&%%#@@@#%&%%%$$$%%%$$$$$##$#@@++.   ",
"    ..+++@@@@#@##$%%#$$$%$$%%$@@@@$%%%#&&&%%%%%%&%&%&&%%$$@@$%&&&%%%$%%&$%%%%%##$$#@@++.  ",
"     ..++++++@####$%&%$#$%$%%%$@@#%$#@#$%%$%%%%%%&&&%%$$#@$%&$#%&&%$%$%&%%%&&%%%%$$#@++.  ",
"      ...+...+##$$%%%$$$%$$$%$@@$$$@@@@@#@%%%%%%%%&&&&&%@$&%$@%%%&&%$%$%$$%%&%&&%%$#@@+.. ",
"        ....+@@$$%%%&%$%%%$%&%%%%&%$@@@#$%%%%%%%%&%&&%&&%$%$@@%&&%&&%%%$$%%&%&&&%%$@@@++. ",
"         ..+@##$$%%&%&&&&$#$&&&&&&&&$$@#%%$#$%%%$%&&&&&$#@@@#$%&&&&%&%&$$$%%&&&&&%$@@++.+.",
"         .++@#$%$%&%%%&$&##$%&&%&&&&&$$@$#@$%%%$$%%&%&%$##@@@@$%&%&&%&%%$%%&&&&&%%$@@@++..",
"        .+@+##$%%&%&%&$&$#@$%%&&&&&&&&%$@@@%$%%%$%&%&%%%$@###$$%&&%%%$%$%&&&&&&%&%$#@@+.+.",
"        .@@@@$$%&%%%&&&&&#@@$%%%&&&&&%&$$@%%%%%%##$%%#$%%#@@@$$$%%$%$%$#$%&&%&%&%%$@@@++..",
"       .@@+@##$$&%%&&%&&&$#@#$%%%&&%%%$%$@%$%%%%%###@@@$&%$@$$$$%$$$$%###%&%&%%%%$$@@+@++.",
"       .@@+@##$%%$%%%%%&&%@@@#$%%&%%%$#$$@#%%%%%&%#@@###$%$#%$$%%%$%&%$@#%%&%%&%%$##@@++..",
"       .@++@@$$$%%$%%%&&%$@@@@$$%%%%#@#%$#$$%$%%%&%$$$$%%&%%&&&%%%%%%%%#@$%%%%%&%$#@@@+.. ",
"       .@.@@#$$$$%$%$%%%%$#@@###%$$#@$%$$#%$$%$%%%&&&&&&&&&&&%&%%%%&&%%@#%%%&%&%%$#@+@++. ",
"       .@.+@##$%$$$$%$$%$%$@@@#$$$#@@%%$#$$%$%%%%%&&&&&&&&&&%&%%%&&&%&$@@$%%%%%%$$#@@++.. ",
"       .+++@#$$%%$%$$$%$$$$#@@@##$#@#%%$#$%$$%$%%%&%%%&%&&&%&%&%&%%&&%%@#%#$%%%$$##@++..  ",
"       .+.++$#$$$%%%$%$$#$$#@@#$$#@##$$$$$%%%$%%$%%%%%%&&%&&%%%&%$%$%%$@@##$%$$$##@++.+.  ",
"       .+.++#$#$#$$%%$%$$$#@###$#@#@#@##$%%%%%$%%%&%%%%%&&%&%%%%$$$%%$$#@##$$$##@@++.+.   ",
"        ...+@##$$$$$$$$$$#@@#$$#@@@+@@#$%$%$%%%$%&%&&%%%%%%%$%$%$$%&%$#@@@#$##@@@++.+.    ",
"        .+.+@@$#$#$%%$%#$#@@###@+@@@@@#$$%$%&&%%&%$%%$%$%$%$%$%$%%&%%$#@+@@#@@@@++.+.     ",
"        ....+@#$#$#$$$$$##@@++++@@@+@@@#%$%&%&&&&%$%$$$$$$$$%$$%&&&%$$#@@+@@@@@+++..      ",
"         ..+.+@###$$##$#@@@++...++@+@@@#$$%$%%&&%&%$$%$$#$$$$%$%&%%$$##@+++@+@++...       ",
"         ..++.+@####$$@@@@++......++.+@##%$%$%%%&%%%%$$#@#$#$$$$%$$$##@+++++++...         ",
"          ..+.+++@@@@@+@+++..... ..+.++@#$%$%$%&%%%%$$##@@#$#$#$$$##@@+++..+...           ",
"           ..+.++++++++++.....    ..+.+@@$$%%%%%%%$$$##@+@##$#$###@@@+++....              ",
"             ...+.+++++.....       ..+.+@#$$%%$$$$$##@@+++@#####@@@@++..                  ",
"               ..........           ...++@##$$$$$##@@@+++++@@@@@@@+++..                   ",
"                                     ...++@######@@@@++++++++++++++....                   ",
"                                      ...+++@@@@@@@++++...+++++++.....                    ",
"                                        ...++++++++++................                     ",
"                                          ....+++++...     ........                       ",
"                                             .......                                      "};
