/* XPM */
static char * small+_reix_xpm[] = {
"465 20 50 1",
" 	c None",
".	c #0607D4",
"+	c #1E8FCF",
"@	c #1F6FC4",
"#	c #5DACD2",
"$	c #4C55D1",
"%	c #CFCDC8",
"&	c #6471CE",
"*	c #2130D1",
"=	c #F7E700",
"-	c #000000",
";	c #FF0080",
">	c #FF0000",
",	c #00FFFF",
"'	c #0073EF",
")	c #0000FF",
"!	c #FFFFFF",
"~	c #2A4ECD",
"{	c #728BDA",
"]	c #929295",
"^	c #95759C",
"/	c #AEB0AD",
"(	c #E7D12C",
"_	c #B1CAAE",
":	c #F0F0E0",
"<	c #FFFF80",
"[	c #FFFF00",
"}	c #005242",
"|	c #C6C6C6",
"1	c #632100",
"2	c #F79473",
"3	c #69CDC1",
"4	c #A38F59",
"5	c #294239",
"6	c #90F6B2",
"7	c #F1F331",
"8	c #9ECA43",
"9	c #00FF00",
"0	c #73737B",
"a	c #63E6D1",
"b	c #8C4A21",
"c	c #848442",
"d	c #007B00",
"e	c #FF0029",
"f	c #D5B497",
"g	c #23B1BD",
"h	c #5036A4",
"i	c #00FF84",
"j	c #FF8080",
"k	c #D67A04",
".....+@@##..........+@@##..........+@@##..........+@@##..........+@@##..........+@@##..........+@@##.......$%$#@&##.$%*.===============---------------;;;;;;;;;;;;;;;>>>>>>>>>>>>>>>,',',',',',',',)))))!!!!!>>>>>))))))))))))))))))))))))))))))))))))))))))))))))))))))))))))))))))))))))))))))))))))))))))))))))))))))))))))))))))))))))'''''''''''''''''''''''''''''''''''''''''''''!!!!!!!!!!!!!!!!!!!!!!!!!!!!!!!!!!!!!!!!!!!!!!!!!!!!!!!!!!!!!!!!!!!----!!!!!!!!!!!!!!!!   ",
"....+$.~.*+........+$.~.*+........{]]]&*+........&{^]&*+........&{//&*+........{{(%(_{........{{(%(_{.....&%{{_::::#.]%.===============---------------;;;;;;;;;;;;;;;>>>>>>>>>>>>>>>',',',---,',',')))))!!!!!>>>>>)!<))[)[)<)!<)))!<))[)[)<)!<)))!<))[)[)<)!<)))!<))[)[)<)!<)))!<))[)[)<)!<)))!<))<)<)<)!<)))!<))!)[)<)!<)))!<))<)!)<)!!))''-------''''''}}|||}|}}}}}}}}''''---''''''''!!!!!==!!==!!!!!!!!!!!----!!!!!!!!![[[[!!!!!!!!!!1111!!!!!!!!!!2!!------!!!!!!!!!!!!!!!   ",
"...#*#3@..@#......#*#3@..@#......#&_3&*.@#......#{_3&..@#......#{___*.@#......#]%%_(%(#......#]%:::(%#....%]#%::::::#*_4===============---------------;;;;;;;;;;;;;;;>>>>>>>>>>>>>>>,',','---','2',)))))!!!!!>>>>>)))[)=====)[))))))[)=====)[))))))[)=[=[=)[))))))[)[[[[[)[))))))[)[<[<[)[))))))!)<<<<<)<))))))!)<!<!<)!))))))!)!!!!!)[)))''-------''''''}|||||}}}}}}!}}''''---''''''''!!!!========!!!!!!!!---22---!!!!!![[[[[[!!!!!!!!111111!!!!!!!!222!->>>>-!!!!!55!!!!!!!!   ",
"...#+6~....#*.....#+6~....#*.....3%6@....#*.....3_6&*...#*.....3%__%%/.#*....._%6%%7(%3*.....8%:::::%3*..$:._:::::::_*$%===============---<|-99-<|----;;;;;;;;;;;;;;;>>>>>>>=>>>>>>>',','-----',2,')))))!!!!!>>>>>)[))=======))<))[))====<==))<))[))=[=[=[=))<))[))[[[[[[[))<))[))[<[<[<[))<))<))<<<<<<<))<))[))<!<!<!<))<))[))!!!!!!!))<)''----22'''''''}|||22}}}!}}}}!'''-----'''''''!!!!||||||||!!!!!!!!--2222--!!!!!![2222[!!!!!!!11222211!!!!!!!22!!->>>>-!!!!!505!!!!!!!   ",
"..+*a#......+....+*a#......+....+]_+......+....+]6#&//*..+....+/6%%7((%.+....+%%%7(7%7%+....+%:::::::(+.._/#:::::::::{.:=====-----=====--<|>-==-><|---;;;;;;;;;;;;;;;>>>=>>===>>=>>>,',','b2b',22',)))))!!!!!>>>>>)))=========<)))))=[=[===[=<!))))=[=[=[=[=<!))))[[[[[[[[[<)))))[<[<[<[<[<)))))<<<<<<<<<<)))))<!<!<!<!<<)))))!!!!!!!!!!))''--2-222''--''}}|2222}}}}!}!}''''b2b''''''''!!!!!212212!!!!!!!!!--2112--!!!!!!!2222!!!!!!!!11222211!!!!!!!!!1!!>>>>!!!!!!5005!!!!!!   ",
"..&@#*......#....&@#*......#....@_#*......#....@/#](%(%..#....@_%7%7(7%$#....@_6%:::(((#....@_:::::::%#..%&@:::::::::#*%===--==-==--===--|<|-==-<|<---;;;=;;;=;;;=;;;>>===>=>=>===>>',',',2b2,'||,')))))!!!!!>>>>>))===========))))===========))))=[=[=[=[=[=))))[[[[[[[[[[[!)))[<[<[<[<[<[!)))<<<<<<<<<<<!)))<!<!<!<!<!<!)))!!!!!!<!!!!![''--2-22'''--''}}}222}}}}}}!}}''''2b2''''''''!!!!!222222!!!!!!!!!!!2222!!!!!!!!!2222!!!!!!!!1122221!!!!!!!!!111!!>>!!!!!!!50005!!!!!   ",
"..#~~.......#....#~~.......#....#]~*]]^...#....#]@%((%(/.#....#__:::%(%]#....#_%7::::%%#....#%:::::::(#..%$#:::::::::3.%==-===---===-==------==-------;;;==;;=;;==;;;>>>=>>>>>>>=>>>,',','2-2',--',)2)))!b!!!>c>>><)===========)<<)==[=<=[=[==)<<)[=[=[=[=[=[)[<)[[[[[[[[[[[)[<)<[<[<[<[<[<)<<)<<<<<<<<<<<)<<)!<!<!<!<!<!)[<)!!<!!<!!!!!))'''000000''--''}}}!!!}}}}}}}}!''''222''''''''!!!!!!2112!!!!!!!!!!ddeddedd!!!!!--!22!--!!!!!!1!!22!1!!!!!!!!!!1111!!122!!!!500005!!!!   ",
"..#..$...*@*#....#../%f&*@*#....#$*%(%f4@&#....#&$(::%(/{#....#_%7::::%_#....#_%:::::%_#....g/:::::::_#../$#:::::::::#h{==-===---===-==---<|-==-|<----;;;==;===;==;;;>>>>>>>>=>>>>>>',',',|-|,'--,')2)))!b!!!>c>>>)<===========)))<===========)))<=[=[=[=[=[=)))<[[[[[[[[[[[)))<[<[<[<[<[<[)))<<<<<<<<<<<<)))<<!<!<!<!<!<)))!!!<!!<!!!!!))'''00000'''00''}}}!!!!}}}}}}}}''--5|5--''''''!!!!!!d22d!!!!!!!!ddddeddeddd!!!----!!----!!!!!1,,!!,,!!!!!!!!!!!111112221!!!5000005!!!   ",
"..#..]$..{#.a....#..{^/(%#*3....#h*/(77%%&3....#.&(7(:7/]3....#.(7(7::%_a....+%(7:::7%_a....#%:::::::%a..&{#:::::::::a{$=-===--=--===-=--<|>-==->|<---;;;==;===;==;;;>>>>>==>>=>>>>>,','---------',)222)!bbb!>ccc>))===========[)))==[=[=[=<==[)))[=[=[=[=[=[[)))[[[[[[[[[[[[)))<[<[<[<[<[<[)))<<<<<<<<<<<!)))!<!<!<!<!<!!)))!!!<!!!!!!![)'''|||||'''20''}}}!!!!}}}!}}}}'----55---'''''!!!)))d))d))))!!!dddddeeeed22!!!----!!-----!!!!!,,,,,,,!!!!!!!!!!1111122!1!!!50000005!!   ",
"...+*&4.*{{+*.....+*&].*{{+*.....+*{/f(%/#*.....{*/f(%/#/*.....#%7%7(:%/*.....{7(7:76%/*.....#7::::::/*..$/._:::::::%*4*=-===--=--===-=--|>>-==->>|---;;;=========;;;>>>>==>>>=>>>>>','----!-----,')222)!bbb!>ccc>)<===========)))<=========[=)))<=[=[=[=[=[=)))<[[[[[[[[[[[)))<[<[<[<[<[<[)))<<<<<<<<<<<<)))!<!<!<!<!<!<)))<!!!!!!!!!!!))'''|||||||522''|||!!!!!02!||||'---55-----''''!!))))d))d)))))!!22d!deeeed22!!!--------!---!!!,,,,,,!,,!!!!!!!!!!11111111!!!500000005!   ",
"...#.*].{3.#......#.*4.{3.#......#.*].#8&#......#.*]%(_/3......#/(7%%6(3......3f7(%%%(3......#f7::::(3..../$#:::::::_*/.=-------------=------==-------;;;=========;;;>>>==>=>>==>>>>,',---------,',)222)!bbb!>ccc>[))=========))<[))=<=[=[===))[[))=[=[=[=[=))[[))[[[[[[[[[))[[))[<[<[<[<[))<<))<<<<<<<<<))<[))<!<!<!<!<))<[))!!!!!!!!!))['''|||||||522'''''!!!!!022'''''----|--'||''''!!))))dddd))))))!22!!11111122!!!--------!!-!2!,,!,,,,!!,2!!!!!!!!!111111!!!!!500000005!   ",
"....+*]*#&3*.......+*]*#&3*.......+*/*#/3*.......@~]]//3*.......{/(%%%_*.......@_(%%%_*.......+/7%%%3*....*]*{:::::6*]&.=-==--===--==-=---9======9----;;;1|1|1|1|1;;;>>>>>>>=>==>>>>','--!-!--',',')!!!)!===!>111>))[)=======)[))))[)=======)[))))[)=[=[=[=)[))))[)[[[[[[[)[))))[)[<[<[<[)[))))!)<<<<<<<)<))))!)<!<!<!<)!))))!)!!!!!!!)[))'''|||||=''00'''''!!!!'''''''''||-----'|22'''!!))!)dddd)!!)))!22!!e1111e22!!!!!------!!!222,!!,,,,!!22!!!!!!!!!111111!!!!!50000005!!   ",
".....#{]/a..........#{]/a..........#{]]6..........#{]/6..........#{](6..........#]](6..........#{](6.......$%.#%:::.&]..==-=--===--=-==---9======9----;;;iiiiiiiii;;;>>>>>>>>===>>>>,',---|2--,',',)---)!---!>--->)![)[=====))[)))![)[=====))[!))![)[=[=[=))[!))![)[[[[[[))[!))![)[[<[<[))[!))!<)[<<<<<))<!))![)!<!<!<))[!))![)[!!!!!))!!)'''>>>>>=<'00'''''!!!!'''''''''|2--|--''--'''!!22!dddddd!!!22222!e111111e2!!!22------!!!!22!!!!>>!!!!!!!!!!!!!!11[[11!!!!!5000005!!!   ",
"......3/4............3/4............3/]............3]]............3/]............3/]............3/]............3/]......==----===----==------==-------;;;;;;;;;;;;;;;>>>>>=====>>>>>','111111111',')---)!---!>--->)))[!)[)[)[))[))))[!)[)[)[))[))))[!)[)[)[))[))))[!)[)[)[))[))))[!)[)[)[))[))))<!)!)<)<))<))))[!)[)!)[))[))))[!)!)[)[))[)'''|||||='''''''''!!!!''''''''''j------'-'-''!!22!dddddd!!!2222!!11111111!!!!22------!!!!!!!!!,,,,!!!!!!!!!!!!!))))))!!!!!500005!!!!   ",
"......3]3............3]3............3]3............3/3............3]3............3]3............3/3............3/3......===--=====--===---|>-==->|----;;;;;;;;;;;;;;;>>>>=>>>>>=>>>>,','kkk}kkk',',)---)!---!>--->)))))[))!))[))))))))[))!))[))))))))[))!))[))))))))[))!))[))))))))[))!))[))))))))<))!))<))))))))[))!))[))))))))[))!))!)))'''|||||''''''''''!!!!'''''''''''-----[-----'!!!!!dddddd!!!!!!!!!11111111!!!!!!------!!!!!!!!,,,,,,!!!!!!!!!!!!))))))!!!!!50005!!!!!   ",
"......%//............%//............%//............%//............%//............%f]............_/]............%/]......=====-----=====----|-99-|-----;;;;;;;;;;;;;;;>>>>>>>>>>>=>>>',',kk}<}kk,',')---)!---!>--->)))))!)))[))))))))))!)))[))))))))))!)))[))))))))))!)))[))))))))))!)))[))))))))))!)))<))))))))))!)))[))))))))))!)))!)))))''''|>||''''''''''!!!!'''''''''''00'00|-----'!!!!!dddddd!!!!!!!!!11111111!!!!!!------!!!!!!!,,,,,,,,!!!!!!!!!!!))))))!!!!!5005!!!!!!   ",
"......_//............%//............%//............_//............_//............_//............%//............_f/......===============---------------;;;;;;;;;;;;;;;>>>>>>>>>>>>>>>,','kk}<}kk',',)---)!---!>--->))))))))))))))))))))))))))))))))))))))))))))))))))))))))))))))))))))))))))))))))))))))))))))))))))))))))))))))))))))))))''''||||''''''''''!!!!'''''''''''00'00|-----'!!!!!dd!!dd!!!!!!!!!e111111e!!!!!!--!!--!!!!!!!,,,,,,,,!!!!!!!!!!!))!!))!!!!!505!!!!!!!   ",
"......%/]............%/]............%/]............%/]............%/]............%_]............%_]............f_4......===============-----|>>|------;;;;;;;;;;;;;;;>>>>>>>>>>>>>>>',',kkk}kkk,',')))))!!!!!>>>>>))))))))))))))))))))))))))))))))))))))))))))))))))))))))))))))))))))))))))))))))))))))))))))))))))))))))))))))))))))))))''''|>||'''''''''''bb''''''''''''00''00''''''!!!!!))!!))!!!!!!!!!ee1111ee!!!!!!--!!--!!!!!!!,,,,,,,,!!!!!!!!!!!))!!))!!!!!55!!!!!!!!   ",
"......%//............_f/............_f/............%//............%//............f//............f//............_f/......===============---------------;;;;;;;;;;;;;;;>>>>>>>>>>>>>>>,','1111111',',)))))!!!!!>>>>>))))))))))))))))))))))))))))))))))))))))))))))))))))))))))))))))))))))))))))))))))))))))))))))))))))))))))))))))))))))))''''||||'''''''''''bb''''''''''''--'---''''''!!!!!-!!!--!!!!!!!!!eeeeeeee!!!!!!--!!--!!!!!!!,,,,,,,,!!!!!!!!!!!))!!))!!!!!!!!!!!!!!!   ",
"......./............../............../............../............../............../............../..............].......===============---------------;;;;;;;;;;;;;;;>>>>>>>>>>>>>>>',',',',',',',')))))!!!!!>>>>>))))))))))))))))))))))))))))))))))))))))))))))))))))))))))))))))))))))))))))))))))))))))))))))))))))))))))))))))))))))))''''0000'''''''''''bb''''''''''''''''''''''''!!!!---!!---!!!!!!!!eeeeeeee!!!!!---!!---!!!!!!,,,,,,,,!!!!!!!!!!---!!---!!!!!!!!!!!!!!   "};
