/* XPM */
static char * small_xpm[] = {
"465 20 26 1",
" 	c None",
".	c #0000FF",
"+	c #80FFFF",
"@	c #00FFFF",
"#	c #FFFFFF",
"$	c #F7E700",
"%	c #FFFF80",
"&	c #000000",
"*	c #C6C6C6",
"=	c #FF0080",
"-	c #FF0000",
";	c #0073EF",
">	c #00FF00",
",	c #8C4A21",
"'	c #F79473",
")	c #632100",
"!	c #00FF84",
"~	c #D67A04",
"{	c #005242",
"]	c #FFFF00",
"^	c #848442",
"/	c #73737B",
"(	c #294239",
"_	c #007B00",
":	c #FF8080",
"<	c #FF0029",
"........................................................................................................................$$$$$$$$$$$$$$$&&&&&&&&&&&&&&&===============---------------@;@;@;@;@;@;@;@.....#####-----........................................................................................................................;;;;;;;;;;;;;;;;;;;;;;;;;;;;;;;;;;;;;;;;;;;;;###################################################################&&&&################   ",
"....++@@@++........++@@@++........++@@@++........++@@@++........++@@@++........++@@@++........++@@$$+........%%%%%%%....$$$$$$$$$$$$$$$&&&&&&&&&&&&&&&===============---------------;@;@;@&&&@;@;@;.....#####-----.#%..].].%.#%...#%..].].%.#%...#%..].].%.#%...#%..].].%.#%...#%..].].%.#%...#%..%.%.%.#%...#%..#.].%.#%...#%..%.#.%.##..;;&&&&&&&;;;;;;{{***{*{{{{{{{{;;;;&&&;;;;;;;;#####$$##$$###########&&&&#########]]]]##########))))##########'##&&&&&&###############   ",
"...+@@@@@@@+......+@@@@@@@+......+@@@@@@@+......+@@@@@@@+......+@@@@@@@+......+@@@@@@@+......+@@@@%%%+......%$$$$$$$%...$$$$$$$$$$$$$$$&&&&&&&&&&&&&&&===============---------------@;@;@;&&&;@;';@.....#####-----...].$$$$$.]......].$$$$$.]......].$]$]$.]......].]]]]].]......].]%]%].]......#.%%%%%.%......#.%#%#%.#......#.#####.]...;;&&&&&&&;;;;;;{*****{{{{{{#{{;;;;&&&;;;;;;;;####$$$$$$$$########&&&''&&&######]]]]]]########))))))########'''#&----&#####((########   ",
"...+@@@@@@@@......+@@@@@@@@......+@@@@@@@@......+@@@@@@@@......+@@@@@@@@......+@@@@$$@@......%%%%%%%%%......%$$$$$$$$...$$$$$$$$$$$$$$$&&&%*&>>&%*&&&&===============-------$-------;@;@;&&&&&;@'@;.....#####-----.]..$$$$$$$..%..]..$$$$%$$..%..]..$]$]$]$..%..]..]]]]]]]..%..]..]%]%]%]..%..%..%%%%%%%..%..]..%#%#%#%..%..]..#######..%.;;&&&&'';;;;;;;{***''{{{#{{{{#;;;&&&&&;;;;;;;####********########&&''''&&######]'''']#######))''''))#######''##&----&#####(/(#######   ",
"..+@@@@@@@@@+....+@@@@@@@@@+....+@@@@@@@@@+....+@@@@@@@@@+....+@@@@$$@@@+....+%%@@%%%%%+....%$$$$$$$$$%....%$$$$$$$$$%..$$$$$&&&&&$$$$$&&%*-&$$&-%*&&&===============---$--$$$--$---@;@;@;,',;@'';@.....#####-----...$$$$$$$$$%.....$]$]$$$]$%#....$]$]$]$]$%#....]]]]]]]]]%.....]%]%]%]%]%.....%%%%%%%%%%.....%#%#%#%#%%.....##########..;;&&'&''';;&&;;{{*''''{{{{#{#{;;;;,',;;;;;;;;#####')'')'#########&&'))'&&#######''''########))''''))#########)##----######(//(######   ",
"..+@@@@@@@@@+....+@@@@@@@@@+....+@@@@@@@@@+....+@@@@@@@@@+....+@@@$%%%@@+....%%$$$$$$$%%....%$$$$$$$$$%....%$$$$$$$$$%..$$$&&$$&$$&&$$$&&*%*&$$&%*%&&&===$===$===$===--$$$-$-$-$$$--;@;@;@','@;**@;.....#####-----..$$$$$$$$$$$....$$$$$$$$$$$....$]$]$]$]$]$....]]]]]]]]]]]#...]%]%]%]%]%]#...%%%%%%%%%%%#...%#%#%#%#%#%#...######%#####];;&&'&'';;;&&;;{{{'''{{{{{{#{{;;;;',';;;;;;;;#####''''''###########''''#########''''########))'''')#########)))##--#######(///(#####   ",
"..+@@@@+#@@@+....+@@@@+#@@@+....+@@@@+#@@@+....+@@@@+#$@@+....+%%%%%#$$%+....%$$$$%%$$$%....%$$$$%%$$$%....%$$$$%%$$$%..$$&$$$&&&$$$&$$&&&&&&$$&&&&&&&===$$==$==$$===---$-------$---@;@;@;'&';@&&;@.'...#,###-^---%.$$$$$$$$$$$.%%.$$]$%$]$]$$.%%.]$]$]$]$]$].]%.]]]]]]]]]]].]%.%]%]%]%]%]%.%%.%%%%%%%%%%%.%%.#%#%#%#%#%#.]%.##%##%#####..;;;//////;;&&;;{{{###{{{{{{{{#;;;;''';;;;;;;;######'))'##########__<__<__#####&&#''#&&######)##''#)##########))))##)''####(////(####   ",
"..+@@@+##+@@+....+@@@+##+@@+....+@@@+##+@@+....+@@@+##$$@+....%$$$%##%%%%....%$$$##%%$$%....%$$$##%%$$%....%$$$##%%$$%..$$&$$$&&&$$$&$$&&&%*&$$&*%&&&&===$$=$$$=$$===--------$------;@;@;@*&*@;&&@;.'...#,###-^---.%$$$$$$$$$$$...%$$$$$$$$$$$...%$]$]$]$]$]$...%]]]]]]]]]]]...%]%]%]%]%]%]...%%%%%%%%%%%%...%%#%#%#%#%#%...###%##%#####..;;;/////;;;//;;{{{####{{{{{{{{;;&&(*(&&;;;;;;######_''_########____<__<___###&&&&##&&&&#####)@@##@@###########)))))''')###(/////(###   ",
"..++@+&++++@+....++@+&++++@+....++@+&++++@+....+%%+&+%%%@+....%$$$%%%%%$%....%%$%##%%%$%....%%$%##%%%$%....%%$%##%%%$%..$&$$$&&$&&$$$&$&&%*-&$$&-*%&&&===$$=$$$=$$===-----$$--$-----@;@;&&&&&&&&&;@.'''.#,,,#-^^^-..$$$$$$$$$$$]...$$]$]$]$%$$]...]$]$]$]$]$]]...]]]]]]]]]]]]...%]%]%]%]%]%]...%%%%%%%%%%%#...#%#%#%#%#%##...###%#######].;;;*****;;;'/;;{{{####{{{#{{{{;&&&&((&&&;;;;;###..._.._....###_____<<<<_''###&&&&##&&&&&#####@@@@@@@##########)))))''#)###(//////(##   ",
"...+@@+&+@@@......+@@+&+@@@......+@@+&$$@@......%$$$&%%$%......%$%%&%$$%......%$$%%%$$%......%$$%%%$$$......%$$%%%$$$...$&$$$&&$&&$$$&$&&*--&$$&--*&&&===$$$$$$$$$===----$$---$-----;@;&&&&#&&&&&@;.'''.#,,,#-^^^-.%$$$$$$$$$$$...%$$$$$$$$$]$...%$]$]$]$]$]$...%]]]]]]]]]]]...%]%]%]%]%]%]...%%%%%%%%%%%%...#%#%#%#%#%#%...%###########..;;;*******('';;***#####/'#****;&&&((&&&&&;;;;##...._.._.....##''_#_<<<<_''###&&&&&&&&#&&&###@@@@@@#@@##########))))))))###(///////(#   ",
"...+@@++*@@+......+@@++*@@+......+@$$$*$$+......%$%%$*$$%......%$%%$*$$%......%$$%%*$$%......%$$%%*$$%......%$$%%*$$%...$&&&&&&&&&&&&&$&&&&&&$$&&&&&&&===$$$$$$$$$===---$$-$--$$----@;@&&&&&&&&&@;@.'''.#,,,#-^^^-]..$$$$$$$$$..%]..$%$]$]$$$..]]..$]$]$]$]$..]]..]]]]]]]]]..]]..]%]%]%]%]..%%..%%%%%%%%%..%]..%#%#%#%#%..%]..#########..];;;*******('';;;;;#####/'';;;;;&&&&*&&;**;;;;##....____......#''##))))))''###&&&&&&&&##&#'#@@#@@@@##@'#########))))))#####(///////(#   ",
"....++@@*@+........++$$*@+........%$$$*$%........%$%$*$%........%$$$*$%........%%$$*$%........%%$$*$%........%%$$*$%....$&$$&&$$$&&$$&$&&&>$$$$$$>&&&&===)*)*)*)*)===-------$-$$----;@;&&#&#&&;@;@;.###.#$$$#-)))-..].$$$$$$$.]....].$$$$$$$.]....].$]$]$]$.]....].]]]]]]].]....].]%]%]%].]....#.%%%%%%%.%....#.%#%#%#%.#....#.#######.]..;;;*****$;;//;;;;;####;;;;;;;;;**&&&&&;*'';;;##..#.____.##...#''##<))))<''#####&&&&&&###'''@##@@@@##''#########))))))#####(//////(##   ",
".....+@@*+..........+$$*$..........%$$*%..........%$$*%..........%$$*%..........%$$*%..........%$$*%..........%$$*%.....$$&$&&$$$&&$&$$&&&>$$$$$$>&&&&===!!!!!!!!!===--------$$$----@;@&&&*'&&@;@;@.&&&.#&&&#-&&&-.#].]$$$$$..]...#].]$$$$$..]#..#].]$]$]$..]#..#].]]]]]]..]#..#].]]%]%]..]#..#%.]%%%%%..%#..#].#%#%#%..]#..#].]#####..##.;;;-----$%;//;;;;;####;;;;;;;;;*'&&*&&;;&&;;;##''#______###'''''#<))))))<'###''&&&&&&####''####--##############))]]))#####(/////(###   ",
"......+*+............%*$............%*$............%*$............%*$............%*$............%*$............%*$......$$&&&&$$$&&&&$$&&&&&&$$&&&&&&&===============-----$$$$$-----;@;)))))))));@;.&&&.#&&&#-&&&-...]#.].].]..]....]#.].].]..]....]#.].].]..]....]#.].].]..]....]#.].].]..]....%#.#.%.%..%....]#.].#.]..]....]#.#.].]..].;;;*****$;;;;;;;;;####;;;;;;;;;;:&&&&&&;&;&;;##''#______###''''##))))))))####''&&&&&&#########@@@@#############......#####(////(####   ",
"......+*+............%*%............%*%............%*%............%*%............%*%............%*%............%*%......$$$&&$$$$$&&$$$&&&*-&$$&-*&&&&===============----$-----$----@;@;~~~{~~~;@;@.&&&.#&&&#-&&&-.....]..#..]........]..#..]........]..#..]........]..#..]........]..#..]........%..#..%........]..#..]........]..#..#...;;;*****;;;;;;;;;;####;;;;;;;;;;;&&&&&]&&&&&;#####______#########))))))))######&&&&&&########@@@@@@############......#####(///(#####   ",
"......***............***............***............***............***............***............***............***......$$$$$&&&&&$$$$$&&&&*&>>&*&&&&&===============-----------$---;@;@~~{%{~~@;@;.&&&.#&&&#-&&&-.....#...]..........#...]..........#...]..........#...]..........#...]..........#...%..........#...]..........#...#.....;;;;*-**;;;;;;;;;;####;;;;;;;;;;;//;//*&&&&&;#####______#########))))))))######&&&&&&#######@@@@@@@@###########......#####(//(######   ",
"......***............***............***............***............***............***............***............***......$$$$$$$$$$$$$$$&&&&&&&&&&&&&&&===============---------------@;@;~~{%{~~;@;@.&&&.#&&&#-&&&-........................................................................................................................;;;;****;;;;;;;;;;####;;;;;;;;;;;//;//*&&&&&;#####__##__#########<))))))<######&&##&&#######@@@@@@@@###########..##..#####(/(#######   ",
"......***............***............***............***............***............***............***............***......$$$$$$$$$$$$$$$&&&&&*--*&&&&&&===============---------------;@;@~~~{~~~@;@;.....#####-----........................................................................................................................;;;;*-**;;;;;;;;;;;,,;;;;;;;;;;;;//;;//;;;;;;#####..##..#########<<))))<<######&&##&&#######@@@@@@@@###########..##..#####((########   ",
"......&&&............&&&............&&&............&&&............&&&............&&&............&&&............&&&......$$$$$$$$$$$$$$$&&&&&&&&&&&&&&&===============---------------@;@;)))))));@;@.....#####-----........................................................................................................................;;;;****;;;;;;;;;;;,,;;;;;;;;;;;;&&;&&&;;;;;;#####&###&&#########<<<<<<<<######&&##&&#######@@@@@@@@###########..##..###############   ",
"........................................................................................................................$$$$$$$$$$$$$$$&&&&&&&&&&&&&&&===============---------------;@;@;@;@;@;@;@;.....#####-----........................................................................................................................;;;;////;;;;;;;;;;;,,;;;;;;;;;;;;;;;;;;;;;;;;####&&&##&&&########<<<<<<<<#####&&&##&&&######@@@@@@@@##########&&&##&&&##############   "};
