/* XPM */
static char * small_xpm[] = {
"465 20 26 1",
" 	c None",
".	c #0000FF",
"+	c #F7E700",
"@	c #010101",
"#	c #FF0084",
"$	c #FF0000",
"%	c #00FFFF",
"&	c #0073EF",
"*	c #FFFFFF",
"=	c #84FFFF",
"-	c #FFFF84",
";	c #FFFF00",
">	c #005242",
",	c #C6C6C6",
"'	c #291808",
")	c #FF8442",
"!	c #294239",
"~	c #00FF00",
"{	c #73737B",
"]	c #8C4A21",
"^	c #F79473",
"/	c #848442",
"(	c #007B00",
"_	c #FF0029",
":	c #632100",
"<	c #00FF84",
"........................................................................................................................+++++++++++++++@@@@@@@@@@@@@@@###############$$$$$$$$$$$$$$$%&%&%&%&%&%&%&%.....*****$$$$$........................................................................................................................&&&&&&&&&&&&&&&&&&&&&&&&&&&&&&&&&&&&&&&&&&&&&*******************************************************************@@@@****************   ",
"....==%%%==........==%%%==........==%%%==........==%%%==........==%%%==........==%%%==........==%%++=........-------....+++++++++++++++@@@@@@@@@@@@@@@###############$$$$$$$$$$$$$$$&%&%&%@@@%&%&%&.....*****$$$$$.*-..;.;.-.*-...*-..;.;.-.*-...*-..;.;.-.*-...*-..;.;.-.*-...*-..;.;.-.*-...*-..-.-.-.*-...*-..*.;.-.*-...*-..-.*.-.**..&&@@@@@@@&&&&&&>>,,,>,>>>>>>>>&&&&@@@&&&&&&&&*****++**++***********@@@@*********;;;;**********''''**********)**@@@@@@***************   ",
"...=%%%%%%%=......=%%%%%%%=......=%%%%%%%=......=%%%%%%%=......=%%%%%%%=......=%%%%%%%=......=%%%%---=......-+++++++-...+++++++++++++++@@@@@@@@@@@@@@@###############$$$$$$$$$$$$$$$%&%&%&@@@&%&)&%.....*****$$$$$...;.+++++.;......;.+++++.;......;.+;+;+.;......;.;;;;;.;......;.;-;-;.;......*.-----.-......*.-*-*-.*......*.*****.;...&&@@@@@@@&&&&&&>,,,,,>>>>>>*>>&&&&@@@&&&&&&&&****++++++++********@@@))@@@******;;;;;;********''''''********)))*@$$$$@*****!!********   ",
"...=%%%%%%%%......=%%%%%%%%......=%%%%%%%%......=%%%%%%%%......=%%%%%%%%......=%%%%++%%......---------......-++++++++...+++++++++++++++@@@-,@~~@-,@@@@###############$$$$$$$+$$$$$$$&%&%&@@@@@&%)%&.....*****$$$$$.;..+++++++..-..;..++++-++..-..;..+;+;+;+..-..;..;;;;;;;..-..;..;-;-;-;..-..-..-------..-..;..-*-*-*-..-..;..*******..-.&&@@@@))&&&&&&&>,,,))>>>*>>>>*&&&@@@@@&&&&&&&****,,,,,,,,********@@))))@@******;))));*******''))))''*******))**@$$$$@*****!{!*******   ",
"..=%%%%%%%%%=....=%%%%%%%%%=....=%%%%%%%%%=....=%%%%%%%%%=....=%%%%++%%%=....=--%%-----=....-+++++++++-....-+++++++++-..+++++@@@@@+++++@@-,$@++@$-,@@@###############$$$+$$+++$$+$$$%&%&%&])]&%))&%.....*****$$$$$...+++++++++-.....+;+;+++;+-*....+;+;+;+;+-*....;;;;;;;;;-.....;-;-;-;-;-.....----------.....-*-*-*-*--.....**********..&&@@)@)))&&@@&&>>,))))>>>>*>*>&&&&])]&&&&&&&&*****)'))')*********@@)'')@@*******))))********''))))''*********'**$$$$******!{{!******   ",
"..=%%%%%%%%%=....=%%%%%%%%%=....=%%%%%%%%%=....=%%%%%%%%%=....=%%%+---%%=....--+++++++--....-+++++++++-....-+++++++++-..+++@@++@++@@+++@@,-,@++@-,-@@@###+###+###+###$$+++$+$+$+++$$&%&%&%)])%&,,%&.....*****$$$$$..+++++++++++....+++++++++++....+;+;+;+;+;+....;;;;;;;;;;;*...;-;-;-;-;-;*...-----------*...-*-*-*-*-*-*...******-*****;&&@@)@))&&&@@&&>>>)))>>>>>>*>>&&&&)])&&&&&&&&*****))))))***********))))*********))))********''))))'*********'''**$$*******!{{{!*****   ",
"..=%%%%=*%%%=....=%%%%=*%%%=....=%%%%=*%%%=....=%%%%=*+%%=....=-----*++-=....-++++--+++-....-++++--+++-....-++++--+++-..++@+++@@@+++@++@@@@@@++@@@@@@@###++##+##++###$$$+$$$$$$$+$$$%&%&%&)@)&%@@&%.^...*]***$/$$$-.+++++++++++.--.++;+-+;+;++.--.;+;+;+;+;+;.;-.;;;;;;;;;;;.;-.-;-;-;-;-;-.--.-----------.--.*-*-*-*-*-*.;-.**-**-*****..&&&{{{{{{&&@@&&>>>***>>>>>>>>*&&&&)))&&&&&&&&******)'')**********((_((_((*****@@*))*@@******'**))*'**********''''**'))****!{{{{!****   ",
"..=%%%=**=%%=....=%%%=**=%%=....=%%%=**=%%=....=%%%=**++%=....-+++-**----....-+++**--++-....-+++**--++-....-+++**--++-..++@+++@@@+++@++@@@-,@++@,-@@@@###++#+++#++###$$$$$$$$+$$$$$$&%&%&%,@,%&@@%&.^...*]***$/$$$.-+++++++++++...-+++++++++++...-+;+;+;+;+;+...-;;;;;;;;;;;...-;-;-;-;-;-;...------------...--*-*-*-*-*-...***-**-*****..&&&{{{{{&&&{{&&>>>****>>>>>>>>&&@@!,!@@&&&&&&******())(********((((_((_(((***@@@@**@@@@*****'%%**%%***********''''')))'***!{{{{{!***   ",
"..==%=@====%=....==%=@====%=....==%=@====%=....=--=@=---%=....-+++-----+-....--+-**---+-....--+-**---+-....--+-**---+-..+@+++@@+@@+++@+@@-,$@++@$,-@@@###++#+++#++###$$$$$++$$+$$$$$%&%&@@@@@@@@@&%.^^^.*]]]*$///$..+++++++++++;...++;+;+;+-++;...;+;+;+;+;+;;...;;;;;;;;;;;;...-;-;-;-;-;-;...-----------*...*-*-*-*-*-**...***-*******;.&&&,,,,,&&&){&&>>>****>>>*>>>>&@@@@!!@@@&&&&&***...(..(....***(((((____())***@@@@**@@@@@*****%%%%%%%**********'''''))*'***!{{{{{{!**   ",
"...=%%=@=%%%......=%%=@=%%%......=%%=@++%%......-+++@--+-......-+--@-++-......-++---++-......-++---+++......-++---+++...+@+++@@+@@+++@+@@,$$@++@$$,@@@###+++++++++###$$$$++$$$+$$$$$&%&@@@@*@@@@@%&.^^^.*]]]*$///$.-+++++++++++...-+++++++++;+...-+;+;+;+;+;+...-;;;;;;;;;;;...-;-;-;-;-;-;...------------...*-*-*-*-*-*-...-***********..&&&,,,,,,,!))&&,,,*****{)*,,,,&@@@!!@@@@@&&&&**....(..(.....**))(*(____())***@@@@@@@@*@@@***%%%%%%*%%**********''''''''***!{{{{{{{!*   ",
"...=%%==,%%=......=%%==,%%=......=%+++,++=......-+--+,++-......-+--+,++-......-++--,++-......-++--,++-......-++--,++-...+@@@@@@@@@@@@@+@@@@@@++@@@@@@@###+++++++++###$$$++$+$$++$$$$%&%@@@@@@@@@%&%.^^^.*]]]*$///$;..+++++++++..-;..+-+;+;+++..;;..+;+;+;+;+..;;..;;;;;;;;;..;;..;-;-;-;-;..--..---------..-;..-*-*-*-*-..-;..*********..;&&&,,,,,,,!))&&&&&*****{))&&&&&@@@@,@@&,,&&&&**....((((......*))**::::::))***@@@@@@@@**@*)*%%*%%%%**%)*********''''''*****!{{{{{{{!*   ",
"....==%%,%=........==++,%=........-+++,+-........-+-+,+-........-+++,+-........--++,+-........--++,+-........--++,+-....+@++@@+++@@++@+@@@~++++++~@@@@###:,:,:,:,:###$$$$$$$+$++$$$$&%&@@*@*@@&%&%&.***.*+++*$:::$..;.+++++++.;....;.+++++++.;....;.+;+;+;+.;....;.;;;;;;;.;....;.;-;-;-;.;....*.-------.-....*.-*-*-*-.*....*.*******.;..&&&,,,,,+&&{{&&&&&****&&&&&&&&&,,@@@@@&,))&&&**..*.((((.**...*))**_::::_))*****@@@@@@***)))%**%%%%**))*********''''''*****!{{{{{{!**   ",
".....=%%,=..........=++,+..........-++,-..........-++,-..........-++,-..........-++,-..........-++,-..........-++,-.....++@+@@+++@@+@++@@@~++++++~@@@@###<<<<<<<<<###$$$$$$$$+++$$$$%&%@@@,)@@%&%&%.@@@.*@@@*$@@@$.*;.;+++++..;...*;.;+++++..;*..*;.;+;+;+..;*..*;.;;;;;;..;*..*;.;;-;-;..;*..*-.;-----..-*..*;.*-*-*-..;*..*;.;*****..**.&&&$$$$$+-&{{&&&&&****&&&&&&&&&,)@@,@@&&@@&&&**))*((((((***)))))*_::::::_)***))@@@@@@****))****$$**************'';;''*****!{{{{{!***   ",
"......=,=............-,+............-,+............-,+............-,+............-,+............-,+............-,+......++@@@@+++@@@@++@@@@@@++@@@@@@@###############$$$$$+++++$$$$$&%&:::::::::&%&.@@@.*@@@*$@@@$...;*.;.;.;..;....;*.;.;.;..;....;*.;.;.;..;....;*.;.;.;..;....;*.;.;.;..;....-*.*.-.-..-....;*.;.*.;..;....;*.*.;.;..;.&&&,,,,,+&&&&&&&&&****&&&&&&&&&&)@@@@@@&@&@&&**))*((((((***))))**::::::::****))@@@@@@*********%%%%*************......*****!{{{{!****   ",
"......=,=............-,-............-,-............-,-............-,-............-,-............-,-............-,-......+++@@+++++@@+++@@@,$@++@$,@@@@###############$$$$+$$$$$+$$$$%&%&)))>)))&%&%.@@@.*@@@*$@@@$.....;..*..;........;..*..;........;..*..;........;..*..;........;..*..;........-..*..-........;..*..;........;..*..*...&&&,,,,,&&&&&&&&&&****&&&&&&&&&&&@@@@@;@@@@@&*****((((((*********::::::::******@@@@@@********%%%%%%************......*****!{{{!*****   ",
"......,,,............,,,............,,,............,,,............,,,............,,,............,,,............,,,......+++++@@@@@+++++@@@@,@~~@,@@@@@###############$$$$$$$$$$$+$$$&%&%))>->))%&%&.@@@.*@@@*$@@@$.....*...;..........*...;..........*...;..........*...;..........*...;..........*...-..........*...;..........*...*.....&&&&,$,,&&&&&&&&&&****&&&&&&&&&&&{{&{{,@@@@@&*****((((((*********::::::::******@@@@@@*******%%%%%%%%***********......*****!{{!******   ",
"......,,,............,,,............,,,............,,,............,,,............,,,............,,,............,,,......+++++++++++++++@@@@@@@@@@@@@@@###############$$$$$$$$$$$$$$$%&%&))>->))&%&%.@@@.*@@@*$@@@$........................................................................................................................&&&&,,,,&&&&&&&&&&****&&&&&&&&&&&{{&{{,@@@@@&*****((**((*********_::::::_******@@**@@*******%%%%%%%%***********..**..*****!{!*******   ",
"......,,,............,,,............,,,............,,,............,,,............,,,............,,,............,,,......+++++++++++++++@@@@@,$$,@@@@@@###############$$$$$$$$$$$$$$$&%&%)))>)))%&%&.....*****$$$$$........................................................................................................................&&&&,$,,&&&&&&&&&&&]]&&&&&&&&&&&&{{&&{{&&&&&&*****..**..*********__::::__******@@**@@*******%%%%%%%%***********..**..*****!!********   ",
"......@@@............@@@............@@@............@@@............@@@............@@@............@@@............@@@......+++++++++++++++@@@@@@@@@@@@@@@###############$$$$$$$$$$$$$$$%&%&:::::::&%&%.....*****$$$$$........................................................................................................................&&&&,,,,&&&&&&&&&&&]]&&&&&&&&&&&&@@&@@@&&&&&&*****@***@@*********________******@@**@@*******%%%%%%%%***********..**..***************   ",
"........................................................................................................................+++++++++++++++@@@@@@@@@@@@@@@###############$$$$$$$$$$$$$$$&%&%&%&%&%&%&%&.....*****$$$$$........................................................................................................................&&&&{{{{&&&&&&&&&&&]]&&&&&&&&&&&&&&&&&&&&&&&&****@@@**@@@********________*****@@@**@@@******%%%%%%%%**********@@@**@@@**************   "};
