/* XPM */
static char * treaty_xpm[] = {
"360 30 14 1",
" 	c None",
".	c #007B00",
"+	c #FF0000",
"@	c #FFFFFF",
"#	c #F79473",
"$	c #C6C6C6",
"%	c #8C4A21",
"&	c #73737B",
"*	c #0000FF",
"=	c #FFFF80",
"-	c #FFFF00",
";	c #F7E700",
">	c #000000",
",	c #800000",
"..............................++++++++++++++++++++++++++++++@@@@@@@@@@@@@@@@@@@@@@@@@@@@@@@@@@@@@@@@@@@@@@@@@@@@@@@@@@@@@@@@@@@@@@@@@@@@@@@@@@@@@@@@@@@@@@@@@@@@@@@@@@@@@@@@@@@@@@@@@@@@@@@@@@@@@@@@@@@@@@@@@@@@@@@@@@@@@@@@@@@@@@@@@@@@@@@@@@@@@@@@@@@@@@@@@@@@@@@@@@@@@@@@@@@@@@@@@@@@@@@@@@@@@@@@@@@@@@@@@@@@@@@@@@@@@@@@@@@@@@@@@@@@@@>@@@@@@@@@@@@@@@@@@@@@@@@@@@@@",
"..............................++++++++++++++++++++++++++++++@@@@@@@@@@@@@@@@@@@@@@@@@@@@@@@@@@@@@@@@@@@@@@@@@@@@@@@@@@@@@@@@@@@@@@@@@@@@@@@@@@@@@@@@@@@@@@@@@@@@@@@@@@@@@@@@@@@@@@@@@@@@@@@@@@@@@@@@@@@@@@@@@@@@@@@@@@@@@@@@@@@@@@@@@@@@@@@@@@@@@@@@@@@@@@@@@@@@@@@@@@@@@@@@@@@@@@@@@@@@@@@@@@@@@@@@@@@@@@@@@@@@@@@@@@@@@@@@@@@@@@@@@@@>@>>@@@@@@@@@@@@@@@@@@@@@@@@@@@@@",
"..........###$................+++++++++++++++######+++++++++@@@@@@@@@@@@@@@@@@@@@@@@@@@@@@@@@@@@@@@@@@@@@@@@@@@@@@@@@@@@@@@@@@@@@@@@@@@@@@@@@@@@@@@@@@@@@@@@@@@@@@@@@@@@@@@@@@@@@@@@@@@@@@@@@@@@@@@@@@@@@@@@@@@@@@@@@@@@@@@@@@@@@@@@@@@@@@@@@@@@@@@@@@@@@@@@@@@@@@@@@@@@@@@@@@@@@@@@@@@@@@@@@@@@@@@@@@@@@@@@@@@@@@@@@@@@@@@@@@@@@@@@@@@>>,>@@@@@@@@@@@@@@@@@@@@@@@@@@@@@",
"..........###$................+++++++@@@@+###########%#+++++@@@@@@@@@@@@@@@@@@@@@@@@@@@@@@@@@@@@@@@@@@@@@@@@@@@@@@@@@@@@@@@@@@@@@@@@@@@@@@@@@@@@@@@@@@@@@@@@@@@@@@@@@@@@@@@@@@@@@@@@@@@@@@@@@@@@@@@@@@@@@@@@@@@@@@@@@@@@@@@@@@@@@@@@@@@@@@@@@@@@@@@@@@@@@@@@@@@@@@@@@@@@@@@@@@@@@@@@@@@@@@@@@@@@@@@@@@@@@@@@@@@@@>>>>>@@@@@@@@@@@@@@@@@>,,>@@@@@@@@@@@@@@@@@@@@@@@@@@@@@",
"..........####................+++++++@@@@###############++++@@@@@@@@@@@@@@@@@@@@@@@@@@@@@@@@@@@@@@@@@@@@@@@@@@@@@@@@@@@@@@@@@@@@@@@@@@@@@@@@@@@@@@@@@@@@@@@@@@@@@@@@@@@@@@@@@@@@@@@@@@@@@@@@@@@@@@@@@@@@@@@@@@@@@@@@@@@@@@@@@@@@@@@@@@@@@@@@@@@@@@@@@@@@@@@@@@@@@@@@@@@@@@@@@@@@@@@@@@@@@@@@@@@@@@@@@@@@@@@@@@@@@>>,,,>@@@@@@@@@@@@@@@@>,>@@@@@@@@@@@@@@@@@@@@@@@@@@@@@@",
".........#####................+++++++@@@@##############&#+++@@@@@@@@@@@@@@@@@@@@@@@@@@@@@@@@@@@@@@@@@@@@@@@@@@@@@@@@@@@@@@@@@@@@@@@@@@@@@@@@@@@@@@@@@@@@@@@@@@@@@@@@@@@@@@@@@@@@@@@@@@@@@@@@@@@@@@@@@@@@@@@@@@@@@@@@@@@@@@@@@@@@@@@@@@@@@@@@@@@@@@@@@@@@@@@@@@@@@@@@@@@@@@@@@@@@@@@@@@@@@@@@@@@@@@@@@@@@@@@@@@@@>>>>>,,>@@@@@@@@@@@@@@@>,>@@@@@@@@@@@@@@@@@@@@@@@@@@@@@@",
".........#####................+++++++@@@@#################++@@@@@@@@@@@@@@@@@@@@@@@@@@@@@@@@@@@@@@@@@@@@@@@@@@@@@@@@@@@@@@@@@@@@@@@@@@@@@@@@@@@@@@@@@@@@@@@@@@@@@@@@@@@@@@@@@@@@@@@@@@@@@@@@@@@@@@@@@@@@@@@@@@@@@@@@@@@@@@@@@@@@@@@@@@@@@@@@@@@@@@@@@@@@@@@@@@@@@@@@@@@@@@@@@@@@@@@@@@@@@@@@@@@@@@@@@@@@@@@@@@@@>+>@@>,>>@@@@@@@@@@@@@>>>@@@@@@@@@@@@@@@@@@@@@@@@@@@@@@@",
"..........#####...............+++++++@@@@###############&+++@@@***********@@@@@@@@@**@@@@@@@@@@@@@@@@@@@*****@@@@@@@@@@@@@@@@@@@@@@@@@@@@@@@@@@@@@@@@@@@@@@@@@@@@@@@@@@@@@@@@**@@@@@@@@@@@@@@@@@@@@@@@@*************@@@@@@@@@@@@@@@@@@@@@@@@@@@@@@@@@@@@@@@@@@@@@@@@@@@@@@@@@@@@@@@@@@@@@@@@@@@@@@@@@@@@@@@@@@@@>++>>@>,>@@@@>>>>>>>>>>@@@@@@@@@@@@@@@@@@@@@@@@@@@@@@@@@",
"..........#####&..............+++++++@@@@#################++@@@@@@***@@@@***@@@@@@****@@@@@@@@@@@@@@@@@@@@***@@@@@@@@@@@@@@@@@@@@@@@@@@@@@@@@@@@@@@@@@@@@@@@@@@@@@@@@@@@@@@@****@@@@@@@@@@@@@@@@@@@@@@***@@@***@@***@@@@@@@@@@@@@@@@@@@@@@@@@@@@@@@@@@@@@@@@@@@@@@@@@@@@@@@@@@@@@@@@@@@@@@@@@@@@@@@@@@@@@@@@@@@@>>+++>>>,>@>>++++++++>@@@@@@@@@@@@@@@@@@@@@@@@@@@@@@@@@@",
"..........######..............+++++++@@@@##############&##++@@@@@***@@@@@@***@@@@@****@@@@@@@@@@@@@@@@@@@***@@@@@@@@@@@@@@@@@@@@@@@@@@@@@@@@@@@@@@@@@@@@@@@@@@@@@@@@@@@@@@@@****@@@@@@@@@@@@@@@@@@@@@@**@@@***@@@@**@@@@@@@@@@@@@@@@@@@@@@@@@@@@@@@@@@@@@@@@@@@@@@@@@@@@@@@@@@@@@@@@@@@@@@@@@@>>>@@@@@@@@@@@@@@@@@>++++>>>,+++>>>>>>>@@@@@@@@@@@@@@@@@@@@@@@@@@@@@@@@@@@",
"........#..#####..............+++++++@@@@###############&+++@@@@@***@@@@@@@**@@@@@@**@@@@@@@@@@@@@@@@@@@@***@@@@@@@@@@@@@@@@@@@@@@@@@@@@@@@@@@@@@@@@@@@@@@@@@@@@@@@***@@@@@@@**@@@@@@@@@@@@@@@@@@@@@@@*@@@@***@@@@*@@@@@@@@@@@@@@@@@@@@@@@@@@@@@@@@@@@@@@@@@***@@@@@@@@@@@@@@@@@@@@@@@@@@@@@@>>>>>>>>>>>>@@@@@@@@@@>>+++>>+>>>,,,,,,,>>@@@@@>>>>>>>>>>>@@@@@@@@@@@@@@@@@",
"...&######&######.............+++++++@@@@#################++@@@@@***@@@@@@@***@@@@@@@@@@@@@@@@@@@@@@@@@@@***@@@@@@@@@@@@@@@@@@@@@@@@@@@@@@@@@@@@@@@@@@@@@@@@@@@@@@@***@@@@@@@@@@@@@@@@@@@@@@@@@@@@@@@**@@@@***@@@@*@@@@@@@@@@@@@@@@@@@@@@@@@@@@@@@@@@@@@@@@@***@@@@@@@@@@@@@@@@@@@@@@@@@@@@@>@@@@@>@=====>>>>>>>>>>>>>>>>++>>,,>>>>>>,>>>>>>@@@@=======>@@@@@@@@@@@@@@@@",
"..&###############............+++++++@@@@#################&+@@@@@***@@@@@@@***@@@@@@@@@@@@@@@@@@@@@@@@@@@***@@@@@@@@@@@@@@@@@@@@@@@@@@@@@@@@@@@@@@@@@@@@@@@@@@@@@@@***@@@@@@@@@@@@@@@@@@@@@@@@@@@@@@@*@@@@@***@@@@*@@@@@@@@@@@@@@@@@@@@@@@@@@@@@@@@@@@@@@@@@***@@@@@@@@@@@@@@@@@@@@@@@@@@@@>@@>>===>@===============>>,>>>>>+>>>>>>>>>>=================>@@@@@@@@@@@@@@@",
"...###############............+++++++@@@@###############&&++@@@@***@@@@@@@@***@*****@@@@@*****@****@@@@@***@@@@@@@@*****@@@@****@@****@@@****@@@@@@@@****@***@@@********@*****@@@@@@@@*****@@@@@@@@@@@@@@@***@@@@@@@****@@***@@@@@@*****@@@@@@****@***@@@********@@@***@@@***@@@@@@@@@@@@@@>@>@@@>>>>@@@@@@@@@@@@@@>,,>@@,,>++>@@@@@@>>@@@@@@@@@@@@@====>@@@@@@@@@@@@@@@",
"...################...........+++++++=-=@+################++@@@@***@@@@@@@@***@@@***@@@@@@*****@@***@@@@***@@@@@@***@@@**@@@@***@*@@***@*@@***@@@@@***@@@****@@@@@***@@@@@@***@@@@@@***@@@**@@@@@@@@@@@@@@***@@@@@@@@@**@*@***@@@***@@***@@@***@@@****@@@@@***@@@@@****@@@***@@@@@@@@@@@@@>=>@@@@@>@>@@@@@@@@@@@@@@>,>@@@,,,>++>>>>>>>>@@@@@@@@@@@@@@@@=@>@@@@@@@@@@@@@@",
"...&&###############@@@@......+++++++-&-+++###############++@@@@***@@@@@@@@***@@@***@@@@@@****@@@***@@@@***@@@@@***@@@@***@@@****@@@****@@@***@@@@***@@@@***@@@@@@***@@@@@@***@@@@@***@@@***@@@@@@@@@@@@@@***@@@@@@@@@***@@***@@***@@@***@@***@@@@***@@@@@@***@@@@**@***@@@**@@@@@@@@@@@@@>=>@@@@=>@>@@@@@@@@@@@@@>,>@@@@@>+,>>++++++>@@@@@@@@@@@@@@@@@@@>@@@@@@@@@@@@@@",
"..&#################@@@@......++++++++;++++###############&+@@@@***@@@@@@@****@@@***@@@@@@***@@@@***@@@@***@@@@@***@@@@***@@@***@@@@***@@@@***@@@@***@@@@***@@@@@@***@@@@@@***@@@@@***@@@***@@@@@@@@@@@@@@***@@@@@@@@@***@@**@@@***@@***@@@***@@@@***@@@@@@***@@@@*@@***@@@*@@@@@@@@@@@@@@>>@@@@@@=>=>@@@@@@@@****>,>@@@@@>++>@>>++++>@@@@@@@@@@@@@@@@@@@>@@@@@@@@@@@@@@",
"...#################@@@@......++++++++++++++######&######&++@@@***@@@@@@@@***@@@***@@@@@@@***@@@@***@@@***@@@@@****@@@@***@@***@@@@****@@@***@@@@***@@@@@***@@@@@***@@@@@@***@@@@@***@@@@@@@@@@@@@@@@@@@@***@@@@@@@@@****@@@@@@***@@***@@@***@@@@@***@@@@@***@@@@@@@@@***@**@@@@@@@@@@@@@@>>@@@====>=>@@@@@@@@*@*@>>@@@@@@>++>@@@>>>>@@@@@@@@@@@@@@@@@@@@@>@@@@@@@@@@@@@",
"....&###############@@@@......+++++++++++++++#####++#+++++++@@@***@@@@@@@****@@@***@@@@@@***@@@@@***@@@***@@@@@***@@@@@***@@***@@@@***@@@@***@@@@***@@@@***@@@@@@***@@@@@@***@@@@@***@@@@@@@@@@@@@@@@@@@@***@@@@@@@@@***@@@@@@@******@@@@@***@@@@***@@@@@@***@@@@@@@@@***@*@@@@@@@@@@@@@@>@>@@@=>>=>@>@@@@@@@@@@*@>>****@*>++>**@@***@**@**@@@@@@@@@@@@@@@>@@@@@@@@@@@@@",
"...##&##############@@@@......+++++++++++++++######+++++++++@@@***@@@@@@@***@@@@***@@*@@@***@@@@***@@@@***@@*@@***@@@@***@@@***@@@@***@@@@***@*@@***@@@@***@@*@@@***@@*@@@***@@*@@***@@@@@@@@@@@@@@@@@@@@***@@@@@@@@@***@@@@@@@***@@@@@@@@***@@@@***@@*@@@***@@*@@@@@@*****@@@@@@@@@@@@@@>@>@@@@>@=>@>@@@@@@@@@@*@>>@*@@*@>++>@*@@@*@@@*@@*@@@@@@@@@@@@@@@>@@@@@@@@@@@@@",
"...#################@@@@......+++++++++++++++&#####+++++++++@@@***@@@@@@***@@@@@***@*@@@@***@@@@***@@@@***@*@@@***@@@@***@@@***@@@@***@@@@****@@@***@@@****@*@@@@***@*@@@@***@*@@@***@@@@@*@@@@@@@@@@@@@@***@@@@@@@@@***@@@@@@@***@@@@@*@@***@@@****@*@@@@***@*@@@@@@@****@@@@@@@@@@@@@@@@>=>@@@>==>=>@@@@@@@@@@*@>>@*@@**>++>**@@@*@@@*@*@@@@@@@@@@@@@@@@>@@@@@@@@@@@@@",
"....&###############@@@@......++++++++++++++++#####+++++++++@@***@@@@@****@@@@@@**@*@@@@@****@@***@@@@@**@@*@@@@**@@@***@@@***@@@@***@@@@@**@*@@@@**@@******@@@@@***@*@@@@**@*@@@@@***@@@*@@@@@@@@@@@@@@****@@@@@@@@***@@@@@@@@@***@@@*@@@@**@@******@@@@@***@*@@@@@@@@**@@@@@@@@@@@@@@@@@>=>@@=>==>@>@@@@@@@@@@*@>>@*@@*@>++>@*@@@*@@@*@*@@@@@@@@@@@@@@@@>@@@@@@@@@@@@@",
"...#################@@@@......+++++++++++++++++#####++++++++************@@@@@@@@***@@@@@***@****@@@@@@@****@@@@@@*****@@@@@***@@@@***@@@@@***@@@@@@***@@***@@@@@@****@@@@@***@@@@@@@*****@@@@@@@@@@@@@********@@@@@@***@@@@@@@@@@*****@@@@@@***@@***@@@@@@****@@@@@@@@@**@@@@@@@@@@@@@@@@@>@>@@>@==>@>@@@@@@@@@>>>+>***@@*>++>***@@**@@@*@@@@@@@@@@@@@@@@>@@@@@@@@@@@@@@",
"....#&##############@@@@......+++++++++++++++++#####++++++++@@@@@@@@@@@@@@@@@@@@@@@@@@@@***@@@@@@@@@@@@@@@@@@@@@@@@@@@@@@@@@@@@@@@@@@@@@@@@@@@@@@@@@@@@@@@@@@@@@@@@@@@@@@@@@@@@@@@@@@@@@@@@@@@@@@@@@@@@@@@@@@@@@@@@@@@@@@@@@@@@@@@@@@@@@@@@@@@@@@@@@@@@@@@@@@@@@@@@@@@@*@@@@@@@@@@@@@@@@@@>@@>>>==>>@>@@@@@>>>>++++>@@@@@@>++>@@@@@@@@*@*======@@@@@@@@@@>@@@@@@@@@@@@@@",
".....###############@@@@......+++++++++++++++++####+++++++++@@@@@@@@@@@@@@@@@@@@@@@@@@@@***@@@@@@@@@@@@@@@@@@@@@@@@@@@@@@@@@@@@@@@@@@@@@@@@@@@@@@@@@@@@@@@@@@@@@@@@@@@@@@@@@@@@@@@@@@@@@@@@@@@@@@@@@@@@@@@@@@@@@@@@@@@@@@@@@@@@@@@@@@@@@@@@@@@@@@@@@@@@@@@@@@@@@***@@@*@@@@@@@@@@@@@@@@@@@@>@@@@@=>@@>@@@@@@>+++++>@@@@@@@,,,>===================@@@@@@@@>@@@@@@@@@@@@@@",
"......#%###########.@@@@......+++++++++++++++++$###+++++++++@@@@@@@@@@@@@@@@@@@@@@@@@@@***@@@@@@@@@@@@@@@@@@@@@@@@@@@@@@@@@@@@@@@@@@@@@@@@@@@@@@@@@@@@@@@@@@@@@@@@@@@@@@@@@@@@@@@@@@@@@@@@@@@@@@@@@@@@@@@@@@@@@@@@@@@@@@@@@@@@@@@@@@@@@@@@@@@@@@@@@@@@@@@@@@@@@@***@@*@@@@@@@@@@@@@@@@@@@@@>@@@@@=>@>===@@@@@>++>>=======@,,,>====================@@@@@@>@@@@@@@@@@@@@@@",
"..........######....@=-@......+++++++++++++++++$###+++++++++@@@@@@@@@@@@@@@@@@@@@@@@@*******@@@@@@@@@@@@@@@@@@@@@@@@@@@@@@@@@@@@@@@@@@@@@@@@@@@@@@@@@@@@@@@@@@@@@@@@@@@@@@@@@@@@@@@@@@@@@@@@@@@@@@@@@@@@@@@@@@@@@@@@@@@@@@@@@@@@@@@@@@@@@@@@@@@@@@@@@@@@@@@@@@@@@****@@@@@@@@@@@@@@@@@@@@@@@>@@@=>@>=========>>>=====>>>>>>>>>>>>>>>>>>>==============@>@@@@@@@@@@@@@@@@",
".....................-&;......++++++++++++++++++++++++++++++@@@@@@@@@@@@@@@@@@@@@@@@@@@@@@@@@@@@@@@@@@@@@@@@@@@@@@@@@@@@@@@@@@@@@@@@@@@@@@@@@@@@@@@@@@@@@@@@@@@@@@@@@@@@@@@@@@@@@@@@@@@@@@@@@@@@@@@@@@@@@@@@@@@@@@@@@@@@@@@@@@@@@@@@@@@@@@@@@@@@@@@@@@@@@@@@@@@@@@@@@@@@@@@@@@@@@@@@@@@@@@@@@>>>>>>>========>=>>>>>>>@@@@@@@@@@@@@@@@@@@>>>>>>>>>>>>>@>@@@@@@@@@@@@@@@@@",
"......................;.......++++++++++++++++++++++++++++++@@@@@@@@@@@@@@@@@@@@@@@@@@@@@@@@@@@@@@@@@@@@@@@@@@@@@@@@@@@@@@@@@@@@@@@@@@@@@@@@@@@@@@@@@@@@@@@@@@@@@@@@@@@@@@@@@@@@@@@@@@@@@@@@@@@@@@@@@@@@@@@@@@@@@@@@@@@@@@@@@@@@@@@@@@@@@@@@@@@@@@@@@@@@@@@@@@@@@@@@@@@@@@@@@@@@@@@@@@@@@@@@@@@@@@@>==@@@>>>@@@@@@@@@@@@@@@@@@@@@@@@@@@@@@@@@@@@@@@@@>@@@@@@@@@@@@@@@@@@",
"..............................++++++++++++++++++++++++++++++@@@@@@@@@@@@@@@@@@@@@@@@@@@@@@@@@@@@@@@@@@@@@@@@@@@@@@@@@@@@@@@@@@@@@@@@@@@@@@@@@@@@@@@@@@@@@@@@@@@@@@@@@@@@@@@@@@@@@@@@@@@@@@@@@@@@@@@@@@@@@@@@@@@@@@@@@@@@@@@@@@@@@@@@@@@@@@@@@@@@@@@@@@@@@@@@@@@@@@@@@@@@@@@@@@@@@@@@@@@@@@@@@@@@@>>@>>>>>@@@@@@@@@@@@@@@@@@@@@@@@@@@@@@@@@@@@@@@@@@@@@@@@@@@@@@@@@@@@@@@"};
