<?xml version="1.0" encoding="UTF-8" standalone="no"?>
<svg
   width="900px"
   height="600px"
   id="Berber_flag"
   version="1.1"
   sodipodi:docname="amazigh.svg"
   inkscape:version="1.2.2 (b0a8486541, 2022-12-01)"
   xmlns:inkscape="http://www.inkscape.org/namespaces/inkscape"
   xmlns:sodipodi="http://sodipodi.sourceforge.net/DTD/sodipodi-0.dtd"
   xmlns="http://www.w3.org/2000/svg"
   xmlns:svg="http://www.w3.org/2000/svg">
  <defs
     id="defs19" />
  <sodipodi:namedview
     id="namedview17"
     pagecolor="#ffffff"
     bordercolor="#666666"
     borderopacity="1.0"
     inkscape:showpageshadow="2"
     inkscape:pageopacity="0.0"
     inkscape:pagecheckerboard="0"
     inkscape:deskcolor="#d1d1d1"
     showgrid="false"
     inkscape:zoom="0.78666667"
     inkscape:cx="446.18644"
     inkscape:cy="290.4661"
     inkscape:window-width="890"
     inkscape:window-height="654"
     inkscape:window-x="480"
     inkscape:window-y="96"
     inkscape:window-maximized="0"
     inkscape:current-layer="Berber_flag" />
  <g
     id="g14">
    <rect
       fill="#0099CC"
       width="900"
       height="200"
       id="rect2" />
    <rect
       fill="#99CC33"
       y="200"
       width="900"
       height="200"
       id="rect4" />
    <rect
       fill="#FFE513"
       y="400"
       width="900"
       height="200"
       id="rect6" />
    <polygon
       fill="#CC0033"
       points="429.675,477.64 458.13,507.721 466.26,97.9695 450,80.8966 "
       id="polygon8" />
    <path
       fill="#CC0033"
       d="M657.315 515.851l54.4711 -23.5769c-104.877,-104.064 -165.039,-142.275 -264.225,-144.714 -126.015,8.94308 -208.128,59.3489 -243.087,159.348l24.3898 -4.87785c99.9991,-123.576 156.909,-109.755 220.323,-117.072 67.4791,2.43908 136.584,46.3409 208.128,130.893l0 -0.000307692z"
       id="path10" />
    <path
       fill="#CC0033"
       d="M289.839 93.0917l-52.032 13.8209c50.4058,89.4298 122.763,143.901 215.445,147.966 122.763,0.812923 193.494,-82.1129 242.274,-156.909l-41.4631 12.1951c-78.8609,111.381 -164.226,115.446 -202.437,109.755 -64.2271,-4.87785 -117.072,-57.7231 -161.787,-126.828z"
       id="path12" />
  </g>
</svg>
