<?xml version="1.0" encoding="UTF-8" standalone="no"?>
<svg
   xmlns:dc="http://purl.org/dc/elements/1.1/"
   xmlns:cc="http://web.resource.org/cc/"
   xmlns:rdf="http://www.w3.org/1999/02/22-rdf-syntax-ns#"
   xmlns:svg="http://www.w3.org/2000/svg"
   xmlns="http://www.w3.org/2000/svg"
   xmlns:sodipodi="http://inkscape.sourceforge.net/DTD/sodipodi-0.dtd"
   xmlns:inkscape="http://www.inkscape.org/namespaces/inkscape"
   version="1.0"
   width="1000"
   height="700"
   id="Flag of Andorra">
  <defs
     id="defs2567" />
  <sodipodi:namedview
     inkscape:window-height="971"
     inkscape:window-width="1280"
     inkscape:pageshadow="2"
     inkscape:pageopacity="0.0"
     borderopacity="1.0"
     bordercolor="#666666"
     pagecolor="#ffffff"
     id="base"
     inkscape:zoom="1.1471429"
     inkscape:cx="500"
     inkscape:cy="350"
     inkscape:window-x="-4"
     inkscape:window-y="-4"
     inkscape:current-layer="Flag of Andorra" />
  <rect
     width="320"
     height="700"
     x="0"
     y="0"
     style="fill:#380096"
     id="blue stripe" />
  <rect
     width="360"
     height="700"
     x="320"
     y="0"
     style="fill:#FCE016"
     id="yellow stripe" />
  <rect
     width="320"
     height="700"
     x="680"
     y="0"
     style="fill:#D81C3F"
     id="red stripe" />
  <path
     d="M 637.5741,407.62845 C 652.38288,429.16545 641.20723,471.8189 590.10657,471.8189 C 552.3558,471.8189 540.2959,477.20322 536.25734,481.24162 C 544.85725,488.78295 542.8313,503.4581 530.52002,504.47718 C 523.77624,509.74234 517.59286,511.01247 510.67897,503.79769 C 507.3324,508.30302 504.83521,512.85535 499.90905,514.89349 C 494.30334,511.49638 491.46652,507.93766 487.96288,503.47053 C 481.23184,508.85485 476.05521,510.21383 471.34982,504.97413 C 456.8173,504.97413 448.37446,490.14192 461.6925,481.39868 C 453.92923,472.32859 435.29022,471.8189 419.13536,471.8189 C 359.90117,478.54915 343.38121,429.93347 365.28613,403.16921 C 350.4625,398.50378 350.39093,376.8364 370.68351,381.12222 C 377.98343,379.10105 378.91074,359.04763 376.79685,353.69696 C 365.52629,361.19432 351.94534,348.38267 363.51702,335.78752 C 332.73745,324.99461 344.72215,268.25419 381.44099,275.29224 C 388.0383,276.49572 388.86433,272.70626 390.8645,269.90794 C 392.86468,264.22208 389.85805,257.46636 380.43423,249.38981 C 365.62575,239.96726 372.69673,225.4875 376.69709,223.33031 C 377.35118,220.12861 382.49869,214.09406 385.19511,215.14131 C 387.8888,209.91176 399.36678,207.04159 401.29478,209.33458 C 405.83036,205.76773 411.76297,204.95662 415.61898,206.98207 C 421.34356,204.76136 426.42679,207.12654 426.54596,210.01397 C 436.00769,211.20294 438.24136,218.07764 435.32813,226.33675 C 439.54954,231.19877 443.07866,231.04165 452.48944,230.20507 C 463.25935,228.85905 463.88797,218.75709 458.50301,213.37283 C 449.07949,190.48956 467.1002,179.66024 479.71563,187.7974 C 497.18019,199.37118 506.33595,198.16473 516.06391,189.14348 C 526.88204,179.11165 550.75135,189.49587 541.32784,212.37916 C 535.94288,219.10957 535.38249,229.6955 549.71972,229.52568 C 551.31659,229.18598 564.84266,228.83359 565.50949,228.38763 C 558.02216,220.97795 563.9678,208.9694 573.44227,208.82501 C 574.08362,206.81224 578.83995,206.09474 582.69596,207.97579 C 584.5136,205.44078 593.84401,206.96945 596.3409,210.18383 C 599.85729,208.81231 612.21952,212.01401 613.68477,217.76345 C 620.07619,218.92695 622.80687,222.44292 622.78139,225.64462 C 631.58933,230.54479 626.97734,244.35796 617.04378,249.89931 C 607.62026,256.62972 607.26789,264.14573 607.26789,266.83786 C 607.26789,269.52999 610.14383,276.46228 617.03134,275.29224 C 660.35447,267.99047 664.3242,324.08893 635.87868,335.86544 C 640.16347,343.81033 638.1924,353.59236 624.59842,351.9702 C 618.74192,360.60702 623.83849,379.06041 631.57599,384.28737 C 647.73085,377.40643 654.47918,404.54666 637.5741,406.28252 L 637.5741,407.62845 L 637.5741,407.62845 L 637.5741,407.62845 L 637.5741,407.62845 L 637.5741,407.62845 L 637.5741,407.62845 L 637.5741,407.62845 L 637.5741,407.62845 L 637.5741,407.62845 L 637.5741,407.62845 L 637.5741,407.62845 L 637.5741,407.62845 L 637.5741,407.62845 L 637.5741,407.62845 L 637.5741,407.62845 L 637.5741,407.62845 L 637.5741,407.62845 L 637.5741,407.62845 z "
     id="path1074"
     sodipodi:nodetypes="csccccccccccccsccccccccccssccccccccccsccccccccccccccccccccc"
     style="fill:#d1bf91;fill-opacity:1;fill-rule:evenodd;stroke:#7a3f28;stroke-width:1.89514565;stroke-linecap:butt;stroke-linejoin:miter;stroke-dasharray:none;stroke-opacity:1" />
  <path
     d="M 190.00955,179.29407 C 190.67732,179.89506 189.52888,180.49071 189.01067,180.40393 C 187.60634,180.16879 187.28962,178.40254 187.78982,177.2963 C 188.68455,175.31749 191.25939,174.95568 193.0062,175.96447 C 195.56972,177.4449 195.98349,180.92167 194.44902,183.2896"
     id="path1077"
     sodipodi:argument="-18.116739"
     sodipodi:cx="190.00955"
     sodipodi:cy="179.29407"
     sodipodi:expansion="1"
     sodipodi:radius="5.9726992"
     sodipodi:revolution="1"
     sodipodi:t0="0"
     sodipodi:type="spiral"
     style="font-size:12px;fill:none;fill-rule:evenodd;stroke:#7a3f28;stroke-width:1.15859997;stroke-dasharray:none;stroke-opacity:1"
     transform="matrix(-0.436683,1.447864,1.663729,0.610352,405.5237,-57.2155)" />
  <path
     d="M 190.00955,179.29407 C 190.67732,179.89506 189.52888,180.49071 189.01067,180.40393 C 187.60634,180.16879 187.28962,178.40254 187.78982,177.2963 C 188.68455,175.31749 191.25939,174.95568 193.0062,175.96447 C 195.56972,177.4449 195.98349,180.92167 194.44902,183.2896"
     id="path1079"
     sodipodi:argument="-18.116739"
     sodipodi:cx="190.00955"
     sodipodi:cy="179.29407"
     sodipodi:expansion="1"
     sodipodi:radius="5.9726992"
     sodipodi:revolution="1"
     sodipodi:t0="0"
     sodipodi:type="spiral"
     style="font-size:12px;fill:none;fill-rule:evenodd;stroke:#7a3f28;stroke-width:1.15859997;stroke-dasharray:none;stroke-opacity:1"
     transform="matrix(-0.436683,-1.447864,1.663729,-0.610352,405.5237,678.5317)" />
  <path
     d="M 190.00955,179.29407 C 190.67732,179.89506 189.52888,180.49071 189.01067,180.40393 C 187.60634,180.16879 187.28962,178.40254 187.78982,177.2963 C 188.68455,175.31749 191.25939,174.95568 193.0062,175.96447 C 195.56972,177.4449 195.98349,180.92167 194.44902,183.2896"
     id="path1082"
     sodipodi:argument="-18.116739"
     sodipodi:cx="190.00955"
     sodipodi:cy="179.29407"
     sodipodi:expansion="1"
     sodipodi:radius="5.9726992"
     sodipodi:revolution="1"
     sodipodi:t0="0"
     sodipodi:type="spiral"
     style="font-size:12px;fill:none;fill-rule:evenodd;stroke:#7a3f28;stroke-width:1.15859997;stroke-dasharray:none;stroke-opacity:1"
     transform="matrix(1.448033,0.436631,0.610424,-1.663535,102.7246,445.2269)" />
  <path
     d="M 190.00955,179.29407 C 190.67732,179.89506 189.52888,180.49071 189.01067,180.40393 C 187.60634,180.16879 187.28962,178.40254 187.78982,177.2963 C 188.68455,175.31749 191.25939,174.95568 193.0062,175.96447 C 195.56972,177.4449 195.98349,180.92167 194.44902,183.2896"
     id="path1083"
     sodipodi:argument="-18.116739"
     sodipodi:cx="190.00955"
     sodipodi:cy="179.29407"
     sodipodi:expansion="1"
     sodipodi:radius="5.9726992"
     sodipodi:revolution="1"
     sodipodi:t0="0"
     sodipodi:type="spiral"
     style="font-size:12px;fill:none;fill-rule:evenodd;stroke:#7a3f28;stroke-width:1.15859997;stroke-dasharray:none;stroke-opacity:1"
     transform="matrix(-1.448033,0.436631,-0.610424,-1.663535,896.0436,445.2657)" />
  <path
     d="M 190.00955,179.29407 C 190.02324,179.30639 189.98829,179.32377 189.98181,179.3249 C 189.90751,179.33782 189.87693,179.23866 189.88623,179.18308 C 189.91428,179.01561 190.1211,178.96905 190.25927,179.0166 C 190.55107,179.11702 190.61807,179.48315 190.50283,179.73802 C 190.29991,180.18679 189.72128,180.27765 189.31588,180.06481 C 188.67694,179.72934 188.55915,178.88485 188.89969,178.29518 C 189.39779,177.43266 190.56152,177.28504 191.36914,177.78342 C 192.48873,178.4743 192.66905,180.01064 191.98265,181.06986 C 191.06881,182.48004 189.10653,182.6959 187.76207,181.79127 C 186.02773,180.6243 185.77351,178.18272 186.92659,176.51939 C 188.37688,174.42734 191.3511,174.13193 193.36691,175.56368 C 195.85024,177.3275 196.18966,180.88771 194.44902,183.2896"
     id="path1084"
     sodipodi:argument="-18.116739"
     sodipodi:cx="190.00955"
     sodipodi:cy="179.29407"
     sodipodi:expansion="2"
     sodipodi:radius="5.9726992"
     sodipodi:revolution="3"
     sodipodi:t0="0"
     sodipodi:type="spiral"
     style="font-size:12px;fill:none;fill-rule:evenodd;stroke:#7a3f28;stroke-width:0.84280002;stroke-dasharray:none;stroke-opacity:1"
     transform="matrix(-2.184075,-0.141368,0.154071,-2.305018,915.9267,930.5872)" />
  <path
     d="M 190.00955,179.29407 C 190.67732,179.89506 189.52888,180.49071 189.01067,180.40393 C 187.60634,180.16879 187.28962,178.40254 187.78982,177.2963 C 188.68455,175.31749 191.25939,174.95568 193.0062,175.96447 C 195.56972,177.4449 195.98349,180.92167 194.44902,183.2896"
     id="path1085"
     sodipodi:argument="-18.116739"
     sodipodi:cx="190.00955"
     sodipodi:cy="179.29407"
     sodipodi:expansion="1"
     sodipodi:radius="5.9726992"
     sodipodi:revolution="1"
     sodipodi:t0="0"
     sodipodi:type="spiral"
     style="font-size:12px;fill:none;fill-rule:evenodd;stroke:#7a3f28;stroke-width:0.87840003;stroke-dasharray:none;stroke-opacity:1"
     transform="matrix(-2.086116,-0.198009,0.272186,-2.205309,954.8957,854.8385)" />
  <path
     d="M 190.00955,179.29407 C 190.02324,179.30639 189.98829,179.32377 189.98181,179.3249 C 189.90751,179.33782 189.87693,179.23866 189.88623,179.18308 C 189.91428,179.01561 190.1211,178.96905 190.25927,179.0166 C 190.55107,179.11702 190.61807,179.48315 190.50283,179.73802 C 190.29991,180.18679 189.72128,180.27765 189.31588,180.06481 C 188.67694,179.72934 188.55915,178.88485 188.89969,178.29518 C 189.39779,177.43266 190.56152,177.28504 191.36914,177.78342 C 192.48873,178.4743 192.66905,180.01064 191.98265,181.06986 C 191.06881,182.48004 189.10653,182.6959 187.76207,181.79127 C 186.02773,180.6243 185.77351,178.18272 186.92659,176.51939 C 188.37688,174.42734 191.3511,174.13193 193.36691,175.56368 C 195.85024,177.3275 196.18966,180.88771 194.44902,183.2896"
     id="path1087"
     sodipodi:argument="-18.116739"
     sodipodi:cx="190.00955"
     sodipodi:cy="179.29407"
     sodipodi:expansion="2"
     sodipodi:radius="5.9726992"
     sodipodi:revolution="3"
     sodipodi:t0="0"
     sodipodi:type="spiral"
     style="font-size:12px;fill:none;fill-rule:evenodd;stroke:#7a3f28;stroke-width:0.84280002;stroke-dasharray:none;stroke-opacity:1"
     transform="matrix(1.369218,1.70726,-1.805485,1.441466,635.0854,-362.2636)" />
  <path
     d="M 190.00955,179.29407 C 190.02324,179.30639 189.98829,179.32377 189.98181,179.3249 C 189.90751,179.33782 189.87693,179.23866 189.88623,179.18308 C 189.91428,179.01561 190.1211,178.96905 190.25927,179.0166 C 190.55107,179.11702 190.61807,179.48315 190.50283,179.73802 C 190.29991,180.18679 189.72128,180.27765 189.31588,180.06481 C 188.67694,179.72934 188.55915,178.88485 188.89969,178.29518 C 189.39779,177.43266 190.56152,177.28504 191.36914,177.78342 C 192.48873,178.4743 192.66905,180.01064 191.98265,181.06986 C 191.06881,182.48004 189.10653,182.6959 187.76207,181.79127 C 186.02773,180.6243 185.77351,178.18272 186.92659,176.51939 C 188.37688,174.42734 191.3511,174.13193 193.36691,175.56368 C 195.85024,177.3275 196.18966,180.88771 194.44902,183.2896"
     id="path1088"
     sodipodi:argument="-18.116739"
     sodipodi:cx="190.00955"
     sodipodi:cy="179.29407"
     sodipodi:expansion="2"
     sodipodi:radius="5.9726992"
     sodipodi:revolution="3"
     sodipodi:t0="0"
     sodipodi:type="spiral"
     style="font-size:12px;fill:none;fill-rule:evenodd;stroke:#7a3f28;stroke-width:0.84280002;stroke-dasharray:none;stroke-opacity:1"
     transform="matrix(-1.369218,1.70726,1.805485,1.441466,363.8985,-362.2636)" />
  <path
     d="M 607.44013,420.23422 C 614.07352,410.52224 628.78556,419.84188 626.05761,432.66201 C 621.31947,444.97974 606.15742,459.19251 585.3096,459.19251 C 564.46179,459.19251 550.06693,458.35808 535.08531,462.03506 C 519.92327,465.71506 504.62294,472.6421 501.34641,481.81589 C 494.97593,499.41485 503.27048,500.31628 505.50052,490.33385 C 507.39577,483.70122 509.98181,479.68284 513.96003,476.91791 C 520.01303,472.71032 523.71377,474.35279 523.71377,474.35279"
     id="path1090"
     sodipodi:nodetypes="cccsscsc"
     style="fill:none;fill-opacity:1;fill-rule:evenodd;stroke:#7a3f28;stroke-width:1.89514565;stroke-linecap:butt;stroke-linejoin:miter;stroke-dasharray:none;stroke-opacity:1" />
  <path
     d="M 519.14302,481.04302 C 523.37869,472.62512 536.98057,465.82513 547.40448,465.82513 C 557.82839,465.82513 572.04281,465.82513 583.41435,464.87761 C 594.78588,463.93009 610.89556,461.08754 621.31947,451.61236 C 631.74338,442.13719 634.96532,434.2402 634.19872,425.69435 C 633.58617,416.99932 623.7172,407.19395 615.63371,406.13152 C 608.06178,405.11518 601.53421,408.80155 599.02155,412.48671"
     id="path1091"
     sodipodi:nodetypes="ccccssc"
     style="fill:none;fill-opacity:1;fill-rule:evenodd;stroke:#7a3f28;stroke-width:1.89514565;stroke-linecap:butt;stroke-linejoin:miter;stroke-dasharray:none;stroke-opacity:1" />
  <path
     d="M 628.07235,392.5758 C 617.12413,386.74303 612.19282,377.34549 611.84319,366.33579 C 611.36832,351.24191 618.23976,345.09017 619.83389,343.58657"
     id="path1092"
     sodipodi:nodetypes="csc"
     style="fill:none;fill-opacity:1;fill-rule:evenodd;stroke:#7a3f28;stroke-width:1.89514565;stroke-linecap:butt;stroke-linejoin:miter;stroke-dasharray:none;stroke-opacity:1" />
  <path
     d="M 636.5822,406.68245 C 617.99989,404.31654 600.86829,387.59596 605.20979,359.70317 C 607.10505,349.28047 614.44924,336.01522 622.03026,336.01522 C 624.99141,336.37058 631.38798,336.60738 635.05993,335.89667"
     id="path1093"
     sodipodi:nodetypes="cccc"
     style="fill:none;fill-opacity:1;fill-rule:evenodd;stroke:#7a3f28;stroke-width:1.89514565;stroke-linecap:butt;stroke-linejoin:miter;stroke-dasharray:none;stroke-opacity:1" />
  <path
     d="M 625.10998,284.96777 C 636.71835,286.74437 640.98525,296.15175 642.04872,306.05002 C 642.9069,315.13851 639.92482,331.60722 621.88411,328.01575"
     id="path1094"
     sodipodi:nodetypes="csc"
     style="fill:none;fill-opacity:1;fill-rule:evenodd;stroke:#7a3f28;stroke-width:1.89514565;stroke-linecap:butt;stroke-linejoin:miter;stroke-dasharray:none;stroke-opacity:1" />
  <path
     d="M 614.21211,295.39047 C 609.47397,287.81032 613.73844,274.42664 613.73844,274.42664"
     id="path1095"
     sodipodi:nodetypes="cc"
     style="fill:none;fill-opacity:1;fill-rule:evenodd;stroke:#7a3f28;stroke-width:1.89514565;stroke-linecap:butt;stroke-linejoin:miter;stroke-dasharray:none;stroke-opacity:1" />
  <path
     d="M 621.31947,305.69473 C 609.00031,309.48479 602.36691,305.69473 599.52402,298.11458 C 595.97034,288.87628 598.45025,282.81592 600.3455,278.07833"
     id="path1096"
     sodipodi:nodetypes="ccc"
     style="fill:none;fill-opacity:1;fill-rule:evenodd;stroke:#7a3f28;stroke-width:1.89514565;stroke-linecap:butt;stroke-linejoin:miter;stroke-dasharray:none;stroke-opacity:1" />
  <path
     d="M 629.84812,309.48479 C 621.31947,320.85494 605.20979,317.06493 600.47165,310.43231 C 595.73352,303.79969 594.78588,300.48338 594.78588,300.48338"
     id="path1097"
     sodipodi:nodetypes="ccc"
     style="fill:none;fill-opacity:1;fill-rule:evenodd;stroke:#7a3f28;stroke-width:1.89514565;stroke-linecap:butt;stroke-linejoin:miter;stroke-dasharray:none;stroke-opacity:1" />
  <path
     d="M 594.78588,313.98548 C 597.62877,318.72314 601.41928,322.74998 603.31454,328.43508 C 596.68114,334.12019 598.10243,342.17424 601.89294,347.85935 C 599.05006,354.49197 595.49668,378.89032 603.55137,385.99685"
     id="path1098"
     sodipodi:nodetypes="cccc"
     style="fill:none;fill-opacity:1;fill-rule:evenodd;stroke:#7a3f28;stroke-width:1.89514565;stroke-linecap:butt;stroke-linejoin:miter;stroke-dasharray:none;stroke-opacity:1" />
  <path
     d="M 622.74077,223.97132 C 624.63602,231.55146 612.79082,243.15856 606.15742,249.79119 C 599.52402,256.42381 597.32098,263.43171 598.26861,271.01185"
     id="path1099"
     sodipodi:nodetypes="ccc"
     style="fill:none;fill-opacity:1;fill-rule:evenodd;stroke:#7a3f28;stroke-width:1.89514565;stroke-linecap:butt;stroke-linejoin:miter;stroke-dasharray:none;stroke-opacity:1" />
  <path
     d="M 610.65874,214.02239 C 615.39687,222.55004 610.89556,236.76281 604.73583,238.18408"
     id="path1100"
     sodipodi:nodetypes="cc"
     style="fill:none;fill-opacity:1;fill-rule:evenodd;stroke:#7a3f28;stroke-width:1.89514565;stroke-linecap:butt;stroke-linejoin:miter;stroke-dasharray:none;stroke-opacity:1" />
  <path
     d="M 594.78588,209.52169 C 601.41928,218.04935 598.5764,226.81387 592.6538,232.49898"
     id="path1101"
     sodipodi:nodetypes="cc"
     style="fill:none;fill-opacity:1;fill-rule:evenodd;stroke:#7a3f28;stroke-width:1.89514565;stroke-linecap:butt;stroke-linejoin:miter;stroke-dasharray:none;stroke-opacity:1" />
  <path
     d="M 583.17751,208.33727 C 588.86328,214.96991 587.91566,225.62949 583.88801,229.18266"
     id="path1102"
     sodipodi:nodetypes="cc"
     style="fill:none;fill-opacity:1;fill-rule:evenodd;stroke:#7a3f28;stroke-width:1.89514565;stroke-linecap:butt;stroke-linejoin:miter;stroke-dasharray:none;stroke-opacity:1" />
  <path
     d="M 571.09518,233.68339 C 557.35442,237.47346 528.01919,232.88311 522.76615,232.56514 C 517.12374,232.23664 517.36664,227.82264 521.85916,224.08017 C 528.13412,219.03259 530.87967,210.96225 531.76846,206.44224 C 533.48269,197.30835 527.74112,193.17699 520.87089,195.78268 C 512.34224,201.46779 493.38968,204.31034 483.9134,198.62524 C 474.43712,192.94013 462.05427,194.40164 465.90846,206.20538 C 467.86922,212.87069 472.04484,220.96944 475.77532,224.16764 C 481.88714,229.22299 481.89441,231.74399 475.38475,233.31842 C 470.44009,234.55535 463.06558,234.63091 452.8785,236.05219 C 437.71645,236.05219 427.29255,233.68339 427.29255,233.68339"
     id="path1103"
     sodipodi:nodetypes="csssccssscc"
     style="fill:none;fill-opacity:1;fill-rule:evenodd;stroke:#7a3f28;stroke-width:1.89514565;stroke-linecap:butt;stroke-linejoin:miter;stroke-dasharray:none;stroke-opacity:1" />
  <path
     d="M 523.71377,209.04793 C 525.60904,203.83658 518.97564,203.36282 514.2375,209.04793 C 509.49935,214.73304 491.49442,217.57559 485.80865,211.89049 C 480.12288,206.20538 473.01552,205.25786 475.62157,209.52169"
     id="path1104"
     sodipodi:nodetypes="cccc"
     style="fill:none;fill-opacity:1;fill-rule:evenodd;stroke:#7a3f28;stroke-width:1.89514565;stroke-linecap:butt;stroke-linejoin:miter;stroke-dasharray:none;stroke-opacity:1" />
  <path
     d="M 401.46975,405.18401 L 401.46975,240.31601 L 594.78588,239.36849 C 594.78588,239.36849 594.78588,396.65634 595.73352,408.97407 C 596.68114,421.29181 586.25723,435.50456 569.19992,434.55704 C 552.14262,433.60953 515.42195,431.00378 508.55173,434.55704 C 506.1825,436.92569 501.68149,440.47895 499.78624,441.42647 C 498.12781,440.24216 490.78363,434.79385 488.65154,433.60953 C 480.59654,432.18811 437.47962,436.45209 428.95096,433.60953 C 420.42231,430.76698 400.52212,405.18401 401.46975,405.18401 L 401.46975,405.18401 z "
     id="path1105"
     sodipodi:nodetypes="cccccccccc"
     style="fill:none;fill-opacity:1;fill-rule:evenodd;stroke:#7a3f28;stroke-width:1.89514565;stroke-linecap:butt;stroke-linejoin:miter;stroke-dasharray:none;stroke-opacity:1" />
  <path
     d="M 409.90228,248.94003 L 496.13613,248.49571 L 495.98117,333.86853 L 410.94604,334.12019 L 410.59822,248.93997 L 410.59822,248.94009 L 409.90228,248.94006 L 409.90228,248.94003 z "
     id="path1106"
     sodipodi:nodetypes="ccccccc"
     style="fill:#d81c3f;fill-opacity:1;fill-rule:evenodd;stroke:#7a3f28;stroke-width:1.89514565;stroke-linecap:butt;stroke-linejoin:miter;stroke-dasharray:none;stroke-opacity:1" />
  <path
     d="M 410.94604,340.05695 L 496.23256,339.80529 C 496.23256,339.80529 496.42543,417.65697 496.42543,421.44705 C 496.42543,425.23712 492.44204,420.34429 485.80865,420.34429 C 479.17525,420.34429 446.9559,422.23932 437.47962,422.23932 C 428.00333,422.23932 410.94604,408.97407 410.94604,400.44642 C 410.94604,391.91876 410.94604,341.00448 410.94604,340.05695 L 410.94604,340.05695 L 410.94604,340.05695 z "
     id="path1107"
     sodipodi:nodetypes="cccccccc"
     style="fill:#fce016;fill-opacity:1;fill-rule:evenodd;stroke:#7a3f28;stroke-width:1.89514565;stroke-linecap:butt;stroke-linejoin:miter;stroke-dasharray:none;stroke-opacity:1" />
  <path
     d="M 190.00955,179.29407 C 190.67732,179.89506 189.52888,180.49071 189.01067,180.40393 C 187.60634,180.16879 187.28962,178.40254 187.78982,177.2963 C 188.68455,175.31749 191.25939,174.95568 193.0062,175.96447 C 195.56972,177.4449 195.98349,180.92167 194.44902,183.2896"
     id="path1108"
     sodipodi:argument="-18.116739"
     sodipodi:cx="190.00955"
     sodipodi:cy="179.29407"
     sodipodi:expansion="1"
     sodipodi:radius="5.9726992"
     sodipodi:revolution="1"
     sodipodi:t0="0"
     sodipodi:type="spiral"
     style="font-size:12px;fill:none;fill-rule:evenodd;stroke:#7a3f28;stroke-width:1.15859997;stroke-dasharray:none;stroke-opacity:1"
     transform="matrix(-0.523846,-1.418662,-1.69566,0.515065,1032.036,525.3144)" />
  <path
     d="M 190.00955,179.29407 C 190.67732,179.89506 189.52888,180.49071 189.01067,180.40393 C 187.60634,180.16879 187.28962,178.40254 187.78982,177.2963 C 188.68455,175.31749 191.25939,174.95568 193.0062,175.96447 C 195.56972,177.4449 195.98349,180.92167 194.44902,183.2896"
     id="path1109"
     sodipodi:argument="-18.116739"
     sodipodi:cx="190.00955"
     sodipodi:cy="179.29407"
     sodipodi:expansion="1"
     sodipodi:radius="5.9726992"
     sodipodi:revolution="1"
     sodipodi:t0="0"
     sodipodi:type="spiral"
     style="font-size:12px;fill:none;fill-rule:evenodd;stroke:#7a3f28;stroke-width:1.15859997;stroke-dasharray:none;stroke-opacity:1"
     transform="matrix(-0.258932,1.489943,-1.760814,-0.200322,1000.761,139.283)" />
  <path
     d="M 190.00955,179.29407 C 190.67732,179.89506 189.52888,180.49071 189.01067,180.40393 C 187.60634,180.16879 187.28962,178.40254 187.78982,177.2963 C 188.68455,175.31749 191.25939,174.95568 193.0062,175.96447 C 195.56972,177.4449 195.98349,180.92167 194.44902,183.2896"
     id="path1110"
     sodipodi:argument="-18.116739"
     sodipodi:cx="190.00955"
     sodipodi:cy="179.29407"
     sodipodi:expansion="1"
     sodipodi:radius="5.9726992"
     sodipodi:revolution="1"
     sodipodi:t0="0"
     sodipodi:type="spiral"
     style="font-size:12px;fill:none;fill-rule:evenodd;stroke:#7a3f28;stroke-width:1.15859997;stroke-dasharray:none;stroke-opacity:1"
     transform="matrix(-1.414328,0.535819,-0.724136,-1.617286,1006.022,462.5894)" />
  <path
     d="M 190.00955,179.29407 C 190.67732,179.89506 189.52888,180.49071 189.01067,180.40393 C 187.60634,180.16879 187.28962,178.40254 187.78982,177.2963 C 188.68455,175.31749 191.25939,174.95568 193.0062,175.96447 C 195.56972,177.4449 195.98349,180.92167 194.44902,183.2896"
     id="path1111"
     sodipodi:argument="-18.116739"
     sodipodi:cx="190.00955"
     sodipodi:cy="179.29407"
     sodipodi:expansion="1"
     sodipodi:radius="5.9726992"
     sodipodi:revolution="1"
     sodipodi:t0="0"
     sodipodi:type="spiral"
     style="font-size:12px;fill:none;fill-rule:evenodd;stroke:#7a3f28;stroke-width:1.18439996;stroke-dasharray:none;stroke-opacity:1"
     transform="matrix(0.416101,1.454138,-1.585323,0.612997,581.9452,-57.3164)" />
  <path
     d="M 190.00955,179.29407 C 190.67732,179.89506 189.52888,180.49071 189.01067,180.40393 C 187.60634,180.16879 187.28962,178.40254 187.78982,177.2963 C 188.68455,175.31749 191.25939,174.95568 193.0062,175.96447 C 195.56972,177.4449 195.98349,180.92167 194.44902,183.2896"
     id="path1113"
     sodipodi:argument="-18.116739"
     sodipodi:cx="190.00955"
     sodipodi:cy="179.29407"
     sodipodi:expansion="1"
     sodipodi:radius="5.9726992"
     sodipodi:revolution="1"
     sodipodi:t0="0"
     sodipodi:type="spiral"
     style="font-size:12px;fill:none;fill-rule:evenodd;stroke:#7a3f28;stroke-width:1.18439996;stroke-dasharray:none;stroke-opacity:1"
     transform="matrix(0.416101,-1.454138,-1.585323,-0.612997,581.9452,681.6187)" />
  <path
     d="M 190.00955,179.29407 C 190.02324,179.30639 189.98829,179.32377 189.98181,179.3249 C 189.90751,179.33782 189.87693,179.23866 189.88623,179.18308 C 189.91428,179.01561 190.1211,178.96905 190.25927,179.0166 C 190.55107,179.11702 190.61807,179.48315 190.50283,179.73802 C 190.29991,180.18679 189.72128,180.27765 189.31588,180.06481 C 188.67694,179.72934 188.55915,178.88485 188.89969,178.29518 C 189.39779,177.43266 190.56152,177.28504 191.36914,177.78342 C 192.48873,178.4743 192.66905,180.01064 191.98265,181.06986 C 191.06881,182.48004 189.10653,182.6959 187.76207,181.79127 C 186.02773,180.6243 185.77351,178.18272 186.92659,176.51939 C 188.37688,174.42734 191.3511,174.13193 193.36691,175.56368 C 195.85024,177.3275 196.18966,180.88771 194.44902,183.2896"
     id="path1116"
     sodipodi:argument="-18.116739"
     sodipodi:cx="190.00955"
     sodipodi:cy="179.29407"
     sodipodi:expansion="2"
     sodipodi:radius="5.9726992"
     sodipodi:revolution="3"
     sodipodi:t0="0"
     sodipodi:type="spiral"
     style="font-size:12px;fill:none;fill-rule:evenodd;stroke:#7a3f28;stroke-width:0.86150002;stroke-dasharray:none;stroke-opacity:1"
     transform="matrix(2.081146,-0.141981,-0.14681,-2.315005,95.59569,934.7663)" />
  <path
     d="M 190.00955,179.29407 C 190.67732,179.89506 189.52888,180.49071 189.01067,180.40393 C 187.60634,180.16879 187.28962,178.40254 187.78982,177.2963 C 188.68455,175.31749 191.25939,174.95568 193.0062,175.96447 C 195.56972,177.4449 195.98349,180.92167 194.44902,183.2896"
     id="path1117"
     sodipodi:argument="-18.116739"
     sodipodi:cx="190.00955"
     sodipodi:cy="179.29407"
     sodipodi:expansion="1"
     sodipodi:radius="5.9726992"
     sodipodi:revolution="1"
     sodipodi:t0="0"
     sodipodi:type="spiral"
     style="font-size:12px;fill:none;fill-rule:evenodd;stroke:#7a3f28;stroke-width:0.898;stroke-dasharray:none;stroke-opacity:1"
     transform="matrix(1.987802,-0.198868,-0.259358,-2.214866,58.46409,858.6892)" />
  <path
     d="M 389.54471,422.20191 C 383.22392,412.44784 369.20522,421.80786 371.80462,434.68355 C 376.31946,447.05463 390.76699,461.32898 410.6323,461.32898 C 430.49762,461.32898 444.21409,460.49096 458.48967,464.18385 C 472.93716,467.8798 487.51645,474.83686 490.63856,484.05039 C 496.7088,501.72561 488.80515,502.63095 486.68023,492.60525 C 484.87428,485.94391 482.41011,481.90809 478.61939,479.13118 C 472.85165,474.90537 469.32529,476.55497 469.32529,476.55497"
     id="path1119"
     sodipodi:nodetypes="cccsscsc"
     style="font-size:12px;fill:none;fill-rule:evenodd;stroke:#7a3f28;stroke-width:1.89518595;stroke-dasharray:none;stroke-opacity:1" />
  <path
     d="M 473.68065,483.27419 C 469.64457,474.81982 456.68372,467.99035 446.75106,467.99035 C 436.8184,467.99035 423.27387,467.99035 412.43822,467.03874 C 401.6026,466.0871 386.25211,463.23223 376.31946,453.716 C 366.3868,444.19978 363.3167,436.26856 364.04717,427.68568 C 364.63085,418.95296 374.03472,409.10512 381.73728,408.03808 C 388.95236,407.01734 395.17231,410.71969 397.56655,414.42083"
     id="path1120"
     sodipodi:nodetypes="ccccssc"
     style="font-size:12px;fill:none;fill-rule:evenodd;stroke:#7a3f28;stroke-width:1.89518595;stroke-dasharray:none;stroke-opacity:1" />
  <path
     d="M 369.88484,394.42363 C 381.16264,390.67925 385.01598,379.12733 385.34916,368.06991 C 385.80165,352.91063 379.25401,346.73224 377.73502,345.22212"
     id="path1121"
     sodipodi:nodetypes="csc"
     style="font-size:12px;fill:none;fill-rule:evenodd;stroke:#7a3f28;stroke-width:1.89518595;stroke-dasharray:none;stroke-opacity:1" />
  <path
     d="M 364.31263,403.51871 C 382.01921,401.14255 395.80685,389.42223 391.66994,361.40857 C 389.86399,350.9407 382.86588,338.46334 375.64217,338.46334 C 371.97505,337.97487 367.9938,338.63568 365.34043,336.2309"
     id="path1122"
     sodipodi:nodetypes="cccc"
     style="font-size:12px;fill:none;fill-rule:evenodd;stroke:#7a3f28;stroke-width:1.89518595;stroke-dasharray:none;stroke-opacity:1" />
  <path
     d="M 372.70759,286.34939 C 361.64632,288.13357 355.04386,295.8906 354.03052,305.83192 C 353.21276,314.9599 358.59093,333.19087 375.78144,329.58384"
     id="path1123"
     sodipodi:nodetypes="csc"
     style="font-size:12px;fill:none;fill-rule:evenodd;stroke:#7a3f28;stroke-width:1.89518595;stroke-dasharray:none;stroke-opacity:1" />
  <path
     d="M 383.09186,296.81726 C 387.60672,289.20428 383.5432,275.76248 383.5432,275.76248"
     id="path1124"
     sodipodi:nodetypes="cc"
     style="font-size:12px;fill:none;fill-rule:evenodd;stroke:#7a3f28;stroke-width:1.89518595;stroke-dasharray:none;stroke-opacity:1" />
  <path
     d="M 376.31946,307.16603 C 388.05807,310.97254 394.37885,307.16603 397.08774,299.55305 C 400.47397,290.27466 398.11093,284.18823 396.30498,279.43011"
     id="path1125"
     sodipodi:nodetypes="ccc"
     style="font-size:12px;fill:none;fill-rule:evenodd;stroke:#7a3f28;stroke-width:1.89518595;stroke-dasharray:none;stroke-opacity:1" />
  <path
     d="M 368.19272,310.97254 C 376.31946,322.39201 391.66994,318.58551 396.18477,311.92415 C 400.69964,305.26278 401.6026,301.93228 401.6026,301.93228"
     id="path1126"
     sodipodi:nodetypes="ccc"
     style="font-size:12px;fill:none;fill-rule:evenodd;stroke:#7a3f28;stroke-width:1.89518595;stroke-dasharray:none;stroke-opacity:1" />
  <path
     d="M 401.6026,315.49281 C 398.89369,320.25093 395.28182,324.29526 393.47586,330.00499 C 399.79665,335.71475 398.44235,343.8037 394.83047,349.51342 C 397.53938,356.17479 400.92531,380.67884 393.25019,387.81618"
     id="path1127"
     sodipodi:nodetypes="cccc"
     style="font-size:12px;fill:none;fill-rule:evenodd;stroke:#7a3f28;stroke-width:1.89518595;stroke-dasharray:none;stroke-opacity:1" />
  <path
     d="M 375.81065,223.39769 C 374.00473,231.01064 384.4462,244.35887 390.76699,251.02026 C 397.08774,257.68163 399.18698,264.72001 398.28399,272.33298"
     id="path1128"
     sodipodi:nodetypes="ccc"
     style="font-size:12px;fill:none;fill-rule:evenodd;stroke:#7a3f28;stroke-width:1.89518595;stroke-dasharray:none;stroke-opacity:1" />
  <path
     d="M 386.90056,213.4056 C 382.38573,221.97022 386.25211,237.93542 392.12155,239.36288"
     id="path1129"
     sodipodi:nodetypes="cc"
     style="font-size:12px;fill:none;fill-rule:evenodd;stroke:#7a3f28;stroke-width:1.89518595;stroke-dasharray:none;stroke-opacity:1" />
  <path
     d="M 402.02535,208.46271 C 395.70456,217.0273 397.99073,227.94344 403.63419,233.65313"
     id="path1130"
     sodipodi:nodetypes="cc"
     style="font-size:12px;fill:none;fill-rule:evenodd;stroke:#7a3f28;stroke-width:1.89518595;stroke-dasharray:none;stroke-opacity:1" />
  <path
     d="M 414.77776,206.85042 C 409.35993,213.51179 408.14905,226.75387 411.98688,230.32247"
     id="path1131"
     sodipodi:nodetypes="cc"
     style="font-size:12px;fill:none;fill-rule:evenodd;stroke:#7a3f28;stroke-width:1.89518595;stroke-dasharray:none;stroke-opacity:1" />
  <path
     d="M 190.00955,179.29407 C 190.67732,179.89506 189.52888,180.49071 189.01067,180.40393 C 187.60634,180.16879 187.28962,178.40254 187.78982,177.2963 C 188.68455,175.31749 191.25939,174.95568 193.0062,175.96447 C 195.56972,177.4449 195.98349,180.92167 194.44902,183.2896"
     id="path1134"
     sodipodi:argument="-18.116739"
     sodipodi:cx="190.00955"
     sodipodi:cy="179.29407"
     sodipodi:expansion="1"
     sodipodi:radius="5.9726992"
     sodipodi:revolution="1"
     sodipodi:t0="0"
     sodipodi:type="spiral"
     style="font-size:12px;fill:none;fill-rule:evenodd;stroke:#7a3f28;stroke-width:1.18439996;stroke-dasharray:none;stroke-opacity:1"
     transform="matrix(0.499159,-1.424808,1.61575,0.517296,-15.04058,527.7374)" />
  <path
     d="M 190.00955,179.29407 C 190.67732,179.89506 189.52888,180.49071 189.01067,180.40393 C 187.60634,180.16879 187.28962,178.40254 187.78982,177.2963 C 188.68455,175.31749 191.25939,174.95568 193.0062,175.96447 C 195.56972,177.4449 195.98349,180.92167 194.44902,183.2896"
     id="path1135"
     sodipodi:argument="-18.116739"
     sodipodi:cx="190.00955"
     sodipodi:cy="179.29407"
     sodipodi:expansion="1"
     sodipodi:radius="5.9726992"
     sodipodi:revolution="1"
     sodipodi:t0="0"
     sodipodi:type="spiral"
     style="font-size:12px;fill:none;fill-rule:evenodd;stroke:#7a3f28;stroke-width:1.18439996;stroke-dasharray:none;stroke-opacity:1"
     transform="matrix(0.246729,1.496398,1.677833,-0.20119,14.76069,140.0335)" />
  <path
     d="M 190.00955,179.29407 C 190.67732,179.89506 189.52888,180.49071 189.01067,180.40393 C 187.60634,180.16879 187.28962,178.40254 187.78982,177.2963 C 188.68455,175.31749 191.25939,174.95568 193.0062,175.96447 C 195.56972,177.4449 195.98349,180.92167 194.44902,183.2896"
     id="path1136"
     sodipodi:argument="-18.116739"
     sodipodi:cx="190.00955"
     sodipodi:cy="179.29407"
     sodipodi:expansion="1"
     sodipodi:radius="5.9726992"
     sodipodi:revolution="1"
     sodipodi:t0="0"
     sodipodi:type="spiral"
     style="font-size:12px;fill:none;fill-rule:evenodd;stroke:#7a3f28;stroke-width:1.18439996;stroke-dasharray:none;stroke-opacity:1"
     transform="matrix(1.347676,0.538141,0.69001,-1.624294,9.746987,464.7406)" />
  <path
     d="M 586.85704,339.55363 L 502.61427,339.99783 C 502.61427,339.99783 502.42171,418.19759 502.42171,421.98766 C 502.42171,425.77773 505.70884,418.44925 512.34224,418.44925 C 518.97564,418.44925 551.195,420.34429 560.67127,420.34429 C 570.14756,420.34429 587.20486,407.07904 587.20486,398.55139 C 587.20486,390.02372 587.20486,341.54509 586.85704,339.55363 L 586.85704,339.55363 L 586.85704,339.55363 z "
     id="path1221"
     sodipodi:nodetypes="cccccccc"
     style="font-size:12px;fill:#fce016;fill-opacity:1;fill-rule:evenodd;stroke:#7a3f28;stroke-width:1.89514565;stroke-dasharray:none;stroke-opacity:1" />
  <path
     d="M 501.91833,248.43674 L 587.10843,248.34041 L 586.95317,334.06136 L 501.91833,333.96494 L 501.91833,248.43674 L 501.91833,248.43674 L 501.91833,248.43674 z "
     id="path1222"
     sodipodi:nodetypes="cccccc"
     style="font-size:12px;fill:#fce016;fill-opacity:1;fill-rule:evenodd;stroke:#7a3f28;stroke-width:1.89514565;stroke-dasharray:none;stroke-opacity:1" />
  <path
     d="M 422.05982,321.54231 C 410.64704,320.66817 415.11893,307.02816 423.16028,308.36815 C 431.20101,309.7081 428.21318,319.31184 430.34072,323.12232 C 432.79788,327.92721 440.57844,330.25068 445.05398,325.33662 C 448.90604,320.91285 447.52265,315.17918 447.52265,312.74025"
     id="path1235"
     sodipodi:nodetypes="ccssc"
     style="font-size:12px;fill:none;fill-rule:evenodd;stroke:#ffffff;stroke-width:4.92737865" />
  <path
     d="M 483.55132,267.49272 C 496.2641,265.0941 491.50352,254.07669 484.89165,252.75284 C 478.76588,251.67877 473.21324,255.02236 474.78008,261.22992 C 475.45055,264.24461 476.39908,269.28412 472.83024,271.51272 C 468.80957,274.19269 420.57848,328.25798 419.44982,329.16093"
     id="path1231"
     sodipodi:nodetypes="csscc"
     style="font-size:12px;fill:none;fill-opacity:1;fill-rule:evenodd;stroke:#fce016;stroke-width:4.54834938;stroke-dasharray:none;stroke-opacity:1" />
  <path
     d="M 453.63054,253.88134 C 452.27626,254.78417 431.93425,279.58114 430.8341,280.45549 C 429.73393,281.32982 428.81693,285.10985 429.70543,286.43568 C 430.59393,287.76142 442.0067,313.05249 442.0067,313.05249 L 464.7895,312.8126 C 465.69226,312.13548 476.66745,287.2426 477.542,285.78697 C 478.64246,284.41053 477.95046,280.9069 476.86486,280.0183 C 476.00457,278.90402 454.731,254.55843 453.63054,253.88134 L 453.63054,253.88134 L 453.63054,253.88134 z "
     id="path1233"
     sodipodi:nodetypes="ccccccccc"
     style="font-size:12px;fill:#ffffff;fill-rule:evenodd;stroke:none;stroke-width:0.625;stroke-dasharray:none" />
  <path
     d="M 484.89165,321.7682 C 496.30443,320.89375 491.83253,307.25393 483.79119,308.59392 C 475.75045,309.93387 478.73828,319.53763 476.61074,323.3479 C 474.15359,328.1531 466.37303,330.47657 461.8975,325.56252 C 458.04542,321.13874 459.42881,314.49032 459.42881,312.35624"
     id="path1230"
     sodipodi:nodetypes="ccssc"
     style="font-size:12px;fill:none;fill-rule:evenodd;stroke:#ffffff;stroke-width:4.92737865" />
  <path
     d="M 455.76323,265.16751 C 455.76323,265.16751 455.76323,302.45042 455.76323,306.59294 C 455.53762,308.64222 461.98422,309.13675 463.56441,302.90093 C 465.1443,300.38644 470.50499,284.49938 470.50499,284.49938 L 455.76323,265.16751 L 455.76323,265.16751 z "
     id="path1232"
     sodipodi:nodetypes="ccccc"
     style="font-size:12px;fill:#fce016;fill-rule:evenodd;stroke:#d81c3f;stroke-width:1.19276822" />
  <path
     d="M 451.67282,265.10898 C 451.67282,265.10898 451.67282,302.27162 451.67282,306.40079 C 451.89843,308.44346 445.45182,308.93641 443.87164,302.7207 C 442.29175,300.21431 436.93105,284.37852 436.93105,284.37852 L 451.67282,265.10898 L 451.67282,265.10898 z "
     id="path1234"
     sodipodi:nodetypes="ccccc"
     style="font-size:12px;fill:#fce016;fill-rule:evenodd;stroke:#d81c3f;stroke-width:1.1749903" />
  <path
     d="M 561.9831,396.15545 C 562.43886,398.13053 562.89464,397.67481 563.80618,398.13053 C 564.71772,398.58625 564.41387,399.8015 564.71772,401.01675 C 564.77139,403.17011 565.45065,406.87893 565.65625,408.06749 C 565.86185,408.75546 564.73137,409.13083 564.50333,408.25487 C 564.19948,407.64724 564.11003,407.70092 563.9581,408.61265 C 563.80618,409.52409 562.81397,410.07805 561.73291,410.09594 C 561.15191,410.17659 562.33151,408.89858 560.83048,409.64901 L 560.70523,409.55077 C 560.07965,409.23816 561.37539,408.61265 562.13502,407.54901 C 562.89464,406.48567 563.19849,404.20707 562.59079,403.44755 C 561.9831,402.68802 561.52732,401.77627 561.52732,401.01675 C 561.52732,400.25722 560.61578,400.10531 559.70393,399.34578 C 558.79239,398.58625 558.18469,398.43435 557.88085,399.49769 C 557.577,400.56103 558.18469,401.32056 558.03278,402.53581 C 557.88085,403.75136 556.66546,403.44755 555.90584,404.51089 C 555.14622,405.57423 551.34782,408.76456 551.34782,408.76456 C 551.34782,408.76456 550.43628,408.30884 550.28436,409.06838 C 550.13243,409.8279 548.53708,410.52497 547.85358,410.37306 L 547.70166,409.676 L 546.48596,409.676 C 546.41016,409.14417 546.94174,408.76456 547.54973,408.00473 C 548.15742,407.24519 548.91705,407.54901 549.82859,406.94139 C 550.74013,406.33376 551.65167,405.11851 552.56321,403.75136 C 553.47506,402.38421 553.47506,401.16865 553.01929,400.71293 C 552.56321,400.25722 552.25936,399.19388 552.25936,399.19388 C 552.25936,399.19388 551.1959,399.34578 551.04398,398.43435 C 550.89206,397.5229 545.72635,400.10531 544.96672,400.56103 C 544.2071,401.01675 542.2321,401.16865 542.2321,401.16865 C 542.2321,401.16865 542.68787,405.72614 542.8398,406.63757 C 542.99171,407.54901 543.29556,408.38465 542.2321,408.23274 C 542.08017,407.3971 541.32025,407.62511 541.47248,408.46044 C 541.47248,409.676 540.56063,410.43552 540.56063,410.43552 L 538.58563,410.47131 L 538.58563,409.37218 L 537.73655,409.73846 C 537.58463,409.51045 537.74989,408.99227 538.4337,408.30884 C 539.49717,407.3971 540.10486,404.8147 540.10486,403.75136 C 540.10486,402.68802 539.49717,401.47247 539.49717,401.47247 C 539.49717,401.47247 535.54715,401.32056 535.09138,400.71293 C 534.63561,400.10531 530.53337,397.37101 530.07759,396.76338 C 529.62182,396.15545 525.97535,392.66161 525.51958,391.90209 C 525.0638,391.14255 524.00034,392.20589 523.24072,392.05399 C 522.4808,391.90209 522.02533,393.42114 521.11348,393.72495 C 520.20194,394.02877 518.98655,393.87686 518.37886,393.57305 C 517.77116,393.26923 517.92309,392.66161 517.16347,392.05399 C 516.40385,391.44636 516.55577,391.14255 517.46732,390.53493 C 518.37886,389.92701 519.2904,387.80032 518.98655,387.3446 C 518.6827,386.88888 518.53079,386.28126 518.98655,385.82554 C 519.44233,385.36982 519.89809,384.00267 519.89809,383.39505 C 519.89809,382.78711 520.35387,381.87568 520.96156,381.87568 C 521.56955,381.87568 524.75995,381.41997 525.51958,382.02759 C 526.2792,382.63521 531.59683,384.76219 533.41992,384.76219 C 535.2433,384.76219 540.10486,384.30648 540.86448,384.6103 C 541.6244,384.9141 550.13243,384.9141 551.34782,384.76219 C 552.56321,384.6103 554.84238,383.69885 556.66546,384.00267 C 558.48854,384.30648 559.40039,384.6103 560.16001,385.67364 C 560.91963,386.73698 562.13502,387.49651 563.3504,388.25603 C 566.69303,390.38302 565.93311,394.7883 561.9831,396.15545 L 561.9831,396.15545 L 561.9831,396.15545 L 561.9831,396.15545 L 561.9831,396.15545 L 561.9831,396.15545 L 561.9831,396.15545 L 561.9831,396.15545 L 561.9831,396.15545 z "
     id="path958"
     sodipodi:nodetypes="cccccccccccccccccccccccccccccccccccccccccccccccccccccccccccccccccc"
     style="font-size:12px;fill:#d81c3f;fill-rule:evenodd;stroke:#7a3f28;stroke-width:0.40025476" />
  <path
     d="M 520.20194,381.87568 C 519.13848,380.81234 519.89809,380.20472 518.53079,380.50852 C 518.53079,381.72377 518.83463,382.63521 519.59424,383.24284 C 520.35387,383.85076 520.20194,382.02759 520.20194,381.87568 L 520.20194,381.87568 z "
     id="path956"
     sodipodi:nodetypes="cccc"
     style="font-size:12px;fill:#d81c3f;fill-rule:evenodd;stroke:#7a3f28;stroke-width:0.40025476" />
  <path
     d="M 561.37539,394.48448 C 564.11003,393.26923 564.26195,389.92701 560.31193,388.10413 C 556.36161,386.28126 561.52732,394.63639 561.37539,394.48448 L 561.37539,394.48448 z "
     id="path957"
     sodipodi:nodetypes="ccc"
     style="font-size:12px;fill:#fce016;fill-rule:evenodd;stroke:#7a3f28;stroke-width:0.40025476" />
  <path
     d="M 539.64909,384.6103 C 538.70905,385.49384 537.82904,386.66967 539.55509,387.34399 C 539.75492,387.42222 539.8459,387.44799 539.82133,387.66145"
     id="path959"
     style="font-size:12px;fill:#d81c3f;fill-rule:evenodd;stroke:#7a3f28;stroke-width:0.40025476" />
  <path
     d="M 556.81738,384.00267 C 556.81738,384.58937 558.14376,385.7837 558.64077,386.16664"
     id="path960"
     style="font-size:12px;fill:#d81c3f;fill-rule:evenodd;stroke:#7a3f28;stroke-width:0.40025476" />
  <path
     d="M 556.66546,386.88888 C 556.66546,387.98254 556.48927,388.72206 556.66394,389.70657 C 556.84224,390.71018 556.82436,391.74624 556.43257,392.62978 C 556.2767,392.71467 556.19028,393.00363 556.02774,393.15735"
     id="path961"
     sodipodi:nodetypes="cccc"
     style="font-size:12px;fill:#d81c3f;fill-rule:evenodd;stroke:#7a3f28;stroke-width:0.40025476" />
  <path
     d="M 533.72377,394.7883 C 533.72377,396.00537 534.85636,397.3237 535.78186,398.07566 C 536.24854,398.45496 536.50934,399.02651 537.19405,399.20266 C 537.3102,399.23269 538.82064,400.17808 538.92192,400.26996 C 539.19544,400.51858 539.15693,401.02463 539.46897,401.32965"
     id="path963"
     sodipodi:nodetypes="ccccc"
     style="font-size:12px;fill:#d81c3f;fill-rule:evenodd;stroke:#7a3f28;stroke-width:0.40025476" />
  <path
     d="M 553.0951,394.8644 C 553.83773,395.60695 554.56673,396.54568 555.42308,397.18999 C 556.09446,397.69483 557.39111,398.85975 558.24109,398.80122"
     id="path965"
     sodipodi:nodetypes="ccc"
     style="font-size:12px;fill:#d81c3f;fill-rule:evenodd;stroke:#7a3f28;stroke-width:0.40025476" />
  <path
     d="M 550.74013,398.29123 C 551.82513,398.29123 552.85099,398.00743 553.90354,397.81459 C 554.09003,397.78063 555.24204,397.21152 555.18291,397.04293"
     id="path966"
     sodipodi:nodetypes="ccc"
     style="font-size:12px;fill:#d81c3f;fill-rule:evenodd;stroke:#7a3f28;stroke-width:0.40025476" />
  <path
     d="M 532.04381,387.28214 C 532.04381,387.99709 532.53506,388.89125 532.35645,389.6053 C 532.17784,390.31995 531.90371,390.8154 531.90098,391.55583 C 531.89856,392.23652 531.08587,394.30802 530.82235,394.97538 C 530.71197,395.25584 530.90422,395.57511 530.99126,395.86377"
     id="path971"
     sodipodi:nodetypes="ccccc"
     style="font-size:12px;fill:#d81c3f;fill-rule:evenodd;stroke:#7a3f28;stroke-width:0.40025476" />
  <path
     d="M 526.73496,389.7754 C 526.73496,390.73171 525.39646,391.35996 524.63594,391.66376"
     id="path972"
     sodipodi:nodetypes="cc"
     style="font-size:12px;fill:#d81c3f;fill-rule:evenodd;stroke:#7a3f28;stroke-width:0.40025476" />
  <path
     d="M 525.21573,386.12935 C 524.24809,388.0641 521.81337,385.99564 521.87553,387.80578 C 521.88554,388.10534 523.74986,388.2524 523.70346,387.17571"
     id="path973"
     style="font-size:12px;fill:#d81c3f;fill-rule:evenodd;stroke:#7a3f28;stroke-width:0.40025476" />
  <path
     d="M 523.24072,387.80032 C 523.24072,388.49041 522.39407,388.42644 522.00259,389.02588"
     id="path974"
     style="font-size:12px;fill:#d81c3f;fill-rule:evenodd;stroke:#7a3f28;stroke-width:0.40025476" />
  <path
     d="M 520.96156,383.24284 C 521.40157,383.46297 522.2185,383.164 522.55539,383.39505 C 522.72976,383.5145 523.04604,383.89867 523.11245,383.69795"
     id="path975"
     style="font-size:12px;fill:#d81c3f;fill-rule:evenodd;stroke:#7a3f28;stroke-width:0.40025476" />
  <path
     d="M 518.98655,387.3446 C 519.41109,387.3446 519.9633,387.3446 519.95025,387.3446"
     id="path976"
     style="font-size:12px;fill:#d81c3f;fill-rule:evenodd;stroke:#7a3f28;stroke-width:0.40025476" />
  <path
     d="M 521.11348,393.57305 C 522.40742,393.57305 521.77637,391.33266 521.87038,391.13255"
     id="path977"
     style="font-size:12px;fill:#d81c3f;fill-rule:evenodd;stroke:#7a3f28;stroke-width:0.40025476" />
  <path
     d="M 519.44233,391.29446 C 519.11513,391.94877 517.72719,392.34112 519.47447,392.66798 C 519.56695,392.68527 519.97087,392.16436 519.899,392.04671"
     id="path978"
     style="font-size:12px;fill:#d81c3f;fill-rule:evenodd;stroke:#7a3f28;stroke-width:0.40025476" />
  <path
     d="M 542.2321,401.01675 L 542.08017,395.09211"
     id="path979"
     style="font-size:12px;fill:#d81c3f;fill-rule:evenodd;stroke:#7a3f28;stroke-width:0.40025476" />
  <path
     d="M 561.22347,394.48448 C 558.79239,394.9402 554.69045,394.63639 552.86706,393.11734 C 551.04398,391.59827 548.30935,388.55985 546.18211,389.01556 C 544.05518,389.47128 541.47248,389.31938 542.53595,390.07921 C 543.59941,390.83874 545.11864,391.59827 546.03019,391.29446 C 546.94174,390.99065 541.0167,390.83874 542.99171,391.59827 C 544.96672,392.3578 546.48596,392.66161 547.24588,392.20589 C 548.0055,391.75018 548.6132,391.44636 550.13243,392.66161 C 551.65167,393.87686 554.23468,395.85164 555.75392,396.00385 C 557.27315,396.15545 561.83117,396.00385 561.83117,396.00385 L 562.20628,396.00385"
     id="path980"
     sodipodi:nodetypes="ccccccccccc"
     style="font-size:12px;fill:#d81c3f;fill-rule:evenodd;stroke:#7a3f28;stroke-width:0.40025476" />
  <path
     d="M 542.38402,389.7754 C 543.96815,390.56737 545.26876,390.10741 546.81741,389.9082"
     id="path981"
     style="font-size:12px;fill:#d81c3f;fill-rule:evenodd;stroke:#7a3f28;stroke-width:0.40025476" />
  <path
     d="M 530.04393,384.30375 C 530.80355,388.25361 528.10228,392.96543 527.34266,393.26923 C 526.58305,393.57305 525.97535,392.50971 525.97535,392.50971 C 525.97535,392.50971 525.97535,393.72495 526.2792,394.33257 C 526.58305,394.9402 525.36765,396.76338 525.36765,397.5229 C 525.36765,398.28244 528.8622,398.28244 528.55805,397.5229 C 528.25451,397.06719 527.79843,395.39592 527.79843,395.24402 C 528.10228,394.48448 533.11606,391.64708 531.90067,384.5072 C 531.44491,384.65911 530.68529,383.9484 529.92567,383.9484 L 529.92567,383.9484 L 530.04393,384.30375 L 530.04393,384.30375 z "
     id="path982"
     sodipodi:nodetypes="ccccccccccc"
     style="font-size:12px;fill:#0072c6;fill-rule:evenodd;stroke:#7a3f28;stroke-width:0.40025476" />
  <path
     d="M 561.52732,408.42496 C 562.18687,408.54989 563.14996,408.61265 563.80951,408.61265"
     id="path983"
     sodipodi:nodetypes="cc"
     style="font-size:12px;fill:#d81c3f;fill-rule:evenodd;stroke:#7a3f28;stroke-width:0.40025476" />
  <path
     d="M 547.54973,409.37218 C 547.70529,409.49862 548.21383,408.58961 548.43914,408.67693"
     id="path984"
     sodipodi:nodetypes="cc"
     style="font-size:12px;fill:#d81c3f;fill-rule:evenodd;stroke:#7a3f28;stroke-width:0.40025476" />
  <path
     d="M 547.54973,408.15663 C 547.79233,408.15663 550.61793,408.66844 550.53574,408.797"
     id="path985"
     sodipodi:nodetypes="cc"
     style="font-size:12px;fill:#d81c3f;fill-rule:evenodd;stroke:#7a3f28;stroke-width:0.40025476" />
  <path
     d="M 538.4337,408.61265 C 539.64909,409.21997 540.46451,409.04229 541.32723,408.14875"
     id="path986"
     style="font-size:12px;fill:#d81c3f;fill-rule:evenodd;stroke:#7a3f28;stroke-width:0.40025476" />
  <path
     d="M 526.35531,394.7883 L 527.72262,395.16821"
     id="path990"
     style="font-size:12px;fill:#d81c3f;fill-rule:evenodd;stroke:#7a3f28;stroke-width:0.40025476" />
  <path
     d="M 147.27085 169.07578 A 1.0438004 1.8978195 0 1 1  145.18325,169.07578 A 1.0438004 1.8978195 0 1 1  147.27085 169.07578 z"
     id="path991"
     sodipodi:cx="146.22705"
     sodipodi:cy="169.07578"
     sodipodi:rx="1.0438004"
     sodipodi:ry="1.8978195"
     sodipodi:type="arc"
     style="font-size:12px;fill:#d81c3f;fill-rule:evenodd;stroke:#7a3f28;stroke-width:1"
     transform="matrix(0.400278,0,0,0.400232,468.5454,330.4611)" />
  <path
     d="M 522.4808,387.1169 C 522.70884,387.64841 522.94324,387.88309 522.94324,387.88309"
     id="path992"
     sodipodi:nodetypes="cc"
     style="font-size:12px;fill:none;fill-rule:evenodd;stroke:#7a3f28;stroke-width:0.40025476" />
  <rect
     height="80.796104"
     id="rect1253"
     style="font-size:12px;fill:#d81c3f;fill-rule:evenodd;stroke:#d81c3f;stroke-width:3.00681376"
     width="14.977998"
     x="512.68256"
     y="250.79167" />
  <rect
     height="76.945023"
     id="rect1254"
     style="font-size:12px;fill:#d81c3f;fill-rule:evenodd;stroke:#d81c3f;stroke-width:2.99691963"
     width="9.203001"
     x="477.3634"
     y="342.3291" />
  <rect
     height="80.796066"
     id="rect1255"
     style="font-size:12px;fill:#d81c3f;fill-rule:evenodd;stroke:#d81c3f;stroke-width:3.00681376"
     width="14.977995"
     x="537.24066"
     y="250.79167" />
  <rect
     height="80.796051"
     id="rect1256"
     style="font-size:12px;fill:#d81c3f;fill-rule:evenodd;stroke:#d81c3f;stroke-width:3.00681067"
     width="14.977993"
     x="561.79883"
     y="250.84081" />
  <rect
     height="77.859352"
     id="rect1257"
     style="font-size:12px;fill:#d81c3f;fill-rule:evenodd;stroke:#d81c3f;stroke-width:3.01467323"
     width="9.203001"
     x="458.89301"
     y="342.3317" />
  <rect
     height="77.553871"
     id="rect1258"
     style="font-size:12px;fill:#d81c3f;fill-rule:evenodd;stroke:#d81c3f;stroke-width:3.00875449"
     width="9.2030001"
     x="439.50812"
     y="342.48703" />
  <rect
     height="76.182861"
     id="rect1259"
     style="font-size:12px;fill:#d81c3f;fill-rule:evenodd;stroke:#d81c3f;stroke-width:2.98204064"
     width="9.2029991"
     x="420.27533"
     y="342.48666" />
  <path
     d="M 408.34908,337.14103 L 499.42599,336.87056 C 499.42599,336.87056 499.6322,420.50741 499.6322,424.57916 C 499.6322,428.65091 495.37833,425.68131 488.29463,425.68131 C 481.21061,425.68131 446.9559,425.43056 436.83644,425.43056 C 426.71668,425.43056 408.34908,411.17959 408.34908,402.01793 C 408.34908,392.85688 408.34908,338.15889 408.34908,337.14103 L 408.34908,337.14103 L 408.34908,337.14103 L 408.34908,337.14103 z "
     id="path1260"
     sodipodi:nodetypes="ccccccccc"
     style="font-size:12px;fill:none;fill-opacity:1;fill-rule:evenodd;stroke:#d1bf91;stroke-width:4.46576071;stroke-opacity:1" />
  <path
     d="M 410.94604,340.05695 L 496.23256,339.80529 C 496.23256,339.80529 496.42543,417.65697 496.42543,421.44705 C 496.42543,425.23712 492.44204,420.34429 485.80865,420.34429 C 479.17525,420.34429 446.9559,422.23932 437.47962,422.23932 C 428.00333,422.23932 410.94604,408.97407 410.94604,400.44642 C 410.94604,391.91876 410.94604,341.00448 410.94604,340.05695 L 410.94604,340.05695 L 410.94604,340.05695 z "
     id="path1261"
     sodipodi:nodetypes="cccccccc"
     style="fill:none;fill-opacity:1;fill-rule:evenodd;stroke:#7a3f28;stroke-width:1.89514565;stroke-linecap:butt;stroke-linejoin:miter;stroke-dasharray:none;stroke-opacity:1" />
  <path
     d="M 534.43183,400.30118 C 532.5299,400.74356 532.26275,402.26959 533.15003,402.4785 C 534.03732,402.68741 537.15614,402.79747 535.88132,403.90206 C 535.29849,404.389 537.93911,403.68405 537.42967,405.5151 C 537.18586,406.54994 536.8526,406.94685 536.34801,406.43806 L 536.24157,407.22094 C 535.4674,407.19456 535.13262,406.95957 534.61074,406.52478 C 533.38443,405.76767 532.32309,404.00029 531.58379,403.82625 C 530.37083,403.53365 530.24437,402.88662 529.48779,401.46003 C 529.4417,399.79634 530.94274,397.48986 531.11862,397.7012 C 531.82941,398.76726 533.84688,399.14718 534.43183,400.30118 L 534.43183,400.30118 L 534.43183,400.30118 L 534.43183,400.30118 z "
     id="path794"
     sodipodi:nodetypes="ccccccccccccc"
     style="font-size:12px;fill:#d81c3f;fill-rule:evenodd;stroke:#7a3f28;stroke-width:0.40025476" />
  <path
     d="M 535.41888,406.32436 C 536.07267,406.16972 536.1406,406.5842 536.62153,406.60603"
     id="path988"
     style="font-size:12px;fill:#d81c3f;fill-rule:evenodd;stroke:#7a3f28;stroke-width:0.40025476" />
  <path
     d="M 535.16658,406.73308 C 535.78186,405.99478 536.02445,405.07909 536.23914,404.16796"
     id="path987"
     sodipodi:nodetypes="cc"
     style="font-size:12px;fill:#d81c3f;fill-rule:evenodd;stroke:#7a3f28;stroke-width:0.40025476" />
  <path
     d="M 525.8871,382.11248 C 526.95088,381.04914 526.19096,380.44151 527.55857,380.74533 C 527.55857,381.96058 527.25473,382.87201 526.4948,383.47964 C 525.73518,384.08726 525.8871,382.26439 525.8871,382.11248 L 525.8871,382.11248 z "
     id="path795"
     sodipodi:nodetypes="cccc"
     style="font-size:12px;fill:#d81c3f;fill-rule:evenodd;stroke:#7a3f28;stroke-width:0.40025476" />
  <path
     d="M 561.82693,363.64999 C 562.28269,365.62507 562.73847,365.16935 563.65001,365.62507 C 564.56155,366.08079 564.2577,367.29604 564.56155,368.51129 C 564.61522,370.66465 565.29448,374.37347 565.50008,375.56203 C 565.70568,376.25 564.5752,376.62537 564.34716,375.74941 C 564.04332,375.14178 563.95386,375.19546 563.80194,376.10719 C 563.65001,377.01863 562.6578,377.57259 561.57675,377.59048 C 560.99574,377.67112 562.17534,376.39312 560.67431,377.14355 L 560.54907,377.04531 C 559.92348,376.73271 561.21923,376.10719 561.97884,375.04355 C 562.73847,373.98021 563.04231,371.70162 562.43462,370.94209 C 561.82693,370.18255 561.37115,369.27081 561.37115,368.51129 C 561.37115,367.75176 560.45961,367.59985 559.54777,366.84032 C 558.63622,366.08079 558.02852,365.92888 557.72468,366.99222 C 557.42083,368.05556 558.02852,368.8151 557.87661,370.03035 C 557.72468,371.24589 556.50929,370.94209 555.74967,372.00543 C 554.99005,373.06877 551.19165,376.2591 551.19165,376.2591 C 551.19165,376.2591 550.28011,375.80338 550.12819,376.56291 C 549.97626,377.32244 548.38091,378.01951 547.69741,377.8676 L 547.54549,377.17054 L 546.32979,377.17054 C 546.25398,376.63871 546.78556,376.2591 547.39356,375.49926 C 548.00125,374.73973 548.76087,375.04355 549.67242,374.43592 C 550.58396,373.8283 551.4955,372.61305 552.40705,371.24589 C 553.31889,369.87875 553.31889,368.66319 552.86312,368.20747 C 552.40705,367.75176 552.1032,366.68842 552.1032,366.68842 C 552.1032,366.68842 551.03973,366.84032 550.8878,365.92888 C 550.73589,365.01744 545.57018,367.59985 544.81055,368.05556 C 544.05094,368.51129 542.07593,368.66319 542.07593,368.66319 C 542.07593,368.66319 542.5317,373.22068 542.68362,374.13211 C 542.83554,375.04355 543.13939,375.87919 542.07593,375.72728 C 541.924,374.89164 541.16408,375.11965 541.31631,375.95498 C 541.31631,377.17054 540.40447,377.93006 540.40447,377.93006 L 538.42946,377.96585 L 538.42946,376.86672 L 537.58038,377.233 C 537.42846,377.00498 537.59372,376.48681 538.27753,375.80338 C 539.341,374.89164 539.94869,372.30924 539.94869,371.24589 C 539.94869,370.18255 539.341,368.96701 539.341,368.96701 C 539.341,368.96701 535.39098,368.8151 534.93521,368.20747 C 534.47944,367.59985 530.3772,364.86554 529.92142,364.25792 C 529.46565,363.64999 525.81918,360.15615 525.36341,359.39662 C 524.90764,358.63709 523.84417,359.70043 523.08455,359.54852 C 522.32463,359.39662 521.86916,360.91568 520.95732,361.2195 C 520.04578,361.52331 518.83038,361.3714 518.22269,361.06759 C 517.61499,360.76377 517.76692,360.15615 517.0073,359.54852 C 516.24767,358.9409 516.3996,358.63709 517.31114,358.02947 C 518.22269,357.42154 519.13423,355.29485 518.83038,354.83914 C 518.52653,354.38342 518.37461,353.7758 518.83038,353.32008 C 519.28616,352.86436 519.74192,351.49721 519.74192,350.88958 C 519.74192,350.28165 520.1977,349.37022 520.80539,349.37022 C 521.41339,349.37022 524.60379,348.9145 525.36341,349.52213 C 526.12303,350.12975 531.44066,352.25673 533.26375,352.25673 C 535.08713,352.25673 539.94869,351.80102 540.70831,352.10483 C 541.46824,352.40864 549.97626,352.40864 551.19165,352.25673 C 552.40705,352.10483 554.68621,351.19339 556.50929,351.49721 C 558.33237,351.80102 559.24422,352.10483 560.00383,353.16817 C 560.76346,354.23151 561.97884,354.99105 563.19423,355.75057 C 566.53686,357.87756 565.77694,362.28284 561.82693,363.64999 L 561.82693,363.64999 L 561.82693,363.64999 L 561.82693,363.64999 L 561.82693,363.64999 L 561.82693,363.64999 L 561.82693,363.64999 L 561.82693,363.64999 L 561.82693,363.64999 z "
     id="path796"
     sodipodi:nodetypes="cccccccccccccccccccccccccccccccccccccccccccccccccccccccccccccccccc"
     style="font-size:12px;fill:#d81c3f;fill-rule:evenodd;stroke:#7a3f28;stroke-width:0.40025476" />
  <path
     d="M 520.04578,349.37022 C 518.98231,348.30688 519.74192,347.69925 518.37461,348.00306 C 518.37461,349.21831 518.67846,350.12975 519.43807,350.73738 C 520.1977,351.3453 520.04578,349.52213 520.04578,349.37022 L 520.04578,349.37022 z "
     id="path797"
     sodipodi:nodetypes="cccc"
     style="font-size:12px;fill:#d81c3f;fill-rule:evenodd;stroke:#7a3f28;stroke-width:0.40025476" />
  <path
     d="M 561.21923,361.97902 C 563.95386,360.76377 564.10578,357.42154 560.15576,355.59867 C 556.20544,353.7758 561.37115,362.13093 561.21923,361.97902 L 561.21923,361.97902 z "
     id="path798"
     sodipodi:nodetypes="ccc"
     style="font-size:12px;fill:#fce016;fill-rule:evenodd;stroke:#7a3f28;stroke-width:0.40025476" />
  <path
     d="M 539.49292,352.10483 C 538.55288,352.98837 537.67287,354.1642 539.39891,354.83853 C 539.59876,354.91676 539.68972,354.94253 539.66516,355.15599"
     id="path799"
     style="font-size:12px;fill:#d81c3f;fill-rule:evenodd;stroke:#7a3f28;stroke-width:0.40025476" />
  <path
     d="M 556.66122,351.49721 C 556.66122,352.08391 557.98759,353.27824 558.4846,353.66118"
     id="path800"
     style="font-size:12px;fill:#d81c3f;fill-rule:evenodd;stroke:#7a3f28;stroke-width:0.40025476" />
  <path
     d="M 556.50929,354.38342 C 556.50929,355.47708 556.3331,356.2166 556.50777,357.20111 C 556.68608,358.20472 556.66818,359.24077 556.2764,360.12431 C 556.12053,360.20921 556.03411,360.49817 555.87158,360.65189"
     id="path801"
     sodipodi:nodetypes="cccc"
     style="font-size:12px;fill:#d81c3f;fill-rule:evenodd;stroke:#7a3f28;stroke-width:0.40025476" />
  <path
     d="M 533.56759,362.28284 C 533.56759,363.4999 534.7002,364.81824 535.62569,365.57019 C 536.09237,365.9495 536.35317,366.52105 537.03788,366.69721 C 537.15403,366.72723 538.66447,367.67262 538.76575,367.76449 C 539.03928,368.01312 539.00077,368.51917 539.3128,368.82419"
     id="path802"
     sodipodi:nodetypes="ccccc"
     style="font-size:12px;fill:#d81c3f;fill-rule:evenodd;stroke:#7a3f28;stroke-width:0.40025476" />
  <path
     d="M 552.93893,362.35894 C 553.68157,363.1015 554.41056,364.04022 555.26691,364.68453 C 555.93829,365.18936 557.23494,366.35428 558.08493,366.29576"
     id="path803"
     sodipodi:nodetypes="ccc"
     style="font-size:12px;fill:#d81c3f;fill-rule:evenodd;stroke:#7a3f28;stroke-width:0.40025476" />
  <path
     d="M 550.58396,365.78577 C 551.66896,365.78577 552.69483,365.50197 553.74737,365.30913 C 553.93386,365.27517 555.08587,364.70606 555.02675,364.53747"
     id="path804"
     sodipodi:nodetypes="ccc"
     style="font-size:12px;fill:#d81c3f;fill-rule:evenodd;stroke:#7a3f28;stroke-width:0.40025476" />
  <path
     d="M 531.88764,354.77668 C 531.88764,355.49163 532.37889,356.38579 532.20028,357.09984 C 532.02167,357.81449 531.74754,358.30994 531.74481,359.05036 C 531.74239,359.73106 530.9297,361.80256 530.66618,362.46991 C 530.55581,362.75038 530.74805,363.06965 530.83509,363.35831"
     id="path805"
     sodipodi:nodetypes="ccccc"
     style="font-size:12px;fill:#d81c3f;fill-rule:evenodd;stroke:#7a3f28;stroke-width:0.40025476" />
  <path
     d="M 526.57879,357.26993 C 526.57879,358.22625 525.2403,358.85449 524.47976,359.1583"
     id="path806"
     sodipodi:nodetypes="cc"
     style="font-size:12px;fill:#d81c3f;fill-rule:evenodd;stroke:#7a3f28;stroke-width:0.40025476" />
  <path
     d="M 525.05956,353.62389 C 524.09192,355.55864 521.6572,353.49018 521.71936,355.30031 C 521.72937,355.59988 523.59369,355.74694 523.5473,354.67025"
     id="path807"
     style="font-size:12px;fill:#d81c3f;fill-rule:evenodd;stroke:#7a3f28;stroke-width:0.40025476" />
  <path
     d="M 523.08455,355.29485 C 523.08455,355.98495 522.2379,355.92097 521.84642,356.52041"
     id="path808"
     style="font-size:12px;fill:#d81c3f;fill-rule:evenodd;stroke:#7a3f28;stroke-width:0.40025476" />
  <path
     d="M 520.80539,350.73738 C 521.24539,350.9575 522.06232,350.65854 522.39922,350.88958 C 522.57359,351.00904 522.88987,351.3932 522.95628,351.19248"
     id="path809"
     style="font-size:12px;fill:#d81c3f;fill-rule:evenodd;stroke:#7a3f28;stroke-width:0.40025476" />
  <path
     d="M 518.83038,354.83914 C 519.25492,354.83914 519.80712,354.83914 519.79409,354.83914"
     id="path810"
     style="font-size:12px;fill:#d81c3f;fill-rule:evenodd;stroke:#7a3f28;stroke-width:0.40025476" />
  <path
     d="M 520.95732,361.06759 C 522.25125,361.06759 521.6202,358.8272 521.71421,358.62709"
     id="path811"
     style="font-size:12px;fill:#d81c3f;fill-rule:evenodd;stroke:#7a3f28;stroke-width:0.40025476" />
  <path
     d="M 519.28616,358.789 C 518.95896,359.44331 517.57102,359.83566 519.3183,360.16252 C 519.41078,360.17981 519.8147,359.6589 519.74284,359.54125"
     id="path812"
     style="font-size:12px;fill:#d81c3f;fill-rule:evenodd;stroke:#7a3f28;stroke-width:0.40025476" />
  <path
     d="M 542.07593,368.51129 L 541.924,362.58665"
     id="path813"
     style="font-size:12px;fill:#d81c3f;fill-rule:evenodd;stroke:#7a3f28;stroke-width:0.40025476" />
  <path
     d="M 561.0673,361.97902 C 558.63622,362.43474 554.53428,362.13093 552.7109,360.61187 C 550.8878,359.09281 548.15318,356.05439 546.02594,356.5101 C 543.89901,356.96582 541.31631,356.81392 542.37978,357.57375 C 543.44324,358.33327 544.96248,359.09281 545.87402,358.789 C 546.78556,358.48518 540.86054,358.33327 542.83554,359.09281 C 544.81055,359.85234 546.32979,360.15615 547.08971,359.70043 C 547.84933,359.24472 548.45703,358.9409 549.97626,360.15615 C 551.4955,361.3714 554.07851,363.34618 555.59775,363.49839 C 557.11698,363.64999 561.675,363.49839 561.675,363.49839 L 562.05011,363.49839"
     id="path814"
     sodipodi:nodetypes="ccccccccccc"
     style="font-size:12px;fill:#d81c3f;fill-rule:evenodd;stroke:#7a3f28;stroke-width:0.40025476" />
  <path
     d="M 542.22785,357.26993 C 543.81198,358.06191 545.11258,357.60195 546.66124,357.40274"
     id="path815"
     style="font-size:12px;fill:#d81c3f;fill-rule:evenodd;stroke:#7a3f28;stroke-width:0.40025476" />
  <path
     d="M 529.88776,351.79829 C 530.64738,355.74814 527.94611,360.45997 527.18649,360.76377 C 526.42688,361.06759 525.81918,360.00425 525.81918,360.00425 C 525.81918,360.00425 525.81918,361.2195 526.12303,361.82712 C 526.42688,362.43474 525.21149,364.25792 525.21149,365.01744 C 525.21149,365.77697 528.70603,365.77697 528.40189,365.01744 C 528.09834,364.56173 527.64226,362.89046 527.64226,362.73855 C 527.94611,361.97902 532.9599,359.14162 531.7445,352.00174 C 531.28874,352.15365 530.52911,351.44294 529.7695,351.44294 L 529.7695,351.44294 L 529.88776,351.79829 L 529.88776,351.79829 z "
     id="path816"
     sodipodi:nodetypes="ccccccccccc"
     style="font-size:12px;fill:#0072c6;fill-rule:evenodd;stroke:#7a3f28;stroke-width:0.40025476" />
  <path
     d="M 561.37115,375.91951 C 562.0307,376.04443 562.99379,376.10719 563.65334,376.10719"
     id="path817"
     sodipodi:nodetypes="cc"
     style="font-size:12px;fill:#d81c3f;fill-rule:evenodd;stroke:#7a3f28;stroke-width:0.40025476" />
  <path
     d="M 547.39356,376.86672 C 547.54912,376.99315 548.05766,376.08415 548.28297,376.17147"
     id="path818"
     sodipodi:nodetypes="cc"
     style="font-size:12px;fill:#d81c3f;fill-rule:evenodd;stroke:#7a3f28;stroke-width:0.40025476" />
  <path
     d="M 547.39356,375.65117 C 547.63615,375.65117 550.46176,376.16298 550.37957,376.29154"
     id="path819"
     sodipodi:nodetypes="cc"
     style="font-size:12px;fill:#d81c3f;fill-rule:evenodd;stroke:#7a3f28;stroke-width:0.40025476" />
  <path
     d="M 538.27753,376.10719 C 539.49292,376.71451 540.30834,376.53683 541.17106,375.64329"
     id="path820"
     style="font-size:12px;fill:#d81c3f;fill-rule:evenodd;stroke:#7a3f28;stroke-width:0.40025476" />
  <path
     d="M 526.19914,362.28284 L 527.56645,362.66275"
     id="path821"
     style="font-size:12px;fill:#d81c3f;fill-rule:evenodd;stroke:#7a3f28;stroke-width:0.40025476" />
  <path
     d="M 147.27085 169.07578 A 1.0438004 1.8978195 0 1 1  145.18325,169.07578 A 1.0438004 1.8978195 0 1 1  147.27085 169.07578 z"
     id="path822"
     sodipodi:cx="146.22705"
     sodipodi:cy="169.07578"
     sodipodi:rx="1.0438004"
     sodipodi:ry="1.8978195"
     sodipodi:type="arc"
     style="font-size:12px;fill:#d81c3f;fill-rule:evenodd;stroke:#7a3f28;stroke-width:1"
     transform="matrix(0.400278,0,0,0.400232,468.3893,297.9556)" />
  <path
     d="M 522.32463,354.61143 C 522.55267,355.14295 522.78707,355.37764 522.78707,355.37764"
     id="path823"
     sodipodi:nodetypes="cc"
     style="font-size:12px;fill:none;fill-rule:evenodd;stroke:#7a3f28;stroke-width:0.40025476" />
  <path
     d="M 534.27566,367.79572 C 532.37373,368.2381 532.10658,369.76413 532.99386,369.97304 C 533.88114,370.18194 536.99998,370.29201 535.72515,371.39659 C 535.14232,371.88353 537.78294,371.17858 537.2735,373.00964 C 537.0297,374.04448 536.69643,374.44138 536.19184,373.9326 L 536.08541,374.71547 C 535.31123,374.6891 534.97645,374.45411 534.45457,374.01932 C 533.22826,373.26221 532.16692,371.49483 531.42762,371.32079 C 530.21466,371.02819 530.0882,370.38116 529.33161,368.95457 C 529.28553,367.29088 530.78656,364.9844 530.96245,365.19573 C 531.67325,366.2618 533.6907,366.64172 534.27566,367.79572 L 534.27566,367.79572 L 534.27566,367.79572 L 534.27566,367.79572 z "
     id="path824"
     sodipodi:nodetypes="ccccccccccccc"
     style="font-size:12px;fill:#d81c3f;fill-rule:evenodd;stroke:#7a3f28;stroke-width:0.40025476" />
  <path
     d="M 535.26271,373.8189 C 535.9165,373.66426 535.98443,374.07874 536.46537,374.10057"
     id="path825"
     style="font-size:12px;fill:#d81c3f;fill-rule:evenodd;stroke:#7a3f28;stroke-width:0.40025476" />
  <path
     d="M 535.01042,374.22762 C 535.62569,373.48932 535.86828,372.57363 536.08298,371.6625"
     id="path826"
     sodipodi:nodetypes="cc"
     style="font-size:12px;fill:#d81c3f;fill-rule:evenodd;stroke:#7a3f28;stroke-width:0.40025476" />
  <path
     d="M 525.73094,349.60703 C 526.79471,348.54368 526.03479,347.93605 527.4024,348.23987 C 527.4024,349.45512 527.09855,350.36655 526.33863,350.97417 C 525.57901,351.5818 525.73094,349.75892 525.73094,349.60703 L 525.73094,349.60703 z "
     id="path827"
     sodipodi:nodetypes="cccc"
     style="font-size:12px;fill:#d81c3f;fill-rule:evenodd;stroke:#7a3f28;stroke-width:0.40025476" />
  <text
     id="text844"
     sodipodi:linespacing="100%"
     space="default"
     style="font-size:20.5145607px;font-style:normal;font-weight:normal;line-height:100%;writing-mode:lr-tb;text-anchor:start;fill:#7a3f28;fill-opacity:1;stroke:none;stroke-width:1pt;stroke-linecap:butt;stroke-linejoin:miter;stroke-opacity:1;font-family:Times New Roman"
     transform="scale(0.967079,1.034042)"
     x="482.28476"
     y="444.20578">
    <tspan
       id="tspan857"
       sodipodi:role="line"
       x="482.28476"
       y="444.20578">VNITA</tspan>
  </text>
  <text
     id="text847"
     sodipodi:linespacing="100%"
     space="default"
     style="font-size:20.1410408px;font-style:normal;font-weight:normal;line-height:100%;writing-mode:lr-tb;text-anchor:start;fill:#7a3f28;fill-opacity:1;stroke:none;stroke-width:1pt;stroke-linecap:butt;stroke-linejoin:miter;stroke-opacity:1;font-family:Times New Roman"
     transform="matrix(0.939506,-0.137177,0.152202,1.042166,0,0)"
     x="484.26755"
     y="503.21106">
    <tspan
       id="tspan855"
       sodipodi:role="line"
       x="484.26755"
       y="503.21106">FORTIOR</tspan>
  </text>
  <text
     id="text850"
     sodipodi:linespacing="100%"
     space="default"
     style="font-size:20.29248428px;font-style:normal;font-weight:normal;line-height:100%;writing-mode:lr-tb;text-anchor:start;fill:#7a3f28;fill-opacity:1;stroke:none;stroke-width:1pt;stroke-linecap:butt;stroke-linejoin:miter;stroke-opacity:1;font-family:Times New Roman"
     transform="matrix(0.920245,0.234522,-0.260103,1.02038,0,0)"
     x="515.09534"
     y="315.22775">
    <tspan
       id="tspan853"
       sodipodi:role="line"
       x="515.09534"
       y="315.22775">VIRTVS</tspan>
  </text>
</svg>
