<?xml version="1.0" encoding="UTF-8" standalone="no"?>
<!-- Created with Sodipodi ("http://www.sodipodi.com/") -->
<svg
   xmlns:dc="http://purl.org/dc/elements/1.1/"
   xmlns:cc="http://web.resource.org/cc/"
   xmlns:rdf="http://www.w3.org/1999/02/22-rdf-syntax-ns#"
   xmlns:svg="http://www.w3.org/2000/svg"
   xmlns="http://www.w3.org/2000/svg"
   xmlns:sodipodi="http://inkscape.sourceforge.net/DTD/sodipodi-0.dtd"
   xmlns:inkscape="http://www.inkscape.org/namespaces/inkscape"
   id="svg761"
   sodipodi:version="0.32"
   width="744.09448px"
   height="496.06299px"
   sodipodi:docbase="/home/daniel/expflags"
   sodipodi:docname="arab.svg"
   inkscape:version="0.42"
   inkscape:export-filename="/Users/daniel/Desktop/arab.png"
   inkscape:export-xdpi="16.860001"
   inkscape:export-ydpi="16.860001">
  <metadata
     id="metadata42">
    <rdf:RDF>
      <cc:Work
         rdf:about="">
        <dc:format>image/svg+xml</dc:format>
        <dc:type
           rdf:resource="http://purl.org/dc/dcmitype/StillImage" />
      </cc:Work>
    </rdf:RDF>
  </metadata>
  <defs
     id="defs763" />
  <sodipodi:namedview
     id="base"
     inkscape:zoom="0.69346032"
     inkscape:cx="372.04724"
     inkscape:cy="248.03149"
     inkscape:window-width="753"
     inkscape:window-height="513"
     inkscape:window-x="40"
     inkscape:window-y="62"
     inkscape:current-layer="svg761" />
  <rect
     style="font-size:12;fill:#007f3f;fill-rule:evenodd;stroke-width:1pt;stroke:none;stroke-opacity:1;fill-opacity:1.0000000"
     id="rect681"
     width="744.094482"
     height="496.062988"
     x="0.000000"
     y="-0.000076"
     transform="translate(0.000000,6.103516e-5)" />
  <g
     id="g1338"
     transform="matrix(1.334320,0.000000,0.000000,1.334320,-122.9424,-86.04443)">
    <path
       sodipodi:nodetypes="cccccccccccccccccccccccccccccccccccccccc"
       id="path766"
       d="M 104.22997,184.13138 C 102.96970,201.13401 101.45709,231.05479 115.90398,234.12403 C 133.37757,235.80391 123.74288,204.54951 130.06771,198.88196 C 131.26342,196.08120 133.46853,196.06653 133.65045,199.59939 C 133.65045,208.43595 133.65045,217.27398 133.65045,226.11054 C 133.49053,234.73143 139.15808,237.27104 143.56096,239.05214 C 148.14282,238.69857 151.20180,238.85115 152.99757,243.30977 C 153.71354,258.59586 154.43097,273.88195 155.14693,289.16804 C 155.14693,289.16804 165.77340,292.20942 166.27956,263.37433 C 166.78719,246.44358 162.89781,232.27104 165.17774,228.97732 C 165.25843,225.74082 169.39135,225.54716 172.25814,227.12433 C 176.82533,230.34616 178.86025,234.32503 185.95825,232.73319 C 196.75931,229.75784 203.25138,224.50402 203.41130,216.21030 C 202.78043,208.32885 201.89722,200.44593 198.48173,192.56447 C 198.95854,191.13108 196.39692,187.41776 196.87228,185.98437 C 198.81330,189.02427 201.76664,188.77193 202.43859,185.98437 C 200.60027,179.92656 197.74816,174.12257 193.12374,171.61084 C 189.30186,168.24376 183.70913,168.93185 181.66101,175.95356 C 180.71177,184.04481 184.57768,193.65749 190.46970,201.49493 C 191.72116,204.55684 193.47879,209.64487 192.70561,214.22674 C 189.57034,216.01518 186.43507,215.26987 183.80890,212.49698 C 183.80890,212.49698 175.21148,206.04892 175.21148,204.61553 C 177.49288,190.00872 175.71764,188.35233 174.45297,184.29863 C 173.56976,178.70297 170.91424,176.90867 168.76342,173.08678 C 166.61260,170.80685 163.70327,170.80685 162.31242,173.08678 C 158.51254,179.67422 160.28484,193.81594 163.02985,200.14957 C 165.01342,205.97556 168.04452,209.63167 166.61260,209.63167 C 165.43302,212.92392 162.99464,212.16394 161.22087,208.36406 C 158.68860,200.51048 158.18097,188.79247 158.18097,183.51518 C 157.42099,176.97322 156.58619,163.01929 152.28015,159.47322 C 149.65397,155.89634 145.76019,157.64077 144.40016,160.90515 C 144.11700,167.39869 144.08766,173.89077 144.81829,179.87521 C 147.77164,190.37111 148.69887,199.59939 150.13226,210.34763 C 150.52985,224.74463 141.80773,216.59469 142.20679,209.45708 C 144.21823,200.18625 143.69593,185.59411 141.90896,181.89546 C 140.49171,178.19681 138.81917,177.28425 135.37287,177.89311 C 132.63666,177.72586 125.59588,185.41365 123.61964,198.16600 C 123.61964,198.16600 121.93390,204.72997 121.21501,210.55743 C 120.24817,217.14340 115.91278,221.79129 112.87287,209.63167 C 110.24523,200.79364 108.62992,179.03601 104.22997,184.13138 z "
       style="fill:#ffffff;fill-opacity:1.0000000;fill-rule:evenodd;stroke:none;stroke-width:1.0000000pt;stroke-linecap:butt;stroke-linejoin:round;stroke-opacity:1.0000000" />
    <path
       sodipodi:nodetypes="cccc"
       id="path767"
       d="M 151.71236,253.88636 C 136.29276,261.42450 121.37933,268.45648 106.21061,275.74081 C 106.76519,265.42685 127.84353,246.80889 142.21853,246.54628 C 151.57445,246.80743 149.22410,250.17157 151.71236,253.88636 z "
       style="fill:#ffffff;fill-opacity:1.0000000;fill-rule:evenodd;stroke:none;stroke-width:1.0000000pt;stroke-linecap:butt;stroke-linejoin:miter;stroke-opacity:1.0000000" />
    <path
       sodipodi:nodetypes="cccccccccccccccccccccccccccccccccc"
       id="path768"
       d="M 143.76342,268.14398 C 119.78308,329.95883 199.91805,338.57238 208.87345,270.67626 C 209.71705,267.89017 213.09587,265.10261 213.68712,269.66247 C 211.82826,331.13840 151.70209,335.36229 141.48496,316.02250 C 138.95268,311.46411 138.19124,301.33060 137.93742,295.24932 C 136.41747,283.17479 130.08531,287.81828 129.07152,299.80918 C 128.05773,306.48025 128.31154,308.34058 128.31154,314.75783 C 131.52017,363.31416 208.96001,342.45589 221.54070,302.34439 C 228.21177,280.13342 220.44182,263.75285 224.07298,263.83501 C 231.75784,272.11259 242.48113,264.93389 244.84616,262.06271 C 245.85995,260.62638 248.39516,259.69915 250.16746,261.55654 C 256.16218,265.86552 266.72115,263.83501 268.91452,256.23524 C 270.18213,248.80420 271.19592,241.11934 271.44973,233.18360 C 266.54950,234.70502 262.91981,235.71588 262.58236,237.74346 C 262.24346,239.93976 261.90748,242.13313 261.56857,244.32943 C 261.14751,246.44211 256.92215,246.52427 256.75490,243.82180 C 254.89751,235.37697 247.21265,234.27955 242.56769,247.37081 C 239.44270,249.90308 233.78542,250.41071 233.19270,246.61083 C 233.95267,237.82855 230.40514,236.64457 223.31300,240.78337 C 221.03307,223.38753 218.75461,206.75168 216.47321,189.35585 C 219.42949,189.27075 222.13342,191.46559 224.83589,188.08824 C 221.87668,178.88490 215.62961,160.05274 212.16570,158.70151 C 210.47703,156.67539 209.03924,157.94153 206.84587,158.44769 C 203.13108,159.63020 199.66717,162.83883 200.76459,169.08883 C 205.15573,195.77310 208.02838,216.12521 212.41952,242.81095 C 213.09440,245.93595 210.47703,250.07034 207.09968,249.64927 C 201.35731,245.76429 199.92539,237.91218 190.12639,238.24815 C 183.03278,238.33325 174.92392,246.01811 173.91307,253.45208 C 172.73055,259.36024 172.30655,265.77749 173.91013,270.93008 C 178.89546,276.92479 184.89018,276.33647 190.12639,274.98377 C 194.43243,273.21147 197.97850,268.90396 199.49992,269.91628 C 200.51371,271.18389 199.75080,285.36816 179.23143,296.26311 C 166.81800,301.83676 156.93683,303.10437 151.61993,292.96939 C 148.32621,286.63577 151.87228,262.56887 143.76342,268.14398 z "
       style="fill:#ffffff;fill-opacity:1.0000000;fill-rule:evenodd;stroke:none;stroke-width:1.0000000pt;stroke-linecap:butt;stroke-linejoin:miter;stroke-opacity:1.0000000" />
    <path
       sodipodi:nodetypes="cccccccccc"
       id="path769"
       d="M 245.47996,205.31095 C 250.29363,203.53718 273.09733,177.44417 273.09733,177.44417 C 271.91335,176.43038 270.85701,175.67040 269.67450,174.65661 C 268.40689,173.55919 268.53453,172.46178 269.67450,171.36289 C 275.33178,168.07064 273.51693,160.84939 270.56212,157.55714 C 265.66335,155.36084 261.39839,156.07827 258.27339,157.68332 C 254.30478,161.48320 253.37755,167.56301 256.50255,171.36289 C 259.54393,172.79922 262.58236,175.88167 260.55478,177.57034 C 251.22526,187.53513 225.67949,204.71970 228.63577,205.31095 C 229.26664,206.15602 244.97526,206.11347 245.47996,205.31095 z "
       style="fill:#ffffff;fill-opacity:1.0000000;fill-rule:evenodd;stroke:none;stroke-width:1.0000000pt;stroke-linecap:butt;stroke-linejoin:miter;stroke-opacity:1.0000000" />
    <path
       sodipodi:nodetypes="ccccccsc"
       id="path770"
       d="M 107.77751,297.65249 C 99.225573,311.27632 98.481735,331.62989 103.20004,337.69797 C 105.70738,340.56475 109.82710,341.82062 112.87434,340.92273 C 118.24699,338.59292 120.59881,327.70677 119.32387,323.72496 C 117.53103,320.91833 116.11818,320.47379 114.32827,322.86082 C 110.54746,330.53688 108.97763,325.27133 108.64605,320.98142 C 108.06653,312.84615 108.83238,305.35349 109.71560,299.42039 C 110.65603,293.33911 109.69946,295.19797 107.77751,297.65249 z "
       style="fill:#ffffff;fill-opacity:1.0000000;fill-rule:evenodd;stroke:none;stroke-width:1.0000000pt;stroke-linecap:butt;stroke-linejoin:miter;stroke-opacity:1.0000000" />
    <path
       sodipodi:nodetypes="csccccsccc"
       id="path771"
       d="M 473.21615,275.83618 C 464.94737,258.03835 453.50077,240.45033 449.85787,233.69416 C 446.21644,226.93507 418.72085,187.03190 414.67302,182.54393 C 405.74109,171.92921 429.17712,186.96442 411.70794,165.89047 C 405.04714,160.17598 404.65981,159.82827 399.13165,155.16571 C 396.34262,153.18654 389.53364,149.57152 388.32766,155.56330 C 387.72173,160.84646 388.04890,163.71178 388.93652,168.11025 C 389.61727,171.04306 393.88957,175.95503 395.99051,178.80127 C 423.88663,216.29833 448.62254,254.16658 472.47671,301.77808 C 476.24285,299.98817 475.41978,278.81446 473.21615,275.83618 z "
       style="fill:#ffffff;fill-opacity:1.0000000;fill-rule:evenodd;stroke:none;stroke-width:1.0000000pt;stroke-linecap:butt;stroke-linejoin:miter;stroke-opacity:1.0000000" />
    <path
       sodipodi:nodetypes="ccccccccccccc"
       id="path793"
       d="M 436.92213,335.38429 C 435.29655,337.20941 440.93622,345.01604 448.26603,345.00871 C 460.52395,343.58558 471.31474,336.70032 481.30593,318.57532 C 483.97759,314.34850 488.67389,305.30801 488.81180,298.29510 C 489.74637,257.17861 486.75341,225.18478 480.59291,195.46794 C 480.19825,192.57328 480.43886,189.17099 480.92888,188.30244 C 481.72260,187.35467 484.41479,188.30684 485.84232,185.96530 C 487.93739,183.82621 480.27894,166.10761 475.91274,159.28249 C 474.36198,156.23525 473.82207,154.20033 471.25605,159.64047 C 468.55652,164.06242 466.74314,171.77809 466.95588,178.98760 C 472.80388,219.47321 474.59965,254.89135 478.42154,295.37843 C 478.73258,299.29422 478.15746,304.98377 475.55476,307.25196 C 465.92741,317.30478 452.03217,329.67860 436.92213,335.38429 z "
       style="fill:#ffffff;fill-opacity:1.0000000;fill-rule:evenodd;stroke:none;stroke-width:1.0000000pt;stroke-linecap:butt;stroke-linejoin:miter;stroke-opacity:1.0000000" />
    <path
       sodipodi:nodetypes="ccccccccccccsc"
       id="path794"
       d="M 602.51191,335.16716 C 593.71496,340.25225 593.70469,346.10172 600.81736,346.31299 C 613.07529,344.88987 627.55885,343.87168 637.55005,328.78805 C 640.22317,324.56123 643.39805,313.13078 643.53596,306.11787 C 644.47053,265.00138 642.99899,234.31183 636.83849,204.59499 C 636.44383,201.70033 635.16302,195.03806 635.65304,194.16952 C 636.44676,192.13460 640.44324,194.39106 641.87076,192.04951 C 643.96583,189.91042 631.52599,173.93038 627.15979,167.10526 C 625.60903,164.05802 625.06912,162.02310 622.50310,167.46324 C 619.80357,171.88519 618.86020,179.81800 619.94148,186.81037 C 626.44089,230.77310 631.27951,263.80126 632.27716,302.76693 C 631.71818,306.46558 631.57881,308.45941 629.84465,313.11904 C 626.00809,318.03688 621.75780,324.18565 617.77159,327.15806 C 613.78685,330.12901 605.28479,332.96499 602.51191,335.16716 z "
       style="fill:#ffffff;fill-opacity:1.0000000;fill-rule:evenodd;stroke:none;stroke-width:1.0000000pt;stroke-linecap:butt;stroke-linejoin:miter;stroke-opacity:1.0000000" />
    <path
       sodipodi:nodetypes="cssscccccccc"
       id="path795"
       d="M 609.10522,295.75695 C 609.00398,285.47526 609.25046,276.59762 608.91155,268.92890 C 608.57411,261.26018 607.21848,255.01605 604.56443,249.57298 C 602.05269,243.73671 603.61226,239.04628 602.43268,232.83002 C 601.25457,226.61523 601.54506,217.30772 599.76396,209.93243 C 599.27540,207.05244 597.77893,197.82856 598.24107,196.94387 C 598.96731,194.88548 601.73286,197.00843 603.08409,194.62287 C 605.10727,192.41776 596.06678,169.02574 591.48051,162.34587 C 589.83145,159.35145 586.83703,160.37698 583.14424,165.24640 C 579.71995,168.45063 580.99049,175.75843 582.29771,182.71119 C 591.09319,228.61201 597.65422,270.15690 596.22229,313.85114 C 595.78362,317.56593 609.19618,302.76986 609.10522,295.75695 z "
       style="fill:#ffffff;fill-opacity:1.0000000;fill-rule:evenodd;stroke:none;stroke-width:1.0000000pt;stroke-linecap:butt;stroke-linejoin:miter;stroke-opacity:1.0000000" />
    <path
       sodipodi:nodetypes="cccccccccscc"
       id="path796"
       d="M 544.11256,238.82034 C 538.57999,238.71910 526.99255,228.05449 523.61080,221.80596 C 522.33292,218.22175 523.15305,214.72556 524.27981,212.67744 C 526.32794,211.34528 529.47934,209.84880 531.83556,211.28366 C 531.83556,211.28366 534.27835,214.70209 533.80593,215.13636 C 536.82676,216.58296 538.10904,215.75109 538.41567,214.52163 C 538.62107,212.37081 537.52218,211.08853 537.51045,208.71911 C 538.79126,202.29305 546.13574,201.29393 548.90129,205.39164 C 550.92594,207.89018 551.66831,213.19827 551.97494,216.78249 C 551.94266,218.61347 548.97758,216.46559 547.29331,216.90573 C 545.60757,217.34733 545.20264,219.29129 545.07207,221.05039 C 544.76690,225.71001 544.21526,233.18654 544.11256,238.82034 z "
       style="fill:#ffffff;fill-opacity:1.0000000;fill-rule:evenodd;stroke:none;stroke-width:1.0000000pt;stroke-linecap:butt;stroke-linejoin:miter;stroke-opacity:0.52830201" />
    <path
       sodipodi:nodetypes="cscccccscc"
       id="path797"
       d="M 442.01897,307.15513 C 443.54332,293.18506 441.45559,268.30537 441.31621,260.06153 C 440.75723,240.58677 437.57648,202.97234 436.06239,196.68859 C 434.35611,184.84294 440.93475,197.98848 440.02366,191.10321 C 437.89044,179.27369 431.32941,171.25579 423.61668,160.42099 C 421.12988,156.89693 421.21351,156.17803 417.37401,161.28513 C 413.12519,170.92422 416.79303,177.55421 417.89045,185.06007 C 423.45236,209.51723 426.69766,232.02163 428.20881,254.26781 C 429.71996,276.51546 430.18358,300.56769 428.80447,323.99785 C 432.97260,324.16217 439.67448,317.25490 442.01897,307.15513 z "
       style="fill:#ffffff;fill-opacity:1.0000000;fill-rule:evenodd;stroke:none;stroke-width:1.0000000pt;stroke-linecap:butt;stroke-linejoin:miter;stroke-opacity:1.0000000" />
    <path
       sodipodi:nodetypes="csccccsccc"
       id="path798"
       d="M 627.93444,284.77837 C 618.17945,268.40954 603.45821,250.68213 599.52482,244.09029 C 595.59289,237.49698 562.32999,194.58032 558.09143,190.27281 C 545.92300,177.48965 563.67242,188.19241 555.76162,178.31858 C 549.07148,170.97263 547.12019,168.66630 541.39396,164.24875 C 538.52277,162.39282 536.78275,158.84969 535.83938,164.88842 C 535.46379,170.19358 535.07207,176.33061 535.42858,180.80244 C 535.40804,183.28777 537.99607,187.95767 540.21878,190.71001 C 569.72142,226.95708 601.90011,263.96852 627.80533,310.49580 C 631.49078,308.54304 630.26572,287.65836 627.93444,284.77837 z "
       style="fill:#ffffff;fill-opacity:1.0000000;fill-rule:evenodd;stroke:none;stroke-width:1.0000000pt;stroke-linecap:butt;stroke-linejoin:miter;stroke-opacity:1.0000000" />
    <path
       sodipodi:nodetypes="cccccc"
       id="path799"
       d="M 185.32738,254.57738 C 184.62463,255.80831 183.06213,257.40308 183.58589,259.05361 C 184.68184,260.53835 185.55626,260.83911 187.38137,260.91981 C 188.96441,260.91981 191.17685,261.29393 191.65221,260.35936 C 192.50461,259.42039 193.15309,257.50431 192.44299,255.69534 C 190.79393,251.57415 186.18859,253.11024 185.32738,254.57738 z "
       style="fill:#007f3f;fill-opacity:1.0000000;fill-rule:evenodd;stroke:none;stroke-width:1.0000000pt;stroke-linecap:butt;stroke-linejoin:round;stroke-opacity:1.0000000" />
    <path
       sodipodi:nodetypes="cccccccccccccccccccccccccccccccccccccccc"
       id="path801"
       d="M 279.21235,170.12169 C 270.33031,195.50755 284.30038,223.27603 293.98641,220.57210 C 300.97438,223.46529 305.42420,210.17157 308.28512,195.60731 C 310.24228,191.51987 311.72115,191.08413 312.72614,193.18507 C 312.46792,212.55273 314.11698,216.84264 319.09644,222.72145 C 330.20413,231.29100 339.39280,223.81594 340.11317,223.09411 C 340.83353,222.37374 348.76193,214.44534 348.76193,214.44534 C 350.68682,212.42069 353.24990,212.30185 355.96850,214.08589 C 358.61082,216.48759 358.23963,220.63665 363.89691,223.51371 C 368.65776,225.41805 378.83675,223.95385 381.19444,219.85174 C 384.36786,214.41306 385.12930,212.54540 386.59937,210.48261 C 388.86463,207.46764 392.72613,208.80860 392.72613,209.76077 C 392.36521,211.44211 390.09849,213.12492 391.64485,216.15309 C 394.33851,218.17333 394.96058,216.87345 396.55389,216.42451 C 402.18916,213.73084 406.42038,201.47292 406.42038,201.47292 C 406.66979,196.91306 404.11404,197.29012 402.45618,198.22909 C 400.29362,199.55098 400.15277,199.97351 397.99021,201.29540 C 395.23493,201.70473 389.89016,203.53132 387.24784,199.43947 C 384.54978,194.52017 384.51310,187.65690 382.45031,182.69505 C 382.45031,182.33413 378.87050,174.87962 382.20236,174.40280 C 383.88370,174.71530 387.47085,175.66453 388.04156,172.64370 C 389.80506,169.69916 384.26516,161.36143 380.47408,157.14781 C 377.18329,153.53572 372.62343,153.09998 368.22202,156.78836 C 365.13957,159.62434 365.58265,162.79335 364.97819,165.79658 C 364.19327,169.24581 364.36052,173.48877 367.86111,178.04863 C 370.93769,184.11524 376.55096,191.92774 374.70823,202.91365 C 374.70823,202.91365 371.42918,208.10585 365.71616,207.42656 C 363.33499,206.90720 359.47349,205.89634 357.41070,190.66160 C 355.84967,179.12991 357.77895,162.99581 352.88458,155.43126 C 351.11669,150.86407 349.82561,146.45386 345.51810,154.26489 C 344.36052,157.33267 339.39280,161.98789 342.99609,171.56242 C 345.94356,177.63343 347.14368,187.51312 345.80565,198.50491 C 343.76340,201.62844 343.31006,202.68624 340.63253,205.80978 C 336.87080,209.85467 332.78922,208.82181 329.66276,207.31212 C 326.74169,205.34323 324.45442,204.32504 323.12080,198.07063 C 323.36141,188.10145 323.91745,171.78249 322.09527,168.32005 C 319.40894,162.95767 314.97819,164.89722 313.08559,166.51694 C 303.99228,174.83120 299.49991,188.85996 296.75490,200.03073 C 294.23289,208.17187 291.54950,205.83912 289.66276,202.55420 C 285.06916,198.24963 284.75812,164.58766 279.21235,170.12169 z "
       style="fill:#ffffff;fill-opacity:1.0000000;fill-rule:evenodd;stroke:none;stroke-width:1.0000000pt;stroke-linecap:butt;stroke-linejoin:miter;stroke-opacity:1.0000000" />
    <path
       sodipodi:nodetypes="ccccccccccccsccccccccccccccccccccccccccccccc"
       id="path802"
       d="M 305.95384,225.30801 C 309.98700,222.45150 308.10173,220.45473 314.13312,226.48466 C 321.68447,239.39545 326.53776,256.11494 327.26546,270.92861 C 326.94709,274.57884 329.52044,276.88958 330.69709,276.09586 C 331.39691,267.52632 352.23611,255.58530 371.34556,253.83941 C 374.26809,253.20414 372.84644,247.60408 373.32326,244.74757 C 372.17742,234.13871 379.28423,224.48055 389.24608,223.71030 C 402.80389,225.71441 407.31680,232.95326 407.54567,244.00226 C 406.08147,265.21411 383.98493,268.81006 371.57003,270.50167 C 369.66569,271.22204 368.87197,272.10085 371.57003,273.13958 L 423.58880,273.37579 L 426.24285,274.90895 C 426.56122,276.14868 425.48434,275.11435 423.43035,278.49610 C 421.37783,281.87784 418.34966,289.67567 418.19268,294.88254 C 402.69385,299.86640 386.66392,302.04950 370.37138,304.01986 C 364.71117,306.88224 361.90600,310.69680 363.06798,314.98964 C 364.97232,319.75049 377.51046,324.50695 377.51046,324.73289 C 379.89162,326.22643 382.70853,329.71088 376.83705,336.85143 C 351.46293,335.73494 331.80037,324.93682 324.99286,309.69621 C 322.94181,308.10583 320.73230,309.68741 319.31651,311.74727 C 309.41041,324.51722 299.66276,336.01810 282.77309,342.12285 C 272.70120,344.63899 262.39017,340.57796 257.52074,333.98171 C 254.26077,330.22731 254.38548,326.08265 253.18829,325.18477 C 247.74522,327.59234 200.89957,347.49697 206.83706,338.22467 C 218.23818,326.02250 237.97556,317.05830 255.40660,305.01458 C 256.66394,300.97996 258.95120,287.32825 265.83647,282.88283 C 266.23407,282.91658 264.74492,290.89926 264.89457,294.26634 C 264.97233,297.03043 264.69211,298.11317 265.29657,297.40161 C 266.47321,296.65190 287.62344,280.03219 289.25783,274.93536 C 291.32062,272.01282 289.87696,264.61112 289.87696,264.38665 C 285.90983,254.16365 280.34645,253.29510 278.28365,248.21588 C 276.42626,241.46852 277.26693,233.76605 281.12403,231.61963 C 284.54832,228.51077 288.60496,228.89516 292.34615,232.29305 C 296.61845,236.11934 300.41247,243.59733 301.50988,249.16805 C 300.77632,251.37169 295.92010,247.70385 294.23436,248.79686 C 297.21704,251.88518 298.60936,255.44739 299.68623,259.80625 C 302.44151,271.47438 301.60085,276.01077 298.82796,283.55625 C 289.43682,303.30096 277.43565,309.19298 266.93536,316.50666 C 266.65513,316.60642 266.46881,321.51693 270.41834,324.17244 C 271.77984,325.60143 277.25666,326.33500 283.69739,324.27221 C 296.14163,317.48524 309.06123,304.98377 315.47408,291.05625 C 317.33588,280.52074 314.75372,269.34997 312.01458,259.60819 C 307.88752,250.08647 303.02690,236.49199 303.02690,236.26752 C 302.86698,230.33002 303.34967,228.27016 305.95384,225.30801 z "
       style="fill:#ffffff;fill-opacity:1.0000000;fill-rule:evenodd;stroke:none;stroke-width:1.0000000pt;stroke-linecap:butt;stroke-linejoin:miter;stroke-opacity:1.0000000" />
    <path
       sodipodi:nodetypes="ccccccccccccccccc"
       id="path803"
       d="M 169.76401,170.39605 C 175.75139,173.25110 187.00725,172.03631 186.53190,162.38255 C 186.53190,161.52868 186.31477,158.63989 186.22967,157.85790 C 185.00755,155.01166 181.67275,155.71442 180.91717,158.65309 C 180.67950,159.61553 181.34118,161.18243 180.46970,161.66659 C 179.96940,162.17128 178.05626,161.87492 178.13548,159.20767 C 178.13548,158.35820 177.50902,157.44417 177.13196,156.90573 C 176.75344,156.65779 176.51283,156.58883 175.82768,156.58883 C 174.99288,156.62258 175.00608,156.83971 174.54834,157.54100 C 174.35467,158.25550 174.08619,158.95385 174.08619,159.76371 C 173.98202,160.71295 173.62404,161.05186 172.92568,161.19124 C 172.14517,161.19124 172.32122,161.27780 171.68889,160.87434 C 171.31330,160.46354 170.84382,160.30655 170.84382,159.60526 C 170.84382,158.87903 170.67950,157.70386 170.46089,157.22410 C 170.12932,156.78690 169.59675,156.58443 168.99669,156.43038 C 165.72645,156.44212 165.50051,160.17158 165.68830,161.58736 C 165.44329,161.85438 165.30391,168.54452 169.76401,170.39605 z "
       style="font-size:12.000000px;fill:#ffffff;fill-opacity:1.0000000;fill-rule:evenodd;stroke:none;stroke-width:0.95599098pt" />
    <path
       sodipodi:nodetypes="ccccccccccccccccc"
       id="path804"
       d="M 345.27015,244.68301 C 351.25753,247.53806 365.50929,245.89487 362.03805,236.66952 C 362.03805,235.81564 361.82091,232.92685 361.73582,232.14487 C 360.51369,229.29862 357.17889,230.00138 356.42332,232.94006 C 356.18564,233.90250 356.84732,235.46940 355.97584,235.95355 C 355.47555,236.45825 353.56240,236.16189 353.64163,233.49463 C 353.64163,232.64516 353.01516,231.73114 352.63811,231.19270 C 352.25958,230.94475 352.01897,230.87580 351.33382,230.87580 C 350.49902,230.90954 350.51223,231.12668 350.05448,231.82797 C 349.86082,232.54246 349.59233,233.24082 349.59233,234.05068 C 349.48817,234.99992 349.13018,235.33882 348.43183,235.47820 C 347.65131,235.47820 347.82737,235.56476 347.19503,235.16130 C 346.81944,234.75050 346.34996,234.59352 346.34996,233.89223 C 346.34996,233.16600 346.18564,231.99082 345.96704,231.51107 C 345.63547,231.07386 345.10290,230.87139 344.50284,230.71735 C 341.23259,230.72908 341.00665,234.45854 341.19445,235.87433 C 340.94943,236.14135 340.81006,242.83149 345.27015,244.68301 z "
       style="font-size:12.000000px;fill:#ffffff;fill-opacity:1.0000000;fill-rule:evenodd;stroke:none;stroke-width:0.95599098pt" />
    <path
       sodipodi:nodetypes="ccccccccccccccccc"
       id="path805"
       d="M 447.61169,213.93624 C 453.59907,216.79129 464.85494,215.57650 464.37959,205.92275 C 464.37959,205.06887 464.16245,202.18008 464.07736,201.39810 C 462.85523,198.55186 459.52043,199.25461 458.76486,202.19329 C 458.52718,203.15573 459.18886,204.72263 458.31738,205.20678 C 457.81709,205.71148 455.90394,205.41512 455.98317,202.74786 C 455.98317,201.89839 455.35670,200.98437 454.97964,200.44593 C 454.60112,200.19798 454.36051,200.12903 453.67536,200.12903 C 452.84056,200.16277 452.85376,200.37991 452.39602,201.08120 C 452.20236,201.79569 451.93387,202.49405 451.93387,203.30391 C 451.82970,204.25315 451.47172,204.59205 450.77337,204.73143 C 449.99285,204.73143 450.16891,204.81799 449.53657,204.41453 C 449.16098,204.00373 448.69150,203.84675 448.69150,203.14546 C 448.69150,202.41923 448.52718,201.24405 448.30858,200.76430 C 447.97700,200.32709 447.44443,200.12463 446.84438,199.97058 C 443.57413,199.98231 443.34819,203.71177 443.53598,205.12756 C 443.29097,205.39458 443.15159,212.08472 447.61169,213.93624 z "
       style="font-size:12.000000px;fill:#ffffff;fill-opacity:1.0000000;fill-rule:evenodd;stroke:none;stroke-width:0.95599098pt" />
    <path
       sodipodi:nodetypes="cccccccccccccccccccccccccccc"
       id="path806"
       d="M 500.61784,291.15601 C 490.18357,302.91511 494.78451,322.36493 497.14073,326.55507 C 500.58117,333.43741 503.35112,337.85202 510.04566,341.25577 C 516.14308,345.74374 520.89366,342.93858 523.51250,339.79597 C 529.64806,333.43741 529.72142,317.20355 532.60141,313.98612 C 534.62166,308.07649 539.70822,309.08588 542.17741,311.70472 C 544.57030,315.14515 547.38867,317.36346 550.90393,319.23553 C 556.62723,324.28394 563.46115,325.20677 570.19383,320.60583 C 574.79477,318.02514 577.78626,314.69034 580.47993,308.07062 C 583.47288,300.06593 581.80475,263.08383 581.20616,241.16482 C 580.97582,239.44534 575.25839,211.02251 575.25839,210.70561 C 575.25839,210.38724 574.50281,196.20004 573.87341,192.81976 C 573.76338,191.44798 573.42300,191.05332 574.86079,191.22791 C 576.38515,192.51019 576.59348,192.59088 577.54565,193.01342 C 579.08468,193.29511 580.46232,190.67627 579.53362,188.26577 C 574.77277,179.48496 570.01191,170.70268 565.25105,161.92187 C 564.10522,160.79364 562.62488,159.55391 560.80710,162.24024 C 559.07001,163.76313 557.21995,166.51988 557.27717,170.06301 C 557.69970,176.30567 558.79712,182.65837 559.21966,188.90103 C 561.12400,199.58619 563.02981,210.27281 564.93415,220.95796 C 566.73286,243.81007 567.18327,262.51165 568.98198,285.36376 C 568.72963,295.03952 565.72200,303.47555 562.90070,304.69328 C 562.90070,304.69328 558.60786,307.18154 555.72934,304.43359 C 553.63574,303.59292 545.25546,290.46793 545.25546,290.46793 C 540.97142,286.54040 538.14718,287.66276 535.09847,290.46793 C 526.69179,298.58559 522.88750,313.77191 517.17447,324.24580 C 515.70147,326.58295 511.53774,328.58412 506.92506,324.07561 C 495.20998,308.07062 502.07618,285.30067 500.61784,291.15601 z "
       style="fill:#ffffff;fill-opacity:1.0000000;fill-rule:evenodd;stroke:none;stroke-width:1.0000000pt;stroke-linecap:butt;stroke-linejoin:miter;stroke-opacity:1.0000000" />
    <path
       sodipodi:nodetypes="cccccc"
       id="path807"
       d="M 450.29801,157.88138 C 455.66186,160.12610 459.44561,170.99171 458.21175,176.29687 C 457.14367,182.85937 454.29889,189.94710 452.25371,189.02427 C 450.03100,188.19974 453.76926,182.50139 451.63311,176.52134 C 450.44619,172.62903 443.12665,165.51782 443.89690,163.42128 C 442.38575,159.02868 447.00869,157.10673 450.29801,157.88138 z "
       style="fill:#ffffff;fill-opacity:1.0000000;fill-rule:evenodd;stroke:none;stroke-width:1.2500000;stroke-linecap:butt;stroke-linejoin:round;stroke-dasharray:none;stroke-opacity:1.0000000" />
    <path
       sodipodi:nodetypes="csccccccc"
       id="path808"
       d="M 517.88750,297.60112 C 519.01573,284.55388 517.11139,276.59760 516.77248,268.92888 C 516.43504,261.26016 508.09877,202.74638 506.40863,196.94385 C 504.36931,185.97261 514.51162,195.47232 513.40393,189.09174 C 509.89455,181.04744 501.16215,169.33382 498.42007,162.34585 C 496.77101,159.35143 497.46350,156.68858 493.77072,161.55800 C 490.34643,172.75372 489.15805,181.90424 490.46526,188.85700 C 499.26074,234.75782 508.28070,272.92243 506.84877,316.61667 C 511.01984,316.64455 515.82764,307.07295 517.88750,297.60112 z "
       style="fill:#ffffff;fill-opacity:1.0000000;fill-rule:evenodd;stroke:none;stroke-width:1.0000000pt;stroke-linecap:butt;stroke-linejoin:miter;stroke-opacity:1.0000000" />
    <path
       sodipodi:nodetypes="cccccc"
       id="path809"
       d="M 609.53509,176.37316 C 614.42505,178.80420 617.28890,192.42069 616.74899,196.31007 C 615.77628,203.41541 613.18239,211.08853 611.31766,210.08941 C 609.29154,209.19739 611.72405,199.55244 610.75134,196.55362 C 609.67006,192.34000 602.99753,184.64047 603.69882,182.37081 C 602.32118,177.61582 606.53626,175.53543 609.53509,176.37316 z "
       style="fill:#ffffff;fill-opacity:1.0000000;fill-rule:evenodd;stroke:none;stroke-width:1.2500000;stroke-linecap:butt;stroke-linejoin:round;stroke-dasharray:none;stroke-opacity:1.0000000" />
    <path
       sodipodi:nodetypes="cccccc"
       id="path810"
       d="M 246.10936,272.92685 C 250.78659,274.71235 253.52867,284.71822 253.01224,287.57767 C 252.07914,292.79774 249.59674,298.43594 247.81564,297.70237 C 245.87609,297.04656 248.20443,289.95883 247.27280,287.75519 C 246.87814,282.41042 240.38606,279.64340 240.52251,277.33412 C 239.31065,273.08970 243.23818,272.30918 246.10936,272.92685 z "
       style="fill:#ffffff;fill-opacity:1.0000000;fill-rule:evenodd;stroke:none;stroke-width:1.2500000;stroke-linecap:butt;stroke-linejoin:round;stroke-dasharray:none;stroke-opacity:1.0000000" />
    <path
       sodipodi:nodetypes="ccccccc"
       id="path811"
       d="M 359.12138,287.94445 C 365.15864,288.32737 368.17508,293.06476 362.52073,295.05126 C 356.94268,296.96147 351.58177,298.45355 351.55683,306.51399 C 353.61962,317.74639 348.72672,313.89222 345.80859,312.36640 C 342.36962,309.89721 332.71880,303.95237 331.34409,291.11493 C 331.13723,288.05155 333.52573,285.47379 337.37109,285.49140 C 343.16334,287.06564 351.70941,287.18007 359.12138,287.94445 z "
       style="fill:#007f3f;fill-opacity:1.0000000;fill-rule:evenodd;stroke:none;stroke-width:1.0000000pt;stroke-linecap:butt;stroke-linejoin:miter;stroke-opacity:1.0000000" />
    <path
       sodipodi:nodetypes="cccccc"
       id="path812"
       d="M 121.08737,154.64341 C 127.98877,156.72381 128.39664,166.86759 127.88754,169.83267 C 126.96765,175.24493 124.52340,181.09000 122.76724,180.32856 C 120.85703,179.64928 122.69241,172.30186 121.77545,170.01606 C 120.75286,166.80597 114.92099,160.94182 115.58267,159.21354 C 114.28426,155.58971 118.25873,154.00374 121.08737,154.64341 z "
       style="fill:#ffffff;fill-opacity:1.0000000;fill-rule:evenodd;stroke:none;stroke-width:1.2500000;stroke-linecap:butt;stroke-linejoin:round;stroke-dasharray:none;stroke-opacity:1.0000000" />
    <path
       sodipodi:nodetypes="cccccccc"
       id="path813"
       d="M 257.37990,202.46911 C 252.08501,205.33296 250.03102,213.87022 253.32767,218.84088 C 256.40719,223.21881 261.27074,221.59616 261.91922,221.59616 C 267.10701,222.24463 270.18506,211.87052 270.18506,211.87052 C 270.18506,211.87052 270.34791,208.95385 264.18741,214.46588 C 261.59498,214.95150 261.27074,213.97879 260.62227,212.51899 C 260.08236,209.81799 260.18947,207.11700 261.43213,204.41453 C 262.35056,201.82210 260.35085,200.68654 257.37990,202.46911 z "
       style="fill:#ffffff;fill-opacity:1.0000000;fill-rule:evenodd;stroke:none;stroke-width:1.0000000pt;stroke-linecap:butt;stroke-linejoin:miter;stroke-opacity:1.0000000" />
    <path
       sodipodi:nodetypes="cccccccc"
       id="path814"
       d="M 297.09380,150.72322 C 294.43242,152.50726 289.13606,157.99435 288.97467,164.31624 C 288.81329,167.88284 288.14868,167.87257 290.48436,170.14223 C 292.17156,172.57475 293.87344,172.35614 297.27866,170.57210 C 299.23436,169.13138 299.89603,168.17480 300.55478,165.75843 C 301.36610,161.70620 296.27074,167.68038 295.62227,163.17040 C 294.48817,158.98320 297.75988,157.26958 300.83940,153.21735 C 300.94210,150.44153 300.88195,148.47557 297.09380,150.72322 z "
       style="fill:#ffffff;fill-opacity:1.0000000;fill-rule:evenodd;stroke:none;stroke-width:1.0000000pt;stroke-linecap:butt;stroke-linejoin:miter;stroke-opacity:1.0000000" />
    <path
       sodipodi:nodetypes="ccccc"
       id="path815"
       d="M 329.09204,156.40691 C 327.94474,158.94065 326.57003,172.17568 326.79891,172.17568 C 325.88341,176.11935 330.92596,177.80655 333.21909,172.73760 C 336.65659,163.44476 336.65659,159.50256 336.88693,155.56037 C 335.81592,149.55538 331.76663,149.74318 329.09204,156.40691 z "
       style="fill:#ffffff;fill-opacity:1.0000000;fill-rule:evenodd;stroke:none;stroke-width:1.0000000pt;stroke-linecap:butt;stroke-linejoin:miter;stroke-opacity:1.0000000" />
    <path
       sodipodi:nodetypes="ccccc"
       id="path816"
       d="M 530.82324,259.05948 C 531.51133,258.37139 559.25047,238.65749 559.25047,238.65749 C 562.07764,237.66423 561.46584,248.82034 560.16743,248.74405 C 560.70146,250.95942 532.81121,269.91042 530.82324,269.14604 C 529.44853,270.13929 528.07236,261.50519 530.82324,259.05948 z "
       style="fill:#ffffff;fill-opacity:1.0000000;fill-rule:evenodd;stroke:none;stroke-width:1.0000000pt;stroke-linecap:butt;stroke-linejoin:miter;stroke-opacity:0.40880498" />
    <path
       sodipodi:nodetypes="cccccc"
       id="path817"
       d="M 556.12107,258.89956 C 561.01103,261.33060 562.95792,275.63518 562.41801,279.52456 C 562.59114,287.08911 557.70557,293.15719 555.84084,292.15807 C 553.81473,291.26605 556.01837,282.76693 555.04566,279.76810 C 553.96438,275.55449 549.81238,267.62609 550.51367,265.35643 C 549.13603,260.60144 553.12224,258.06183 556.12107,258.89956 z "
       style="fill:#ffffff;fill-opacity:1.0000000;fill-rule:evenodd;stroke:none;stroke-width:1.2500000;stroke-linecap:butt;stroke-linejoin:round;stroke-dasharray:none;stroke-opacity:1.0000000" />
    <path
       sodipodi:nodetypes="ccccccccccccc"
       id="path818"
       d="M 391.12108,320.49727 C 393.05037,317.67743 399.00987,313.61933 399.14485,313.61933 C 401.89426,312.24316 404.58059,314.69768 404.41774,314.53629 C 404.87548,317.28717 402.67771,319.84732 403.36580,323.51663 C 403.96733,324.99550 404.40747,326.63723 407.11727,326.01076 C 411.52161,322.54539 415.60171,322.32238 420.00606,322.10085 C 423.38194,322.30478 423.51545,328.01927 421.38076,328.06182 C 413.24843,329.82972 409.60406,332.00695 403.79714,334.22379 C 401.04626,335.82737 398.68564,333.79245 398.68564,333.56358 C 398.68564,333.33471 397.07619,332.00255 398.20001,328.35818 C 398.39954,325.43565 397.22290,323.83353 394.78892,324.16511 C 392.95500,325.15689 391.33969,325.81417 390.42273,323.70589 C 390.06181,322.14926 389.94444,321.39222 391.12108,320.49727 z "
       style="fill:#ffffff;fill-opacity:1.0000000;fill-rule:evenodd;stroke:none;stroke-width:1.0000000pt;stroke-linecap:butt;stroke-linejoin:miter;stroke-opacity:1.0000000" />
    <path
       sodipodi:nodetypes="ccccccccccccc"
       id="path819"
       d="M 585.30387,328.20120 C 586.49225,329.71381 587.26103,331.11346 585.20850,333.59879 C 583.26308,335.38136 581.89278,336.36287 579.94736,338.14544 C 579.02893,339.71235 578.44207,342.08911 581.25164,342.84615 C 586.43943,344.30448 598.43474,336.52426 598.43474,336.36141 C 600.38016,334.90307 599.73168,332.14779 599.56883,332.14779 C 598.43474,330.85084 595.87898,331.62109 594.15950,331.41129 C 593.34084,331.41129 590.65598,331.00489 591.93386,328.62813 C 593.00046,327.14926 593.38192,326.24404 594.10522,324.42185 C 594.91508,322.63928 594.21965,321.44944 591.30152,320.47673 C 588.32910,319.93682 587.14219,320.20677 583.84554,320.47673 C 582.06297,320.85525 581.45410,321.65190 581.12987,323.81299 C 581.25751,327.09057 583.25135,326.90425 585.30387,328.20120 z "
       style="fill:#ffffff;fill-opacity:1.0000000;fill-rule:evenodd;stroke:none;stroke-width:1.0000000pt;stroke-linecap:butt;stroke-linejoin:miter;stroke-opacity:1.0000000" />
    <path
       transform="matrix(1.269998,0.734569,-0.440742,0.762000,-16.43169,-173.2500)"
       sodipodi:ry="3.1250150"
       sodipodi:rx="3.4375150"
       sodipodi:cy="181.37419"
       sodipodi:cx="381.25159"
       d="M 384.68910 181.37419 A 3.4375150 3.1250150 0 1 1  377.81407,181.37419 A 3.4375150 3.1250150 0 1 1  384.68910 181.37419 z"
       id="path820"
       style="fill:#007f3f;fill-opacity:1.0000000;fill-rule:evenodd;stroke:none;stroke-width:1.0000000pt;stroke-linecap:butt;stroke-linejoin:miter;stroke-opacity:1.0000000"
       sodipodi:type="arc" />
    <path
       transform="matrix(0.464762,1.020497,-0.834947,0.204497,238.2219,-258.3030)"
       sodipodi:ry="3.1250150"
       sodipodi:rx="3.4375150"
       sodipodi:cy="181.37419"
       sodipodi:cx="381.25159"
       d="M 384.68910 181.37419 A 3.4375150 3.1250150 0 1 1  377.81407,181.37419 A 3.4375150 3.1250150 0 1 1  384.68910 181.37419 z"
       id="path821"
       style="fill:#007f3f;fill-opacity:1.0000000;fill-rule:evenodd;stroke:none;stroke-width:1.0000000pt;stroke-linecap:butt;stroke-linejoin:miter;stroke-opacity:1.0000000"
       sodipodi:type="arc" />
    <path
       sodipodi:nodetypes="ccccccc"
       id="path822"
       d="M 468.20200,363.29900 C 477.26200,363.74100 485.77400,363.40200 494.83400,363.84400 C 496.47500,365.23900 495.30300,368.66500 494.20900,368.41900 C 491.26300,368.34500 489.56600,368.27200 486.62000,368.19800 C 486.51900,365.31200 479.15400,365.78600 479.36600,368.29000 C 475.38900,368.76800 471.80200,368.15100 467.82500,368.00400 C 466.64900,366.54000 466.80000,363.90400 468.20200,363.29900 z "
       style="fill:#007f3f;fill-opacity:1.0000000;fill-rule:evenodd;stroke:none;stroke-width:1.0000000pt;stroke-linecap:butt;stroke-linejoin:miter;stroke-opacity:1.0000000" />
  </g>
</svg>
