<?xml version="1.0" encoding="UTF-8" standalone="no"?>
<svg
   xmlns:dc="http://purl.org/dc/elements/1.1/"
   xmlns:cc="http://web.resource.org/cc/"
   xmlns:rdf="http://www.w3.org/1999/02/22-rdf-syntax-ns#"
   xmlns:svg="http://www.w3.org/2000/svg"
   xmlns="http://www.w3.org/2000/svg"
   xmlns:sodipodi="http://inkscape.sourceforge.net/DTD/sodipodi-0.dtd"
   xmlns:inkscape="http://www.inkscape.org/namespaces/inkscape"
   version="1.0"
   width="585.00000px"
   height="390.00000px"
   viewBox="0 0 468 323"
   preserveAspectRatio="xMidYMid meet"
   id="svg18299"
   sodipodi:version="0.32"
   inkscape:version="0.42.2"
   sodipodi:docname="assyria.svg"
   sodipodi:docbase="/home/jdorje/src/freeciv/freeciv/data/flags"
   inkscape:export-filename="/Users/daniel/Desktop/assyr.png"
   inkscape:export-xdpi="16.860001"
   inkscape:export-ydpi="16.860001">
  <defs
     id="defs18320" />
  <sodipodi:namedview
     inkscape:window-height="920"
     inkscape:window-width="1280"
     inkscape:pageshadow="2"
     inkscape:pageopacity="0.0"
     borderopacity="1.0"
     bordercolor="#666666"
     pagecolor="#ffffff"
     id="base"
     inkscape:zoom="1.5891989"
     inkscape:cx="364.27598"
     inkscape:cy="154.08454"
     inkscape:window-x="0"
     inkscape:window-y="27"
     inkscape:current-layer="svg18299" />
  <metadata
     id="metadata18301">
Created by potrace 1.7, written by Peter Selinger 2001-2005
<rdf:RDF>
  <cc:Work
     rdf:about="">
    <dc:format>image/svg+xml</dc:format>
    <dc:type
       rdf:resource="http://purl.org/dc/dcmitype/StillImage" />
    <dc:title>Assyria flag</dc:title>
    <dc:date>9/22/2005</dc:date>
    <dc:creator>
      <cc:Agent>
        <dc:title>Daniel Markstedt &lt;himasaram@spray.se&gt;</dc:title>
      </cc:Agent>
    </dc:creator>
    <dc:rights>
      <cc:Agent>
        <dc:title></dc:title>
      </cc:Agent>
    </dc:rights>
    <cc:license
       rdf:resource="http://creativecommons.org/licenses/GPL/2.0/" />
    <dc:publisher>
      <cc:Agent>
        <dc:title>Freeciv</dc:title>
      </cc:Agent>
    </dc:publisher>
    <dc:description>Generated using potrace from a public domain image, then hand-edited.  See PR#14078.</dc:description>
  </cc:Work>
  <cc:License
     rdf:about="http://creativecommons.org/licenses/GPL/2.0/">
    <cc:permits
       rdf:resource="http://web.resource.org/cc/Reproduction" />
    <cc:permits
       rdf:resource="http://web.resource.org/cc/Distribution" />
    <cc:requires
       rdf:resource="http://web.resource.org/cc/Notice" />
    <cc:permits
       rdf:resource="http://web.resource.org/cc/DerivativeWorks" />
    <cc:requires
       rdf:resource="http://web.resource.org/cc/ShareAlike" />
    <cc:requires
       rdf:resource="http://web.resource.org/cc/SourceCode" />
  </cc:License>
</rdf:RDF>
</metadata>
  <rect
     style="fill:#ffffff;fill-opacity:1.0000000;stroke:none;stroke-width:0.0000000;stroke-miterlimit:4.0000000;stroke-dasharray:none;stroke-opacity:1.0000000"
     id="rect1315"
     width="484.50000"
     height="323.00000"
     x="-8.2500000"
     y="3.8146970e-06" />
  <path
     style="fill:#000077;stroke:none;fill-opacity:1.0000000"
     d="M 219.08538,174.51703 C 213.17379,176.98019 196.80648,186.78725 195.08227,189.74304 C 193.60438,192.45252 187.44648,197.87147 181.53489,201.31990 C 175.86962,205.01464 168.48014,211.17254 165.27804,215.35991 C 161.82961,219.30096 152.96224,225.45886 145.57276,228.66097 C 137.19801,232.35571 126.60642,239.99151 118.72431,248.11994 C 109.61062,257.47994 102.96009,261.91363 95.324292,263.88416 C 78.328488,268.07153 70.939008,272.99785 55.667416,289.99366 C 40.888456,306.49683 33.469899,317.88294 18.198307,320.59241 C -1.7532899,324.28715 2.7094760,323.00000 33.991608,323.00000 C 65.520056,323.00000 66.065951,325.69621 68.775427,319.53831 C 74.440695,307.22251 93.353764,286.79155 107.14746,281.12628 C 118.23168,276.69259 122.66537,272.75154 133.01064,258.95784 C 142.61696,246.14941 147.78960,241.46940 156.16434,238.26730 C 164.53909,235.06519 168.97278,231.12413 174.88436,222.01044 C 179.07173,215.60622 185.47595,208.95569 189.41700,207.23148 C 193.11174,205.75358 198.77701,200.08832 201.73280,194.91568 C 204.68860,189.49673 216.01826,180.60744 219.71300,178.63691"
     id="path18305"
     sodipodi:nodetypes="cccccccccsccsscccc" />
  <path
     style="fill:#ff0000;stroke:none;fill-opacity:1.0000000"
     d="M 220.54135,146.21173 C 216.84661,143.74857 204.19596,133.82931 200.99386,128.65668 C 197.54543,123.48404 192.37280,118.55772 189.17069,117.57246 C 185.96858,116.83351 180.05700,110.67561 175.37699,103.77876 C 170.69699,96.635596 164.53909,90.231380 160.59803,88.753484 C 147.54328,84.073480 143.84854,81.117688 135.72012,69.294520 C 125.12853,53.776612 118.97063,48.357660 108.37904,44.909236 C 96.309556,40.968180 83.501124,29.883960 72.909536,13.873420 L 63.795844,0.32604000 L 32.513712,0.32604000 C 4.4336880,0.57235600 3.2221059,-2.1771158 5.9115840,2.5228861 C 8.6210600,4.4934141 13.054748,7.7155200 15.764224,7.7155200 C 26.602128,7.9618360 41.627404,17.568160 60.593736,36.780808 C 73.155852,49.589240 82.762176,57.225036 87.442180,58.210300 C 101.72851,61.166092 115.27589,69.048204 123.15800,78.900844 C 128.57695,85.551376 135.96643,90.724012 146.55802,95.157700 C 155.67171,99.098756 164.29277,104.76402 167.24856,108.95140 C 170.20436,112.89245 177.34752,119.05035 183.01279,122.49878 C 188.67806,126.19352 195.82122,132.10510 199.02333,136.04616 C 202.22544,139.98721 213.15187,146.95068 215.12240,146.95068"
     id="path19069"
     sodipodi:nodetypes="ccccccccccccccccccsc" />
  <path
     style="fill:#000077;stroke:none;fill-opacity:1.0000000"
     id="path18307"
     d="M 97.627664,1.1315178 C 97.627664,7.0431018 106.40851,17.814476 117.73905,23.479744 C 131.53274,30.622908 140.40012,39.736600 147.54328,53.776612 C 150.25276,59.441880 157.64224,68.062940 163.55382,72.989260 C 169.46541,77.915580 176.60857,86.290324 179.31805,91.709276 C 184.24437,101.80823 200.47844,121.53542 218.70582,140.00912 C 226.83425,148.38387 222.15425,138.77754 218.21319,131.14175 C 214.02582,123.50595 205.67386,111.41456 202.96438,108.21245 C 200.00859,105.01034 194.58964,95.650332 190.89490,87.521904 C 187.44648,79.147160 181.28858,70.033468 177.34752,67.323992 C 172.91383,63.875568 168.23383,55.993456 163.80014,44.909236 C 158.38119,30.376592 154.93276,25.696588 141.63170,14.119736 C 124.45611,-1.8775370 130.71400,0.026461223 112.32010,0.32604000 C 102.71504,0.48247616 95.830191,-1.3849050 97.627664,1.1315178 z "
     sodipodi:nodetypes="cccsccccccccsc" />
  <path
     style="fill:#000077;stroke:none;fill-opacity:1.0000000"
     id="path18309"
     d="M 325.87607,14.612368 C 313.80658,25.696588 309.37290,31.854488 305.18552,43.431340 C 302.22973,51.313452 295.82552,61.905040 291.14551,66.831360 C 286.46551,71.511364 279.56866,82.349268 275.87392,90.477696 C 271.93286,98.852440 267.74549,106.48824 266.26760,107.47350 C 264.78970,108.21245 260.60233,114.86298 257.15390,121.75983 C 253.45916,128.90299 247.95081,139.76281 245.73396,141.97965 C 243.76343,144.44281 244.34547,143.18932 245.57705,143.18932 C 247.05495,143.18932 250.41397,142.47228 254.35502,137.54596 C 258.04976,132.61964 267.00654,120.52825 272.67181,114.86298 C 278.33708,108.95140 285.23393,99.591388 288.18972,93.926120 C 291.14551,88.260852 299.02762,78.408212 305.92447,72.003996 C 312.82132,65.846096 320.94975,55.500824 324.15186,48.850292 C 329.81712,38.012388 346.81293,22.494480 353.46346,22.494480 C 356.91188,22.494480 366.78452,11.829631 370.72557,3.9475193 C 373.68137,-1.4714327 371.93716,0.32604000 356.66557,0.32604000 C 341.39398,-0.92553789 340.90134,0.57235600 325.87607,14.612368 z "
     sodipodi:nodetypes="cccccccsccsccsccc" />
  <path
     style="fill:#ff0000;stroke:none;fill-opacity:1.0000000"
     d="M 254.66883,146.32393 C 259.84147,144.10709 269.96234,137.03142 272.91813,133.09036 C 276.12024,129.14931 282.77077,123.73036 287.69709,121.26720 C 292.86972,118.55772 299.52026,113.13877 302.47605,108.70508 C 305.92447,104.02508 314.54553,98.113492 323.41291,93.926120 C 332.28028,89.985064 342.87187,82.595584 348.53714,76.437684 C 359.86768,64.368200 365.53294,60.919776 381.78980,56.978720 C 390.65718,54.515560 396.32244,50.328188 411.34772,34.810280 C 430.56037,14.612368 439.04164,7.9418381 454.31323,5.2323621 C 473.41935,-1.4581657 465.29092,0.32604000 435.48669,0.32604000 L 405.18982,0.32604000 L 400.50982,8.9471000 C 393.36665,22.001848 371.69084,41.460812 360.11399,44.909236 C 351.73925,47.372396 347.30556,51.313452 336.22134,65.846096 C 327.10765,78.161896 320.45712,84.566112 315.77711,85.551376 C 307.40237,87.521904 301.73710,92.448224 292.62341,105.50297 C 288.68235,111.41456 284.00235,116.09456 282.03182,116.09456 C 280.30761,116.09456 276.12024,119.54298 272.91813,123.73036 C 265.77496,133.33668 254.91515,143.12183 248.01830,147.80183"
     id="path18311"
     sodipodi:nodetypes="ccccccccccccccccscc" />
  <path
     style="fill:#000077;stroke:none;fill-opacity:1.0000000"
     d="M 252.98932,178.09957 C 256.68406,179.82378 264.54338,188.75778 267.00654,193.68410 C 269.71602,198.36410 275.38129,204.52200 279.81498,206.98516 C 284.24866,209.69464 290.89920,216.34517 294.34762,222.01044 C 299.02762,229.39992 304.20026,233.58729 312.57500,237.28203 C 321.93501,240.97677 327.10765,245.65678 335.72871,257.72626 C 345.08872,270.78101 349.76872,274.72206 363.80873,281.61891 C 379.32664,289.25471 394.72475,304.16019 404.82371,321.15599 C 407.04055,324.85073 409.13088,323.89874 437.21090,323.40611 C 470.95619,322.66716 466.44251,325.08378 446.13154,314.94483 C 437.51048,312.72799 430.80668,306.25051 417.50562,292.70313 C 398.29297,272.99785 385.73086,263.88416 378.83401,263.88416 C 370.70558,263.88416 355.18767,254.27784 347.05924,244.42520 C 342.37924,238.51361 334.49713,232.60203 326.61502,229.39992 C 319.71817,226.44413 308.14132,218.80833 301.24447,212.40412 C 270.94760,185.80199 264.54338,180.62935 259.37075,179.15146 C 256.66127,178.16619 252.96653,175.94935 251.24232,173.97882"
     id="path19073"
     sodipodi:nodetypes="cccccccccccsccccc" />
  <path
     style="fill:#ff0000;stroke:none;fill-opacity:1.0000000"
     id="path18315"
     d="M 217.94408,183.40720 C 214.24934,188.33352 201.48649,204.76832 196.31385,210.18727 C 191.38753,215.60622 184.24437,225.45886 180.79594,231.86308 C 177.34752,238.26730 169.46541,247.62730 163.55382,252.55362 C 157.64224,257.72626 150.00644,266.83995 146.80434,273.24417 C 139.90749,287.03786 133.25696,293.44208 118.23168,301.32419 C 112.32010,304.52630 105.17693,310.68420 102.71377,314.87157 L 98.033768,323.00000 L 112.07378,323.00000 C 125.37484,323.00000 124.80895,325.50316 139.83423,312.20209 C 152.39635,301.11787 158.13487,292.70313 162.56856,280.38733 C 165.77067,272.01259 171.68225,261.66732 176.85489,256.74100 C 181.53489,251.81468 188.18542,241.71572 191.38753,234.32624 C 194.83596,226.93676 199.51596,218.56202 201.73280,215.85254 C 205.92018,211.17254 224.08007,179.91319 222.60217,179.91319 C 222.10954,179.91319 221.88513,178.48088 217.94408,183.40720 z "
     sodipodi:nodetypes="ccscscccccccccsc" />
  <path
     style="fill:#ff0000;stroke:none;fill-opacity:1.0000000"
     id="path18317"
     d="M 256.41496,196.39358 C 260.84864,204.27569 266.26760,213.14306 268.73076,215.85254 C 270.94760,218.56202 275.87392,227.18308 279.32234,235.06519 C 282.77077,242.94730 289.17498,252.79994 293.85499,257.23363 C 299.02762,261.91363 304.44658,271.02732 307.89500,280.38733 C 312.57500,293.19576 317.76763,299.91955 330.32975,311.25009 C 345.35503,324.30484 344.84240,323.00000 358.38978,323.00000 L 372.42979,323.00000 L 367.74979,314.87157 C 365.28663,310.68420 358.14346,304.52630 352.23188,301.32419 C 337.20660,293.44208 330.55607,287.03786 323.65922,273.24417 C 320.45712,267.08627 313.06764,257.97258 307.15605,253.04626 C 301.24447,248.11994 293.36236,238.51361 289.42130,231.61676 C 285.72656,224.71992 278.33708,215.11359 273.16444,210.43359 C 267.74549,205.50727 263.55812,200.33463 263.55812,198.85674 C 263.55812,197.13252 252.04964,181.41476 248.10858,177.47370 L 246.62981,178.92793 L 256.41496,196.39358 z "
     sodipodi:nodetypes="ccsccccccccsccsccc" />
  <path
     style="fill:#0099ff;fill-opacity:1.0000000;stroke:none"
     id="path18313"
     d="M 223.06796,177.86786 L 235.05272,228.91927 C 235.05272,228.91927 246.73563,178.19569 246.38160,177.79631 L 223.06796,177.86786 z "
     sodipodi:nodetypes="cccc" />
  <path
     sodipodi:nodetypes="cccc"
     d="M 219.79673,147.99671 L 169.99803,160.55608 C 169.99803,160.55608 219.46179,172.85373 219.85154,172.48212 L 219.79673,147.99671 z "
     id="path18329"
     style="fill:#0099ff;fill-opacity:1.0000000;stroke:none" />
  <path
     style="fill:#0099ff;fill-opacity:1.0000000;stroke:none"
     id="path18331"
     d="M 245.32506,146.31685 L 234.47367,97.266549 C 234.47367,97.266549 222.75353,145.65937 223.08666,146.04687 L 245.32506,146.31685 z "
     sodipodi:nodetypes="cccc" />
  <path
     sodipodi:nodetypes="cccc"
     d="M 249.32321,173.67348 L 295.70240,160.48247 C 295.70240,160.48247 249.31236,148.81393 248.95295,149.19044 L 249.32321,173.67348 z "
     id="path18333"
     style="fill:#0099ff;fill-opacity:1.0000000;stroke:none" />
  <path
     sodipodi:type="arc"
     style="fill:#ff6633;fill-opacity:1.0000000;stroke:none;stroke-width:0.0000000;stroke-linecap:butt;stroke-linejoin:miter;stroke-miterlimit:4.0000000;stroke-dasharray:none;stroke-opacity:1.0000000"
     id="path18335"
     sodipodi:cx="241.70859"
     sodipodi:cy="165.95969"
     sodipodi:rx="14.404146"
     sodipodi:ry="14.404146"
     d="M 227.34458,164.88512 A 14.404146,14.404146 0 1 1 227.34436,164.88801"
     sodipodi:start="3.2162633"
     sodipodi:end="9.4992472"
     sodipodi:open="true"
     transform="matrix(0.995653,0.000000,0.000000,0.995653,-6.592345,-4.011086)" />
</svg>
