<?xml version="1.0" encoding="UTF-8" standalone="no"?>
<svg
   xmlns:dc="http://purl.org/dc/elements/1.1/"
   xmlns:cc="http://creativecommons.org/ns#"
   xmlns:rdf="http://www.w3.org/1999/02/22-rdf-syntax-ns#"
   xmlns:svg="http://www.w3.org/2000/svg"
   xmlns="http://www.w3.org/2000/svg"
   xmlns:sodipodi="http://sodipodi.sourceforge.net/DTD/sodipodi-0.dtd"
   xmlns:inkscape="http://www.inkscape.org/namespaces/inkscape"
   version="1"
   x="0.00000000"
   y="0.00000000"
   width="749.99994pt"
   height="499.99686pt"
   id="svg1"
   sodipodi:version="0.32"
   inkscape:version="1.0.2 (e86c870879, 2021-01-15)"
   sodipodi:docname="australia.svg">
  <metadata
     id="metadata3668">
    <rdf:RDF>
      <cc:Work
         rdf:about="">
        <dc:format>image/svg+xml</dc:format>
        <dc:type
           rdf:resource="http://purl.org/dc/dcmitype/StillImage" />
      </cc:Work>
    </rdf:RDF>
  </metadata>
  <sodipodi:namedview
     inkscape:window-height="703"
     inkscape:window-width="872"
     inkscape:pageshadow="2"
     inkscape:pageopacity="0.0"
     borderopacity="1.0"
     bordercolor="#666666"
     pagecolor="#ffffff"
     id="base"
     inkscape:zoom="0.42921382"
     inkscape:cx="497.61162"
     inkscape:cy="312.61485"
     inkscape:window-x="506"
     inkscape:window-y="118"
     inkscape:current-layer="svg1"
     inkscape:document-rotation="0"
     showgrid="false"
     inkscape:window-maximized="0" />
  <defs
     id="defs3" />
  <rect
     id="rect124"
     style="font-size:12px;fill:#000066;stroke-width:1pt"
     y="0"
     x="0"
     height="666.66248"
     width="999.99994" />
  <g
     style="font-size:12px"
     id="g584"
     transform="matrix(8.333333,0,0,11.11104,0,3.6621094e-5)">
    <path
       id="path146"
       style="fill:#ffffff;stroke-width:1pt"
       d="M 0,0 V 3.3541 L 53.2918,30 H 60 V 26.6459 L 6.7082,0 Z M 60,0 V 3.35405 L 6.7082,30 H 0 V 26.6458 L 53.2918,0 Z" />
    <path
       id="path136"
       style="fill:#ffffff;stroke-width:1pt"
       d="M 25,0 V 30 H 35 V 0 Z M 0,10 V 20 H 60 V 10 Z" />
    <path
       id="path141"
       style="fill:#cc0000;stroke-width:1pt"
       d="m 0,12 v 6 H 60 V 12 Z M 27,0 v 30 h 6 V 0 Z" />
    <path
       id="path150"
       style="fill:#cc0000;stroke-width:1pt"
       d="M 0,30 20,20 h 4.4721 L 4.47214,30 Z M 0,0 20,10 H 15.5279 L 0,2.23607 Z m 35.5279,10 20,-10 H 60 L 40,10 Z M 60,30 40,20 h 4.4721 L 60,27.7639 Z" />
  </g>
  <polygon
     id="polygon589"
     style="font-size:12px;fill:#ffffff;fill-rule:evenodd;stroke-width:1pt"
     points="37.0365,39.3886 33.8997,44.1099 38.7744,47.0027 33.1273,47.494 33.905,53.1087 30,49 26.095,53.1087 26.8727,47.494 21.2256,47.0027 26.1003,44.1099 22.9635,39.3886 28.2645,41.3961 30,36 31.7355,41.3961 "
     transform="matrix(9.829732,0,0,9.829732,-41.76197,44.618209)" />
  <g
     style="font-size:12px"
     id="g596"
     transform="matrix(8.960134,0,0,8.960134,-54.39111,66.808009)">
    <polygon
       id="polygon590"
       style="fill:#ffffff;fill-rule:evenodd;stroke-width:1pt"
       points="93.3507,47.3279 91.857,49.5761 94.1783,50.9537 91.4892,51.1876 91.8595,53.8613 90,51.9048 88.1405,53.8613 88.5108,51.1876 85.8217,50.9537 88.143,49.5761 86.6493,47.3279 89.1736,48.2839 90,45.7143 90.8264,48.2839 " />
    <polygon
       id="polygon592"
       style="fill:#ffffff;fill-rule:evenodd;stroke-width:1pt"
       points="93.3507,7.3279 91.857,9.57615 94.1783,10.9537 91.4892,11.1876 91.8595,13.8613 90,11.9048 88.1405,13.8613 88.5108,11.1876 85.8217,10.9537 88.143,9.57615 86.6493,7.3279 89.1736,8.28387 90,5.71429 90.8264,8.28387 " />
    <polygon
       id="polygon593"
       style="fill:#ffffff;fill-rule:evenodd;stroke-width:1pt"
       points="78.3507,23.5779 76.857,25.8262 79.1783,27.2037 76.4892,27.4376 76.8595,30.1113 75,28.1548 73.1405,30.1113 73.5108,27.4376 70.8217,27.2037 73.143,25.8262 71.6493,23.5779 74.1736,24.5339 75,21.9643 75.8264,24.5339 " />
    <polygon
       id="polygon594"
       style="fill:#ffffff;fill-rule:evenodd;stroke-width:1pt"
       points="106.684,19.5779 105.19,21.8262 107.512,23.2037 104.823,23.4376 105.193,26.1113 103.333,24.1548 101.474,26.1113 101.844,23.4376 99.1551,23.2037 101.476,21.8262 99.9826,19.5779 102.507,20.5339 103.333,17.9643 104.16,20.5339 " />
    <polygon
       id="polygon595"
       style="fill:#ffffff;fill-rule:evenodd;stroke-width:1pt"
       points="98.3776,31.7275 97.0567,32.8434 97.4695,34.5225 96,33.6111 94.5305,34.5225 94.9433,32.8434 93.6224,31.7275 95.3469,31.6011 96,30 96.6531,31.6011 " />
  </g>
</svg>
