<?xml version="1.0" encoding="UTF-8" standalone="no"?>
<!DOCTYPE svg PUBLIC "-//W3C//DTD SVG 20010904//EN"
"http://www.w3.org/TR/2001/REC-SVG-20010904/DTD/svg10.dtd">
<!-- Created with Sodipodi ("http://www.sodipodi.com/") -->
<!-- Creative Commons Public Domain -->
<!--
<rdf:RDF xmlns="http://web.resource.org/cc/"
    xmlns:dc="http://purl.org/dc/elements/1.1/"
    xmlns:rdf="http://www.w3.org/1999/02/22-rdf-syntax-ns#">
<Work rdf:about="">
   <dc:title>flag of bavaria</dc:title>
   <dc:rights><Agent>
      <dc:title>Jörgen Scheibengruber</dc:title>
   </Agent></dc:rights>
   <license rdf:resource="http://web.resource.org/cc/PublicDomain" />
</Work>

<License rdf:about="http://web.resource.org/cc/PublicDomain">
   <permits rdf:resource="http://web.resource.org/cc/Reproduction" />
   <permits rdf:resource="http://web.resource.org/cc/Distribution" />
   <permits rdf:resource="http://web.resource.org/cc/DerivativeWorks" />
</License>
</rdf:RDF>
-->
<svg
   id="svg2873"
   sodipodi:version="0.33pre"
   width="40cm"
   height="30cm"
   sodipodi:docbase="/home/mfcn/"
   sodipodi:docname="/home/mfcn/bavaria.svg"
   xmlns="http://www.w3.org/2000/svg"
   xmlns:sodipodi="http://sodipodi.sourceforge.net/DTD/sodipodi-0.dtd"
   xmlns:xlink="http://www.w3.org/1999/xlink">
  <defs
     id="defs2875" />
  <sodipodi:namedview
     id="base"
     snaptogrid="true"
     showgrid="false"
     gridspacingx="5mm"
     gridspacingy="1mm"
     gridoriginy="0mm"
     gridcolor="#3f3fff"
     gridopacity="1" />
  <rect
     style="font-size:12;fill:#ffffff;fill-rule:evenodd;stroke-width:1pt;fill-opacity:1;"
     id="rect2965"
     width="1417.322823"
     height="1062.991821"
     x="0.000001"
     y="-0.000133" />
  <path
     style="fill:#0080ff;fill-rule:evenodd;stroke:none;stroke-opacity:1;stroke-width:1pt;stroke-linejoin:miter;stroke-linecap:butt;fill-opacity:1;"
     d="M 106.299 -1.52584e-05 L 159.449 159.449 L 318.897 212.598 L 265.748 53.1497 L 106.299 -1.52584e-05 z "
     id="path2877"
     sodipodi:nodetypes="ccccc" />
  <path
     style="fill:#0080ff;fill-rule:evenodd;stroke:none;stroke-opacity:1;stroke-width:1pt;stroke-linejoin:miter;stroke-linecap:butt;fill-opacity:1;"
     d="M 106.3 425.197 L 159.451 584.646 L 318.898 637.795 L 265.75 478.347 L 106.3 425.197 z "
     id="path2917"
     sodipodi:nodetypes="ccccc" />
  <path
     style="fill:#0080ff;fill-rule:evenodd;stroke:none;stroke-opacity:1;stroke-width:1pt;stroke-linejoin:miter;stroke-linecap:butt;fill-opacity:1;"
     d="M 1.23596e-06 531.496 L 53.151 690.942 L 212.598 744.092 L 159.45 584.646 L 1.23596e-06 531.496 z "
     id="path2918"
     sodipodi:nodetypes="ccccc" />
  <path
     style="fill:#0080ff;fill-rule:evenodd;stroke:none;stroke-opacity:1;stroke-width:1pt;stroke-linejoin:miter;stroke-linecap:butt;fill-opacity:1;"
     d="M 212.599 744.096 L 265.75 903.543 L 425.197 956.693 L 372.049 797.243 L 212.599 744.096 z "
     id="path2919"
     sodipodi:nodetypes="ccccc" />
  <path
     style="fill:#0080ff;fill-rule:evenodd;stroke:none;stroke-opacity:1;stroke-width:1pt;stroke-linejoin:miter;stroke-linecap:butt;fill-opacity:1;"
     d="M 212.599 318.898 L 265.75 478.345 L 425.197 531.495 L 372.049 372.045 L 212.599 318.898 z "
     id="path2920"
     sodipodi:nodetypes="ccccc" />
  <path
     style="fill:#0080ff;fill-rule:evenodd;stroke:none;stroke-opacity:1;stroke-width:1pt;stroke-linejoin:miter;stroke-linecap:butt;fill-opacity:1;"
     d="M 1.52222e-05 106.3 L 53.1514 265.749 L 212.598 318.898 L 159.45 159.45 L 1.52222e-05 106.3 z "
     id="path2921"
     sodipodi:nodetypes="ccccc" />
  <path
     style="fill:#0080ff;fill-rule:evenodd;stroke:none;stroke-opacity:1;stroke-width:1pt;stroke-linejoin:miter;stroke-linecap:butt;fill-opacity:1;"
     d="M 318.898 637.796 L 372.049 797.245 L 531.496 850.394 L 478.348 690.946 L 318.898 637.796 z "
     id="path2922"
     sodipodi:nodetypes="ccccc" />
  <path
     style="fill:#0080ff;fill-rule:evenodd;stroke:none;stroke-opacity:1;stroke-width:1pt;stroke-linejoin:miter;stroke-linecap:butt;fill-opacity:1;"
     d="M 0 673.228 L 0 814.961 L 106.299 850.394 L 53.1512 690.948 L 0 673.228 z "
     id="path2923"
     sodipodi:nodetypes="ccccc" />
  <path
     style="fill:#0080ff;fill-rule:evenodd;stroke:none;stroke-opacity:1;stroke-width:1pt;stroke-linejoin:miter;stroke-linecap:butt;fill-opacity:1;"
     d="M 106.3 850.395 L 159.451 1009.84 L 318.898 1062.99 L 265.75 903.542 L 106.3 850.395 z "
     id="path2924"
     sodipodi:nodetypes="ccccc" />
  <path
     style="fill:#0080ff;fill-rule:evenodd;stroke:none;stroke-opacity:1;stroke-width:1pt;stroke-linejoin:miter;stroke-linecap:butt;fill-opacity:1;"
     d="M 425.197 531.497 L 478.348 690.944 L 637.795 744.094 L 584.647 584.644 L 425.197 531.497 z "
     id="path2925"
     sodipodi:nodetypes="ccccc" />
  <path
     style="fill:#0080ff;fill-rule:evenodd;stroke:none;stroke-opacity:1;stroke-width:1pt;stroke-linejoin:miter;stroke-linecap:butt;fill-opacity:1;"
     d="M 425.197 956.693 L 460.63 1062.99 L 602.362 1062.99 L 584.643 1009.84 L 425.197 956.693 z "
     id="path2927"
     sodipodi:nodetypes="ccccc" />
  <path
     style="fill:#0080ff;fill-rule:evenodd;stroke:none;stroke-opacity:1;stroke-width:1pt;stroke-linejoin:miter;stroke-linecap:butt;fill-opacity:1;"
     d="M 0.00239844 956.693 L 35.4331 1062.99 L 177.165 1062.99 L 159.448 1009.84 L 0.00239844 956.693 z "
     id="path2928"
     sodipodi:nodetypes="ccccc" />
  <path
     style="fill:#0080ff;fill-rule:evenodd;stroke:none;stroke-opacity:1;stroke-width:1pt;stroke-linejoin:miter;stroke-linecap:butt;fill-opacity:1;"
     d="M 850.392 956.694 L 885.827 1062.99 L 1027.56 1062.99 L 1009.84 1009.84 L 850.392 956.694 z "
     id="path2929"
     sodipodi:nodetypes="ccccc" />
  <path
     style="fill:#0080ff;fill-rule:evenodd;stroke:none;stroke-opacity:1;stroke-width:1pt;stroke-linejoin:miter;stroke-linecap:butt;fill-opacity:1;"
     d="M 744.094 637.797 L 797.244 797.244 L 956.694 850.394 L 903.544 690.944 L 744.094 637.797 z "
     id="path2930"
     sodipodi:nodetypes="ccccc" />
  <path
     style="fill:#0080ff;fill-rule:evenodd;stroke:none;stroke-opacity:1;stroke-width:1pt;stroke-linejoin:miter;stroke-linecap:butt;fill-opacity:1;"
     d="M 531.496 0.000378418 L 584.647 159.449 L 744.094 212.598 L 690.946 53.1504 L 531.496 0.000378418 z "
     id="path2931"
     sodipodi:nodetypes="ccccc" />
  <path
     style="fill:#0080ff;fill-rule:evenodd;stroke:none;stroke-opacity:1;stroke-width:1pt;stroke-linejoin:miter;stroke-linecap:butt;fill-opacity:1;"
     d="M 1062.99 744.094 L 1116.14 903.543 L 1275.59 956.692 L 1222.44 797.244 L 1062.99 744.094 z "
     id="path2932"
     sodipodi:nodetypes="ccccc" />
  <path
     style="fill:#0080ff;fill-rule:evenodd;stroke:none;stroke-opacity:1;stroke-width:1pt;stroke-linejoin:miter;stroke-linecap:butt;fill-opacity:1;"
     d="M 637.798 744.094 L 690.949 903.54 L 850.394 956.69 L 797.244 797.244 L 637.798 744.094 z "
     id="path2933"
     sodipodi:nodetypes="ccccc" />
  <path
     style="fill:#0080ff;fill-rule:evenodd;stroke:none;stroke-opacity:1;stroke-width:1pt;stroke-linejoin:miter;stroke-linecap:butt;fill-opacity:1;"
     d="M 956.693 850.395 L 1009.84 1009.84 L 1169.29 1062.99 L 1116.14 903.542 L 956.693 850.395 z "
     id="path2934"
     sodipodi:nodetypes="ccccc" />
  <path
     style="fill:#0080ff;fill-rule:evenodd;stroke:none;stroke-opacity:1;stroke-width:1pt;stroke-linejoin:miter;stroke-linecap:butt;fill-opacity:1;"
     d="M 531.495 425.197 L 584.645 584.644 L 744.095 637.794 L 690.945 478.344 L 531.495 425.197 z "
     id="path2935"
     sodipodi:nodetypes="ccccc" />
  <path
     style="fill:#0080ff;fill-rule:evenodd;stroke:none;stroke-opacity:1;stroke-width:1pt;stroke-linejoin:miter;stroke-linecap:butt;fill-opacity:1;"
     d="M 318.9 212.6 L 372.046 372.048 L 531.496 425.197 L 478.346 265.75 L 318.9 212.6 z "
     id="path2937"
     sodipodi:nodetypes="ccccc" />
  <path
     style="fill:#0080ff;fill-rule:evenodd;stroke:none;stroke-opacity:1;stroke-width:1pt;stroke-linejoin:miter;stroke-linecap:butt;fill-opacity:1;"
     d="M 0 248.031 L 0 389.764 L 106.297 425.197 L 53.1468 265.751 L 0 248.031 z "
     id="path2938"
     sodipodi:nodetypes="ccccc" />
  <path
     style="fill:#0080ff;fill-rule:evenodd;stroke:none;stroke-opacity:1;stroke-width:1pt;stroke-linejoin:miter;stroke-linecap:butt;fill-opacity:1;"
     d="M 531.496 850.394 L 584.646 1009.84 L 744.096 1062.99 L 690.946 903.541 L 531.496 850.394 z "
     id="path2939"
     sodipodi:nodetypes="ccccc" />
  <path
     style="fill:#0080ff;fill-rule:evenodd;stroke:none;stroke-opacity:1;stroke-width:1pt;stroke-linejoin:miter;stroke-linecap:butt;fill-opacity:1;"
     d="M 248.031 3.85247e-14 L 265.748 53.1502 L 425.198 106.299 L 389.764 3.85247e-14 L 248.031 3.85247e-14 z "
     id="path2940"
     sodipodi:nodetypes="ccccc" />
  <path
     style="fill:#0080ff;fill-rule:evenodd;stroke:none;stroke-opacity:1;stroke-width:1pt;stroke-linejoin:miter;stroke-linecap:butt;fill-opacity:1;"
     d="M 425.197 106.299 L 478.348 265.748 L 637.795 318.897 L 584.647 159.449 L 425.197 106.299 z "
     id="path2942"
     sodipodi:nodetypes="ccccc" />
  <path
     style="fill:#0080ff;fill-rule:evenodd;stroke:none;stroke-opacity:1;stroke-width:1pt;stroke-linejoin:miter;stroke-linecap:butt;fill-opacity:1;"
     d="M 1275.59 956.693 L 1311.02 1062.99 L 1417.32 1062.99 L 1417.32 1002.68 L 1275.59 956.693 z "
     id="path2948"
     sodipodi:nodetypes="ccccc" />
  <path
     style="fill:#0080ff;fill-rule:evenodd;stroke:none;stroke-opacity:1;stroke-width:1pt;stroke-linejoin:miter;stroke-linecap:butt;fill-opacity:1;"
     d="M 637.795 318.898 L 690.946 478.346 L 850.393 531.495 L 797.245 372.048 L 637.795 318.898 z "
     id="path2949"
     sodipodi:nodetypes="ccccc" />
  <path
     style="fill:#0080ff;fill-rule:evenodd;stroke:none;stroke-opacity:1;stroke-width:1pt;stroke-linejoin:miter;stroke-linecap:butt;fill-opacity:1;"
     d="M 744.094 212.598 L 797.245 372.046 L 956.692 425.195 L 903.544 265.748 L 744.094 212.598 z "
     id="path2950"
     sodipodi:nodetypes="ccccc" />
  <path
     style="fill:#0080ff;fill-rule:evenodd;stroke:none;stroke-opacity:1;stroke-width:1pt;stroke-linejoin:miter;stroke-linecap:butt;fill-opacity:1;"
     d="M 673.228 3.85247e-14 L 690.947 53.1502 L 850.394 106.299 L 814.961 3.85247e-14 L 673.228 3.85247e-14 z "
     id="path2951"
     sodipodi:nodetypes="ccccc" />
  <path
     style="fill:#0080ff;fill-rule:evenodd;stroke:none;stroke-opacity:1;stroke-width:1pt;stroke-linejoin:miter;stroke-linecap:butt;fill-opacity:1;"
     d="M 850.394 106.299 L 903.545 265.747 L 1062.99 318.896 L 1009.84 159.449 L 850.394 106.299 z "
     id="path2952"
     sodipodi:nodetypes="ccccc" />
  <path
     style="fill:#0080ff;fill-rule:evenodd;stroke:none;stroke-opacity:1;stroke-width:1pt;stroke-linejoin:miter;stroke-linecap:butt;fill-opacity:1;"
     d="M 850.394 531.497 L 903.545 690.945 L 1062.99 744.094 L 1009.84 584.647 L 850.394 531.497 z "
     id="path2953"
     sodipodi:nodetypes="ccccc" />
  <path
     style="fill:#0080ff;fill-rule:evenodd;stroke:none;stroke-opacity:1;stroke-width:1pt;stroke-linejoin:miter;stroke-linecap:butt;fill-opacity:1;"
     d="M 956.695 425.197 L 1009.85 584.645 L 1169.29 637.794 L 1116.14 478.347 L 956.695 425.197 z "
     id="path2954"
     sodipodi:nodetypes="ccccc" />
  <path
     style="fill:#0080ff;fill-rule:evenodd;stroke:none;stroke-opacity:1;stroke-width:1pt;stroke-linejoin:miter;stroke-linecap:butt;fill-opacity:1;"
     d="M 1062.99 318.899 L 1116.15 478.347 L 1275.59 531.496 L 1222.44 372.049 L 1062.99 318.899 z "
     id="path2955"
     sodipodi:nodetypes="ccccc" />
  <path
     style="fill:#0080ff;fill-rule:evenodd;stroke:none;stroke-opacity:1;stroke-width:1pt;stroke-linejoin:miter;stroke-linecap:butt;fill-opacity:1;"
     d="M 956.693 -6.31125e-05 L 1009.85 159.448 L 1169.29 212.597 L 1116.14 53.1499 L 956.693 -6.31125e-05 z "
     id="path2956"
     sodipodi:nodetypes="ccccc" />
  <path
     style="fill:#0080ff;fill-rule:evenodd;stroke:none;stroke-opacity:1;stroke-width:1pt;stroke-linejoin:miter;stroke-linecap:butt;fill-opacity:1;"
     d="M 1169.29 212.6 L 1222.45 372.048 L 1381.89 425.197 L 1328.74 265.75 L 1169.29 212.6 z "
     id="path2957"
     sodipodi:nodetypes="ccccc" />
  <path
     style="fill:#0080ff;fill-rule:evenodd;stroke:none;stroke-opacity:1;stroke-width:1pt;stroke-linejoin:miter;stroke-linecap:butt;fill-opacity:1;"
     d="M 1098.43 3.85247e-14 L 1116.15 53.1501 L 1275.59 106.299 L 1240.16 3.85247e-14 L 1098.43 3.85247e-14 z "
     id="path2958"
     sodipodi:nodetypes="ccccc" />
  <path
     style="fill:#0080ff;fill-rule:evenodd;stroke:none;stroke-opacity:1;stroke-width:1pt;stroke-linejoin:miter;stroke-linecap:butt;fill-opacity:1;"
     d="M 1275.59 106.299 L 1328.75 265.747 L 1417.32 294.094 L 1417.32 152.362 L 1275.59 106.299 z "
     id="path2959"
     sodipodi:nodetypes="ccccc" />
  <path
     style="fill:#0080ff;fill-rule:evenodd;stroke:none;stroke-opacity:1;stroke-width:1pt;stroke-linejoin:miter;stroke-linecap:butt;fill-opacity:1;"
     d="M 1275.59 531.496 L 1328.75 690.944 L 1417.32 719.291 L 1417.32 577.559 L 1275.59 531.496 z "
     id="path2960"
     sodipodi:nodetypes="ccccc" />
  <path
     style="fill:#0080ff;fill-rule:evenodd;stroke:none;stroke-opacity:1;stroke-width:1pt;stroke-linejoin:miter;stroke-linecap:butt;fill-opacity:1;"
     d="M 1381.89 425.197 L 1417.32 542.126 L 1417.32 436.323 L 1381.89 425.197 z "
     id="path2961"
     sodipodi:nodetypes="cccc" />
  <path
     style="fill:#0080ff;fill-rule:evenodd;stroke:none;stroke-opacity:1;stroke-width:1pt;stroke-linejoin:miter;stroke-linecap:butt;fill-opacity:1;"
     d="M 1169.29 637.795 L 1222.45 797.243 L 1381.89 850.392 L 1328.74 690.945 L 1169.29 637.795 z "
     id="path2962"
     sodipodi:nodetypes="ccccc" />
  <path
     style="fill:#0080ff;fill-rule:evenodd;stroke:none;stroke-opacity:1;stroke-width:1pt;stroke-linejoin:miter;stroke-linecap:butt;fill-opacity:1;"
     d="M 1381.89 850.395 L 1417.32 956.693 L 1417.32 861.094 L 1381.89 850.395 z "
     id="path2963"
     sodipodi:nodetypes="cccc" />
  <path
     style="fill:#0080ff;fill-rule:evenodd;stroke:none;stroke-opacity:1;stroke-width:1pt;stroke-linejoin:miter;stroke-linecap:butt;fill-opacity:1;"
     d="M 1381.89 0.00190735 L 1417.32 106.299 L 1417.32 11.5511 L 1381.89 0.00190735 z "
     id="path2964"
     sodipodi:nodetypes="cccc" />
</svg>
