<?xml version="1.0" encoding="UTF-8" standalone="no"?>
<!-- Created with Inkscape (http://www.inkscape.org/) -->

<svg
   xmlns:dc="http://purl.org/dc/elements/1.1/"
   xmlns:cc="http://creativecommons.org/ns#"
   xmlns:rdf="http://www.w3.org/1999/02/22-rdf-syntax-ns#"
   xmlns:svg="http://www.w3.org/2000/svg"
   xmlns="http://www.w3.org/2000/svg"
   xmlns:sodipodi="http://sodipodi.sourceforge.net/DTD/sodipodi-0.dtd"
   xmlns:inkscape="http://www.inkscape.org/namespaces/inkscape"
   width="450"
   height="300"
   id="svg2"
   sodipodi:version="0.32"
   inkscape:version="0.47 r22583"
   version="1.0"
   sodipodi:docname="benin.svg"
   inkscape:output_extension="org.inkscape.output.svg.inkscape">
  <defs
     id="defs4">
    <inkscape:perspective
       sodipodi:type="inkscape:persp3d"
       inkscape:vp_x="0 : 150 : 1"
       inkscape:vp_y="0 : 1000 : 0"
       inkscape:vp_z="525 : 150 : 1"
       inkscape:persp3d-origin="262.5 : 100 : 1"
       id="perspective2878" />
  </defs>
  <sodipodi:namedview
     id="base"
     pagecolor="#ffffff"
     bordercolor="#666666"
     borderopacity="1.0"
     gridtolerance="10000"
     guidetolerance="10"
     objecttolerance="10"
     inkscape:pageopacity="0.0"
     inkscape:pageshadow="2"
     inkscape:zoom="1"
     inkscape:cx="209.62692"
     inkscape:cy="173.87946"
     inkscape:document-units="px"
     inkscape:current-layer="g2377"
     height="400px"
     width="600px"
     showguides="true"
     inkscape:guide-bbox="true"
     inkscape:window-width="1071"
     inkscape:window-height="655"
     inkscape:window-x="2"
     inkscape:window-y="0"
     showgrid="false"
     inkscape:window-maximized="0" />
  <metadata
     id="metadata7">
    <rdf:RDF>
      <cc:Work
         rdf:about="">
        <dc:format>image/svg+xml</dc:format>
        <dc:type
           rdf:resource="http://purl.org/dc/dcmitype/StillImage" />
      </cc:Work>
    </rdf:RDF>
  </metadata>
  <g
     inkscape:label="Layer 1"
     inkscape:groupmode="layer"
     id="layer1"
     transform="translate(-44.175477,-93.614054)">
    <g
       id="g2377"
       transform="matrix(1.6561403,0,0,1.6561403,-224.76512,-417.9215)">
      <g
         id="g2280"
         transform="matrix(0.9057204,0,0,0.9057204,-21.878197,62.05825)">
        <path
           style="fill:#fefefe"
           d="m 203.4493,372.50558 0,-100 175,0 175,0 0,100 0,100 -175,0 -175,0 0,-100 z"
           id="path2284" />
        <path
           style="fill:#f11518"
           d="m 203.4493,372.50558 0,-100 175,0 175,0 0,100 0,100 -175,0 -175,0 0,-100 z m 195.96577,58.02969 c 1.24948,-1.08367 3.11729,-2.23866 4.15068,-2.56665 2.96429,-0.94083 3.50739,-5.17009 1.00585,-7.83285 -1.16726,-1.2425 -2.1223,-2.70126 -2.1223,-3.24169 0,-0.54043 -1.79298,-2.7334 -3.9844,-4.87327 -4.98744,-4.8701 -6.68718,-9.47968 -4.99868,-13.55608 0.66596,-1.60778 0.93178,-3.65045 0.5907,-4.53929 -0.5215,-1.359 -1.18139,-1.12326 -4.14867,1.48204 -1.9407,1.70396 -4.03995,3.0981 -4.66501,3.0981 -2.12007,0 -4.79397,3.29814 -4.78735,5.90499 0.0118,4.6409 5.49073,10.67201 13.89787,15.2985 3.83787,2.112 4.01605,5.03891 0.50484,8.29299 -4.38991,4.06843 -0.0169,6.49965 4.55647,2.53321 z m -99.25734,-1.636 c 0.19934,-0.60847 -1.0395,-2.60709 -2.75299,-4.44139 -2.42199,-2.59275 -2.97637,-3.90457 -2.49067,-5.89369 0.34361,-1.40723 1.0042,-4.3009 1.46798,-6.43037 0.46378,-2.12946 1.28319,-4.15446 1.82091,-4.5 0.53772,-0.34553 1.99027,-2.62503 3.22789,-5.06555 1.23762,-2.44052 2.87239,-5.05949 3.63283,-5.81993 2.05154,-2.05154 2.77936,-6.06341 1.40125,-7.72393 -1.03782,-1.2505 -9.61729,-6.51883 -10.6159,-6.51883 -0.9505,0 -3.40152,6.24574 -3.41428,8.70034 -0.0156,3.00588 -2.14576,9.77521 -4.52197,14.37027 -0.80491,1.55654 -1.46348,4.50797 -1.46348,6.55873 0,2.05077 -0.5625,5.28624 -1.25,7.18995 -1.11403,3.08479 -1.04838,3.582 0.60356,4.571 1.01946,0.61034 3.2293,2.37033 4.91075,3.91108 2.21022,2.02527 3.8917,2.71788 6.06942,2.5 1.65674,-0.16575 3.17535,-0.79921 3.3747,-1.40768 z m 50.60731,-0.59781 c 1.20134,-0.66227 4.20926,-1.44977 6.68426,-1.75 4.27069,-0.51806 4.5,-0.70719 4.5,-3.71149 0,-2.57278 0.79592,-3.74442 4.25,-6.25628 3.6189,-2.63171 4.25,-3.61683 4.25,-6.63404 0,-5.00515 2.35744,-8.95693 6.20284,-10.39785 8.72925,-3.27096 11.1274,-4.69336 15.09327,-8.95216 2.35294,-2.52674 4.85515,-6.16906 5.56048,-8.09406 2.50614,-6.83979 8.1419,-18 9.08977,-18 0.5295,0 2.10819,1.14545 3.50819,2.54546 2.08245,2.08245 2.54545,3.50282 2.54545,7.80886 0,3.07985 -0.60909,6.06872 -1.4682,7.20455 -1.97952,2.61716 -1.99967,5.83464 -0.0318,5.0795 1.07626,-0.41299 1.5,0.1016 1.5,1.82159 0,2.89794 2.42883,5.54004 5.09287,5.54004 3.63638,0 4.25513,-3.7541 3.12027,-18.93157 -0.88514,-11.83774 -1.38839,-14.49138 -3.18841,-16.8124 -1.17556,-1.51582 -3.12454,-4.30081 -4.33106,-6.18887 -1.20652,-1.88806 -4.66867,-4.90804 -7.69367,-6.71107 -8.05409,-4.80057 -11.98091,-4.53872 -24.86773,1.65828 -7.49971,3.60646 -11.56024,4.98563 -14.67857,4.98563 -4.03634,0 -7.4537,-1.83817 -7.4537,-4.00928 0,-0.47653 -0.7875,-0.88904 -1.75,-0.91667 -0.9625,-0.0276 -3.36463,-0.32133 -5.33807,-0.65265 -3.42088,-0.57433 -6.91193,1.19193 -6.91193,3.49702 0,2.49112 4.79719,5.3583 14.26533,8.52608 12.68056,4.24256 15.08871,4.35848 20.08031,0.9666 2.09544,-1.42389 4.06277,-2.33603 4.37183,-2.02697 0.30906,0.30906 -1.53119,4.73657 -4.08945,9.8389 -2.55825,5.10233 -4.64612,10.16392 -4.63969,11.24797 0.006,1.08405 -2.40465,4.45905 -5.35793,7.5 -5.27081,5.42727 -6.23452,7.46374 -8.53186,18.029 -0.41857,1.925 -1.47743,4.87334 -2.35302,6.55187 -1.9061,3.65407 -9.61329,10.954 -12.54879,11.88569 -2.21511,0.70305 -3.75021,3.85787 -2.70226,5.55349 0.85173,1.37813 5.16246,1.27056 7.82127,-0.19517 z m -10.87151,-0.70564 c 1.0902,-1.76398 -0.60617,-3.85952 -4.57206,-5.64788 -6.02676,-2.7177 -7.06625,-5.58989 -6.60889,-18.26092 0.21205,-5.87479 0.73761,-11.67697 1.1679,-12.89374 0.64881,-1.83465 -0.21657,-3.25957 -5.06948,-8.34734 -6.38832,-6.69749 -6.61528,-7.64168 -4.83771,-20.12608 l 0.66717,-4.68572 -4.05336,-1.09145 c -2.22934,-0.6003 -4.37118,-1.6057 -4.75962,-2.23422 -0.4938,-0.79898 -0.13045,-0.89538 1.20778,-0.32045 1.05272,0.45228 3.34687,1.02452 5.09811,1.27165 3.01267,0.42514 3.24504,0.2229 4.31677,-3.7572 0.62298,-2.31358 0.89177,-4.83435 0.59731,-5.60171 -0.41433,-1.07972 0.60293,-1.39518 4.49898,-1.39518 2.76889,0 5.85749,-0.44053 6.86356,-0.97896 1.00606,-0.53843 4.71475,-1.13327 8.24154,-1.32188 3.52679,-0.18861 6.94907,-0.67463 7.60506,-1.08006 0.7288,-0.45042 1.19271,-0.13075 1.19271,0.82188 0,0.85746 0.45,1.55902 1,1.55902 0.55,0 1,-0.675 1,-1.5 0,-0.825 0.45,-1.5 1,-1.5 0.55,0 1,0.9 1,2 0,1.11111 0.66667,2 1.5,2 0.83333,0 1.5,-0.88889 1.5,-2 0,-1.94491 0.6817,-2.00124 24.75,-2.0451 17.33931,-0.0316 25.61741,-0.41542 27.64694,-1.28187 l 2.89694,-1.23676 -4.09197,-1.84522 c -2.88579,-1.30131 -4.91878,-1.61052 -6.89694,-1.04902 -1.54273,0.43792 -12.14247,0.96248 -23.55497,1.1657 -20.33517,0.36211 -20.75,0.32874 -20.75,-1.66912 0,-1.14543 -0.6572,-2.03861 -1.5,-2.03861 -0.825,0 -1.5,0.675 -1.5,1.5 0,0.825 -0.45,1.5 -1,1.5 -0.55,0 -1,-0.675 -1,-1.5 0,-0.825 -0.45,-1.5 -1,-1.5 -0.55,0 -1,0.37126 -1,0.82503 0,0.45376 -1.4625,0.85888 -3.25,0.90027 -1.7875,0.0414 -7.36207,0.40466 -12.38793,0.80728 -10.42839,0.83543 -16.36207,0.0819 -16.36207,-2.07789 0,-0.80008 0.3634,-1.45469 0.80755,-1.45469 0.44416,0 1.63305,-1.87102 2.64198,-4.15783 1.43784,-3.25894 1.58755,-4.55315 0.69245,-5.98643 -0.62809,-1.00573 -1.14198,-2.73471 -1.14198,-3.84217 0,-2.12032 -1.45213,-2.70905 -2.5,-1.01357 -0.33992,0.55 -1.45882,1 -2.48644,1 -2.7013,0 -6.01356,4.72356 -6.01356,8.57584 0,1.81837 -0.45,3.58424 -1,3.92416 -0.55,0.33992 -1,1.94148 -1,3.55902 0,2.56511 -0.36341,2.94098 -2.84346,2.94098 -2.16482,0 -3.79699,1.13369 -6.83862,4.75 -5.81672,6.91573 -6.69586,8.93234 -7.52017,17.25 -0.4088,4.125 -1.021,9.57658 -1.36044,12.11462 -0.54631,4.08484 -0.31461,4.91717 2.01822,7.25 1.44946,1.44946 3.03278,2.63538 3.5185,2.63538 1.7461,0 4.17159,-3.33516 3.70978,-5.10113 -0.25932,-0.99164 0.0432,-1.98381 0.67235,-2.20482 0.73853,-0.25946 0.45721,-1.17514 -0.79394,-2.58419 -1.68706,-1.89997 -1.7841,-2.60735 -0.75,-5.4671 0.65328,-1.80661 1.18778,-4.03034 1.18778,-4.9416 0,-2.53567 5.19518,-12.56208 6.8351,-13.19138 2.37983,-0.91322 2.47307,0.18205 0.2083,2.44682 -2.5235,2.5235 -3.77139,5.48663 -5.69621,13.52568 -1.29828,5.42232 -1.27863,6.09468 0.20986,7.1831 1.42207,1.03984 1.47733,1.71249 0.41226,5.01772 -0.67648,2.09929 -1.68808,4.39347 -2.24802,5.09816 -1.43854,1.81044 0.57678,3.25827 10.52871,7.56395 2.41101,1.04312 3.75,2.28771 3.75,3.4856 0,1.02474 0.9,2.90088 2,4.16919 1.53025,1.7644 2,3.74136 2,8.41713 0,3.62052 0.8151,8.34113 2,11.58287 1.1,3.00947 2,6.45848 2,7.66445 0,3.97598 2.55129,5.33555 10.01241,5.33555 3.77826,0 7.12257,-0.40939 7.43182,-0.90976 z M 317.4493,320.50558 c 0,-0.55 0.675,-1 1.5,-1 0.825,0 1.5,0.45 1.5,1 0,0.55 -0.675,1 -1.5,1 -0.825,0 -1.5,-0.45 -1.5,-1 z m 82.23133,12.67028 c 3.99431,-1.3912 5.86286,-2.67028 3.90089,-2.67028 -0.86103,0 -1.0157,-1.39763 -0.54628,-4.93628 l 0.65482,-4.93628 -3.68362,-1.53912 c -3.44478,-1.43932 -3.97129,-1.40389 -8.12038,0.54641 -4.80686,2.25949 -5.23063,2.96153 -2.93676,4.86527 0.825,0.68469 1.5,2.50765 1.5,4.05102 0,2.88788 2.23769,5.96054 4.32143,5.93392 0.64821,-0.008 2.85767,-0.59987 4.9099,-1.31466 z m -3.23133,-12.67028 c 0,-0.55 0.45,-1 1,-1 0.55,0 1,0.45 1,1 0,0.55 -0.45,1 -1,1 -0.55,0 -1,-0.45 -1,-1 z m -86.95015,7.90686 c 0.61612,-1.15123 0.88302,-3.06373 0.59312,-4.25 -0.64268,-2.6298 4.38436,-8.65686 7.22049,-8.65686 1.04041,0 2.45185,-0.675 3.13654,-1.5 1.07928,-1.30045 0.55683,-1.5 -3.92722,-1.5 -7.39495,0 -10.72788,1.99907 -11.56174,6.93466 -0.66228,3.92002 1.05194,11.06534 2.65466,11.06534 0.42016,0 1.26803,-0.94191 1.88415,-2.09314 z m 100.34316,-0.48865 c 0.33385,-0.86998 0.60699,-3.51823 0.60699,-5.88499 0,-3.5114 -0.47017,-4.61127 -2.55523,-5.97745 -2.67029,-1.74964 -8.56928,-1.78582 -9.09411,-0.0558 -0.16685,0.55 1.1485,1.675 2.92299,2.5 2.97201,1.38175 3.22635,1.87458 3.22635,6.25162 0,4.19115 0.25277,4.75143 2.14301,4.75 1.17866,-8.9e-4 2.41616,-0.71342 2.75,-1.58341 z"
           id="path2282" />
      </g>
    </g>
  </g>
</svg>
