<?xml version="1.0" encoding="UTF-8" standalone="no"?>
<svg
   xmlns:dc="http://purl.org/dc/elements/1.1/"
   xmlns:cc="http://creativecommons.org/ns#"
   xmlns:rdf="http://www.w3.org/1999/02/22-rdf-syntax-ns#"
   xmlns:svg="http://www.w3.org/2000/svg"
   xmlns="http://www.w3.org/2000/svg"
   xmlns:sodipodi="http://sodipodi.sourceforge.net/DTD/sodipodi-0.dtd"
   xmlns:inkscape="http://www.inkscape.org/namespaces/inkscape"
   id="svg548"
   sodipodi:version="0.32"
   width="196.875mm"
   height="131.25mm"
   sodipodi:docname="boer.svg"
   version="1.1"
   inkscape:version="1.0.2 (e86c870879, 2021-01-15)">
  <metadata
     id="metadata31">
    <rdf:RDF>
      <cc:Work
         rdf:about="">
        <dc:format>image/svg+xml</dc:format>
        <dc:type
           rdf:resource="http://purl.org/dc/dcmitype/StillImage" />
      </cc:Work>
    </rdf:RDF>
  </metadata>
  <defs
     id="defs550" />
  <sodipodi:namedview
     id="base"
     snaptogrid="false"
     showgrid="false"
     inkscape:document-rotation="0"
     inkscape:zoom="1.1439136"
     inkscape:cx="396.85039"
     inkscape:cy="264.56694"
     inkscape:window-width="1518"
     inkscape:window-height="1016"
     inkscape:window-x="0"
     inkscape:window-y="27"
     inkscape:window-maximized="0"
     inkscape:current-layer="svg548" />
  <rect
     style="font-size:12px;fill:#ffffff;fill-opacity:1;fill-rule:evenodd;stroke-width:1pt"
     id="rect808"
     width="744.09448"
     height="496.06299"
     x="0"
     y="0" />
  <rect
     style="font-size:12px;fill:#00009c;fill-opacity:1;fill-rule:evenodd;stroke-width:1pt"
     id="rect809"
     width="744.09448"
     height="166.53542"
     x="0"
     y="329.52753" />
  <rect
     style="font-size:12px;fill:#e67000;fill-opacity:1;fill-rule:evenodd;stroke-width:1pt"
     id="rect810"
     width="744.09448"
     height="166.53542"
     x="0"
     y="7.2600005e-06" />
  <g
     id="g931"
     transform="matrix(1.2,0,0,1.250001,-74.40947,-61.122245)">
    <g
       id="g794"
       transform="matrix(0.624999,0,0,0.666666,139.5181,-59.05481)"
       style="font-size:12px">
      <rect
         style="font-size:12px;fill:#00009c;fill-opacity:1;fill-rule:evenodd;stroke-width:1pt"
         id="rect683"
         width="106.29935"
         height="70.866074"
         x="230.31496"
         y="425.19693" />
      <g
         id="g584"
         transform="matrix(1.771656,0,0,2.362202,230.3148,425.1969)"
         style="font-size:12px">
        <path
           style="font-size:12px;fill:#ffffff;stroke-width:1pt"
           d="M 0,0 V 3.3541 L 53.2918,30 H 60 V 26.6459 L 6.7082,0 Z M 60,0 V 3.35405 L 6.7082,30 H 0 V 26.6458 L 53.2918,0 Z"
           id="path146" />
        <path
           style="font-size:12px;fill:#ffffff;stroke-width:1pt"
           d="M 25,0 V 30 H 35 V 0 Z M 0,10 V 20 H 60 V 10 Z"
           id="path136" />
        <path
           style="font-size:12px;fill:#cc0000;stroke-width:1pt"
           d="m 0,12 v 6 H 60 V 12 Z M 27,0 v 30 h 6 V 0 Z"
           id="path141" />
        <path
           style="font-size:12px;fill:#cc0000;stroke-width:1pt"
           d="M 0,30 20,20 h 4.4721 L 4.47214,30 Z M 0,0 20,10 H 15.5279 L 0,2.23607 Z m 35.5279,10 20,-10 H 60 L 40,10 Z M 60,30 40,20 h 4.4721 L 60,27.7639 Z"
           id="path150" />
      </g>
      <rect
         style="font-size:12px;fill:none;fill-rule:evenodd;stroke:#000000;stroke-width:0.534522pt"
         id="rect754"
         width="106.29921"
         height="70.866127"
         x="212.59842"
         y="425.19687"
         transform="translate(17.71656,-1.525879e-5)" />
    </g>
    <g
       id="g802"
       transform="matrix(0.624999,0,0,0.666666,139.5181,-59.05481)"
       style="font-size:12px">
      <rect
         style="font-size:12px;fill:#ffffff;fill-rule:evenodd;stroke-width:1pt"
         id="rect554"
         width="106.29951"
         height="70.866066"
         x="407.48001"
         y="425.1969" />
      <rect
         style="font-size:12px;fill:#00009c;fill-opacity:1;fill-rule:evenodd;stroke:none;stroke-width:1pt;stroke-opacity:1"
         id="rect552"
         width="106.29951"
         height="24.127186"
         x="407.48032"
         y="471.93579" />
      <rect
         style="font-size:12px;fill:#cc0000;fill-opacity:1;fill-rule:evenodd;stroke-width:1pt"
         id="rect553"
         width="106.29951"
         height="25.309319"
         x="407.48001"
         y="425.1969" />
      <rect
         style="font-size:12px;fill:#3b8800;fill-rule:evenodd;stroke-width:1pt"
         id="rect551"
         width="27.840347"
         height="70.866081"
         x="407.48001"
         y="425.1969" />
      <rect
         style="font-size:12px;fill:none;fill-rule:evenodd;stroke:#000000;stroke-width:0.534522pt"
         id="rect755"
         width="106.29921"
         height="70.866127"
         x="407.48029"
         y="425.19687" />
    </g>
    <g
       id="g923">
      <rect
         style="font-size:12px;fill:#ffffff;fill-rule:evenodd;stroke-width:1pt"
         id="rect738"
         width="212.59842"
         height="124.01581"
         x="194.8819"
         y="230.3149"
         transform="matrix(0,0.333333,0.357142,0,267.6466,147.6379)" />
      <rect
         style="font-size:12px;fill:#cc0000;fill-rule:evenodd;stroke-width:1pt"
         id="rect731"
         width="53.149601"
         height="17.716522"
         x="194.8819"
         y="230.31493"
         transform="matrix(0,0.333333,0.357142,0,267.6466,147.6379)" />
      <rect
         style="font-size:12px;fill:#00009c;fill-rule:evenodd;stroke-width:1pt"
         id="rect733"
         width="53.149601"
         height="17.716553"
         x="194.8819"
         y="265.74799"
         transform="matrix(0,0.333333,0.357142,0,267.6466,147.6379)" />
      <rect
         style="font-size:12px;fill:#e67000;fill-opacity:1;fill-rule:evenodd;stroke-width:1pt"
         id="rect734"
         width="212.59842"
         height="17.716522"
         x="194.8819"
         y="283.46457"
         transform="matrix(0,0.333333,0.357142,0,267.6466,147.6379)" />
      <rect
         style="font-size:12px;fill:#e67000;fill-opacity:1;fill-rule:evenodd;stroke-width:1pt"
         id="rect735"
         width="53.149551"
         height="6.3273149"
         x="230.31496"
         y="356.22906"
         transform="matrix(0,1,1,0,0,0)" />
      <rect
         style="font-size:12px;fill:#e67000;fill-opacity:1;fill-rule:evenodd;stroke-width:1pt"
         id="rect737"
         width="212.59842"
         height="17.716522"
         x="194.8819"
         y="318.89764"
         transform="matrix(0,0.333333,0.357142,0,267.6466,147.6379)" />
      <rect
         style="font-size:12px;fill:none;fill-rule:evenodd;stroke:#000000;stroke-width:0.534523pt"
         id="rect756"
         width="70.866165"
         height="106.29926"
         x="336.61417"
         y="407.48026"
         transform="matrix(-0.624999,0,0,0.666666,604.5765,-59.05481)" />
    </g>
  </g>
</svg>
