<?xml version="1.0" encoding="UTF-8" standalone="no"?>
<svg
   xmlns:dc="http://purl.org/dc/elements/1.1/"
   xmlns:cc="http://creativecommons.org/ns#"
   xmlns:rdf="http://www.w3.org/1999/02/22-rdf-syntax-ns#"
   xmlns:svg="http://www.w3.org/2000/svg"
   xmlns="http://www.w3.org/2000/svg"
   xmlns:sodipodi="http://sodipodi.sourceforge.net/DTD/sodipodi-0.dtd"
   xmlns:inkscape="http://www.inkscape.org/namespaces/inkscape"
   version="1"
   x="0"
   y="0"
   width="797.24414pt"
   height="531.49689pt"
   id="svg378"
   sodipodi:version="0.32"
   sodipodi:docname="brasil.svg"
   inkscape:version="1.0.2 (e86c870879, 2021-01-15)">
  <metadata
     id="metadata3228">
    <rdf:RDF>
      <cc:Work
         rdf:about="">
        <dc:format>image/svg+xml</dc:format>
        <dc:type
           rdf:resource="http://purl.org/dc/dcmitype/StillImage" />
      </cc:Work>
    </rdf:RDF>
  </metadata>
  <sodipodi:namedview
     id="base"
     inkscape:zoom="0.46230688"
     inkscape:cx="531.49426"
     inkscape:cy="347.11917"
     inkscape:window-width="854"
     inkscape:window-height="720"
     inkscape:window-x="527"
     inkscape:window-y="69"
     inkscape:current-layer="svg378"
     inkscape:document-rotation="0"
     showgrid="false"
     inkscape:window-maximized="0" />
  <defs
     id="defs380" />
  <rect
     sodipodi:fill-cmyk="(0.78 0 0.56 0.38)"
     y="0"
     x="0"
     height="708.66248"
     width="1062.9922"
     id="rect552"
     style="font-size:12px;fill:#229e45;fill-rule:evenodd;stroke-width:1pt" />
  <path
     sodipodi:fill-cmyk="(0 0.0775862 0.96 0.03)"
     sodipodi:nodetypes="ccccc"
     id="path554"
     d="M 531.50037,644.57498 978.09512,354.72508 528.80689,64.09655 80.743975,355.42162 Z"
     style="font-size:12px;fill:#f8e509;fill-rule:evenodd;stroke-width:1pt" />
  <ellipse
     sodipodi:fill-cmyk="(0.732759 0.551724 0 0.36)"
     id="path557"
     style="font-size:12px;fill:#2b49a3;fill-rule:evenodd;stroke-width:2.47259pt"
     cx="537.16315"
     cy="354.33554"
     rx="188.93045"
     ry="188.62904" />
  <polygon
     d="m 228.54263,107.67979 -2.58769,-1.46504 -2.67388,1.30112 0.5937,-2.91377 -2.06371,-2.14093 2.95462,-0.33577 1.39843,-2.624291 1.23236,2.706261 2.92799,0.51903 -2.19299,2.00832 z"
     inkscape:randomized="0"
     inkscape:rounded="0"
     inkscape:flatsided="false"
     transform="matrix(2.262349,0,0,2.307406,-41.99098,218.861)"
     points="228.543,107.68 225.955,106.215 223.281,107.516 223.875,104.602 221.811,102.461 224.766,102.125 226.164,99.5011 227.396,102.207 230.324,102.726 228.131,104.735 228.543,107.68 "
     sodipodi:arg2="1.601941"
     sodipodi:arg1="0.9736225"
     sodipodi:r2="2.2389653"
     sodipodi:r1="4.4779305"
     sodipodi:cy="103.97687"
     sodipodi:cx="226.02466"
     sodipodi:sides="5"
     id="polygon559"
     style="font-size:12px;fill:#ffffef;fill-rule:evenodd;stroke-width:1pt"
     sodipodi:type="star" />
  <polygon
     d="m 228.54263,107.67979 -2.58769,-1.46504 -2.67388,1.30112 0.5937,-2.91377 -2.06371,-2.14093 2.95462,-0.33577 1.39843,-2.624291 1.23236,2.706261 2.92799,0.51903 -2.19299,2.00832 z"
     inkscape:randomized="0"
     inkscape:rounded="0"
     inkscape:flatsided="false"
     transform="matrix(2.262349,0,0,2.307406,84.62537,250.914)"
     points="228.543,107.68 225.955,106.215 223.281,107.516 223.875,104.602 221.811,102.461 224.766,102.125 226.164,99.5011 227.396,102.207 230.324,102.726 228.131,104.735 228.543,107.68 "
     sodipodi:arg2="1.601941"
     sodipodi:arg1="0.9736225"
     sodipodi:r2="2.2389653"
     sodipodi:r1="4.4779305"
     sodipodi:cy="103.97687"
     sodipodi:cx="226.02466"
     sodipodi:sides="5"
     id="polygon560"
     style="font-size:12px;fill:#ffffef;fill-rule:evenodd;stroke-width:1pt"
     sodipodi:type="star" />
  <polygon
     d="m 228.54263,107.67979 -2.58769,-1.46504 -2.67388,1.30112 0.5937,-2.91377 -2.06371,-2.14093 2.95462,-0.33577 1.39843,-2.624291 1.23236,2.706261 2.92799,0.51903 -2.19299,2.00832 z"
     inkscape:randomized="0"
     inkscape:rounded="0"
     inkscape:flatsided="false"
     transform="matrix(1.954463,0,0,1.993391,100.4329,233.524)"
     points="228.543,107.68 225.955,106.215 223.281,107.516 223.875,104.602 221.811,102.461 224.766,102.125 226.164,99.5011 227.396,102.207 230.324,102.726 228.131,104.735 228.543,107.68 "
     sodipodi:arg2="1.601941"
     sodipodi:arg1="0.9736225"
     sodipodi:r2="2.2389653"
     sodipodi:r1="4.4779305"
     sodipodi:cy="103.97687"
     sodipodi:cx="226.02466"
     sodipodi:sides="5"
     id="polygon561"
     style="font-size:12px;fill:#ffffef;fill-rule:evenodd;stroke-width:1pt"
     sodipodi:type="star" />
  <polygon
     d="m 228.54263,107.67979 -2.58769,-1.46504 -2.67388,1.30112 0.5937,-2.91377 -2.06371,-2.14093 2.95462,-0.33577 1.39843,-2.624291 1.23236,2.706261 2.92799,0.51903 -2.19299,2.00832 z"
     inkscape:randomized="0"
     inkscape:rounded="0"
     inkscape:flatsided="false"
     transform="matrix(1.918934,0,0,1.957144,236.409,219.0043)"
     points="228.543,107.68 225.955,106.215 223.281,107.516 223.875,104.602 221.811,102.461 224.766,102.125 226.164,99.5011 227.396,102.207 230.324,102.726 228.131,104.735 228.543,107.68 "
     sodipodi:arg2="1.601941"
     sodipodi:arg1="0.9736225"
     sodipodi:r2="2.2389653"
     sodipodi:r1="4.4779305"
     sodipodi:cy="103.97687"
     sodipodi:cx="226.02466"
     sodipodi:sides="5"
     id="polygon562"
     style="font-size:12px;fill:#ffffef;fill-rule:evenodd;stroke-width:1pt"
     sodipodi:type="star" />
  <polygon
     d="m 228.54263,107.67979 -2.58769,-1.46504 -2.67388,1.30112 0.5937,-2.91377 -2.06371,-2.14093 2.95462,-0.33577 1.39843,-2.624291 1.23236,2.706261 2.92799,0.51903 -2.19299,2.00832 z"
     inkscape:randomized="0"
     inkscape:rounded="0"
     inkscape:flatsided="false"
     transform="matrix(2.262349,0,0,2.307406,27.74066,142.9576)"
     points="228.543,107.68 225.955,106.215 223.281,107.516 223.875,104.602 221.811,102.461 224.766,102.125 226.164,99.5011 227.396,102.207 230.324,102.726 228.131,104.735 228.543,107.68 "
     sodipodi:arg2="1.601941"
     sodipodi:arg1="0.9736225"
     sodipodi:r2="2.2389653"
     sodipodi:r1="4.4779305"
     sodipodi:cy="103.97687"
     sodipodi:cx="226.02466"
     sodipodi:sides="5"
     id="polygon563"
     style="font-size:12px;fill:#ffffef;fill-rule:evenodd;stroke-width:1pt"
     sodipodi:type="star" />
  <polygon
     d="m 228.54263,107.67979 -2.58769,-1.46504 -2.67388,1.30112 0.5937,-2.91377 -2.06371,-2.14093 2.95462,-0.33577 1.39843,-2.624291 1.23236,2.706261 2.92799,0.51903 -2.19299,2.00832 z"
     inkscape:randomized="0"
     inkscape:rounded="0"
     inkscape:flatsided="false"
     transform="matrix(2.262349,0,0,2.307406,-128.1514,84.4241)"
     points="228.543,107.68 225.955,106.215 223.281,107.516 223.875,104.602 221.811,102.461 224.766,102.125 226.164,99.5011 227.396,102.207 230.324,102.726 228.131,104.735 228.543,107.68 "
     sodipodi:arg2="1.601941"
     sodipodi:arg1="0.9736225"
     sodipodi:r2="2.2389653"
     sodipodi:r1="4.4779305"
     sodipodi:cy="103.97687"
     sodipodi:cx="226.02466"
     sodipodi:sides="5"
     id="polygon564"
     style="font-size:12px;fill:#ffffef;fill-rule:evenodd;stroke-width:1pt"
     sodipodi:type="star" />
  <polygon
     d="m 228.54263,107.67979 -2.58769,-1.46504 -2.67388,1.30112 0.5937,-2.91377 -2.06371,-2.14093 2.95462,-0.33577 1.39843,-2.624291 1.23236,2.706261 2.92799,0.51903 -2.19299,2.00832 z"
     inkscape:randomized="0"
     inkscape:rounded="0"
     inkscape:flatsided="false"
     transform="matrix(2.262349,0,0,2.307406,-109.4078,162.2767)"
     points="228.543,107.68 225.955,106.215 223.281,107.516 223.875,104.602 221.811,102.461 224.766,102.125 226.164,99.5011 227.396,102.207 230.324,102.726 228.131,104.735 228.543,107.68 "
     sodipodi:arg2="1.601941"
     sodipodi:arg1="0.9736225"
     sodipodi:r2="2.2389653"
     sodipodi:r1="4.4779305"
     sodipodi:cy="103.97687"
     sodipodi:cx="226.02466"
     sodipodi:sides="5"
     id="polygon565"
     style="font-size:12px;fill:#ffffef;fill-rule:evenodd;stroke-width:1pt"
     sodipodi:type="star" />
  <polygon
     d="m 228.54263,107.67979 -2.58769,-1.46504 -2.67388,1.30112 0.5937,-2.91377 -2.06371,-2.14093 2.95462,-0.33577 1.39843,-2.624291 1.23236,2.706261 2.92799,0.51903 -2.19299,2.00832 z"
     inkscape:randomized="0"
     inkscape:rounded="0"
     inkscape:flatsided="false"
     transform="matrix(1.998443,0,0,2.038245,145.4489,84.746)"
     points="228.543,107.68 225.955,106.215 223.281,107.516 223.875,104.602 221.811,102.461 224.766,102.125 226.164,99.5011 227.396,102.207 230.324,102.726 228.131,104.735 228.543,107.68 "
     sodipodi:arg2="1.601941"
     sodipodi:arg1="0.9736225"
     sodipodi:r2="2.2389653"
     sodipodi:r1="4.4779305"
     sodipodi:cy="103.97687"
     sodipodi:cx="226.02466"
     sodipodi:sides="5"
     id="polygon566"
     style="font-size:12px;fill:#ffffef;fill-rule:evenodd;stroke-width:1pt"
     sodipodi:type="star" />
  <polygon
     d="m 228.54263,107.67979 -2.58769,-1.46504 -2.67388,1.30112 0.5937,-2.91377 -2.06371,-2.14093 2.95462,-0.33577 1.39843,-2.624291 1.23236,2.706261 2.92799,0.51903 -2.19299,2.00832 z"
     inkscape:randomized="0"
     inkscape:rounded="0"
     inkscape:flatsided="false"
     transform="matrix(1.573939,0,0,1.60528,231.7748,182.0184)"
     points="228.543,107.68 225.955,106.215 223.281,107.516 223.875,104.602 221.811,102.461 224.766,102.125 226.164,99.5011 227.396,102.207 230.324,102.726 228.131,104.735 228.543,107.68 "
     sodipodi:arg2="1.601941"
     sodipodi:arg1="0.9736225"
     sodipodi:r2="2.2389653"
     sodipodi:r1="4.4779305"
     sodipodi:cy="103.97687"
     sodipodi:cx="226.02466"
     sodipodi:sides="5"
     id="polygon567"
     style="font-size:12px;fill:#ffffef;fill-rule:evenodd;stroke-width:1pt"
     sodipodi:type="star" />
  <polygon
     d="m 228.54263,107.67979 -2.58769,-1.46504 -2.67388,1.30112 0.5937,-2.91377 -2.06371,-2.14093 2.95462,-0.33577 1.39843,-2.624291 1.23236,2.706261 2.92799,0.51903 -2.19299,2.00832 z"
     inkscape:randomized="0"
     inkscape:rounded="0"
     inkscape:flatsided="false"
     transform="matrix(1.51038,0,0,1.540468,35.00562,258.9632)"
     points="228.543,107.68 225.955,106.215 223.281,107.516 223.875,104.602 221.811,102.461 224.766,102.125 226.164,99.5011 227.396,102.207 230.324,102.726 228.131,104.735 228.543,107.68 "
     sodipodi:arg2="1.601941"
     sodipodi:arg1="0.9736225"
     sodipodi:r2="2.2389653"
     sodipodi:r1="4.4779305"
     sodipodi:cy="103.97687"
     sodipodi:cx="226.02466"
     sodipodi:sides="5"
     id="polygon568"
     style="font-size:12px;fill:#ffffef;fill-rule:evenodd;stroke-width:1pt"
     sodipodi:type="star" />
  <polygon
     d="m 228.54263,107.67979 -2.58769,-1.46504 -2.67388,1.30112 0.5937,-2.91377 -2.06371,-2.14093 2.95462,-0.33577 1.39843,-2.624291 1.23236,2.706261 2.92799,0.51903 -2.19299,2.00832 z"
     inkscape:randomized="0"
     inkscape:rounded="0"
     inkscape:flatsided="false"
     transform="matrix(1.23085,0,0,1.152496,394.7542,318.6817)"
     points="228.543,107.68 225.955,106.215 223.281,107.516 223.875,104.602 221.811,102.461 224.766,102.125 226.164,99.5011 227.396,102.207 230.324,102.726 228.131,104.735 228.543,107.68 "
     sodipodi:arg2="1.601941"
     sodipodi:arg1="0.9736225"
     sodipodi:r2="2.2389653"
     sodipodi:r1="4.4779305"
     sodipodi:cy="103.97687"
     sodipodi:cx="226.02466"
     sodipodi:sides="5"
     id="polygon569"
     style="font-size:12px;fill:#ffffef;fill-rule:evenodd;stroke-width:1pt"
     sodipodi:type="star" />
  <polygon
     d="m 228.54263,107.67979 -2.58769,-1.46504 -2.67388,1.30112 0.5937,-2.91377 -2.06371,-2.14093 2.95462,-0.33577 1.39843,-2.624291 1.23236,2.706261 2.92799,0.51903 -2.19299,2.00832 z"
     inkscape:randomized="0"
     inkscape:rounded="0"
     inkscape:flatsided="false"
     transform="matrix(1.51038,0,0,1.540468,35.00562,258.9632)"
     points="228.543,107.68 225.955,106.215 223.281,107.516 223.875,104.602 221.811,102.461 224.766,102.125 226.164,99.5011 227.396,102.207 230.324,102.726 228.131,104.735 228.543,107.68 "
     sodipodi:arg2="1.601941"
     sodipodi:arg1="0.9736225"
     sodipodi:r2="2.2389653"
     sodipodi:r1="4.4779305"
     sodipodi:cy="103.97687"
     sodipodi:cx="226.02466"
     sodipodi:sides="5"
     id="polygon570"
     style="font-size:12px;fill:#ffffef;fill-rule:evenodd;stroke-width:1pt"
     sodipodi:type="star" />
  <polygon
     d="m 228.54263,107.67979 -2.58769,-1.46504 -2.67388,1.30112 0.5937,-2.91377 -2.06371,-2.14093 2.95462,-0.33577 1.39843,-2.624291 1.23236,2.706261 2.92799,0.51903 -2.19299,2.00832 z"
     inkscape:randomized="0"
     inkscape:rounded="0"
     inkscape:flatsided="false"
     transform="matrix(1.51038,0,0,1.540468,35.00562,258.9632)"
     points="228.543,107.68 225.955,106.215 223.281,107.516 223.875,104.602 221.811,102.461 224.766,102.125 226.164,99.5011 227.396,102.207 230.324,102.726 228.131,104.735 228.543,107.68 "
     sodipodi:arg2="1.601941"
     sodipodi:arg1="0.9736225"
     sodipodi:r2="2.2389653"
     sodipodi:r1="4.4779305"
     sodipodi:cy="103.97687"
     sodipodi:cx="226.02466"
     sodipodi:sides="5"
     id="polygon571"
     style="font-size:12px;fill:#ffffef;fill-rule:evenodd;stroke-width:1pt"
     sodipodi:type="star" />
  <polygon
     d="m 228.54263,107.67979 -2.58769,-1.46504 -2.67388,1.30112 0.5937,-2.91377 -2.06371,-2.14093 2.95462,-0.33577 1.39843,-2.624291 1.23236,2.706261 2.92799,0.51903 -2.19299,2.00832 z"
     inkscape:randomized="0"
     inkscape:rounded="0"
     inkscape:flatsided="false"
     transform="matrix(1.51038,0,0,1.540468,97.04384,258.9614)"
     points="228.543,107.68 225.955,106.215 223.281,107.516 223.875,104.602 221.811,102.461 224.766,102.125 226.164,99.5011 227.396,102.207 230.324,102.726 228.131,104.735 228.543,107.68 "
     sodipodi:arg2="1.601941"
     sodipodi:arg1="0.9736225"
     sodipodi:r2="2.2389653"
     sodipodi:r1="4.4779305"
     sodipodi:cy="103.97687"
     sodipodi:cx="226.02466"
     sodipodi:sides="5"
     id="polygon572"
     style="font-size:12px;fill:#ffffef;fill-rule:evenodd;stroke-width:1pt"
     sodipodi:type="star" />
  <polygon
     d="m 228.54263,107.67979 -2.58769,-1.46504 -2.67388,1.30112 0.5937,-2.91377 -2.06371,-2.14093 2.95462,-0.33577 1.39843,-2.624291 1.23236,2.706261 2.92799,0.51903 -2.19299,2.00832 z"
     inkscape:randomized="0"
     inkscape:rounded="0"
     inkscape:flatsided="false"
     transform="matrix(1.51038,0,0,1.540468,89.3351,279.5982)"
     points="228.543,107.68 225.955,106.215 223.281,107.516 223.875,104.602 221.811,102.461 224.766,102.125 226.164,99.5011 227.396,102.207 230.324,102.726 228.131,104.735 228.543,107.68 "
     sodipodi:arg2="1.601941"
     sodipodi:arg1="0.9736225"
     sodipodi:r2="2.2389653"
     sodipodi:r1="4.4779305"
     sodipodi:cy="103.97687"
     sodipodi:cx="226.02466"
     sodipodi:sides="5"
     id="polygon573"
     style="font-size:12px;fill:#ffffef;fill-rule:evenodd;stroke-width:1pt"
     sodipodi:type="star" />
  <polygon
     d="m 228.54263,107.67979 -2.58769,-1.46504 -2.67388,1.30112 0.5937,-2.91377 -2.06371,-2.14093 2.95462,-0.33577 1.39843,-2.624291 1.23236,2.706261 2.92799,0.51903 -2.19299,2.00832 z"
     inkscape:randomized="0"
     inkscape:rounded="0"
     inkscape:flatsided="false"
     transform="matrix(1.51038,0,0,1.540468,218.1533,242.0205)"
     points="228.543,107.68 225.955,106.215 223.281,107.516 223.875,104.602 221.811,102.461 224.766,102.125 226.164,99.5011 227.396,102.207 230.324,102.726 228.131,104.735 228.543,107.68 "
     sodipodi:arg2="1.601941"
     sodipodi:arg1="0.9736225"
     sodipodi:r2="2.2389653"
     sodipodi:r1="4.4779305"
     sodipodi:cy="103.97687"
     sodipodi:cx="226.02466"
     sodipodi:sides="5"
     id="polygon574"
     style="font-size:12px;fill:#ffffef;fill-rule:evenodd;stroke-width:1pt"
     sodipodi:type="star" />
  <polygon
     d="m 228.54263,107.67979 -2.58769,-1.46504 -2.67388,1.30112 0.5937,-2.91377 -2.06371,-2.14093 2.95462,-0.33577 1.39843,-2.624291 1.23236,2.706261 2.92799,0.51903 -2.19299,2.00832 z"
     inkscape:randomized="0"
     inkscape:rounded="0"
     inkscape:flatsided="false"
     transform="matrix(1.51038,0,0,1.540468,180.3522,242.0108)"
     points="228.543,107.68 225.955,106.215 223.281,107.516 223.875,104.602 221.811,102.461 224.766,102.125 226.164,99.5011 227.396,102.207 230.324,102.726 228.131,104.735 228.543,107.68 "
     sodipodi:arg2="1.601941"
     sodipodi:arg1="0.9736225"
     sodipodi:r2="2.2389653"
     sodipodi:r1="4.4779305"
     sodipodi:cy="103.97687"
     sodipodi:cx="226.02466"
     sodipodi:sides="5"
     id="polygon575"
     style="font-size:12px;fill:#ffffef;fill-rule:evenodd;stroke-width:1pt"
     sodipodi:type="star" />
  <polygon
     d="m 228.54263,107.67979 -2.58769,-1.46504 -2.67388,1.30112 0.5937,-2.91377 -2.06371,-2.14093 2.95462,-0.33577 1.39843,-2.624291 1.23236,2.706261 2.92799,0.51903 -2.19299,2.00832 z"
     inkscape:randomized="0"
     inkscape:rounded="0"
     inkscape:flatsided="false"
     transform="matrix(0.946467,0,0,0.965321,206.7079,290.7711)"
     points="228.543,107.68 225.955,106.215 223.281,107.516 223.875,104.602 221.811,102.461 224.766,102.125 226.164,99.5011 227.396,102.207 230.324,102.726 228.131,104.735 228.543,107.68 "
     sodipodi:arg2="1.601941"
     sodipodi:arg1="0.9736225"
     sodipodi:r2="2.2389653"
     sodipodi:r1="4.4779305"
     sodipodi:cy="103.97687"
     sodipodi:cx="226.02466"
     sodipodi:sides="5"
     id="polygon576"
     style="font-size:12px;fill:#ffffef;fill-rule:evenodd;stroke-width:1pt"
     sodipodi:type="star" />
  <polygon
     d="m 228.54263,107.67979 -2.58769,-1.46504 -2.67388,1.30112 0.5937,-2.91377 -2.06371,-2.14093 2.95462,-0.33577 1.39843,-2.624291 1.23236,2.706261 2.92799,0.51903 -2.19299,2.00832 z"
     inkscape:randomized="0"
     inkscape:rounded="0"
     inkscape:flatsided="false"
     transform="matrix(1.51038,0,0,1.540468,326.0498,293.2299)"
     points="228.543,107.68 225.955,106.215 223.281,107.516 223.875,104.602 221.811,102.461 224.766,102.125 226.164,99.5011 227.396,102.207 230.324,102.726 228.131,104.735 228.543,107.68 "
     sodipodi:arg2="1.601941"
     sodipodi:arg1="0.9736225"
     sodipodi:r2="2.2389653"
     sodipodi:r1="4.4779305"
     sodipodi:cy="103.97687"
     sodipodi:cx="226.02466"
     sodipodi:sides="5"
     id="polygon577"
     style="font-size:12px;fill:#ffffef;fill-rule:evenodd;stroke-width:1pt"
     sodipodi:type="star" />
  <polygon
     d="m 228.54263,107.67979 -2.58769,-1.46504 -2.67388,1.30112 0.5937,-2.91377 -2.06371,-2.14093 2.95462,-0.33577 1.39843,-2.624291 1.23236,2.706261 2.92799,0.51903 -2.19299,2.00832 z"
     inkscape:randomized="0"
     inkscape:rounded="0"
     inkscape:flatsided="false"
     transform="matrix(1.251169,0,0,1.279313,353.8234,325.4789)"
     points="228.543,107.68 225.955,106.215 223.281,107.516 223.875,104.602 221.811,102.461 224.766,102.125 226.164,99.5011 227.396,102.207 230.324,102.726 228.131,104.735 228.543,107.68 "
     sodipodi:arg2="1.601941"
     sodipodi:arg1="0.9736225"
     sodipodi:r2="2.2389653"
     sodipodi:r1="4.4779305"
     sodipodi:cy="103.97687"
     sodipodi:cx="226.02466"
     sodipodi:sides="5"
     id="polygon578"
     style="font-size:12px;fill:#ffffef;fill-rule:evenodd;stroke-width:1pt"
     sodipodi:type="star" />
  <polygon
     d="m 228.54263,107.67979 -2.58769,-1.46504 -2.67388,1.30112 0.5937,-2.91377 -2.06371,-2.14093 2.95462,-0.33577 1.39843,-2.624291 1.23236,2.706261 2.92799,0.51903 -2.19299,2.00832 z"
     inkscape:randomized="0"
     inkscape:rounded="0"
     inkscape:flatsided="false"
     transform="matrix(1.16531,0,0,1.189602,388.289,334.7798)"
     points="228.543,107.68 225.955,106.215 223.281,107.516 223.875,104.602 221.811,102.461 224.766,102.125 226.164,99.5011 227.396,102.207 230.324,102.726 228.131,104.735 228.543,107.68 "
     sodipodi:arg2="1.601941"
     sodipodi:arg1="0.9736225"
     sodipodi:r2="2.2389653"
     sodipodi:r1="4.4779305"
     sodipodi:cy="103.97687"
     sodipodi:cx="226.02466"
     sodipodi:sides="5"
     id="polygon579"
     style="font-size:12px;fill:#ffffef;fill-rule:evenodd;stroke-width:1pt"
     sodipodi:type="star" />
  <polygon
     d="m 228.54263,107.67979 -2.58769,-1.46504 -2.67388,1.30112 0.5937,-2.91377 -2.06371,-2.14093 2.95462,-0.33577 1.39843,-2.624291 1.23236,2.706261 2.92799,0.51903 -2.19299,2.00832 z"
     inkscape:randomized="0"
     inkscape:rounded="0"
     inkscape:flatsided="false"
     transform="matrix(1.122386,0,0,1.144745,440.7432,302.3916)"
     points="228.543,107.68 225.955,106.215 223.281,107.516 223.875,104.602 221.811,102.461 224.766,102.125 226.164,99.5011 227.396,102.207 230.324,102.726 228.131,104.735 228.543,107.68 "
     sodipodi:arg2="1.601941"
     sodipodi:arg1="0.9736225"
     sodipodi:r2="2.2389653"
     sodipodi:r1="4.4779305"
     sodipodi:cy="103.97687"
     sodipodi:cx="226.02466"
     sodipodi:sides="5"
     id="polygon580"
     style="font-size:12px;fill:#ffffef;fill-rule:evenodd;stroke-width:1pt"
     sodipodi:type="star" />
  <polygon
     d="m 228.54263,107.67979 -2.58769,-1.46504 -2.67388,1.30112 0.5937,-2.91377 -2.06371,-2.14093 2.95462,-0.33577 1.39843,-2.624291 1.23236,2.706261 2.92799,0.51903 -2.19299,2.00832 z"
     inkscape:randomized="0"
     inkscape:rounded="0"
     inkscape:flatsided="false"
     transform="matrix(1.465793,0,0,1.41388,304.3925,331.984)"
     points="228.543,107.68 225.955,106.215 223.281,107.516 223.875,104.602 221.811,102.461 224.766,102.125 226.164,99.5011 227.396,102.207 230.324,102.726 228.131,104.735 228.543,107.68 "
     sodipodi:arg2="1.601941"
     sodipodi:arg1="0.9736225"
     sodipodi:r2="2.2389653"
     sodipodi:r1="4.4779305"
     sodipodi:cy="103.97687"
     sodipodi:cx="226.02466"
     sodipodi:sides="5"
     id="polygon581"
     style="font-size:12px;fill:#ffffef;fill-rule:evenodd;stroke-width:1pt"
     sodipodi:type="star" />
  <polygon
     d="m 228.54263,107.67979 -2.58769,-1.46504 -2.67388,1.30112 0.5937,-2.91377 -2.06371,-2.14093 2.95462,-0.33577 1.39843,-2.624291 1.23236,2.706261 2.92799,0.51903 -2.19299,2.00832 z"
     inkscape:randomized="0"
     inkscape:rounded="0"
     inkscape:flatsided="false"
     transform="matrix(1.337019,0,0,1.41388,334.0504,348.9344)"
     points="228.543,107.68 225.955,106.215 223.281,107.516 223.875,104.602 221.811,102.461 224.766,102.125 226.164,99.5011 227.396,102.207 230.324,102.726 228.131,104.735 228.543,107.68 "
     sodipodi:arg2="1.601941"
     sodipodi:arg1="0.9736225"
     sodipodi:r2="2.2389653"
     sodipodi:r1="4.4779305"
     sodipodi:cy="103.97687"
     sodipodi:cx="226.02466"
     sodipodi:sides="5"
     id="polygon582"
     style="font-size:12px;fill:#ffffef;fill-rule:evenodd;stroke-width:1pt"
     sodipodi:type="star" />
  <polygon
     d="m 228.54263,107.67979 -2.58769,-1.46504 -2.67388,1.30112 0.5937,-2.91377 -2.06371,-2.14093 2.95462,-0.33577 1.39843,-2.624291 1.23236,2.706261 2.92799,0.51903 -2.19299,2.00832 z"
     inkscape:randomized="0"
     inkscape:rounded="0"
     inkscape:flatsided="false"
     transform="matrix(1.122386,0,0,1.144745,354.5056,339.6038)"
     points="228.543,107.68 225.955,106.215 223.281,107.516 223.875,104.602 221.811,102.461 224.766,102.125 226.164,99.5011 227.396,102.207 230.324,102.726 228.131,104.735 228.543,107.68 "
     sodipodi:arg2="1.601941"
     sodipodi:arg1="0.9736225"
     sodipodi:r2="2.2389653"
     sodipodi:r1="4.4779305"
     sodipodi:cy="103.97687"
     sodipodi:cx="226.02466"
     sodipodi:sides="5"
     id="polygon583"
     style="font-size:12px;fill:#ffffef;fill-rule:evenodd;stroke-width:1pt"
     sodipodi:type="star" />
  <polygon
     d="m 228.54263,107.67979 -2.58769,-1.46504 -2.67388,1.30112 0.5937,-2.91377 -2.06371,-2.14093 2.95462,-0.33577 1.39843,-2.624291 1.23236,2.706261 2.92799,0.51903 -2.19299,2.00832 z"
     inkscape:randomized="0"
     inkscape:rounded="0"
     inkscape:flatsided="false"
     transform="matrix(1.122386,0,0,1.144745,327.7053,339.6053)"
     points="228.543,107.68 225.955,106.215 223.281,107.516 223.875,104.602 221.811,102.461 224.766,102.125 226.164,99.5011 227.396,102.207 230.324,102.726 228.131,104.735 228.543,107.68 "
     sodipodi:arg2="1.601941"
     sodipodi:arg1="0.9736225"
     sodipodi:r2="2.2389653"
     sodipodi:r1="4.4779305"
     sodipodi:cy="103.97687"
     sodipodi:cx="226.02466"
     sodipodi:sides="5"
     id="polygon584"
     style="font-size:12px;fill:#ffffef;fill-rule:evenodd;stroke-width:1pt"
     sodipodi:type="star" />
  <polygon
     d="m 228.54263,107.67979 -2.58769,-1.46504 -2.67388,1.30112 0.5937,-2.91377 -2.06371,-2.14093 2.95462,-0.33577 1.39843,-2.624291 1.23236,2.706261 2.92799,0.51903 -2.19299,2.00832 z"
     inkscape:randomized="0"
     inkscape:rounded="0"
     inkscape:flatsided="false"
     transform="matrix(1.122386,0,0,1.144745,282.2016,299.8121)"
     points="228.543,107.68 225.955,106.215 223.281,107.516 223.875,104.602 221.811,102.461 224.766,102.125 226.164,99.5011 227.396,102.207 230.324,102.726 228.131,104.735 228.543,107.68 "
     sodipodi:arg2="1.601941"
     sodipodi:arg1="0.9736225"
     sodipodi:r2="2.2389653"
     sodipodi:r1="4.4779305"
     sodipodi:cy="103.97687"
     sodipodi:cx="226.02466"
     sodipodi:sides="5"
     id="polygon585"
     style="font-size:12px;fill:#ffffef;fill-rule:evenodd;stroke-width:1pt"
     sodipodi:type="star" />
  <polygon
     d="m 228.54263,107.67979 -2.58769,-1.46504 -2.67388,1.30112 0.5937,-2.91377 -2.06371,-2.14093 2.95462,-0.33577 1.39843,-2.624291 1.23236,2.706261 2.92799,0.51903 -2.19299,2.00832 z"
     inkscape:randomized="0"
     inkscape:rounded="0"
     inkscape:flatsided="false"
     transform="matrix(0.950677,0,0,0.969614,326.5137,399.7718)"
     points="228.543,107.68 225.955,106.215 223.281,107.516 223.875,104.602 221.811,102.461 224.766,102.125 226.164,99.5011 227.396,102.207 230.324,102.726 228.131,104.735 228.543,107.68 "
     sodipodi:arg2="1.601941"
     sodipodi:arg1="0.9736225"
     sodipodi:r2="2.2389653"
     sodipodi:r1="4.4779305"
     sodipodi:cy="103.97687"
     sodipodi:cx="226.02466"
     sodipodi:sides="5"
     id="polygon586"
     style="font-size:12px;fill:#ffffef;fill-rule:evenodd;stroke-width:1pt"
     sodipodi:type="star" />
  <polygon
     d="m 228.54263,107.67979 -2.58769,-1.46504 -2.67388,1.30112 0.5937,-2.91377 -2.06371,-2.14093 2.95462,-0.33577 1.39843,-2.624291 1.23236,2.706261 2.92799,0.51903 -2.19299,2.00832 z"
     inkscape:randomized="0"
     inkscape:rounded="0"
     inkscape:flatsided="false"
     transform="matrix(2.262349,0,0,2.307406,-41.98947,124.535)"
     points="228.543,107.68 225.955,106.215 223.281,107.516 223.875,104.602 221.811,102.461 224.766,102.125 226.164,99.5011 227.396,102.207 230.324,102.726 228.131,104.735 228.543,107.68 "
     sodipodi:arg2="1.601941"
     sodipodi:arg1="0.9736225"
     sodipodi:r2="2.2389653"
     sodipodi:r1="4.4779305"
     sodipodi:cy="103.97687"
     sodipodi:cx="226.02466"
     sodipodi:sides="5"
     id="polygon587"
     style="font-size:12px;fill:#ffffef;fill-rule:evenodd;stroke-width:1pt"
     sodipodi:type="star" />
  <path
     sodipodi:nodetypes="ccccc"
     id="path726"
     d="m 713.64351,422.2117 c 2.87932,-7.53003 6.5937,-18.88601 8.56611,-29.30913 C 621.86202,304.7513 509.99466,259.59356 368.64274,268.88481 c -5.06731,9.71664 -9.12364,19.88603 -12.54314,30.89126 167.47396,-15.97798 290.24161,58.17048 357.54391,122.43563 z"
     style="font-size:12px;fill:#ffffff;fill-rule:evenodd;stroke-width:1pt;stroke-opacity:0.503145" />
  <path
     id="path790"
     d="m 668.5333,372.64838 3.58553,1.95775 c -0.56249,1.27118 -0.71364,2.38314 -0.45841,3.33092 0.26513,0.95774 0.92425,1.79109 1.97488,2.50255 1.11506,0.76121 2.11118,1.09455 2.98835,1.005 0.88709,-0.0896 1.54869,-0.45275 1.97737,-1.08709 0.27009,-0.40548 0.3816,-0.83335 0.33204,-1.27864 -0.0396,-0.44528 -0.28496,-0.97763 -0.73346,-1.59207 -0.30974,-0.41544 -1.0655,-1.29357 -2.2648,-2.63191 -1.54126,-1.71894 -2.46056,-3.16922 -2.75791,-4.35084 -0.41133,-1.66173 -0.16106,-3.17172 0.75576,-4.53244 0.59222,-0.87564 1.38763,-1.5274 2.3887,-1.95278 1.01594,-0.42787 2.12356,-0.52489 3.31791,-0.29354 1.20178,0.23383 2.46551,0.79852 3.7788,1.69407 2.15082,1.46023 3.44924,3.0324 3.89279,4.71403 0.45345,1.68661 0.17593,3.33839 -0.83506,4.95534 l -3.56074,-2.19657 c 0.44602,-0.98509 0.55505,-1.83586 0.32212,-2.55229 -0.21805,-0.71893 -0.81523,-1.408 -1.79152,-2.0697 -1.00355,-0.68161 -1.93028,-1.00998 -2.77773,-0.98261 -0.54761,0.0174 -0.96886,0.24876 -1.26868,0.69404 -0.27505,0.40797 -0.337,0.87316 -0.1908,1.39556 0.1908,0.66419 0.98868,1.76621 2.40604,3.30853 1.41241,1.53984 2.37631,2.79857 2.88924,3.77372 0.52531,0.97266 0.76319,1.98512 0.71363,3.03489 -0.0347,1.04729 -0.42124,2.11448 -1.15222,3.20157 -0.66408,0.98758 -1.5586,1.72143 -2.68357,2.21149 -1.12497,0.49006 -2.32675,0.60947 -3.6103,0.35325 -1.27612,-0.2612 -2.65879,-0.89804 -4.14553,-1.9105 -2.16569,-1.46769 -3.49385,-3.09957 -3.97952,-4.88817 -0.47823,-1.79606 -0.18584,-3.7364 0.88709,-5.81356 z"
     style="font-weight:bold;font-size:12px;font-family:Arial;fill:#309e3a;stroke-width:1pt;stroke-opacity:0.501961" />
  <path
     id="path791"
     d="m 651.53242,361.48394 3.66234,1.8085 c -0.51045,1.29108 -0.617,2.4105 -0.32461,3.34585 0.30726,0.94529 0.99364,1.75377 2.07401,2.42294 1.14726,0.71395 2.15329,1.00749 3.02551,0.8831 0.88709,-0.12686 1.53383,-0.51244 1.93277,-1.1642 0.2577,-0.41543 0.34938,-0.84828 0.28248,-1.29108 -0.057,-0.44528 -0.32461,-0.96768 -0.80036,-1.56471 -0.32461,-0.40299 -1.1101,-1.24629 -2.3664,-2.53737 -1.60816,-1.65675 -2.58445,-3.06972 -2.92888,-4.23641 -0.47824,-1.64432 -0.28744,-3.16177 0.56992,-4.55981 0.56,-0.89803 1.32815,-1.57964 2.3094,-2.04482 1.00107,-0.46767 2.10374,-0.61196 3.30552,-0.43036 1.2117,0.18906 2.49525,0.70151 3.84323,1.54232 2.21029,1.37068 3.56818,2.89062 4.07863,4.55235 0.52036,1.66919 0.30973,3.32843 -0.63187,4.98518 l -3.64995,-2.05228 c 0.40638,-1.00002 0.48319,-1.85328 0.22053,-2.55976 -0.24779,-0.71146 -0.87222,-1.37565 -1.87081,-1.99756 -1.03329,-0.6418 -1.97241,-0.93037 -2.8149,-0.86818 -0.54761,0.0373 -0.95895,0.28857 -1.24143,0.74629 -0.25522,0.41792 -0.3023,0.88061 -0.1338,1.39804 0.21557,0.65673 1.05806,1.72641 2.53489,3.21152 1.47187,1.48013 2.48781,2.69906 3.03791,3.65182 0.56496,0.95027 0.84248,1.95278 0.83505,3.00256 0.01,1.04977 -0.33699,2.1294 -1.02089,3.24883 -0.62444,1.00748 -1.49418,1.78113 -2.59437,2.31846 -1.10514,0.53484 -2.30445,0.70151 -3.59543,0.49752 -1.28108,-0.20896 -2.68853,-0.79355 -4.21739,-1.74133 -2.2202,-1.38312 -3.61278,-2.95778 -4.17031,-4.72648 -0.55505,-1.77616 -0.33947,-3.72396 0.64921,-5.84093 z"
     style="font-weight:bold;font-size:12px;font-family:Arial;fill:#309e3a;stroke-width:1pt;stroke-opacity:0.501961" />
  <path
     id="path792"
     d="m 630.49007,355.847 10.77888,-17.72429 13.09075,8.02257 -1.82373,3.00007 -9.52258,-5.83844 -2.39365,3.92795 8.86345,5.43296 -1.8163,2.98514 -8.86345,-5.43047 -2.93136,4.82349 9.86205,6.04492 -1.81878,2.98763 z"
     style="font-weight:bold;font-size:12px;font-family:Arial;fill:#309e3a;stroke-width:1pt;stroke-opacity:0.501961" />
  <path
     id="path795"
     d="m 599.84586,330.67727 1.59825,-3.11201 8.00114,4.14188 -3.77136,7.35092 c -1.16957,0.35324 -2.63897,0.43782 -4.4181,0.25125 -1.76179,-0.19155 -3.39969,-0.67664 -4.91368,-1.46024 -1.92286,-0.99504 -3.39225,-2.26124 -4.40819,-3.80854 -1.01098,-1.55476 -1.49418,-3.26624 -1.44214,-5.14191 0.057,-1.88561 0.5377,-3.71153 1.44709,-5.48271 0.98373,-1.92293 2.26729,-3.42048 3.83828,-4.50259 1.56355,-1.07714 3.3303,-1.61447 5.28536,-1.61447 1.49418,-0.005 3.1172,0.45275 4.87403,1.35576 2.28463,1.1841 3.81845,2.58712 4.59899,4.21402 0.79788,1.62442 0.94408,3.37819 0.44107,5.26629 l -4.04146,-1.21644 c 0.20566,-1.03983 0.0842,-2.00751 -0.36921,-2.89808 -0.43859,-0.89803 -1.19435,-1.62193 -2.26232,-2.17667 -1.62551,-0.84081 -3.17915,-0.99256 -4.67333,-0.45274 -1.48178,0.53732 -2.74303,1.82093 -3.78375,3.85332 -1.12745,2.19159 -1.48922,4.08716 -1.08285,5.68918 0.41133,1.58959 1.40002,2.7936 2.97596,3.60954 0.77559,0.40051 1.63046,0.65176 2.56215,0.75126 0.94656,0.097 1.80887,0.0721 2.59685,-0.0746 l 1.20178,-2.34334 z"
     style="font-weight:bold;font-size:12px;font-family:Arial;fill:#309e3a;stroke-width:1pt;stroke-opacity:0.501961" />
  <path
     id="path804"
     d="m 466.16057,297.52726 3.01313,-20.54276 6.17989,0.91544 1.66267,14.55755 5.719,-13.47046 6.20218,0.91545 -3.01065,20.54524 -3.83827,-0.56717 2.37383,-16.17202 -6.43511,15.5725 -3.97703,-0.58957 -1.68002,-16.76904 -2.37135,16.16953 z"
     style="font-weight:bold;font-size:12px;font-family:Arial;fill:#309e3a;stroke-width:1pt;stroke-opacity:0.501961" />
  <path
     id="path805"
     d="m 445.26442,295.10183 1.93277,-20.67958 15.26883,1.44282 -0.32213,3.49759 -11.11339,-1.04728 -0.43116,4.58468 10.33781,0.97266 -0.3246,3.48515 -10.34029,-0.97514 -0.52284,5.62699 11.49995,1.08211 -0.32213,3.48765 z"
     style="font-weight:bold;font-size:12px;font-family:Arial;fill:#309e3a;stroke-width:1pt;stroke-opacity:0.501961" />
  <g
     style="font-size:12px"
     transform="matrix(2.030321,-1.299594,1.294518,2.038283,-138.1399,168.4522)"
     id="g812">
    <path
       id="path810"
       d="m 154.793,154.478 c 0.49,-0.725 1.01,-1.26 1.56,-1.605 0.406,-0.253 0.847,-0.429 1.319,-0.529 0.476,-0.098 0.928,-0.103 1.356,-0.016 0.57,0.112 1.145,0.364 1.724,0.755 1.048,0.71 1.666,1.602 1.853,2.676 0.192,1.078 -0.105,2.196 -0.888,3.354 -0.777,1.148 -1.698,1.837 -2.763,2.064 -1.062,0.225 -2.116,-0.016 -3.16,-0.723 -1.059,-0.716 -1.681,-1.607 -1.87,-2.673 -0.187,-1.07 0.103,-2.171 0.869,-3.303 z"
       style="font-weight:bold;font-size:12px;font-family:Arial;fill:#309e3a;stroke-width:1pt;stroke-opacity:0.501961" />
    <path
       id="path811"
       d="m 156.306,155.431 c -0.545,0.805 -0.773,1.543 -0.683,2.212 0.091,0.666 0.424,1.193 0.997,1.58 0.572,0.387 1.181,0.499 1.824,0.336 0.649,-0.165 1.252,-0.66 1.811,-1.485 0.551,-0.815 0.783,-1.545 0.696,-2.189 -0.085,-0.642 -0.423,-1.163 -1.015,-1.564 -0.592,-0.4 -1.207,-0.519 -1.846,-0.357 -0.636,0.159 -1.231,0.648 -1.784,1.467 z"
       style="font-weight:bold;font-size:12px;font-family:Arial;fill:#f7ffff;fill-opacity:1;stroke-width:1pt;stroke-opacity:0.501961" />
  </g>
  <g
     style="font-size:12px"
     transform="matrix(2.009958,-1.331112,1.325913,2.017839,-138.5289,176.7006)"
     id="g815">
    <path
       id="path808"
       d="m 160.442,163.422 4.814,-7.115 3.023,2.046 c 0.761,0.515 1.269,0.952 1.524,1.314 0.261,0.36 0.384,0.774 0.37,1.241 -0.014,0.467 -0.163,0.91 -0.448,1.331 -0.361,0.534 -0.817,0.869 -1.367,1.006 -0.548,0.134 -1.165,0.035 -1.851,-0.297 0.188,0.391 0.31,0.764 0.363,1.116 0.058,0.354 0.07,0.924 0.039,1.71 l -0.07,1.975 -1.718,-1.162 0.009,-2.251 c 0.006,-0.802 -0.012,-1.321 -0.051,-1.555 -0.038,-0.238 -0.115,-0.434 -0.232,-0.589 -0.115,-0.157 -0.337,-0.348 -0.668,-0.571 l -0.29,-0.197 -2.01,2.97 z"
       style="font-weight:bold;font-size:12px;font-family:Arial;fill:#309e3a;stroke-width:1pt;stroke-opacity:0.501961" />
    <path
       id="path809"
       d="m 164.657,160.288 1.063,0.719 c 0.689,0.467 1.139,0.729 1.35,0.787 0.211,0.057 0.413,0.048 0.606,-0.029 0.193,-0.077 0.362,-0.222 0.507,-0.435 0.162,-0.24 0.228,-0.476 0.196,-0.709 -0.025,-0.234 -0.141,-0.45 -0.348,-0.646 -0.106,-0.095 -0.45,-0.34 -1.032,-0.734 l -1.121,-0.758 z"
       style="font-weight:bold;font-size:12px;font-family:Arial;fill:#ffffff;fill-opacity:1;stroke-width:1pt;stroke-opacity:0.501961" />
  </g>
  <g
     style="font-size:12px"
     transform="matrix(2.060093,-1.251481,1.246593,2.068172,-131.8419,155.6178)"
     id="g818">
    <path
       id="path806"
       d="m 172.424,161.157 2.626,1.776 c 0.592,0.401 1.012,0.751 1.261,1.052 0.334,0.405 0.544,0.866 0.629,1.381 0.086,0.515 0.052,1.053 -0.101,1.615 -0.152,0.558 -0.452,1.17 -0.903,1.836 -0.396,0.586 -0.811,1.041 -1.243,1.367 -0.529,0.397 -1.065,0.644 -1.613,0.741 -0.412,0.075 -0.877,0.036 -1.393,-0.115 -0.385,-0.114 -0.843,-0.351 -1.374,-0.71 l -2.702,-1.828 z"
       style="font-weight:bold;font-size:12px;font-family:Arial;fill:#309e3a;stroke-width:1pt;stroke-opacity:0.501961" />
    <path
       id="path807"
       d="m 173.046,163.332 -3.188,4.713 1.073,0.725 c 0.4,0.272 0.706,0.445 0.914,0.52 0.272,0.099 0.532,0.131 0.778,0.095 0.25,-0.034 0.53,-0.177 0.841,-0.429 0.314,-0.254 0.657,-0.656 1.029,-1.206 0.372,-0.55 0.609,-1.006 0.712,-1.366 0.102,-0.36 0.121,-0.681 0.058,-0.965 -0.063,-0.283 -0.209,-0.544 -0.438,-0.784 -0.17,-0.181 -0.548,-0.47 -1.134,-0.866 z"
       style="font-weight:bold;font-size:12px;font-family:Arial;fill:#ffffff;fill-opacity:1;stroke-width:1pt;stroke-opacity:0.501961" />
  </g>
  <g
     style="font-size:12px"
     transform="matrix(2.254291,-0.849572,0.846253,2.263131,-87.99839,49.2253)"
     id="g824">
    <path
       id="path800"
       d="m 200.752,190.693 4.813,-7.115 2.306,1.56 c 0.873,0.591 1.419,1.012 1.636,1.263 0.335,0.382 0.519,0.846 0.551,1.391 0.034,0.542 -0.141,1.096 -0.524,1.662 -0.295,0.437 -0.622,0.751 -0.983,0.941 -0.359,0.191 -0.72,0.288 -1.082,0.294 -0.357,0.004 -0.68,-0.052 -0.97,-0.168 -0.388,-0.164 -0.908,-0.466 -1.558,-0.906 l -0.936,-0.634 -1.816,2.684 z"
       style="font-weight:bold;font-size:12px;font-family:Arial;fill:#309e3a;stroke-width:1pt;stroke-opacity:0.501961" />
    <path
       id="path801"
       d="m 206.188,185.754 -1.366,2.019 0.786,0.532 c 0.567,0.383 0.97,0.602 1.211,0.656 0.242,0.055 0.469,0.039 0.683,-0.047 0.217,-0.084 0.397,-0.231 0.539,-0.442 0.175,-0.259 0.244,-0.523 0.206,-0.794 -0.039,-0.272 -0.16,-0.507 -0.364,-0.706 -0.15,-0.149 -0.483,-0.398 -1.001,-0.748 z"
       style="font-weight:bold;font-size:12px;font-family:Arial;fill:#ffffff;fill-opacity:1;stroke-width:1pt;stroke-opacity:0.501961" />
  </g>
  <g
     style="font-size:12px"
     transform="matrix(2.329431,-0.612081,0.60969,2.338566,-56.96035,-13.51345)"
     id="g827">
    <path
       id="path798"
       d="m 207.386,195.181 4.813,-7.114 3.024,2.046 c 0.761,0.514 1.269,0.952 1.524,1.313 0.261,0.361 0.384,0.774 0.37,1.241 -0.014,0.467 -0.163,0.911 -0.448,1.331 -0.361,0.534 -0.817,0.869 -1.367,1.006 -0.548,0.134 -1.165,0.035 -1.851,-0.296 0.188,0.391 0.31,0.763 0.363,1.115 0.058,0.355 0.07,0.925 0.039,1.71 l -0.07,1.976 -1.718,-1.162 0.009,-2.251 c 0.005,-0.803 -0.012,-1.321 -0.051,-1.556 -0.038,-0.237 -0.115,-0.433 -0.232,-0.588 -0.115,-0.158 -0.337,-0.348 -0.668,-0.572 l -0.29,-0.197 -2.01,2.971 z"
       style="font-weight:bold;font-size:12px;font-family:Arial;fill:#309e3a;stroke-width:1pt;stroke-opacity:0.501961" />
    <path
       id="path799"
       d="m 211.601,192.048 1.063,0.719 c 0.689,0.466 1.138,0.728 1.349,0.785 0.211,0.058 0.413,0.049 0.607,-0.028 0.193,-0.076 0.362,-0.222 0.506,-0.435 0.162,-0.24 0.228,-0.476 0.197,-0.709 -0.025,-0.234 -0.142,-0.449 -0.348,-0.646 -0.106,-0.095 -0.45,-0.339 -1.032,-0.733 l -1.121,-0.759 z"
       style="font-weight:bold;font-size:12px;font-family:Arial;fill:#ffffff;fill-opacity:1;stroke-width:1pt;stroke-opacity:0.501961" />
  </g>
  <g
     style="font-size:12px"
     transform="matrix(2.305472,-0.697543,0.694819,2.314513,-66.45074,11.95656)"
     id="g830">
    <path
       id="path796"
       d="m 216.645,196.324 c 0.491,-0.725 1.011,-1.26 1.559,-1.605 0.408,-0.253 0.847,-0.43 1.321,-0.529 0.476,-0.098 0.928,-0.103 1.355,-0.017 0.571,0.112 1.145,0.364 1.724,0.756 1.049,0.709 1.666,1.601 1.854,2.676 0.191,1.077 -0.105,2.195 -0.889,3.353 -0.777,1.149 -1.698,1.837 -2.762,2.065 -1.062,0.225 -2.116,-0.017 -3.161,-0.724 -1.058,-0.715 -1.681,-1.606 -1.87,-2.672 -0.187,-1.07 0.103,-2.171 0.869,-3.303 z"
       style="font-weight:bold;font-size:12px;font-family:Arial;fill:#309e3a;stroke-width:1pt;stroke-opacity:0.501961" />
    <path
       id="path797"
       d="m 218.158,197.277 c -0.545,0.805 -0.773,1.542 -0.683,2.212 0.092,0.665 0.424,1.192 0.997,1.58 0.573,0.387 1.18,0.499 1.824,0.335 0.649,-0.164 1.253,-0.659 1.811,-1.484 0.552,-0.816 0.784,-1.545 0.696,-2.19 -0.084,-0.641 -0.423,-1.163 -1.015,-1.563 -0.592,-0.401 -1.207,-0.52 -1.845,-0.357 -0.636,0.159 -1.231,0.648 -1.785,1.467 z"
       style="font-weight:bold;font-size:12px;font-family:Arial;fill:#ffffff;fill-opacity:1;stroke-width:1pt;stroke-opacity:0.501961" />
  </g>
  <g
     style="font-size:12px"
     transform="matrix(2.391319,-0.283178,0.282072,2.400697,0.41500694,-96.0678)"
     id="g833">
    <path
       id="path793"
       d="m 230.026,210.498 4.813,-7.115 3.024,2.046 c 0.76,0.515 1.268,0.952 1.524,1.314 0.26,0.36 0.384,0.774 0.37,1.241 -0.014,0.467 -0.164,0.91 -0.448,1.331 -0.361,0.534 -0.817,0.869 -1.368,1.006 -0.548,0.134 -1.164,0.035 -1.85,-0.297 0.188,0.391 0.309,0.764 0.363,1.116 0.057,0.355 0.07,0.924 0.039,1.71 l -0.071,1.975 -1.717,-1.162 0.008,-2.25 c 0.005,-0.804 -0.011,-1.322 -0.051,-1.556 -0.037,-0.237 -0.115,-0.434 -0.232,-0.589 -0.114,-0.157 -0.337,-0.348 -0.667,-0.571 l -0.291,-0.197 -2.009,2.97 z"
       style="font-weight:bold;font-size:12px;font-family:Arial;fill:#309e3a;stroke-width:1pt;stroke-opacity:0.501961" />
    <path
       id="path794"
       d="m 234.24,207.364 1.063,0.719 c 0.689,0.467 1.139,0.728 1.35,0.786 0.21,0.058 0.413,0.048 0.607,-0.028 0.193,-0.077 0.361,-0.222 0.506,-0.436 0.162,-0.239 0.227,-0.475 0.197,-0.708 -0.026,-0.234 -0.142,-0.45 -0.348,-0.646 -0.106,-0.095 -0.45,-0.34 -1.033,-0.734 l -1.12,-0.758 z"
       style="font-weight:bold;font-size:12px;font-family:Arial;fill:#ffffff;fill-opacity:1;stroke-width:1pt;stroke-opacity:0.501961" />
  </g>
  <g
     style="font-size:12px"
     transform="matrix(2.407899,0,0,2.417341,62.55793,-162.088)"
     id="g836">
    <path
       id="path788"
       d="m 259.172,225.095 c 0.49,-0.725 1.01,-1.26 1.56,-1.605 0.407,-0.253 0.847,-0.429 1.32,-0.529 0.477,-0.097 0.928,-0.103 1.355,-0.017 0.571,0.113 1.146,0.365 1.725,0.757 1.048,0.709 1.666,1.601 1.854,2.676 0.191,1.077 -0.106,2.194 -0.89,3.353 -0.777,1.148 -1.697,1.837 -2.761,2.065 -1.063,0.224 -2.116,-0.017 -3.162,-0.724 -1.057,-0.716 -1.681,-1.607 -1.87,-2.673 -0.187,-1.07 0.103,-2.171 0.869,-3.303 z"
       style="font-weight:bold;font-size:12px;font-family:Arial;fill:#309e3a;stroke-width:1pt;stroke-opacity:0.501961" />
    <path
       id="path789"
       d="m 260.686,226.048 c -0.545,0.806 -0.773,1.543 -0.684,2.212 0.093,0.666 0.425,1.192 0.997,1.58 0.573,0.387 1.181,0.499 1.825,0.336 0.649,-0.165 1.253,-0.659 1.811,-1.485 0.551,-0.815 0.783,-1.545 0.695,-2.189 -0.085,-0.642 -0.423,-1.163 -1.015,-1.564 -0.592,-0.401 -1.207,-0.52 -1.845,-0.357 -0.636,0.159 -1.23,0.649 -1.784,1.467 z"
       style="font-weight:bold;font-size:12px;font-family:Arial;fill:#ffffff;fill-opacity:1;stroke-width:1pt;stroke-opacity:0.501961" />
  </g>
  <path
     id="path872"
     d="m 502.48909,301.78357 3.3303,-14.57744 10.76649,2.48264 -0.56001,2.46274 -7.83265,-1.80352 -0.74585,3.23142 7.29495,1.68163 -0.56497,2.45279 -7.28503,-1.67666 -0.90939,3.96527 8.11018,1.8682 -0.56001,2.45777 z"
     style="font-weight:bold;font-size:12px;font-family:Arial;fill:#309e3a;stroke-width:1pt;stroke-opacity:0.501961" />
</svg>
