<?xml version="1.0" encoding="UTF-8" standalone="no"?>
<!-- Created with Sodipodi ("http://www.sodipodi.com/") -->
<svg
   xmlns:dc="http://purl.org/dc/elements/1.1/"
   xmlns:cc="http://web.resource.org/cc/"
   xmlns:rdf="http://www.w3.org/1999/02/22-rdf-syntax-ns#"
   xmlns:svg="http://www.w3.org/2000/svg"
   xmlns="http://www.w3.org/2000/svg"
   xmlns:sodipodi="http://inkscape.sourceforge.net/DTD/sodipodi-0.dtd"
   xmlns:inkscape="http://www.inkscape.org/namespaces/inkscape"
   version="1"
   x="0.00000000"
   y="0.00000000"
   width="1116.1300px"
   height="744.09448px"
   id="svg378"
   sodipodi:version="0.32"
   sodipodi:docname="byzantium.svg"
   sodipodi:docbase="/Users/daniel/Desktop/freeciv"
   inkscape:version="0.43">
  <metadata
     id="metadata20">
    <rdf:RDF>
      <cc:Work
         rdf:about="">
        <dc:format>image/svg+xml</dc:format>
        <dc:type
           rdf:resource="http://purl.org/dc/dcmitype/StillImage" />
      </cc:Work>
    </rdf:RDF>
  </metadata>
  <sodipodi:namedview
     id="base"
     showguides="true"
     inkscape:guide-bbox="true"
     inkscape:zoom="0.46230688"
     inkscape:cx="531.49426"
     inkscape:cy="369.01895"
     inkscape:window-width="847"
     inkscape:window-height="579"
     inkscape:window-x="20"
     inkscape:window-y="42"
     inkscape:current-layer="svg378" />
  <defs
     id="defs380" />
  <rect
     width="1116.1271"
     height="744.09003"
     x="-1116.1262"
     y="-744.09448"
     transform="scale(-1,-1)"
     id="rect149"
     style="fill:#ff0000;fill-opacity:1" />
  <rect
     width="1116.1292"
     height="248.02997"
     x="3.8138027e-05"
     y="247.50482"
     id="rect148"
     style="fill:#ffff00;fill-opacity:1" />
  <rect
     width="744.03351"
     height="244.10313"
     x="0.16060776"
     y="-688.38354"
     id="rect2206"
     transform="matrix(-5.277821e-3,0.999986,-1,1.487405e-4,0,0)"
     style="fill:#ffff00;fill-opacity:1" />
  <path
     d="M 799.90625,40.65625 L 799.90625,54.21875 L 822.59375,54.21875 L 822.59375,194.5625 L 799.90625,194.5625 L 799.90625,208.15625 L 898.59375,208.15625 C 926.89299,208.15625 947.65963,204.22779 960.9375,196.375 C 974.21504,188.52224 980.87484,176.29055 980.875,159.6875 C 980.87495,156.52676 980.53798,153.52542 979.90625,150.6875 L 929.15625,150.6875 C 929.69057,153.46989 929.96871,156.46606 929.96875,159.6875 C 929.96861,171.57889 926.32396,180.34736 919.03125,186.03125 C 911.73829,191.71518 900.51544,194.56252 885.375,194.5625 L 868.375,194.5625 L 868.375,124 L 885.375,124 C 892.46608,124.00004 898.70741,124.67641 904.09375,126 L 904.09375,108.1875 C 898.56368,109.75537 891.86517,110.53131 883.96875,110.53125 L 868.375,110.53125 L 868.375,54.21875 L 883.96875,54.21875 C 897.99943,54.218904 908.18114,56.431385 914.5625,60.84375 C 920.9436,65.256408 924.15612,72.340142 924.15625,82.0625 C 924.15622,84.438033 923.96141,86.644754 923.5625,88.71875 L 969.53125,88.71875 C 969.9451,86.60808 970.15621,84.400417 970.15625,82.0625 C 970.15607,68.226787 964.73481,57.849433 953.875,50.96875 C 943.01486,44.088382 926.76556,40.656417 905.125,40.65625 L 799.90625,40.65625 z "
     id="text2207"
     style="fill:#ffff00;fill-opacity:1" />
  <path
     d="M 799.25,537.875 L 799.25,551.46875 L 821.96875,551.46875 L 821.96875,691.78125 L 799.25,691.78125 L 799.25,705.375 L 897.9375,705.375 C 926.23674,705.375 947.03463,701.44652 960.3125,693.59375 C 973.59004,685.74099 980.21858,673.5093 980.21875,656.90625 C 980.21868,652.73901 979.66061,648.85609 978.5625,645.25 L 927.90625,645.25 C 928.84622,648.7504 929.31245,652.63348 929.3125,656.90625 C 929.31236,668.79764 925.66771,677.59735 918.375,683.28125 C 911.08204,688.96518 899.89044,691.78125 884.75,691.78125 L 867.71875,691.78125 L 867.71875,621.21875 L 884.75,621.21875 C 892.13043,621.21879 898.56002,621.94119 904.09375,623.375 L 904.09375,605.21875 C 898.44231,606.91303 891.52109,607.78131 883.3125,607.78125 L 867.71875,607.78125 L 867.71875,551.46875 L 883.3125,551.46875 C 897.34318,551.4689 907.55614,553.65016 913.9375,558.0625 C 920.3186,562.47516 923.49987,569.55891 923.5,579.28125 C 923.49998,580.6695 923.41749,581.99598 923.28125,583.28125 L 969.3125,583.28125 C 969.45585,581.98405 969.53122,580.65716 969.53125,579.28125 C 969.53107,565.44554 964.07855,555.0682 953.21875,548.1875 C 942.35861,541.30713 926.10931,537.87519 904.46875,537.875 L 799.25,537.875 z "
     id="text2221"
     style="fill:#ffff00;fill-opacity:1" />
  <path
     d="M 237.03125,40.65625 C 215.39068,40.656418 199.14139,44.088382 188.28125,50.96875 C 177.42144,57.849434 172.00019,68.226787 172,82.0625 C 172.00004,84.399889 172.21134,86.608506 172.625,88.71875 L 218.625,88.71875 C 218.22549,86.643408 218.00004,84.439837 218,82.0625 C 218.00014,72.340142 221.21264,65.256408 227.59375,60.84375 C 233.9751,56.431386 244.15682,54.218904 258.1875,54.21875 L 273.78125,54.21875 L 273.78125,110.53125 L 258.1875,110.53125 C 250.29109,110.53131 243.59257,109.75537 238.0625,108.1875 L 238.0625,126 C 243.4517,124.67436 249.68466,124.00004 256.78125,124 L 273.78125,124 L 273.78125,194.5625 L 256.78125,194.5625 C 241.6408,194.56251 230.41797,191.71519 223.125,186.03125 C 215.8323,180.34736 212.18763,171.5789 212.1875,159.6875 C 212.18754,156.46675 212.46591,153.46939 213,150.6875 L 162.25,150.6875 C 161.61827,153.52542 161.2813,156.52676 161.28125,159.6875 C 161.28144,176.29056 167.94121,188.52224 181.21875,196.375 C 194.49662,204.22778 215.26326,208.15625 243.5625,208.15625 L 342.28125,208.15625 L 342.28125,194.5625 L 319.5625,194.5625 L 319.5625,54.21875 L 342.28125,54.21875 L 342.28125,40.65625 L 237.03125,40.65625 z "
     id="text875"
     style="fill:#ffff00;fill-opacity:1" />
  <path
     d="M 237.6875,537.875 C 216.04694,537.87519 199.79764,541.30713 188.9375,548.1875 C 178.07769,555.0682 172.65643,565.44554 172.65625,579.28125 C 172.65628,580.65853 172.73137,581.98284 172.875,583.28125 L 218.875,583.28125 C 218.73876,581.99598 218.65627,580.6695 218.65625,579.28125 C 218.65639,569.55891 221.83765,562.47516 228.21875,558.0625 C 234.60011,553.65016 244.81307,551.4689 258.84375,551.46875 L 274.4375,551.46875 L 274.4375,607.78125 L 258.84375,607.78125 C 250.63516,607.78131 243.71394,606.91303 238.0625,605.21875 L 238.0625,623.375 C 243.59623,621.94119 250.05707,621.21879 257.4375,621.21875 L 274.4375,621.21875 L 274.4375,691.78125 L 257.4375,691.78125 C 242.29706,691.78125 231.07421,688.96518 223.78125,683.28125 C 216.48855,677.59735 212.84389,668.79764 212.84375,656.90625 C 212.8438,652.63571 213.31101,648.74898 214.25,645.25 L 163.59375,645.25 C 162.49565,648.85609 161.93757,652.73901 161.9375,656.90625 C 161.93769,673.5093 168.59746,685.74099 181.875,693.59375 C 195.15288,701.44652 215.91951,705.375 244.21875,705.375 L 342.90625,705.375 L 342.90625,691.78125 L 320.21875,691.78125 L 320.21875,551.46875 L 342.90625,551.46875 L 342.90625,537.875 L 237.6875,537.875 z "
     id="text878"
     style="fill:#ffff00;fill-opacity:1" />
</svg>
