<?xml version="1.0" encoding="UTF-8" standalone="no"?>
<svg
   xmlns:dc="http://purl.org/dc/elements/1.1/"
   xmlns:cc="http://creativecommons.org/ns#"
   xmlns:rdf="http://www.w3.org/1999/02/22-rdf-syntax-ns#"
   xmlns:svg="http://www.w3.org/2000/svg"
   xmlns="http://www.w3.org/2000/svg"
   xmlns:sodipodi="http://sodipodi.sourceforge.net/DTD/sodipodi-0.dtd"
   xmlns:inkscape="http://www.inkscape.org/namespaces/inkscape"
   height="312.18753pt"
   id="svg660"
   sodipodi:docname="comoros.svg"
   sodipodi:version="0.32"
   width="468.75pt"
   version="1.1"
   inkscape:version="1.0.2 (e86c870879, 2021-01-15)">
  <metadata
     id="metadata2">
    <rdf:RDF>
      <cc:Work
         rdf:about="">
        <dc:title />
        <dc:description />
        <dc:subject>
          <rdf:Bag>
            <rdf:li />
            <rdf:li>flag</rdf:li>
            <rdf:li>africa</rdf:li>
            <rdf:li>sign</rdf:li>
          </rdf:Bag>
        </dc:subject>
        <dc:publisher>
          <cc:Agent
             rdf:about="http://www.openclipart.org">
            <dc:title />
          </cc:Agent>
        </dc:publisher>
        <dc:creator>
          <cc:Agent>
            <dc:title />
          </cc:Agent>
        </dc:creator>
        <dc:rights>
          <cc:Agent>
            <dc:title />
          </cc:Agent>
        </dc:rights>
        <dc:date />
        <dc:format>image/svg+xml</dc:format>
        <dc:type
           rdf:resource="http://purl.org/dc/dcmitype/StillImage" />
        <cc:license
           rdf:resource="" />
        <dc:language>en</dc:language>
      </cc:Work>
    </rdf:RDF>
  </metadata>
  <defs
     id="defs662" />
  <sodipodi:namedview
     id="base"
     inkscape:document-rotation="0"
     showgrid="false"
     inkscape:zoom="1.3632509"
     inkscape:cx="333.33333"
     inkscape:cy="222.00001"
     inkscape:window-width="1518"
     inkscape:window-height="1016"
     inkscape:window-x="0"
     inkscape:window-y="27"
     inkscape:window-maximized="0"
     inkscape:current-layer="svg660" />
  <rect
     height="104.0625"
     id="rect665"
     style="font-size:12px;fill:#ffff00;fill-opacity:1;fill-rule:evenodd;stroke-width:1pt"
     width="625"
     x="0"
     y="0" />
  <rect
     height="104.0625"
     id="rect668"
     style="font-size:12px;fill:#ffffff;fill-opacity:1;fill-rule:evenodd;stroke-width:1pt"
     width="625"
     x="0"
     y="104.06249" />
  <rect
     height="104.0625"
     id="rect667"
     style="font-size:12px;fill:#be0027;fill-opacity:1;fill-rule:evenodd;stroke-width:1pt"
     width="625"
     x="0"
     y="208.125" />
  <rect
     height="104.0625"
     id="rect666"
     style="font-size:12px;fill:#3b5aa3;fill-opacity:1;fill-rule:evenodd;stroke-width:1pt"
     width="625"
     x="0"
     y="312.18753" />
  <path
     d="M 0,1.726034e-5 V 416.25003 L 310.4501,208.713 Z"
     id="path664"
     style="fill:#239e46;fill-opacity:1;fill-rule:evenodd;stroke:none;stroke-width:1.00091pt;stroke-linecap:butt;stroke-linejoin:miter;stroke-opacity:1" />
  <path
     d="m 127.811,114.98201 c -69.1839,-3.509 -100.7028,51.599 -100.6305,94.198 -0.1599,50.381 47.5815,91.932 91.7085,89.426 -23.7935,-11.257 -52.8486,-42.812 -53.1162,-89.634 -0.2436,-42.423 23.9771,-79.31 62.0382,-93.99 z"
     id="path673"
     sodipodi:nodetypes="cscsc"
     style="fill:#ffffff;fill-opacity:1;fill-rule:evenodd;stroke:none;stroke-width:1pt;stroke-linecap:butt;stroke-linejoin:miter;stroke-opacity:1" />
  <polygon
     id="polygon674"
     points="126.773,160.213 117.015,152.584 105.198,156.296 109.439,144.658 102.256,134.567 114.636,135.004 122.013,125.054 125.423,136.962 137.166,140.905 126.894,147.827 126.773,160.213 "
     sodipodi:arg1="1.1220729"
     sodipodi:arg2="1.7503914"
     sodipodi:cx="118.68148"
     sodipodi:cy="143.40709"
     sodipodi:r1="18.652912"
     sodipodi:r2="9.3264561"
     sodipodi:sides="5"
     sodipodi:type="star"
     style="font-size:12px;fill:#ffffff;fill-opacity:1;fill-rule:evenodd;stroke-width:1pt"
     inkscape:flatsided="false"
     inkscape:rounded="0"
     inkscape:randomized="0"
     d="m 126.77341,160.21339 -9.75793,-7.62985 -11.8172,3.71286 4.24106,-11.63809 -7.18286,-10.09149 12.37904,0.43712 7.37795,-9.94975 3.40961,11.90824 11.74269,3.94221 -10.27179,6.92258 z" />
  <polygon
     id="polygon675"
     points="126.773,160.213 117.015,152.584 105.198,156.296 109.439,144.658 102.256,134.567 114.636,135.004 122.013,125.054 125.423,136.962 137.166,140.905 126.894,147.827 126.773,160.213 "
     sodipodi:arg1="1.1220729"
     sodipodi:arg2="1.7503914"
     sodipodi:cx="118.47399"
     sodipodi:cy="185.73406"
     sodipodi:r1="18.652912"
     sodipodi:r2="9.3264561"
     sodipodi:sides="5"
     sodipodi:type="star"
     style="font-size:12px;fill:#ffffff;fill-opacity:1;fill-rule:evenodd;stroke-width:1pt"
     inkscape:flatsided="false"
     inkscape:rounded="0"
     inkscape:randomized="0"
     d="m 126.56592,202.54036 -9.75792,-7.62986 -11.81721,3.71287 4.24106,-11.63809 -7.18286,-10.0915 12.37904,0.43712 7.37795,-9.94975 3.40961,11.90825 11.74269,3.94221 -10.27179,6.92258 z" />
  <polygon
     id="polygon676"
     points="126.773,160.213 117.015,152.584 105.198,156.296 109.439,144.658 102.256,134.567 114.636,135.004 122.013,125.054 125.423,136.962 137.166,140.905 126.894,147.827 126.773,160.213 "
     sodipodi:arg1="1.1220729"
     sodipodi:arg2="1.7503914"
     sodipodi:cx="118.68147"
     sodipodi:cy="228.47598"
     sodipodi:r1="18.652912"
     sodipodi:r2="9.3264561"
     sodipodi:sides="5"
     sodipodi:type="star"
     style="font-size:12px;fill:#ffffff;fill-opacity:1;fill-rule:evenodd;stroke-width:1pt"
     inkscape:flatsided="false"
     inkscape:rounded="0"
     inkscape:randomized="0"
     d="m 126.7734,245.28229 -9.75792,-7.62986 -11.81721,3.71287 4.24106,-11.63809 -7.18286,-10.0915 12.37904,0.43712 7.37795,-9.94975 3.40961,11.90825 11.74269,3.94221 -10.27179,6.92258 z" />
  <polygon
     id="polygon677"
     points="126.773,160.213 117.015,152.584 105.198,156.296 109.439,144.658 102.256,134.567 114.636,135.004 122.013,125.054 125.423,136.962 137.166,140.905 126.894,147.827 126.773,160.213 "
     sodipodi:arg1="1.1220729"
     sodipodi:arg2="1.7503914"
     sodipodi:cx="118.47399"
     sodipodi:cy="271.63289"
     sodipodi:r1="18.652912"
     sodipodi:r2="9.3264561"
     sodipodi:sides="5"
     sodipodi:type="star"
     style="font-size:12px;fill:#ffffff;fill-opacity:1;fill-rule:evenodd;stroke-width:1pt"
     inkscape:flatsided="false"
     inkscape:rounded="0"
     inkscape:randomized="0"
     d="m 126.56592,288.43921 -9.75792,-7.62986 -11.81721,3.71287 4.24106,-11.63809 -7.18286,-10.0915 12.37904,0.43712 7.37795,-9.94975 3.40961,11.90825 11.74269,3.94221 -10.27179,6.92258 z" />
</svg>
