<?xml version="1.0" encoding="UTF-8" standalone="no"?>
<!DOCTYPE svg PUBLIC "-//W3C//DTD SVG 20010904//EN"
"http://www.w3.org/TR/2001/REC-SVG-20010904/DTD/svg10.dtd">
<!-- Created with Sodipodi ("http://www.sodipodi.com/") -->
<svg
   id="svg1350"
   sodipodi:version="0.32"
   width="300.00000pt"
   height="200.00000pt"
   sodipodi:docname="dunedain.svg"
   inkscape:version="0.39"
   xmlns="http://www.w3.org/2000/svg"
   xmlns:cc="http://web.resource.org/cc/"
   xmlns:inkscape="http://www.inkscape.org/namespaces/inkscape"
   xmlns:sodipodi="http://sodipodi.sourceforge.net/DTD/sodipodi-0.dtd"
   xmlns:rdf="http://www.w3.org/1999/02/22-rdf-syntax-ns#"
   xmlns:dc="http://purl.org/dc/elements/1.1/"
   xmlns:xlink="http://www.w3.org/1999/xlink"
   sodipodi:docbase="/home/pzastoupil">
  <defs
     id="defs1352">
    <defs
       id="defs5117" />
    <sodipodi:namedview
       id="namedview5116" />
  </defs>
  <sodipodi:namedview
     id="base"
     showgrid="false"
     borderlayer="top"
     bordercolor="#000000"
     borderopacity="1"
     inkscape:zoom="1.8266667"
     inkscape:cx="150.00000"
     inkscape:cy="99.999993"
     inkscape:window-width="640"
     inkscape:window-height="675"
     inkscape:window-x="24"
     inkscape:window-y="96" />
  <rect
     style="font-size:12.000000;fill:#000000;fill-opacity:1.0000000;fill-rule:evenodd;"
     id="rect625"
     x="0.0000000"
     y="0.0000000"
     height="250.00000"
     width="375.00000" />
  <metadata
     id="metadata17">
    <rdf:RDF
       id="RDF18">
      <cc:Work
         rdf:about=""
         id="Work19">
        <dc:format
           id="format20">image/svg+xml</dc:format>
        <dc:type
           id="type22"
           rdf:resource="http://purl.org/dc/dcmitype/StillImage" />
      </cc:Work>
    </rdf:RDF>
  </metadata>
  <path
     sodipodi:type="star"
     style="fill:#ffffff;fill-opacity:1.0000000;fill-rule:evenodd;stroke:#000000;stroke-width:1.0000000pt;stroke-linecap:butt;stroke-linejoin:miter;stroke-opacity:1.0000000;"
     id="path2567"
     sodipodi:cx="45.283852"
     sodipodi:cy="23.193138"
     inkscape:rounded="0.0000000"
     d="M 50.719218,37.173724 L 44.639629,28.151462 L 37.742285,36.159432 L 41.005612,25.780929 L 30.444305,25.381255 L 40.593196,21.461737 L 34.320807,12.955382 L 43.712940,18.446325 L 46.452705,8.2387481 L 48.015612,19.005360 L 57.704433,14.783075 L 50.261213,22.717878 L 59.603210,27.660351 L 48.758759,26.788276 L 50.719218,37.173724 z "
     sodipodi:sides="7"
     sodipodi:r2="5.0000000"
     sodipodi:arg1="1.2000000"
     sodipodi:arg2="1.7000000"
     sodipodi:r1="15.000000"
     inkscape:flatsided="false"
     transform="matrix(1.232997,0.000000,0.000000,1.242459,131.9858,3.039597)" />
  <path
     sodipodi:type="star"
     style="fill:#ffffff;fill-opacity:1.0000000;fill-rule:evenodd;stroke:#000000;stroke-width:1.0000000pt;stroke-linecap:butt;stroke-linejoin:miter;stroke-opacity:1.0000000;"
     id="path3206"
     sodipodi:cx="45.283852"
     sodipodi:cy="23.193138"
     inkscape:rounded="0.0000000"
     d="M 50.719218,37.173724 L 44.639629,28.151462 L 37.742285,36.159432 L 41.005612,25.780929 L 30.444305,25.381255 L 40.593196,21.461737 L 34.320807,12.955382 L 43.712940,18.446325 L 46.452705,8.2387481 L 48.015612,19.005360 L 57.704433,14.783075 L 50.261213,22.717878 L 59.603210,27.660351 L 48.758759,26.788276 L 50.719218,37.173724 z "
     sodipodi:sides="7"
     sodipodi:r2="5.0000000"
     sodipodi:arg1="1.2000000"
     sodipodi:arg2="1.7000000"
     sodipodi:r1="15.000000"
     inkscape:flatsided="false"
     transform="matrix(1.232997,0,0,1.242459,183.5483,21.25326)" />
  <path
     sodipodi:type="star"
     style="fill:#ffffff;fill-opacity:1.0000000;fill-rule:evenodd;stroke:#000000;stroke-width:1.0000000pt;stroke-linecap:butt;stroke-linejoin:miter;stroke-opacity:1.0000000;"
     id="path3207"
     sodipodi:cx="45.283852"
     sodipodi:cy="23.193138"
     inkscape:rounded="0.0000000"
     d="M 50.719218,37.173724 L 44.639629,28.151462 L 37.742285,36.159432 L 41.005612,25.780929 L 30.444305,25.381255 L 40.593196,21.461737 L 34.320807,12.955382 L 43.712940,18.446325 L 46.452705,8.2387481 L 48.015612,19.005360 L 57.704433,14.783075 L 50.261213,22.717878 L 59.603210,27.660351 L 48.758759,26.788276 L 50.719218,37.173724 z "
     sodipodi:sides="7"
     sodipodi:r2="5.0000000"
     sodipodi:arg1="1.2000000"
     sodipodi:arg2="1.7000000"
     sodipodi:r1="15.000000"
     inkscape:flatsided="false"
     transform="matrix(1.232997,0,0,1.242459,224.7898,53.43075)" />
  <path
     sodipodi:type="star"
     style="fill:#ffffff;fill-opacity:1.0000000;fill-rule:evenodd;stroke:#000000;stroke-width:1.0000000pt;stroke-linecap:butt;stroke-linejoin:miter;stroke-opacity:1.0000000;"
     id="path3208"
     sodipodi:cx="45.283852"
     sodipodi:cy="23.193138"
     inkscape:rounded="0.0000000"
     d="M 50.719218,37.173724 L 44.639629,28.151462 L 37.742285,36.159432 L 41.005612,25.780929 L 30.444305,25.381255 L 40.593196,21.461737 L 34.320807,12.955382 L 43.712940,18.446325 L 46.452705,8.2387481 L 48.015612,19.005360 L 57.704433,14.783075 L 50.261213,22.717878 L 59.603210,27.660351 L 48.758759,26.788276 L 50.719218,37.173724 z "
     sodipodi:sides="7"
     sodipodi:r2="5.0000000"
     sodipodi:arg1="1.2000000"
     sodipodi:arg2="1.7000000"
     sodipodi:r1="15.000000"
     inkscape:flatsided="false"
     transform="matrix(1.232997,0,0,1.242459,256.6207,101.0899)" />
  <path
     sodipodi:type="star"
     style="fill:#ffffff;fill-opacity:1.0000000;fill-rule:evenodd;stroke:#000000;stroke-width:1.0000000pt;stroke-linecap:butt;stroke-linejoin:miter;stroke-opacity:1.0000000;"
     id="path3209"
     sodipodi:cx="45.283852"
     sodipodi:cy="23.193138"
     inkscape:rounded="0.0000000"
     d="M 50.719218,37.173724 L 44.639629,28.151462 L 37.742285,36.159432 L 41.005612,25.780929 L 30.444305,25.381255 L 40.593196,21.461737 L 34.320807,12.955382 L 43.712940,18.446325 L 46.452705,8.2387481 L 48.015612,19.005360 L 57.704433,14.783075 L 50.261213,22.717878 L 59.603210,27.660351 L 48.758759,26.788276 L 50.719218,37.173724 z "
     sodipodi:sides="7"
     sodipodi:r2="5.0000000"
     sodipodi:arg1="1.2000000"
     sodipodi:arg2="1.7000000"
     sodipodi:r1="15.000000"
     inkscape:flatsided="false"
     transform="matrix(1.232997,0,0,1.242459,80.42332,20.94973)" />
  <path
     sodipodi:type="star"
     style="fill:#ffffff;fill-opacity:1.0000000;fill-rule:evenodd;stroke:#000000;stroke-width:1.0000000pt;stroke-linecap:butt;stroke-linejoin:miter;stroke-opacity:1.0000000;"
     id="path3210"
     sodipodi:cx="45.283852"
     sodipodi:cy="23.193138"
     inkscape:rounded="0.0000000"
     d="M 50.719218,37.173724 L 44.639629,28.151462 L 37.742285,36.159432 L 41.005612,25.780929 L 30.444305,25.381255 L 40.593196,21.461737 L 34.320807,12.955382 L 43.712940,18.446325 L 46.452705,8.2387481 L 48.015612,19.005360 L 57.704433,14.783075 L 50.261213,22.717878 L 59.603210,27.660351 L 48.758759,26.788276 L 50.719218,37.173724 z "
     sodipodi:sides="7"
     sodipodi:r2="5.0000000"
     sodipodi:arg1="1.2000000"
     sodipodi:arg2="1.7000000"
     sodipodi:r1="15.000000"
     inkscape:flatsided="false"
     transform="matrix(1.232997,0,0,1.242459,36.75346,53.43077)" />
  <path
     sodipodi:type="star"
     style="fill:#ffffff;fill-opacity:1.0000000;fill-rule:evenodd;stroke:#000000;stroke-width:1.0000000pt;stroke-linecap:butt;stroke-linejoin:miter;stroke-opacity:1.0000000;"
     id="path3211"
     sodipodi:cx="45.283852"
     sodipodi:cy="23.193138"
     inkscape:rounded="0.0000000"
     d="M 50.719218,37.173724 L 44.639629,28.151462 L 37.742285,36.159432 L 41.005612,25.780929 L 30.444305,25.381255 L 40.593196,21.461737 L 34.320807,12.955382 L 43.712940,18.446325 L 46.452705,8.2387481 L 48.015612,19.005360 L 57.704433,14.783075 L 50.261213,22.717878 L 59.603210,27.660351 L 48.758759,26.788276 L 50.719218,37.173724 z "
     sodipodi:sides="7"
     sodipodi:r2="5.0000000"
     sodipodi:arg1="1.2000000"
     sodipodi:arg2="1.7000000"
     sodipodi:r1="15.000000"
     inkscape:flatsided="false"
     transform="matrix(1.232997,0,0,1.242459,8.565164,101.09)" />
  <g
     id="g656"
     style="stroke:#ffffff;stroke-opacity:1;stroke-width:0.9999;stroke-dasharray:none;"
     transform="translate(159.521,126.8882)">
    <path
       style="font-size:12;fill:#ffffff;stroke:#ffffff;stroke-opacity:1;stroke-width:0.9999;stroke-dasharray:none;"
       d="M 44.06682 0.673073 L 35.84774 16.92908 L 33.10805 16.92908 L 38.58744 0.673073 L 44.06682 0.673073 z M 13.9302 0.673073 L 16.6699 0.673073 L 22.14928 16.92908 L 19.40959 16.92908 L 13.9302 0.673073 M 30.36836 -1.649214 L 33.10805 0.673073 L 30.36836 14.60679 L 24.88897 14.60679 L 22.14928 0.673073 L 24.88897 -1.649214 L 30.36836 -1.649214 M 6.991202 3.232481 C 15.46781 22.22228 41.27452 70.07112 -2.507954 70.34167 L -2.507954 72.66396 L 5.711125 72.66396 L 0.231739 81.95309 L 2.971431 81.95309 L 8.450818 74.98624 L 11.19051 81.95309 L 13.9302 81.95309 L 24.88897 70.34167 L 19.40959 84.27539 L 22.14928 84.27539 L 24.88897 77.30853 L 27.62867 77.30853 L 27.62867 86.59767 L 30.36836 86.59767 L 30.36836 79.63081 L 33.10805 79.63081 L 33.10805 84.27539 L 35.84774 84.27539 L 30.36836 70.34167 L 41.32713 81.95309 L 44.06682 81.95309 L 46.80651 74.98624 L 52.2859 81.95309 L 55.02559 81.95309 C 52.59658 76.09328 49.44402 73.57406 57.76529 72.66396 L 57.76529 70.34167 C 13.98281 70.07112 38.32991 24.30745 46.80651 5.317646 L 50.96848 -2.459046 L 27.54677 -5.247059 L 9.811318 -1.947235 "
       id="path3"
       sodipodi:nodetypes="ccccccccccccccccccccccccccccccccccccccccccccccccc" />
    <path
       style="font-size:12;fill:#ffffff;fill-rule:evenodd;stroke:#ffffff;stroke-width:0.9999;stroke-opacity:1;stroke-dasharray:none;"
       d="M 2.76209 5.397256 C 0.155067 6.362285 -3.10757 5.41282 -3.733397 8.260875 C -4.150679 10.15985 -9.995268 11.44472 -11.71119 9.146878 C -14.06888 5.989615 -12.0289 6.319601 -17.33902 4.786318 C -20.05881 4.000988 -22.16604 1.75559 -20.40213 -0.400021 C -18.37288 -2.879895 -14.6243 -0.014678 -17.70431 -4.583292 C -19.31636 -6.97443 -24.58724 -12.87594 -20.82267 -15.49195 C -18.30508 -17.24144 -12.44331 -14.6312 -12.95103 -18.97183 C -13.50831 -23.73618 -16.87946 -24.21572 -10.0418 -27.67321 C -6.261784 -29.58459 -8.508504 -35.17377 -3.303615 -35.87636 C -1.217684 -36.15794 1.83945 -35.3574 4.39878 -35.61397 C 8.232954 -35.99836 11.333 -36.72867 15.01374 -37.66628 C 19.43411 -38.79231 27.22384 -33.23031 31.96176 -32.05937 C 35.93926 -31.07637 41.07457 -33.03642 45.89955 -32.89242 C 49.92038 -32.77241 53.16908 -31.72878 56.98795 -33.08533 C 59.24738 -33.88794 65.66832 -35.28785 67.65419 -33.69301 C 68.83126 -32.74771 68.17804 -32.18787 70.4504 -31.20351 C 72.98706 -30.10468 75.55809 -29.77872 78.10764 -28.45129 C 81.3256 -26.77583 78.69024 -26.79392 78.86553 -24.38231 C 79.19912 -19.79218 87.33366 -20.42587 82.07928 -14.8052 C 78.41094 -10.88113 69.24727 -15.9141 69.70697 -10.6157 C 69.85085 -8.957615 68.90248 -8.953606 69.75677 -6.604156 C 70.22374 -5.319901 71.79536 -2.247846 70.95796 -1.423638 C 69.20233 0.304342 67.61863 -0.686038 69.76757 2.517111 C 71.05425 4.434977 71.85935 6.604727 68.0369 6.824544 C 64.69895 7.016497 62.20178 1.074716 60.14464 4.989694 C 58.98812 7.190705 56.56785 6.62823 54.82227 5.200507 C 54.22626 4.713019 53.48732 4.607822 52.66928 3.86569 C 48.2827 -0.113866 51.8089 -2.784216 41.73048 -3.242216 C 33.80916 -3.602189 27.52002 -3.927802 19.65884 -2.987992 C 12.78647 -2.166392 10.03693 2.415452 2.727165 5.098815 C 2.683147 5.212049 1.896001 6.383434 2.76209 5.397256 z "
       id="path619"
       sodipodi:nodetypes="cccccccccccccccccccccccccccccccc" />
  </g>
</svg>
