<?xml version="1.0" encoding="UTF-8" standalone="no"?>
<svg
   xmlns:dc="http://purl.org/dc/elements/1.1/"
   xmlns:cc="http://creativecommons.org/ns#"
   xmlns:rdf="http://www.w3.org/1999/02/22-rdf-syntax-ns#"
   xmlns:svg="http://www.w3.org/2000/svg"
   xmlns="http://www.w3.org/2000/svg"
   xmlns:sodipodi="http://sodipodi.sourceforge.net/DTD/sodipodi-0.dtd"
   xmlns:inkscape="http://www.inkscape.org/namespaces/inkscape"
   height="131.24989mm"
   id="svg378"
   inkscape:version="1.0.2 (e86c870879, 2021-01-15)"
   sodipodi:docname="flanders.svg"
   sodipodi:version="0.33pre"
   version="1"
   width="196.87497mm"
   x="0"
   y="0">
  <metadata
     id="metadata2">
    <rdf:RDF>
      <cc:Work
         rdf:about="">
        <dc:title>Clipart by Cedric de Launois - Belgium - Flanders</dc:title>
        <dc:description />
        <dc:subject>
          <rdf:Bag>
            <rdf:li />
            <rdf:li>0x8f45c80</rdf:li>
            <rdf:li>europe</rdf:li>
            <rdf:li>belgium</rdf:li>
            <rdf:li>flag</rdf:li>
            <rdf:li>sign</rdf:li>
          </rdf:Bag>
        </dc:subject>
        <dc:publisher>
          <cc:Agent
             rdf:about="http://www.openclipart.org">
            <dc:title>Cedric de Launois</dc:title>
          </cc:Agent>
        </dc:publisher>
        <dc:creator>
          <cc:Agent>
            <dc:title>Cedric de Launois</dc:title>
          </cc:Agent>
        </dc:creator>
        <dc:rights>
          <cc:Agent>
            <dc:title>Cedric de Launois</dc:title>
          </cc:Agent>
        </dc:rights>
        <dc:date />
        <dc:format>image/svg+xml</dc:format>
        <dc:type
           rdf:resource="http://purl.org/dc/dcmitype/StillImage" />
        <cc:license
           rdf:resource="http://web.resource.org/cc/PublicDomain" />
        <dc:language>en</dc:language>
      </cc:Work>
      <cc:License
         rdf:about="http://web.resource.org/cc/PublicDomain">
        <cc:permits
           rdf:resource="http://web.resource.org/cc/Reproduction" />
        <cc:permits
           rdf:resource="http://web.resource.org/cc/Distribution" />
        <cc:permits
           rdf:resource="http://web.resource.org/cc/DerivativeWorks" />
      </cc:License>
    </rdf:RDF>
  </metadata>
  <sodipodi:namedview
     id="base"
     showgrid="false"
     snaptogrid="false"
     inkscape:document-rotation="0"
     inkscape:zoom="1.1439136"
     inkscape:cx="396.85032"
     inkscape:cy="264.56694"
     inkscape:window-width="1518"
     inkscape:window-height="1016"
     inkscape:window-x="0"
     inkscape:window-y="27"
     inkscape:window-maximized="0"
     inkscape:current-layer="svg378" />
  <defs
     id="defs380" />
  <rect
     height="496.06256"
     id="rect135"
     style="font-size:12px;fill:#ffff00;fill-opacity:1;fill-rule:evenodd;stroke-width:1pt"
     width="744.09436"
     x="0"
     y="0" />
  <path
     d="m 321.65392,129.21487 c -2.29839,-4.2106 -21.08662,-22.11989 -36.56262,-20.93757 -3.69161,0.43111 -16.64911,-8.951661 -16.25005,-21.875081 0.3027,-10.2772 5.08782,-12.586051 18.12506,-14.37505 4.17182,-0.875438 13.16318,5.713048 13.46613,12.197078 0.22865,4.42218 -6.09645,13.693999 -4.38454,14.990522 5.87364,4.980861 20.94883,14.297521 27.18759,22.793511 1.20782,1.56637 0.38688,3.32258 0.3125,4.71611 -0.15232,3.16617 -0.73735,4.15651 -1.89407,2.49048 z"
     id="path635"
     sodipodi:nodetypes="cssssssss"
     style="font-size:12px;fill:#ff0000;fill-opacity:1;fill-rule:evenodd;stroke:#000000;stroke-width:1pt;stroke-opacity:1" />
  <path
     d="m 505.15245,27.276845 c -19.95061,-0.07118 -52.47374,13.51867 -55,51.25 -1.18019,17.04297 -4.7127,42.068985 -12.0625,58.624995 -0.82552,-3.24537 -1.68444,-6.79173 -1.75,-10.59375 -0.0932,-1.45885 -6.15611,-1.2909 -5.28125,-2.21875 2.43661,-2.11546 4.40761,-4.07674 3.53125,-12.375 -7.16965,5.36038 -13.70032,3.98966 -14.15625,1.78125 -0.0302,-5.71378 -0.97904,-20.944495 1.78125,-21.218745 4.97731,-0.93646 25.26857,-11.1627 11.5,-26.96875 -1.16193,-1.29238 0.83676,13.71431 -9.28125,14.15625 -2.15497,0 -5.76172,-3.69917 -0.46875,-9.28125 5.87527,-6.2254 5.50176,-25.39461 -3.53125,-35.34375 -0.19915,-0.20912 -0.51466,-0.30827 -0.96875,-0.28125 -3.17861,0.18916 -11.99812,5.45849 -17.59375,6 -16.43887,1.59086 -48.26072,-1.61168 -49.9375,0.90625 -10.36267,15.11916 -26.0574,13.90377 -33.125,15.90625 -1.77132,0.50188 -1.58586,7.86836 -1.34375,11.5 0.0525,0.78781 2.72405,-0.75832 2.21875,1.75 1e-5,2.19383 -1.57354,1.55322 -2.21875,3.96875 -0.69196,4.24509 0.75372,16.2079 -1.3125,18.5625 -1.61607,2.3427 -0.43776,6.23932 2.65625,7.531245 2.04061,0.5606 0.0996,-5.972305 8.375,-1.781245 2.9389,1.572375 7.02954,6.351215 7.09375,9.718745 0.30499,16.87975 -23.82333,27.36177 -27.40625,23 -3.29894,-4.8299 -11.33742,-15.26205 -20.34375,-15.03125 -5.33787,0.15168 -14.00738,8.38741 -14.125,15.03125 -0.0205,0.9883 -1.17571,3.24128 -2.78125,6 -0.26612,-0.59611 -0.66529,-1.15101 -1.21875,-1.59375 -22.75563,-17.84994 -21.74096,-31.23675 -21.65625,-47.718745 0.48545,-8.90665 12.98942,-9.18106 11.5,-17.25 -1.21314,-6.21216 -12.54866,-14.57953 -22.09375,-14.5625 -4.14217,0.0078 -8.69513,2.58922 -7.96875,8.375 0.1292,2.62801 -4.40857,1.92392 -4.40625,0.90625 0.44938,-3.26628 -0.9268,-10.39548 2.65625,-12.375 1.57433,-0.99214 -2.47763,-4.23273 -4.4375,-4.4375 -7.91019,-0.82643 -22.36872,-3.0016 -25.1875,1.34375 -1.34297,1.62834 -0.69401,10.85833 1.78125,11.46875 2.4333,0.50916 -0.21884,8.87316 -0.875,7.09375 -4.58791,-11.68546 -10.35539,-9.49191 -14.15625,-6.625 -4.08551,2.76063 -12.41948,9.80751 -11.5,15 1.0116,6.199 -0.14892,12.6627 17.6875,11.9375 1.64915,-0.06875 0.36756,4.02074 -0.875,4.875 -3.4715,2.38666 -8.47517,3.65209 -12.65625,3.96875 -0.38566,8.669515 -1.62381,26.299045 12.65625,26.531245 4.93721,-0.13581 5.68884,-2.4856 7.5,-4.875 1.18564,-1.25737 2.79274,-2.14978 6.1875,-0.875 -4.24354,10.24996 -8.80088,11.74194 -21.65625,11.46875 0.48097,3.36678 9.91257,12.60505 23,11.5 0.90744,3.60939 -9.16577,14.3905 -11.0625,8.84375 -0.62686,-1.97925 -3.41903,1.30735 -4.875,3.53125 1.8979,3.37405 10.60722,8.51317 12.375,9.71875 0.96091,0.87376 -6.89424,1.46883 -13.25,-1.75 3.40058,22.55761 16.85165,20.73193 25.625,20.3125 2.64435,-0.10529 0.29278,3.08866 -5.28125,5.3125 6.74426,10.77463 20.58181,5.26719 28.46875,0.4375 0.58784,-0.0872 1.0934,-0.38083 1.65625,-0.53125 -0.39891,0.71842 -1.04106,1.62362 -1.40625,2.3125 -2.35664,4.44549 1.36437,10.57045 -2.65625,15.90625 -2.30165,2.54855 -14.54151,19.62755 -21.21875,-9.71875 -16.79581,20.70452 -7.26844,40.24217 14.59375,40.65625 10.71065,1.08677 25.09422,-7.8912 31.8125,-17.6875 8.82181,0.59387 13.93323,-10.48522 17.25,-7.0625 1.73848,1.60907 2.4802,4.8041 3.15625,7.84375 -0.0153,0.0188 -0.0473,0.0751 -0.0625,0.0937 -14.35929,18.14488 -48.82842,46.30992 -63.65625,34.9375 -2.42296,-1.98985 5.73435,-10.85075 0,-14.15625 -4.22835,-2.69213 -20.1464,2.49413 -26.5,7.5 -3.36915,2.65448 0.93698,14.26082 -1.78125,16.375 -2.58509,2.01062 -9.00202,-6.11918 -14.125,-2.65625 -5.39429,4.11169 -4.64158,16.5895 -2.65625,22.96875 1.59146,3.69362 5.5211,1.05688 6.1875,2.65625 0.80673,1.93619 -0.5804,5.67848 0.4375,7.96875 2.51765,5.66472 3.91177,15.82131 8.84375,16.34375 9.59904,0.97 16.36554,3.21598 15.90625,-9.71875 1.76204,-2.06413 0.34807,-8.25923 5.75,-8.40625 1.70803,-0.18622 1.03417,9.01106 1.3125,13.25 -0.15626,4.04836 14.823,5.87998 17.25,5.75 8.84396,-0.0317 9.67695,-9.1965 10.15625,-22.53125 4.82402,-0.95474 3.02979,17.73073 10.15625,19.875 0.59545,-18.4797 9.79394,-17.29637 10.625,-24.75 2.99911,3.91806 5.47566,7.74039 3.53125,8.84375 -2.19605,0.80423 -3.28653,12.96585 7.5,8.84375 -3.93717,-3.23845 -3.60949,-5.78813 -2.46875,-6.15625 2.56731,-0.38653 6.68486,-6.4494 6.90625,-8.875 2.82548,-0.0412 7.02029,-0.79057 6.625,0 -1.32583,2.20972 -3.98664,8.83636 0.875,9.71875 5.2199,0.8672 3.09939,-9.2296 6.625,-13.6875 2.31252,-3.3431 6.08407,-6.01564 7.53125,-10.15625 0.81603,-2.08557 4.76418,10.36571 6.1875,9.71875 3.14344,-6.12949 2.2662,-14.48607 4.40625,-15.03125 3.10742,-1.67548 2.42744,6.41684 5.3125,7.5 2.71289,-3.88213 4.07015,-11.68564 7.5,-11.46875 3.02177,0.21935 2.47084,-0.48724 6.625,3.53125 0.98238,-5.36994 7.391,-14.38823 7.0625,-29.1875 2.11337,-0.72351 8.45313,16.82454 8.84375,14.15625 0.39375,-8.66254 11.17686,-12.83816 9.3125,-31.6875 25.9225,4.36849 25.2054,-0.96881 26.71875,0.1875 13.66751,9.55908 12.60534,4.95748 30.75,20.375 0.83605,0.8396 0.81429,2.66789 0.4375,4.9375 -0.0106,-8.8e-4 -0.0207,8.1e-4 -0.0312,0 -30.30015,-2.3504 -57.55375,23.53584 -65.84375,35.34375 -1.87955,2.89541 -26.76825,1.13199 -37.3125,4.625 -19.04835,6.10314 -31.14878,28.08478 -45.53125,35.875 -6.59381,2.94652 -20.44236,0.82414 -24.75,-0.90625 -2.57172,21.15418 8.56261,23.05539 17.875,23.53125 21.70058,1.14085 23.19678,-9.66775 29.59375,-7.875 5.16575,0.82269 19.01022,15.61463 18.5625,20.34375 -0.38833,4.64392 -7.38152,13.41551 -11.46875,15.53125 -5.70602,2.56194 -14.11787,1.58595 -21.21875,1.25 -0.11949,-4.10449 0.96564,-7.83262 -1.15625,-9.71875 -3.18143,-2.82794 -8.94773,-2.07484 -14.75,-4.40625 -3.10477,-1.39813 -8.05117,1.87695 -9.71875,4.65625 -1.86797,3.11328 -2.26015,9.54003 -0.90625,13 1.29776,3.3165 9.07541,5.76626 8.84375,7.96875 -7.64315,4.19916 -18.82544,-2.15861 -21.21875,0 -5.40963,5.50412 -1.9676,20.36575 0.90625,27.40625 2.18678,3.82612 5.70817,2.21161 8.1875,2.1875 1.20647,2.8558 -0.0882,7.07193 1.78125,9.28125 2.99194,3.53593 10.41528,8.21899 14.3125,7.53125 3.6158,-0.6381 5.77511,-1.68622 7.96875,-10.1875 1.03312,-4.00371 6.4107,7.59167 8.84375,8.40625 6.12717,0.93843 15.63753,0.70773 19.875,-1.75 6.25326,-5.56439 -2.16944,-10.68341 1.34375,-14.59375 2.85273,0.0401 5.75601,8.10581 10.59375,11.03125 0.7602,-3.662 -0.77225,-11.1575 0.875,-11.90625 1.59367,4.57891 6.37769,8.16477 10.1875,7.0625 -0.71621,-6.70538 -0.0332,-18.41212 0.4375,-21.21875 2.18097,-0.58159 6.34322,15.16351 10.59375,15.90625 0.0952,-8.32942 -0.28982,-17.71161 1.78125,-19.4375 1.46448,5.40876 6.71676,11.88442 9.71875,11.03125 -1.08689,-9.90077 1.09566,-11.51207 3.96875,-19 2.74751,-6.71864 3.44354,-14.14801 6.625,-15.90625 2.83712,-1.3767 7.76701,2.03436 2.71875,8.4375 -1.8412,1.77482 -1.04277,8.17224 0.375,13.21875 2.93603,-6.4733 18.22798,-13.06427 18.5625,-22.53125 0.4727,-12.93611 -14.91974,-27.22184 -17.65625,-30.9375 -2.43893,-3.31161 -3.84439,-14.72033 -0.46875,-16.78125 10.54794,-6.43981 21.94666,-11.479 48.21875,-10.875 10.2145,16.52966 20.33649,27.70505 17.21875,38.84375 -3.86715,12.93227 -15.63808,5.69398 -21.25,-1.25 -2.92078,18.03 4.95846,26.17976 12.5,28.125 20.55322,5.07346 23.21469,-6.76568 27.5,-7.5 18.4315,-3.97903 30.73867,0.82775 47.875,-7.5 2.78507,-1.42707 7.48788,26.44716 -7.875,34.46875 -2.27656,3.59456 -10.7123,2.8251 -14.125,1.25 -2.004,-0.92492 0.94743,-4.85331 -2.125,-6.96875 -9.63594,-6.63458 -16.63283,4.8679 -23.75,8.75 -0.79953,4.86794 -4.15806,6.08574 -4.375,8.125 -0.82473,7.75245 11.22564,8.78653 10.625,11.875 -8.14938,1.28655 -12.72317,-5.0769 -18.75,-3.125 1.0268,6.38147 -3.90254,4.11829 -3.125,9.375 1.4379,5.38926 7.54604,15.94535 12.5,19.37501 3.17106,-0.3047 6.60368,-0.4473 9.375,-3.12501 2.85371,9.76101 21.94224,11.67231 28.75,10.62501 -0.34942,-11.86936 0.44151,-15.80277 6.875,-15.62501 -0.80847,8.36391 2.78505,11.57491 6.25,13.12501 4.45176,1.9916 13.15981,3.0337 16.25,0 7.10079,-6.3461 7.75083,-12.00156 5,-13.75001 0.87583,-4.08489 5.96301,-4.43794 6.25,-7.5 1.82402,-12.79367 -2.07177,-16.87843 -1.25,-25 2.0949,-1.25347 8.65308,25.59271 15,21.875 -0.0969,-6.69898 0.15638,-12.68977 3.75,-15.625 3.89543,8.49828 11.14369,10.37105 14.375,11.25 -11.77298,-13.37901 -2.36073,-13.36461 -1.25,-22.5 0.40952,-2.15532 6.73917,7.22498 10.625,6.875 0.35238,-6.39794 1.05112,-24.64079 -0.625,-26.875 -5.29199,-7.67902 -3.87606,-15.11253 -0.625,-14.375 5.83839,1.18269 1.6863,17.21024 10,21.875 3.547,-14.63388 7.8417,-20.97479 7.5,-23.75 -1.79849,-15.23191 -15.59211,-20.90181 -30.625,-19.375 -1.89932,0.1852 -30.88329,-24.6582 -54.375,-22.5 2.07671,-7.13446 6.39715,-19.69956 8.875,-32.6875 19.81328,26.12357 41.89425,32.97465 70.5,40.4375 13.65562,5.01477 6.31511,13.52469 7.5,21.625 1.73176,3.98305 7.3389,8.50792 12.5,10 0.2556,-4.82543 -3.46189,-6.44065 -3.125,-13.125 0.81448,-5.66008 5.75964,-13.21053 5.625,-18.125 -0.28202,-10.2939 -7.83015,-18.30583 -15,-17.5 15.91985,-28.72256 14.63971,-44.9021 -6.25,-74.375 -3.06869,-5.73552 0.79526,-26.13022 23.75,-14.375 -5.76719,-24.25525 -38.17865,-17.04737 -41.875,-1.875 -6.09537,-2.04733 -8.0311,-13.66323 -4.375,-18.75 5.92724,-8.2466 19.37494,-19.87043 43.125,-9.375 -3.125,-7.78708 -15.6363,-27.17926 -44.375,-16.875 2.07196,-13.01261 55.1529,-27.06813 51.25,-93.124995 -2.24296,4.07756 -33.27659,64.316205 -53.75,64.374995 6.09837,-10.16299 29.36593,-47.47547 29.375,-68.124995 0.008,-17.46709 -19.1053,-52.9724 -60.625,-53.125 z m 18.75,34.375 c 12.50002,-0.68965 23.55407,9.70449 23.75,22.5 -10.19598,30.121245 -56.59804,74.385145 -56.25,109.999995 0.36612,36.58031 52.45137,76.01769 53.59375,83.21875 2.90729,8.75098 -11.5308,17.9995 -18.59375,18.03125 -8.52597,0.0348 -22.32186,-23.3883 -34.6875,-32.9375 -0.51527,-2.28954 -1.205,-4.47744 -2.1875,-6.4375 -29.44149,-57.48835 -50.10312,-63.76328 -72.71875,-86 -3.73507,-3.66994 -4.05582,1.52226 -7.84375,-7 2.6366,-1.63931 2.45175,-4.24047 3.53125,-3.3125 11.69866,10.4985 19.04126,-0.43866 19,-7.96875 -0.007,-1.17202 -6.61642,3.40661 -11.0625,1.78125 -1.26667,-0.42119 1.9465,-8.61248 3.53125,-7.09375 1.13852,1.51462 10.45126,3.10087 14.15625,1.78125 0.6238,-0.33676 0.9563,-0.86911 1.1875,-1.5 6.82485,-0.37971 8.04779,-5.74218 12.71875,-5.6875 -6.22561,17.43204 4.0396,42.5957 13.75,42.5 -4.71039,-22.82101 -2.03485,-32.62957 7.5,-44.625 3.38186,-4.2546 3.87279,-15.12941 8.75,-19.125 6.37281,8.9956 0.24255,24.13019 1.25,38.75 10.03423,-7.32814 22.81644,-40.29076 14.375,-59.374995 9.4831,0.54253 23.81093,-0.39287 30,-17.5 -9.93907,1.27377 -16.0603,-3.21505 -16.25,-6.25 -0.22698,-3.63174 7.84076,-13.02701 12.5,-13.75 z"
     id="path636"
     style="font-size:12px;fill:#000000;fill-opacity:1;fill-rule:evenodd;stroke:#ffffff;stroke-width:1pt;stroke-opacity:1" />
  <path
     d="m 175.40445,71.399679 c -6.25006,-5.00005 -3.48519,-7.850704 -9.11024,-13.475754 9.37509,0.10417 11.97042,3.33336 15.72045,5.93756 -0.20833,5.00004 -2.02683,8.163194 -6.61021,7.538194 z"
     id="path637"
     sodipodi:nodetypes="cccc"
     style="font-size:12px;fill:#ff0000;fill-opacity:1;fill-rule:evenodd;stroke:#000000;stroke-width:1pt;stroke-opacity:1" />
  <path
     d="m 203.84221,49.211969 c -0.625,-6.04172 -0.66312,-8.71263 -2.53814,-12.87934 9.37509,0.41667 14.47044,9.33764 16.97046,13.50435 -2.50002,1.25001 -13.18231,2.50002 -14.43232,-0.62501 z"
     id="path638"
     sodipodi:nodetypes="cccc"
     style="font-size:12px;fill:#ff0000;fill-opacity:1;fill-rule:evenodd;stroke:#000000;stroke-width:1pt;stroke-opacity:1" />
  <path
     d="m 241.96757,57.962049 c 3.12502,-2.91669 5.75192,-6.90729 5.75192,-15.44904 3.95837,5.72922 10.0572,13.778254 5.57536,18.462187 -1.38871,1.237102 0.92911,3.712568 0.72667,5.5404 -1.66668,2.08335 -14.1373,-5.636847 -12.05395,-8.553547 z"
     id="path639"
     sodipodi:nodetypes="ccscc"
     style="font-size:12px;fill:#ff0000;fill-opacity:1;fill-rule:evenodd;stroke:#000000;stroke-width:1pt;stroke-opacity:1" />
  <path
     d="m 178.56759,117.64057 c -6.69531,1.98872 -12.74656,-5.09468 -13.47574,-14.0531 4.07207,2.78393 6.59116,2.48096 10.9662,3.10597 1.67621,2.06429 4.2804,10.11379 2.50954,10.94713 z"
     id="path640"
     sodipodi:nodetypes="cccc"
     style="font-size:12px;fill:#ff0000;fill-opacity:1;fill-rule:evenodd;stroke:#000000;stroke-width:1pt;stroke-opacity:1" />
  <path
     d="m 196.66312,247.03719 c -3.78485,-2.71263 -6.23428,-8.91931 -12.50005,-15.34116 12.81876,-1.05912 21.65754,6.3286 22.89837,10.32208 0.59215,1.60281 -5.64147,4.59813 -10.39832,5.01908 z"
     id="path641"
     sodipodi:nodetypes="ccsc"
     style="font-size:12px;fill:#ff0000;fill-opacity:1;fill-rule:evenodd;stroke:#000000;stroke-width:1pt;stroke-opacity:1" />
  <path
     d="m 154.15342,282.65279 c -1.17456,-10.21334 11.89525,-12.73525 15.03818,-15.00005 2.89875,-0.23522 3.56592,10.02985 2.17798,11.87504 -6.73709,0.23815 -9.84902,0.62004 -17.21616,3.12501 z"
     id="path642"
     sodipodi:nodetypes="cccc"
     style="font-size:12px;fill:#ff0000;fill-opacity:1;fill-rule:evenodd;stroke:#000000;stroke-width:1pt;stroke-opacity:1" />
  <path
     d="m 176.97554,298.15396 c -3.1595,0.56421 -9.87947,9.22535 -1.57204,22.93649 2.52595,-7.46111 6.94195,-7.90557 9.7352,-10.03817 1.58176,-7.0341 -5.4893,-13.37579 -8.16316,-12.89832 z"
     id="path643"
     sodipodi:nodetypes="cccs"
     style="font-size:12px;fill:#ff0000;fill-opacity:1;fill-rule:evenodd;stroke:#000000;stroke-width:1pt;stroke-opacity:1" />
  <path
     d="m 352.73821,46.005936 c -0.72289,-0.08507 -4.90322,12.24084 -0.58685,14.461671 3.02981,1.773114 3.31346,4.876931 1.50445,5.954878 -2.54212,1.72902 -1.88002,3.517976 -1.8352,6.091408 0.047,2.482982 -2.0297,2.860149 -1.59252,4.349108 1.45594,5.672179 19.8564,1.022998 28.56118,5.44871 1.23708,0.598514 -2.79716,-10.074208 -6.4592,-14.143137 -3.22564,-3.584038 -9.07574,-4.538068 -12.91842,-7.530368 -4.08654,-2.801136 -1.21182,-13.77534 -6.67344,-14.63227 z"
     id="path930"
     sodipodi:nodetypes="cssssssss"
     style="font-size:12px;fill:#ffffff;stroke:#ffffff;stroke-opacity:1" />
  <path
     d="m 204.77862,318.27794 c 7.44288,-2.97393 6.77502,-2.12269 6.57206,-9.43223 4.4738,-0.0863 9.56298,1.61792 14.17692,3.75955 1.03014,2.85839 -12.44417,12.84108 -20.74898,5.67268 z"
     id="path644"
     sodipodi:nodetypes="cccc"
     style="font-size:12px;fill:#ff0000;fill-opacity:1;fill-rule:evenodd;stroke:#000000;stroke-width:1pt;stroke-opacity:1" />
  <path
     d="m 245.09243,446.71575 c -7.50007,-4.37509 -11.28548,-12.42939 -6.91044,-19.92945 5.63684,0.16115 13.1487,3.91118 13.98205,6.41121 -2.08336,3.12503 -9.3633,6.64313 -7.07161,13.51824 z"
     id="path645"
     sodipodi:nodetypes="cccc"
     style="font-size:12px;fill:#ff0000;fill-opacity:1;fill-rule:evenodd;stroke:#000000;stroke-width:1pt;stroke-opacity:1" />
  <path
     d="m 206.6546,410.15289 c 5.00004,-11.35427 8.87585,-11.19113 17.62593,-16.92035 1.45834,5.60146 2.52361,10.77446 2.33886,17.66131 -4.77992,-4.31804 -12.8814,-3.13681 -19.96479,-0.74096 z"
     id="path646"
     sodipodi:nodetypes="cccc"
     style="font-size:12px;fill:#ff0000;fill-opacity:1;fill-rule:evenodd;stroke:#000000;stroke-width:1pt;stroke-opacity:1" />
  <path
     d="m 245.71744,368.27753 c -5.83338,-3.64586 -11.04177,-8.54174 -15.00013,-12.81261 11.04176,-1.66668 16.19116,3.54169 18.48284,5.62504 0.41668,3.43754 3.60068,8.75008 -3.48271,7.18757 z"
     id="path647"
     sodipodi:nodetypes="cccc"
     style="font-size:12px;fill:#ff0000;fill-opacity:1;fill-rule:evenodd;stroke:#000000;stroke-width:1pt;stroke-opacity:1" />
  <path
     d="m 268.84264,444.52819 c 4.7917,-5.41671 6.45839,-7.47648 3.12502,-14.7682 5.00004,-0.83335 10.00009,-1.23823 15.00013,-0.19655 -4.23747,8.12507 -5.63683,13.28628 -18.12515,14.96475 z"
     id="path648"
     sodipodi:nodetypes="cccc"
     style="font-size:12px;fill:#ff0000;fill-opacity:1;fill-rule:evenodd;stroke:#000000;stroke-width:1pt;stroke-opacity:1" />
  <path
     d="m 438.46257,406.28462 c -5.7453,-5.59798 -10.16476,-12.96374 -17.23589,-16.79394 4.3458,-1.95192 16.06987,2.38304 22.95686,3.57998 6.88699,1.19693 6.3661,-1.60109 11.07297,0.17656 -1.62047,4.64043 -12.5218,15.91005 -16.79394,13.0374 z"
     id="path649"
     sodipodi:nodetypes="ccscc"
     style="font-size:12px;fill:#ff0000;fill-opacity:1;fill-rule:evenodd;stroke:#000000;stroke-width:1pt;stroke-opacity:1" />
  <path
     d="m 406.64248,449.15335 c 1.54055,-9.70932 4.54028,-13.96847 12.37447,-19.32574 5.75204,2.77925 8.66512,9.75025 8.18949,12.7033 -9.2072,-1.3995 -14.45038,1.39275 -20.56396,6.62244 z"
     id="path650"
     sodipodi:nodetypes="cccc"
     style="font-size:12px;fill:#ff0000;fill-opacity:1;fill-rule:evenodd;stroke:#000000;stroke-width:1pt;stroke-opacity:1" />
  <path
     d="m 448.19212,450.89418 c -1.17852,14.0686 10.23166,19.32527 18.77595,21.01937 -4.93507,-8.176 -11.14204,-8.85234 -6.3543,-17.91224 -4.69387,-0.65667 -8.37048,-4.28563 -12.42165,-3.10713 z"
     id="path651"
     sodipodi:nodetypes="cccc"
     style="font-size:12px;fill:#ff0000;fill-opacity:1;fill-rule:evenodd;stroke:#000000;stroke-width:1pt;stroke-opacity:1" />
  <path
     d="m 485.52978,450.70015 c -1.54681,6.2609 -4.41945,11.6379 -4.19848,16.573 7.95502,-4.7878 13.70032,-10.0175 15.91004,-15.6891 -1.98875,-2.357 -9.28086,-4.2721 -11.71156,-0.8839 z"
     id="path652"
     sodipodi:nodetypes="cccc"
     style="font-size:12px;fill:#ff0000;fill-opacity:1;fill-rule:evenodd;stroke:#000000;stroke-width:1pt;stroke-opacity:1" />
  <path
     d="m 486.6289,121.29778 c 0.37136,2.99518 0.19534,21.05299 1.43896,20.56632 1.94442,-0.091 2.27327,-25.87952 -1.71386,-41.875818 -3.90023,-14.357143 -3.97263,-30.331766 -0.73559,-38.755224 1.73959,-4.952008 4.83697,-6.184305 7.89816,-10.776085 -11.82674,4.97022 -13.34687,15.632305 -13.34687,27.979145 0.42846,19.512345 3.87231,18.541763 6.4592,42.861662 z"
     id="path823"
     sodipodi:nodetypes="csssccs"
     style="font-size:12px;fill:#ffffff;stroke:#ffffff;stroke-opacity:1" />
  <path
     d="m 336.66698,107.35227 c 0.42847,12.5748 -7.86974,25.04751 -18.36712,25.68326 -0.45947,0.0278 -0.46127,1.3872 0,1.43896 11.15812,1.03772 23.41011,-16.93696 18.36712,-27.12222"
     id="path826"
     sodipodi:nodetypes="cssc"
     style="font-size:12px;fill:#ffffff;stroke:#ffffff;stroke-opacity:1" />
  <path
     d="m 414.51302,119.04595 c 3.97409,3.60585 7.87271,6.38777 3.67418,6.45921 -3.24945,0.0589 -4.76651,-7.5092 -3.67418,-6.45921 z"
     id="path828"
     sodipodi:nodetypes="css"
     style="font-size:12px;fill:#ffffff;stroke:#ffffff;stroke-opacity:1" />
  <path
     d="m 276.61888,137.26996 c 0.55393,2.14225 1.76978,2.54576 1.68995,-0.30298 -0.0846,-13.82989 0.62037,-9.8966 4.46389,-12.43556 3.39673,-2.04368 3.17175,-3.17015 -0.29238,-2.69251 -1.17453,0.26467 -6.00779,4.69658 -7.5514,8.79915 -1.09199,2.79507 1.22414,3.218 1.68994,6.6319 z"
     id="path830"
     sodipodi:nodetypes="csssss"
     style="font-size:12px;fill:#ffffff;stroke:#ffffff;stroke-opacity:1" />
  <path
     d="m 467.90921,124.42745 c -0.21676,-3.0559 -12.07846,19.53137 -12.82552,25.16946 -1.86045,13.61228 1.23914,26.49505 2.93858,26.35061 3.12828,-0.30231 -2.61407,-9.98136 -1.01049,-23.38737 1.48186,-9.77631 10.96188,-21.18331 10.89743,-28.1327 z"
     id="path832"
     sodipodi:nodetypes="cssss"
     style="font-size:12px;fill:#ffffff;stroke:#ffffff;stroke-opacity:1" />
  <path
     d="m 428.50259,128.22951 c 1.20837,-0.23127 1.5755,1.42732 0.58203,1.6532 -1.48203,0.65654 -1.9459,-1.15036 -0.58203,-1.6532 z"
     id="path834"
     sodipodi:nodetypes="css"
     style="font-size:12px;fill:#ffffff;stroke:#ffffff;stroke-opacity:1" />
  <path
     d="m 415.58418,137.62731 c -3.16381,1.31013 -1.53105,3.57461 1.04273,3.73485 8.70024,0.56832 6.59603,-1.56867 2.99926,-1.86743 -2.7423,-0.25859 -0.66671,-2.65923 -4.04199,-1.86742 z"
     id="path838"
     sodipodi:nodetypes="csss"
     style="font-size:12px;fill:#ffffff;stroke:#ffffff;stroke-opacity:1" />
  <path
     d="m 411.42086,148.09626 c -1.44703,-4.19746 -4.76765,7.14596 1.7461,7.04124 5.27477,0.26216 -0.39512,-1.87958 -1.7461,-7.04124 z"
     id="path843"
     sodipodi:nodetypes="css"
     style="font-size:12px;fill:#ffffff;stroke:#ffffff;stroke-opacity:1" />
  <path
     d="m 386.31964,153.27007 c 0.17903,0.017 6.57352,6.58866 8.14083,6.58054 6.22391,-0.0253 11.20869,0.11541 12.09372,-0.97826 2.3459,-1.76322 -10.96312,-0.85302 -11.56855,-1.22473 -3.64291,-2.4997 -1.60977,-4.85831 -8.666,-4.37755 z"
     id="path845"
     sodipodi:nodetypes="cssss"
     style="font-size:12px;fill:#ffffff;stroke:#ffffff;stroke-opacity:1" />
  <path
     d="m 297.74396,158.77945 c 0.53401,12.32072 -9.69499,19.91508 -11.78656,23.48398 -3.54252,5.68185 -3.4968,9.45122 -4.14461,12.42925 -0.64781,2.97804 1.19546,5.36359 1.2989,2.13862 0.26339,-8.42604 5.46364,-14.8809 7.46676,-18.09277 0.64854,-0.93942 4.13556,-0.53843 8.36386,-12.7889 0.51548,-1.42146 2.61939,-3.11938 1.33491,-3.23185 -1.58398,-0.007 -1.4798,-2.99796 -1.41315,-3.96283 0.27291,-3.73688 -1.2181,-3.75129 -1.12011,0.0245 z"
     id="path846"
     sodipodi:nodetypes="cssssssss"
     style="font-size:12px;fill:#ffffff;stroke:#ffffff;stroke-opacity:1" />
  <path
     d="m 318.29986,156.42287 c -1.37452,12.39072 6.02402,15.61445 6.88767,23.38736 0.66694,6.00243 -0.62234,14.62993 -3.15281,17.08173 -2.39938,1.91851 -9.07191,-7.36425 -15.64277,-5.17381 -16.10105,5.3674 -16.76525,23.85017 -4.16332,31.86756 1.22507,0.82105 -4.01189,3.73711 -5.4487,3.15282 -16.17762,-6.15031 -14.68014,-17.64122 -16.65327,-16.07123 -4.31699,2.82216 6.9348,19.08393 18.94916,18.36712 7.96141,-0.75893 13.3281,-2.21118 13.34687,-5.60228 0.008,-1.57396 -8.69093,-1.9292 -11.05098,-3.58128 -9.84261,-6.89001 -3.45528,-27.05322 9.18356,-24.24429 3.49208,0.7761 6.97258,6.37279 7.74459,8.32663 0.58148,2.55598 2.7738,1.70668 3.30639,0.42846 3.29389,-7.90534 6.88767,-11.76371 6.88767,-20.69525 0,-4.8438 -4.16331,-14.75359 -6.4592,-19.34537 -1.10213,-3.06119 -3.33248,-10.66342 -3.73486,-7.89817 z"
     id="path848"
     sodipodi:nodetypes="csssssssssssssss"
     style="font-size:12px;fill:#ffffff;stroke:#ffffff;stroke-opacity:1" />
  <path
     d="m 373.40123,155.56596 c -0.9612,-1.07786 -0.61685,9.71317 5.29895,13.34688 7.10907,4.79512 13.44855,-2.02592 11.78278,-1.86743 -13.52348,1.32749 -13.7961,-7.36657 -17.08173,-11.47945 z"
     id="path849"
     sodipodi:nodetypes="csss"
     style="font-size:12px;fill:#ffffff;stroke:#ffffff;stroke-opacity:1" />
  <path
     d="m 261.17752,200.26276 c -0.50412,10.49073 -3.73624,14.22513 -1.77455,14.1394 2.55958,-0.12123 5.95676,-10.90241 7.25546,-25.86902 1.37767,-13.40768 16.41927,-24.91287 12.55062,-23.56939 -4.82723,1.60196 -17.28306,15.26507 -18.03153,35.29901 z"
     id="path851"
     sodipodi:nodetypes="cssss"
     style="font-size:12px;fill:#ffffff;stroke:#ffffff;stroke-opacity:1" />
  <path
     d="m 196.99656,176.55586 c -4.38384,-3.60254 -0.0492,-2.49087 2.04012,-0.86172 2.99727,2.57333 1.23279,3.30233 -2.04012,0.86172 z"
     id="path852"
     sodipodi:nodetypes="css"
     style="font-size:12px;fill:#ffffff;stroke:#ffffff;stroke-opacity:1" />
  <path
     d="m 225.63124,175.64694 c -0.4585,-5.91269 -2.03071,5.66927 -6.05943,7.87727 -3.94598,1.8659 -4.29748,2.55215 -4.33601,4.5583 -0.0473,2.76644 2.50332,-0.65183 5.80946,-1.91814 2.92432,-1.38805 4.944,-6.13715 4.58598,-10.51743 z"
     id="path853"
     sodipodi:nodetypes="cssss"
     style="font-size:12px;fill:#ffffff;stroke:#ffffff;stroke-opacity:1" />
  <path
     d="m 334.74757,174.56055 c -1.05159,-0.256 -0.41745,4.95435 -0.93301,9.85395 -0.0774,3.61501 -3.93506,11.53413 -4.22426,13.56161 -0.87796,12.92607 2.17916,19.91626 3.44581,14.2273 1.64265,-6.69739 18.03999,-22.12203 15.96486,-23.86752 -1.51485,-0.97124 -14.20208,17.82249 -17.15523,12.86643 -0.89293,-1.40694 10.35942,-24.90001 2.90183,-26.64177 z"
     id="path854"
     sodipodi:nodetypes="cssssss"
     style="font-size:12px;fill:#ffffff;stroke:#ffffff;stroke-opacity:1" />
  <path
     d="m 357.32999,176.22897 c -0.59568,-0.0435 1.21835,3.84203 3.42772,4.00975 16.98313,1.3218 13.89608,-5.00811 24.705,-0.2749 2.12245,-2.85514 -5.35465,-6.5067 -18.09222,-1.86742 -2.10505,0.74175 -7.85167,-1.67615 -10.0405,-1.86743 z"
     id="path855"
     sodipodi:nodetypes="cscss"
     style="font-size:12px;fill:#ffffff;stroke:#ffffff;stroke-opacity:1" />
  <path
     d="m 528.66482,196.46349 c 3.73485,1.3151 3.87558,-5.73882 12.91841,-11.47945 14.88811,-9.0229 29.35417,1.03075 26.11172,-2.29589 -8.23895,-7.58481 -37.36847,-3.04915 -39.03013,13.77534"
     id="path856"
     sodipodi:nodetypes="csss"
     style="font-size:12px;fill:#ffffff;stroke:#ffffff;stroke-opacity:1" />
  <path
     d="m 358.96796,196.78801 c 4.20913,0 10.62579,-0.67794 12.6274,-1.28539 2.25006,-0.86884 5.84748,-1.2854 12.6274,1.28539 -2.7631,-4.60578 -9.93373,-5.22557 -16.41359,-2.8844 -5.48713,1.61968 -8.41275,-0.069 -8.84121,2.8844 z"
     id="path857"
     sodipodi:nodetypes="cscsc"
     style="font-size:12px;fill:#ffffff;stroke:#ffffff;stroke-opacity:1" />
  <path
     d="m 209.86298,207.9645 c -2.748,-0.50813 -3.50127,8.49144 -1.82019,14.30063 1.17151,4.35129 4.11517,6.65499 3.73721,5.50544 -4.42774,-12.5452 -0.9795,-19.61123 -1.91702,-19.80607 z"
     id="path858"
     sodipodi:nodetypes="csss"
     style="font-size:12px;fill:#ffffff;stroke:#ffffff;stroke-opacity:1" />
  <path
     d="m 548.10311,222.27188 c -1.31527,2.54576 -3.10356,11.35708 -0.2749,10.71162 3.78355,-22.18981 22.50188,-20.39984 21.09147,-21.51994 -3.05689,-2.85616 -14.94837,0.27945 -20.81657,10.80832 z"
     id="path859"
     sodipodi:nodetypes="ccss"
     style="font-size:12px;fill:#ffffff;stroke:#ffffff;stroke-opacity:1" />
  <path
     d="m 359.5739,213.46519 c -2.35253,2.95838 -7.39584,1.29857 -7.49361,2.29589 -0.1356,1.5933 3.48847,0.13188 4.09009,1.38697 3.20293,6.53032 5.67676,-6.73828 3.40352,-3.68286 z"
     id="path860"
     sodipodi:nodetypes="csss"
     style="font-size:12px;fill:#ffffff;stroke:#ffffff;stroke-opacity:1" />
  <path
     d="m 280.17721,228.32449 c -16.46375,16.75595 -31.54113,27.89488 -51.16605,30.58237 -0.69375,0.0936 -0.68013,2.25541 0,2.16604 13.29756,-1.70746 26.73519,-7.94151 37.45627,-16.67718 5.63195,-4.58768 15.89659,-10.95775 13.70978,-16.07123 z"
     id="path865"
     sodipodi:nodetypes="csscc"
     style="font-size:12px;fill:#ffffff;stroke:#ffffff;stroke-width:0.954167;stroke-opacity:1" />
  <path
     d="m 336.46352,231.83232 c -0.51533,2.0613 0.15514,3.84166 1.38697,6.30532 0.29876,0.59752 1.68838,1.52115 1.84144,0.90892 0.61224,-2.44895 1.02039,-4.87048 0,-6.91127 -0.5102,-1.0204 -2.97844,-1.30285 -3.22841,-0.30297 z"
     id="path866"
     sodipodi:nodetypes="cssss"
     style="font-size:12px;fill:#ffffff;stroke:#ffffff;stroke-opacity:1" />
  <path
     d="m 282.11958,270.20454 c -0.85461,1.95042 -0.69507,6.07726 -0.48044,9.89107 0.0411,0.24355 1.01597,0.53948 1.13598,-0.1255 0.85117,-2.34215 -1.25894,-7.30955 1.08401,-8.32425 3.5484,-1.66798 -1.21382,-2.21271 -1.73955,-1.44132 z"
     id="path867"
     sodipodi:nodetypes="cssss"
     style="font-size:12px;fill:#ffffff;stroke:#ffffff;stroke-opacity:1" />
  <path
     d="m 188.897,278.83413 c -2.47322,0.34587 3.34613,4.39173 3.07693,8.57762 -0.0473,0.68281 2.73811,0.55392 2.59886,-1.81783 0.0993,-3.77158 -3.82505,-6.97624 -5.67579,-6.75979 z"
     id="path868"
     sodipodi:nodetypes="csss"
     style="font-size:12px;fill:#ffffff;stroke:#ffffff;stroke-opacity:1" />
  <path
     d="m 262.31351,281.68635 c 3.14221,3.46344 0.68407,2.54558 1.08401,7.99736 0.0938,1.5821 1.36673,3.09676 1.31345,1.1599 -0.1846,-4.61094 2.17723,-1.97454 2.29589,-9.6377 -0.0512,-2.12807 -7.30071,-2.70013 -4.69335,0.48044 z"
     id="path869"
     sodipodi:nodetypes="cssss"
     style="font-size:12px;fill:#ffffff;stroke:#ffffff;stroke-opacity:1" />
  <path
     d="m 487.76726,279.11556 c 5.24376,13.61535 33.97706,42.92058 58.40775,41.75449 -6.56583,-2.12786 -17.22503,-5.96906 -28.56118,-13.77534 -12.02864,-8.60851 -29.8531,-31.93499 -29.84657,-27.97915 z"
     id="path870"
     sodipodi:nodetypes="ccsc"
     style="font-size:12px;fill:#ffffff;stroke:#ffffff;stroke-opacity:1" />
  <path
     d="m 181.40339,286.02477 c -0.75994,0 -1.01642,1.59452 -0.30297,1.99292 1.38046,0.77086 7.08864,0.23732 6.5847,-1.21188 -0.10726,-1.17971 -4.74578,-0.78104 -6.28173,-0.78104 z"
     id="path871"
     sodipodi:nodetypes="csss"
     style="font-size:12px;fill:#ffffff;stroke:#ffffff;stroke-opacity:1" />
  <path
     d="m 240.61609,286.57874 c -0.30297,2.15174 1.28439,0.17637 2.57494,2.92988 0.28154,0.50722 1.58827,-2.24288 0.85693,-3.18088 -0.69826,-0.89557 -3.33634,-0.33196 -3.43187,0.251 z"
     id="path872"
     sodipodi:nodetypes="csss"
     style="font-size:12px;fill:#ffffff;stroke:#ffffff;stroke-opacity:1" />
  <path
     d="m 259.94172,328.73777 c 19.77637,-8.99732 15.27443,-13.31044 36.3034,-30.9306 7.76684,-6.00012 18.84056,-6.00562 25.07967,-7.49359 -18.75126,-7.84432 -36.53721,13.70621 -46.09288,25.0797 -7.74121,7.74121 -14.0573,5.94713 -15.29019,13.34449 z"
     id="path873"
     sodipodi:nodetypes="csccc"
     style="font-size:12px;fill:#ffffff;stroke:#ffffff;stroke-opacity:1" />
  <path
     d="m 211.9814,291.72448 c -2.13325,-1.21792 -2.65726,14.23093 1.03441,13.92889 5.84084,-1.15579 10.90617,3.88092 10.54661,0.78104 -0.44211,-3.38316 -6.97861,-0.28996 -8.88059,-2.82593 -2.6898,-3.58641 1.71214,-8.93628 -2.70043,-11.884 z"
     id="path874"
     sodipodi:nodetypes="cssss"
     style="font-size:12px;fill:#ffffff;stroke:#ffffff;stroke-opacity:1" />
  <path
     d="m 178.50156,292.3065 c -0.30518,5.63094 5.93911,4.73956 8.02365,8.90864 0.97665,1.9533 1.47106,8.49373 4.38863,9.03001 2.93881,0.61895 5.03878,-0.19387 -0.35318,-3.68762 -1.94651,-1.53888 -1.68422,-9.71499 -12.0591,-14.25103 z"
     id="path875"
     sodipodi:nodetypes="csssc"
     style="font-size:12px;fill:#ffffff;stroke:#ffffff;stroke-opacity:1" />
  <path
     d="m 321.75565,242.95682 c -4.02388,-0.0809 1.09237,-0.098 0.90654,10.21972 -0.0574,3.09443 1.5273,6.07652 1.43895,3.30225 -0.18051,-5.04891 1.67452,-13.13814 -2.34549,-13.52197 z"
     id="path877"
     sodipodi:nodetypes="csss"
     style="font-size:12px;fill:#ffffff;stroke:#ffffff;stroke-opacity:1" />
  <path
     d="m 209.43451,246.28711 c -0.45738,-1.38482 -5.83526,3.39627 -11.95989,5.60227 -0.66819,0.25878 0.24216,1.71956 0.85694,1.43895 5.28135,-2.83909 11.87977,-3.39197 11.10295,-7.04122 z"
     id="path878"
     sodipodi:nodetypes="csss"
     style="font-size:12px;fill:#ffffff;stroke:#ffffff;stroke-opacity:1" />
  <path
     d="m 413.87032,243.82027 c 1.05381,5.47055 4.28958,16.54934 1.43896,25.10124 -1.94609,7.55442 -14.76404,31.80929 -8.48019,50.66314 4.59407,13.78452 10.34761,15.98576 11.20454,24.30876 0.33684,6.42697 -0.18326,11.99702 1.86743,12.42548 0.85693,-0.12386 0.61473,-7.96758 0.42846,-14.08246 -0.18117,-5.51917 -12.22127,-19.58498 -11.90791,-34.099 0.32897,-15.66553 2.85802,-18.0033 6.03074,-27.85781 3.22073,-10.43856 5.77344,-15.70954 5.02024,-21.09147 -0.61542,-7.45906 -2.44945,-15.8153 -5.60227,-15.36788 z"
     id="path879"
     sodipodi:nodetypes="cccccssssc"
     style="font-size:12px;fill:#ffffff;stroke:#ffffff;stroke-opacity:1" />
  <path
     d="m 309.97324,249.89647 c -2.47734,0.56335 1.98261,7.83196 2.34548,7.54321 1.09454,-1.2119 1.34,-8.47872 -2.34548,-7.54321 z"
     id="path880"
     sodipodi:nodetypes="css"
     style="font-size:12px;fill:#ffffff;stroke:#ffffff;stroke-opacity:1" />
  <path
     d="m 349.58539,281.99348 c 2.06112,2.86579 22.6184,-22.4365 30.42861,-21.6735 11.08595,1.04116 7.92281,5.92376 9.43002,6.827 7.21532,2.27283 -0.43594,-13.93045 0.61468,-12.86352 9.43367,9.14489 2.59501,16.25714 6.66923,16.07321 2.6751,-0.10928 0.28276,-17.17617 2.08165,-16.92437 5.12993,1.93991 -0.13649,19.02845 2.29589,18.36713 6.85081,-1.97909 4.77291,-19.00344 6.15208,-18.02776 4.94016,3.92333 -1.47534,16.63136 0.30713,16.16033 4.07023,-1.18879 5.48026,-14.68578 2.65759,-17.98924 -2.54446,-3.36409 -9.0211,-2.84034 -15.88313,-2.24531 -14.05592,1.65767 -46.67309,30.08665 -44.75375,32.29603 z"
     id="path881"
     sodipodi:nodetypes="csssssssssss"
     style="font-size:12px;fill:#ffffff;stroke:#ffffff;stroke-opacity:1" />
  <path
     d="m 190.53498,252.74632 c -0.65104,3.52677 1.95738,2.83829 1.99292,8.52978 0.0104,1.97335 1.34381,4.52228 1.31345,2.87378 -0.0736,-4.42548 -0.48681,-7.76548 -0.1255,-11.22609 0.0185,-1.19221 -2.96563,-1.34348 -3.18087,-0.17747 z"
     id="path882"
     sodipodi:nodetypes="cssss"
     style="font-size:12px;fill:#ffffff;stroke:#ffffff;stroke-opacity:1" />
  <path
     d="m 297.71037,260.41741 c -0.27055,3.77469 -0.29788,11.76649 0.78341,10.97508 1.4358,-0.75264 -0.65495,-2.42096 1.56445,-2.85223 1.84321,-0.0552 1.05277,-3.96902 1.08401,-8.17483 -0.0779,-1.2065 -3.26139,-2.62956 -3.43187,0.052 z"
     id="path883"
     sodipodi:nodetypes="cssss"
     style="font-size:12px;fill:#ffffff;stroke:#ffffff;stroke-opacity:1" />
  <path
     d="m 175.7276,265.91573 c -3.5775,0.35654 -1.0568,5.94087 0.60357,6.20582 0.65071,1.80293 -2.09968,1.8245 -1.81545,3.76115 -0.5687,7.63571 0.28852,7.34551 5.55029,6.5088 -3.53369,-2.41131 -2.99663,-6.3668 -1.03441,-8.32425 1.67815,-2.27928 -0.72117,-0.0396 -0.83064,-2.64846 -0.0466,-1.41471 -3.95037,-2.78468 -2.55163,-3.50777 1.81146,-0.63347 3.06806,-2.65134 0.0783,-1.99529 z"
     id="path884"
     sodipodi:nodetypes="ccscssss"
     style="font-size:12px;fill:#ffffff;stroke:#ffffff;stroke-opacity:1" />
  <path
     d="m 302.47963,359.9241 c 0.75021,7.72242 -13.10177,16.13949 -12.0854,17.02736 2.4293,1.85747 15.62924,-8.74177 15.16232,-17.93628 -0.11371,-2.54203 -3.38715,-2.58745 -3.07692,0.90892 z"
     id="path885"
     sodipodi:nodetypes="csss"
     style="font-size:12px;fill:#ffffff;stroke:#ffffff;stroke-opacity:1" />
  <path
     d="m 517.18537,356.74736 c -1.09926,6.38651 7.62732,10.99437 -2.84569,23.35514 -6.14961,7.21451 -9.11208,14.99617 -3.33861,22.25553 3.45286,3.80278 6.13824,3.27012 6.1843,16.37836 0.003,0.72626 0.90116,-1.05789 1.01049,-1.71386 0.65597,-3.93581 1.88623,-6.26274 0,-10.34762 -2.56956,-5.9932 -6.96659,-5.68035 -7.31613,-13.9289 0.033,-3.45322 10.74849,-17.22793 11.47945,-22.34465 0.79963,-5.59743 -4.77485,-17.45241 -5.17381,-13.654 z"
     id="path886"
     sodipodi:nodetypes="cssssssss"
     style="font-size:12px;fill:#ffffff;stroke:#ffffff;stroke-opacity:1" />
  <path
     d="m 547.03194,359.47172 c -0.62455,-0.0597 0.25941,2.42559 3.42772,3.15281 2.7423,0.25859 5.10098,-1.24792 5.32737,4.86669 0.18447,5.41095 0.16059,11.70703 4.00975,10.92964 0.22741,-0.0712 -3.08709,-6.4621 -2.5708,-14.08246 -0.16337,-3.91257 -6.13802,-4.43821 -10.19404,-4.86668 z"
     id="path887"
     sodipodi:nodetypes="csssss"
     style="font-size:12px;fill:#ffffff;stroke:#ffffff;stroke-opacity:1" />
  <path
     d="m 398.65602,363.20656 c -3.39022,2.44821 5.20832,11.36902 16.22478,11.05098 1.63147,-0.0453 1.65891,-1.41867 -2.57078,-2.29588 -9.74822,-1.59327 -12.8449,-9.42391 -13.654,-8.7551 z"
     id="path888"
     sodipodi:nodetypes="csss"
     style="font-size:12px;fill:#ffffff;stroke:#ffffff;stroke-opacity:1" />
  <path
     d="m 250.12652,371.10473 c -4.17204,2.61144 -4.17633,3.32132 1.71386,3.15283 3.87344,-0.52701 8.4048,-3.30685 3.76709,-5.44872 -0.70804,-0.29934 -2.94856,0.97084 -5.48095,2.29589 z"
     id="path889"
     sodipodi:nodetypes="csss"
     style="font-size:12px;fill:#ffffff;stroke:#ffffff;stroke-opacity:1" />
  <path
     d="m 347.79148,368.07087 c 0,2.88608 2.29981,1.37312 2.87378,1.56445 1.72192,0.57397 4.35642,-0.50999 4.44236,1.08638 0.5446,10.54545 -3.04647,7.7285 -2.47336,11.83203 0.30144,1.93302 1.51661,-0.43941 1.79389,-1.69233 2.15349,-4.64998 4.74099,-7.84881 3.3799,-11.02468 -0.9348,-2.1812 -6.19009,-1.76585 -10.01657,-1.76585 z"
     id="path890"
     sodipodi:nodetypes="cssssss"
     style="font-size:12px;fill:#ffffff;stroke:#ffffff;stroke-opacity:1" />
  <path
     d="m 242.53549,374.68602 c -0.63399,0 -0.33683,3.39802 0.42847,4.16331 0.76529,0.7653 3.30638,0.634 3.30638,0 0,-1.75353 -2.83825,-4.16331 -3.73485,-4.16331 z"
     id="path891"
     sodipodi:nodetypes="csss"
     style="font-size:12px;fill:#ffffff;stroke:#ffffff;stroke-opacity:1" />
  <path
     d="m 249.85162,380.13472 c -1.62787,0.31801 5.4256,6.82302 5.60228,5.17382 0.71149,-7.06987 -1.96013,-5.45683 -5.60228,-5.17382 z"
     id="path892"
     sodipodi:nodetypes="css"
     style="font-size:12px;fill:#ffffff;stroke:#ffffff;stroke-opacity:1" />
  <path
     d="m 330.48267,380.99166 c -0.26887,-1.69818 -7.11185,-1.14526 -1.56029,0.9214 0.62995,0.25412 0.35095,10.68931 1.0105,10.71161 1.54396,0.0667 0.93538,-6.49143 0.54979,-11.63301 z"
     id="path893"
     sodipodi:nodetypes="csss"
     style="font-size:12px;fill:#ffffff;stroke:#ffffff;stroke-opacity:1" />
  <path
     d="m 537.41991,382.85908 c -2.23552,1.62009 4.36926,4.44612 5.17382,7.07346 0.92005,4.40368 2.44918,9.63264 3.15281,6.42698 2.31987,-10.14049 -6.40086,-14.46759 -8.32663,-13.50044 z"
     id="path894"
     sodipodi:nodetypes="csss"
     style="font-size:12px;fill:#ffffff;stroke:#ffffff;stroke-opacity:1" />
  <path
     d="m 313.27962,389.31829 c 0.003,1.9395 3.96582,0.46379 4.59178,1.47119 1.09865,1.76814 0.006,6.27864 0.58203,6.42697 1.52485,0.50264 2.23081,-7.99886 0.42846,-7.89816 -0.77189,-0.38533 -5.6034,-0.86977 -5.60227,0 z"
     id="path895"
     sodipodi:nodetypes="cssss"
     style="font-size:12px;fill:#ffffff;stroke:#ffffff;stroke-opacity:1" />
  <path
     d="m 229.18862,391.18571 c 0.039,4.42442 -0.99387,26.55547 4.74534,20.81657 0.88731,-0.45879 -4.62751,-22.15518 -4.74534,-20.81657 z"
     id="path896"
     sodipodi:nodetypes="css"
     style="font-size:12px;fill:#ffffff;stroke:#ffffff;stroke-opacity:1" />
  <path
     d="m 323.74857,324.44896 c -4.16094,5.20885 -16.50206,8.29695 -21.87489,2.29589 -0.30297,9.45447 7.56876,6.75979 15.59316,6.75979 l -1.81782,5.02263 c -7.82807,6.18728 -17.47394,0.25575 -28.63468,-5.67578 5.50291,11.96184 22.59004,15.9987 34.0075,5.85087 3.4947,-2.36529 2.96152,-9.17109 2.72673,-14.2534 z"
     id="path897"
     sodipodi:nodetypes="ccccccc"
     style="font-size:12px;fill:#ffffff;stroke:#ffffff;stroke-opacity:1" />
  <path
     d="m 567.69495,325.46184 c -2.51537,2.00129 5.98123,5.98039 4.16332,18.09221 -0.69721,4.48082 1.47155,-1.53292 1.86741,-2.14233 3.34322,-4.48717 -5.18898,-16.9605 -6.03073,-15.94988 z"
     id="path898"
     sodipodi:nodetypes="csss"
     style="font-size:12px;fill:#ffffff;stroke:#ffffff;stroke-opacity:1" />
  <path
     d="m 236.50476,329.82418 c 3.07377,11.47194 6.24201,10.70155 11.65452,12.26046 -3.12591,-2.92692 -10.41994,-12.59274 -11.65452,-12.26046 z"
     id="path899"
     sodipodi:nodetypes="ccc"
     style="font-size:12px;fill:#ffffff;stroke:#ffffff;stroke-opacity:1" />
  <path
     d="m 334.31911,330.88011 c -0.40228,8.9208 3.86101,9.87416 2.54689,18.69576 -1.3224,8.44592 -8.5222,12.14184 -9.61203,14.98248 -1.07565,3.88318 0.0648,6.41435 1.26148,5.80841 -0.64002,-7.6681 7.205,-11.63065 9.81342,-16.92641 3.4395,-8.21573 -4.02042,-26.1922 -4.00976,-22.56024 z"
     id="path900"
     sodipodi:nodetypes="cssccs"
     style="font-size:12px;fill:#ffffff;stroke:#ffffff;stroke-opacity:1" />
  <path
     d="m 529.09329,398.50185 c -0.80821,0 -0.76661,1.93209 -0.48914,7.71614 -0.0858,3.28499 2.7623,7.62571 2.93858,6.21276 1.11191,-12.346 -2.0639,-13.9289 -2.44944,-13.9289 z"
     id="path901"
     sodipodi:nodetypes="csss"
     style="font-size:12px;fill:#ffffff;stroke:#ffffff;stroke-opacity:1" />
  <path
     d="m 307.67734,400.36927 c 1.30676,0 0.68254,6.06573 -0.2749,6.03074 -1.44363,0.37572 -1.43896,-6.03074 0.2749,-6.03074 z"
     id="path902"
     sodipodi:nodetypes="css"
     style="font-size:12px;fill:#ffffff;stroke:#ffffff;stroke-opacity:1" />
  <path
     d="m 295.06606,407.83897 c 2.4222,1.93231 2.68099,-2.49712 0.42847,-2.87792 -3.3922,0.0718 -3.96293,0.48678 -0.42847,2.87792 z"
     id="path903"
     sodipodi:nodetypes="css"
     style="font-size:12px;fill:#ffffff;stroke:#ffffff;stroke-opacity:1" />
  <path
     d="m 247.12727,408.11388 c 2.46437,1.60466 2.25814,5.74777 3.73485,5.1738 1.73791,-0.52357 0.87372,-3.59681 0,-5.17381 -1.44926,-1.84246 -4.39242,-0.31384 -3.73485,10e-6 z"
     id="path904"
     sodipodi:nodetypes="csss"
     style="font-size:12px;fill:#ffffff;stroke:#ffffff;stroke-opacity:1" />
  <path
     d="m 432.23744,409.9813 c 0.34752,1.55278 8.93594,2.81188 8.96933,9.23001 0.007,1.21876 1.41891,1.96459 1.65319,-0.32135 0.92362,-6.92152 -10.94341,-10.54028 -10.62252,-8.90866 z"
     id="path905"
     sodipodi:nodetypes="csss"
     style="font-size:12px;fill:#ffffff;stroke:#ffffff;stroke-opacity:1" />
  <path
     d="m 290.74918,411.84872 c 0.6586,-0.52795 3.83304,-0.39242 3.73485,1.43896 -0.25986,1.11508 -5.61761,0.49878 -3.73485,-1.43896 z"
     id="path906"
     sodipodi:nodetypes="css"
     style="font-size:12px;fill:#ffffff;stroke:#ffffff;stroke-opacity:1" />
  <path
     d="m 244.24935,416.01204 c -2.42529,0.5957 0.035,3.48801 -3.15281,6.61276 -1.84698,1.80477 8.55702,3.71821 11.3581,6.15208 0.91879,1.17064 5.83408,-1.64775 -5.32738,-4.59178 -6.02985,-1.16202 -1.71231,-8.25343 -2.87791,-8.17306 z"
     id="path907"
     sodipodi:nodetypes="cssss"
     style="font-size:12px;fill:#ffffff;stroke:#ffffff;stroke-opacity:1" />
  <path
     d="m 267.63674,419.16487 c -1.21405,0.34516 1.64006,7.31955 4.59176,7.46968 5.33087,0.3172 7.91596,0.38435 13.654,0 1.76564,-0.2501 2.51444,-4.86653 1.2854,-5.17379 -1.83215,-0.45803 0.65417,5.01259 -8.32663,4.1633 -4.21198,-0.82679 -7.65395,-7.34683 -11.20453,-6.45919 z"
     id="path908"
     sodipodi:nodetypes="csssss"
     style="font-size:12px;fill:#ffffff;stroke:#ffffff;stroke-opacity:1" />
  <path
     d="m 423.26811,421.67498 c -0.20139,-1.14818 3.75949,-0.86934 3.73485,0.15356 -0.0176,0.88343 -3.5751,0.92707 -3.73485,-0.15356 z"
     id="path909"
     sodipodi:nodetypes="css"
     style="font-size:12px;fill:#ffffff;stroke:#ffffff;stroke-opacity:1" />
  <path
     d="m 435.81872,341.10459 c 1.26996,11.03261 13.38056,17.6295 28.13271,7.89817 3.78425,-2.38638 -0.58278,21.40213 -26.69375,14.2038 -0.70513,-0.18587 4.42301,3.37799 5.14159,3.58129 10.88258,2.65047 32.56219,-8.43588 22.99112,-25.68326 -1.83061,-2.87036 -9.00028,9.61203 -14.35736,9.61203 -8.7848,0 -15.67198,-13.43363 -15.21431,-9.61203 z"
     id="path910"
     sodipodi:nodetypes="cssssss"
     style="font-size:12px;fill:#ffffff;stroke:#ffffff;stroke-opacity:1" />
  <path
     d="m 300.86318,349.82924 c -0.59753,0 -1.02599,1.1402 -0.42846,1.43897 2.46366,1.23183 5.86297,2.72435 8.32663,2.72435 0.59752,0 0.16906,-1.56867 -0.42846,-1.86743 -2.46366,-1.23183 -5.00605,-2.29589 -7.46971,-2.29589 z"
     id="path911"
     sodipodi:nodetypes="cssss"
     style="font-size:12px;fill:#ffffff;stroke:#ffffff;stroke-opacity:1" />
  <path
     d="m 542.03323,64.232338 c 2.8032,5.60845 5.46966,7.453405 6.28173,17.283111 1.79616,15.346215 -10.19675,29.392331 -18.23925,40.114141 -4.18549,5.98378 -10.16661,14.44307 -14.50915,21.57192 -10.71623,18.33972 -23.86903,36.13906 -17.33034,62.292 5.2507,21.00487 26.78012,40.93122 39.88706,58.40775 3.82065,5.09437 9.75213,9.92055 10.77609,16.07124 -0.45658,9.6906 -11.42027,14.11997 -8.7551,14.78583 11.67379,-5.9985 15.06567,-14.53645 6.45921,-26.84732 -12.89712,-18.4483 -36.25206,-36.67044 -43.5484,-58.55716 -12.99244,-36.55012 22.12892,-70.64781 41.14616,-101.06876 9.63674,-15.718384 12.55472,-43.770406 -2.16801,-44.052752 z"
     id="path912"
     sodipodi:nodetypes="cscscsccscsc"
     style="font-size:12px;fill:#ffffff;stroke:#ffffff;stroke-opacity:1" />
  <path
     d="m 325.18753,69.179068 c -1.23486,0.351114 -3.49614,4.385675 -4.37976,7.097595 -0.30629,1.240898 -0.17678,11.712471 -0.21202,15.800634 0.0845,1.930161 3.23456,1.731845 3.30638,-0.214233 -0.0815,-3.597482 -0.2164,-16.621063 0.70558,-17.682067 1.87665,-1.945391 2.56969,-5.686484 0.57982,-5.001929 z"
     id="path913"
     sodipodi:nodetypes="csssss"
     style="font-size:12px;fill:#ffffff;stroke:#ffffff;stroke-opacity:1" />
  <path
     d="m 418.4621,83.32221 c 0,-1.153677 8.7551,-0.85693 8.7551,0 0,1.512963 -8.54087,1.071161 -8.7551,0 z"
     id="path915"
     sodipodi:nodetypes="css"
     style="font-size:12px;fill:#ffffff;stroke:#ffffff;stroke-opacity:1" />
  <path
     d="m 469.85015,87.139253 c -1.35312,-0.08198 -2.06573,14.297227 -4.00976,21.673497 -1.5094,5.29875 -4.16331,11.14262 -6.4592,16.4997 10.28773,-2.89443 13.05515,-37.990556 10.46896,-38.173197 z"
     id="path918"
     sodipodi:nodetypes="cscs"
     style="font-size:12px;fill:#ffffff;stroke:#ffffff;stroke-opacity:1" />
  <path
     d="m 411.78866,90.056312 c 2.35656,1.333306 2.18648,3.274914 3.09216,3.306387 1.05381,0.02918 0.76488,-1.863123 0.6427,-3.092155 -0.13251,-1.100482 -4.29034,-0.502328 -3.73486,-0.214232 z"
     id="path919"
     sodipodi:nodetypes="csss"
     style="font-size:12px;fill:#ffffff;stroke:#ffffff;stroke-opacity:1" />
  <path
     d="m 372.67249,112.00144 c -2.50583,-2.52626 -5.01528,-13.941124 -6.81836,-13.217463 -1.26355,0.60954 1.86555,10.611963 4.4654,14.258123 1.44086,1.59582 2.03821,11.95744 3.65926,12.27035 0.8846,-0.13222 1.6086,-10.67533 -1.3063,-13.31101 z"
     id="path920"
     sodipodi:nodetypes="cssss"
     style="font-size:12px;fill:#ffffff;stroke:#ffffff;stroke-opacity:1" />
  <path
     d="m 583.66222,100.05766 c -5.26447,15.79044 -20.81963,36.86764 -36.1283,48.21369 -8.70599,6.28017 -24.76391,12.78865 -18.97306,12.26049 15.6729,-1.73243 33.73139,-15.67186 45.31186,-35.52236 5.21141,-9.49542 12.99094,-19.63006 9.7895,-24.95182"
     id="path921"
     sodipodi:nodetypes="csscc"
     style="font-size:12px;fill:#ffffff;stroke:#ffffff;stroke-opacity:1" />
  <path
     d="m 439.93006,141.68665 c 8.25901,-6.70052 11.44749,-27.3492 14.78583,-50.663149 1.11456,-7.783743 2.43569,-20.501312 5.02025,-28.254045 4.1929,-12.577147 20.88108,-25.531566 28.40761,-26.69375 -7.63669,-3.35251 -22.55816,10.654198 -27.55068,18.36712 -6.78726,10.914081 -8.8738,33.077048 -11.05098,47.478094 -1.49044,9.56523 -2.1608,14.43951 -3.42773,20.50945 -3.25743,13.55388 -8.16761,19.2063 -6.1843,19.25628 z"
     id="path923"
     sodipodi:nodetypes="csscsssc"
     style="font-size:12px;fill:#ffffff;stroke:#ffffff;stroke-opacity:1" />
  <path
     d="m 499.72478,91.354528 c 2.11478,0.07255 1.20407,-2.739404 -1.88971,-3.981633 -2.06232,-0.542454 -4.2446,-4.366938 -5.42642,-12.057368 -1.82876,-12.328693 9.46591,-16.72148 4.59178,-16.103459 -12.29538,1.504679 -9.04579,31.753394 2.72435,32.14246 z"
     id="path925"
     sodipodi:nodetypes="cssss"
     style="font-size:12px;fill:#ffffff;stroke:#ffffff;stroke-opacity:1" />
  <path
     d="m 416.46918,40.189429 c 0.62736,4.166615 -4.16063,3.750373 -1.21189,5.467222 2.13209,1.417773 0.63399,8.874423 1.99292,8.786178 1.18236,-0.09645 3.18811,-5.746187 2.59886,-12.738542 -0.23938,-2.717458 -3.57833,-2.73695 -3.37989,-1.514858 z"
     id="path929"
     sodipodi:nodetypes="cssss"
     style="font-size:12px;fill:#ffffff;stroke:#ffffff;stroke-opacity:1" />
  <path
     d="m 448.52291,435.08252 c 0.64438,9.04977 -4.16363,9.97877 -1.0105,10.77608 5.88257,1.21907 12.25768,2.9634 15.73566,5.81653 2.36386,1.79356 5.70379,-2.60111 -10.13338,-7.40905 -1.58808,-0.46064 -0.25688,-7.59847 -1.17828,-9.82626 -0.70335,-2.21575 -3.776,-3.17801 -3.4135,0.6427 z"
     id="path932"
     sodipodi:nodetypes="csssss"
     style="font-size:12px;fill:#ffffff;stroke:#ffffff;stroke-opacity:1" />
  <path
     d="m 478.5837,434.80762 c -1.13336,0.46227 -0.009,12.73052 3.15282,12.48994 4.06381,-0.0339 -1.56704,-2.98542 13.22554,-2.2959 6.61419,0.21251 -0.35407,-3.12971 -1.39252,-3.25995 -3.93299,-0.27905 -9.8865,0.58594 -10.45473,-0.0464 -1.71664,-2.55761 -2.73999,-7.404 -4.53111,-6.88767 z"
     id="path933"
     sodipodi:nodetypes="csssss"
     style="font-size:12px;fill:#ffffff;stroke:#ffffff;stroke-opacity:1" />
  <path
     d="m 425.8389,427.70572 c -5.47453,-0.36443 1.33885,0.83215 2.84949,9.00154 1.57602,9.93132 8.32925,5.76357 7.17679,5.4165 -8.09614,-2.37366 -4.21431,-14.04541 -10.02628,-14.41804 z"
     id="path934"
     sodipodi:nodetypes="csss"
     style="font-size:12px;fill:#ffffff;stroke:#ffffff;stroke-opacity:1" />
  <ellipse
     id="path700"
     style="font-size:12px;fill:#ffffff;fill-rule:evenodd;stroke:#ffffff;stroke-width:0.972224;stroke-opacity:1"
     cx="364.62491"
     cy="218.23911"
     rx="1.0603987"
     ry="1.0603887" />
  <ellipse
     id="path701"
     style="font-size:12px;fill:#ffffff;fill-rule:evenodd;stroke:#ffffff;stroke-width:0.972224;stroke-opacity:1"
     cx="369.16953"
     cy="218.23911"
     rx="1.0603987"
     ry="1.0603887" />
  <path
     d="m 513.25051,85.982993 c -0.17047,-1.153175 6.7892,-6.322818 4.34079,-0.452382 -0.37262,0.801195 -3.5751,1.533012 -4.34079,0.452382 z"
     id="path698"
     sodipodi:nodetypes="css"
     style="font-size:12px;fill:#ffffff;stroke:#ffffff;stroke-opacity:1" />
  <path
     d="m 320.31131,62.420303 c 2.35656,1.333306 2.18648,3.274914 3.09216,3.306387 1.05381,0.02918 0.76488,-1.863123 0.6427,-3.092155 -0.13251,-1.100482 -4.29034,-0.502328 -3.73486,-0.214232 z"
     id="path862"
     sodipodi:nodetypes="csss"
     style="font-size:12px;fill:#ffffff;stroke:#ffffff;stroke-opacity:1" />
  <path
     d="m 177.18615,80.295653 c -1.06245,0 -1.37738,3.48978 0.21424,3.734844 3.23745,0.465488 3.52061,-1.294099 1.80675,-1.285399 -1.75351,0.0079 -1.12439,-2.449445 -2.02099,-2.449445 z"
     id="path916"
     sodipodi:nodetypes="csss"
     style="font-size:12px;fill:#ffffff;stroke:#ffffff;stroke-opacity:1" />
  <path
     d="m 193.14652,84.901656 c -1.06245,0 -1.37738,3.48978 0.21424,3.734844 3.23745,0.465488 3.52061,-1.294099 1.80675,-1.285399 -1.75351,0.0079 -1.12439,-2.449445 -2.02099,-2.449445 z"
     id="path917"
     sodipodi:nodetypes="csss"
     style="font-size:12px;fill:#ffffff;stroke:#ffffff;stroke-opacity:1" />
  <path
     d="m 362.67443,120.78761 c -1.75253,-3.09674 -3.50042,-11.21437 -5.3035,-10.49071 -1.26355,0.60954 1.56257,8.18819 3.55648,12.13732 1.03159,1.88641 2.34118,7.41286 3.96223,7.72577 0.8846,-0.13222 -0.5122,-5.82778 -2.21521,-9.37238 z"
     id="path928"
     sodipodi:nodetypes="cssss"
     style="font-size:12px;fill:#ffffff;stroke:#ffffff;stroke-opacity:1" />
  <path
     d="m 353.13082,131.39161 c -2.23252,-2.77074 -1.68259,-9.69951 -5.00053,-6.24911 -0.97044,1.01308 0.95664,5.15847 3.55649,8.80463 1.44086,1.59582 0.54805,5.84662 1.84143,7.72578 4.68849,6.37173 2.21454,-6.7367 -0.39739,-10.2813 z"
     id="path935"
     sodipodi:nodetypes="cssss"
     style="font-size:12px;fill:#ffffff;stroke:#ffffff;stroke-opacity:1" />
  <path
     d="m 345.8595,140.17778 c -2.32003,-2.6979 -0.77368,-4.54901 -4.69756,-7.15803 -1.20948,-0.71081 1.25961,4.8555 2.95054,9.41057 0.86217,1.96962 0.82633,3.77721 2.14441,5.60498 0.58492,0.67666 1.6086,-5.82779 -0.39739,-7.85752 z"
     id="path936"
     sodipodi:nodetypes="cssss"
     style="font-size:12px;fill:#ffffff;stroke:#ffffff;stroke-opacity:1" />
  <path
     d="m 337.37629,147.60059 c -2.11081,-2.86455 -0.77367,-8.18466 -2.57675,-7.461 -1.26355,0.60954 -0.99372,5.04276 1.43568,8.80463 1.13789,1.29285 -1.00782,5.68486 2.1444,6.21092 2.70685,0.40116 1.91157,-4.00996 -1.00333,-7.55455 z"
     id="path937"
     sodipodi:nodetypes="cssss"
     style="font-size:12px;fill:#ffffff;stroke:#ffffff;stroke-opacity:1" />
  <path
     d="m 331.92281,156.68975 c -2.43481,-2.70439 -3.97829,-11.17658 -4.39459,-9.27882 -1.26355,6.06303 0.35069,7.88521 2.95054,11.53137 1.44086,1.59582 1.16601,5.67622 4.2652,5.302 1.22289,-0.16365 -1.65707,-6.11672 -2.82115,-7.55455 z"
     id="path938"
     sodipodi:nodetypes="cssss"
     style="font-size:12px;fill:#ffffff;stroke:#ffffff;stroke-opacity:1" />
  <path
     d="m 307.3645,155.90441 c -0.96132,0.26604 -0.54799,2.11789 -0.43085,6.67912 0.0745,3.09407 -0.45317,6.2819 0.47806,6.05943 1.01993,-0.18384 1.23693,-13.17778 -0.0472,-12.73855 z"
     id="path939"
     sodipodi:nodetypes="csss"
     style="font-size:12px;fill:#ffffff;stroke:#ffffff;stroke-opacity:1" />
  <path
     d="m 240.69985,197.15636 c -1.74819,11.08004 -8.80936,15.77058 -7.00488,14.99633 7.27271,-3.33473 9.2753,-13.33071 13.25399,-29.29675 4.28597,-17.41337 20.82874,-31.15497 17.26375,-29.13946 -3.75606,2.24466 -18.65708,14.02179 -23.51286,43.43988 z"
     id="path940"
     sodipodi:nodetypes="cssss"
     style="font-size:12px;fill:#ffffff;stroke:#ffffff;stroke-opacity:1" />
  <path
     d="m 266.53243,141.86557 c 1.15464,-5.72237 -3.27371,3.26362 -6.96834,5.75646 -3.10634,2.35065 -5.47209,2.55322 -5.5479,4.25533 -0.0588,1.55417 3.14673,0.71806 5.80946,-1.61517 2.62135,-2.59993 4.88207,-1.23307 6.70678,-8.39662 z"
     id="path941"
     sodipodi:nodetypes="cssss"
     style="font-size:12px;fill:#ffffff;stroke:#ffffff;stroke-opacity:1" />
  <path
     d="m 262.44232,138.3814 c 0.24028,-1.66028 -1.74267,-1.56611 -5.15052,1.51486 -2.43112,2.47185 -5.47903,0.76871 -5.85087,2.74047 -0.35029,1.55456 5.57403,1.02723 7.02135,-0.70625 2.64225,-2.61156 3.65269,-1.59017 3.98004,-3.54908 z"
     id="path942"
     sodipodi:nodetypes="cssss"
     style="font-size:12px;fill:#ffffff;stroke:#ffffff;stroke-opacity:1" />
  <path
     d="m 254.86802,130.8071 c -1.2272,-0.75807 -1.97021,4.29836 -6.05943,6.05944 -2.32584,1.17399 -3.7527,0.1546 -3.73006,1.52858 0.42847,1.80805 6.16735,0.42814 7.93026,-1.31219 3.03461,-2.69666 6.30402,-3.22722 1.85923,-6.27583 z"
     id="path943"
     sodipodi:nodetypes="cssss"
     style="font-size:12px;fill:#ffffff;stroke:#ffffff;stroke-opacity:1" />
  <path
     d="m 248.80858,126.41399 c -1.64572,0.32147 -1.48639,1.33167 -3.93863,3.93864 -3.2795,3.7894 -6.97363,1.46413 -6.75978,3.64938 -0.0299,0.73394 7.71625,0.91099 9.14215,-1.00922 4.96453,-6.27758 4.11422,-7.38143 1.55626,-6.5788 z"
     id="path944"
     sodipodi:nodetypes="cssss"
     style="font-size:12px;fill:#ffffff;stroke:#ffffff;stroke-opacity:1" />
  <path
     d="m 209.87671,162.31618 c -0.15553,-2.58 -3.54557,-2.208 -3.63566,-0.60594 -0.20618,4.36002 -4.60045,4.67295 -6.45681,5.77018 -2.46666,1.2534 6.44195,1.46898 7.02135,0.80861 1.66837,-2.77396 3.30786,-1.58435 3.07112,-5.97285 z"
     id="path945"
     sodipodi:nodetypes="cssss"
     style="font-size:12px;fill:#ffffff;stroke:#ffffff;stroke-opacity:1" />
  <path
     d="m 207.7559,144.74381 c -2.88228,0.75269 -0.1039,2.18534 -3.33268,5.45349 -3.03707,3.38076 -4.80385,2.29789 -4.94196,3.64939 -0.10811,1.29517 3.72229,2.09803 6.41541,-1.00923 3.71372,-3.93526 6.20158,-8.77119 1.85923,-8.09365 z"
     id="path946"
     sodipodi:nodetypes="cssss"
     style="font-size:12px;fill:#ffffff;stroke:#ffffff;stroke-opacity:1" />
  <path
     d="m 205.18064,122.1724 c -0.27774,-1.27376 -1.31579,3.09425 -3.63565,5.75646 -3.18636,3.24044 -6.31871,4.11572 -6.45682,5.46722 -0.10811,1.29517 3.72229,2.09803 6.41541,-1.00923 3.71372,-3.93526 4.49749,-5.06242 3.67706,-10.21445 z"
     id="path947"
     sodipodi:nodetypes="cssss"
     style="font-size:12px;fill:#ffffff;stroke:#ffffff;stroke-opacity:1" />
  <path
     d="m 186.85084,65.06219 c -2.88228,0.75269 -0.1039,2.18534 -3.33268,5.45349 -3.03707,3.38076 -4.80385,2.29789 -4.94196,3.64939 -0.10811,1.29517 3.72229,2.09803 6.41541,-1.00923 3.71372,-3.93526 6.20158,-8.77119 1.85923,-8.09365 z"
     id="path948"
     sodipodi:nodetypes="cssss"
     style="font-size:12px;fill:#ffffff;stroke:#ffffff;stroke-opacity:1" />
  <path
     d="m 186.97079,115.53113 c 0.57919,-5.9869 -2.87477,-4.84187 -3.63565,-7.52603 -2.0103,-8.603144 -2.55208,-2.31401 -2.17215,0.75408 -0.0748,4.72553 1.84667,5.51028 1.70227,7.13165 -0.18975,2.69364 3.97423,4.85559 4.10553,-0.3597 z"
     id="path949"
     sodipodi:nodetypes="cssss"
     style="font-size:12px;fill:#ffffff;stroke:#ffffff;stroke-opacity:1" />
  <path
     d="m 205.18065,64.115056 c 1.25499,-1.867798 -1.43259,-1.842713 -2.35025,-4.526759 -2.66537,-6.542697 -3.38083,-3.621894 -3.45755,-0.531322 0.35371,3.011661 2.27514,2.082542 2.13074,5.417781 -0.13398,2.69699 0.47776,6.870201 3.67706,-0.3597 z"
     id="path950"
     sodipodi:nodetypes="cssss"
     style="font-size:12px;fill:#ffffff;stroke:#ffffff;stroke-opacity:1" />
  <path
     d="m 217.7447,53.360312 c -1.67666,-0.02369 -3.12231,-0.769488 -4.79556,1.367837 -0.64063,1.365609 -4.40283,-0.249739 -4.18898,1.507044 0.0715,0.731058 8.32453,0.558411 9.57062,-0.152286 4.20268,-1.783659 3.25728,-3.096757 -0.58608,-2.722595 z"
     id="path951"
     sodipodi:nodetypes="cssss"
     style="font-size:12px;fill:#ffffff;stroke:#ffffff;stroke-opacity:1" />
  <path
     d="m 243.66696,65.874574 c -1.82032,-1.232285 -4.23023,-4.448216 -5.17204,-3.167826 -1.05146,1.081538 2.23302,5.798225 4.25487,5.436762 4.01363,-0.414578 6.14294,4.343553 6.03892,1.007621 -0.11391,-3.955658 -1.96853,-0.838989 -5.12175,-3.276557 z"
     id="path952"
     sodipodi:nodetypes="cssss"
     style="font-size:12px;fill:#ffffff;stroke:#ffffff;stroke-opacity:1" />
  <path
     d="m 234.56894,67.750699 c 0.27087,-2.233898 -1.41952,0.109002 -1.7443,-2.708926 -0.54457,-4.421892 -1.563,-2.410006 -1.63972,0.680566 0.35371,3.011661 -3.32986,4.343419 -2.11087,4.205893 1.26375,-0.176756 3.03004,4.265192 3.29083,2.739639 1.2842,-7.815298 2.27076,-2.968568 2.20406,-4.917172 z"
     id="path953"
     sodipodi:nodetypes="csssss"
     style="font-size:12px;fill:#ffffff;stroke:#ffffff;stroke-opacity:1" />
  <path
     d="m 379.46068,215.55442 c -2.84068,-0.24638 -1.64094,1.32339 -3.74657,2.59651 -2.17438,1.00183 3.63718,0.73561 5.71282,3.78201 1.17076,2.012 6.55663,1.78941 6.61,0.79187 0.0534,-0.99755 -4.14718,-2.19157 -5.27977,-2.50782 -6.52036,-2.12363 6.37758,-4.8553 -3.29648,-4.66257 z"
     id="path954"
     sodipodi:nodetypes="csssss"
     style="font-size:12px;fill:#ffffff;stroke:#ffffff;stroke-opacity:1" />
  <path
     d="m 395.21524,219.79607 c -2.47606,-0.16894 -6.04075,3.51744 0.90585,7.74189 7.3348,4.55997 6.04648,5.68976 18.29668,5.10094 1.4858,-0.0531 1.57716,-1.86747 -3.7506,-1.24147 -9.73305,1.21258 -15.03097,-5.82519 -13.80141,-6.42271 2.57048,-1.42469 0.97363,-4.97464 -1.65052,-5.17865 z"
     id="path955"
     sodipodi:nodetypes="csssss"
     style="font-size:12px;fill:#ffffff;stroke:#ffffff;stroke-opacity:1" />
  <path
     d="m 406.92176,235.9815 c 0.1574,1.03752 3.1686,3.36982 4.73239,3.47507 6.3754,0.27762 4.02137,2.25487 5.80704,2.43018 5.81246,0.55577 -1.93067,-3.37683 -3.84275,-3.34553 -4.75194,0.0721 -6.70285,-3.64245 -6.69668,-2.55972 z"
     id="path956"
     sodipodi:nodetypes="cssss"
     style="font-size:12px;fill:#ffffff;stroke:#ffffff;stroke-opacity:1" />
  <path
     d="m 357.97269,64.587289 c -2.09422,-0.620039 -0.86877,4.961461 2.84126,8.786228 2.23652,2.434829 4.59155,2.321391 4.41421,-0.306034 -0.25359,-3.543057 0.84543,-3.394193 -2.98778,-4.139146 -1.71323,-0.237202 -3.88018,-4.440549 -4.26769,-4.341048 z"
     id="path924"
     sodipodi:nodetypes="cssss"
     style="font-size:12px;fill:#000000;fill-opacity:1;stroke:#000000;stroke-opacity:1" />
</svg>
