<?xml version="1.0" encoding="UTF-8" standalone="no"?>
<svg
   xmlns:dc="http://purl.org/dc/elements/1.1/"
   xmlns:cc="http://creativecommons.org/ns#"
   xmlns:rdf="http://www.w3.org/1999/02/22-rdf-syntax-ns#"
   xmlns:svg="http://www.w3.org/2000/svg"
   xmlns="http://www.w3.org/2000/svg"
   xmlns:xlink="http://www.w3.org/1999/xlink"
   xmlns:sodipodi="http://sodipodi.sourceforge.net/DTD/sodipodi-0.dtd"
   xmlns:inkscape="http://www.inkscape.org/namespaces/inkscape"
   version="1.0"
   width="552.75pt"
   height="369pt"
   id="svg1330"
   sodipodi:docname="frisia.svg"
   inkscape:version="1.0.2 (e86c870879, 2021-01-15)">
  <metadata
     id="metadata18">
    <rdf:RDF>
      <cc:Work
         rdf:about="">
        <dc:format>image/svg+xml</dc:format>
        <dc:type
           rdf:resource="http://purl.org/dc/dcmitype/StillImage" />
      </cc:Work>
    </rdf:RDF>
  </metadata>
  <sodipodi:namedview
     pagecolor="#ffffff"
     bordercolor="#666666"
     borderopacity="1"
     objecttolerance="10"
     gridtolerance="10"
     guidetolerance="10"
     inkscape:pageopacity="0"
     inkscape:pageshadow="2"
     inkscape:window-width="1200"
     inkscape:window-height="949"
     id="namedview16"
     showgrid="false"
     inkscape:zoom="1.155121"
     inkscape:cx="392.66667"
     inkscape:cy="261.63782"
     inkscape:window-x="294"
     inkscape:window-y="93"
     inkscape:window-maximized="0"
     inkscape:current-layer="svg1330" />
  <defs
     id="defs1333" />
  <path
     d="M 0,0 H 737 V 492 H 0 Z"
     style="fill:#074899"
     id="path2241" />
  <g
     transform="translate(-760,-11.362183)"
     style="fill:#ffffff;fill-opacity:1"
     id="g2251">
    <path
       d="m 760,347.36218 222,156 h 200 l -422,-295 z"
       style="fill:#ffffff;fill-opacity:1;fill-rule:evenodd;stroke:none;stroke-width:1px;stroke-linecap:butt;stroke-linejoin:miter;stroke-opacity:1"
       id="path2243" />
    <path
       d="m 760,68.362183 621,434.999997 h 116 v -59 L 880,11.362183 H 760 Z"
       style="fill:#ffffff;fill-opacity:1;fill-rule:evenodd;stroke:none;stroke-width:1px;stroke-linecap:butt;stroke-linejoin:miter;stroke-opacity:1"
       id="path2247" />
    <path
       d="m 1079,11.362183 418,292.999997 v -139 L 1278,11.362183 Z"
       style="fill:#ffffff;fill-opacity:1;fill-rule:evenodd;stroke:none;stroke-width:1px;stroke-linecap:butt;stroke-linejoin:miter;stroke-opacity:1"
       id="path2249" />
  </g>
  <path
     d="m 74.474759,372.84615 c -11.93024,-4.25487 -18.00953,-9.71092 -25.98633,-23.3223 -5.30628,-9.05449 -6.11133,-13.02005 -5.20026,-25.61552 2.48116,-34.30172 36.51435,-58.74381 53.80518,-38.64203 5.237121,6.08852 5.967751,8.87257 4.719151,17.98211 -1.58691,11.57773 -0.27529,12.85279 7.31545,7.11143 7.67216,-5.80293 20.40072,-4.73387 27.43915,2.30458 9.37598,9.37597 8.46547,24.18529 -2.48687,40.44858 -14.0442,20.85446 -36.041761,28.13701 -59.605471,19.73315 z"
     style="fill:#ea2117"
     id="path1343" />
  <use
     transform="translate(464.0344,45)"
     id="use1352"
     x="0"
     y="0"
     width="744.09448"
     height="1052.3622"
     xlink:href="#path1343" />
  <use
     transform="translate(556,-172)"
     id="use1356"
     x="0"
     y="0"
     width="744.09448"
     height="1052.3622"
     xlink:href="#path1343" />
  <use
     transform="translate(124.0344,86.73535)"
     id="use1358"
     x="0"
     y="0"
     width="744.09448"
     height="1052.3622"
     xlink:href="#path1343" />
  <use
     transform="translate(94.53191,-212)"
     id="use1360"
     x="0"
     y="0"
     width="744.09448"
     height="1052.3622"
     xlink:href="#path1343" />
  <use
     transform="translate(280,-85)"
     id="use1362"
     x="0"
     y="0"
     width="744.09448"
     height="1052.3622"
     xlink:href="#path1343" />
  <use
     transform="translate(439,-254)"
     id="use1366"
     x="0"
     y="0"
     width="744.09448"
     height="1052.3622"
     xlink:href="#path1343" />
</svg>
