<?xml version="1.0" encoding="UTF-8" standalone="no"?>
<svg
   xmlns:dc="http://purl.org/dc/elements/1.1/"
   xmlns:cc="http://creativecommons.org/ns#"
   xmlns:rdf="http://www.w3.org/1999/02/22-rdf-syntax-ns#"
   xmlns:svg="http://www.w3.org/2000/svg"
   xmlns="http://www.w3.org/2000/svg"
   xmlns:sodipodi="http://sodipodi.sourceforge.net/DTD/sodipodi-0.dtd"
   xmlns:inkscape="http://www.inkscape.org/namespaces/inkscape"
   height="131.95161pt"
   id="england"
   inkscape:version="1.0.2 (e86c870879, 2021-01-15)"
   sodipodi:docname="georgia.svg"
   sodipodi:version="0.32"
   width="196.94048pt"
   version="1.1">
  <metadata
     id="metadata3">
    <rdf:RDF>
      <cc:Work
         rdf:about="">
        <dc:title>Georgia</dc:title>
        <dc:description>HASH(0x86d2470)</dc:description>
        <dc:subject>
          <rdf:Bag>
            <rdf:li>hash(0x86c9454)</rdf:li>
            <rdf:li>hash(0x86a9160)</rdf:li>
            <rdf:li />
            <rdf:li>hash(0x856413c)</rdf:li>
            <rdf:li>flags</rdf:li>
            <rdf:li>europe</rdf:li>
            <rdf:li>hash(0x8619950)</rdf:li>
            <rdf:li>signs_and_symbols</rdf:li>
          </rdf:Bag>
        </dc:subject>
        <dc:publisher>
          <cc:Agent
             rdf:about="http://www.openclipart.org">
            <dc:title>Christian Schaller</dc:title>
          </cc:Agent>
        </dc:publisher>
        <dc:creator>
          <cc:Agent>
            <dc:title>Christian Schaller</dc:title>
          </cc:Agent>
        </dc:creator>
        <dc:rights>
          <cc:Agent>
            <dc:title>Christian Schaller</dc:title>
          </cc:Agent>
        </dc:rights>
        <dc:date />
        <dc:format>image/svg+xml</dc:format>
        <dc:type
           rdf:resource="http://purl.org/dc/dcmitype/StillImage" />
        <cc:license
           rdf:resource="http://web.resource.org/cc/PublicDomain" />
        <dc:language>en</dc:language>
      </cc:Work>
      <cc:License
         rdf:about="http://web.resource.org/cc/PublicDomain">
        <cc:permits
           rdf:resource="http://web.resource.org/cc/Reproduction" />
        <cc:permits
           rdf:resource="http://web.resource.org/cc/Distribution" />
        <cc:permits
           rdf:resource="http://web.resource.org/cc/DerivativeWorks" />
      </cc:License>
    </rdf:RDF>
  </metadata>
  <defs
     id="defs550" />
  <sodipodi:namedview
     id="base"
     inkscape:cx="131.22033"
     inkscape:cy="88.152558"
     inkscape:window-height="743"
     inkscape:window-width="942"
     inkscape:window-x="148"
     inkscape:window-y="44"
     inkscape:zoom="2.3110897"
     showgrid="false"
     snaptogrid="false"
     inkscape:current-layer="england"
     inkscape:document-rotation="0"
     inkscape:window-maximized="0">
    <inkscape:grid
       id="GridFromPre046Settings"
       type="xygrid"
       originx="0.043655872"
       originy="23.568796"
       spacingx="22.677165"
       spacingy="22.677165"
       color="#3f3fff"
       empcolor="#3f3fff"
       opacity="0.15"
       empopacity="0.38"
       empspacing="5" />
  </sodipodi:namedview>
  <rect
     height="174.53529"
     id="rect956"
     style="fill:#ffffff;fill-opacity:1;fill-rule:evenodd;stroke:#000000;stroke-width:1.05015pt;stroke-linecap:butt;stroke-linejoin:miter;stroke-opacity:0"
     width="261.1871"
     x="0.70009679"
     y="0.70009679" />
  <rect
     y="73.094292"
     x="0.043655872"
     width="262.5"
     style="font-size:12px;fill:#cc0000;fill-rule:evenodd;stroke-width:0pt"
     id="horizontal"
     height="29.370729" />
  <rect
     y="0.89182401"
     x="116.79366"
     width="29.016628"
     style="font-size:12px;fill:#cc0000;fill-rule:evenodd;stroke-width:0pt"
     id="vertical"
     height="175" />
  <g
     transform="matrix(0.323525,0,0,0.327473,4.5727639,-0.96642217)"
     style="fill:#cc0000;fill-opacity:1"
     id="g866">
    <path
       transform="matrix(13.46334,0,0,16.8167,-1687.4,-1735.79)"
       style="font-size:12px"
       sodipodi:nodetypes="ccccc"
       id="path1167"
       d="m 135.39,106 c 1.654,2.667 2.022,5.481 0,8 H 140 c -1.655,-3.255 -1.471,-5.481 0,-8 z" />
    <path
       transform="matrix(0,-13.46334,16.8167,0,-1683.402,1967.882)"
       style="font-size:12px"
       sodipodi:nodetypes="ccccc"
       id="path865"
       d="m 135.39,106 c 1.654,2.667 2.022,5.481 0,8 H 140 c -1.655,-3.255 -1.471,-5.481 0,-8 z" />
  </g>
  <g
     transform="matrix(0.323525,0,0,0.327473,4.5727639,101.83113)"
     style="fill:#cc0000;fill-opacity:1"
     id="g878">
    <path
       transform="matrix(13.46334,0,0,16.8167,-1687.4,-1735.79)"
       style="font-size:12px"
       sodipodi:nodetypes="ccccc"
       id="path879"
       d="m 135.39,106 c 1.654,2.667 2.022,5.481 0,8 H 140 c -1.655,-3.255 -1.471,-5.481 0,-8 z" />
    <path
       transform="matrix(0,-13.46334,16.8167,0,-1683.402,1967.882)"
       style="font-size:12px"
       sodipodi:nodetypes="ccccc"
       id="path880"
       d="m 135.39,106 c 1.654,2.667 2.022,5.481 0,8 H 140 c -1.655,-3.255 -1.471,-5.481 0,-8 z" />
  </g>
  <g
     transform="matrix(0.323525,0,0,0.327473,150.33526,101.83113)"
     style="fill:#cc0000;fill-opacity:1"
     id="g881">
    <path
       transform="matrix(13.46334,0,0,16.8167,-1687.4,-1735.79)"
       style="font-size:12px"
       sodipodi:nodetypes="ccccc"
       id="path882"
       d="m 135.39,106 c 1.654,2.667 2.022,5.481 0,8 H 140 c -1.655,-3.255 -1.471,-5.481 0,-8 z" />
    <path
       transform="matrix(0,-13.46334,16.8167,0,-1683.402,1967.882)"
       style="font-size:12px"
       sodipodi:nodetypes="ccccc"
       id="path883"
       d="m 135.39,106 c 1.654,2.667 2.022,5.481 0,8 H 140 c -1.655,-3.255 -1.471,-5.481 0,-8 z" />
  </g>
  <g
     transform="matrix(0.323525,0,0,0.327473,150.33526,-0.96642217)"
     style="fill:#cc0000;fill-opacity:1"
     id="g884">
    <path
       transform="matrix(13.46334,0,0,16.8167,-1687.4,-1735.79)"
       style="font-size:12px"
       sodipodi:nodetypes="ccccc"
       id="path885"
       d="m 135.39,106 c 1.654,2.667 2.022,5.481 0,8 H 140 c -1.655,-3.255 -1.471,-5.481 0,-8 z" />
    <path
       transform="matrix(0,-13.46334,16.8167,0,-1683.402,1967.882)"
       style="font-size:12px"
       sodipodi:nodetypes="ccccc"
       id="path886"
       d="m 135.39,106 c 1.654,2.667 2.022,5.481 0,8 H 140 c -1.655,-3.255 -1.471,-5.481 0,-8 z" />
  </g>
</svg>
