<?xml version="1.0" encoding="UTF-8" standalone="no"?>
<svg
   width="324"
   height="216"
   version="1.1"
   id="svg4"
   sodipodi:docname="gokturk.svg"
   inkscape:version="1.1.1 (3bf5ae0d25, 2021-09-20)"
   xmlns:inkscape="http://www.inkscape.org/namespaces/inkscape"
   xmlns:sodipodi="http://sodipodi.sourceforge.net/DTD/sodipodi-0.dtd"
   xmlns="http://www.w3.org/2000/svg"
   xmlns:svg="http://www.w3.org/2000/svg">
  <defs
     id="defs8" />
  <sodipodi:namedview
     id="namedview6"
     pagecolor="#ffffff"
     bordercolor="#666666"
     borderopacity="1.0"
     inkscape:pageshadow="2"
     inkscape:pageopacity="0.0"
     inkscape:pagecheckerboard="0"
     showgrid="false"
     inkscape:zoom="2.7171233"
     inkscape:cx="162.11999"
     inkscape:cy="107.83464"
     inkscape:window-width="1110"
     inkscape:window-height="807"
     inkscape:window-x="420"
     inkscape:window-y="92"
     inkscape:window-maximized="0"
     inkscape:current-layer="svg4" />
  <rect
     width="324"
     height="216"
     id="rect4"
     style="fill:#33c1ff;fill-opacity:1"
     fill="#3399ff" />
  <path
     style="fill:#003900;fill-opacity:1;stroke:none"
     d="M 160.24562,49.000002 L 147.50878,77.23243 L 122.86433,89.84386 L 81.883041,120.16351 L 62,138.83082 C 73.630176,144.66982 86.82479,143.40403 98.25614,149.69568 C 107.92514,155.01787 121.16491,171.64124 133.34503,168.64065 C 144.85381,165.80457 150.1731,150.3595 161.4152,145.84112 C 170.87836,142.03906 183.71696,152.50027 190.65498,142.33072 C 207.12982,146.45127 226.76257,141.26442 239.77778,131.83102 C 237.05146,123.44292 228.26082,127.97296 221.73801,128.38828 C 208.39299,129.23992 185.37895,130.49172 174.2807,122.49794 L 231.59065,121.33131 L 246.79532,122.49794 L 262,106.16507 L 259.66083,97.998632 L 218.72515,94.070226 L 196.50293,79.289322 L 177.79298,73.14641 L 171.94152,50.166636 L 170.77193,50.166636 L 164.92398,58.333075 L 163.75438,49.000002 L 160.24562,49.000002 z"
     id="path6" />
</svg>
