<?xml version="1.0" encoding="UTF-8" standalone="no"?>
<svg
   xmlns:dc="http://purl.org/dc/elements/1.1/"
   xmlns:cc="http://creativecommons.org/ns#"
   xmlns:rdf="http://www.w3.org/1999/02/22-rdf-syntax-ns#"
   xmlns:svg="http://www.w3.org/2000/svg"
   xmlns="http://www.w3.org/2000/svg"
   xmlns:sodipodi="http://sodipodi.sourceforge.net/DTD/sodipodi-0.dtd"
   xmlns:inkscape="http://www.inkscape.org/namespaces/inkscape"
   width="300"
   height="200"
   version="1.1"
   id="svg10"
   sodipodi:docname="hephthalite.svg"
   inkscape:version="1.0.2 (e86c870879, 2021-01-15)">
  <metadata
     id="metadata16">
    <rdf:RDF>
      <cc:Work
         rdf:about="">
        <dc:format>image/svg+xml</dc:format>
        <dc:type
           rdf:resource="http://purl.org/dc/dcmitype/StillImage" />
      </cc:Work>
    </rdf:RDF>
  </metadata>
  <defs
     id="defs14" />
  <sodipodi:namedview
     pagecolor="#ffffff"
     bordercolor="#666666"
     borderopacity="1"
     objecttolerance="10"
     gridtolerance="10"
     guidetolerance="10"
     inkscape:pageopacity="0"
     inkscape:pageshadow="2"
     inkscape:window-width="747"
     inkscape:window-height="480"
     id="namedview12"
     showgrid="false"
     inkscape:zoom="1.415"
     inkscape:cx="150"
     inkscape:cy="100"
     inkscape:window-x="788"
     inkscape:window-y="149"
     inkscape:window-maximized="0"
     inkscape:current-layer="svg10" />
  <rect
     width="300"
     height="200"
     fill="#ffffff"
     id="rect2"
     x="0"
     y="0" />
  <polygon
     type="star"
     sides="5"
     points="0.89895401,-1.237304 3.8080303,-1.237304 1.4545381,0.47260809 2.3534922,3.239304 0,1.5293919 -2.3534922,3.239304 -1.4545381,0.47260809 -3.8080303,-1.237304 -0.89895401,-1.237304 0,-4.004 "
     r1="4"
     r2="1.5293919"
     transform="matrix(6.9029272,0,0,6.9029272,36.286556,87.63932)"
     d="M 1.3084868e-6,-4.0040002 0.89895399,-1.237304 3.8080309,-1.2373029 1.4545381,0.47260808 2.3534912,3.239305 0,1.5293919 -2.3534933,3.2393034 -1.4545381,0.47260809 -3.8080301,-1.2373053 -0.898954,-1.237304 1.3084868e-6,-4.0040002 z"
     fill="#ffcc00"
     id="polygon4" />
  <polygon
     type="star"
     sides="5"
     points="-1.4545381,0.47260809 -3.8080303,-1.237304 -0.89895401,-1.237304 0,-4.004 0,-4.004 0.89895401,-1.237304 3.8080303,-1.237304 1.4545381,0.47260809 2.3534922,3.239304 0,1.5293919 -2.3534922,3.239304 "
     r1="4"
     r2="1.5293919"
     transform="matrix(6.9029272,0,0,6.9029272,36.286556,137.63932)"
     d="M 1.3084868e-6,-4.0040002 0.89895399,-1.237304 3.8080309,-1.2373029 1.4545381,0.47260808 2.3534912,3.239305 0,1.5293919 -2.3534933,3.2393034 -1.4545381,0.47260809 -3.8080301,-1.2373053 -0.898954,-1.237304 1.3084868e-6,-4.0040002 z"
     fill="#ffcc00"
     id="polygon6" />
  <polygon
     type="star"
     sides="5"
     points="-3.8080303,-1.237304 -0.89895401,-1.237304 0,-4.004 0,-4.004 0.89895401,-1.237304 3.8080303,-1.237304 1.4545381,0.47260809 2.3534922,3.239304 0,1.5293919 -2.3534922,3.239304 -1.4545381,0.47260809 "
     r1="4"
     r2="1.5293919"
     transform="matrix(6.9029272,0,0,6.9029272,36.286556,37.63932)"
     d="M 1.3084868e-6,-4.0040002 0.89895399,-1.237304 3.8080309,-1.2373029 1.4545381,0.47260808 2.3534912,3.239305 0,1.5293919 -2.3534933,3.2393034 -1.4545381,0.47260809 -3.8080301,-1.2373053 -0.898954,-1.237304 1.3084868e-6,-4.0040002 z"
     fill="#ffcc00"
     id="polygon8" />
</svg>
