<?xml version="1.0" standalone="no"?>
<!DOCTYPE svg PUBLIC "-//W3C//DTD SVG 1.1//EN" "http://www.w3.org/Graphics/SVG/1.1/DTD/svg11.dtd">

<svg
	width="500"
	height="300"
	xmlns="http://www.w3.org/2000/svg"
	id="State service flag of Hesse">
	

	<rect height="150" width="500" fill="#E10000" x="0" y="0" />
	<rect height="150" width="500" fill="#FFFFFF" x="0" y="150" />
	
		<g>
			<path fill="#231F20" d="M189.3901367,89.1191406c0.7861328,0.3779297,2.4902344,1.2333984,2.4902344,1.7441406
				c0,0.3261719-0.6425781,1.0380859-2.5830078,1.0380859c-1.6777344,0-2.4296875-0.5185547-2.4296875-1.0380859
				C186.8676758,90.2832031,187.9931641,89.7275391,189.3901367,89.1191406 M194.1210938,86.8847656
				c1.1064453-0.6347656,2.4204102-1.5009766,3.8574219-2.9414063c1.5200195,1.4892578,2.7983398,2.3359375,3.8525391,2.9414063
				c0,0,0.1333008,0.0732422,0.3012695,0.1689453c-1.840332,0.8339844-3.1352539,1.6728516-4.0727539,2.6289063
				c-0.9458008-0.9697266-2.2700195-1.8193359-4.1689453-2.6748047
				C193.9619141,86.9677734,194.1210938,86.8847656,194.1210938,86.8847656z M206.7124023,89.2724609
				c0.9204102,0.4199219,2.3735352,1.1142578,2.3735352,1.5908203c0,0.3095703,0,1.0429688-2.4399414,1.0429688
				c-2.4355469,0-2.4355469-0.7333984-2.4355469-1.0429688C204.2104492,90.3974609,205.6538086,89.7382813,206.7124023,89.2724609z
				 M211.4604492,86.9873047c1.0439453-0.5966797,2.5268555-1.5595703,3.8569336-3.0185547
				c1.3286133,1.4589844,2.8183594,2.421875,3.8525391,3.0185547c0,0,0.171875,0.0957031,0.3833008,0.2109375
				c-1.9550781,0.9248047-3.3461914,1.8945313-4.3183594,2.9951172c-1.0092773-1.0566406-2.4301758-2.046875-4.2348633-2.9541016
				C211.2143555,87.1230469,211.4604492,86.9873047,211.4604492,86.9873047z M223.9262695,89.2724609
				c1.059082,0.4658203,2.5029297,1.125,2.5029297,1.5908203c0,0.2832031,0,1.0380859-2.4057617,1.0380859
				c-2.4033203,0-2.4033203-0.7548828-2.4033203-1.0380859C221.6201172,90.3525391,222.9863281,89.7021484,223.9262695,89.2724609z
				 M228.8681641,86.8847656c1.0556641-0.6054688,2.3388672-1.4521484,3.8632813-2.9472656
				c1.2939453,1.2480469,2.4663086,2.1494141,3.8457031,2.9472656c0,0,0.1240234,0.0625,0.2714844,0.1455078
				c-1.8979492,0.8632813-3.222168,1.7226563-4.1679688,2.7138672c-0.921875-0.9794922-2.2368164-1.8330078-4.1333008-2.6855469
				C228.6743164,86.9873047,228.8681641,86.8847656,228.8681641,86.8847656z M241.4291992,89.2558594
				c0.9755859,0.4462891,2.4091797,1.1269531,2.4091797,1.6074219c0,0.8652344-1.3510742,1.0429688-2.4775391,1.0429688
				c-1.1303711,0-2.4697266-0.1777344-2.4697266-1.0429688C238.8911133,90.3925781,240.2973633,89.7490234,241.4291992,89.2558594z
				 M246.140625,86.9873047c1.0390625-0.5966797,2.5288086-1.5595703,3.8583984-3.0185547
				c1.3286133,1.4550781,2.8168945,2.421875,3.8500977,3.0185547c0,0,0.1503906,0.0800781,0.3378906,0.1796875
				c-1.96875,0.9296875-3.3808594,1.9052734-4.3574219,3c-1.0185547-1.0791016-2.3950195-2.0625-4.1181641-2.9492188
				C245.9125977,87.1152344,246.140625,86.9873047,246.140625,86.9873047z M258.550293,89.2519531
				c1.1328125,0.4970703,2.5566406,1.140625,2.5566406,1.6113281c0,0.34375,0,1.0429688-2.4589844,1.0429688
				s-2.4589844-0.6992188-2.4589844-1.0429688C256.1889648,90.3476563,257.5893555,89.6875,258.550293,89.2519531z
				 M263.4428711,86.8847656c1.0527344-0.6054688,2.3300781-1.4521484,3.8554688-2.9472656
				c1.296875,1.2480469,2.4667969,2.1494141,3.859375,2.9472656c0,0,0.1679688,0.09375,0.2695313,0.1455078
				c-1.8710938,0.84375-3.1816406,1.6914063-4.1171875,2.6572266c-0.9316406-0.9658203-2.2460938-1.8095703-4.1386719-2.6572266
				C263.2709961,86.9785156,263.4428711,86.8847656,263.4428711,86.8847656z M276.0014648,89.2558594
				c0.9765625,0.4462891,2.4042969,1.1269531,2.4042969,1.6074219c0,0.6933594-0.8359375,1.0429688-2.4707031,1.0429688
				c-1.6425781,0-2.4765625-0.3496094-2.4765625-1.0429688C273.4584961,90.3925781,274.8725586,89.7490234,276.0014648,89.2558594z
				 M280.7143555,86.9873047c1.0371094-0.5966797,2.5214844-1.5595703,3.8515625-3.0185547
				c1.3300781,1.4589844,2.8183594,2.421875,3.8574219,3.0185547c0,0,0.2382813,0.1308594,0.5136719,0.2802734
				c-1.8808594,0.9511719-3.3359375,1.9990234-4.3476563,3.1152344c-1.0332031-1.1621094-2.4765625-2.2197266-4.3105469-3.1650391
				C280.4780273,87.1152344,280.7143555,86.9873047,280.7143555,86.9873047z M293.2319336,89.2988281
				c1.0410156,0.4550781,2.4433594,1.0986328,2.4433594,1.5644531c0,0.2587891,0,1.0341797-2.3847656,1.0341797
				c-2.3808594,0-2.3808594-0.7753906-2.3808594-1.0341797C290.909668,90.3925781,292.331543,89.7128906,293.2319336,89.2988281z
				 M298.1616211,86.8847656c1.0566406-0.6054688,2.3339844-1.4521484,3.859375-2.9414063
				c1.4414063,1.4404297,2.7578125,2.3066406,3.859375,2.9414063c0,0,0.09375,0.0498047,0.2304688,0.1230469
				c-1.9257813,0.8613281-3.2558594,1.7236328-4.203125,2.7050781c-0.9199219-0.9599609-2.21875-1.8017578-4.0820313-2.6416016
				C297.9584961,86.9931641,298.1616211,86.8847656,298.1616211,86.8847656z M310.6108398,89.1191406
				c1.3945313,0.6083984,2.5195313,1.1640625,2.5195313,1.7441406c0,0.3095703,0,1.0380859-2.4296875,1.0380859
				c-1.1816406,0-2.5898438-0.1777344-2.5898438-1.0380859C308.1108398,90.3525391,309.8217773,89.4970703,310.6108398,89.1191406z
				 M324.2182617,61.4863281c-1.4023438-0.1523438-2.6582031,0.7900391-3.421875,1.9082031
				c-0.3769531-0.234375-0.7519531-0.4091797-1-0.4736328c-0.3085938-0.0820313-0.8261719-0.2207031-1.2265625,0.1210938
				c-0.3320313,0.2832031-0.4746094,0.7724609-0.4746094,1.8378906c0,0.3583984,0.0195313,0.8144531,0.0527344,1.3203125
				c-0.2929688-0.1132813-0.5957031-0.2138672-0.8378906-0.2753906c-0.3964844-0.109375-0.859375-0.1914063-1.2109375,0.0244141
				c-0.3164063,0.1894531-0.4277344,0.5097656-0.5058594,0.7978516c-0.234375,0.921875,0.171875,1.7939453,0.5351563,2.5664063
				c0.3085938,0.6582031,0.59375,1.2832031,0.4667969,1.8183594c-0.0429688,0.1611328-0.2246094,0.6650391-0.9179688,0.4824219
				c-0.625-0.171875-0.9179688-0.6826172-1.2226563-1.2265625l-0.0996094-0.1806641
				c-0.4921875-0.8398438-1.5546875-1.9638672-2.9570313-2.3339844c-0.6972656-0.1826172-1.2285156-0.2998047-1.671875-0.0302734
				c-0.4765625,0.2861328-0.6699219,0.9150391-0.9082031,1.8408203c-0.1367188,0.5576172-0.2089844,1.1748047-0.2089844,1.8134766
				c0,1.5664063,0.421875,3.2851563,1.15625,4.6787109c-0.7324219,1-1.2421875,2.1103516-1.40625,2.7695313
				c-0.109375,0.4257813-0.1679688,0.7763672-0.1679688,1.0703125c0,0.8427734,0.4746094,1.2304688,1.6523438,1.5458984
				c1.6972656,0.4501953,3.390625-0.2314453,4.7617188-0.78125c0.7851563-0.3203125,1.5332031-0.6181641,1.9042969-0.5185547
				c0.4003906,0.1025391,0.4003906,0.1025391,0.4003906,0.5078125c0,1.4794922-2.4082031,3.1806641-6.4277344,4.5742188
				c-3.0800781-1.1201172-5.8476563-2.8701172-7.2226563-4.46875c0.875-0.4609375,1.4667969-1.3896484,1.4667969-2.4638672
				c0-1.5244141-1.2070313-2.7636719-2.7050781-2.7636719c-1.4960938,0-2.7070313,1.2392578-2.7070313,2.7636719
				c0,1.0644531,0.5820313,1.9863281,1.4394531,2.4472656c-1.4160156,1.6210938-4.2265625,3.3955078-7.3203125,4.53125
				c-4.0976563-1.4033203-6.5488281-3.125-6.5488281-4.6201172c0-0.1464844,0.0410156-0.6298828,0.5703125-0.6298828
				c0.3847656,0,1.0371094,0.4833984,1.7207031,0.9960938c1.1835938,0.8808594,2.6523438,1.9833984,4.4082031,1.9833984
				c1.6386719,0,2.0820313-0.4648438,2.0820313-2.1494141c0-0.6748047-0.2148438-1.8828125-0.6640625-3.0332031
				c1.484375-1.640625,2.5058594-4.0751953,2.5058594-6.046875c0-1.9316406-0.2382813-2.421875-2.0449219-2.421875
				c-1.4550781,0-2.7578125,0.8105469-3.4375,1.4990234l-0.1328125,0.1503906
				c-0.4375,0.4443359-0.84375,0.8740234-1.4921875,0.8740234c-0.7128906,0-0.7695313-0.5400391-0.7695313-0.7089844
				c0-0.5507813,0.4335938-1.0800781,0.8964844-1.6386719c0.5449219-0.6513672,1.1542969-1.3945313,1.1542969-2.3447266
				c0-1.0859375-0.7050781-1.2392578-1.4550781-1.2392578c-0.2519531,0-0.5703125,0.0146484-0.8769531,0.0556641
				c0.3769531-1.1767578,0.5664063-1.9414063,0.5664063-2.4462891c0-0.3125-0.0722656-0.5390625-0.1894531-0.71875
				c-0.3085938-0.4355469-0.8496094-0.4355469-1.1699219-0.4355469c-0.2460938,0-0.6699219,0.0722656-1.1015625,0.2089844
				c-0.4492188-1.0878906-1.5136719-2.3144531-2.7441406-2.71875l-0.1445313-0.0429688l-0.1445313,0.0429688
				c-1.2265625,0.4042969-2.2929688,1.6308594-2.7421875,2.71875c-0.4316406-0.1367188-0.8515625-0.2089844-1.0976563-0.2089844
				c-0.328125,0-0.859375,0-1.1699219,0.4355469c-0.1191406,0.1796875-0.1875,0.40625-0.1875,0.71875
				c0,0.5048828,0.1835938,1.2695313,0.5625,2.4462891c-0.3125-0.0410156-0.6230469-0.0556641-0.8730469-0.0556641
				c-0.7519531,0-1.4550781,0.1533203-1.4550781,1.2392578c0,0.9501953,0.609375,1.6933594,1.1503906,2.3447266
				c0.4628906,0.5585938,0.8945313,1.0878906,0.8945313,1.6386719c0,0.1689453-0.0566406,0.7089844-0.765625,0.7089844
				c-0.6464844,0-1.0605469-0.4296875-1.4863281-0.8740234l-0.140625-0.1503906
				c-0.6796875-0.6884766-1.984375-1.4990234-3.4375-1.4990234c-1.8046875,0-2.046875,0.4902344-2.046875,2.421875
				c0,1.9716797,1.0253906,4.40625,2.5136719,6.046875c-0.4550781,1.1503906-0.671875,2.3583984-0.671875,3.0332031
				c0,1.6845703,0.4472656,2.1494141,2.0839844,2.1494141c1.7539063,0,3.2285156-1.1025391,4.4101563-1.9833984
				c0.6855469-0.5126953,1.3359375-0.9960938,1.7167969-0.9960938c0.5332031,0,0.5703125,0.4833984,0.5703125,0.6298828
				c0,1.484375-2.4140625,3.1904297-6.4589844,4.5898438c-3.0371094-1.1054688-5.8554688-2.8857422-7.2480469-4.4892578
				c0.8691406-0.4619141,1.4628906-1.3896484,1.4628906-2.4589844c0-1.5244141-1.2128906-2.7636719-2.7070313-2.7636719
				c-1.4921875,0-2.7109375,1.2392578-2.7109375,2.7636719c0,1.0644531,0.5898438,1.9863281,1.4550781,2.453125
				c-1.4082031,1.6308594-4.1953125,3.3896484-7.2539063,4.4951172c-4.0585938-1.3955078-6.4785156-3.1054688-6.4785156-4.5898438
				c0-0.1464844,0.0410156-0.6298828,0.578125-0.6298828c0.3789063,0,1.0292969,0.4833984,1.7128906,0.9960938
				c1.1835938,0.8808594,2.65625,1.9833984,4.4101563,1.9833984c1.6425781,0,2.0878906-0.4648438,2.0878906-2.1494141
				c0-0.6748047-0.2148438-1.8828125-0.6738281-3.0332031c1.4863281-1.640625,2.515625-4.0751953,2.515625-6.046875
				c0-1.9316406-0.2402344-2.421875-2.0449219-2.421875c-1.4550781,0-2.7578125,0.8105469-3.4394531,1.4990234l-0.1386719,0.1503906
				c-0.4316406,0.4443359-0.84375,0.8740234-1.4941406,0.8740234c-0.7109375,0-0.765625-0.5400391-0.765625-0.7089844
				c0-0.5507813,0.4394531-1.0800781,0.8984375-1.6386719c0.5371094-0.6513672,1.1523438-1.3945313,1.1523438-2.3447266
				c0-1.0859375-0.7011719-1.2392578-1.4550781-1.2392578c-0.2539063,0-0.5625,0.0146484-0.8730469,0.0556641
				c0.375-1.1767578,0.5625-1.9414063,0.5625-2.4462891c0-0.3125-0.0683594-0.5390625-0.2011719-0.71875
				c-0.2949219-0.4355469-0.8378906-0.4355469-1.1542969-0.4355469c-0.2460938,0-0.6699219,0.0722656-1.0996094,0.2089844
				c-0.4492188-1.0878906-1.5136719-2.3144531-2.7519531-2.71875l-0.137207-0.0429688l-0.1455078,0.0429688
				c-1.2319336,0.4042969-2.2895508,1.6308594-2.7504883,2.71875c-0.4296875-0.1367188-0.8452148-0.2089844-1.0996094-0.2089844
				c-0.3173828,0-0.8549805,0-1.15625,0.4355469c-0.1225586,0.1796875-0.2001953,0.40625-0.2001953,0.71875
				c0,0.5048828,0.1899414,1.2695313,0.5737305,2.4462891c-0.3173828-0.0410156-0.6308594-0.0556641-0.8754883-0.0556641
				c-0.762207,0-1.4643555,0.1533203-1.4643555,1.2392578c0,0.9501953,0.6142578,1.6933594,1.152832,2.3447266
				c0.4609375,0.5585938,0.9052734,1.0878906,0.9052734,1.6386719c0,0.1689453-0.0615234,0.7089844-0.7709961,0.7089844
				c-0.652832,0-1.0610352-0.4296875-1.4921875-0.8740234l-0.1367188-0.1503906
				c-0.6816406-0.6884766-1.9892578-1.4990234-3.4335938-1.4990234c-1.8041992,0-2.050293,0.4902344-2.050293,2.421875
				c0,1.9716797,1.0239258,4.40625,2.5112305,6.046875c-0.449707,1.1503906-0.6699219,2.3583984-0.6699219,3.0332031
				c0,1.6845703,0.4506836,2.1494141,2.0820313,2.1494141c1.7543945,0,3.2299805-1.1025391,4.4165039-1.9833984
				c0.6835938-0.5126953,1.3339844-0.9960938,1.7182617-0.9960938c0.5268555,0,0.5678711,0.4833984,0.5678711,0.6298828
				c0,1.484375-2.4145508,3.1904297-6.4624023,4.5898438c-3.0380859-1.1054688-5.8525391-2.8857422-7.2485352-4.4892578
				c0.8632813-0.4619141,1.4624023-1.3896484,1.4624023-2.4589844c0-1.5244141-1.2172852-2.7636719-2.7055664-2.7636719
				c-1.4956055,0-2.7119141,1.2392578-2.7119141,2.7636719c0,1.0644531,0.5917969,1.9863281,1.456543,2.453125
				c-1.421875,1.6386719-4.2304688,3.4101563-7.309082,4.5146484c-4.0888672-1.3955078-6.5322266-3.1142578-6.5322266-4.609375
				c0-0.1464844,0.0444336-0.6298828,0.5776367-0.6298828c0.378418,0,1.0268555,0.4833984,1.7119141,0.9960938
				c1.1826172,0.8808594,2.65625,1.9833984,4.4106445,1.9833984c1.6430664,0,2.0878906-0.4648438,2.0878906-2.1494141
				c0-0.6748047-0.2197266-1.8828125-0.6699219-3.0332031c1.4829102-1.640625,2.5112305-4.0751953,2.5112305-6.046875
				c0-1.9316406-0.2460938-2.421875-2.0527344-2.421875c-1.4472656,0-2.7563477,0.8105469-3.4331055,1.4990234l-0.1362305,0.1503906
				c-0.4345703,0.4443359-0.8383789,0.8740234-1.4892578,0.8740234c-0.7158203,0-0.7675781-0.5400391-0.7675781-0.7089844
				c0-0.5507813,0.4345703-1.0800781,0.8950195-1.6386719c0.5444336-0.6513672,1.1523438-1.3945313,1.1523438-2.3447266
				c0-1.0859375-0.7011719-1.2392578-1.4570313-1.2392578c-0.2470703,0-0.5649414,0.0146484-0.8759766,0.0556641
				c0.3774414-1.1767578,0.5683594-1.9414063,0.5683594-2.4462891c0-0.3125-0.0673828-0.5390625-0.1992188-0.71875
				c-0.2973633-0.4355469-0.8354492-0.4355469-1.1567383-0.4355469c-0.2446289,0-0.6708984,0.0722656-1.0996094,0.2089844
				c-0.4545898-1.0878906-1.5141602-2.3144531-2.7519531-2.71875l-0.1386719-0.0429688l-0.1455078,0.0429688
				c-1.2270508,0.4042969-2.2900391,1.6308594-2.7456055,2.71875c-0.4296875-0.1367188-0.8500977-0.2089844-1.0947266-0.2089844
				c-0.3261719,0-0.8588867,0-1.1669922,0.4355469c-0.1264648,0.1796875-0.1933594,0.40625-0.1933594,0.71875
				c0,0.5048828,0.184082,1.2695313,0.5678711,2.4462891c-0.3134766-0.0410156-0.6298828-0.0556641-0.875-0.0556641
				c-0.7617188,0-1.4633789,0.1533203-1.4633789,1.2392578c0,0.9501953,0.612793,1.6933594,1.1557617,2.3447266
				c0.4609375,0.5585938,0.9018555,1.0878906,0.9018555,1.6386719c0,0.1689453-0.0629883,0.7089844-0.7719727,0.7089844
				c-0.6508789,0-1.0615234-0.4296875-1.4902344-0.8740234l-0.1391602-0.1503906
				c-0.6748047-0.6884766-1.9829102-1.4990234-3.4326172-1.4990234c-1.8046875,0-2.0454102,0.4902344-2.0454102,2.421875
				c0,1.9716797,1.0244141,4.40625,2.5063477,6.046875c-0.4501953,1.1503906-0.6713867,2.3583984-0.6713867,3.0332031
				c0,1.6845703,0.4516602,2.1494141,2.0888672,2.1494141c1.7539063,0,3.2236328-1.1025391,4.409668-1.9833984
				c0.6845703-0.5126953,1.3344727-0.9960938,1.71875-0.9960938c0.5273438,0,0.5678711,0.4833984,0.5678711,0.6298828
				c0,1.4882813-2.425293,3.1992188-6.4873047,4.5986328c-3.0737305-1.1357422-5.8632813-2.9003906-7.2739258-4.5097656
				c0.8588867-0.4667969,1.4472656-1.3828125,1.4472656-2.4472656c0-1.5244141-1.21875-2.7636719-2.7104492-2.7636719
				c-1.4892578,0-2.706543,1.2392578-2.706543,2.7636719c0,1.0742188,0.597168,2.0029297,1.4731445,2.4638672
				c-1.3759766,1.5986328-4.1455078,3.3486328-7.2241211,4.46875c-4.0253906-1.3935547-6.425293-3.0947266-6.425293-4.5742188
				c0-0.4052734,0-0.4052734,0.3989258-0.5078125c0.3686523-0.0996094,1.1152344,0.1982422,1.9072266,0.5185547
				c1.3623047,0.5498047,3.0605469,1.2314453,4.7592773,0.78125c0.7260742-0.1962891,1.2280273-0.4033203,1.487793-0.8564453
				c0.1181641-0.2060547,0.168457-0.4345703,0.168457-0.6943359c0-0.2988281-0.0644531-0.6503906-0.1733398-1.0654297
				c-0.1640625-0.6533203-0.6796875-1.7695313-1.4018555-2.7695313c0.7319336-1.3935547,1.1469727-3.1123047,1.1469727-4.6787109
				c0-0.6386719-0.0668945-1.2558594-0.2104492-1.8134766c-0.234375-0.9257813-0.4243164-1.5546875-0.9052734-1.8408203
				c-0.4389648-0.2695313-0.9663086-0.1523438-1.6723633,0.0302734c-1.4023438,0.3701172-2.4672852,1.4941406-2.9467773,2.3339844
				l-0.1069336,0.1806641c-0.3032227,0.5439453-0.5942383,1.0546875-1.21875,1.2265625
				c-0.6889648,0.1826172-0.8745117-0.3212891-0.9145508-0.4824219c-0.1381836-0.5351563,0.1474609-1.1601563,0.4589844-1.8183594
				c0.3583984-0.7724609,0.7685547-1.6445313,0.5317383-2.5664063c-0.0712891-0.2880859-0.1894531-0.6083984-0.4946289-0.7978516
				c-0.3637695-0.2158203-0.8208008-0.1337891-1.2231445-0.0244141c-0.2402344,0.0615234-0.5327148,0.1621094-0.8291016,0.2753906
				c0.03125-0.5058594,0.0551758-0.9619141,0.0551758-1.3203125c0-1.0654297-0.1474609-1.5546875-0.4741211-1.8378906
				c-0.4052734-0.3417969-0.9267578-0.203125-1.2333984-0.1210938c-0.2446289,0.0644531-0.6230469,0.2392578-1.0014648,0.4736328
				c-0.753418-1.1181641-2.0229492-2.0605469-3.4199219-1.9082031l-0.5356445,0.0595703
				c0,0,4.2822266,16.7246094,4.3076172,16.8251953c0.0102539,4.6142578,1.0166016,6.4111328,4.6542969,8.3017578
				c0,0,0.4467773,0.2197266,0.8964844,0.4423828c-1.6235352,0.8574219-3.0595703,2.0830078-3.0595703,4.3066406
				c0,2.1201172,1.3549805,3.7910156,3.2734375,4.2294922c0.2666016,10.7988281,1.8740234,77.4731445,1.8740234,77.480957
				c0,19.1435547,6.4707031,36.3740234,18.2124023,48.5292969c11.4541016,11.8457031,27.3017578,18.3759766,44.6362305,18.3759766
				c17.3271484,0,33.1787109-6.5302734,44.6298828-18.3759766c11.7441406-12.1552734,18.2167969-29.3857422,18.2167969-48.5400391
				c0,0,1.71875-70.8725586,1.8769531-77.496582c1.8789063-0.4628906,3.1855469-2.1142578,3.1855469-4.203125
				c0-2.2236328-1.4335938-3.4492188-3.0527344-4.3066406c0.4433594-0.2226563,0.8945313-0.4423828,0.8945313-0.4423828
				c3.640625-1.890625,4.6425781-3.6875,4.6542969-8.3017578c0.0273438-0.1005859,4.3105469-16.8251953,4.3105469-16.8251953
				L324.2182617,61.4863281z"/>
			<path fill="#00529F" d="M290.7592773,161.4262695l-2.2871094-1.3398438
				c-4.7890625-2.9472656-11.9003906-12.3295898-11.9003906-19.230957c0-0.4150391,0.0175781-0.8271484,0.0371094-1.2255859
				c-0.1601563,0-3.8300781,0-4.7402344,0c-0.34375,1.1855469-0.953125,2.6542969-1.9101563,3.9208984
				c-0.5585938,0.7373047-1.2734375,2.6328125-1.2734375,5.1376953c0,0.4042969,0.0234375,0.8193359,0.0625,1.2529297
				l0.078125,0.8325195l-0.8085938,0.1826172c-1.1679688,0.2568359-2.4492188,0-3.5117188-0.4575195
				c0.0253906,1.2807617,0.6152344,2.6899414,1.0859375,3.3061523l0.4296875,0.5693359l-0.4199219,0.5849609
				c-0.3632813,0.5019531-0.8339844,0.9453125-1.375,1.3144531c1.0058594,1.1044922,1.9824219,1.9833984,2.8691406,2.5751953
				c2.2597656,1.4912109,4.6738281,2.8730469,7.0136719,4.1992188c6.9355469,3.9423828,13.4921875,7.6738281,13.4921875,13.6103516
				c0,1.0488281-0.2050781,1.9560547-0.5800781,2.6923828c0.9375,0.5585938,1.8808594,0.7910156,3.3027344,0.7910156
				c5.2089844,0,8.9941406-3.890625,8.9941406-9.2509766C299.3178711,166.3051758,294.9682617,163.8286133,290.7592773,161.4262695"
				/>
			<path fill="#00529F" d="M249.9262695,119.1542969c-0.2104492-0.4599609-0.6430664-1.0605469-1.0322266-1.4248047
				c-0.8706055-0.8232422-1.9448242-1.2626953-2.722168-1.4355469c-0.1381836,0.7265625-0.4755859,1.5341797-1.0742188,2.2314453
				c-0.2919922,0.3505859-0.5170898,0.7216797-0.7524414,0.8955078c0.9262695-0.2207031,1.934082-0.3886719,2.9824219-0.3886719
				C248.1987305,119.0322266,249.1337891,119.0800781,249.9262695,119.1542969"/>
			<path fill="#00529F" d="M304.8842773,168.6293945c0.0761719,0.8037109,0.1660156,1.7597656,0.1660156,2.8242188
				c0,1.8388672-0.2714844,3.9882813-1.3203125,6.1582031c0.9667969-0.09375,1.9277344,0.0742188,2.7734375,0.5527344
				l1.1933594,0.6757813l-1.0605469,0.8896484c-1.3496094,1.1357422-2.0898438,2.1035156-2.8710938,3.1298828l-0.6152344,0.7880859
				c-1.21875,1.5361328-2.8007813,2.2226563-5.0917969,2.2226563c-0.8554688,0-1.7050781-0.3095703-2.4628906-0.8613281
				c-1.4296875,0.9560547-3.6230469,1.5263672-5.9902344,1.5263672c-3.0859375,0-5.78125-0.9111328-7.1113281-1.4492188
				c-2.7109375,1.3857422-4.0410156,3.2988281-4.0410156,5.8369141c0,2.9658203,2.4140625,5.8544922,4.9667969,6.0673828
				c0.9785156-0.8681641,2.4296875-1.4072266,3.9648438-1.4072266c2.9179688,0,5.2851563,2.6289063,5.2851563,5.8671875
				c0,1.4150391-0.2558594,2.4316406-0.5039063,3.4189453c-0.2441406,0.9814453-0.4746094,1.9140625-0.4746094,3.2744141
				c0,0.9355469,0.5839844,1.5341797,0.84375,1.7587891l0.6035156,0.5166016l-0.3984375,0.6933594
				c-0.8457031,1.4599609-2.859375,1.9873047-5.2792969,1.4882813c-0.2050781,0.9951172-0.6054688,1.6308594-1.3925781,2.2861328
				l-0.3417969,0.2841797l-0.4335938-0.0917969c-0.7324219-0.1435547-1.3417969-0.5097656-1.796875-1.0556641
				c-0.7890625,1.3037109-1.9160156,2.6982422-3.1757813,3.7578125c0.546875,0.5830078,0.8808594,1.2685547,0.8808594,1.9902344
				c0,0.4990234-0.1289063,1.015625-0.3476563,1.4384766c0.5273438,0.6337891,0.7988281,1.3076172,0.7988281,2.0253906
				c0,1.7216797-2.0019531,3.8662109-3.3125,3.9667969l-0.6425781,0.046875l-0.2597656-0.5556641
				c-0.5800781-1.1660156-1.1230469-1.65625-1.5371094-1.8505859c-0.6738281,0.2294922-1.6113281,0.2041016-2.6191406-0.5439453
				c-0.3984375,0.7695313-1.015625,1.4833984-1.7304688,1.9335938c0.015625,0.0986328,0.0371094,0.2041016,0.0371094,0.3125
				c0,0.6201172-0.1757813,1.2841797-0.5136719,1.9287109c-0.4863281,0.9169922-1.2734375,1.71875-2.3105469,2.0917969
				c-0.5019531,1.4423828-1.4179688,2.8388672-2.8398438,3.6328125l-1.2578125,0.6972656l-0.1113281-1.4599609
				c-0.0625-0.8369141-0.3378906-2.0009766-1.03125-3.2636719c-0.6113281-0.2363281-1.2304688-0.7099609-1.6269531-1.1923828
				c-1.0332031,0.6259766-2.1679688,0.8515625-3.4589844,0.6503906c-0.703125,0.28125-1.4667969,0.9199219-2.4960938,2.2617188
				l-0.484375,0.6328125l-0.6914063-0.3867188c-0.9960938-0.5585938-1.6855469-1.8886719-1.6855469-3.2353516
				c0-1.5439453,0.4414063-2.7119141,1.609375-3.390625c-0.0253906-0.1591797-0.0546875-0.5029297-0.0546875-0.5986328
				c0-1.3359375,0.5-2.3740234,1.5585938-3.2207031c-0.3925781-0.4541016-0.6816406-0.9638672-0.8300781-1.5166016
				c-0.5253906,0.1171875-0.9746094,0.3759766-1.3496094,0.7783203l-1.34375,1.4482422l-0.25-1.9804688
				c-0.2636719-2.0244141,0.0722656-3.6474609,0.9648438-4.6884766c0.6875-0.7978516,1.6738281-1.2099609,2.8496094-1.2099609
				c1.1523438,0,1.8417969,0.3417969,2.2792969,0.6757813c0.421875-0.1308594,0.8554688-0.1962891,1.2792969-0.1962891
				c1.0292969,0,1.6640625,0.3642578,2.1757813,0.6533203c0.4921875,0.28125,0.875,0.5078125,1.7304688,0.5078125
				c1.0703125,0,3.6503906-1.0527344,5.7753906-3.3251953c1.0234375-1.0898438,2.1640625-2.7324219,2.6269531-4.8984375
				c-0.3046875,0.4492188-0.6230469,0.9638672-0.9648438,1.6308594l-0.3632813,0.6894531l-0.7304688-0.2353516
				c-1.546875-0.4853516-2.7207031-1.9345703-3.2851563-3.8574219c-0.4765625,0.3896484-1.0859375,0.7197266-1.9394531,0.9746094
				l-1.1855469,0.3369141v-1.2568359c0-2.6083984-0.4199219-3.0507813-2.7558594-5.5175781l-1.0839844-1.1572266
				c-3.5996094-3.8574219-4.3164063-7.0791016-4.3164063-11.0292969c0-0.3974609,0.0214844-0.8125,0.0625-1.2285156
				c-0.5371094-0.0185547-1.0214844-0.03125-1.4277344-0.03125c-2.8535156,0-4.6088867,2.6523438-4.6088867,4.5556641
				c0,0.7451172,0.2138672,1.1425781,0.5375977,1.7363281c0.5014648,0.9570313,1.1357422,2.1396484,1.1357422,4.8710938
				c0,5.1777344-3.1464844,8.0683594-6.2250977,10.2109375l-1.3520508,0.9423828l-0.109375-1.7119141
				c-0.0400391-0.5693359-0.0698242-1.0488281-0.1630859-1.4814453c-0.9355469,1.0087891-2.0908203,1.8564453-3.2265625,2.2958984
				l-0.7763672,0.3037109c0,0-0.6147461-1.2167969-0.8496094-1.6875c-2.0024414,1.1552734-4.7041016,2.1689453-6.402832,2.6894531
				c0.0161133,0.1337891,0.0375977,0.2773438,0.0375977,0.4160156c0,1.2822266-0.6557617,2.4267578-1.0644531,2.9931641
				l0.0058594,0.0966797c0,2.0087891-1.8833008,3.2324219-3.746582,3.3916016l-1.3754883,0.1191406l0.4038086-1.34375
				c0.3256836-1.0615234-0.6137695-1.6328125-0.6137695-1.6328125c-0.9726563-0.4179688-2.0214844-1.2197266-2.496582-2.1757813
				c-0.3676758,0.1337891-0.7573242,0.2353516-1.1459961,0.2919922c-0.0258789,1.6425781-0.578125,2.6933594-1.0893555,3.3134766
				c-0.6708984,0.8154297-1.7177734,1.3779297-2.828125,1.5546875c-0.4521484,0.90625-0.9780273,1.6533203-1.7299805,2.2773438
				l-0.4814453,0.3974609l-0.5458984-0.2910156c-1.0664063-0.5771484-2.4736328-2.1044922-2.5239258-3.5585938l-0.0083008-0.1943359
				c-0.5170898-0.3798828-0.9428711-1.0341797-1.1176758-1.6767578c-0.0810547-0.2822266-0.1171875-0.5908203-0.1171875-0.9091797
				c0-0.4804688,0.0927734-0.9902344,0.262207-1.4931641c-0.1191406,0-0.2363281,0.0068359-0.3696289,0.0068359
				c-0.7250977,0-1.3740234-0.3134766-1.8979492-0.8125c-0.5458984,0.3759766-1.109375,0.8994141-1.4472656,1.5644531
				l-0.6347656,1.2548828l-0.8994141-1.0722656c-0.6083984-0.7304688-1.3105469-1.7900391-1.3105469-3.5966797
				c0-2.1953125,1.5351563-3.8837891,3.7807617-4.2285156c0.7724609-0.9316406,1.9140625-1.4912109,2.9873047-1.4912109
				c0.4345703,0,0.8344727,0.0351563,1.2226563,0.0986328c-0.0053711-0.0097656-0.0053711-0.0283203-0.0053711-0.0419922
				c-0.5258789-0.2119141-1.1655273-0.2929688-1.9165039-0.25l-1.050293,0.0595703l0.0668945-1.0693359
				c0.112793-1.7373047,1.6987305-3.6933594,3.6572266-3.6933594c1.3217773,0,1.965332,0.359375,2.5834961,0.9335938
				c0.3271484-0.0605469,0.6601563-0.0878906,0.9975586-0.0878906c1.5566406,0,2.3525391,0.6914063,2.9985352,1.2451172
				c0.5117188,0.4423828,0.8173828,0.7089844,1.4902344,0.7089844c1.3637695,0,5.6411133-0.9453125,7.4462891-3.1083984
				c-0.5170898-0.1689453-1.0029297-0.4111328-1.3955078-0.7246094l-0.8041992-0.6328125l0.6855469-0.7636719
				c1.1015625-1.2128906,1.3164063-1.8291016,1.3164063-6.2558594c0-3.8623047,1.8911133-7.4990234,5.3237305-10.2431641
				c3.4506836-2.7392578,8.0996094-4.2578125,13.0947266-4.2578125l3.0986328,0.0673828l3.3085938,0.0585938
				c0.0644531,0,0.5175781-0.0390625,1.390625-1.0664063c-6.8930664-0.6054688-12.8798828-2.3134766-18.8662109-7.6699219
				c-0.3623047,1.0234375-0.9975586,1.7939453-1.8623047,2.2255859l-0.4589844,0.2255859l-0.4311523-0.2734375
				c-1.4570313-0.9091797-2.7109375-1.5976563-4.828125-1.8828125c-0.2978516,1.4667969-1.4018555,2.8564453-2.3227539,3.3759766
				l-0.7167969,0.3974609l-0.9057617-1.2666016c-0.6860352-0.9550781-1.3398438-1.8701172-1.9287109-2.25
				c-0.2709961,0.7802734-0.7724609,1.4628906-1.4819336,1.9589844l-0.512207,0.3554688l-0.8916016-0.5830078
				c-1.8144531-1.1826172-3.1245117-2.0400391-5.8769531-2.0400391c-1.2944336,0-2.4711914,0.3896484-3.1772461,0.7246094
				c0.1835938,0.4208984,0.2568359,0.8818359,0.2724609,1.4414063c0.0029297,0.0234375,0.0029297,0.0488281,0.0029297,0.0703125
				c0,0.9453125-0.5527344,1.8369141-1.0317383,2.3164063c-0.1694336,0.1738281-0.5273438,0.4335938-0.7539063,0.5322266
				c-0.3051758,0.9003906-0.7460938,2.0585938-2.2695313,3.0605469l-0.6806641,0.4501953l-0.527832-0.6230469
				c-0.5727539-0.6865234-0.9101563-1.2910156-1.1762695-1.9023438c-0.6235352-0.1552734-1.4946289-0.5917969-2.0009766-1.1582031
				c-0.1777344,0.3183594-0.3427734,0.8027344-0.3427734,1.4746094c0,1.1152344-1.0224609,2.1806641-2.0517578,2.5351563
				c-0.2563477,0.8408203-0.3774414,1.5419922-0.3574219,2.0087891l0.0454102,0.9277344l-0.9082031,0.0634766
				c-0.8764648,0.0595703-1.8125-0.2880859-2.5595703-0.9521484c-0.6972656-0.6230469-1.1196289-1.4433594-1.1708984-2.2402344
				l-0.0048828-0.2666016c-0.7827148-0.546875-1.1992188-1.5146484-1.1992188-2.8144531
				c0-0.2753906,0.0224609-0.5703125,0.0566406-0.890625c-0.1474609-0.0488281-0.2998047-0.1054688-0.4492188-0.1855469
				c-0.0722656-0.0507813-0.1586914-0.1132813-0.2558594-0.1904297c-0.5830078,0.2705078-1.0288086,0.7880859-1.3300781,1.5683594
				l-0.496582,1.28125l-1.0737305-1.0107422c-0.7006836-0.6533203-1.7592773-1.6416016-1.7592773-3.4355469
				c0-1.3212891,0.6796875-2.4169922,1.8925781-3.1083984c-0.0068359-0.0888672-0.0107422-0.1669922-0.0107422-0.2548828
				c0-0.5488281,0.1386719-1.1318359,0.5117188-1.6582031c0.4042969-0.5849609,1.0126953-0.9853516,1.7895508-1.2236328
				c-0.4130859-0.5498047-0.7202148-1.1835938-0.8271484-1.8808594c-0.6308594-0.3154297-1.3212891-0.4804688-2.0576172-0.4804688
				h-1.390625l0.53125-1.3085938c0.5527344-1.3818359,1.9545898-3,4.0712891-3c0.4316406,0,1.3823242,0,2.3339844,0.4433594
				c0.2045898-0.0429688,0.4150391-0.0742188,0.6186523-0.0742188c0.8896484,0,1.6010742,0.5234375,2.2861328,1.0195313
				c0.6459961,0.4638672,1.2597656,0.9033203,1.9560547,0.9033203c0.4633789,0,2.3632813-0.8115234,3.6210938-1.3496094
				c1.4379883-0.6103516,2.9169922-1.2480469,3.9145508-1.5039063c1.2832031-0.3261719,3.7543945-1.6611328,6.8549805-3.6982422
				c-0.1850586-0.3232422-0.3491211-0.6640625-0.496582-1.0234375l-0.3583984-0.8735352l0.8549805-0.3671875
				c0.4204102-0.1787109,0.746582-0.3662109,1.012207-0.5732422c-0.0258789-0.7617188-0.2099609-1.7509766-0.7666016-2.8789063
				c-1.0644531,0.9892578-2.7119141,1.4423828-4.0722656,1.2226563l-1.1152344-0.1826172l0.3837891-1.0859375
				c0.5302734-1.4716797,0.7988281-2.8974609,0.7988281-4.3652344c0-0.8320313-0.0942383-1.6787109-0.2685547-2.5546875
				c-0.894043,0.7695313-2.0405273,0.7773438-2.5615234,0.7773438c-0.0063477,0-0.9355469,0-0.9355469,0l-0.0058594-0.9462891
				c-0.0268555-2.5722656-0.4868164-5.7734375-3.4189453-10.0507813c-0.0908203,0.0449219-0.1923828,0.0888672-0.2900391,0.1298828
				c-0.8916016,1.5244141-2.5429688,2.5927734-4.1118164,2.5927734c-1.7412109,0-2.9638672-1.1064453-3.5273438-2.1425781
				l-0.6191406-1.1425781l1.253418-0.2519531c0.7680664-0.15625,1.340332-0.53125,1.7607422-0.9365234
				c-0.6850586-0.875-1.1054688-1.9287109-1.21875-2.9394531c-1.0419922-0.2236328-1.8925781-0.6201172-2.5463867-1.1582031
				c-0.7524414,0.4140625-1.2944336,1.0488281-1.6118164,1.8828125l-0.5581055,1.4902344l-1.0180664-1.2148438
				c-0.6088867-0.7265625-1.3027344-1.7900391-1.3027344-3.5927734c0-2.0693359,1.4208984-3.7353516,3.5078125-4.1748047
				c0.7070313-1.0351563,1.9458008-1.5185547,3.1772461-1.5185547c0.159668,0,0.2963867,0.0097656,0.4506836,0.0185547
				c-0.8701172-0.5585938-1.9501953-1.3447266-1.9501953-2.9892578c0-0.4199219,0.0991211-0.828125,0.2680664-1.2148438
				c-0.3652344-0.1953125-0.784668-0.3300781-1.2651367-0.3945313l-0.8041992-0.1191406v-0.8447266
				c0.0327148-1.4404297,1.6430664-3.5761719,3.8188477-3.5761719c1.6206055,0,2.9101563,0.8203125,3.5913086,2.2617188
				c0.4228516,0.1640625,0.8115234,0.4042969,1.1401367,0.71875c0.3891602,0.3857422,0.659668,0.8681641,0.7978516,1.3935547
				c-0.0258789-0.2089844-0.0410156-0.4248047-0.0410156-0.6503906c0-0.0791016,0-0.1621094,0.0048828-0.2421875
				c0.0161133-0.2695313,0.0673828-0.5292969,0.1640625-0.7646484c-0.3535156-0.4658203-0.8740234-1.0205078-1.637207-1.4921875
				l-0.762207-0.4775391l0.440918-0.7998047c0.5922852-1.0742188,1.9077148-1.6972656,3.6162109-1.6972656
				c1.9223633,0,3.5083008,1.6660156,3.8676758,3.3203125c0.8789063,0.4765625,1.5751953,1.2753906,1.5751953,2.4257813
				c0,0.875-0.2353516,1.7587891-0.4438477,2.5400391c-0.15625,0.5878906-0.3032227,1.1435547-0.3134766,1.5380859
				c-0.0195313,1.3125,1.0449219,2.5429688,2.6450195,4.4023438c0.9926758,1.140625,2.2202148,2.5703125,3.5097656,4.3964844
				c0.9311523,1.3251953,6.8095703,5.0605469,11.0908203,7.2822266c0.6347656-1.3544922,1.5810547-2.4638672,2.4414063-3.1640625
				l0.6186523-0.4980469l0.5825195,0.5390625c1.3496094,1.2441406,2.3891602,2.1582031,5.3422852,2.3222656
				c0-1.0976563,0-3.8525391,0-3.8525391h0.9243164c0.6923828,0,1.3979492,0.4179688,2.3803711,0.9990234
				c1.487793,0.8935547,3.5292969,2.1035156,6.0454102,2.1035156c1.0297852,0,2.7636719-0.3261719,2.7636719-1.5576172
				c0-1.0410156-0.4545898-1.1660156-0.7983398-1.1660156c-0.4238281,0-1.1245117,1.1513672-2.5625,1.1513672
				c-1.8876953,0-3.5727539-1.3828125-3.5727539-3.0693359c0-0.3164063,0.0615234-0.5966797,0.1801758-0.8466797
				c-0.1699219-0.4228516-0.1987305-0.7099609-0.0966797-1.0976563c-1.6049805,0.5673828-3.8525391,1.2099609-5.730957,1.2099609
				c-3.5297852,0-7.3310547-1.9072266-7.3310547-6.0917969c0-2.8144531,1.9194336-4.3271484,3.7202148-4.3271484
				c0.6640625,0,1.2680664,0.1992188,1.7036133,0.5556641l0.6240234,0.5126953l-0.5053711,0.4394531
				c-0.621582,0.7646484-0.8813477,1.625-0.8813477,2.4296875c0,1.3320313,1.4736328,2.7617188,4.7075195,2.7617188
				c0.8022461,0,1.9326172-0.1308594,2.9677734-0.3457031c-0.1186523-0.1933594-0.1904297-0.3886719-0.230957-0.5644531
				c-0.1538086-0.0214844-0.3032227-0.0615234-0.440918-0.1054688c-1.9174805-0.6855469-3.3085938-2.3095703-3.3085938-4.1757813
				c0-0.4931641,0.0751953-1.1416016,0.3408203-1.7597656c0,0-0.4697266-0.3916016-0.4697266-1.6123047
				c0-2.5195313,4.1240234-5.2558594,5.7402344-6.2392578c0.9458008-1.8925781,4.4067383-5.8486328,11.4575195-5.9619141
				c1.3222656-0.8916016,2.8457031-1.0224609,4.0546875-1.0224609c0.5996094,0,1.3300781,0.0732422,2.1308594,0.2919922
				c0.8808594-0.5839844,1.7832031-0.8759766,2.6230469-0.8759766c1.0058594,0,2.734375,1.3447266,3.1035156,3.4863281
				c0.8398438,0.5136719,2.7109375,1.1992188,3.7402344,1.3427734l1.046875,0.1396484l-0.2714844,1.0400391
				c-0.15625,0.5996094-0.4960938,1.1748047-0.9355469,1.6835938c0.6699219,0.4199219,1.2441406,0.8554688,1.796875,1.2724609
				c0.8652344,0.6601563,1.6894531,1.2832031,2.8359375,1.828125l1.0175781,0.4775391l-0.6523438,0.9384766
				c-0.4785156,0.6835938-0.9453125,1.1582031-1.4101563,1.4980469c1.2167969,1.4189453,1.9433594,3.6738281,2.1757813,4.5
				c0.5507813,1.890625,2.3398438,4.1220703,3.4082031,5.1630859l1.0253906,0.9931641l-1.296875,0.5703125
				c-0.8007813,0.3496094-1.6816406,0.5800781-2.7558594,0.7080078c0.1269531,0.7480469,0.2011719,1.6640625,0.2011719,2.796875
				c0,2.0839844-0.2207031,4.8125-0.6582031,8.171875c-0.0253906,0.2148438-0.0371094,0.4199219-0.0371094,0.6123047
				c0,1.1181641,0.3964844,1.9814453,0.7617188,2.5419922l0.9589844,1.4658203
				c0.4121094-7.8681641,4.6914063-11.9599609,7.3164063-14.2753906c-0.0546875-0.5605469-0.0878906-1.1044922-0.0878906-1.6181641
				c0-7.5654297,5.7578125-10.2001953,8.0429688-11.2421875l0.2558594-0.1220703
				c0.5703125-0.265625,1.4257813-0.7607422,2.1855469-1.1894531l2.2753906-1.2773438l0.3144531,1.1640625
				c0.1953125,0.7382813,0.2734375,1.4365234,0.2734375,2.0859375c0,0.5439453-0.0664063,1.0400391-0.1679688,1.5107422
				c2.6152344-1.2431641,5.2988281-3.3466797,6.4355469-6.2734375l0.9140625-2.3740234l0.8300781,2.4042969
				c0.6035156,1.78125,0.8476563,3.4902344,0.8476563,6.0927734c0,6.0341797-3.7324219,13.0507813-14.2089844,14.6318359
				c-3.9804688,0.609375-6.5292969,2.2646484-8.2480469,5.4589844c1.7460938-0.9853516,3.4101563-1.3408203,5.3710938-1.5
				l2.9550781-0.2353516L289.6264648,134.875c-0.0722656,0.0556641-0.1132813,0.1162109-0.1855469,0.1679688
				c1.4257813-0.3925781,2.7773438-0.4140625,4.1035156-0.4316406c2.2226563-0.0292969,4.3222656-0.0556641,6.7714844-1.9472656
				l2.1132813-1.6347656l-0.6503906,2.6240234c-0.9082031,3.7119141-4.5488281,5.0302734-8.0605469,6.3017578
				c-4.1972656,1.5253906-8.1542969,2.9609375-8.1542969,8.1416016c0,2.1367188,0.9511719,4.059082,2.5332031,5.2963867
				c-0.0429688-0.5019531-0.0566406-0.9882813-0.0566406-1.4736328c0-1.6782227,1.78125-4.8227539,6.0859375-4.8227539
				c1.15625,0,2.2910156,0.28125,3.2949219,0.5292969c0.7929688,0.1923828,1.5390625,0.3818359,2.125,0.3818359
				c1.1621094,0,1.9160156-0.4160156,2.609375-1.4296875l1.6914063-2.515625v3.0546875
				c0,3.2001953-2.7441406,4.3540039-4.9472656,5.2797852c-2.2304688,0.9375-3.5996094,1.5908203-3.5996094,3.2089844
				c0,2.2333984,2.140625,3.9042969,4.1015625,5.2617188c0.4453125-1.5400391,1.7539063-2.8144531,3.203125-3.4316406
				l1.2207031-0.4306641c0.8515625-0.2558594,1.5136719-0.4599609,2.5078125-1.4423828l0.8730469-0.8720703l0.5898438,1.0976563
				c0.484375,0.9082031,0.5273438,1.7490234,0.5273438,2.6689453c0,1.6679688-0.9101563,3.0751953-1.796875,4.4433594
				c-0.890625,1.3789063-1.734375,2.6904297-1.734375,4.234375
				C304.7924805,167.5356445,304.8354492,168.0463867,304.8842773,168.6293945 M186.3256836,96.3857422l1.8618164,76.8911133
				c0,39.4931641,27.1645508,65.7763672,61.8217773,65.7763672c34.6503906,0,61.8183594-26.2832031,61.8183594-65.7763672
				l1.859375-76.8911133H186.3256836z"/>
			<path fill="#00529F" d="M243.8305664,123.2929688c1.5214844,0,2.1166992,0.2402344,3.3027344,0.2402344
				c0.8129883,0,2.512207-0.0429688,3.0639648-1.2324219c-1.0209961-0.2070313-2.1386719-0.3125-3.3339844-0.3125
				c-1.5004883,0-2.6396484,0.3310547-3.6694336,0.6650391c0.0708008,0.2919922,0.2709961,0.5009766,0.4291992,0.6445313
				C243.6958008,123.2978516,243.7631836,123.2929688,243.8305664,123.2929688"/>
			<path fill="#FFFFFF" d="M301.3764648,179.5571289c3.8730469-4.7783203,2.4375-9.9912109,2.4375-12.390625
				c0-3.5068359,3.53125-5.7929688,3.53125-8.6875c0-0.7978516-0.0234375-1.4833984-0.4042969-2.2119141
				c-1.6113281,1.5966797-2.5878906,1.4560547-4.0195313,2.0693359c-1.6210938,0.6962891-3.1367188,2.3759766-2.7421875,4.265625
				c-2.2773438-1.6083984-5.8535156-3.6611328-5.8535156-6.9726563c0-4.7509766,8.5527344-3.4394531,8.5527344-8.4916992
				c-0.8535156,1.2636719-1.8886719,1.8447266-3.3808594,1.8447266c-1.4824219,0-3.4492188-0.9111328-5.4121094-0.9111328
				c-3.6660156,0-5.1542969,2.5893555-5.1542969,3.8706055c0,1.2832031,0.0195313,2.3134766,0.6113281,3.3652344
				c-2.75-1.0009766-4.9550781-3.6601563-4.9550781-7.190918c0-10.4970703,14.4550781-7.4013672,16.2519531-14.6699219
				c-5.1054688,3.9384766-8.90625,0.5146484-13.6464844,3.6796875c0.2382813-1.234375,0.6953125-2.0361328,1.796875-2.9648438
				c-2.9746094,0.2402344-5.0058594,0.9287109-7.6152344,3.3183594c1.9785156-6.2314453,5.4101563-8.4248047,10.2851563-9.1621094
				c9.1269531-1.3779297,13.4140625-7.2832031,13.4140625-13.6953125c0-2.4042969-0.2050781-4.0390625-0.8027344-5.7734375
				c-1.4609375,3.7929688-5.3203125,6.4179688-8.8515625,7.5927734c0.640625-1.2216797,1.0996094-2.9550781,0.5488281-5.015625
				c-0.734375,0.3710938-2.4765625,1.4521484-3.4902344,1.9179688c-2.1386719,1.0029297-8.7597656,3.6572266-7.6132813,12.515625
				c-2.7421875,2.4033203-7.4003906,6.5117188-7.4003906,15.1152344c0,6.5869141,6.9003906,15.6088867,11.4492188,18.4165039
				c4.5527344,2.8076172,11.296875,5.5214844,11.296875,11.6132813c0,5.921875-4.2363281,10.2060547-9.9277344,10.2060547
				c-1.90625,0-3.1660156-0.3554688-4.5820313-1.4697266c0.6132813-0.6552734,0.9296875-1.6992188,0.9296875-2.9609375
				c0-7.2255859-10.8339844-11.1533203-20.0839844-17.0234375c-1.2265625-0.7744141-2.1328125-1.5761719-3.1757813-2.8193359
				c-0.8535156,0.4863281-2.4941406,0.5888672-3.8164063,0.5888672c-1.1523438,0-2.9550781-0.3730469-4.7929688-1.0195313
				c-3.4804688,2.8554688-8.875,5.6982422-16.5136719,5.6982422c-4.0224609,0-6.6005859-1.4853516-10.1674805-1.4853516
				c-1.7949219,0-3.7592773,0.4707031-5.0429688,2.1894531c-2.065918-0.6552734-3.1464844-3.9189453-2.065918-6.6455078
				c-1.8901367-0.4179688-3.6118164-1.2685547-5.0112305-3.1484375c-2.0712891,1.3525391-5.1713867,3.3564453-7.2075195,3.8769531
				c-2.0297852,0.5136719-6.5732422,2.8779297-7.7597656,2.8779297c-1.8320313,0-2.9375-1.9208984-4.2407227-1.9208984
				c-1.550293,0-3.2182617,1.8486328-3.2182617,2.9648438c0,1.3320313,1.1303711,2.5488281,2.2397461,3.0498047
				c-2.840332-0.0917969-3.7539063,0.765625-3.6362305,2.5078125c1.6005859,0.2558594,2.6083984,2.4160156,2.2143555,3.7353516
				c0.1230469,0.3369141,0.7426758,0.6748047,1.4018555,0.4833984c-0.2045898,0.859375-0.6958008,2.6845703,0.6103516,3.7539063
				c0.5053711-0.9570313,1.1762695-1.28125,2.1425781-1.28125c0.9599609,0,1.7905273,0.9189453,2.0209961,1.5761719
				c0.6328125-0.1435547,1.340332-0.7519531,1.340332-1.5966797c0-1.6806641,0.84375-2.8066406,1.5595703-2.8486328
				c0.2304688,1.0292969,1.1206055,1.3642578,1.8520508,1.5996094c-0.1181641-1.8330078,1.105957-2.4160156,1.9082031-2.4160156
				c1.2695313,0,1.8168945,0.5527344,2.2988281,1.484375c0.7392578-0.28125,1.2001953-1.0927734,1.1655273-2.0117188
				c-0.0317383-0.9150391-0.1791992-1.2978516-0.6757813-1.7373047c0.3896484-0.4384766,2.3481445-1.40625,4.5175781-1.40625
				c3.2167969,0,4.6762695,1.0927734,6.7485352,2.4326172c0.637207-0.4384766,1.2368164-1.1845703,1.3129883-2.3056641
				c1.4116211-0.1582031,2.4619141,1.5820313,3.796875,3.4169922c0.8227539-0.4628906,2.112793-2.1162109,1.9077148-3.5878906
				c2.8544922,0.2158203,4.3735352,1,6.1796875,2.1181641c1.1928711-0.5839844,1.6176758-1.96875,1.6835938-3.1992188
				c6.4824219,6.3427734,12.784668,8.1240234,20.9702148,8.6679688c6.2421875,0.4160156,9.8730469,4.0917969,10.4101563,5.9306641
				c-0.9765625-0.5058594-2.1972656-0.7666016-3.7558594-0.7666016c-4.0878906,0-7.3789063,5.0039063-7.3789063,10.0371094
				c0,3.5595703,0.5664063,6.6162109,4.0507813,10.3769531c3.2460938,3.4804688,4.1035156,3.9072266,4.1035156,7.3183594
				c1.7832031-0.5166016,2.2636719-1.3964844,2.7460938-2.5644531c0.0253906,2.6298828,1.21875,4.9023438,3.0019531,5.4658203
				c0.9667969-1.8427734,1.7871094-2.9580078,2.9375-3.6894531c0.328125,7.484375-6.9589844,11.6835938-9.5507813,11.6835938
				c-2.0839844,0-2.2304688-1.1601563-3.9140625-1.1601563c-1.6621094,0-3.6132813,1.3818359-3.6132813,3.3164063
				c0,1.2070313,0.7597656,2.0429688,1.5820313,2.5244141c-1.9902344,1.0488281-2.2324219,2.1152344-2.0859375,3.5820313
				c2.484375-0.5,3.5039063,1.8310547,3.046875,3.3476563c1.5371094,0.3261719,2.65625-0.390625,3.4472656-1.1015625
				c0.2460938,0.7529297,0.9511719,1.4697266,1.7929688,1.6962891c0.53125-0.9208984,1.359375-1.5908203,2.3730469-1.5908203
				c1.0234375,0,1.8710938,0.3945313,2.3007813,1.8154297c1.1503906-0.25,2.5234375-2.3798828,1.8496094-3.8486328
				c1.171875-0.3183594,2.3417969-1.9892578,2.3984375-3.1445313c0.78125,1.0244141,1.8085938,1.8154297,2.9121094,1.3115234
				c-0.1132813-1.9638672,1.5410156-3.3847656,2.6445313-3.3847656c0.640625,0,1.1679688,0.0917969,1.5820313,0.3046875
				c0.1425781-0.2568359,0.2558594-0.6220703,0.2558594-1.015625c0-0.9296875-0.7832031-1.6318359-1.4863281-2.0117188
				c2.1230469-1.3623047,4.1523438-4.1298828,4.7558594-5.9228516c0.1679688,1.1630859,0.7636719,2.0742188,1.9355469,2.3173828
				c0.8027344-0.6757813,1.0878906-1.234375,1.2089844-2.7294922c2.203125,0.7158203,4.4648438,0.5722656,5.25-0.7988281
				c-0.5859375-0.4990234-1.1777344-1.3525391-1.1777344-2.4755859c0-2.9042969,0.9785156-4.0546875,0.9785156-6.6972656
				c0-2.703125-1.9160156-4.9111328-4.3457031-4.9111328c-1.6015625,0-2.984375,0.6328125-3.6875,1.4345703
				c-3.046875,0-6.1835938-3.359375-6.1835938-7.0488281c0-3.5136719,2.2382813-5.6064453,4.9238281-6.8857422
				c1.6542969,0.7197266,4.3398438,1.5498047,7.1679688,1.5498047c2.8183594,0,4.9902344-0.8300781,6.015625-1.7978516
				c0.390625,0.4052734,1.2480469,1.1269531,2.4296875,1.1269531c2.0488281,0,3.3554688-0.5986328,4.3789063-1.875
				c1.0117188-1.2773438,1.8222656-2.5410156,3.6152344-4.0488281
				C304.5991211,178.2143555,302.8334961,178.4526367,301.3764648,179.5571289"/>
			<path fill="#FFFFFF" d="M218.8520508,145.3925781c1.6582031-3.2685547,4.6538086-6.6132813,8.0327148-7.4169922
				c-0.1845703-0.9462891-0.3686523-1.6259766-0.3686523-3.2841797c0-0.6396484,0.1943359-1.6699219,0.371582-2.2597656
				c-3.9794922-2.0693359-10.378418-5.9384766-11.5864258-7.6572266c-3.4433594-4.890625-6.3686523-6.7148438-6.3276367-9.3769531
				c0.0141602-1.1015625,0.7509766-2.6660156,0.7509766-4.0546875c0-1.3896484-1.7016602-2.0107422-2.78125-2.0107422
				c-1.2495117,0-2.559082,0.3876953-2.6206055,1.5439453c-0.0566406,1.15625,0.4038086,2.1855469,0.5678711,2.7822266
				c0.2143555,0.8017578,0.1123047,1.9316406-0.0249023,2.8183594c-1.1362305-1.2412109-2.2416992-2.6767578-2.2416992-3.9443359
				c0-1.2988281-1.1264648-2.2431641-2.4291992-2.1845703c-1.3041992,0.0634766-3.3813477,1.6298828-3.3813477,3.1484375
				c0,1.3242188,0.9868164,1.8398438,1.8930664,2.4257813c0.5883789,0.3886719,1.2368164,0.8583984,1.6147461,2.2460938
				c-0.9916992-0.5625-1.7490234-0.7529297-2.9399414-0.7529297c-1.1918945,0-2.8349609,0.5654297-2.8349609,2.6445313
				c0,2.6083984,1.9179688,3.6152344,4.0732422,3.9033203c-0.1635742,1.9121094,1.5136719,4.8652344,4.4858398,4.8652344
				c0.6494141,0,1.2993164-0.3242188,1.5859375-0.7548828c3.5810547,4.8720703,4.1196289,8.5449219,4.1376953,11.4111328
				c1.3564453,0,2.5751953-0.3554688,2.8398438-2.4306641c1.3251953,3.8662109,1.1357422,6.9296875,0.0810547,9.8525391
				c1.4228516,0.2314453,3.4897461-0.4482422,4.0063477-2.0097656c1.3208008,2.2158203,1.4287109,2.9306641,1.4692383,4.0273438
				C218.0849609,147.7421875,217.996582,147.0693359,218.8520508,145.3925781"/>
			<path fill="#FFFFFF" d="M265.5581055,177.8901367c-1.9316406-2.2714844-5.9550781-3.5175781-8.8496094-3.6220703
				c-0.0097656,0,0.0117188-0.0214844-0.0253906,0.0205078c3.4609375,0.8486328,4.9082031,2.1660156,5.8710938,3.4755859
				C263.9331055,177.5522461,265.1049805,177.6860352,265.5581055,177.8901367"/>
			<path fill="#FFFFFF" d="M256.1069336,175.0229492c-0.6015625,0.6865234-1.2695313,1.2695313-1.8886719,1.2695313
				c-2.4882813,0-4.1240234-0.1289063-6.4091797-0.1289063c-10.0678711,0-17.4882813,6.3203125-17.4882813,13.5507813
				c0,4.421875-0.1875,5.3945313-1.5654297,6.9082031c0.6044922,0.4716797,1.5361328,0.7783203,2.3286133,0.7460938
				c-1.3344727,3.6123047-7.4648438,4.7822266-8.9472656,4.7822266c-2.0771484,0-2.1333008-1.9511719-4.4824219-1.9511719
				c-1.5244141,0-3.4462891,0.7011719-3.4462891,2.4580078c0,0.7988281,0.1875,1.6748047,0.4902344,2.1708984
				c-0.8496094-0.4726563-1.8061523-0.5839844-2.6049805-0.5839844c-1.4121094,0-2.9819336,1.3105469-2.9819336,3.1054688
				c0,1.6728516,1.0908203,3.3837891,2.4082031,3.3837891c0.769043,0,1.3725586-0.0576172,2.0024414-0.2255859
				c-1.1816406,1.6210938-1.4379883,3.0976563-0.1850586,4.3037109c0.2402344-0.5898438,1.0688477-1.5263672,2.6850586-1.5263672
				c1.2036133,0,2.5024414,1.1416016,2.2001953,2.8427734c1.3261719-0.3203125,3.2338867-1.4072266,2.875-4.7519531
				c1.0395508,0,2.144043-0.3027344,2.5986328-0.8193359c0.246582,1.0966797,0.9057617,2.1796875,2.2167969,2.6875
				c0.3564453-0.671875,1.3046875-1.7333984,2.4243164-1.7333984c1.2333984,0,1.8115234,0.5517578,2.1689453,1.125
				c0.6401367-0.8808594,1.0175781-1.6289063,0.4770508-3.2158203c1.8110352-0.4638672,5.7441406-1.9023438,7.8525391-3.3574219
				l0.9257813,1.8457031c1.5083008-0.5869141,2.9516602-1.8984375,3.7763672-3.1865234
				c0.7416992,1.0068359,0.7978516,1.9833984,0.8740234,3.2353516c2.9316406-2.0361328,5.8276367-4.6875,5.8276367-9.4208984
				c0-4.3193359-1.6738281-4.2783203-1.6738281-6.6171875c0-2.3232422,2.1191406-5.4970703,5.5336914-5.4970703
				c0.765625,0,1.109375,0.0087891,1.5136719,0.0361328c0.5683594-3.8232422,3.0449219-7.3925781,5.8554688-8.4169922
				C260.3354492,176.6352539,258.4233398,175.6079102,256.1069336,175.0229492"/>
			<path fill="#FFFFFF" d="M241.1845703,119.8652344c0.050293,0.1591797,0.1523438,0.3837891,0.2143555,0.4609375
				c0,0,0.7768555-0.1972656,0.7768555-0.2050781c0.0151367-0.0722656,0.0195313-0.2441406,0.0195313-0.3447266
				C241.8276367,119.890625,241.4897461,119.8798828,241.1845703,119.8652344"/>
			<path fill="#FFFFFF" d="M242.0229492,123.9326172c0.2041016-0.3007813,0.4692383-0.4482422,0.9140625-0.5429688
				c-0.1416016-0.2246094-0.230957-0.3759766-0.2871094-0.5751953c0-0.0039063-0.652832,0.2480469-0.652832,0.2412109
				C241.9453125,123.2646484,241.8886719,123.5185547,242.0229492,123.9326172"/>
			<g>
				<g>
					<g>
						<path fill="#FFFFFF" d="M273.9624023,135.0048828c0.9257813-7.1523438,0.7207031-10.4658203,0.1933594-11.6953125
							c1.3613281-0.0751953,2.5175781-0.2636719,3.5703125-0.7255859c-1.1738281-1.140625-3.0527344-3.5087891-3.6523438-5.5878906
							c-0.4960938-1.7158203-1.6386719-4.4345703-3.0449219-4.9638672c0.9316406-0.296875,1.5996094-0.7060547,2.4042969-1.8505859
							c-2.4042969-1.1386719-3.4414063-2.5839844-5.859375-3.8105469c0.7675781-0.4462891,1.4375-1.2480469,1.6601563-2.0791016
							c-1.2558594-0.1689453-2.4570313-0.6484375-3.6484375-1.2285156
							c-0.1914063,0.9404297-0.5253906,1.8056641-1.5390625,2.9306641l-0.6933594-0.5908203
							c0.6308594-0.7294922,1.3671875-1.8730469,1.3671875-2.7939453c0-1.2792969-1.03125-2.5341797-1.7402344-2.9443359
							c-0.7695313-0.4443359-1.4609375-0.375-3.078125,0.7255859c-0.5390625,0.3847656-1.7988281,1.5371094-2.5214844,2.1582031
							l-0.5078125-0.6035156c0.7050781-0.6806641,1.6035156-1.4003906,2.0371094-1.7695313
							c-0.4726563-0.0947266-0.8535156-0.1162109-1.15625-0.1162109c-1.3613281,0-2.6914063,0.1816406-3.7539063,1.0097656
							c-6.7939453,0-10.2929688,3.8613281-11.0302734,5.6904297c-2.6098633,1.5380859-5.4956055,3.8828125-5.4956055,5.5664063
							c0,0.4443359,0.0620117,0.7255859,0.1606445,0.9228516c0.7001953-0.3603516,1.3798828-0.9570313,1.9931641-1.5019531
							l0.4150391,0.4658203c-0.5214844,0.5292969-1.6010742,1.3779297-2.0571289,1.6699219
							c-0.3378906,0.4462891-0.4228516,1.1835938-0.4228516,1.8173828c0,1.8769531,1.9477539,3.4902344,3.9677734,3.4902344
							c2.8813477,0,3.8989258-2.6660156,3.730957-3.8935547c1.5644531-0.1259766,6.0058594,1.4521484,6.0058594,6.0029297
							c0,2.8398438-3.1152344,3.140625-4.2045898,3.140625c-1.0957031,0-1.9042969-0.3359375-3.1108398-0.3359375
							c-1.2080078,0-1.7646484,0.4277344-1.7646484,1.2392578c0,1.1015625,1.2724609,2.0917969,2.6542969,2.0917969
							c1.3598633,0,1.4589844-1.1210938,2.5473633-1.1210938c0.6401367,0,1.7304688,0.3349609,1.7304688,2.1162109
							c0,1.765625-1.8525391,2.5107422-3.6943359,2.5107422c-4.2568359,0-7.1826172-3.1015625-8.4213867-3.1015625v3.8808594
							c-3.9448242,0-5.2543945-1.1005859-6.8920898-2.6035156c-1.3500977,1.0996094-2.8325195,3.2148438-2.8325195,5.6103516
							c0,1.6611328,0.1367188,3.0273438,0.4741211,3.9785156c-3.3706055,0.4794922-6.8447266,3.7646484-8.496582,7.6113281
							c-1.0585938,2.4492188-1.3452148,3.7509766-3.5102539,4.6743164c1.2124023,2.9960938,3.9091797,4.5185547,6.4663086,4.6142578
							c-1.6108398,1.8300781-0.6699219,5.8388672,0.5175781,6.0146484c1.559082-1.4316406,3.2231445-1.7509766,5.0185547-1.7509766
							c4.1425781,0,6.3789063,1.4697266,10.3964844,1.4697266c7.644043,0,12.5170898-2.5996094,16.2119141-5.8457031
							c1.6816406,0.8056641,4.1425781,1.2412109,5.2890625,1.2412109c2.2558594,0,4.1855469-0.8535156,5.1660156-2.2128906
							c-0.7753906-1.0263672-1.7265625-3.5449219-1.0546875-5.3833008c0.9316406,0.7587891,2.671875,1.3154297,4.015625,1.0224609
							c-0.2890625-3.1220703,0.4980469-5.8623047,1.4042969-7.0615234c1.03125-1.3740234,1.6875-3.1396484,1.9277344-4.3203125
							h3.7675781C274.3237305,137.9404297,273.7416992,136.6708984,273.9624023,135.0048828z M248.5,109.3984375
							c0,0-0.3989258-0.6748047-0.8139648-1.0644531c-0.1791992,0.4921875-0.8945313,1.2119141-1.6162109,1.2119141
							c-1.0385742,0-1.6938477-0.9433594-1.6938477-1.7939453c0-0.3945313,0.1943359-1.0185547,0.5014648-1.3691406
							c1.2387695,0.1142578,2.8916016,0.7998047,4.1635742,2.5859375C249.0375977,108.9619141,248.5,109.3984375,248.5,109.3984375z
							"/>
					</g>
				</g>
			</g>
			<path fill="#FFFFFF" d="M245.0356445,107.0253906L245.0356445,107.0253906 M244.847168,107.8076172
				c0,0.6123047,0.4306641,1.2666016,1.2128906,1.2666016c0.6025391,0,1.1196289-0.6660156,1.2475586-1.015625
				c-0.4311523-0.4658203-1.3447266-1.0263672-2.230957-1.1113281
				C244.9174805,107.1533203,244.847168,107.5244141,244.847168,107.8076172z"/>
			<path fill="#FFFFFF" d="M250.3144531,120.0019531c-0.612793-0.0898438-1.3339844-0.1621094-3.0009766-0.1621094
				c-2.0629883,0-3.9458008,0.6611328-5.3789063,1.0800781c-1.4365234,0.4199219-2.2397461,0.7431641-4.2602539,0.7431641
				c-3.956543,0-5.5-1.9765625-5.5-3.5693359c0-1.046875,0.362793-1.8876953,1.0581055-2.7529297
				c-0.3266602-0.2705078-0.7763672-0.3808594-1.2080078-0.3808594c-1.3608398,0-2.925293,1.1708984-2.925293,3.5234375
				c0,3.6103516,3.2939453,5.28125,6.5380859,5.28125c2.972168,0,5.8066406-1.2646484,7.0688477-1.7197266
				c1.2661133-0.4511719,3.0361328-0.8652344,4.1411133-0.8652344c1.9804688,0,2.7011719,0.1484375,3.5805664,0.3583984
				c0.0161133-0.0947266,0.0361328-0.2744141,0.0361328-0.4287109
				C250.4638672,120.6259766,250.3974609,120.3037109,250.3144531,120.0019531"/>
			<path fill="#EFCF4D" d="M206.3789063,108.5556641c0.671875,0,1.1879883,0.0283203,1.6777344,0.1728516
				c-0.527832-1.3994141-1.4326172-2.2421875-2.980957-2.2421875c-1.5039063,0-2.3642578,0.6025391-2.8364258,1.3613281
				c0.9624023,0.5341797,1.4697266,0.9541016,1.8642578,1.6044922
				C204.737793,108.8017578,205.6030273,108.5556641,206.3789063,108.5556641"/>
			<path fill="#EFCF4D" d="M200.4550781,109.6337891c-0.6025391-0.9941406-1.4941406-1.3974609-2.644043-1.3974609
				c-1.7241211,0-2.7890625,1.4726563-2.9609375,2.9072266c0.8012695,0.0380859,1.296875,0.2041016,1.7983398,0.5136719
				C197.2993164,110.7724609,198.7407227,109.5302734,200.4550781,109.6337891"/>
			<path fill="#EFCF4D" d="M193.9467773,118.8994141c-1.3139648,0.2646484-2.4848633,1.5849609-2.4848633,3.3652344
				c0,1.4287109,0.7666016,2.5527344,1.3300781,3.2285156c0.3212891-1.3652344,1.1196289-2.2050781,1.8452148-2.5429688
				C193.9379883,122.0048828,193.4511719,120.5683594,193.9467773,118.8994141"/>
			<path fill="#EFCF4D" d="M199.5649414,128.2177734c-0.6132813,0.5175781-0.9506836,0.8496094-2.4697266,1.1601563
				c0.3266602,0.5996094,1.4575195,1.9609375,2.9394531,1.9609375c1.1318359,0,2.4008789-0.5966797,3.1777344-1.7763672
				C201.2382813,129.5839844,200.3032227,128.8808594,199.5649414,128.2177734"/>
			<path fill="#EFCF4D" d="M191.6875,167.1459961c-1.0141602,0.3691406-1.5053711,1.2910156-1.5053711,2.2333984
				c0,1.2763672,0.7119141,2.2900391,1.7763672,3.2216797c0.3374023-1.3730469,1.1147461-1.9667969,1.5849609-2.2441406
				C193.8774414,169.3793945,193.2583008,167.3852539,191.6875,167.1459961"/>
			<path fill="#EFCF4D" d="M195.2016602,157.5610352c-0.2670898-0.0634766-0.7006836-0.1533203-1.2236328-0.1533203
				c-1.8349609,0-2.9365234,1.2626953-3.5390625,2.6787109c1.0029297-0.0478516,1.7089844,0.1025391,2.2607422,0.3935547
				C192.8022461,159.6225586,193.6206055,158.2680664,195.2016602,157.5610352"/>
			<path fill="#EFCF4D" d="M198.2900391,173.9868164c-1.0532227,0-1.4003906,0.8994141-1.5292969,1.2021484
				c-0.1484375,1.3203125,1.2802734,2.7578125,2.8291016,2.6865234c-0.0751953-0.8251953,0.0825195-1.7255859,0.3227539-2.3466797
				C199.605957,174.6118164,199.0478516,173.9868164,198.2900391,173.9868164"/>
			<path fill="#EFCF4D" d="M207.2080078,170.1430664c-1.4472656,0-1.3398438,1.4726563-1.293457,2.3242188
				c0.1787109,0.53125,0.690918,1.3222656,1.1650391,1.8603516c1.4746094-1.0439453,1.7050781-1.6523438,1.9135742-2.5712891
				C208.6655273,170.6938477,208.0566406,170.1430664,207.2080078,170.1430664"/>
			<path fill="#EFCF4D" d="M215.7827148,199.590332c-0.2573242-0.2041016-0.7070313-0.4492188-1.5341797-0.4492188
				c-1.8115234,0-2.7841797,1.5820313-2.9169922,3.1083984c0.5366211-0.0927734,1.5302734-0.1113281,2.0878906,0.1269531
				C213.4091797,200.9624023,214.4165039,200.1186523,215.7827148,199.590332"/>
			<path fill="#EFCF4D" d="M208.784668,205.6049805c-1.0019531,0.1757813-2.5996094,1.3232422-2.5996094,3.2714844
				c0,1.4345703,0.6401367,2.4892578,1.2592773,3.2451172c0.4741211-1.1992188,1.1098633-1.6347656,1.6777344-2.0439453
				C208.1943359,208.7670898,208.0302734,206.7729492,208.784668,205.6049805"/>
			<path fill="#EFCF4D" d="M215.8857422,214.0561523c-1.3061523,0-1.9599609,1.0761719-2.09375,1.5761719
				c-0.0268555,1.1816406,1.1362305,2.4091797,2.0424805,2.9023438c0.6889648-0.4960938,1.2568359-1.4384766,1.4873047-1.9384766
				C217.6704102,215.6958008,217.3530273,214.0561523,215.8857422,214.0561523"/>
			<path fill="#EFCF4D" d="M228.4399414,212.2456055c-1.1206055,0-1.8383789,1.3710938-1.8413086,1.3603516
				c0.6083984,0.6162109,0.894043,1.1787109,0.418457,2.5019531c1.6005859-0.0458984,3.3413086-1.2529297,3.1772461-2.5019531
				C230.1943359,213.605957,229.5703125,212.2456055,228.4399414,212.2456055"/>
			<path fill="#EFCF4D" d="M257.5112305,215.6987305c-0.2382813-0.1484375-0.75-0.2597656-1.2421875-0.2597656
				c-2.3945313,0-3.4472656,2.1171875-2.9121094,4.9199219c0.6054688-0.7509766,1.2363281-1.0166016,1.890625-1.1748047
				C255.0834961,217.862793,256.1674805,216.2270508,257.5112305,215.6987305"/>
			<path fill="#EFCF4D" d="M256.1401367,226.0883789c-0.3007813,0-0.7246094,0.0566406-1.1484375,0.2158203
				c-0.5683594,0.4599609-1.015625,1.1005859-1.015625,2.5390625c0,1.1357422,0.6054688,2.1972656,1.3066406,2.5136719
				c0.9375-1.4873047,1.9375-2.1835938,2.4453125-2.4541016
				C258.2084961,227.5620117,257.6264648,226.0883789,256.1401367,226.0883789"/>
			<path fill="#EFCF4D" d="M266.2573242,228.5092773c-0.7734375,0-1.3554688,0.5371094-1.890625,1.4589844
				c0.5761719,1.2402344,0.9726563,2.4648438,1.0273438,3.6269531c1.3925781-0.8691406,2.2285156-2.0361328,2.4785156-3.2294922
				C267.7866211,229.496582,267.2788086,228.5092773,266.2573242,228.5092773"/>
			<path fill="#EFCF4D" d="M276.6225586,224.1821289c0.5527344,0.2607422,1.0410156,0.6650391,1.640625,2.0712891
				c0.859375-0.1435547,2.3671875-1.5644531,2.3671875-2.890625c0-0.2783203-0.1132813-0.9599609-0.5097656-1.4589844
				c-0.4394531-0.3447266-1.2011719-0.5058594-1.7148438-0.5058594
				C277.7436523,221.3979492,276.4838867,222.4194336,276.6225586,224.1821289"/>
			<path fill="#E10000" d="M296.3979492,127.0419922c5.8808594-2.3984375,8.6757813-7.2441406,8.6757813-12.4199219
				c0-0.4150391-0.0097656-0.8007813-0.0214844-1.1748047h-4.2128906c-1.6425781,1.3681641-3.5761719,2.3789063-5.4199219,2.9941406
				c0.421875-0.796875,0.7519531-1.8144531,0.7871094-2.9941406c0.0175781-0.6259766-0.0488281-1.3017578-0.2382813-2.0214844
				c-0.734375,0.3710938-2.4765625,1.4521484-3.4902344,1.9179688c-0.0644531,0.0361328-0.1367188,0.0683594-0.21875,0.1035156
				c-2.3300781,1.0683594-8.5058594,3.8417969-7.3945313,12.4121094c-0.4082031,0.3554688-0.8515625,0.7490234-1.3222656,1.1826172
				H296.3979492"/>
			<path fill="#E10000" d="M198.6196289,123.9628906c-0.0771484,0.9306641,0.2851563,2.1162109,1.0166016,3.0791016h18.2949219
				c-1.2631836-0.8945313-2.2314453-1.6982422-2.6298828-2.2675781c-3.4433594-4.890625-6.3686523-6.7148438-6.3276367-9.3769531
				c0.0092773-0.5556641,0.2041016-1.2363281,0.394043-1.9501953h-4.5390625
				c0.0219727,0.0732422,0.046875,0.1484375,0.0620117,0.2109375c0.2143555,0.8017578,0.1123047,1.9316406-0.0249023,2.8183594
				c-0.8696289-0.9541016-1.7197266-2.0117188-2.0732422-3.0292969h-5.9765625
				c-0.0024414,0.0166016-0.0024414,0.0332031-0.0024414,0.0488281c0,1.3242188,0.9868164,1.8398438,1.8930664,2.4257813
				c0.5883789,0.3886719,1.2368164,0.8583984,1.6147461,2.2460938c-0.9916992-0.5625-1.7490234-0.7529297-2.9399414-0.7529297
				c-1.1918945,0-2.8349609,0.5654297-2.8349609,2.6445313
				C194.5463867,122.6679688,196.4643555,123.6748047,198.6196289,123.9628906"/>
			<g>
				<g>
					<g>
						<path fill="#E1393E" d="M277.7260742,122.5839844c-1.1738281-1.140625-3.0527344-3.5087891-3.6523438-5.5878906
							c-0.3027344-1.0546875-0.8535156-2.4804688-1.5546875-3.5488281h-33.9282227
							c-0.2412109,0.1845703-0.456543,0.3427734-0.6054688,0.4355469c-0.3378906,0.4462891-0.4228516,1.1835938-0.4228516,1.8173828
							c0,1.8769531,1.9477539,3.4902344,3.9677734,3.4902344c2.8813477,0,3.8989258-2.6660156,3.730957-3.8935547
							c1.5644531-0.1259766,6.0058594,1.4521484,6.0058594,6.0029297c0,2.8398438-3.1152344,3.140625-4.2045898,3.140625
							c-1.0957031,0-1.9042969-0.3359375-3.1108398-0.3359375c-1.2080078,0-1.7646484,0.4277344-1.7646484,1.2392578
							c0,0.6787109,0.4790039,1.3105469,1.1704102,1.6982422c0.4345703,0.2470703,0.9516602,0.3935547,1.4838867,0.3935547
							c0.5473633,0,0.8847656-0.1767578,1.1665039-0.3935547c0.4243164-0.3232422,0.7275391-0.7275391,1.3808594-0.7275391
							c0.4155273,0,1.0136719,0.1464844,1.3881836,0.7275391h25.8242188
							c0.0039063-1.9365234-0.1757813-3.1064453-0.4453125-3.7324219
							C275.5170898,123.234375,276.6733398,123.0458984,277.7260742,122.5839844z"/>
					</g>
				</g>
			</g>
			<path fill="#E10000" d="M242.1953125,119.7763672c-0.3676758,0.1142578-0.7055664,0.1035156-1.0107422,0.0888672
				c0.050293,0.1591797,0.1523438,0.3837891,0.2143555,0.4609375c0,0,0.7768555-0.1972656,0.7768555-0.2050781
				C242.190918,120.0488281,242.1953125,119.8769531,242.1953125,119.7763672"/>
			<path fill="#E10000" d="M242.9370117,123.3896484c-0.1416016-0.2246094-0.230957-0.3759766-0.2871094-0.5751953
				c0-0.0039063-0.652832,0.2480469-0.652832,0.2412109c-0.0517578,0.2089844-0.1083984,0.4628906,0.0258789,0.8769531
				C242.2270508,123.6318359,242.4921875,123.484375,242.9370117,123.3896484"/>
			<path fill="#E10000" d="M290.8081055,140.0605469H277.487793c-0.0136719,0.2988281-0.0234375,0.6025391-0.0234375,0.9140625
				c0,3.9736328,2.5097656,8.8359375,5.5039063,12.6791992h3.9394531c-1.3964844-1.3398438-2.3203125-3.2563477-2.3203125-5.5375977
				C284.5874023,143.4394531,287.4604492,141.4589844,290.8081055,140.0605469"/>
			<path fill="#E10000" d="M295.0073242,153.6538086c2.015625-2.5009766,7.8710938-2.3320313,7.8710938-6.5161133
				c-0.8535156,1.2636719-1.8886719,1.8447266-3.3808594,1.8447266c-1.4824219,0-3.4492188-0.9111328-5.4121094-0.9111328
				c-3.6660156,0-5.1542969,2.5893555-5.1542969,3.8706055c0,0.6259766,0.0019531,1.1875,0.0761719,1.7119141H295.0073242"/>
			<path fill="#E10000" d="M211.75,146.90625c1.4228516,0.2353516,3.4897461-0.4482422,4.0063477-2.0097656
				c1.3208008,2.2158203,1.4287109,2.9306641,1.4692383,4.0273438c0.859375-1.1816406,0.7709961-1.8544922,1.6264648-3.53125
				c0.972168-1.9326172,2.4306641-3.890625,4.1494141-5.3320313h-10.5703125
				C212.8251953,142.5839844,212.5195313,144.7792969,211.75,146.90625"/>
			<path fill="#E10000" d="M219.2563477,146.3173828c-1.0585938,2.4492188-1.3452148,3.7509766-3.5102539,4.6743164
				c0.4365234,1.0830078,1.0693359,1.9619141,1.8168945,2.6621094h46.7333984
				c-0.6054688-1.2216797-1.0683594-3.0771484-0.5390625-4.5151367c0.9316406,0.7587891,2.671875,1.3154297,4.015625,1.0224609
				c-0.2890625-3.1220703,0.4980469-5.8623047,1.4042969-7.0615234c0.7050781-0.9345703,1.2285156-2.0449219,1.5683594-3.0390625
				h-46.3525391C222.2548828,141.4638672,220.3505859,143.7636719,219.2563477,146.3173828"/>
			<path fill="#E10000" d="M301.3764648,179.5571289c3.8730469-4.7783203,2.4375-9.9912109,2.4375-12.390625
				c0-0.1679688,0.0117188-0.3271484,0.0273438-0.4912109h-4.9785156c0.8300781,1.2333984,1.3476563,2.6464844,1.3476563,4.3291016
				c0,4.2695313-2.2050781,7.6923828-5.5722656,9.2636719h10.0390625c0.3808594-0.4013672,0.8144531-0.8164063,1.3320313-1.2490234
				C304.5991211,178.2143555,302.8334961,178.4526367,301.3764648,179.5571289"/>
			<path fill="#E10000" d="M278.3745117,166.675293h-40.0400391c5.734375,4.7363281,11.5112305,6.1933594,18.7587891,6.6738281
				c6.2421875,0.4160156,9.8730469,4.0917969,10.4101563,5.9306641c-0.9765625-0.5058594-2.1972656-0.7666016-3.7558594-0.7666016
				c-1.4882813,0-2.8710938,0.6679688-4.0292969,1.7548828h26.7382813
				c-0.2480469-0.1591797-0.5039063-0.3232422-0.7558594-0.5273438c0.6132813-0.6552734,0.9296875-1.6992188,0.9296875-2.9609375
				C286.6303711,172.659668,283.1049805,169.6176758,278.3745117,166.675293"/>
			<path fill="#E10000" d="M210.6518555,168.949707c-0.0317383-0.9150391-0.1791992-1.2978516-0.6757813-1.7373047
				c0.1264648-0.140625,0.4135742-0.3447266,0.8242188-0.5371094h-18.059082
				c1.2368164,0.6142578,1.9428711,2.3828125,1.6103516,3.53125c0.1230469,0.3369141,0.7426758,0.6748047,1.4018555,0.4833984
				c-0.2045898,0.859375-0.6958008,2.6845703,0.6103516,3.7539063c0.5053711-0.9570313,1.1762695-1.28125,2.1425781-1.28125
				c0.9599609,0,1.7905273,0.9189453,2.0209961,1.5761719c0.6328125-0.1435547,1.340332-0.7519531,1.340332-1.5966797
				c0-1.6806641,0.84375-2.8066406,1.5595703-2.8486328c0.2304688,1.0292969,1.1206055,1.3642578,1.8520508,1.5996094
				c-0.1181641-1.8330078,1.105957-2.4160156,1.9082031-2.4160156c1.2695313,0,1.8168945,0.5527344,2.2988281,1.484375
				C210.2255859,170.6801758,210.6865234,169.8686523,210.6518555,168.949707"/>
			<path fill="#E10000" d="M234.4394531,167.8803711c0.543457-0.2675781,0.9213867-0.6992188,1.1821289-1.2050781h-3.4121094
				C232.9819336,167.0083008,233.6884766,167.4165039,234.4394531,167.8803711"/>
			<path fill="#E10000" d="M222.418457,166.675293h-3.7861328c0.8833008,0.4179688,1.6928711,0.9667969,2.6098633,1.5634766
				C221.7270508,167.9018555,222.1884766,167.3920898,222.418457,166.675293"/>
			<path fill="#E10000" d="M226.3520508,169.3500977c0.6538086-0.3681641,1.6044922-1.4941406,1.8676758-2.6748047h-3.949707
				C224.9506836,167.3178711,225.6098633,168.3168945,226.3520508,169.3500977"/>
			<path fill="#E10000" d="M262.5541992,177.7641602c1.3789063-0.2119141,2.5507813-0.078125,3.0039063,0.1259766
				c-1.9316406-2.2714844-5.9550781-3.5175781-8.8496094-3.6220703c-0.0097656,0,0.0117188-0.0214844-0.0253906,0.0205078
				C260.144043,175.137207,261.5913086,176.4545898,262.5541992,177.7641602"/>
			<path fill="#E10000" d="M261.4682617,178.0415039c-1.1328125-1.40625-3.0449219-2.4335938-5.3613281-3.0185547
				c-0.6015625,0.6865234-1.2695313,1.2695313-1.8886719,1.2695313c-2.4882813,0-4.1240234-0.1289063-6.4091797-0.1289063
				c-5.0654297,0-9.4541016,1.6005859-12.5712891,4.1044922h23.1894531
				C259.3276367,179.2270508,260.3725586,178.4389648,261.4682617,178.0415039"/>
			<path fill="#E10000" d="M287.3491211,196.5639648c-1.6015625,0-2.984375,0.6328125-3.6875,1.4345703
				c-2.3847656,0-4.8183594-2.0517578-5.7714844-4.7109375h-20.9238281c0.5527344,1.8017578,1.5800781,3.6162109,3.453125,5.6396484
				c3.2460938,3.4804688,4.1035156,3.9072266,4.1035156,7.3183594c1.7832031-0.5166016,2.2636719-1.3964844,2.7460938-2.5644531
				c0.0097656,1.1787109,0.2597656,2.2832031,0.6914063,3.1982422h3.7128906
				c0.4707031-0.5986328,0.9609375-1.0595703,1.5351563-1.421875c0.0195313,0.4853516,0.0117188,0.9560547-0.03125,1.421875
				h17.6132813c0.2246094-2.0195313,0.9042969-3.1982422,0.9042969-5.4042969
				C291.6948242,198.7719727,289.7788086,196.5639648,287.3491211,196.5639648"/>
			<path fill="#E10000" d="M230.2045898,193.2875977c-0.1689453,1.6005859-0.5620117,2.3544922-1.4492188,3.3349609
				c0.6044922,0.4716797,1.5361328,0.7783203,2.3286133,0.7460938c-1.3344727,3.6123047-7.4648438,4.7822266-8.9472656,4.7822266
				c-2.0771484,0-2.1333008-1.9511719-4.4824219-1.9511719c-1.5244141,0-3.4462891,0.7011719-3.4462891,2.4580078
				c0,0.7988281,0.1875,1.6748047,0.4902344,2.1708984c-0.8496094-0.4726563-1.8061523-0.5839844-2.6049805-0.5839844
				c-1.2832031,0-2.6899414,1.0859375-2.9365234,2.6347656h28.3134766c0.5043945-0.2714844,0.965332-0.5419922,1.3652344-0.8164063
				l0.4042969,0.8164063h2.284668c0.8139648-0.6240234,1.5253906-1.3974609,2.0131836-2.1572266
				c0.5117188,0.6992188,0.6894531,1.3789063,0.7875977,2.1572266h1.5385742
				c2.3642578-1.9082031,4.3754883-4.4042969,4.3754883-8.3427734c0-3.2851563-0.972168-4.0458984-1.4326172-5.2490234H230.2045898"
				/>
			<path fill="#E10000" d="M257.7124023,221.8217773c-1.9902344,1.0488281-2.2324219,2.1152344-2.0859375,3.5820313
				c2.484375-0.5,3.5039063,1.8310547,3.046875,3.3476563c1.5371094,0.3261719,2.65625-0.390625,3.4472656-1.1015625
				c0.2460938,0.7529297,0.9511719,1.4697266,1.7929688,1.6962891c0.53125-0.9208984,1.359375-1.5908203,2.3730469-1.5908203
				c1.0234375,0,1.8710938,0.3945313,2.3007813,1.8154297c1.1503906-0.25,2.5234375-2.3798828,1.8496094-3.8486328
				c1.171875-0.3183594,2.3417969-1.9892578,2.3984375-3.1445313c0.78125,1.0244141,1.8085938,1.8154297,2.9121094,1.3115234
				c-0.1132813-1.9638672,1.5410156-3.3847656,2.6445313-3.3847656c0.640625,0,1.1679688,0.0917969,1.5820313,0.3046875
				c0.1425781-0.2451172,0.2460938-0.6113281,0.2460938-1.0117188h-24.0429688
				C256.3588867,220.7319336,257.0112305,221.4135742,257.7124023,221.8217773"/>
			<path fill="#E10000" d="M250.3144531,120.0019531c-0.612793-0.0898438-1.3339844-0.1621094-3.0009766-0.1621094
				c-2.0629883,0-3.9458008,0.6611328-5.3789063,1.0800781c-1.4365234,0.4199219-2.2397461,0.7431641-4.2602539,0.7431641
				c-3.956543,0-5.5-1.9765625-5.5-3.5693359c0-1.046875,0.362793-1.8876953,1.0581055-2.7529297
				c-0.3266602-0.2705078-0.7763672-0.3808594-1.2080078-0.3808594c-1.3608398,0-2.925293,1.1708984-2.925293,3.5234375
				c0,3.6103516,3.2939453,5.28125,6.5380859,5.28125c2.972168,0,5.8066406-1.2646484,7.0688477-1.7197266
				c1.2661133-0.4511719,3.0361328-0.8652344,4.1411133-0.8652344c1.9804688,0,2.7011719,0.1484375,3.5805664,0.3583984
				c0.0161133-0.0947266,0.0361328-0.2744141,0.0361328-0.4287109
				C250.4638672,120.6259766,250.3974609,120.3037109,250.3144531,120.0019531"/>
			<path fill="#EFCF4D" d="M182.2529297,80.7695313c0-0.6035156,0.0766602-1.0839844,1.0229492-1.3349609
				c0.6342773-0.1679688,1.4287109,0.1464844,2.4316406,0.5507813c1.246582,0.5019531,2.8022461,1.1308594,4.2402344,0.7480469
				c0.5888672-0.1582031,0.8793945-0.2949219,0.9765625-0.4628906c0.097168-0.1601563,0.0664063-0.4863281-0.0913086-1.109375
				c-0.1342773-0.5244141-0.6240234-1.6767578-1.4228516-2.703125l-0.1635742-0.203125l0.1333008-0.2275391
				c1.0429688-1.8095703,1.4472656-4.3300781,0.9926758-6.1289063c-0.1635742-0.6259766-0.3276367-1.2050781-0.527832-1.3183594
				c-0.1635742-0.0996094-0.6044922,0.0048828-1.0380859,0.1181641c-1.1518555,0.3105469-2.03125,1.2431641-2.4404297,1.9453125
				l-0.0908203,0.171875c-0.3500977,0.6083984-0.7739258,1.3671875-1.7407227,1.625
				c-1.0693359,0.2822266-1.7543945-0.3681641-1.9394531-1.0917969c-0.2143555-0.8369141,0.1586914-1.6308594,0.5166016-2.4003906
				c0.3334961-0.7050781,0.6411133-1.3681641,0.480957-1.9892578c-0.0561523-0.2119141-0.0966797-0.2597656-0.1132813-0.2695313
				c-0.0234375-0.0166016-0.1411133-0.0595703-0.5859375,0.0625c-0.4003906,0.1044922-0.9985352,0.3222656-1.3779297,0.5390625
				l-0.6079102,0.3515625l0.0517578-0.7128906c0.0664063-0.734375,0.2451172-2.9697266-0.0678711-3.2324219
				c-0.0297852-0.0283203-0.1425781-0.0361328-0.4804688,0.0537109c-0.2036133,0.0498047-0.7011719,0.2871094-1.1196289,0.6171875
				l-0.3486328,0.2714844l-0.2089844-0.3916016c-0.3681641-0.6923828-1.2680664-1.7666016-2.4199219-1.8964844
				c0.234375,0.921875,4.0786133,15.9023438,4.0786133,15.9023438v0.0478516c0,4.3134766,0.8574219,5.8779297,4.1943359,7.6054688
				l1.559082,0.7714844c0.9355469-0.4091797,1.6166992-0.6708984,2.1484375-0.8681641
				C184.3916016,84.3164063,182.2529297,82.5458984,182.2529297,80.7695313"/>
			<path fill="#EFCF4D" d="M321.2612305,64.2480469l-0.2089844,0.3916016l-0.3378906-0.2714844
				c-0.421875-0.3300781-0.9179688-0.5673828-1.125-0.6171875c-0.34375-0.0898438-0.4472656-0.0820313-0.4863281-0.0537109
				c-0.3027344,0.2626953-0.1269531,2.4980469-0.0664063,3.2324219l0.0527344,0.7128906l-0.6132813-0.3515625
				c-0.3632813-0.2167969-0.9765625-0.4345703-1.375-0.5390625c-0.4394531-0.1220703-0.5507813-0.0791016-0.5859375-0.0625
				c-0.0117188,0.0097656-0.0546875,0.0576172-0.109375,0.2695313c-0.1582031,0.6210938,0.1503906,1.2841797,0.4746094,1.9892578
				c0.3671875,0.7695313,0.7402344,1.5634766,0.5253906,2.4003906c-0.1875,0.7236328-0.8691406,1.3740234-1.9433594,1.0917969
				c-0.9648438-0.2578125-1.3964844-1.0166016-1.7363281-1.6279297l-0.0976563-0.1689453
				c-0.4042969-0.7021484-1.2832031-1.6347656-2.4433594-1.9453125c-0.4316406-0.1132813-0.8691406-0.2177734-1.0351563-0.1181641
				c-0.2011719,0.1132813-0.3613281,0.6923828-0.5195313,1.3183594c-0.4589844,1.7988281-0.046875,4.3193359,0.984375,6.1289063
				l0.1328125,0.2275391l-0.1601563,0.203125c-0.7988281,1.0263672-1.2851563,2.1787109-1.4199219,2.703125
				c-0.3027344,1.1689453-0.234375,1.2734375,0.8828125,1.5722656c1.4355469,0.3828125,3-0.2460938,4.2421875-0.7480469
				c1.0039063-0.4042969,1.7929688-0.71875,2.4257813-0.5507813c0.9492188,0.2509766,1.0253906,0.7314453,1.0253906,1.3349609
				c0,1.8798828-2.3945313,3.7509766-6.7480469,5.2949219c-0.109375,0.0498047-1.9023438,0.6142578-3.6640625,1.3486328
				c-2.4296875,1.0097656-4.1503906,2.0537109-5.1425781,3.2421875l-0.28125,0.3427734l-0.2890625-0.3427734
				c-0.9335938-1.1318359-2.421875-2.0966797-4.8007813-3.0908203c-0.65625,0.3095703-1.4023438,0.6494141-2.6621094,1.2138672
				c1.4824219,0.6826172,2.3613281,1.2431641,2.3613281,2.0849609c0,1.2548828-1.0878906,1.8867188-3.2265625,1.8867188
				c-2.1367188,0-3.2128906-0.6318359-3.2128906-1.8867188c0-0.984375,1.2402344-1.6259766,2.9941406-2.4355469
				c0,0,2.1503906-0.9589844,2.8183594-1.3046875c0.6660156-0.3447266,1.8691406-0.984375,1.8691406-0.984375
				c1.0742188-0.6210938,2.3945313-1.4755859,3.9980469-3.1142578L302.0249023,82.75l0.2597656,0.2802734
				c1.5019531,1.5751953,2.8632813,2.4541016,4.0097656,3.1083984l0.8359375,0.4404297
				c0.921875-0.390625,1.6015625-0.6123047,2.1289063-0.7900391c-3.3554688-1.3896484-6.1679688-3.4150391-7.2480469-5.2236328
				c-1.125,1.8232422-4.0058594,3.8837891-7.4003906,5.2792969c-0.8574219,0.3994141-2.9023438,1.0849609-4.4960938,1.7832031
				c-2.1269531,0.9160156-4.1777344,2.3515625-5.234375,3.6816406l-0.2929688,0.3623047l-0.2890625-0.3691406
				c-1.0644531-1.3447266-2.7460938-2.5644531-4.9707031-3.6240234c-0.5898438,0.2880859-1.2128906,0.5927734-2.3496094,1.0947266
				c1.3964844,0.6738281,2.265625,1.2539063,2.265625,2.0898438c0,1.2636719-1.1152344,1.9033203-3.3085938,1.9033203
				c-2.1992188,0-3.3144531-0.6396484-3.3144531-1.9033203c0-1.0107422,1.2304688-1.5966797,3.2402344-2.4765625
				c0,0,1.8984375-0.8271484,2.5664063-1.1474609c0.6679688-0.3251953,1.8789063-0.9951172,1.8789063-0.9951172
				c1.0683594-0.6191406,2.6523438-1.625,3.9785156-3.2001953l0.28125-0.3339844l0.28125,0.3339844
				c1.3242188,1.5751953,2.9160156,2.5810547,3.9902344,3.2001953l1.0175781,0.5341797
				c1.0351563-0.4453125,1.7871094-0.7089844,2.3671875-0.9160156c-3.9882813-1.5039063-6.1738281-3.2978516-6.1738281-5.0927734
				c0-0.7382813,0.4824219-1.4824219,1.40625-1.4824219c0.6542969,0,1.3398438,0.5087891,2.2089844,1.1601563
				c1.0898438,0.8095703,2.4433594,1.8173828,3.9199219,1.8173828c1.1679688,0,1.2480469-0.0908203,1.2480469-1.2949219
				c0-0.5390625-0.1894531-1.78125-0.7089844-2.9863281l-0.1035156-0.2363281l0.1796875-0.1826172
				c1.4550781-1.4892578,2.4765625-3.8183594,2.4765625-5.6748047c0-1.5654297,0-1.5654297-1.2128906-1.5654297
				c-1.1933594,0-2.2753906,0.6738281-2.8417969,1.2539063l-0.1386719,0.1357422
				c-0.4785156,0.5019531-1.0859375,1.1308594-2.0820313,1.1308594c-1.1054688,0-1.609375-0.8085938-1.609375-1.5625
				c0-0.8583984,0.5585938-1.5351563,1.0976563-2.1894531c0.4941406-0.5908203,0.9550781-1.1591797,0.9550781-1.7939453
				c0-0.3310547,0-0.3847656-0.6171875-0.3847656c-0.4238281,0-1.0644531,0.0576172-1.4746094,0.1679688l-0.6757813,0.1816406
				l0.2285156-0.6748047c0.2441406-0.6894531,0.9707031-2.8076172,0.7304688-3.1455078
				c-0.0214844-0.0351563-0.125-0.0732422-0.4785156-0.0732422c-0.2089844,0-0.7480469,0.0947266-1.234375,0.3095703
				l-0.4042969,0.1748047l-0.1035156-0.4287109c-0.2265625-0.9111328-1.1933594-2.1494141-2.2480469-2.5566406
				c-1.0566406,0.4072266-2.015625,1.6455078-2.2402344,2.5566406l-0.1054688,0.4287109l-0.4023438-0.1748047
				c-0.4921875-0.2148438-1.0273438-0.3095703-1.2363281-0.3095703c-0.3515625,0-0.4570313,0.0380859-0.4804688,0.0732422
				c-0.2324219,0.3378906,0.4902344,2.4560547,0.7285156,3.1455078l0.2324219,0.6748047l-0.6738281-0.1816406
				c-0.4199219-0.1103516-1.0566406-0.1679688-1.4746094-0.1679688c-0.6269531,0-0.6269531,0.0537109-0.6269531,0.3847656
				c0,0.6347656,0.46875,1.203125,0.9648438,1.7939453c0.5351563,0.6542969,1.0917969,1.3310547,1.0917969,2.1894531
				c0,0.7539063-0.5039063,1.5625-1.6054688,1.5625c-1.0019531,0-1.6035156-0.6289063-2.0859375-1.1308594l-0.1367188-0.1357422
				c-0.5585938-0.5800781-1.6425781-1.2539063-2.8417969-1.2539063c-1.2050781,0-1.2050781,0-1.2050781,1.5654297
				c0,1.8564453,1.0117188,4.1855469,2.4707031,5.6748047l0.1757813,0.1826172l-0.1054688,0.2363281
				c-0.515625,1.2050781-0.7070313,2.4472656-0.7070313,2.9863281c0,1.2041016,0.0820313,1.2949219,1.25,1.2949219
				c1.4824219,0,2.8339844-1.0078125,3.9179688-1.8173828c0.8691406-0.6513672,1.5546875-1.1601563,2.2089844-1.1601563
				c0.9277344,0,1.40625,0.7441406,1.40625,1.4824219c0,1.8496094-2.3085938,3.6943359-6.5195313,5.2197266
				c-0.7128906,0.2841797-2.4765625,0.8837891-3.9277344,1.4433594c-1.7519531,0.6816406-4.0507813,2.0244141-5.0527344,3.1904297
				l-0.28125,0.3349609l-0.2734375-0.3349609c-0.9550781-1.1259766-2.4472656-2.0849609-4.8378906-3.0849609
				c-0.6601563,0.3144531-1.3867188,0.6396484-2.6660156,1.2148438c1.515625,0.6943359,2.4179688,1.2539063,2.4179688,2.1103516
				c0,1.2949219-1.0449219,1.8984375-3.296875,1.8984375c-2.25,0-3.2988281-0.6035156-3.2988281-1.8984375
				c0-1.0302734,1.2617188-1.6748047,3.0507813-2.4804688c0,0,2.0410156-0.8740234,2.8203125-1.2597656
				c0.7851563-0.3847656,1.8066406-0.984375,1.8066406-0.984375c1.0839844-0.6210938,2.4003906-1.4755859,4.0058594-3.1142578
				l0.2617188-0.2646484l0.2617188,0.2646484c1.3671875,1.3554688,2.5703125,2.2871094,4.0097656,3.1142578l0.8691406,0.4628906
				c0.9316406-0.3994141,1.6113281-0.6123047,2.1445313-0.7978516c-3.3769531-1.3828125-6.2050781-3.4199219-7.2910156-5.2333984
				c-1.1289063,1.8398438-3.9921875,3.8984375-7.3574219,5.2636719c-0.3417969,0.1582031-2.78125,0.96875-4.5410156,1.7255859
				c-2.4355469,1.0361328-4.2285156,2.2314453-5.2431641,3.5410156l-0.2836914,0.3652344l-0.2910156-0.3486328
				c-1.0722656-1.2724609-2.7036133-2.4326172-4.8286133-3.4492188c-0.5727539,0.2861328-1.2285156,0.5957031-2.3583984,1.0966797
				c1.4067383,0.6738281,2.2861328,1.2626953,2.2861328,2.0986328c0,0.8652344-0.5703125,1.9033203-3.3105469,1.9033203
				c-2.7353516,0-3.3081055-1.0380859-3.3081055-1.9033203c0-1.0107422,1.2280273-1.5966797,3.2324219-2.4765625
				c0,0,1.8217773-0.8027344,2.6767578-1.1982422c0.8549805-0.3984375,1.7705078-0.9443359,1.7705078-0.9443359
				c1.0742188-0.6191406,2.6557617-1.625,3.9799805-3.2001953l0.2866211-0.3339844l0.28125,0.3339844
				c1.324707,1.5751953,2.9047852,2.5810547,3.9829102,3.2001953l0.8886719,0.4941406
				c1.0410156-0.4472656,1.8183594-0.71875,2.3925781-0.9179688c-3.9238281-1.4951172-6.0722656-3.2685547-6.0722656-5.0507813
				c0-0.7382813,0.4882813-1.4824219,1.4160156-1.4824219c0.65625,0,1.3417969,0.5087891,2.2109375,1.1601563
				c1.0820313,0.8095703,2.4355469,1.8173828,3.9121094,1.8173828c1.1660156,0,1.2480469-0.0908203,1.2480469-1.2949219
				c0-0.5390625-0.1875-1.78125-0.7050781-2.9863281l-0.0996094-0.2363281l0.1757813-0.1826172
				c1.4589844-1.4892578,2.4726563-3.8183594,2.4726563-5.6748047c0-1.5654297,0-1.5654297-1.2070313-1.5654297
				c-1.1972656,0-2.2832031,0.6738281-2.8457031,1.2539063l-0.1328125,0.1357422
				c-0.4863281,0.5019531-1.0898438,1.1308594-2.09375,1.1308594c-1.0996094,0-1.6015625-0.8085938-1.6015625-1.5625
				c0-0.8583984,0.5585938-1.5351563,1.0957031-2.1894531c0.4921875-0.5908203,0.9511719-1.1591797,0.9511719-1.7939453
				c0-0.3310547,0-0.3847656-0.6152344-0.3847656c-0.4179688,0-1.0566406,0.0576172-1.4707031,0.1679688l-0.6757813,0.1816406
				l0.2285156-0.6748047c0.2363281-0.6894531,0.9589844-2.8076172,0.7265625-3.1455078
				c-0.0195313-0.0351563-0.1230469-0.0732422-0.4746094-0.0732422c-0.2167969,0-0.7480469,0.0947266-1.2421875,0.3095703
				l-0.3945313,0.1748047l-0.1074219-0.4287109c-0.2265625-0.9111328-1.1914063-2.1494141-2.2446289-2.5566406
				c-1.0532227,0.4072266-2.0205078,1.6455078-2.2460938,2.5566406l-0.1069336,0.4287109l-0.3994141-0.1748047
				c-0.487793-0.2148438-1.0292969-0.3095703-1.2431641-0.3095703c-0.3481445,0-0.4506836,0.0380859-0.4711914,0.0732422
				c-0.2363281,0.3378906,0.4873047,2.4560547,0.7255859,3.1455078l0.2368164,0.6748047l-0.6816406-0.1816406
				c-0.4130859-0.1103516-1.0527344-0.1679688-1.4677734-0.1679688c-0.6235352,0-0.6235352,0.0537109-0.6235352,0.3847656
				c0,0.6347656,0.4643555,1.203125,0.949707,1.7939453c0.543457,0.6542969,1.1010742,1.3310547,1.1010742,2.1894531
				c0,0.7539063-0.5009766,1.5625-1.6044922,1.5625c-1.0053711,0-1.6025391-0.6289063-2.0942383-1.1308594l-0.128418-0.1357422
				c-0.5678711-0.5800781-1.6523438-1.2539063-2.8398438-1.2539063c-1.2124023,0-1.2124023,0-1.2124023,1.5654297
				c0,1.8564453,1.0195313,4.1855469,2.4707031,5.6748047l0.1796875,0.1826172l-0.1020508,0.2363281
				c-0.5166016,1.2050781-0.706543,2.4472656-0.706543,2.9863281c0,1.2041016,0.0834961,1.2949219,1.2436523,1.2949219
				c1.4838867,0,2.8295898-1.0078125,3.9194336-1.8173828c0.8701172-0.6513672,1.5600586-1.1601563,2.215332-1.1601563
				c0.9213867,0,1.40625,0.7441406,1.40625,1.4824219c0,1.9453125-2.5527344,3.8828125-7.1875,5.453125
				c0,0-2.0771484,0.7119141-3.2587891,1.2099609c-2.3696289,0.9902344-4.1142578,2.0546875-5.1074219,3.2548828
				l-0.2900391,0.3447266L232.3930664,90.6875c-0.9365234-1.1552734-2.4448242-2.1289063-4.859375-3.1396484
				c-0.6298828,0.3154297-1.2988281,0.6445313-2.6210938,1.2353516c1.4794922,0.6835938,2.3554688,1.2441406,2.3554688,2.0800781
				c0,1.2734375-1.0634766,1.8925781-3.2446289,1.8925781c-2.184082,0-3.2416992-0.6191406-3.2416992-1.8925781
				c0-1.0244141,1.2421875-1.6650391,2.9916992-2.4541016c0,0,2.0043945-0.8818359,2.8833008-1.2998047
				c0.8769531-0.4257813,1.8032227-0.9707031,1.8032227-0.9707031c1.0776367-0.6210938,2.3994141-1.4755859,3.9990234-3.1142578
				l0.2680664-0.2646484l0.2602539,0.2646484c1.3710938,1.3554688,2.5717773,2.2871094,4.0048828,3.1142578l0.8251953,0.4658203
				c0.9262695-0.3896484,1.6264648-0.625,2.1679688-0.8105469c-3.3710938-1.3847656-6.1850586-3.4150391-7.2641602-5.2285156
				c-1.140625,1.8544922-4.0117188,3.9130859-7.3935547,5.2851563c-1.1044922,0.4560547-2.3066406,0.7978516-4.5625,1.7285156
				c-2.2617188,0.9384766-4.1943359,2.234375-5.2070313,3.5478516l-0.2763672,0.3613281l-0.3017578-0.3466797
				c-1.0395508-1.2353516-2.7124023-2.3935547-4.9418945-3.4404297c-0.5786133,0.2822266-1.2246094,0.5869141-2.3486328,1.0917969
				c1.3701172,0.6640625,2.2353516,1.2382813,2.2353516,2.0703125c0,1.2949219-1.0444336,1.8984375-3.2788086,1.8984375
				c-2.2304688,0-3.2744141-0.6035156-3.2744141-1.8984375c0-0.9892578,1.2075195-1.5849609,3.2016602-2.4599609
				c0,0,1.9907227-0.859375,2.559082-1.1308594c0.5678711-0.2734375,1.918457-1.0283203,1.918457-1.0283203
				c1.0751953-0.6191406,2.6557617-1.625,3.9848633-3.2001953l0.2817383-0.3339844l0.28125,0.3339844
				c1.3237305,1.5751953,2.9047852,2.5810547,3.984375,3.2001953l0.9326172,0.5078125
				c1.0375977-0.4501953,1.8139648-0.7128906,2.3984375-0.9121094c-3.9599609-1.4960938-6.1191406-3.2802734-6.1191406-5.0703125
				c0-0.7382813,0.4868164-1.4824219,1.4130859-1.4824219c0.6484375,0,1.340332,0.5087891,2.2094727,1.1601563
				c1.0839844,0.8095703,2.4296875,1.8173828,3.9130859,1.8173828c1.1728516,0,1.2490234-0.0908203,1.2490234-1.2949219
				c0-0.5390625-0.1899414-1.78125-0.7070313-2.9863281l-0.1069336-0.2363281l0.1850586-0.1826172
				c1.4580078-1.4892578,2.4702148-3.8183594,2.4702148-5.6748047c0-1.5654297,0-1.5654297-1.2138672-1.5654297
				c-1.1899414,0-2.2744141,0.6738281-2.8378906,1.2539063l-0.1342773,0.1357422
				c-0.4848633,0.5019531-1.0869141,1.1308594-2.0864258,1.1308594c-1.109375,0-1.605957-0.8085938-1.605957-1.5625
				c0-0.8583984,0.5576172-1.5351563,1.0942383-2.1894531c0.4873047-0.5908203,0.9570313-1.1591797,0.9570313-1.7939453
				c0-0.3310547,0-0.3847656-0.6225586-0.3847656c-0.4150391,0-1.0546875,0.0576172-1.4697266,0.1679688l-0.675293,0.1816406
				l0.2285156-0.6748047c0.2363281-0.6894531,0.9570313-2.8076172,0.7290039-3.1455078
				c-0.0214844-0.0351563-0.1230469-0.0732422-0.4760742-0.0732422c-0.215332,0-0.7539063,0.0947266-1.2436523,0.3095703
				l-0.3935547,0.1748047l-0.1074219-0.4287109c-0.2299805-0.9111328-1.1923828-2.1494141-2.2456055-2.5566406
				c-1.0541992,0.4072266-2.0151367,1.6455078-2.2416992,2.5566406l-0.1103516,0.4287109l-0.4003906-0.1748047
				c-0.487793-0.2148438-1.0234375-0.3095703-1.2333984-0.3095703c-0.3579102,0-0.4609375,0.0380859-0.4873047,0.0732422
				c-0.2304688,0.3378906,0.4960938,2.4560547,0.737793,3.1455078l0.2304688,0.6748047l-0.6748047-0.1816406
				c-0.418457-0.1103516-1.0595703-0.1679688-1.4736328-0.1679688c-0.625,0-0.625,0.0537109-0.625,0.3847656
				c0,0.6347656,0.465332,1.203125,0.9580078,1.7939453c0.5366211,0.6542969,1.1000977,1.3310547,1.1000977,2.1894531
				c0,0.7539063-0.5073242,1.5625-1.6108398,1.5625c-1,0-1.6030273-0.6289063-2.0839844-1.1308594l-0.1381836-0.1357422
				c-0.5678711-0.5800781-1.6469727-1.2539063-2.8398438-1.2539063c-1.2119141,0-1.2119141,0-1.2119141,1.5654297
				c0,1.8564453,1.0180664,4.1855469,2.4716797,5.6748047l0.184082,0.1826172l-0.1074219,0.2363281
				c-0.5170898,1.2050781-0.7075195,2.4472656-0.7075195,2.9863281c0,1.2041016,0.0830078,1.2949219,1.2495117,1.2949219
				c1.4799805,0,2.8295898-1.0078125,3.9155273-1.8173828c0.8676758-0.6513672,1.5576172-1.1601563,2.2128906-1.1601563
				c0.921875,0,1.4067383,0.7441406,1.4067383,1.4824219c0,1.8496094-2.3022461,3.6894531-6.5117188,5.2197266
				c-0.7099609,0.2802734-1.46875,0.4589844-3.3710938,1.2041016l-0.605957,0.2558594
				c-2.4335938,1.015625-4.0239258,2.0234375-5.0078125,3.1738281l-0.2817383,0.3300781l-0.2841797-0.3349609
				c-0.9619141-1.1416016-2.4814453-2.1054688-4.8974609-3.1152344c-0.6035156,0.2871094-1.2949219,0.6064453-2.527832,1.1455078
				c1.512207,0.7705078,2.3696289,1.4228516,2.3696289,2.2148438c0,0.9130859-1.0703125,1.8984375-3.4223633,1.8984375
				c-2.409668,0-3.2641602-0.9794922-3.2641602-1.8984375c0-1.140625,1.2729492-1.7753906,3.21875-2.6142578
				c0,0,2.2192383-0.9365234,2.6948242-1.1660156c0.4770508-0.2304688,1.7666016-0.9443359,1.7666016-0.9443359
				c1.1367188-0.6542969,2.4946289-1.5332031,3.9946289-3.1083984L197.96875,82.75l0.2705078,0.2744141
				c1.6030273,1.6386719,2.9208984,2.4931641,4,3.1142578l0.9331055,0.5097656
				c0.9311523-0.3984375,1.5898438-0.6503906,2.1333008-0.8378906c-3.3574219-1.3955078-6.1948242-3.4365234-7.3208008-5.2451172
				c-1.1308594,1.8974609-4.1704102,4.0400391-7.746582,5.4238281c-0.1767578,0.0703125-2.2915039,0.8134766-3.9282227,1.4794922
				c-2.4663086,1.1132813-3.4277344,2.21875-3.4277344,3.953125c0,2.2666016,1.7709961,3.4882813,3.4375,3.4882813h127.3515625
				c1.6679688,0,3.4414063-1.2216797,3.4414063-3.4882813c0-1.6992188-0.921875-2.7988281-3.28125-3.8837891
				c-0.5800781,0.2773438-1.2675781,0.5800781-2.3085938,1.0537109c1.4960938,0.6865234,2.4472656,1.2871094,2.4472656,2.2714844
				c0,1.2949219-1.0390625,1.8984375-3.2695313,1.8984375c-2.2753906,0-3.4277344-0.6416016-3.4277344-1.8984375
				c0-0.9208984,1.1640625-1.6533203,3.171875-2.609375c0,0,2.3613281-1.09375,2.921875-1.3554688
				c0.5625-0.265625,2.0390625-0.9912109,2.0390625-0.9912109c3.3417969-1.7275391,4.2070313-3.2919922,4.2070313-7.6054688
				v-0.0478516c0,0,3.8300781-14.9804688,4.0664063-15.9023438
				C322.5288086,62.4814453,321.6362305,63.5556641,321.2612305,64.2480469"/>
			<path fill="#00529F" d="M196.1069336,78.4111328c0,1.0537109,0.8388672,1.9130859,1.8676758,1.9130859
				c1.0332031,0,1.871582-0.859375,1.871582-1.9130859c0-1.0517578-0.8383789-1.9042969-1.871582-1.9042969
				C196.9458008,76.5068359,196.1069336,77.359375,196.1069336,78.4111328"/>
			<path fill="#00529F" d="M230.8535156,78.4111328c0,1.0537109,0.8383789,1.9130859,1.8735352,1.9130859
				c1.0273438,0,1.8657227-0.859375,1.8657227-1.9130859c0-1.0517578-0.8383789-1.9042969-1.8657227-1.9042969
				C231.6918945,76.5068359,230.8535156,77.359375,230.8535156,78.4111328"/>
			<path fill="#00529F" d="M265.4213867,78.4111328c0,1.0537109,0.84375,1.9130859,1.8769531,1.9130859
				s1.8710938-0.859375,1.8710938-1.9130859c0-1.0517578-0.8378906-1.9042969-1.8710938-1.9042969
				S265.4213867,77.359375,265.4213867,78.4111328"/>
			<path fill="#00529F" d="M300.1538086,78.4111328c0,1.0537109,0.8339844,1.9130859,1.8671875,1.9130859
				s1.8769531-0.859375,1.8769531-1.9130859c0-1.0517578-0.84375-1.9042969-1.8769531-1.9042969
				S300.1538086,77.359375,300.1538086,78.4111328"/>
		</g>
</svg>