<?xml version="1.0" encoding="UTF-8" standalone="no"?>
<!-- Created with Sodipodi ("http://www.sodipodi.com/") -->
<svg
   xmlns:dc="http://purl.org/dc/elements/1.1/"
   xmlns:cc="http://web.resource.org/cc/"
   xmlns:rdf="http://www.w3.org/1999/02/22-rdf-syntax-ns#"
   xmlns:svg="http://www.w3.org/2000/svg"
   xmlns="http://www.w3.org/2000/svg"
   xmlns:sodipodi="http://inkscape.sourceforge.net/DTD/sodipodi-0.dtd"
   xmlns:inkscape="http://www.inkscape.org/namespaces/inkscape"
   id="svg1350"
   sodipodi:version="0.32"
   width="300.00000pt"
   height="200.00000pt"
   sodipodi:docname="hobbits.svg"
   inkscape:version="0.42"
   sodipodi:docbase="/Users/daniel/Desktop/flags"
   inkscape:export-filename="/home/jdorje/hobbits.png"
   inkscape:export-xdpi="72.000000"
   inkscape:export-ydpi="72.000000">
  <defs
     id="defs1352">
    <defs
       id="defs5117" />
    <sodipodi:namedview
       id="namedview5116" />
  </defs>
  <sodipodi:namedview
     id="base"
     showgrid="false"
     borderlayer="top"
     bordercolor="#000000"
     borderopacity="1"
     inkscape:zoom="1.6186667"
     inkscape:cx="187.50000"
     inkscape:cy="125.00000"
     inkscape:window-width="701"
     inkscape:window-height="675"
     inkscape:window-x="42"
     inkscape:window-y="29"
     inkscape:current-layer="svg1350" />
  <rect
     style="font-size:12.000000;fill:#ffffff;fill-opacity:1.0000000;fill-rule:evenodd"
     id="rect625"
     x="0.0000000"
     y="0.0000000"
     height="250.00000"
     width="375.00000" />
  <metadata
     id="metadata17">
    <rdf:RDF>
      <cc:Work
         rdf:about="">
        <dc:format>image/svg+xml</dc:format>
        <dc:type
           rdf:resource="http://purl.org/dc/dcmitype/StillImage" />
      </cc:Work>
    </rdf:RDF>
  </metadata>
  <path
     style="fill:#c8d705;fill-opacity:1.0000000;fill-rule:evenodd;stroke:none;stroke-width:0.99999875px;stroke-linecap:butt;stroke-linejoin:miter;stroke-opacity:1.0000000"
     sodipodi:nodetypes="ccccccccccc"
     id="path11844"
     d="M 250.21007,74.056020 C 233.16214,85.033262 200.71132,118.96280 191.02380,132.17763 C 179.25429,138.26194 179.00682,122.65876 174.27428,116.19197 C 165.05955,101.68893 153.38887,88.412449 137.38176,81.911692 C 116.15432,84.211312 94.433925,93.988564 86.039502,114.68855 C 81.582646,123.10055 88.404810,133.99327 92.675192,141.07369 C 103.66498,157.06813 117.12017,171.22572 135.53993,178.64807 C 155.47650,184.98837 175.19693,182.31179 193.93779,173.09744 C 209.52080,165.58425 225.16706,136.31963 237.68506,127.91110 C 246.99675,111.29692 257.12045,101.49451 261.42257,99.549570 C 267.24106,102.31002 252.19741,83.422979 250.21007,74.056020 z " />
  <path
     style="fill:#282308;fill-opacity:1.0000000;fill-rule:evenodd;stroke:none;stroke-width:1.0000000px;stroke-linecap:butt;stroke-linejoin:miter;stroke-opacity:1.0000000"
     sodipodi:nodetypes="cccccc"
     id="path12604"
     d="M 246.75771,73.785355 C 246.75771,73.785355 293.61976,67.517176 307.40442,78.072437 C 313.59906,81.192494 319.72582,81.359012 318.15846,86.194109 C 316.59108,91.029189 310.95021,103.17657 305.73027,102.35090 C 288.86694,93.537381 264.03593,102.66733 261.21956,103.55949 C 257.36310,99.370202 250.37618,82.314880 246.75771,73.785355 z " />
  <path
     style="fill:#000000;fill-opacity:0.082352944;fill-rule:evenodd;stroke:none;stroke-width:1.0000000px;stroke-linecap:butt;stroke-linejoin:miter;stroke-opacity:1.0000000"
     sodipodi:nodetypes="cccc"
     id="path14126"
     d="M 253.31519,94.071976 C 253.31519,94.071976 261.83330,101.74940 265.89232,105.37315 C 278.17646,104.91077 300.20781,97.935635 321.19530,97.963516 C 299.57332,85.066410 266.12612,87.528083 253.31519,94.071976 z " />
  <path
     style="fill:#000000;fill-opacity:0.082352944;fill-rule:evenodd;stroke:none;stroke-width:1.0000000px;stroke-linecap:butt;stroke-linejoin:miter;stroke-opacity:1.0000000"
     sodipodi:nodetypes="ccccc"
     id="path13364"
     d="M 84.971107,125.27997 C 84.971107,125.27997 89.134644,133.92854 97.656205,132.51069 C 106.17777,131.09283 122.33836,124.12253 127.59420,120.03696 C 127.24377,131.96652 162.45213,177.48559 175.09141,179.17751 C 143.48317,182.78244 105.36036,177.05961 84.971107,125.27997 z " />
  <path
     style="fill:#000000;fill-opacity:0.082352944;fill-rule:evenodd;stroke:none;stroke-width:1.0000000px;stroke-linecap:butt;stroke-linejoin:miter;stroke-opacity:1.0000000"
     sodipodi:nodetypes="cccc"
     id="path14128"
     d="M 258.76294,96.808314 C 258.76294,96.808314 261.12514,98.808866 265.18413,102.43260 C 277.46831,101.97023 290.90747,98.291276 311.89496,98.319146 C 289.15099,88.278637 271.57385,90.264426 258.76294,96.808314 z " />
  <path
     style="fill:#000000;fill-opacity:1.0000000;fill-rule:evenodd;stroke:none;stroke-width:0.99999875px;stroke-linecap:butt;stroke-linejoin:miter;stroke-opacity:1.0000000"
     sodipodi:nodetypes="ccccccccccccccccccccccccccccccccccccccccccccccccccccc"
     id="path11822"
     d="M 289.84374,71.137844 C 274.54623,69.059865 258.07352,67.313552 243.15004,71.775401 C 240.11528,74.382465 239.50839,78.901974 235.41947,79.986614 C 221.92962,90.456560 203.62112,116.80979 189.86820,126.97385 C 178.09871,133.05815 180.44147,115.75316 175.70895,109.28635 C 168.18402,94.248011 152.63028,81.818484 136.03192,77.364416 C 114.80447,79.664044 90.584691,92.259993 82.190264,112.95997 C 77.733411,121.37197 84.717401,134.07630 88.987789,141.15672 C 99.977585,157.15115 116.39491,173.47285 134.81466,180.89521 C 154.75125,187.23550 176.78766,184.56731 195.52852,175.35298 C 211.11153,167.83976 220.22727,157.02101 227.80561,142.65251 C 237.35354,132.11829 251.53218,114.41377 259.43508,106.61776 C 265.25358,109.37821 270.69776,101.85093 277.22676,99.883739 C 287.34461,95.742901 296.85154,97.924965 306.34393,106.00168 C 312.40390,104.06057 324.40153,90.125934 319.63990,82.874703 C 312.94349,76.371213 305.13871,73.546608 296.20362,71.518353 C 294.93518,71.305400 291.11730,71.317683 289.84374,71.137844 z M 289.17481,75.366913 C 298.58070,77.117631 307.59887,77.430288 315.60459,82.889604 C 320.50921,90.589517 307.18501,103.12351 300.18718,98.783133 C 287.37957,95.490504 278.83741,93.749686 267.34201,98.556968 C 265.64319,99.385736 262.77550,100.74196 260.86107,100.79653 C 258.06742,97.862010 254.85585,91.310896 252.47433,85.333811 C 250.39656,80.119095 249.46022,76.939881 249.02513,75.569013 C 249.07383,75.173775 249.25817,74.750330 249.21483,74.369790 C 262.52263,71.285063 275.71555,73.543243 289.17481,75.366913 z M 247.86271,77.575163 C 248.60266,79.776682 247.33865,83.207470 248.87742,87.069370 C 251.05714,92.539967 255.17483,97.393212 258.19416,101.14295 C 255.89266,101.48825 253.77540,102.34101 252.48057,105.69390 C 239.17237,121.22957 226.85802,136.52297 210.84356,157.11417 C 196.04348,171.20234 167.35893,179.89913 147.70475,178.07293 C 131.78096,177.14311 119.00659,167.49393 108.78280,155.90844 C 99.881142,145.64435 90.281069,136.79240 86.155058,123.62341 C 86.777717,111.61957 95.974724,101.72513 105.48148,95.181412 C 114.99312,88.822321 126.12056,85.030286 137.47452,83.801014 C 159.09855,90.519460 173.36799,111.57029 178.43766,132.76563 C 185.88763,139.07561 195.18509,132.25891 198.98523,125.26002 C 207.03349,113.76951 226.37410,94.152373 239.03348,86.280859 C 242.44223,84.729394 245.97632,80.446962 247.86271,77.575163 z M 137.97508,85.493551 C 123.55786,87.635823 109.27238,93.923515 99.675655,105.17247 C 95.168818,110.46187 91.470976,116.56511 89.370336,123.21007 C 88.827605,126.32482 92.450773,128.06736 95.093385,127.34205 C 100.83249,126.66678 106.05307,123.93040 111.04860,121.18435 C 117.18478,117.55321 122.99051,113.40132 128.57560,108.97548 C 133.24269,105.12217 138.01703,100.68139 139.74779,94.685862 C 140.49248,91.562478 139.83750,88.112049 137.97508,85.493551 z M 145.23232,91.097428 C 139.61717,111.27024 121.93917,127.88236 95.068630,131.14031 L 95.773264,132.63494 C 128.54905,129.61225 141.94791,112.41187 146.26414,91.740731 L 145.23232,91.097428 z " />
  <path
     style="fill:#000000;fill-opacity:0.082352944;fill-rule:evenodd;stroke:none;stroke-width:1.0000000px;stroke-linecap:butt;stroke-linejoin:miter;stroke-opacity:1.0000000"
     sodipodi:nodetypes="ccccc"
     id="path14124"
     d="M 84.529603,125.15697 C 84.529603,125.15697 88.693137,133.80553 97.214697,132.38767 C 105.73627,130.96983 118.42457,126.52335 123.68042,122.43780 C 123.32998,134.36734 157.82861,178.54491 170.46788,180.23684 C 136.80844,183.21001 108.23360,173.46593 84.529603,125.15697 z " />
</svg>
