<?xml version="1.0" encoding="UTF-8" standalone="no"?>
<svg
   version="1.0"
   width="1800"
   height="1200"
   id="svg10"
   sodipodi:docname="indoeuropean.svg"
   inkscape:version="1.2.2 (b0a8486541, 2022-12-01)"
   xmlns:inkscape="http://www.inkscape.org/namespaces/inkscape"
   xmlns:sodipodi="http://sodipodi.sourceforge.net/DTD/sodipodi-0.dtd"
   xmlns="http://www.w3.org/2000/svg"
   xmlns:svg="http://www.w3.org/2000/svg"
   xmlns:rdf="http://www.w3.org/1999/02/22-rdf-syntax-ns#"
   xmlns:cc="http://creativecommons.org/ns#"
   xmlns:dc="http://purl.org/dc/elements/1.1/">
  <sodipodi:namedview
     id="namedview12"
     pagecolor="#ffffff"
     bordercolor="#000000"
     borderopacity="0.25"
     inkscape:showpageshadow="2"
     inkscape:pageopacity="0.0"
     inkscape:pagecheckerboard="0"
     inkscape:deskcolor="#d1d1d1"
     showgrid="false"
     inkscape:zoom="0.53307995"
     inkscape:cx="902.30369"
     inkscape:cy="600.2852"
     inkscape:window-width="1098"
     inkscape:window-height="839"
     inkscape:window-x="26"
     inkscape:window-y="23"
     inkscape:window-maximized="0"
     inkscape:current-layer="svg10" />
  <defs
     id="defs16" />
  <title
     id="title4">Simplified ancient Mesopotamian eight-pointed star symbol of Ishtar</title>
  <rect
     style="fill:#00aad4;fill-opacity:1"
     id="rect3877"
     width="1800"
     height="1200"
     x="0"
     y="0" />
  <circle
     sodipodi:ry="515"
     sodipodi:rx="515"
     sodipodi:cy="500"
     sodipodi:cx="512"
     d="m 1027,500 c 0,284.42665 -230.57335,515 -515,515 C 227.57335,1015 -3,784.42665 -3,500 -3,215.57335 227.57335,-15 512,-15 c 284.42665,0 515,230.57335 515,515 z"
     id="circle8"
     r="515"
     cy="500"
     cx="512"
     style="fill:#00aad4;stroke:#ffffff;stroke-width:30"
     transform="translate(398,100)" />
  <path
     inkscape:connector-curvature="0"
     id="path10"
     d="M 559.98253,950.01747 798.33592,851.28873 757.441,752.559 658.71127,711.66408 559.98253,950.01747 z m 0,-700.03494 98.72874,238.35339 L 757.441,447.441 798.33592,348.71127 559.98253,249.98253 z m 461.68157,98.72874 40.8949,98.72973 98.7297,40.89492 98.7288,-238.35339 -238.3534,98.72874 z m 0,502.57746 238.3534,98.72874 -98.7288,-238.35339 -98.7297,40.89492 -40.8949,98.72973 z M 415,600 765.01747,744.98253 910,1095 1054.9825,744.98253 1405,600 1054.9825,455.01747 910,105 765.01747,455.01747 415,600 z"
     style="fill:#d45500" />
  <circle
     sodipodi:ry="196"
     sodipodi:rx="196"
     sodipodi:cy="500"
     sodipodi:cx="512"
     d="m 708,500 c 0,108.24781 -87.75219,196 -196,196 -108.24781,0 -196,-87.75219 -196,-196 0,-108.24781 87.75219,-196 196,-196 108.24781,0 196,87.75219 196,196 z"
     id="circle12"
     r="196"
     cy="500"
     cx="512"
     style="fill:#ffffff"
     transform="translate(398,100)" />
  <path
     id="path3062"
     d="m 611.88,898.12 75.836,-183.087 75.837,31.414 31.414,75.837 z m 413.153,-75.836 31.414,-75.837 75.837,-31.414 75.836,183.087 z m 0,-444.568 183.087,-75.836 -75.836,183.087 -75.837,-31.414 z M 611.88,301.88 l 183.087,75.836 -31.414,75.837 -75.837,31.414 z M 488.393,600 786.514,476.514 910,178.393 1033.486,476.514 1331.606,600 1033.486,723.486 910,1021.606 786.514,723.486 z M 410,600 660,703.553 556.447,953.553 806.447,850 910,1100 l 103.553,-250 250,103.553 L 1160,703.553 1410,600 1160,496.447 1263.553,246.447 1013.553,350 910,100 806.447,350 l -250,-103.553 103.553,250 z"
     style="fill:#ffffff"
     inkscape:connector-curvature="0" />
  <circle
     d="M 180.5,0 C 180.5,99.687397 99.687397,180.5 0,180.5 -99.687397,180.5 -180.5,99.687397 -180.5,0 c 0,-99.687397 80.812603,-180.5 180.5,-180.5 99.687397,0 180.5,80.812603 180.5,180.5 z"
     id="circle3064"
     r="180.5"
     cy="0"
     cx="0"
     style="fill:#ffcc00;stroke:#ffffff;stroke-width:30"
     sodipodi:cx="0"
     sodipodi:cy="0"
     sodipodi:rx="180.5"
     sodipodi:ry="180.5"
     transform="matrix(1.0025576,0,0,1.0025575,910.00001,600.00001)" />
  <metadata
     id="metadata146">
    <rdf:RDF>
      <cc:Work
         rdf:about="">
        <dc:title>Simplified ancient Mesopotamian eight-pointed star symbol of Ishtar</dc:title>
      </cc:Work>
    </rdf:RDF>
  </metadata>
</svg>
