<?xml version="1.0" encoding="UTF-8" standalone="no"?>
<svg
   version="1.1"
   width="450"
   height="300"
   id="svg8"
   sodipodi:docname="katanga.svg"
   inkscape:version="1.2.2 (b0a8486541, 2022-12-01)"
   xmlns:inkscape="http://www.inkscape.org/namespaces/inkscape"
   xmlns:sodipodi="http://sodipodi.sourceforge.net/DTD/sodipodi-0.dtd"
   xmlns="http://www.w3.org/2000/svg"
   xmlns:svg="http://www.w3.org/2000/svg">
  <defs
     id="defs12" />
  <sodipodi:namedview
     id="namedview10"
     pagecolor="#ffffff"
     bordercolor="#666666"
     borderopacity="1.0"
     inkscape:showpageshadow="2"
     inkscape:pageopacity="0.0"
     inkscape:pagecheckerboard="0"
     inkscape:deskcolor="#d1d1d1"
     showgrid="false"
     inkscape:zoom="1.5733333"
     inkscape:cx="231.35593"
     inkscape:cy="147.77542"
     inkscape:window-width="834"
     inkscape:window-height="648"
     inkscape:window-x="540"
     inkscape:window-y="68"
     inkscape:window-maximized="0"
     inkscape:current-layer="svg8" />
  <rect
     width="450"
     height="300"
     id="rect4"
     x="0"
     y="0"
     style="fill:#00a200" />
  <polygon
     points="0,260 360,0 0,0 "
     id="polygon6"
     style="fill:#f00000"
     transform="scale(1.125,1)" />
  <polygon
     points="40,300 400,300 400,40 "
     id="polygon8"
     style="fill:#ffffff"
     transform="scale(1.125,1)" />
  <path
     d="m 349.27575,166.666 c -1.938,0.775 -5.586,1.465 -8.104,1.53 l -4.58,0.119 0.119,-4.58 c 0.066,-2.519 0.754,-6.166 1.529,-8.104 3.041,-7.595 0.813,-12.631 -5.584,-12.631 -6.397,0 -8.623,5.036 -5.584,12.631 0.777,1.938 1.465,5.586 1.531,8.104 l 0.119,4.58 -4.58,-0.119 c -2.52,-0.065 -6.166,-0.755 -8.105,-1.53 -7.596,-3.04 -12.631,-0.813 -12.631,5.584 0,6.397 5.035,8.624 12.631,5.584 1.939,-0.775 5.586,-1.464 8.105,-1.53 l 4.58,-0.119 -0.119,4.58 c -0.066,2.519 -0.754,6.166 -1.531,8.104 -3.039,7.596 -0.813,12.631 5.584,12.631 6.397,0 8.625,-5.035 5.584,-12.631 -0.775,-1.938 -1.463,-5.586 -1.529,-8.104 l -0.119,-4.58 4.58,0.119 c 2.518,0.066 6.166,0.755 8.104,1.53 7.596,3.04 12.631,0.813 12.631,-5.584 0,-6.397 -5.036,-8.624 -12.631,-5.584 z"
     id="path10"
     style="fill:#f00000" />
  <path
     d="m 396.46275,241.666 c -1.938,0.775 -5.586,1.465 -8.104,1.53 l -4.58,0.119 0.119,-4.58 c 0.066,-2.519 0.755,-6.166 1.53,-8.104 3.04,-7.596 0.813,-12.631 -5.584,-12.631 -6.397,0 -8.623,5.035 -5.584,12.631 0.776,1.938 1.465,5.586 1.53,8.104 l 0.119,4.58 -4.58,-0.119 c -2.519,-0.065 -6.166,-0.755 -8.104,-1.53 -7.596,-3.04 -12.631,-0.813 -12.631,5.584 0,6.397 5.035,8.624 12.631,5.584 1.938,-0.775 5.586,-1.464 8.104,-1.53 l 4.58,-0.119 -0.119,4.58 c -0.065,2.519 -0.754,6.166 -1.53,8.104 -3.039,7.596 -0.813,12.631 5.584,12.631 6.396,0 8.624,-5.035 5.584,-12.631 -0.775,-1.938 -1.464,-5.586 -1.53,-8.104 l -0.119,-4.58 4.58,0.119 c 2.519,0.066 6.166,0.755 8.104,1.53 7.596,3.04 12.631,0.813 12.631,-5.584 0,-6.397 -5.035,-8.624 -12.631,-5.584 z"
     id="path12"
     style="fill:#f00000" />
  <path
     d="m 302.08775,241.666 c -1.938,0.775 -5.586,1.465 -8.104,1.53 l -4.58,0.119 0.119,-4.58 c 0.066,-2.519 0.755,-6.166 1.53,-8.104 3.04,-7.596 0.812,-12.631 -5.584,-12.631 -6.397,0 -8.623,5.035 -5.584,12.631 0.776,1.938 1.465,5.586 1.53,8.104 l 0.119,4.58 -4.58,-0.119 c -2.519,-0.065 -6.166,-0.755 -8.104,-1.53 -7.596,-3.04 -12.631,-0.813 -12.631,5.584 0,6.397 5.035,8.624 12.631,5.584 1.938,-0.775 5.586,-1.464 8.104,-1.53 l 4.58,-0.119 -0.119,4.58 c -0.065,2.519 -0.754,6.166 -1.53,8.104 -3.039,7.596 -0.813,12.631 5.584,12.631 6.396,0 8.624,-5.035 5.584,-12.631 -0.775,-1.938 -1.464,-5.586 -1.53,-8.104 l -0.119,-4.58 4.58,0.119 c 2.519,0.066 6.166,0.755 8.104,1.53 7.596,3.04 12.631,0.813 12.631,-5.584 0,-6.397 -5.035,-8.624 -12.631,-5.584 z"
     id="path14"
     style="fill:#f00000" />
</svg>
