<?xml version="1.0" encoding="UTF-8" standalone="no"?>
<svg
   xmlns:dc="http://purl.org/dc/elements/1.1/"
   xmlns:cc="http://creativecommons.org/ns#"
   xmlns:rdf="http://www.w3.org/1999/02/22-rdf-syntax-ns#"
   xmlns:svg="http://www.w3.org/2000/svg"
   xmlns="http://www.w3.org/2000/svg"
   xmlns:sodipodi="http://sodipodi.sourceforge.net/DTD/sodipodi-0.dtd"
   xmlns:inkscape="http://www.inkscape.org/namespaces/inkscape"
   id="svg548"
   sodipodi:version="0.32"
   width="729.91998"
   height="486.61002"
   sodipodi:docname="kenya.svg"
   inkscape:version="1.0.2 (e86c870879, 2021-01-15)"
   version="1.1">
  <metadata
     id="metadata4107">
    <rdf:RDF>
      <cc:Work
         rdf:about="">
        <dc:format>image/svg+xml</dc:format>
        <dc:type
           rdf:resource="http://purl.org/dc/dcmitype/StillImage" />
      </cc:Work>
    </rdf:RDF>
  </metadata>
  <defs
     id="defs550" />
  <sodipodi:namedview
     id="base"
     inkscape:zoom="0.69346032"
     inkscape:cx="395.28248"
     inkscape:cy="232.928"
     inkscape:window-width="890"
     inkscape:window-height="687"
     inkscape:window-x="31"
     inkscape:window-y="64"
     inkscape:current-layer="svg548"
     inkscape:document-rotation="0"
     showgrid="false"
     inkscape:window-maximized="0" />
  <rect
     y="0"
     x="0"
     height="486.60999"
     width="729.91998"
     id="rect551"
     style="font-size:12px;fill:#ffffff;fill-opacity:1;fill-rule:evenodd;stroke:none;stroke-width:2.1813;stroke-dasharray:none;stroke-opacity:1" />
  <rect
     y="345.69977"
     x="0"
     height="140.91023"
     width="729.91998"
     id="rect552"
     style="font-size:12px;fill:#008900;fill-opacity:1;fill-rule:evenodd;stroke-width:1pt" />
  <rect
     y="174.72852"
     x="0"
     height="140.91023"
     width="729.91998"
     id="rect553"
     style="font-size:12px;fill:#c23743;fill-opacity:1;fill-rule:evenodd;stroke-width:1pt" />
  <rect
     y="1.5125274e-05"
     x="0"
     height="148.42531"
     width="729.91998"
     id="rect554"
     style="font-size:12px;fill:#000000;fill-opacity:1;fill-rule:evenodd;stroke-width:1pt" />
  <g
     id="g4850"
     transform="translate(3.958874,0.0914852)">
    <path
       style="fill:#ffffff;fill-opacity:1;fill-rule:evenodd;stroke:#000000;stroke-width:1.03763;stroke-linecap:butt;stroke-linejoin:miter;stroke-dasharray:none;stroke-opacity:1"
       d="m 269.58744,421.99799 c 36.45222,-67.84478 158.65297,-292.5667 157.4473,-293.2145 -19.98447,-11.72914 16.15275,-29.746617 42.69264,-71.993396 -18.90735,45.405336 -16.90164,87.780536 -36.31252,75.581856 -32.28312,60.93315 -132.07343,247.18918 -156.88568,293.19116 -2.62719,-1.41156 -3.39942,-1.98695 -6.94174,-3.56512 z"
       id="path565"
       sodipodi:nodetypes="cccccc" />
    <path
       style="fill:#ffffff;fill-opacity:1;fill-rule:evenodd;stroke:#000000;stroke-width:1.03763;stroke-linecap:butt;stroke-linejoin:miter;stroke-dasharray:none;stroke-opacity:1"
       d="m 452.41988,424.66099 c -36.45222,-67.84478 -158.65297,-292.5667 -157.4473,-293.2145 19.98447,-11.72914 -16.15275,-29.74662 -42.69264,-71.993396 18.90735,45.405336 16.90164,87.780536 36.31252,75.581856 32.28312,60.93315 132.07343,247.18918 156.88568,293.19116 2.62719,-1.41156 3.39942,-1.98695 6.94174,-3.56512 z"
       id="path568"
       sodipodi:nodetypes="cccccc" />
    <path
       style="fill:#c23743;fill-opacity:1;fill-rule:evenodd;stroke:#000000;stroke-width:1.09065;stroke-linecap:butt;stroke-linejoin:miter;stroke-dasharray:none;stroke-opacity:1"
       d="m 359.77238,85.063883 c 114.84977,80.961107 112.96512,276.766157 0,344.549307 -105.43528,-71.54662 -120.49788,-265.47285 0,-344.549307 z"
       id="path555"
       sodipodi:nodetypes="ccc" />
    <ellipse
       style="fill:#fffffb;fill-opacity:1;fill-rule:evenodd;stroke:none;stroke-width:1pt;stroke-linecap:butt;stroke-linejoin:miter;stroke-opacity:1"
       id="path557"
       transform="matrix(2.908399,0,0,2.908399,-671.9842,-1185.112)"
       cx="355.07428"
       cy="494.66577"
       rx="4.8551788"
       ry="7.4445949" />
    <path
       style="fill:#ffffff;fill-opacity:1;fill-rule:evenodd;stroke:#000000;stroke-width:0.359271;stroke-linecap:butt;stroke-linejoin:miter;stroke-dasharray:none;stroke-opacity:1"
       d="m 359.05197,92.595408 c 32.29347,31.243942 31.76355,106.807662 0,132.966062 -29.6463,-27.61077 -33.88161,-102.44943 0,-132.966062 z"
       id="path558"
       sodipodi:nodetypes="ccc" />
    <path
       style="fill:#ffffff;fill-opacity:1;fill-rule:evenodd;stroke:#000000;stroke-width:0.359271;stroke-linecap:butt;stroke-linejoin:miter;stroke-dasharray:none;stroke-opacity:1"
       d="m 359.05197,288.40331 c 32.29347,31.24394 31.76355,106.80766 0,132.96606 -29.6463,-27.61077 -33.88161,-102.44943 0,-132.96606 z"
       id="path559"
       sodipodi:nodetypes="ccc" />
    <rect
       style="font-size:12px;fill:#c23743;fill-opacity:1;fill-rule:evenodd;stroke-width:1pt"
       id="rect560"
       width="13.179393"
       height="135.55927"
       x="352.24094"
       y="92.596878" />
    <rect
       style="font-size:12px;fill:#c23743;fill-opacity:1;fill-rule:evenodd;stroke-width:1pt"
       id="rect561"
       width="13.179393"
       height="135.55927"
       x="354.12366"
       y="286.52164" />
    <path
       style="fill:#000000;fill-opacity:1;fill-rule:evenodd;stroke:#000000;stroke-width:0.302378;stroke-linecap:butt;stroke-linejoin:miter;stroke-dasharray:none;stroke-opacity:1"
       d="m 289.42425,177.31974 c 19.59259,36.47922 19.27108,124.70449 0,155.24603 -17.98653,-32.23727 -20.55611,-119.61599 0,-155.24603 z"
       id="path562"
       sodipodi:nodetypes="ccc" />
    <path
       style="fill:#000000;fill-opacity:1;fill-rule:evenodd;stroke:#000000;stroke-width:0.302378;stroke-linecap:butt;stroke-linejoin:miter;stroke-dasharray:none;stroke-opacity:1"
       d="m 432.51455,179.20234 c 19.59259,36.47922 19.27108,124.70449 0,155.24603 -17.98653,-32.23727 -20.55611,-119.61599 0,-155.24603 z"
       id="path563"
       sodipodi:nodetypes="ccc" />
  </g>
</svg>
