<?xml version="1.0" encoding="UTF-8" standalone="no"?>
<svg
   width="900"
   height="600"
   version="1.1"
   id="svg14"
   sodipodi:docname="khoisan.svg"
   inkscape:version="1.2.2 (b0a8486541, 2022-12-01)"
   xmlns:inkscape="http://www.inkscape.org/namespaces/inkscape"
   xmlns:sodipodi="http://sodipodi.sourceforge.net/DTD/sodipodi-0.dtd"
   xmlns="http://www.w3.org/2000/svg"
   xmlns:svg="http://www.w3.org/2000/svg">
  <defs
     id="defs18" />
  <sodipodi:namedview
     id="namedview16"
     pagecolor="#ffffff"
     bordercolor="#000000"
     borderopacity="0.25"
     inkscape:showpageshadow="2"
     inkscape:pageopacity="0.0"
     inkscape:pagecheckerboard="0"
     inkscape:deskcolor="#d1d1d1"
     showgrid="false"
     inkscape:zoom="1.5077778"
     inkscape:cx="447.34709"
     inkscape:cy="302.43183"
     inkscape:window-width="1551"
     inkscape:window-height="1137"
     inkscape:window-x="26"
     inkscape:window-y="23"
     inkscape:window-maximized="0"
     inkscape:current-layer="svg14" />
  <clipPath
     id="r">
    <rect
       width="900"
       height="600"
       id="rect5" />
  </clipPath>
  <rect
     style="fill:#003580;fill-opacity:1;stroke:none"
     id="rect2997"
     width="900"
     height="600"
     x="0"
     y="-2.8610229e-05" />
  <rect
     style="fill:#d21034;fill-opacity:1;stroke:none"
     id="rect2997-2"
     width="600"
     height="300"
     x="300"
     y="300" />
  <rect
     style="fill:#009543;fill-opacity:1;stroke:none"
     id="rect2997-2-9"
     width="300"
     height="300"
     x="0"
     y="300" />
  <path
     style="fill:#000000;fill-opacity:1;stroke:none"
     d="m 300,600 0,-300 50,0 0,75 100,-50 0,75 -100,50 0,75 100,-50 0,75 -100,50"
     id="path3807"
     inkscape:connector-curvature="0"
     sodipodi:nodetypes="ccccccccccc" />
  <path
     style="fill:#f9f9f9;fill-opacity:1;stroke:none"
     d="m 300,600 0,-300 -50,0 0,75 -100,-50 0,75 100,50 0,75 -100,-50 0,75 100,50"
     id="path3807-9"
     inkscape:connector-curvature="0"
     sodipodi:nodetypes="ccccccccccc" />
  <path
     style="fill:#000000;fill-opacity:1;stroke:none"
     d="m 300,300 0,-300 -50,0 0,75 -100,-50 0,75 100,50 0,75 -100,-50 0,75 100,50"
     id="path3807-4"
     inkscape:connector-curvature="0"
     sodipodi:nodetypes="ccccccccccc" />
  <path
     style="fill:#f9f9f9;fill-opacity:1;stroke:none"
     d="m 300,300 0,-300 50,0 0,75 100,-50 0,75 -100,50 0,75 100,-50 0,75 -100,50"
     id="path3807-9-4"
     inkscape:connector-curvature="0"
     sodipodi:nodetypes="ccccccccccc" />
  <path
     d="M 736.60255,350.00001 692.42641,342.42643 700,386.60254 665.52915,357.95556 650.00001,400 l -15.52914,-42.04444 -34.47086,28.64698 7.57359,-44.17611 -44.17614,7.57358 28.647,-34.47084 L 550,300.00004 l 42.04446,-15.52914 -28.647,-34.47085 44.17614,7.5736 -7.57359,-44.17613 34.47086,28.64699 15.52914,-42.04443 15.52914,42.04443 L 700,213.39752 l -7.57359,44.17613 44.17614,-7.5736 -28.64699,34.47085 42.04444,15.52914 -42.04444,15.52913 28.64699,34.47084 z"
     id="star"
     inkscape:connector-curvature="0"
     style="fill:#ffce00" />
  <path
     d="m 710.00005,299.99997 a 60.000015,59.999994 0 0 1 -120.00003,0 60.000015,59.999994 0 1 1 120.00003,0 z"
     id="blue_gap"
     inkscape:connector-curvature="0"
     style="fill:#003580" />
  <path
     d="m 700.00008,299.99995 a 50.00003,50.000012 0 1 1 -100.00005,0 50.00003,50.000012 0 1 1 100.00005,0 z"
     id="yellow_circle"
     inkscape:connector-curvature="0"
     style="fill:#ffce00" />
</svg>
