<?xml version="1.0" encoding="UTF-8" standalone="no"?>
<!-- Created with Sodipodi ("http://www.sodipodi.com/") -->
<svg
   xmlns:dc="http://purl.org/dc/elements/1.1/"
   xmlns:cc="http://web.resource.org/cc/"
   xmlns:rdf="http://www.w3.org/1999/02/22-rdf-syntax-ns#"
   xmlns:svg="http://www.w3.org/2000/svg"
   xmlns="http://www.w3.org/2000/svg"
   xmlns:sodipodi="http://inkscape.sourceforge.net/DTD/sodipodi-0.dtd"
   xmlns:inkscape="http://www.inkscape.org/namespaces/inkscape"
   version="1"
   x="0"
   y="0"
   width="892.92000pt"
   height="210mm"
   id="svg378"
   sodipodi:version="0.32"
   sodipodi:docname="korea.svg"
   sodipodi:docbase="/Users/daniel/Desktop"
   inkscape:version="0.42">
  <metadata
     id="metadata28">
    <rdf:RDF>
      <cc:Work
         rdf:about="">
        <dc:format>image/svg+xml</dc:format>
        <dc:type
           rdf:resource="http://purl.org/dc/dcmitype/StillImage" />
      </cc:Work>
    </rdf:RDF>
  </metadata>
  <sodipodi:namedview
     id="base"
     inkscape:zoom="0.46230688"
     inkscape:cx="531.49426"
     inkscape:cy="372.04724"
     inkscape:window-width="701"
     inkscape:window-height="507"
     inkscape:window-x="20"
     inkscape:window-y="42"
     inkscape:current-layer="svg378" />
  <defs
     id="defs380" />
  <rect
     width="1114.8383"
     height="744.03833"
     x="-1115.4941"
     y="-743.43866"
     style="font-size:12.000000px;fill:#ffffff;fill-rule:evenodd;stroke:#000000;stroke-width:1.0493533pt"
     id="rect149"
     transform="scale(-1.000000,-1.000000)" />
  <path
     sodipodi:type="arc"
     style="fill:#ffffff;fill-opacity:1.0000000;fill-rule:evenodd;stroke:none;stroke-width:1.0000000pt;stroke-linecap:butt;stroke-linejoin:miter;stroke-opacity:1.0000000"
     id="path607"
     d="M 495.86229 1147.9642 A 163.79161 163.79163 0 1 1  168.27907,1147.9642 A 163.79161 163.79163 0 1 1  495.86229 1147.9642 z"
     sodipodi:cx="332.07068"
     sodipodi:cy="1147.9642"
     sodipodi:rx="163.79161"
     sodipodi:ry="163.79163"
     transform="translate(70.43583,-775.9170)" />
  <path
     sodipodi:type="arc"
     style="fill:#f30018;fill-opacity:1.0000000;fill-rule:evenodd;stroke:none;stroke-width:1.0000000pt;stroke-linecap:butt;stroke-linejoin:miter;stroke-opacity:1.0000000"
     id="path635"
     d="M 733.69666 381.73358 A 227.73764 227.73766 0 1 1  278.22137,381.73358 A 227.73764 227.73766 0 1 1  733.69666 381.73358 z"
     sodipodi:cx="505.95901"
     sodipodi:cy="381.73358"
     sodipodi:rx="227.73764"
     sodipodi:ry="227.73766"
     transform="matrix(0.928572,0.000000,0.000000,0.938424,90.47286,23.35527)" />
  <rect
     style="font-size:12.000000px;fill:#000000;fill-opacity:1.0000000;fill-rule:evenodd;stroke-width:1.0000000pt"
     id="rect636"
     width="186.22890"
     height="38.143242"
     x="-55.260509"
     y="216.55026"
     transform="matrix(0.654009,-0.756487,0.756487,0.654009,0.000000,0.000000)" />
  <rect
     style="font-size:12.000000px;fill:#000000;fill-opacity:1.0000000;fill-rule:evenodd;stroke-width:1.0000000pt"
     id="rect637"
     width="186.22890"
     height="38.143242"
     x="-55.260509"
     y="269.27780"
     transform="matrix(0.654009,-0.756487,0.756487,0.654009,0.000000,0.000000)" />
  <rect
     style="font-size:12.000000px;fill:#000000;fill-opacity:1.0000000;fill-rule:evenodd;stroke-width:1.0000000pt"
     id="rect638"
     width="186.22890"
     height="38.143242"
     x="-55.260509"
     y="216.55026"
     transform="matrix(0.654009,-0.756487,0.756487,0.654009,0.000000,0.000000)" />
  <rect
     style="font-size:12.000000px;fill:#000000;fill-opacity:1.0000000;fill-rule:evenodd;stroke-width:1.0000000pt"
     id="rect639"
     width="186.22890"
     height="38.143242"
     x="-55.260509"
     y="216.55026"
     transform="matrix(0.654009,-0.756487,0.756487,0.654009,0.000000,0.000000)" />
  <rect
     style="font-size:12.000000px;fill:#000000;fill-opacity:1.0000000;fill-rule:evenodd;stroke-width:1.0000000pt"
     id="rect640"
     width="186.22890"
     height="38.143242"
     x="-55.260509"
     y="323.12717"
     transform="matrix(0.654009,-0.756487,0.756487,0.654009,0.000000,0.000000)" />
  <rect
     style="font-size:12.000000px;fill:#000000;fill-opacity:1.0000000;fill-rule:evenodd;stroke-width:1.0000000pt"
     id="rect641"
     width="186.22890"
     height="38.143242"
     x="-55.260509"
     y="216.55026"
     transform="matrix(0.654009,-0.756487,0.756487,0.654009,0.000000,0.000000)" />
  <rect
     style="font-size:12.000000px;fill:#000000;fill-opacity:1.0000000;fill-rule:evenodd;stroke-width:1.0000000pt"
     id="rect643"
     width="186.22890"
     height="38.143242"
     x="-55.260509"
     y="216.55026"
     transform="matrix(0.654009,-0.756487,0.756487,0.654009,0.000000,0.000000)" />
  <rect
     style="font-size:12.000000px;fill:#000000;fill-opacity:1.0000000;fill-rule:evenodd;stroke-width:1.0000000pt"
     id="rect644"
     width="186.22911"
     height="38.143284"
     x="595.84625"
     y="-633.21686"
     transform="matrix(0.648864,0.760905,-0.760905,0.648864,0.000000,0.000000)" />
  <rect
     style="font-size:12.000000px;fill:#000000;fill-opacity:1.0000000;fill-rule:evenodd;stroke-width:1.0000000pt"
     id="rect645"
     width="186.22911"
     height="38.143284"
     x="595.84625"
     y="-526.63983"
     transform="matrix(0.648864,0.760905,-0.760905,0.648864,0.000000,0.000000)" />
  <path
     style="fill:#ffffff;fill-opacity:1.0000000;fill-rule:evenodd;stroke:none;stroke-width:1.0000000pt;stroke-linecap:butt;stroke-linejoin:miter;stroke-opacity:1.0000000"
     d="M 807.49841,193.26100 L 921.92841,94.537100 L 943.24341,119.21800 L 820.96041,229.16000 L 807.49841,193.26100 z "
     id="path649" />
  <rect
     style="font-size:12.000000px;fill:#000000;fill-opacity:1.0000000;fill-rule:evenodd;stroke-width:1.0000000pt"
     id="rect646"
     width="182.12894"
     height="37.332832"
     x="-190.50000"
     y="-1074.0958"
     transform="matrix(-0.642816,0.766021,-0.768811,-0.639476,0.000000,0.000000)" />
  <rect
     style="font-size:12.000000px;fill:#000000;fill-opacity:1.0000000;fill-rule:evenodd;stroke-width:1.0000000pt"
     id="rect642"
     width="186.22911"
     height="38.143284"
     x="595.84625"
     y="-580.48932"
     transform="matrix(0.648864,0.760905,-0.760905,0.648864,0.000000,0.000000)" />
  <rect
     style="font-size:12.000000px;fill:#000000;fill-opacity:1.0000000;fill-rule:evenodd;stroke-width:1.0000000pt"
     id="rect647"
     width="182.12894"
     height="37.332832"
     x="-190.50000"
     y="-1125.7030"
     transform="matrix(-0.642816,0.766021,-0.768811,-0.639476,0.000000,0.000000)" />
  <rect
     style="font-size:12.000000px;fill:#000000;fill-opacity:1.0000000;fill-rule:evenodd;stroke-width:1.0000000pt"
     id="rect648"
     width="182.12894"
     height="37.332832"
     x="-190.50000"
     y="-1021.3905"
     transform="matrix(-0.642816,0.766021,-0.768811,-0.639476,0.000000,0.000000)" />
  <path
     style="fill:#002e8c;fill-opacity:1.0000000;fill-rule:evenodd;stroke:none;stroke-width:1.0000000pt;stroke-linecap:butt;stroke-linejoin:miter;stroke-opacity:1.0000000"
     d="M 351.89341,343.91900 C 358.57841,397.74600 368.33941,457.72700 451.17841,463.95800 C 482.22741,465.81800 542.62741,456.57200 563.36441,371.96600 C 590.57041,290.69000 672.51341,267.32300 728.27741,311.38500 C 759.89441,332.00800 768.64241,364.76400 770.90841,389.35400 C 768.37741,468.32100 723.05041,536.68700 664.89241,567.16900 C 598.02341,606.91200 505.40141,607.74600 424.25341,547.53700 C 387.67341,513.21400 336.58241,449.96400 351.89341,343.91900 z "
     id="path653"
     sodipodi:nodetypes="cccccccc" />
  <path
     style="fill:#ffffff;fill-opacity:1.0000000;fill-rule:evenodd;stroke:none;stroke-width:1.0000000pt;stroke-linecap:butt;stroke-linejoin:miter;stroke-opacity:1.0000000"
     d="M 834.22641,538.86800 L 948.84841,637.36900 L 927.60641,662.11300 L 800.72441,557.51200 L 834.22641,538.86800 z "
     id="path654" />
  <rect
     style="font-size:12.000000px;fill-rule:evenodd;stroke-width:1.0000000pt"
     id="rect658"
     width="186.22920"
     height="38.143303"
     x="522.93597"
     y="187.20013"
     transform="matrix(0.648864,0.760905,-0.760905,0.648864,0.000000,0.000000)" />
  <path
     style="font-size:12.000000px;fill:#ffffff;fill-rule:evenodd;stroke-width:1.0000000pt"
     d="M 176.05096,635.90869 L 290.48096,537.18469 L 311.79596,561.86569 L 189.51296,671.80769 L 176.05096,635.90869 z "
     id="path657" />
  <rect
     style="font-size:12.000000px;fill-rule:evenodd;stroke-width:1.0000000pt"
     id="rect655"
     width="186.22920"
     height="38.143303"
     x="522.93597"
     y="134.47255"
     transform="matrix(0.648864,0.760905,-0.760905,0.648864,0.000000,0.000000)" />
  <rect
     style="font-size:12.000000px;fill-rule:evenodd;stroke-width:1.0000000pt"
     id="rect656"
     width="186.22920"
     height="38.143303"
     x="522.93597"
     y="241.04961"
     transform="matrix(0.648864,0.760905,-0.760905,0.648864,0.000000,0.000000)" />
</svg>
