<?xml version="1.0" encoding="UTF-8" standalone="no"?>
<svg
   xmlns:dc="http://purl.org/dc/elements/1.1/"
   xmlns:cc="http://creativecommons.org/ns#"
   xmlns:rdf="http://www.w3.org/1999/02/22-rdf-syntax-ns#"
   xmlns:svg="http://www.w3.org/2000/svg"
   xmlns="http://www.w3.org/2000/svg"
   xmlns:sodipodi="http://sodipodi.sourceforge.net/DTD/sodipodi-0.dtd"
   xmlns:inkscape="http://www.inkscape.org/namespaces/inkscape"
   width="310pt"
   height="210pt"
   viewBox="0 0 310 210"
   version="1.1"
   id="svg2"
   inkscape:version="1.0.2 (e86c870879, 2021-01-15)"
   sodipodi:docname="kushan.svg">
  <metadata
     id="metadata297">
    <rdf:RDF>
      <cc:Work
         rdf:about="">
        <dc:format>image/svg+xml</dc:format>
        <dc:type
           rdf:resource="http://purl.org/dc/dcmitype/StillImage" />
        <dc:title />
      </cc:Work>
    </rdf:RDF>
  </metadata>
  <defs
     id="defs295" />
  <sodipodi:namedview
     pagecolor="#ffffff"
     bordercolor="#666666"
     borderopacity="1"
     objecttolerance="10"
     gridtolerance="10"
     guidetolerance="10"
     inkscape:pageopacity="0"
     inkscape:pageshadow="2"
     inkscape:window-width="1158"
     inkscape:window-height="769"
     id="namedview293"
     showgrid="false"
     inkscape:zoom="1.9504762"
     inkscape:cx="193.75"
     inkscape:cy="140"
     inkscape:window-x="88"
     inkscape:window-y="57"
     inkscape:window-maximized="0"
     inkscape:current-layer="svg2"
     inkscape:document-rotation="0" />
  <g
     id="#e7852aff">
    <path
       fill="#e7852a"
       opacity="1"
       d="M 0,0 H 310 V 210 H 0 V 0 m 127.41,43.91 c 3.8,4.3 8.12,8.1 11.99,12.33 0.09,0.09 0.28,0.27 0.37,0.36 1.09,1.14 2.42,2.03 3.88,2.65 -0.32,3.15 -3.26,4.89 -5.38,6.85 -0.7,-4.59 -3.22,-8.61 -6.96,-11.36 -1.94,-0.57 -3.98,-0.68 -5.97,-0.92 -1.58,-1.07 -3.28,-5.14 -5.3,-2.76 -8.86,8.91 -18.2,17.4 -26.59,26.75 5.35,5.67 10.92,11.13 16.53,16.53 -5.39,5.86 -11.28,11.23 -16.78,16.98 5.21,5.6 10.78,10.86 16.16,16.31 0.65,0.85 2.14,1.81 1.38,3.05 -0.93,2.58 -2.36,4.93 -3.71,7.3 l 0.29,0.78 c -0.62,0.4 -1.85,1.19 -2.47,1.58 -0.1,0.1 -0.3,0.3 -0.39,0.4 -1.21,1.27 -2.39,2.57 -3.64,3.8 -0.1,0.09 -0.3,0.28 -0.39,0.37 -5.8,5.34 -13.32,9.37 -16.58,16.93 0.35,0.55 1.06,1.64 1.41,2.19 -1.06,1 -2.55,1.74 -3.1,3.17 0.16,1.86 0.59,3.69 0.89,5.54 -2.47,1.94 -5.29,3.55 -7.27,6.05 -2.66,3.96 -3.1,8.94 -2.76,13.59 3.73,-2.13 7.33,-4.69 11.6,-5.64 1.93,-0.73 4.69,-0.58 5.51,-2.88 l 0.33,-0.08 0.87,0.05 c 0.38,-2.58 0.72,-5.24 2.12,-7.5 0.49,0.13 1.48,0.39 1.98,0.52 l -0.46,-0.47 c 0.47,-0.22 1.42,-0.64 1.9,-0.86 0.56,0.16 1.69,0.47 2.26,0.62 l -0.66,-0.71 c 2.19,0.01 4.08,-0.93 5.52,-2.54 0.02,-1.89 0.07,-3.77 0.13,-5.65 0.68,-0.71 1.35,-1.41 2.03,-2.11 1.4,0.13 2.81,0.26 4.22,0.36 l 0.51,0.37 c -0.1,-0.42 -0.29,-1.26 -0.39,-1.68 l 0.59,-1.22 c 0.08,-0.17 0.24,-0.52 0.31,-0.69 2.83,-7.1 5.04,-14.44 7.72,-21.6 0.05,-0.13 0.16,-0.38 0.22,-0.51 7.1,-4.72 12.05,-12.04 18.71,-17.27 2.61,1.47 4.3,4.11 6.36,6.22 -2.87,0.94 -4.56,3.64 -6.7,5.59 -3.02,3.3 -6.77,5.98 -9.1,9.86 l -0.61,-0.7 c -0.82,2.39 1.53,3.75 2.89,5.28 8.14,7.85 15.89,16.1 24.12,23.86 9.41,-9.12 18.74,-18.33 27.84,-27.75 -4.62,-4.86 -9.65,-9.33 -14.14,-14.31 2.35,-1.59 4.77,-3.09 7.07,-4.76 4.9,4.48 8.77,10.34 14.74,13.47 2.83,7.49 5.14,15.17 8.09,22.61 0.08,0.17 0.24,0.51 0.31,0.68 l 0.59,1.23 c -0.1,0.43 -0.31,1.3 -0.41,1.74 l 0.51,-0.38 c 1.44,-0.12 2.88,-0.28 4.33,-0.45 2.49,1.89 2.07,5.04 2.09,7.83 1.43,1.6 3.31,2.52 5.49,2.52 l -0.65,0.72 c 0.57,-0.16 1.7,-0.47 2.27,-0.63 0.48,0.22 1.42,0.64 1.9,0.86 l -0.46,0.46 c 0.5,-0.13 1.49,-0.38 1.99,-0.51 1.42,2.34 1.46,5.17 2.55,7.62 1.72,2.06 4.67,2.11 7.02,3 3.94,1.02 7.26,3.44 10.82,5.3 0.33,-4.6 -0.03,-9.58 -2.74,-13.47 -2,-2.47 -4.79,-4.09 -7.25,-6.04 0.28,-1.84 0.71,-3.67 0.87,-5.53 -0.52,-1.39 -1.96,-2.12 -2.97,-3.1 0.52,-0.96 0.9,-1.95 1.14,-3 -4.45,-8.42 -13.58,-12.47 -19.71,-19.4 -2.89,-3.28 -5.65,-6.83 -7.02,-11.03 -0.72,-1.26 0.73,-2.18 1.4,-3.02 5.4,-5.46 11.02,-10.7 16.23,-16.34 -5.62,-5.66 -11.45,-11.14 -16.89,-16.98 5.73,-5.43 11.25,-11.08 16.82,-16.68 -6.8,-7.02 -13.87,-13.79 -20.74,-20.75 -2.5,-2.38 -4.64,-5.18 -7.62,-7 -2.34,3.44 -6.11,4.86 -9.74,6.45 -0.11,0.07 -0.34,0.21 -0.46,0.28 -1.51,0.97 -3.08,2.11 -3.75,3.86 l -0.51,-0.84 c 0.17,0.75 0.51,2.24 0.68,2.99 -0.92,1.13 -1.18,3.19 -2.76,3.54 -2.55,-1.69 -4.3,-4.27 -6.43,-6.42 2.16,-0.15 3.45,-2.02 4.91,-3.37 4.02,-4.23 8.39,-8.12 12.26,-12.5 -4.24,-5.25 -9.57,-9.47 -14.19,-14.37 -4.54,-4.35 -8.65,-9.14 -13.49,-13.16 -9.4,8.96 -18.59,18.17 -27.58,27.54 z"
       id="path5" />
    <path
       fill="#e7852a"
       opacity="1"
       d="m 139.14,38.25 c 3.23,-4.73 7.29,-8.92 12.06,-12.11 -3.47,4.54 -7.46,8.7 -12.06,12.11 z"
       id="path7" />
    <path
       fill="#e7852a"
       opacity="1"
       d="m 165.32,28.3 c 0.09,0.09 0.29,0.29 0.38,0.38 -0.09,-0.09 -0.29,-0.29 -0.38,-0.38 z"
       id="path9" />
    <path
       fill="#e7852a"
       opacity="1"
       d="m 154.15,36.93 c 0.27,-0.33 0.8,-0.97 1.07,-1.29 0.16,0.34 0.49,1.02 0.65,1.36 -0.43,-0.02 -1.29,-0.05 -1.72,-0.07 z"
       id="path11" />
    <path
       fill="#e7852a"
       opacity="1"
       d="m 149.44,43.92 c 1.91,-2.26 4.09,-4.29 6.51,-5.99 0.33,0.33 0.97,0.98 1.29,1.31 0.11,0.1 0.32,0.3 0.43,0.4 0.28,0.24 0.83,0.71 1.11,0.95 0.56,1.16 1.11,2.32 1.66,3.49 -1.69,1.91 -3.49,3.73 -5.39,5.44 -1.96,-1.77 -3.84,-3.64 -5.61,-5.6 z"
       id="path13" />
    <path
       fill="#e7852a"
       opacity="1"
       d="m 175.37,38.28 c 0.09,0.08 0.26,0.23 0.34,0.31 -0.08,-0.08 -0.25,-0.23 -0.34,-0.31 z"
       id="path15" />
    <path
       fill="#e7852a"
       opacity="1"
       d="m 162.94,39.82 c 1.36,-0.05 2.19,0.6 2.5,1.93 -1.45,0.14 -2.28,-0.51 -2.5,-1.93 z"
       id="path17" />
    <path
       fill="#e7852a"
       opacity="1"
       d="m 170.18,49.18 c 1.69,-1.85 3.66,-3.47 6.05,-4.32 -9.57,10.32 -20.12,19.72 -29.52,30.19 -0.27,-0.24 -0.81,-0.74 -1.08,-0.98 7.92,-8.55 16.49,-16.47 24.55,-24.89 z"
       id="path19" />
    <path
       fill="#e7852a"
       opacity="1"
       d="m 138.05,48.73 c 3.39,2.43 6.52,5.2 9.19,8.42 l -0.72,0.42 c -3.16,-2.6 -6.2,-5.4 -8.47,-8.84 z"
       id="path21" />
    <path
       fill="#e7852a"
       opacity="1"
       d="m 188.19,52.26 0.82,-0.45 0.82,0.45 -0.02,0.81 c -0.4,0 -1.2,0 -1.59,0 z"
       id="path23" />
    <path
       fill="#e7852a"
       opacity="1"
       d="m 186.85,66.42 c 0.74,-0.54 1.49,-1.08 2.24,-1.61 4.24,3.88 8.58,7.77 11.94,12.48 -5.6,-2.56 -8.06,-9.3 -14.18,-10.87 z"
       id="path25" />
    <path
       fill="#e7852a"
       opacity="1"
       d="m 124.79,68.94 c 0.53,-0.18 1.57,-0.54 2.1,-0.73 l 0.19,0.78 c -0.34,0.27 -1.02,0.8 -1.36,1.07 -0.23,-0.28 -0.7,-0.84 -0.93,-1.12 z"
       id="path27" />
    <path
       fill="#e7852a"
       opacity="1"
       d="m 149.11,77.42 c 1.92,-1.95 3.87,-3.87 5.92,-5.69 2.05,1.78 3.99,3.66 5.9,5.57 -1.79,2.16 -3.76,4.16 -5.92,5.96 -2.14,-1.77 -4.15,-3.69 -5.9,-5.84 z"
       id="path29" />
    <path
       fill="#e7852a"
       opacity="1"
       d="m 209.14,75.97 c 1.57,0.69 2.2,2.58 0.61,3.69 -5.56,5.56 -11.03,11.24 -16.84,16.54 l -0.13,-1.32 c 5.32,-5.94 11.22,-11.32 16.78,-17.03 -0.1,-0.47 -0.31,-1.41 -0.42,-1.88 z"
       id="path31" />
    <path
       fill="#e7852a"
       opacity="1"
       d="m 108.9,77.69 c 3.84,1.76 6.31,5.27 9.42,7.96 -0.23,0.34 -0.7,1.02 -0.94,1.36 -2.92,-3.01 -6.2,-5.74 -8.48,-9.32 z"
       id="path33" />
    <path
       fill="#e7852a"
       opacity="1"
       d="m 192.21,85.37 c 2.59,-2.93 5.28,-5.97 8.91,-7.63 -2.46,3.65 -5.78,6.59 -9.07,9.48 0.04,-0.46 0.12,-1.38 0.16,-1.85 z"
       id="path35" />
    <path
       fill="#e7852a"
       opacity="1"
       d="m 125.25,88.87 c 0.43,2.27 0.51,4.58 0.46,6.88 -5.47,5.02 -10.48,10.53 -15.89,15.62 3.3,4.08 7.18,7.64 11.27,10.91 3.02,-2.45 5.94,-5.12 8.07,-8.4 0.27,0.29 0.81,0.86 1.07,1.14 -2.78,3.37 -5.89,6.45 -9.21,9.28 -3.95,-3.5 -7.6,-7.33 -11.36,-11.04 -0.49,-0.67 -1.95,-1.66 -0.9,-2.53 4.79,-5.2 10.11,-9.89 14.97,-15.02 1.81,-1.77 1.26,-4.56 1.52,-6.84 z"
       id="path37" />
    <path
       fill="#e7852a"
       opacity="1"
       d="m 171.63,88.99 0.64,0.42 c 0.11,0.08 0.34,0.23 0.46,0.31 0.57,0.36 1.7,1.09 2.27,1.46 -0.12,1.56 0.22,3.23 -0.41,4.7 -1.15,1.03 -2.22,2.18 -2.81,3.62 l -0.25,0.5 c -1.64,-1.68 -3.7,-3.12 -4.64,-5.35 l -0.24,-0.54 c 0.37,-0.37 1.09,-1.12 1.46,-1.5 0.09,-0.1 0.29,-0.31 0.39,-0.41 1.02,-1.1 2.06,-2.17 3.13,-3.21 z"
       id="path39" />
    <path
       fill="#e7852a"
       opacity="1"
       d="m 139.92,90.85 c 1.58,1.08 2.96,2.41 4.15,3.91 -0.95,0.72 -1.9,1.45 -2.84,2.18 -0.53,-2.01 -1.03,-4.03 -1.31,-6.09 z"
       id="path41" />
    <path
       fill="#e7852a"
       opacity="1"
       d="m 164.06,96.9 c 0.25,-0.27 0.74,-0.81 0.99,-1.09 l 0.75,0.53 -0.11,0.81 c -0.41,-0.06 -1.22,-0.19 -1.63,-0.25 z"
       id="path43" />
    <path
       fill="#e7852a"
       opacity="1"
       d="m 125.04,99.41 c 0.07,-0.1 0.22,-0.31 0.3,-0.42 -0.08,0.11 -0.23,0.32 -0.3,0.42 z"
       id="path45" />
    <path
       fill="#e7852a"
       opacity="1"
       d="m 191.54,102.94 c 0.27,-0.24 0.82,-0.72 1.09,-0.95 2.77,3.4 7.07,5.95 8.98,9.79 -3.96,4.42 -8.29,8.52 -12.63,12.56 -3,-2.63 -5.75,-5.52 -8.59,-8.31 -0.33,0.36 -0.99,1.07 -1.33,1.43 -0.24,-0.36 -0.72,-1.07 -0.96,-1.43 1.1,-1.63 3.01,-2.26 4.64,-3.2 l -0.14,0.83 c -0.11,0.57 -0.32,1.72 -0.43,2.29 2.17,2.31 4.47,4.51 6.9,6.55 3.92,-3.46 7.72,-7.08 11.06,-11.11 -2.9,-2.78 -5.73,-5.63 -8.59,-8.45 z"
       id="path47" />
    <path
       fill="#e7852a"
       opacity="1"
       d="m 190.76,104.79 c 0.01,-0.14 0.05,-0.41 0.07,-0.54 z"
       id="path49" />
    <path
       fill="#e7852a"
       opacity="1"
       d="m 150.96,110.01 c 0.96,-1.04 1.57,-2.98 3.22,-2.98 0.4,-0.02 1.2,-0.05 1.6,-0.06 2.01,0.52 3.08,2.61 4.42,4.05 -1.44,0.07 -2.83,-0.09 -4.18,-0.49 -0.8,-0.78 -1.74,-1.04 -2.8,-0.79 -0.57,0.07 -1.7,0.2 -2.26,0.27 z"
       id="path51" />
    <path
       fill="#e7852a"
       opacity="1"
       d="m 116.2,110.15 c 1.28,0.65 1.25,1.32 -0.09,2.02 -1.28,-0.65 -1.25,-1.32 0.09,-2.02 z"
       id="path53" />
    <path
       fill="#e7852a"
       opacity="1"
       d="m 149.19,128.29 c 0.42,0.21 1.25,0.63 1.66,0.84 -5.99,5.17 -11.37,11.02 -16.92,16.66 -0.25,-0.24 -0.75,-0.74 -1,-0.98 5.17,-5.74 10.85,-11.01 16.26,-16.52 z"
       id="path55" />
    <path
       fill="#e7852a"
       opacity="1"
       d="m 151.29,129.35 c 0.11,0.05 0.33,0.15 0.44,0.21 -0.11,-0.06 -0.33,-0.16 -0.44,-0.21 z"
       id="path57" />
    <path
       fill="#e7852a"
       opacity="1"
       d="m 159.15,131.55 0.41,0.02 -0.11,0.32 c -0.07,-0.09 -0.22,-0.26 -0.3,-0.34 z"
       id="path59" />
    <path
       fill="#e7852a"
       opacity="1"
       d="m 162.84,131.84 0.88,-0.21 c 4.79,4.05 9.03,8.7 13.43,13.17 -0.27,0.25 -0.81,0.74 -1.08,0.98 -4.28,-4.77 -9.3,-8.85 -13.23,-13.94 z"
       id="path61" />
    <path
       fill="#e7852a"
       opacity="1"
       d="m 149.23,145.29 c 1.84,-1.98 3.77,-3.87 5.8,-5.64 2.03,1.76 3.94,3.65 5.75,5.65 -1.77,2.07 -3.72,3.98 -5.79,5.75 -2.01,-1.82 -3.93,-3.74 -5.76,-5.76 z"
       id="path63" />
  </g>
  <g
     id="#353636ff">
    <path
       fill="#353636"
       opacity="1"
       d="m 127.41,43.91 c 8.99,-9.37 18.18,-18.58 27.58,-27.54 4.84,4.02 8.95,8.81 13.49,13.16 4.62,4.9 9.95,9.12 14.19,14.37 -3.87,4.38 -8.24,8.27 -12.26,12.5 -1.46,1.35 -2.75,3.22 -4.91,3.37 4.61,-5.71 10.56,-10.18 15.19,-15.86 -0.61,-2.33 -3.39,-3.57 -4.98,-5.32 -0.08,-0.08 -0.25,-0.23 -0.34,-0.31 -3.21,-3.21 -6.42,-6.42 -9.67,-9.6 -0.09,-0.09 -0.29,-0.29 -0.38,-0.38 -3.35,-3.43 -6.61,-6.96 -10.32,-10.01 -4.79,4.1 -9,8.8 -13.5,13.19 -4.07,4.17 -8.45,8.05 -12.2,12.52 4.43,5.42 10.1,9.68 14.35,15.25 -1.46,-0.62 -2.79,-1.51 -3.88,-2.65 -0.09,-0.09 -0.28,-0.27 -0.37,-0.36 -3.87,-4.23 -8.19,-8.03 -11.99,-12.33 z"
       id="path66" />
    <path
       fill="#353636"
       opacity="1"
       d="m 154.06,22.95 c 0.66,-1.48 1.27,-1.46 1.84,0.06 -0.46,-0.02 -1.38,-0.05 -1.84,-0.06 z"
       id="path68" />
    <path
       fill="#353636"
       opacity="1"
       d="m 154.15,36.93 c 0.43,0.02 1.29,0.05 1.72,0.07 l 0.08,0.93 c -2.42,1.7 -4.6,3.73 -6.51,5.99 1.77,1.96 3.65,3.83 5.61,5.6 1.9,-1.71 3.7,-3.53 5.39,-5.44 -0.55,-1.17 -1.1,-2.33 -1.66,-3.49 1.35,0.98 2.66,2.04 3.85,3.21 -7.63,8.18 -15.89,15.75 -23.61,23.86 0.84,0.62 1.67,1.27 2.49,1.93 1.37,1.5 2.67,3.06 4.12,4.48 0.27,0.24 0.81,0.74 1.08,0.98 0.35,0.3 1.05,0.89 1.4,1.18 5.49,-3.96 9.54,-9.52 14.74,-13.82 0.33,0.61 1,1.82 1.34,2.43 -0.5,-0.16 -1.51,-0.48 -2.01,-0.64 -1.19,1.33 -2.4,2.65 -3.59,3.97 5.11,5.68 10.56,11.09 16.24,16.21 0.04,-1.45 0.09,-2.89 0.15,-4.34 0.17,-1.4 0.22,-2.98 -0.78,-4.11 l -0.37,-0.55 c 0.57,-1.15 1.12,-2.3 1.67,-3.46 0.96,5.96 0.57,12.03 1.24,18.02 0.59,5.54 0.09,11.73 -3.75,16.1 -7.02,8.93 -22.85,8.75 -29.28,-0.76 -4.62,-6.77 -5.57,-15.29 -5.74,-23.28 0.02,-7.52 0.65,-15.91 -3.79,-22.44 -0.23,5.54 -0.2,11.08 -1.01,16.58 -0.54,10.32 0.94,21.69 7.98,29.76 5.42,6.68 14.07,11.46 22.83,10.41 8.39,-1.04 14.25,-8.51 16.04,-16.35 1.7,-8.17 2.85,-16.67 1.29,-24.97 -0.44,-5.89 -2.29,-11.55 -2.88,-17.42 -1.31,1.49 -2.38,3.16 -3.39,4.87 -0.13,-0.49 -0.39,-1.46 -0.52,-1.94 0.67,-1.75 2.24,-2.89 3.75,-3.86 0.12,-0.07 0.35,-0.21 0.46,-0.28 3.63,-1.59 7.4,-3.01 9.74,-6.45 2.98,1.82 5.12,4.62 7.62,7 6.87,6.96 13.94,13.73 20.74,20.75 -5.57,5.6 -11.09,11.25 -16.82,16.68 5.44,5.84 11.27,11.32 16.89,16.98 -5.21,5.64 -10.83,10.88 -16.23,16.34 -0.67,0.84 -2.12,1.76 -1.4,3.02 1.37,4.2 4.13,7.75 7.02,11.03 6.13,6.93 15.26,10.98 19.71,19.4 -0.24,1.05 -0.62,2.04 -1.14,3 1.01,0.98 2.45,1.71 2.97,3.1 -0.16,1.86 -0.59,3.69 -0.87,5.53 2.46,1.95 5.25,3.57 7.25,6.04 2.71,3.89 3.07,8.87 2.74,13.47 -3.56,-1.86 -6.88,-4.28 -10.82,-5.3 -2.35,-0.89 -5.3,-0.94 -7.02,-3 -1.09,-2.45 -1.13,-5.28 -2.55,-7.62 0.38,-0.09 1.13,-0.26 1.51,-0.35 2.48,2.14 -0.32,6.41 2.93,7.95 4.97,1.69 10.19,2.67 14.91,5.1 -0.71,-3.33 -0.95,-7.01 -3.15,-9.77 -2.1,-2.56 -4.86,-4.44 -7.39,-6.53 0.32,-2.22 0.63,-4.44 0.82,-6.68 -2.48,-0.56 -5,-1.07 -7.38,-2.01 0.11,-0.77 0.32,-2.29 0.42,-3.06 1.9,0.19 3.79,0.44 5.68,0.72 -5.68,-9.48 -16.51,-13.95 -22.95,-22.81 2.29,8.45 6.68,16.18 12.11,23 4.63,6.41 10.19,12.19 14.05,19.13 -5.03,-5.36 -10.41,-10.48 -14.54,-16.6 -3.88,-5.43 -7.5,-11.05 -10.72,-16.89 -3.17,-4.32 -5.3,-9.24 -7.76,-13.97 -1.35,1.19 -2.68,2.41 -4.02,3.61 2.63,7.36 5.05,14.79 7.67,22.15 0.47,1.56 1.35,3.19 0.75,4.85 l -0.59,-1.23 c -0.07,-0.17 -0.23,-0.51 -0.31,-0.68 -2.95,-7.44 -5.26,-15.12 -8.09,-22.61 -5.97,-3.13 -9.84,-8.99 -14.74,-13.47 -2.3,1.67 -4.72,3.17 -7.07,4.76 4.49,4.98 9.52,9.45 14.14,14.31 -9.1,9.42 -18.43,18.63 -27.84,27.75 -8.23,-7.76 -15.98,-16.01 -24.12,-23.86 -1.36,-1.53 -3.71,-2.89 -2.89,-5.28 l 0.61,0.7 c 3.99,4.93 8.76,9.12 13.17,13.67 4.43,4.31 8.59,8.9 13.22,13.01 8.8,-8.49 17.48,-17.12 25.94,-25.94 -4.47,-4.3 -8.73,-8.82 -13.2,-13.11 -1,-1.34 -2.66,-0.91 -4.01,-0.56 l -0.88,0.21 c -1.5,1.3 -2.89,2.73 -4.26,4.16 2.75,3.08 5.84,5.83 8.58,8.92 -0.22,0.27 -0.66,0.81 -0.88,1.08 -2.47,-3.27 -5.36,-6.17 -8.39,-8.91 -0.49,0.25 -1.46,0.74 -1.95,0.99 2.22,2.33 4.43,4.66 6.63,7.02 -2.12,2.88 -4.69,5.4 -7.55,7.54 -2.91,-2.11 -5.5,-4.62 -7.6,-7.54 3.6,-4.77 9.21,-7.94 12.03,-13.21 l 0.11,-0.32 -0.41,-0.02 c -0.35,-0.02 -1.07,-0.05 -1.42,-0.06 -4.94,4.66 -9.7,9.53 -14.35,14.48 l -0.49,-0.47 -0.13,-0.4 c 4.18,-4.79 8.88,-9.1 13.43,-13.54 -1.48,-0.68 -2.98,-1.33 -4.46,-2 -0.11,-0.06 -0.33,-0.16 -0.44,-0.21 l -0.44,-0.22 c -0.41,-0.21 -1.24,-0.63 -1.66,-0.84 -0.54,-0.29 -1.62,-0.88 -2.16,-1.17 -0.89,0.65 -1.77,1.3 -2.63,1.99 -2.06,-2.11 -3.75,-4.75 -6.36,-6.22 -6.66,5.23 -11.61,12.55 -18.71,17.27 l -0.22,0.51 c -2.68,7.16 -4.89,14.5 -7.72,21.6 -0.07,0.17 -0.23,0.52 -0.31,0.69 l -0.59,1.22 c -0.6,-1.66 0.27,-3.3 0.74,-4.87 2.62,-7.37 5.04,-14.81 7.69,-22.16 -1.33,-1.22 -2.66,-2.45 -4.01,-3.66 -2.32,4.44 -4.35,9.04 -7.04,13.28 -0.42,-0.11 -1.25,-0.34 -1.66,-0.45 0.06,1.22 0.46,2.55 -0.36,3.62 -3.76,6.41 -7.96,12.58 -12.43,18.53 -3.59,4.41 -7.66,8.4 -11.55,12.55 6.47,-11.28 16.63,-20.1 22.24,-31.94 1.33,-2.65 2.05,-5.68 4.07,-7.94 0.01,0.64 0.04,1.9 0.05,2.53 2.22,-3.7 4.58,-7.65 5.21,-11.96 -0.31,-0.27 -0.91,-0.8 -1.22,-1.07 -1.45,3.46 -2.15,7.23 -4.04,10.5 -0.22,-0.59 -0.65,-1.78 -0.86,-2.38 l -0.29,-0.78 c 1.35,-2.37 2.78,-4.72 3.71,-7.3 0.76,-1.24 -0.73,-2.2 -1.38,-3.05 -5.38,-5.45 -10.95,-10.71 -16.16,-16.31 5.5,-5.75 11.39,-11.12 16.78,-16.98 -5.61,-5.4 -11.18,-10.86 -16.53,-16.53 8.39,-9.35 17.73,-17.84 26.59,-26.75 2.02,-2.38 3.72,1.69 5.3,2.76 1.99,0.24 4.03,0.35 5.97,0.92 3.74,2.75 6.26,6.77 6.96,11.36 2.12,-1.96 5.06,-3.7 5.38,-6.85 0.96,-0.56 1.92,-1.12 2.87,-1.68 l 0.72,-0.42 c 1.56,-1.35 2.87,-2.96 4.24,-4.5 0.81,-0.67 1.64,-1.32 2.48,-1.96 -2.16,-2.22 -4.3,-4.45 -6.41,-6.72 2.19,-2.36 4.42,-4.67 6.6,-7.04 m -33.08,15.04 c -8.61,8.39 -17.24,16.76 -25.74,25.25 l 0.03,0.56 c 3.36,3.59 7.04,6.86 10.43,10.43 1.83,1.76 3.38,3.99 5.85,4.89 0.41,-0.51 1.23,-1.53 1.64,-2.04 1.46,-1.25 2.82,-2.61 4.1,-4.05 0.24,-0.34 0.71,-1.02 0.94,-1.36 l 0.57,0.5 c 0.32,-0.89 0.64,-1.79 0.96,-2.7 4.33,-0.24 0.48,-5.54 2.21,-7.59 2.11,0.75 0.52,3.67 0.97,5.34 0.49,-0.36 1.48,-1.07 1.98,-1.43 -0.04,-1.49 -0.08,-2.99 -0.13,-4.48 -0.77,-0.6 -1.53,-1.2 -2.3,-1.79 -0.19,0.35 -0.56,1.06 -0.75,1.41 -1.32,-0.5 -1.26,-2.36 -1.98,-3.4 0.55,-0.45 1.1,-0.89 1.67,-1.32 1.43,1.38 2.92,2.71 4.49,3.95 -0.04,-1.37 -0.13,-2.73 -0.29,-4.08 0.34,-0.27 1.02,-0.8 1.36,-1.07 l -0.19,-0.78 c 0.15,-0.69 0.44,-2.07 0.59,-2.75 0.46,1.12 0.62,2.29 0.5,3.49 -1.65,10.71 -1.22,21.61 -0.5,32.38 -0.12,0.42 -0.37,1.25 -0.49,1.67 -0.38,-0.42 -1.14,-1.26 -1.52,-1.68 -0.67,0.73 -1.36,1.45 -2.07,2.14 -0.26,0.28 -0.79,0.86 -1.05,1.15 1.56,1.89 3.21,3.93 5.59,4.78 -0.28,-1.06 -0.64,-2.1 -1.07,-3.11 -0.32,-0.76 -0.97,-2.3 -1.29,-3.07 1.71,0.29 3.11,1.36 3.11,3.2 0.6,2.62 1.81,5.05 3.26,7.29 1.33,-0.65 2.64,-1.36 4.07,-1.79 0.06,0.45 0.17,1.33 0.23,1.78 -0.8,0.16 -2.4,0.5 -3.2,0.66 0.72,2.53 3.07,3.99 4.77,5.82 2.65,2.44 4.81,5.56 8.2,7.06 -2.42,-2.88 -4.76,-5.84 -5.94,-9.46 l 0.67,0.63 c 0.22,-2.25 0.24,-4.51 0.33,-6.77 l 0.91,0.18 c 0.03,2.6 -0.04,5.24 0.61,7.78 0.61,3.19 3.76,4.87 6.17,6.65 5.2,3.66 11.9,4.74 18.06,3.35 4.95,-1.5 10.12,-4.82 10.94,-10.34 0.3,0.72 0.91,2.16 1.21,2.89 l 0.08,0.7 c -0.87,0.78 -2.76,2.17 -1.38,3.36 3.76,3.71 7.37,7.57 11.32,11.08 1.81,-1.61 3.96,-3.12 4.8,-5.51 1.65,0.35 2.31,-0.3 1.98,-1.95 1.17,-0.4 2.04,-1.33 2.91,-2.17 5.27,-5.37 10.62,-10.65 16.03,-15.87 -2.02,-3.47 -5.84,-5.89 -8.49,-9.01 -2.62,-2.28 -4.54,-5.59 -7.89,-6.86 -0.42,0.53 -1.26,1.59 -1.68,2.12 -0.04,0.17 -0.12,0.51 -0.16,0.68 -1.6,0.7 -2.74,2.01 -3.87,3.28 -0.27,0.23 -0.82,0.71 -1.09,0.95 -0.18,0.32 -0.53,0.98 -0.71,1.31 -0.02,0.13 -0.06,0.4 -0.07,0.54 1.55,2.43 3.85,4.28 5.79,6.4 -2.36,2.96 -5.03,5.7 -8.18,7.82 -1.79,-1.93 -3.69,-3.75 -5.77,-5.35 l 0.14,-0.83 c 3.43,-2.99 4.96,-7.57 6.23,-11.81 1.97,-5.84 0.85,-12.06 1.02,-18.08 0.03,-6.8 -3.83,-12.61 -6.22,-18.72 -0.58,-1.84 -1.76,-3.93 -0.56,-5.76 0.46,0.52 1.37,1.55 1.83,2.07 l -0.19,0.8 c -0.02,0.17 -0.04,0.49 -0.05,0.65 0.15,0.54 0.45,1.62 0.6,2.15 0.05,0.16 0.14,0.47 0.19,0.62 0.16,0.53 0.47,1.59 0.62,2.12 l 0.64,-0.45 c 1.24,5.11 7.22,6.95 9.74,11.41 -1.91,2.25 -5.53,4.04 -4.38,7.54 -0.04,0.47 -0.12,1.39 -0.16,1.85 -0.2,2.72 -0.28,5.44 -0.15,8.17 l 0.88,-0.51 0.13,1.32 c -0.28,0.3 -0.82,0.91 -1.09,1.21 -0.07,0.12 -0.22,0.35 -0.3,0.46 -0.62,1.29 -1.03,2.67 -1.48,4.02 5.47,-4.43 10.06,-9.84 15.17,-14.68 2.92,-3.2 6.5,-5.85 8.97,-9.43 -0.01,-0.15 -0.02,-0.44 -0.03,-0.59 -6.42,-7 -13.48,-13.42 -20.06,-20.29 -1.37,-1.33 -2.58,-2.9 -4.28,-3.83 l 0.02,-0.81 -0.82,-0.45 -0.82,0.45 0.03,0.81 c -1.93,0.73 -3.22,2.54 -4.45,4.11 -0.9,-0.42 -1.79,-0.84 -2.67,-1.27 -0.94,1.47 -1.44,3.17 -0.91,4.9 3.24,14.12 3.85,28.97 0.72,43.17 -0.13,1.45 -1.21,2.45 -2.17,3.41 0.15,3.45 -2.56,6.15 -4.82,8.43 -4.31,3.77 -10.66,6.35 -16.32,4.48 7.19,0.34 15.83,-2.58 18.79,-9.65 -4.65,4.86 -11.36,8.31 -18.21,7.02 -6.47,-0.93 -12.16,-4.59 -16.69,-9.15 -6.42,-3.76 -8.58,-11.59 -9.37,-18.51 -0.2,-6.42 -0.52,-12.92 0.63,-19.27 0.41,-4.12 0.63,-8.35 -0.09,-12.44 -0.44,-2.24 -2.87,-2.73 -4.56,-3.72 1.57,3.32 1.11,7.09 0.76,10.63 l -1.11,0.54 c -0.04,-0.82 -0.13,-2.48 -0.17,-3.3 1.94,-4.96 -3.66,-7.52 -6.51,-10.48 m 35.46,18.85 c 6.07,6.17 11.89,12.7 18.47,18.35 -0.02,-0.74 -0.06,-2.21 -0.08,-2.95 -5.84,-5.42 -11.13,-11.42 -17.1,-16.68 -0.33,0.32 -0.97,0.96 -1.29,1.28 m -17.82,-0.29 c 0.34,1.33 0.37,2.85 1.24,3.99 4.5,3.33 8.09,7.65 12.16,11.45 0.48,-0.28 1.44,-0.84 1.92,-1.12 -2.96,-3.33 -6.26,-6.34 -9.35,-9.54 -1.84,-1.77 -3.48,-3.92 -5.97,-4.78 m 10.4,6.89 c 1.75,2.15 3.76,4.07 5.9,5.84 2.16,-1.8 4.13,-3.8 5.92,-5.96 -1.91,-1.91 -3.85,-3.79 -5.9,-5.57 -2.05,1.82 -4,3.74 -5.92,5.69 m 40.14,-5.05 c -0.55,1.38 0.46,3.05 1.16,4.23 1.62,-0.56 0.69,-4.53 -1.16,-4.23 m -49.95,8.64 c -0.02,0.43 -0.05,1.3 -0.07,1.74 l 0.86,0.18 -0.18,0.77 c 0.28,0.28 0.85,0.84 1.13,1.12 -3.17,2.5 0.64,5.81 2.73,7.5 1.28,1.63 2.58,-0.22 3.45,-1.21 1.47,-1.29 2.87,-2.66 4.14,-4.15 -3.51,-4.41 -8.42,-7.6 -11.41,-12.44 -1.58,1.74 -0.94,4.39 -0.65,6.49 m 52.92,-5.27 c -0.07,1.45 -0.13,2.91 -0.16,4.36 0.93,-0.83 1.84,-1.67 2.76,-2.52 -0.86,-0.62 -1.73,-1.24 -2.6,-1.84 m -50.07,22.89 0.48,0.47 c 0.09,0.09 0.29,0.28 0.38,0.38 l 0.52,0.52 c 6.16,-5.31 11.53,-11.45 17.42,-17.05 0.87,-0.79 1.93,-1.33 2.96,-1.88 -0.62,-0.74 -1.24,-1.47 -1.86,-2.19 -6.83,6.37 -13.38,13.07 -19.9,19.75 m 21.76,-17.56 -0.14,0.57 c -6.32,6.4 -12.81,12.64 -19.08,19.1 -1.4,0.99 -0.47,2.6 0.87,3.01 -0.49,1.5 0.07,2.27 1.68,2.32 0.79,0.93 1.57,1.86 2.37,2.78 7.21,-7.16 14.6,-14.17 21.46,-21.68 -0.99,-0.52 -1.98,-1.04 -2.96,-1.56 l -0.59,-0.34 c 0.53,-1.76 -1.96,-4.06 -3.61,-4.2 m -68.87,30.26 c 8.5,8.79 17.16,17.47 25.97,25.95 5.55,-5.21 11,-10.57 16.14,-16.18 -1.05,-0.45 -2.1,-0.89 -3.16,-1.32 0.37,-2.19 -2.39,-3.41 -3.76,-4.76 -0.26,-0.28 -0.8,-0.85 -1.07,-1.14 l 0.08,-1 c -3.4,0.67 -5.17,4.01 -7.59,6.16 -3.03,-2.24 -5.72,-4.9 -8.1,-7.81 3.72,-4.05 7.83,-7.72 11.49,-11.82 0.07,-0.1 0.22,-0.31 0.3,-0.42 0.09,-0.81 0.28,-2.43 0.37,-3.24 0.05,-2.3 -0.03,-4.61 -0.46,-6.88 -0.09,-0.56 -0.28,-1.69 -0.37,-2.26 l -0.69,0.63 c 0.81,-1.7 0.88,-3.59 0.94,-5.43 -10.41,9.42 -19.84,19.91 -30.09,29.52 m 76.59,-22.34 c -1.07,1.04 -2.11,2.11 -3.13,3.21 -0.1,0.1 -0.3,0.31 -0.39,0.41 -0.37,0.38 -1.09,1.13 -1.46,1.5 0.06,0.14 0.18,0.41 0.24,0.54 0.94,2.23 3,3.67 4.64,5.35 l 0.25,-0.5 c 1.68,0.99 4.26,-2.17 2.81,-3.62 0.63,-1.47 0.29,-3.14 0.41,-4.7 -0.57,-0.37 -1.7,-1.1 -2.27,-1.46 -0.12,-0.08 -0.35,-0.23 -0.46,-0.31 l -0.64,-0.42 m -31.71,1.86 c 0.28,2.06 0.78,4.08 1.31,6.09 0.94,-0.73 1.89,-1.46 2.84,-2.18 -1.19,-1.5 -2.57,-2.83 -4.15,-3.91 m 24.14,6.05 c 1.44,3.29 4.45,5.52 7.05,7.87 0.51,-0.2 1.52,-0.59 2.03,-0.79 -2.33,-2.36 -4.34,-5.61 -7.45,-6.83 l 0.11,-0.81 -0.75,-0.53 c -0.25,0.28 -0.74,0.82 -0.99,1.09 m -1.85,1.98 -0.98,0.08 -0.15,1.13 c -1.62,-0.02 -2.18,0.75 -1.69,2.3 l -0.56,0.27 c -0.92,0.52 -1.85,1.04 -2.77,1.56 1.99,2.6 4.33,4.9 6.94,6.88 0.75,-0.71 1.51,-1.43 2.27,-2.14 1.8,1.25 4.24,-1.35 4.96,-2.99 -2.04,-2.7 -4.47,-5.42 -7.39,-7.12 l -0.05,-0.58 c -0.15,0.15 -0.44,0.46 -0.58,0.61 m 11.02,2.36 c 0.57,0.55 0.57,0.55 0,0 m -55.17,8.79 c 0.03,1.57 -1.14,4.12 1.04,4.79 0.89,-2.91 1.91,-5.84 1.94,-8.92 -1.22,1.2 -3.15,2.13 -2.98,4.13 m 36.07,-3.81 0.05,0.81 c -1.65,0 -2.26,1.94 -3.22,2.98 0.56,-0.07 1.69,-0.2 2.26,-0.27 0.44,1.57 1.37,1.83 2.8,0.79 1.35,0.4 2.74,0.56 4.18,0.49 -1.34,-1.44 -2.41,-3.53 -4.42,-4.05 l -0.01,-0.81 c -0.41,0.02 -1.23,0.05 -1.64,0.06 m 34.83,-0.33 c 0.07,3.06 1.1,5.96 1.98,8.86 0.37,-0.21 1.1,-0.62 1.47,-0.83 -0.11,-3.08 -0.39,-6.45 -3.45,-8.03 m -66.52,1.09 c -0.62,3.42 -1.53,6.79 -1.78,10.27 1.1,-0.81 2.18,-1.66 3.26,-2.49 0.09,-2.73 1.3,-6 -1.48,-7.78 m 63.54,7.74 c 1.14,0.86 2.28,1.74 3.46,2.56 -0.26,-2.87 -0.76,-5.73 -1.66,-8.47 -1.56,1.6 -1.99,3.75 -1.8,5.91 m -69.78,-4.57 c -1.34,0.7 -1.37,1.37 -0.09,2.02 1.34,-0.7 1.37,-1.37 0.09,-2.02 m 12.04,-0.01 c 0.59,0.6 0.59,0.6 0,0 m -2.05,1.11 c 0.63,0.62 0.63,0.62 0,0 m 67.99,-0.02 c 0.62,0.53 0.62,0.53 0,0 m 2.2,20.96 c 1.31,3.53 2.5,7.3 4.91,10.25 -0.71,-4.01 -1.94,-7.94 -3.53,-11.69 -0.35,0.36 -1.04,1.08 -1.38,1.44 m -47.15,13.1 c 1.83,2.02 3.75,3.94 5.76,5.76 2.07,-1.77 4.02,-3.68 5.79,-5.75 -1.81,-2 -3.72,-3.89 -5.75,-5.65 -2.03,1.77 -3.96,3.66 -5.8,5.64 m 52.06,-2.85 c 0.62,0.53 0.62,0.53 0,0 m 0.9,1.77 c 0.62,0.61 0.62,0.61 0,0 m 18.21,18.16 c -0.88,1.27 1.42,2.23 2.29,1.4 0.85,-1.27 -1.44,-2.2 -2.29,-1.4 z"
       id="path70" />
    <path
       fill="#353636"
       opacity="1"
       d="m 157.24,39.24 c 0.11,0.1 0.32,0.3 0.43,0.4 -0.11,-0.1 -0.32,-0.3 -0.43,-0.4 z"
       id="path72" />
    <path
       fill="#353636"
       opacity="1"
       d="m 134.97,42.18 c 0.06,-1.47 0.83,-2.19 2.31,-2.17 -0.21,1.32 -0.98,2.04 -2.31,2.17 z"
       id="path74" />
    <path
       fill="#353636"
       opacity="1"
       d="m 134.06,44.86 c -1.52,-0.43 -1.61,-1.06 -0.27,-1.89 0.07,0.48 0.2,1.42 0.27,1.89 z"
       id="path76" />
    <path
       fill="#353636"
       opacity="1"
       d="m 175.88,43.1 c 1.57,0.34 1.69,0.93 0.35,1.76 -0.09,-0.44 -0.27,-1.32 -0.35,-1.76 z"
       id="path78" />
    <path
       fill="#353636"
       opacity="1"
       d="m 120.09,56.98 c 0.63,-1.49 1.25,-1.48 1.83,0.03 -0.46,-0.01 -1.38,-0.03 -1.83,-0.03 z"
       id="path80" />
    <path
       fill="#353636"
       opacity="1"
       d="m 188.06,56.97 c 0.64,-1.49 1.25,-1.48 1.85,0.02 -0.46,-0.01 -1.38,-0.02 -1.85,-0.02 z"
       id="path82" />
    <path
       fill="#353636"
       opacity="1"
       d="m 163.98,61.56 c 0.5,-0.6 1.01,-1.19 1.52,-1.79 2.13,2.15 3.88,4.73 6.43,6.42 1.58,-0.35 1.84,-2.41 2.76,-3.54 0.58,2.81 0.59,5.69 0.76,8.55 -4.21,-2.75 -7.18,-6.98 -11.47,-9.64 z"
       id="path84" />
    <path
       fill="#353636"
       opacity="1"
       d="m 119.92,66.84 c 0.44,-2.05 2.66,-1.88 3.17,0.02 -0.79,0 -2.37,-0.02 -3.17,-0.02 z"
       id="path86" />
    <path
       fill="#353636"
       opacity="1"
       d="m 116.71,74.28 c 1.01,-0.96 2.06,-1.88 3.14,-2.77 -1.12,3.93 -0.68,7.99 0,11.94 -2.32,-1.6 -4.4,-3.5 -6.34,-5.53 0.42,-0.53 1.27,-1.59 1.7,-2.12 0.71,1.61 1.55,3.17 2.8,4.43 -0.06,-2.05 -0.46,-4.07 -1.3,-5.95 z"
       id="path88" />
    <path
       fill="#353636"
       opacity="1"
       d="m 147.77,115.75 c 3.27,1.4 6.72,2.48 9.75,4.36 -3.62,-0.09 -7.15,-1.89 -9.75,-4.36 z"
       id="path90" />
    <path
       fill="#353636"
       opacity="1"
       d="m 178.1,116.03 c 0.24,0.36 0.72,1.07 0.96,1.43 l -0.61,0.64 c -0.09,-0.51 -0.26,-1.55 -0.35,-2.07 z"
       id="path92" />
    <path
       fill="#353636"
       opacity="1"
       d="m 137.7,134.7 c 2.14,-1.95 3.83,-4.65 6.7,-5.59 -4.94,5.45 -9.89,11.04 -15.8,15.45 2.33,-3.88 6.08,-6.56 9.1,-9.86 z"
       id="path94" />
    <path
       fill="#353636"
       opacity="1"
       d="m 120.1,132.02 c 0.46,0 1.38,0 1.84,0 -0.61,1.49 -1.23,1.49 -1.84,0 z"
       id="path96" />
    <path
       fill="#353636"
       opacity="1"
       d="m 188.06,132 c 0.46,0 1.37,0 1.83,0 -0.61,1.5 -1.22,1.5 -1.83,0 z"
       id="path98" />
    <path
       fill="#353636"
       opacity="1"
       d="m 104.85,140.34 c 0.62,-0.39 1.85,-1.18 2.47,-1.58 -4.98,9.47 -16.7,12.91 -21.69,22.42 1.75,-0.01 3.5,-0.03 5.25,-0.01 0.07,0.72 0.2,2.14 0.27,2.86 -2.37,0.98 -4.89,1.46 -7.38,2.02 0.2,2.24 0.51,4.47 0.84,6.7 -2.53,2.07 -5.29,3.95 -7.38,6.5 -2.23,2.76 -2.48,6.45 -3.17,9.79 5.1,-2.47 10.57,-3.92 16.07,-5.18 -0.82,2.3 -3.58,2.15 -5.51,2.88 -4.27,0.95 -7.87,3.51 -11.6,5.64 -0.34,-4.65 0.1,-9.63 2.76,-13.59 1.98,-2.5 4.8,-4.11 7.27,-6.05 -0.3,-1.85 -0.73,-3.68 -0.89,-5.54 0.55,-1.43 2.04,-2.17 3.1,-3.17 -0.35,-0.55 -1.06,-1.64 -1.41,-2.19 3.26,-7.56 10.78,-11.59 16.58,-16.93 0.09,-0.09 0.29,-0.28 0.39,-0.37 1.25,-1.23 2.43,-2.53 3.64,-3.8 0.09,-0.1 0.29,-0.3 0.39,-0.4 m -17.57,22.09 c -1.24,1.53 1.57,2.34 2.35,1.13 1.11,-1.48 -1.6,-2.38 -2.35,-1.13 z"
       id="path100" />
    <path
       fill="#353636"
       opacity="1"
       d="m 100.12,164.94 c 1.28,-1.17 2.6,-3.11 4.6,-2.64 2.1,0.62 3.88,1.95 5.65,3.19 -1.41,-0.1 -2.82,-0.23 -4.22,-0.36 -0.68,0.7 -1.35,1.4 -2.03,2.11 -0.06,1.88 -0.11,3.76 -0.13,5.65 -1.44,1.61 -3.33,2.55 -5.52,2.54 l -0.73,-0.75 c 1.66,-0.67 3.38,-1.24 4.9,-2.2 1.26,-2.54 -1.46,-4.65 -2.36,-6.81 0.67,0.27 2.02,0.81 2.69,1.08 0.73,-0.98 1.47,-1.95 2.21,-2.93 -1.69,0.36 -3.37,0.77 -5.06,1.12 z"
       id="path102" />
    <path
       fill="#353636"
       opacity="1"
       d="m 205.28,162.3 c 2,-0.46 3.3,1.48 4.59,2.64 -1.7,-0.34 -3.38,-0.76 -5.07,-1.12 0.73,0.97 1.48,1.94 2.23,2.92 0.66,-0.26 1.97,-0.78 2.63,-1.04 -0.93,2.15 -3.53,4.24 -2.33,6.79 1.53,0.94 3.24,1.52 4.9,2.18 l -0.72,0.76 c -2.18,0 -4.06,-0.92 -5.49,-2.52 -0.02,-2.79 0.4,-5.94 -2.09,-7.83 -1.45,0.17 -2.89,0.33 -4.33,0.45 1.77,-1.26 3.56,-2.62 5.68,-3.23 z"
       id="path104" />
    <path
       fill="#353636"
       opacity="1"
       d="m 154.09,165.99 c 0.46,0 1.38,0.01 1.84,0.02 -0.63,1.49 -1.25,1.48 -1.84,-0.02 z"
       id="path106" />
    <path
       fill="#353636"
       opacity="1"
       d="m 94.15,175.05 c 0.98,-0.44 1.89,-0.28 2.72,0.47 -0.48,0.22 -1.43,0.64 -1.9,0.86 -0.2,-0.34 -0.61,-1 -0.82,-1.33 z"
       id="path108" />
    <path
       fill="#353636"
       opacity="1"
       d="m 213.13,175.52 c 0.83,-0.75 1.73,-0.91 2.72,-0.46 -0.2,0.33 -0.62,0.99 -0.82,1.32 -0.48,-0.22 -1.42,-0.64 -1.9,-0.86 z"
       id="path110" />
    <path
       fill="#353636"
       opacity="1"
       d="m 91.93,175.97 c 0.38,0.09 1.14,0.27 1.52,0.36 -1.4,2.26 -1.74,4.92 -2.12,7.5 l -0.87,-0.05 c 0.29,-2.63 -0.48,-5.65 1.47,-7.81 z"
       id="path112" />
  </g>
  <g
     id="#ce001aff">
    <path
       fill="#ce001a"
       opacity="1"
       d="m 141.5,31.48 c 4.5,-4.39 8.71,-9.09 13.5,-13.19 3.71,3.05 6.97,6.58 10.32,10.01 0.09,0.09 0.29,0.29 0.38,0.38 3.25,3.18 6.46,6.39 9.67,9.6 0.09,0.08 0.26,0.23 0.34,0.31 1.59,1.75 4.37,2.99 4.98,5.32 -4.63,5.68 -10.58,10.15 -15.19,15.86 -0.51,0.6 -1.02,1.19 -1.52,1.79 4.29,2.66 7.26,6.89 11.47,9.64 l 0.05,0.72 c -0.55,1.16 -1.1,2.31 -1.67,3.46 -3.01,-3.7 -7.03,-6.51 -9.64,-10.54 -0.34,-0.61 -1.01,-1.82 -1.34,-2.43 -5.2,4.3 -9.25,9.86 -14.74,13.82 -0.35,-0.29 -1.05,-0.88 -1.4,-1.18 9.4,-10.47 19.95,-19.87 29.52,-30.19 1.34,-0.83 1.22,-1.42 -0.35,-1.76 -6.73,-6.63 -13.49,-13.24 -19.98,-20.09 -0.57,-1.52 -1.18,-1.54 -1.84,-0.06 -0.94,1.07 -1.89,2.14 -2.86,3.19 -4.77,3.19 -8.83,7.38 -12.06,12.11 -0.62,0.59 -1.24,1.17 -1.86,1.76 -1.48,-0.02 -2.25,0.7 -2.31,2.17 -0.29,0.2 -0.88,0.6 -1.18,0.79 -1.34,0.83 -1.25,1.46 0.27,1.89 1.34,1.28 2.67,2.57 3.99,3.87 2.27,3.44 5.31,6.24 8.47,8.84 -0.95,0.56 -1.91,1.12 -2.87,1.68 -4.25,-5.57 -9.92,-9.83 -14.35,-15.25 3.75,-4.47 8.13,-8.35 12.2,-12.52 z"
       id="path115" />
    <path
       fill="#ce001a"
       opacity="1"
       d="m 154.39,32.42 c 0.31,0 0.92,0.02 1.23,0.02 2.71,2.17 4.91,4.89 7.32,7.38 0.22,1.42 1.05,2.07 2.5,1.93 0.51,0.79 1.03,1.58 1.55,2.37 -0.41,0.54 -1.23,1.62 -1.63,2.16 -0.12,0.13 -0.35,0.41 -0.46,0.54 -0.3,0.33 -0.91,0.99 -1.21,1.32 -0.1,0.1 -0.3,0.3 -0.4,0.39 -4.92,4.21 -9.47,8.84 -13.73,13.72 -0.08,0.08 -0.25,0.26 -0.33,0.35 -0.87,0.88 -1.74,1.75 -2.61,2.62 -0.09,0.09 -0.28,0.26 -0.37,0.35 -1.57,1.35 -3.16,2.67 -4.74,4.02 -0.82,-0.66 -1.65,-1.31 -2.49,-1.93 7.72,-8.11 15.98,-15.68 23.61,-23.86 -1.19,-1.17 -2.5,-2.23 -3.85,-3.21 -0.28,-0.24 -0.83,-0.71 -1.11,-0.95 -0.11,-0.1 -0.32,-0.3 -0.43,-0.4 -0.32,-0.33 -0.96,-0.98 -1.29,-1.31 L 155.87,37 c -0.16,-0.34 -0.49,-1.02 -0.65,-1.36 -0.27,0.32 -0.8,0.96 -1.07,1.29 -2.18,2.37 -4.41,4.68 -6.6,7.04 2.11,2.27 4.25,4.5 6.41,6.72 -0.84,0.64 -1.67,1.29 -2.48,1.96 -3.04,-2.73 -5.95,-5.59 -8.65,-8.65 3.7,-4 7.5,-7.95 11.56,-11.58 z"
       id="path117" />
    <path
       fill="#ce001a"
       opacity="1"
       d="m 121.07,51.97 c 2.85,2.96 8.45,5.52 6.51,10.48 l -0.8,-0.39 c -1.79,-1.51 -3.34,-3.28 -4.86,-5.05 -0.58,-1.51 -1.2,-1.52 -1.83,-0.03 -6.48,7.01 -13.44,13.58 -20.16,20.37 4.12,4.88 9.01,9.03 13.35,13.71 -0.41,0.51 -1.23,1.53 -1.64,2.04 -2.47,-0.9 -4.02,-3.13 -5.85,-4.89 -3.39,-3.57 -7.07,-6.84 -10.43,-10.43 l -0.03,-0.56 c 8.5,-8.49 17.13,-16.86 25.74,-25.25 z"
       id="path119" />
    <path
       fill="#ce001a"
       opacity="1"
       d="m 183.77,57.18 c 1.23,-1.57 2.52,-3.38 4.45,-4.11 0.39,0 1.19,0 1.59,0 1.7,0.93 2.91,2.5 4.28,3.83 6.58,6.87 13.64,13.29 20.06,20.29 l 0.03,0.59 c -2.47,3.58 -6.05,6.23 -8.97,9.43 -5.11,4.84 -9.7,10.25 -15.17,14.68 0.45,-1.35 0.86,-2.73 1.48,-4.02 0.08,-0.11 0.23,-0.34 0.3,-0.46 0.27,-0.3 0.81,-0.91 1.09,-1.21 5.81,-5.3 11.28,-10.98 16.84,-16.54 1.59,-1.11 0.96,-3 -0.61,-3.69 -6.87,-5.82 -13.01,-12.48 -19.23,-18.98 -0.6,-1.5 -1.21,-1.51 -1.85,-0.02 -1,1.19 -2.03,2.35 -3.02,3.56 -0.46,-0.52 -1.37,-1.55 -1.83,-2.07 0.14,-0.32 0.42,-0.96 0.56,-1.28 z"
       id="path121" />
    <path
       fill="#ce001a"
       opacity="1"
       d="m 108.9,77.69 c 3.71,-3.58 7.39,-7.2 11.02,-10.85 0.8,0 2.38,0.02 3.17,0.02 0.56,0.7 1.13,1.39 1.7,2.08 0.23,0.28 0.7,0.84 0.93,1.12 0.16,1.35 0.25,2.71 0.29,4.08 -1.57,-1.24 -3.06,-2.57 -4.49,-3.95 -0.57,0.43 -1.12,0.87 -1.67,1.32 -1.08,0.89 -2.13,1.81 -3.14,2.77 -0.38,0.38 -1.13,1.14 -1.5,1.52 -0.43,0.53 -1.28,1.59 -1.7,2.12 1.94,2.03 4.02,3.93 6.34,5.53 -0.32,0.91 -0.64,1.81 -0.96,2.7 l -0.57,-0.5 c -3.11,-2.69 -5.58,-6.2 -9.42,-7.96 z"
       id="path123" />
    <path
       fill="#ce001a"
       opacity="1"
       d="m 186.85,66.42 c 6.12,1.57 8.58,8.31 14.18,10.87 l 0.09,0.45 c -3.63,1.66 -6.32,4.7 -8.91,7.63 -1.15,-3.5 2.47,-5.29 4.38,-7.54 -2.52,-4.46 -8.5,-6.3 -9.74,-11.41 z"
       id="path125" />
    <path
       fill="#ce001a"
       opacity="1"
       d="m 156.53,70.82 c 0.32,-0.32 0.96,-0.96 1.29,-1.28 5.97,5.26 11.26,11.26 17.1,16.68 0.02,0.74 0.06,2.21 0.08,2.95 -6.58,-5.65 -12.4,-12.18 -18.47,-18.35 z"
       id="path127" />
    <path
       fill="#ce001a"
       opacity="1"
       d="m 138.71,70.53 c 2.49,0.86 4.13,3.01 5.97,4.78 3.09,3.2 6.39,6.21 9.35,9.54 -0.48,0.28 -1.44,0.84 -1.92,1.12 -4.07,-3.8 -7.66,-8.12 -12.16,-11.45 -0.87,-1.14 -0.9,-2.66 -1.24,-3.99 z"
       id="path129" />
    <path
       fill="#ce001a"
       opacity="1"
       d="m 142.15,98.63 c 6.52,-6.68 13.07,-13.38 19.9,-19.75 0.62,0.72 1.24,1.45 1.86,2.19 -1.03,0.55 -2.09,1.09 -2.96,1.88 -5.89,5.6 -11.26,11.74 -17.42,17.05 l -0.52,-0.52 c -0.09,-0.1 -0.29,-0.29 -0.38,-0.38 z"
       id="path131" />
    <path
       fill="#ce001a"
       opacity="1"
       d="m 95.04,111.33 c 10.25,-9.61 19.68,-20.1 30.09,-29.52 -0.06,1.84 -0.13,3.73 -0.94,5.43 -8.15,8.08 -16.45,16.04 -24.28,24.43 3.39,3.32 6.66,6.76 10.33,9.77 0.09,0.09 0.27,0.26 0.37,0.34 0.87,0.86 1.74,1.73 2.61,2.61 0.09,0.09 0.26,0.28 0.34,0.37 2.13,2.47 4.38,4.82 6.54,7.26 0.61,1.49 1.23,1.49 1.84,0 3.82,-4.27 8.09,-8.1 12.05,-12.24 1.06,0.43 2.11,0.87 3.16,1.32 -5.14,5.61 -10.59,10.97 -16.14,16.18 -8.81,-8.48 -17.47,-17.16 -25.97,-25.95 z"
       id="path133" />
    <path
       fill="#ce001a"
       opacity="1"
       d="m 143.77,92.32 c -2.09,-1.69 -5.9,-5 -2.73,-7.5 2.08,2.07 4.13,4.18 6.18,6.29 -0.87,0.99 -2.17,2.84 -3.45,1.21 z"
       id="path135" />
    <path
       fill="#ce001a"
       opacity="1"
       d="m 147.24,106.07 c 7.41,-6.33 13.93,-13.63 20.87,-20.46 0.98,0.52 1.97,1.04 2.96,1.56 -6.86,7.51 -14.25,14.52 -21.46,21.68 -0.8,-0.92 -1.58,-1.85 -2.37,-2.78 z"
       id="path137" />
    <path
       fill="#ce001a"
       opacity="1"
       d="m 109.82,111.37 c 5.41,-5.09 10.42,-10.6 15.89,-15.62 -0.09,0.81 -0.28,2.43 -0.37,3.24 -0.08,0.11 -0.23,0.32 -0.3,0.42 -3.66,4.1 -7.77,7.77 -11.49,11.82 2.38,2.91 5.07,5.57 8.1,7.81 2.42,-2.15 4.19,-5.49 7.59,-6.16 l -0.08,1 c -2.13,3.28 -5.05,5.95 -8.07,8.4 -4.09,-3.27 -7.97,-6.83 -11.27,-10.91 z"
       id="path139" />
    <path
       fill="#ce001a"
       opacity="1"
       d="m 198.34,95.91 c 3.35,1.27 5.27,4.58 7.89,6.86 2.65,3.12 6.47,5.54 8.49,9.01 -5.41,5.22 -10.76,10.5 -16.03,15.87 -0.87,0.84 -1.74,1.77 -2.91,2.17 -1.05,0.26 -1.71,0.91 -1.98,1.95 -0.84,2.39 -2.99,3.9 -4.8,5.51 -3.95,-3.51 -7.56,-7.37 -11.32,-11.08 -1.38,-1.19 0.51,-2.58 1.38,-3.36 3.07,2.98 6.17,5.95 9,9.16 0.61,1.5 1.22,1.5 1.83,0 6.48,-7.02 13.43,-13.58 20.2,-20.33 -4.06,-4.7 -8.73,-8.82 -13.06,-13.26 l -0.37,-0.38 c 0.42,-0.53 1.26,-1.59 1.68,-2.12 z"
       id="path141" />
    <path
       fill="#ce001a"
       opacity="1"
       d="m 164.06,96.9 c 0.41,0.06 1.22,0.19 1.63,0.25 3.11,1.22 5.12,4.47 7.45,6.83 -0.51,0.2 -1.52,0.59 -2.03,0.79 -2.6,-2.35 -5.61,-4.58 -7.05,-7.87 z"
       id="path143" />
    <path
       fill="#ce001a"
       opacity="1"
       d="m 156.06,104.22 c 0.92,-0.52 1.85,-1.04 2.77,-1.56 2.14,2.11 4.21,4.28 6.44,6.3 -0.76,0.71 -1.52,1.43 -2.27,2.14 -2.61,-1.98 -4.95,-4.28 -6.94,-6.88 z"
       id="path145" />
    <path
       fill="#ce001a"
       opacity="1"
       d="m 190.83,104.25 c 0.18,-0.33 0.53,-0.99 0.71,-1.31 2.86,2.82 5.69,5.67 8.59,8.45 -3.34,4.03 -7.14,7.65 -11.06,11.11 -2.43,-2.04 -4.73,-4.24 -6.9,-6.55 0.11,-0.57 0.32,-1.72 0.43,-2.29 2.08,1.6 3.98,3.42 5.77,5.35 3.15,-2.12 5.82,-4.86 8.18,-7.82 -1.94,-2.12 -4.24,-3.97 -5.79,-6.4 z"
       id="path147" />
    <path
       fill="#ce001a"
       opacity="1"
       d="m 122.35,104.61 c 0.26,-0.29 0.79,-0.87 1.05,-1.15 1.24,0.83 2.39,1.78 3.47,2.82 0.43,1.01 0.79,2.05 1.07,3.11 -2.38,-0.85 -4.03,-2.89 -5.59,-4.78 z"
       id="path149" />
    <path
       fill="#ce001a"
       opacity="1"
       d="m 133.05,114.35 c 0.8,-0.16 2.4,-0.5 3.2,-0.66 1.18,1.45 2.52,2.75 3.83,4.08 1.18,3.62 3.52,6.58 5.94,9.46 -3.39,-1.5 -5.55,-4.62 -8.2,-7.06 -1.7,-1.83 -4.05,-3.29 -4.77,-5.82 z"
       id="path151" />
    <path
       fill="#ce001a"
       opacity="1"
       d="m 147.03,127.12 c 0.54,0.29 1.62,0.88 2.16,1.17 -5.41,5.51 -11.09,10.78 -16.26,16.52 0.25,0.24 0.75,0.74 1,0.98 6.86,6.59 13.64,13.27 20.16,20.2 0.59,1.5 1.21,1.51 1.84,0.02 6.53,-6.92 13.27,-13.65 20.14,-20.23 0.27,-0.24 0.81,-0.73 1.08,-0.98 -4.4,-4.47 -8.64,-9.12 -13.43,-13.17 1.35,-0.35 3.01,-0.78 4.01,0.56 4.47,4.29 8.73,8.81 13.2,13.11 -8.46,8.82 -17.14,17.45 -25.94,25.94 -4.63,-4.11 -8.79,-8.7 -13.22,-13.01 -4.41,-4.55 -9.18,-8.74 -13.17,-13.67 5.91,-4.41 10.86,-10 15.8,-15.45 0.86,-0.69 1.74,-1.34 2.63,-1.99 z"
       id="path153" />
    <path
       fill="#ce001a"
       opacity="1"
       d="m 157.73,131.49 c 0.35,0.01 1.07,0.04 1.42,0.06 0.08,0.08 0.23,0.25 0.3,0.34 -2.82,5.27 -8.43,8.44 -12.03,13.21 2.1,2.92 4.69,5.43 7.6,7.54 2.86,-2.14 5.43,-4.66 7.55,-7.54 -2.2,-2.36 -4.41,-4.69 -6.63,-7.02 0.49,-0.25 1.46,-0.74 1.95,-0.99 3.03,2.74 5.92,5.64 8.39,8.91 -3.64,3.85 -7.41,7.58 -11.28,11.2 -4.04,-3.58 -7.62,-7.62 -11.62,-11.23 4.65,-4.95 9.41,-9.82 14.35,-14.48 z"
       id="path155" />
  </g>
  <g
     id="#fff800ff">
    <path
       fill="#fff800"
       opacity="1"
       d="m 154.06,22.95 c 0.46,0.01 1.38,0.04 1.84,0.06 6.49,6.85 13.25,13.46 19.98,20.09 0.08,0.44 0.26,1.32 0.35,1.76 -2.39,0.85 -4.36,2.47 -6.05,4.32 -8.06,8.42 -16.63,16.34 -24.55,24.89 -1.45,-1.42 -2.75,-2.98 -4.12,-4.48 1.58,-1.35 3.17,-2.67 4.74,-4.02 0.09,-0.09 0.28,-0.26 0.37,-0.35 0.87,-0.87 1.74,-1.74 2.61,-2.62 0.08,-0.09 0.25,-0.27 0.33,-0.35 4.26,-4.88 8.81,-9.51 13.73,-13.72 0.1,-0.09 0.3,-0.29 0.4,-0.39 0.3,-0.33 0.91,-0.99 1.21,-1.32 0.11,-0.13 0.34,-0.41 0.46,-0.54 0.4,-0.54 1.22,-1.62 1.63,-2.16 -0.52,-0.79 -1.04,-1.58 -1.55,-2.37 -0.31,-1.33 -1.14,-1.98 -2.5,-1.93 -2.41,-2.49 -4.61,-5.21 -7.32,-7.38 -0.31,0 -0.92,-0.02 -1.23,-0.02 -4.06,3.63 -7.86,7.58 -11.56,11.58 2.7,3.06 5.61,5.92 8.65,8.65 -1.37,1.54 -2.68,3.15 -4.24,4.5 -2.67,-3.22 -5.8,-5.99 -9.19,-8.42 -1.32,-1.3 -2.65,-2.59 -3.99,-3.87 -0.07,-0.47 -0.2,-1.41 -0.27,-1.89 0.3,-0.19 0.89,-0.59 1.18,-0.79 1.33,-0.13 2.1,-0.85 2.31,-2.17 0.62,-0.59 1.24,-1.17 1.86,-1.76 4.6,-3.41 8.59,-7.57 12.06,-12.11 0.97,-1.05 1.92,-2.12 2.86,-3.19 z"
       id="path158" />
    <path
       fill="#fff800"
       opacity="1"
       d="m 120.09,56.98 c 0.45,0 1.37,0.02 1.83,0.03 1.52,1.77 3.07,3.54 4.86,5.05 0.22,1.14 0.45,2.27 0.7,3.4 -0.15,0.68 -0.44,2.06 -0.59,2.75 -0.53,0.19 -1.57,0.55 -2.1,0.73 -0.57,-0.69 -1.14,-1.38 -1.7,-2.08 -0.51,-1.9 -2.73,-2.07 -3.17,-0.02 -3.63,3.65 -7.31,7.27 -11.02,10.85 2.28,3.58 5.56,6.31 8.48,9.32 -1.28,1.44 -2.64,2.8 -4.1,4.05 -4.34,-4.68 -9.23,-8.83 -13.35,-13.71 6.72,-6.79 13.68,-13.36 20.16,-20.37 z"
       id="path160" />
    <path
       fill="#fff800"
       opacity="1"
       d="m 188.06,56.97 c 0.47,0 1.39,0.01 1.85,0.02 6.22,6.5 12.36,13.16 19.23,18.98 0.11,0.47 0.32,1.41 0.42,1.88 -5.56,5.71 -11.46,11.09 -16.78,17.03 l -0.88,0.51 c -0.13,-2.73 -0.05,-5.45 0.15,-8.17 3.29,-2.89 6.61,-5.83 9.07,-9.48 l 0.22,-0.17 c -0.08,-0.07 -0.24,-0.21 -0.31,-0.28 -3.36,-4.71 -7.7,-8.6 -11.94,-12.48 -0.75,0.53 -1.5,1.07 -2.24,1.61 l -0.64,0.45 c -0.15,-0.53 -0.46,-1.59 -0.62,-2.12 -0.05,-0.15 -0.14,-0.46 -0.19,-0.62 -0.15,-0.53 -0.45,-1.61 -0.6,-2.15 l 0.05,-0.65 0.19,-0.8 c 0.99,-1.21 2.02,-2.37 3.02,-3.56 z"
       id="path162" />
    <path
       fill="#fff800"
       opacity="1"
       d="m 162.18,64.2 c 0.5,0.16 1.51,0.48 2.01,0.64 2.61,4.03 6.63,6.84 9.64,10.54 l 0.37,0.55 c -0.68,1.3 -1.03,3.56 0.78,4.11 -0.06,1.45 -0.11,2.89 -0.15,4.34 -5.68,-5.12 -11.13,-10.53 -16.24,-16.21 1.19,-1.32 2.4,-2.64 3.59,-3.97 z"
       id="path164" />
    <path
       fill="#fff800"
       opacity="1"
       d="m 139.3,81.01 c -0.29,-2.1 -0.93,-4.75 0.65,-6.49 2.99,4.84 7.9,8.03 11.41,12.44 -1.27,1.49 -2.67,2.86 -4.14,4.15 -2.05,-2.11 -4.1,-4.22 -6.18,-6.29 -0.28,-0.28 -0.85,-0.84 -1.13,-1.12 l 0.18,-0.77 c -0.2,-0.48 -0.6,-1.44 -0.79,-1.92 z"
       id="path166" />
    <path
       fill="#fff800"
       opacity="1"
       d="m 144.69,100.74 c 6.27,-6.46 12.76,-12.7 19.08,-19.1 0.74,1.65 2.16,2.83 3.75,3.63 l 0.59,0.34 c -6.94,6.83 -13.46,14.13 -20.87,20.46 0.03,-1.14 -0.53,-1.91 -1.68,-2.32 -1.34,-0.41 -2.27,-2.02 -0.87,-3.01 z"
       id="path168" />
    <path
       fill="#fff800"
       opacity="1"
       d="m 124.19,87.24 0.69,-0.63 c 0.09,0.57 0.28,1.7 0.37,2.26 -0.26,2.28 0.29,5.07 -1.52,6.84 -4.86,5.13 -10.18,9.82 -14.97,15.02 -1.05,0.87 0.41,1.86 0.9,2.53 3.76,3.71 7.41,7.54 11.36,11.04 3.32,-2.83 6.43,-5.91 9.21,-9.28 1.37,1.35 4.13,2.57 3.76,4.76 -3.96,4.14 -8.23,7.97 -12.05,12.24 -0.46,0 -1.38,0 -1.84,0 -2.16,-2.44 -4.41,-4.79 -6.54,-7.26 -0.08,-0.09 -0.25,-0.28 -0.34,-0.37 -0.87,-0.88 -1.74,-1.75 -2.61,-2.61 -0.1,-0.08 -0.28,-0.25 -0.37,-0.34 -3.67,-3.01 -6.94,-6.45 -10.33,-9.77 7.83,-8.39 16.13,-16.35 24.28,-24.43 z"
       id="path170" />
    <path
       fill="#fff800"
       opacity="1"
       d="m 161.23,98.96 0.98,-0.08 0.63,-0.03 c 2.92,1.7 5.35,4.42 7.39,7.12 -0.72,1.64 -3.16,4.24 -4.96,2.99 -2.23,-2.02 -4.3,-4.19 -6.44,-6.3 l 0.56,-0.27 c 1.09,-0.38 1.66,-1.15 1.69,-2.3 z"
       id="path172" />
    <path
       fill="#fff800"
       opacity="1"
       d="m 192.63,101.99 c 1.13,-1.27 2.27,-2.58 3.87,-3.28 l 0.53,-0.3 c 4.33,4.44 9,8.56 13.06,13.26 -6.77,6.75 -13.72,13.31 -20.2,20.33 -0.46,0 -1.37,0 -1.83,0 -2.83,-3.21 -5.93,-6.18 -9,-9.16 l -0.08,-0.7 c -0.13,-1.35 -0.31,-2.7 -0.53,-4.04 l 0.61,-0.64 c 0.34,-0.36 1,-1.07 1.33,-1.43 2.84,2.79 5.59,5.68 8.59,8.31 4.34,-4.04 8.67,-8.14 12.63,-12.56 -1.91,-3.84 -6.21,-6.39 -8.98,-9.79 z"
       id="path174" />
    <path
       fill="#fff800"
       opacity="1"
       d="m 136.02,111.91 c 1.65,-0.45 3.38,-0.75 5.06,-0.28 -0.09,2.26 -0.11,4.52 -0.33,6.77 l -0.67,-0.63 c -1.31,-1.33 -2.65,-2.63 -3.83,-4.08 -0.06,-0.45 -0.17,-1.33 -0.23,-1.78 z"
       id="path176" />
    <path
       fill="#fff800"
       opacity="1"
       d="m 150.85,129.13 0.44,0.22 c 0.11,0.05 0.33,0.15 0.44,0.21 1.48,0.67 2.98,1.32 4.46,2 -4.55,4.44 -9.25,8.75 -13.43,13.54 l -0.14,0.16 c 0.07,0.06 0.2,0.18 0.27,0.24 l 0.49,0.47 c 4,3.61 7.58,7.65 11.62,11.23 3.87,-3.62 7.64,-7.35 11.28,-11.2 0.22,-0.27 0.66,-0.81 0.88,-1.08 -2.74,-3.09 -5.83,-5.84 -8.58,-8.92 1.37,-1.43 2.76,-2.86 4.26,-4.16 3.93,5.09 8.95,9.17 13.23,13.94 -6.87,6.58 -13.61,13.31 -20.14,20.23 -0.46,-0.01 -1.38,-0.02 -1.84,-0.02 -6.52,-6.93 -13.3,-13.61 -20.16,-20.2 5.55,-5.64 10.93,-11.49 16.92,-16.66 z"
       id="path178" />
  </g>
  <g
     id="#ffffffff">
    <path
       fill="#ffffff"
       opacity="1"
       d="m 164.9,46.82 c 0.11,-0.13 0.34,-0.41 0.46,-0.54 -0.12,0.13 -0.35,0.41 -0.46,0.54 z"
       id="path181" />
    <path
       fill="#ffffff"
       opacity="1"
       d="m 163.29,48.53 c 0.1,-0.09 0.3,-0.29 0.4,-0.39 -0.1,0.1 -0.3,0.3 -0.4,0.39 z"
       id="path183" />
    <path
       fill="#ffffff"
       opacity="1"
       d="m 128.1,54.58 c 1.69,0.99 4.12,1.48 4.56,3.72 0.72,4.09 0.5,8.32 0.09,12.44 -1.15,6.35 -0.83,12.85 -0.63,19.27 0.79,6.92 2.95,14.75 9.37,18.51 4.53,4.56 10.22,8.22 16.69,9.15 6.85,1.29 13.56,-2.16 18.21,-7.02 -2.96,7.07 -11.6,9.99 -18.79,9.65 5.66,1.87 12.01,-0.71 16.32,-4.48 2.26,-2.28 4.97,-4.98 4.82,-8.43 0.96,-0.96 2.04,-1.96 2.17,-3.41 3.13,-14.2 2.52,-29.05 -0.72,-43.17 -0.53,-1.73 -0.03,-3.43 0.91,-4.9 0.88,0.43 1.77,0.85 2.67,1.27 -0.14,0.32 -0.42,0.96 -0.56,1.28 -1.2,1.83 -0.02,3.92 0.56,5.76 2.39,6.11 6.25,11.92 6.22,18.72 -0.17,6.02 0.95,12.24 -1.02,18.08 -1.27,4.24 -2.8,8.82 -6.23,11.81 -1.63,0.94 -3.54,1.57 -4.64,3.2 0.09,0.52 0.26,1.56 0.35,2.07 0.22,1.34 0.4,2.69 0.53,4.04 -0.3,-0.73 -0.91,-2.17 -1.21,-2.89 -0.82,5.52 -5.99,8.84 -10.94,10.34 -6.16,1.39 -12.86,0.31 -18.06,-3.35 -2.41,-1.78 -5.56,-3.46 -6.17,-6.65 -0.65,-2.54 -0.58,-5.18 -0.61,-7.78 l -0.91,-0.18 c -1.68,-0.47 -3.41,-0.17 -5.06,0.28 -1.43,0.43 -2.74,1.14 -4.07,1.79 -1.45,-2.24 -2.66,-4.67 -3.26,-7.29 0,-1.84 -1.4,-2.91 -3.11,-3.2 0.32,0.77 0.97,2.31 1.29,3.07 -1.08,-1.04 -2.23,-1.99 -3.47,-2.82 0.71,-0.69 1.4,-1.41 2.07,-2.14 0.38,0.42 1.14,1.26 1.52,1.68 0.12,-0.42 0.37,-1.25 0.49,-1.67 -0.72,-10.77 -1.15,-21.67 0.5,-32.38 0.12,-1.2 -0.04,-2.37 -0.5,-3.49 -0.25,-1.13 -0.48,-2.26 -0.7,-3.4 l 0.8,0.39 c 0.04,0.82 0.13,2.48 0.17,3.3 l 1.11,-0.54 c 0.35,-3.54 0.81,-7.31 -0.76,-10.63 m 19.67,61.17 c 2.6,2.47 6.13,4.27 9.75,4.36 -3.03,-1.88 -6.48,-2.96 -9.75,-4.36 z"
       id="path185" />
    <path
       fill="#ffffff"
       opacity="1"
       d="m 139.4,56.24 c 0.09,0.09 0.28,0.27 0.37,0.36 -0.09,-0.09 -0.28,-0.27 -0.37,-0.36 z"
       id="path187" />
    <path
       fill="#ffffff"
       opacity="1"
       d="m 178.27,56.64 c 0.12,-0.07 0.35,-0.21 0.46,-0.28 -0.11,0.07 -0.34,0.21 -0.46,0.28 z"
       id="path189" />
    <path
       fill="#ffffff"
       opacity="1"
       d="m 175.04,62.44 c 1.01,-1.71 2.08,-3.38 3.39,-4.87 0.59,5.87 2.44,11.53 2.88,17.42 1.56,8.3 0.41,16.8 -1.29,24.97 -1.79,7.84 -7.65,15.31 -16.04,16.35 -8.76,1.05 -17.41,-3.73 -22.83,-10.41 -7.04,-8.07 -8.52,-19.44 -7.98,-29.76 0.81,-5.5 0.78,-11.04 1.01,-16.58 4.44,6.53 3.81,14.92 3.79,22.44 0.17,7.99 1.12,16.51 5.74,23.28 6.43,9.51 22.26,9.69 29.28,0.76 3.84,-4.37 4.34,-10.56 3.75,-16.1 -0.67,-5.99 -0.28,-12.06 -1.24,-18.02 l -0.05,-0.72 c -0.17,-2.86 -0.18,-5.74 -0.76,-8.55 -0.17,-0.75 -0.51,-2.24 -0.68,-2.99 l 0.51,0.84 c 0.13,0.48 0.39,1.45 0.52,1.94 z"
       id="path191" />
    <path
       fill="#ffffff"
       opacity="1"
       d="m 184.8,61.98 c 0.01,-0.16 0.03,-0.48 0.05,-0.65 z"
       id="path193" />
    <path
       fill="#ffffff"
       opacity="1"
       d="m 149.23,62.6 c 0.08,-0.09 0.25,-0.27 0.33,-0.35 -0.08,0.08 -0.25,0.26 -0.33,0.35 z"
       id="path195" />
    <path
       fill="#ffffff"
       opacity="1"
       d="m 185.4,64.13 c 0.05,0.16 0.14,0.47 0.19,0.62 -0.05,-0.15 -0.14,-0.46 -0.19,-0.62 z"
       id="path197" />
    <path
       fill="#ffffff"
       opacity="1"
       d="m 146.25,65.57 c 0.09,-0.09 0.28,-0.26 0.37,-0.35 -0.09,0.09 -0.28,0.26 -0.37,0.35 z"
       id="path199" />
    <path
       fill="#ffffff"
       opacity="1"
       d="m 119.85,71.51 c 0.72,1.04 0.66,2.9 1.98,3.4 0.19,-0.35 0.56,-1.06 0.75,-1.41 0.77,0.59 1.53,1.19 2.3,1.79 0.05,1.49 0.09,2.99 0.13,4.48 -0.5,0.36 -1.49,1.07 -1.98,1.43 -0.45,-1.67 1.14,-4.59 -0.97,-5.34 -1.73,2.05 2.12,7.35 -2.21,7.59 -0.68,-3.95 -1.12,-8.01 0,-11.94 z"
       id="path201" />
    <path
       fill="#ffffff"
       opacity="1"
       d="m 189.25,72.37 c 1.85,-0.3 2.78,3.67 1.16,4.23 -0.7,-1.18 -1.71,-2.85 -1.16,-4.23 z"
       id="path203" />
    <path
       fill="#ffffff"
       opacity="1"
       d="m 115.21,75.8 c 0.37,-0.38 1.12,-1.14 1.5,-1.52 0.84,1.88 1.24,3.9 1.3,5.95 -1.25,-1.26 -2.09,-2.82 -2.8,-4.43 z"
       id="path205" />
    <path
       fill="#ffffff"
       opacity="1"
       d="m 174.2,75.93 c 1,1.13 0.95,2.71 0.78,4.11 -1.81,-0.55 -1.46,-2.81 -0.78,-4.11 z"
       id="path207" />
    <path
       fill="#ffffff"
       opacity="1"
       d="m 192.22,75.74 c 0.87,0.6 1.74,1.22 2.6,1.84 -0.92,0.85 -1.83,1.69 -2.76,2.52 0.03,-1.45 0.09,-2.91 0.16,-4.36 z"
       id="path209" />
    <path
       fill="#ffffff"
       opacity="1"
       d="m 201.03,77.29 c 0.07,0.07 0.23,0.21 0.31,0.28 l -0.22,0.17 z"
       id="path211" />
    <path
       fill="#ffffff"
       opacity="1"
       d="m 214.15,77.19 c 0.01,0.15 0.02,0.44 0.03,0.59 z"
       id="path213" />
    <path
       fill="#ffffff"
       opacity="1"
       d="m 139.3,81.01 c 0.19,0.48 0.59,1.44 0.79,1.92 l -0.86,-0.18 c 0.02,-0.44 0.05,-1.31 0.07,-1.74 z"
       id="path215" />
    <path
       fill="#ffffff"
       opacity="1"
       d="m 163.91,81.07 c 1.65,0.14 4.14,2.44 3.61,4.2 -1.59,-0.8 -3.01,-1.98 -3.75,-3.63 z"
       id="path217" />
    <path
       fill="#ffffff"
       opacity="1"
       d="m 172.27,89.41 c 0.11,0.08 0.34,0.23 0.46,0.31 -0.12,-0.08 -0.35,-0.23 -0.46,-0.31 z"
       id="path219" />
    <path
       fill="#ffffff"
       opacity="1"
       d="m 168.11,92.61 c 0.09,-0.1 0.29,-0.31 0.39,-0.41 -0.1,0.1 -0.3,0.31 -0.39,0.41 z"
       id="path221" />
    <path
       fill="#ffffff"
       opacity="1"
       d="m 166.89,94.65 c -0.06,-0.13 -0.18,-0.4 -0.24,-0.54 z"
       id="path223" />
    <path
       fill="#ffffff"
       opacity="1"
       d="m 171.78,99.5 c 0.59,-1.44 1.66,-2.59 2.81,-3.62 1.45,1.45 -1.13,4.61 -2.81,3.62 z"
       id="path225" />
    <path
       fill="#ffffff"
       opacity="1"
       d="m 191.52,97.87 c 0.08,-0.11 0.23,-0.34 0.3,-0.46 -0.07,0.12 -0.22,0.35 -0.3,0.46 z"
       id="path227" />
    <path
       fill="#ffffff"
       opacity="1"
       d="m 162.21,98.88 c 0.14,-0.15 0.43,-0.46 0.58,-0.61 l 0.05,0.58 z"
       id="path229" />
    <path
       fill="#ffffff"
       opacity="1"
       d="m 196.5,98.71 c 0.04,-0.17 0.12,-0.51 0.16,-0.68 l 0.37,0.38 z"
       id="path231" />
    <path
       fill="#ffffff"
       opacity="1"
       d="m 142.63,99.1 c 0.09,0.09 0.29,0.28 0.38,0.38 -0.09,-0.1 -0.29,-0.29 -0.38,-0.38 z"
       id="path233" />
    <path
       fill="#ffffff"
       opacity="1"
       d="m 159.39,102.39 c -0.49,-1.55 0.07,-2.32 1.69,-2.3 -0.03,1.15 -0.6,1.92 -1.69,2.3 z"
       id="path235" />
    <path
       fill="#ffffff"
       opacity="1"
       d="m 173.23,101.24 c 0.57,0.55 0.57,0.55 0,0 z"
       id="path237" />
    <path
       fill="#ffffff"
       opacity="1"
       d="m 145.56,103.75 c 1.15,0.41 1.71,1.18 1.68,2.32 -1.61,-0.05 -2.17,-0.82 -1.68,-2.32 z"
       id="path239" />
    <path
       fill="#ffffff"
       opacity="1"
       d="m 118.06,110.03 c -0.17,-2 1.76,-2.93 2.98,-4.13 -0.03,3.08 -1.05,6.01 -1.94,8.92 -2.18,-0.67 -1.01,-3.22 -1.04,-4.79 z"
       id="path241" />
    <path
       fill="#ffffff"
       opacity="1"
       d="m 154.13,106.22 c 0.41,-0.01 1.23,-0.04 1.64,-0.06 l 0.01,0.81 c -0.4,0.01 -1.2,0.04 -1.6,0.06 z"
       id="path243" />
    <path
       fill="#ffffff"
       opacity="1"
       d="m 188.96,105.89 c 3.06,1.58 3.34,4.95 3.45,8.03 -0.37,0.21 -1.1,0.62 -1.47,0.83 -0.88,-2.9 -1.91,-5.8 -1.98,-8.86 z"
       id="path245" />
    <path
       fill="#ffffff"
       opacity="1"
       d="m 122.44,106.98 c 2.78,1.78 1.57,5.05 1.48,7.78 -1.08,0.83 -2.16,1.68 -3.26,2.49 0.25,-3.48 1.16,-6.85 1.78,-10.27 z"
       id="path247" />
    <path
       fill="#ffffff"
       opacity="1"
       d="m 185.98,114.72 c -0.19,-2.16 0.24,-4.31 1.8,-5.91 0.9,2.74 1.4,5.6 1.66,8.47 -1.18,-0.82 -2.32,-1.7 -3.46,-2.56 z"
       id="path249" />
    <path
       fill="#ffffff"
       opacity="1"
       d="m 128.24,110.14 c 0.59,0.6 0.59,0.6 0,0 z"
       id="path251" />
    <path
       fill="#ffffff"
       opacity="1"
       d="m 153.22,109.74 c 1.06,-0.25 2,0.01 2.8,0.79 -1.43,1.04 -2.36,0.78 -2.8,-0.79 z"
       id="path253" />
    <path
       fill="#ffffff"
       opacity="1"
       d="m 126.19,111.25 c 0.63,0.62 0.63,0.62 0,0 z"
       id="path255" />
    <path
       fill="#ffffff"
       opacity="1"
       d="m 194.18,111.23 c 0.62,0.53 0.62,0.53 0,0 z"
       id="path257" />
    <path
       fill="#ffffff"
       opacity="1"
       d="m 110.24,121.44 c 0.09,0.09 0.27,0.26 0.37,0.34 -0.1,-0.08 -0.28,-0.25 -0.37,-0.34 z"
       id="path259" />
    <path
       fill="#ffffff"
       opacity="1"
       d="m 113.22,124.39 c 0.09,0.09 0.26,0.28 0.34,0.37 -0.08,-0.09 -0.25,-0.28 -0.34,-0.37 z"
       id="path261" />
    <path
       fill="#ffffff"
       opacity="1"
       d="m 193.8,131.77 c 0.27,-1.04 0.93,-1.69 1.98,-1.95 0.33,1.65 -0.33,2.3 -1.98,1.95 z"
       id="path263" />
    <path
       fill="#ffffff"
       opacity="1"
       d="m 112.22,130.64 c 0.31,0.27 0.91,0.8 1.22,1.07 -0.63,4.31 -2.99,8.26 -5.21,11.96 -0.01,-0.63 -0.04,-1.89 -0.05,-2.53 1.89,-3.27 2.59,-7.04 4.04,-10.5 z"
       id="path265" />
    <path
       fill="#ffffff"
       opacity="1"
       d="m 196.38,132.19 c 0.34,-0.36 1.03,-1.08 1.38,-1.44 1.59,3.75 2.82,7.68 3.53,11.69 -2.41,-2.95 -3.6,-6.72 -4.91,-10.25 z"
       id="path267" />
    <path
       fill="#ffffff"
       opacity="1"
       d="m 107.87,146.77 c 2.69,-4.24 4.72,-8.84 7.04,-13.28 1.35,1.21 2.68,2.44 4.01,3.66 -2.65,7.35 -5.07,14.79 -7.69,22.16 -0.47,1.57 -1.34,3.21 -0.74,4.87 0.1,0.42 0.29,1.26 0.39,1.68 l -0.51,-0.37 c -1.77,-1.24 -3.55,-2.57 -5.65,-3.19 -2,-0.47 -3.32,1.47 -4.6,2.64 1.69,-0.35 3.37,-0.76 5.06,-1.12 -0.74,0.98 -1.48,1.95 -2.21,2.93 -0.67,-0.27 -2.02,-0.81 -2.69,-1.08 0.9,2.16 3.62,4.27 2.36,6.81 -1.52,0.96 -3.24,1.53 -4.9,2.2 l 0.73,0.75 0.66,0.71 c -0.57,-0.15 -1.7,-0.46 -2.26,-0.62 -0.83,-0.75 -1.74,-0.91 -2.72,-0.47 0.21,0.33 0.62,0.99 0.82,1.33 l 0.46,0.47 c -0.5,-0.13 -1.49,-0.39 -1.98,-0.52 -0.38,-0.09 -1.14,-0.27 -1.52,-0.36 -1.95,2.16 -1.18,5.18 -1.47,7.81 l -0.33,0.08 c -5.5,1.26 -10.97,2.71 -16.07,5.18 0.69,-3.34 0.94,-7.03 3.17,-9.79 2.09,-2.55 4.85,-4.43 7.38,-6.5 -0.33,-2.23 -0.64,-4.46 -0.84,-6.7 2.49,-0.56 5.01,-1.04 7.38,-2.02 -0.07,-0.72 -0.2,-2.14 -0.27,-2.86 -1.75,-0.02 -3.5,0 -5.25,0.01 4.99,-9.51 16.71,-12.95 21.69,-22.42 0.21,0.6 0.64,1.79 0.86,2.38 -2.02,2.26 -2.74,5.29 -4.07,7.94 -5.61,11.84 -15.77,20.66 -22.24,31.94 3.89,-4.15 7.96,-8.14 11.55,-12.55 4.47,-5.95 8.67,-12.12 12.43,-18.53 0.82,-1.07 0.42,-2.4 0.36,-3.62 0.41,0.11 1.24,0.34 1.66,0.45 z"
       id="path269" />
    <path
       fill="#ffffff"
       opacity="1"
       d="m 191.08,137.17 c 1.34,-1.2 2.67,-2.42 4.02,-3.61 2.46,4.73 4.59,9.65 7.76,13.97 3.22,5.84 6.84,11.46 10.72,16.89 4.13,6.12 9.51,11.24 14.54,16.6 -3.86,-6.94 -9.42,-12.72 -14.05,-19.13 -5.43,-6.82 -9.82,-14.55 -12.11,-23 6.44,8.86 17.27,13.33 22.95,22.81 -1.89,-0.28 -3.78,-0.53 -5.68,-0.72 -0.1,0.77 -0.31,2.29 -0.42,3.06 2.38,0.94 4.9,1.45 7.38,2.01 -0.19,2.24 -0.5,4.46 -0.82,6.68 2.53,2.09 5.29,3.97 7.39,6.53 2.2,2.76 2.44,6.44 3.15,9.77 -4.72,-2.43 -9.94,-3.41 -14.91,-5.1 -3.25,-1.54 -0.45,-5.81 -2.93,-7.95 -0.38,0.09 -1.13,0.26 -1.51,0.35 -0.5,0.13 -1.49,0.38 -1.99,0.51 l 0.46,-0.46 c 0.2,-0.33 0.62,-0.99 0.82,-1.32 -0.99,-0.45 -1.89,-0.29 -2.72,0.46 -0.57,0.16 -1.7,0.47 -2.27,0.63 l 0.65,-0.72 0.72,-0.76 c -1.66,-0.66 -3.37,-1.24 -4.9,-2.18 -1.2,-2.55 1.4,-4.64 2.33,-6.79 -0.66,0.26 -1.97,0.78 -2.63,1.04 -0.75,-0.98 -1.5,-1.95 -2.23,-2.92 1.69,0.36 3.37,0.78 5.07,1.12 -1.29,-1.16 -2.59,-3.1 -4.59,-2.64 -2.12,0.61 -3.91,1.97 -5.68,3.23 l -0.51,0.38 c 0.1,-0.44 0.31,-1.31 0.41,-1.74 0.6,-1.66 -0.28,-3.29 -0.75,-4.85 -2.62,-7.36 -5.04,-14.79 -7.67,-22.15 z"
       id="path271" />
    <path
       fill="#ffffff"
       opacity="1"
       d="m 104.46,140.74 c 0.09,-0.1 0.29,-0.3 0.39,-0.4 -0.1,0.1 -0.3,0.3 -0.39,0.4 z"
       id="path273" />
    <path
       fill="#ffffff"
       opacity="1"
       d="m 119.33,140.16 c -0.06,0.13 -0.17,0.38 -0.22,0.51 z"
       id="path275" />
    <path
       fill="#ffffff"
       opacity="1"
       d="m 201.29,142.44 c 0.62,0.53 0.62,0.53 0,0 z"
       id="path277" />
    <path
       fill="#ffffff"
       opacity="1"
       d="m 100.43,144.91 c 0.09,-0.09 0.29,-0.28 0.39,-0.37 -0.1,0.09 -0.3,0.28 -0.39,0.37 z"
       id="path279" />
    <path
       fill="#ffffff"
       opacity="1"
       d="m 202.19,144.21 c 0.62,0.61 0.62,0.61 0,0 z"
       id="path281" />
    <path
       fill="#ffffff"
       opacity="1"
       d="m 142.62,145.26 0.14,-0.16 0.13,0.4 c -0.07,-0.06 -0.2,-0.18 -0.27,-0.24 z"
       id="path283" />
    <path
       fill="#ffffff"
       opacity="1"
       d="m 87.28,162.43 c 0.75,-1.25 3.46,-0.35 2.35,1.13 -0.78,1.21 -3.59,0.4 -2.35,-1.13 z"
       id="path285" />
    <path
       fill="#ffffff"
       opacity="1"
       d="m 111.08,162.96 c 0.08,-0.17 0.24,-0.52 0.31,-0.69 -0.07,0.17 -0.23,0.52 -0.31,0.69 z"
       id="path287" />
    <path
       fill="#ffffff"
       opacity="1"
       d="m 198.6,162.26 c 0.08,0.17 0.24,0.51 0.31,0.68 -0.07,-0.17 -0.23,-0.51 -0.31,-0.68 z"
       id="path289" />
    <path
       fill="#ffffff"
       opacity="1"
       d="m 220.4,162.37 c 0.85,-0.8 3.14,0.13 2.29,1.4 -0.87,0.83 -3.17,-0.13 -2.29,-1.4 z"
       id="path291" />
  </g>
  <path
     style="fill:#9b1123;fill-opacity:0.74902;stroke-width:0.8"
     d=""
     id="path3278"
     inkscape:connector-curvature="0" />
  <path
     style="fill:#9b1123;fill-opacity:0.74902;stroke-width:0.8"
     d=""
     id="path3280"
     inkscape:connector-curvature="0" />
  <path
     style="fill:#9b1123;fill-opacity:0.74902;stroke-width:0.8"
     d=""
     id="path3282"
     inkscape:connector-curvature="0" />
  <path
     style="fill:#9b1123;fill-opacity:0.74902;stroke-width:0.8"
     d="m 194.04687,131.42152 c 0,-0.36259 0.99839,-1.36098 1.36098,-1.36098 0.35032,0 0.37565,1.05245 0.0336,1.39454 -0.34209,0.34209 -1.39454,0.31676 -1.39454,-0.0335 z"
     id="path3284"
     inkscape:connector-curvature="0" />
</svg>
