<?xml version="1.0" encoding="UTF-8" standalone="no"?>
<svg
   width="675"
   height="450"
   id="svg2"
   sodipodi:version="0.32"
   inkscape:version="1.1.2 (0a00cf5339, 2022-02-04)"
   version="1.1"
   sodipodi:docname="labarum.svg"
   xmlns:inkscape="http://www.inkscape.org/namespaces/inkscape"
   xmlns:sodipodi="http://sodipodi.sourceforge.net/DTD/sodipodi-0.dtd"
   xmlns="http://www.w3.org/2000/svg"
   xmlns:svg="http://www.w3.org/2000/svg">
  <sodipodi:namedview
     id="namedview8"
     pagecolor="#ffffff"
     bordercolor="#666666"
     borderopacity="1.0"
     inkscape:pageshadow="2"
     inkscape:pageopacity="0.0"
     inkscape:pagecheckerboard="0"
     showgrid="false"
     inkscape:zoom="1.3042192"
     inkscape:cx="337.36661"
     inkscape:cy="225.03886"
     inkscape:window-width="1187"
     inkscape:window-height="850"
     inkscape:window-x="425"
     inkscape:window-y="63"
     inkscape:window-maximized="0"
     inkscape:current-layer="svg2" />
  <defs
     id="defs11">
    <inkscape:perspective
       sodipodi:type="inkscape:persp3d"
       inkscape:vp_x="0 : 225 : 1"
       inkscape:vp_y="0 : 1000 : 0"
       inkscape:vp_z="675 : 225 : 1"
       inkscape:persp3d-origin="337.5 : 150 : 1"
       id="perspective15" />
  </defs>
  <path
     style="fill:#ffffff;stroke:none"
     d="M 0,0 V 450 H 675 V 0 Z"
     id="path4" />
  <path
     style="fill:#800000;stroke:none"
     d="M 283.37133,8.7591912 C 275.77558,16.733121 289.09152,31.087554 299.12686,42 l 0.318,46 v 99 l -38,-25.989 -87,-60.986 -28,-19.6114 -11.987,-9.5872 L 131.44486,56 c -13.345,1.8441 -22.567,21.6748 -29.75311,32 -2.206997,3.1711 -8.487197,10.1083 -5.215297,14.258 3.0902,3.919 12.416407,-0.039 16.968407,2.086 11.891,5.551 23.296,15.773 34,23.398 29.173,20.778 58.842,40.862 88,61.66 17.158,12.238 34.421,26.659 53,36.598 v 1 c -15.838,8.473 -30.222,20.609 -45,30.809 -31.831,21.973 -63.208,44.616 -95,66.647 -8.998,6.235 -20.343,17.491 -31,20.245 -3.75,0.97 -14.6689,-0.42 -15.62351,4.447 -0.9203,4.692 4.63301,10.321 7.07951,13.852 8.574,12.375 16.602,23.725 27.544,34 h 1 c 2.911,-5.252 1.604,-12.328 5.318,-16.946 9.934,-12.352 29.663,-21.576 42.682,-30.598 28.082,-19.46 56.611,-38.607 84,-59.018 9.813,-7.313 20.894,-13.239 30,-21.438 v 110 c 0,12.095 1.77438,35.37581 -3.66062,46.24081 -4.711,9.419 -13.21338,10.78919 -22.33938,13.75919 2.096,6.316 12.505,4 18,4 h 57 c 5.84,0 18.784,2.677 21,-4 -9.16,-2.981 -18.90038,-3.37238 -22.77638,-13.51838 -4.779,-12.509 -3.22362,-36.09362 -3.22362,-49.48162 V 267 c 12.69,11.883 28.828,20.666 43,30.698 29.248,20.704 58.453,41.524 88,61.804 6.251,4.29 16.075,8.921 20.062,15.538 3.166,5.253 1.628,15.122 8.047,17.947 5.05,2.222 9.265,-1.548 12.391,-5.161 7.394,-8.545 13.028,-18.68 19.63,-27.826 2.445,-3.386 8.088,-9.152 6.247,-13.772 -2.291,-5.75 -13.67,-2.482 -18.377,-3.647 -9.744,-2.411 -19.895,-12.536 -28,-18.273 -30.91,-21.881 -61.871,-43.728 -93,-65.283 -14.047,-9.727 -34.575,-19.434 -45,-33.025 16.212,-8.065 31.213,-21.114 46,-31.576 29.9,-21.154 59.824,-42.325 90,-63.083 11.833,-8.14 23.938,-19.636 37,-25.599 5.414,-2.471 12.175,4.561 16.639,-0.075 3.795,-3.942 -0.985,-10.2791 -3.388,-13.667 -6.174,-8.7033 -12.465,-17.4325 -18.85,-25.9815 -2.421,-3.2416 -6.787,-7.9511 -11.343,-7.7168 -6.359,0.327 -4.135,11.5765 -6.916,15.243 -6.474,8.5369 -20.39,15.0916 -29.142,21.2539 -44.224,31.1374 -88.195,62.9364 -133,93.2014 v -62 c 29.433,0 60.703,-5.228 85,-23.156 28.652,-21.1405 25.495,-54.3774 -3,-73.8154 C 382.68286,-0.142548 332.36433,8.7591912 283.37133,8.7591912 Z"
     id="path6"
     sodipodi:nodetypes="cccccccccsssccccccsssccsssccsccccsccscsssssscscsssssssssccccc" />
  <path
     style="fill:#ffffff;stroke:none"
     d="m 339.72243,46 v 46 c 11.801,0 32.474,3.9622 42.996,-1.6381 15.301,-8.1439 17.126,-35.9416 0,-43.4236 C 371.72443,42.1349 351.69743,46 339.72243,46 Z"
     id="path8" />
</svg>
