<?xml version="1.0" encoding="UTF-8" standalone="no"?>
<svg
   width="165"
   height="110"
   version="1.1"
   id="svg20"
   sodipodi:docname="liberia.svg"
   inkscape:version="1.1.2 (0a00cf5339, 2022-02-04)"
   xmlns:inkscape="http://www.inkscape.org/namespaces/inkscape"
   xmlns:sodipodi="http://sodipodi.sourceforge.net/DTD/sodipodi-0.dtd"
   xmlns="http://www.w3.org/2000/svg"
   xmlns:svg="http://www.w3.org/2000/svg">
  <defs
     id="defs24" />
  <sodipodi:namedview
     id="namedview22"
     pagecolor="#ffffff"
     bordercolor="#666666"
     borderopacity="1.0"
     inkscape:pageshadow="2"
     inkscape:pageopacity="0.0"
     inkscape:pagecheckerboard="0"
     showgrid="false"
     inkscape:zoom="5.3354421"
     inkscape:cx="82.467393"
     inkscape:cy="55.0095"
     inkscape:window-width="1131"
     inkscape:window-height="818"
     inkscape:window-x="485"
     inkscape:window-y="72"
     inkscape:window-maximized="0"
     inkscape:current-layer="svg20" />
  <rect
     fill="#ffffff"
     width="165"
     height="110"
     id="rect2" />
  <rect
     fill="#bd3d44"
     width="165"
     height="10"
     id="rect4" />
  <rect
     fill="#bd3d44"
     width="165"
     height="10"
     y="20"
     id="rect6" />
  <rect
     fill="#bd3d44"
     width="165"
     height="10"
     y="40"
     id="rect8" />
  <rect
     fill="#bd3d44"
     width="165"
     height="10"
     y="60"
     id="rect10" />
  <rect
     fill="#bd3d44"
     width="165"
     height="10"
     y="80"
     id="rect12" />
  <rect
     fill="#bd3d44"
     width="165"
     height="10"
     y="100"
     id="rect14" />
  <rect
     fill="#192f5d"
     width="50"
     height="50"
     id="rect16" />
  <polygon
     sodipodi:type="star"
     fill="#ffffff"
     sodipodi:sides="5"
     points="0,-4.004 0.898954009,-1.2373040455 3.808030291,-1.2373040455 1.454538141067,0.4726080910 2.35349215,3.2393040455 0,1.529391909 -2.35349215,3.2393040455 -1.454538141067,0.472608091 -3.808030291,-1.2373040455 -0.898954009,-1.2373040455 0,-4.004 "
     sodipodi:r1="4"
     sodipodi:r2="1.5293919"
     transform="matrix(4.1417556,0,0,4.1417556,24.99993,26.583591)"
     d="M 1.3084868e-6,-4.0040002 0.89895399,-1.237304 3.8080309,-1.2373029 1.4545381,0.47260808 2.3534912,3.239305 0,1.5293919 -2.3534933,3.2393034 -1.4545381,0.47260809 -3.8080301,-1.2373053 -0.898954,-1.237304 1.3084868e-6,-4.0040002 z"
     id="polygon18" />
</svg>
