<?xml version="1.0" encoding="UTF-8" standalone="no"?>
<svg
   xmlns:dc="http://purl.org/dc/elements/1.1/"
   xmlns:cc="http://creativecommons.org/ns#"
   xmlns:rdf="http://www.w3.org/1999/02/22-rdf-syntax-ns#"
   xmlns:svg="http://www.w3.org/2000/svg"
   xmlns="http://www.w3.org/2000/svg"
   xmlns:sodipodi="http://sodipodi.sourceforge.net/DTD/sodipodi-0.dtd"
   xmlns:inkscape="http://www.inkscape.org/namespaces/inkscape"
   id="svg548"
   sodipodi:version="0.32"
   width="729.91998"
   height="486.61002"
   sodipodi:docname="maasai.svg"
   inkscape:version="1.0.2 (e86c870879, 2021-01-15)"
   inkscape:output_extension="org.inkscape.output.svg.inkscape"
   version="1.1">
  <metadata
     id="metadata4107">
    <rdf:RDF>
      <cc:Work
         rdf:about="">
        <dc:format>image/svg+xml</dc:format>
        <dc:type
           rdf:resource="http://purl.org/dc/dcmitype/StillImage" />
      </cc:Work>
    </rdf:RDF>
  </metadata>
  <defs
     id="defs550">
    <inkscape:perspective
       sodipodi:type="inkscape:persp3d"
       inkscape:vp_x="0 : 259.52535 : 1"
       inkscape:vp_y="0 : 1066.6667 : 0"
       inkscape:vp_z="778.58268 : 259.52535 : 1"
       inkscape:persp3d-origin="389.29134 : 173.01692 : 1"
       id="perspective21" />
  </defs>
  <sodipodi:namedview
     id="base"
     inkscape:zoom="1.3"
     inkscape:cx="395.28248"
     inkscape:cy="233.71289"
     inkscape:window-width="1356"
     inkscape:window-height="956"
     inkscape:window-x="0"
     inkscape:window-y="27"
     inkscape:current-layer="g4850"
     showgrid="false"
     inkscape:document-rotation="0"
     inkscape:window-maximized="0" />
  <rect
     y="0"
     x="0"
     height="486.60999"
     width="729.91998"
     id="rect551"
     style="font-size:12px;fill:#ffffff;fill-opacity:1;fill-rule:evenodd;stroke:none;stroke-width:2.1813;stroke-dasharray:none;stroke-opacity:1" />
  <rect
     y="0.61001527"
     x="0"
     height="486"
     width="729.91998"
     id="rect553"
     style="font-size:12px;fill:#d40000;fill-opacity:1;fill-rule:evenodd;stroke-width:1pt" />
  <g
     id="g4850"
     transform="translate(3.958874,0.0914852)">
    <path
       style="fill:#ffffff;fill-opacity:1;fill-rule:evenodd;stroke:#000000;stroke-width:1.03763;stroke-linecap:butt;stroke-linejoin:miter;stroke-dasharray:none;stroke-opacity:1"
       d="m 269.58744,421.99799 c 36.45222,-67.84478 158.65297,-292.5667 157.4473,-293.2145 -19.98447,-11.72914 16.15275,-29.746617 42.69264,-71.993396 -18.90735,45.405336 -16.90164,87.780536 -36.31252,75.581856 -32.28312,60.93315 -132.07343,247.18918 -156.88568,293.19116 -2.62719,-1.41156 -3.39942,-1.98695 -6.94174,-3.56512 z"
       id="path565"
       sodipodi:nodetypes="cccccc" />
    <path
       style="fill:#ffffff;fill-opacity:1;fill-rule:evenodd;stroke:#000000;stroke-width:1.03763;stroke-linecap:butt;stroke-linejoin:miter;stroke-dasharray:none;stroke-opacity:1"
       d="m 452.41988,424.66099 c -36.45222,-67.84478 -158.65297,-292.5667 -157.4473,-293.2145 19.98447,-11.72914 -16.15275,-29.74662 -42.69264,-71.993396 18.90735,45.405336 16.90164,87.780536 36.31252,75.581856 32.28312,60.93315 132.07343,247.18918 156.88568,293.19116 2.62719,-1.41156 3.39942,-1.98695 6.94174,-3.56512 z"
       id="path568"
       sodipodi:nodetypes="cccccc" />
    <path
       style="fill:#ffffff;fill-opacity:1;fill-rule:evenodd;stroke:#000000;stroke-width:1.09065;stroke-linecap:butt;stroke-linejoin:miter;stroke-dasharray:none;stroke-opacity:1"
       d="m 359.77238,85.063883 c 114.84977,80.961107 112.96512,276.766157 0,344.549307 -105.43528,-71.54662 -120.49788,-265.47285 0,-344.549307 z"
       id="path555"
       sodipodi:nodetypes="ccc" />
    <ellipse
       style="fill:#000000;fill-opacity:1;fill-rule:evenodd;stroke:none;stroke-width:1pt;stroke-linecap:butt;stroke-linejoin:miter;stroke-opacity:1"
       id="path557"
       transform="matrix(2.908399,0,0,2.908399,-671.9842,-1185.112)"
       cx="355.07428"
       cy="494.66577"
       rx="4.8551788"
       ry="7.4445949" />
    <path
       style="fill:#000000;fill-opacity:1;fill-rule:evenodd;stroke:#000000;stroke-width:0.302378;stroke-linecap:butt;stroke-linejoin:miter;stroke-dasharray:none;stroke-opacity:1"
       d="m 289.42425,177.31974 c 19.59259,36.47922 19.27108,124.70449 0,155.24603 -17.98653,-32.23727 -20.55611,-119.61599 0,-155.24603 z"
       id="path562"
       sodipodi:nodetypes="ccc" />
    <path
       style="fill:#000000;fill-opacity:1;fill-rule:evenodd;stroke:#000000;stroke-width:0.302378;stroke-linecap:butt;stroke-linejoin:miter;stroke-dasharray:none;stroke-opacity:1"
       d="m 432.51455,179.20234 c 19.59259,36.47922 19.27108,124.70449 0,155.24603 -17.98653,-32.23727 -20.55611,-119.61599 0,-155.24603 z"
       id="path563"
       sodipodi:nodetypes="ccc" />
    <rect
       style="opacity:1;fill:#000000;fill-opacity:1"
       id="rect2414"
       width="16.153847"
       height="109.23077"
       x="367.57959"
       y="113.4416" />
    <rect
       style="opacity:1;fill:#000000;fill-opacity:1"
       id="rect2416"
       width="16.153847"
       height="109.23077"
       x="336.42572"
       y="114.28775" />
    <rect
       style="opacity:1;fill:#000000;fill-opacity:1"
       id="rect2426"
       width="16.153847"
       height="109.23077"
       x="367.57999"
       y="283.01852" />
    <rect
       style="opacity:1;fill:#000000;fill-opacity:1"
       id="rect2428"
       width="16.153847"
       height="109.23077"
       x="336.42612"
       y="283.86465" />
  </g>
</svg>
