<?xml version="1.0" encoding="UTF-8" standalone="no"?>
<svg
   version="1"
   x="0"
   y="0"
   width="196.87376mm"
   height="131.49055mm"
   id="svg378"
   sodipodi:version="0.32"
   sodipodi:docname="malaysia.svg"
   inkscape:version="1.1.2 (0a00cf5339, 2022-02-04)"
   xmlns:inkscape="http://www.inkscape.org/namespaces/inkscape"
   xmlns:sodipodi="http://sodipodi.sourceforge.net/DTD/sodipodi-0.dtd"
   xmlns="http://www.w3.org/2000/svg"
   xmlns:svg="http://www.w3.org/2000/svg"
   xmlns:rdf="http://www.w3.org/1999/02/22-rdf-syntax-ns#"
   xmlns:cc="http://creativecommons.org/ns#"
   xmlns:dc="http://purl.org/dc/elements/1.1/">
  <sodipodi:namedview
     id="namedview18"
     pagecolor="#ffffff"
     bordercolor="#666666"
     borderopacity="1.0"
     inkscape:pageshadow="2"
     inkscape:pageopacity="0.0"
     inkscape:pagecheckerboard="0"
     inkscape:document-units="mm"
     showgrid="false"
     inkscape:zoom="1.1831205"
     inkscape:cx="372.32048"
     inkscape:cy="248.07278"
     inkscape:window-width="1128"
     inkscape:window-height="848"
     inkscape:window-x="463"
     inkscape:window-y="86"
     inkscape:window-maximized="0"
     inkscape:current-layer="svg378" />
  <metadata
     id="metadata5555">
    <rdf:RDF>
      <cc:Work
         rdf:about="">
        <dc:format>image/svg+xml</dc:format>
        <dc:type
           rdf:resource="http://purl.org/dc/dcmitype/StillImage" />
      </cc:Work>
    </rdf:RDF>
  </metadata>
  <defs
     id="defs380" />
  <g
     id="g562"
     transform="matrix(0.699997,0,0,0.700385,0,0.63664365)">
    <rect
       width="1062.99"
       height="708.66101"
       x="0"
       y="0"
       style="font-size:12px;fill:#e80008;fill-rule:evenodd;stroke-width:1pt"
       id="rect149" />
    <rect
       width="1062.99"
       height="50.618599"
       x="0"
       y="50.618599"
       style="font-size:12px;fill:#ffffff;fill-rule:evenodd;stroke-width:1pt"
       id="rect299" />
    <rect
       width="1062.99"
       height="50.618599"
       x="0"
       y="151.856"
       style="font-size:12px;fill:#ffffff;fill-rule:evenodd;stroke-width:1pt"
       id="rect300" />
    <rect
       width="1062.99"
       height="50.618599"
       x="0"
       y="253.093"
       style="font-size:12px;fill:#ffffff;fill-rule:evenodd;stroke-width:1pt"
       id="rect301" />
    <rect
       width="1062.99"
       height="50.618599"
       x="0"
       y="354.33099"
       style="font-size:12px;fill:#ffffff;fill-rule:evenodd;stroke-width:1pt"
       id="rect302" />
    <rect
       width="1062.99"
       height="50.618599"
       x="0"
       y="455.56799"
       style="font-size:12px;fill:#ffffff;fill-rule:evenodd;stroke-width:1pt"
       id="rect303" />
    <rect
       width="1062.99"
       height="50.618599"
       x="0"
       y="556.80603"
       style="font-size:12px;fill:#ffffff;fill-rule:evenodd;stroke-width:1pt"
       id="rect304" />
    <rect
       width="1062.99"
       height="50.618599"
       x="0"
       y="658.04199"
       transform="translate(0,-2.39696e-5)"
       style="font-size:12px;fill:#ffffff;fill-rule:evenodd;stroke-width:1pt"
       id="rect305" />
    <rect
       width="528.08398"
       height="405.79401"
       x="0"
       y="-0.90899098"
       style="font-size:12px;fill:#000689;fill-rule:evenodd;stroke-width:1pt"
       id="rect298" />
  </g>
  <g
     id="g5576"
     transform="translate(-2,0.90902865)">
    <path
       id="path297"
       style="font-size:12px;fill:#ffee00;fill-rule:evenodd;stroke-width:1pt"
       d="M 186.09611,240.66019 C 133.07242,270.16529 66.785535,250.22797 38.134818,196.78717 9.4841748,143.34489 29.265349,76.536506 82.289333,47.660178 115.0745,29.805555 151.08362,29.450971 183.80235,47.013098 165.34081,42.569467 148.85557,42.808367 130.94181,48.129856 78.760474,63.631587 48.764952,119.33905 63.987474,172.47791 c 15.222597,53.13812 69.927296,83.68342 122.108636,68.18228 z" />
    <polygon
       id="polygon291"
       style="font-size:12px;fill:#ffee00;fill-rule:evenodd;stroke-width:1pt"
       transform="matrix(0.824972,0,0,0.824972,-30.18757,-26.22962)"
       points="282.119,316.155 306.206,241.914 238.342,280.467 292.255,224.029 214.384,229.319 287.446,201.862 214.992,172.841 292.731,179.804 240.044,122.22 307.063,162.223 284.578,87.4819 327.604,152.602 339.775,75.5066 350.285,152.846 394.701,88.6661 370.614,162.907 438.478,124.354 384.565,180.792 462.436,175.502 389.374,202.958 461.828,231.98 384.089,225.017 436.777,282.6 369.757,242.597 392.242,317.339 349.216,252.218 337.045,329.314 326.535,251.974 " />
  </g>
</svg>
