<?xml version="1.0" encoding="UTF-8" standalone="no"?>
<!-- Created with Inkscape (http://www.inkscape.org/) -->
<svg
   xmlns:dc="http://purl.org/dc/elements/1.1/"
   xmlns:cc="http://web.resource.org/cc/"
   xmlns:rdf="http://www.w3.org/1999/02/22-rdf-syntax-ns#"
   xmlns:svg="http://www.w3.org/2000/svg"
   xmlns="http://www.w3.org/2000/svg"
   xmlns:sodipodi="http://inkscape.sourceforge.net/DTD/sodipodi-0.dtd"
   xmlns:inkscape="http://www.inkscape.org/namespaces/inkscape"
   width="300.00000pt"
   height="200.00000pt"
   id="svg2313"
   sodipodi:version="0.32"
   inkscape:version="0.42"
   sodipodi:docbase="/Users/daniel/Desktop/to be posted"
   sodipodi:docname="maori.svg">
  <defs
     id="defs2315" />
  <sodipodi:namedview
     id="base"
     pagecolor="#ffffff"
     bordercolor="#666666"
     borderopacity="1.0"
     inkscape:pageopacity="0.0"
     inkscape:pageshadow="2"
     inkscape:zoom="1.4000000"
     inkscape:cx="202.03038"
     inkscape:cy="121.44351"
     inkscape:document-units="px"
     inkscape:current-layer="layer1"
     inkscape:window-width="701"
     inkscape:window-height="508"
     inkscape:window-x="30"
     inkscape:window-y="50" />
  <metadata
     id="metadata2318">
    <rdf:RDF>
      <cc:Work
         rdf:about="">
        <dc:format>image/svg+xml</dc:format>
        <dc:type
           rdf:resource="http://purl.org/dc/dcmitype/StillImage" />
        <dc:title>Maori nation flag (1990)</dc:title>
        <dc:creator>
          <cc:Agent>
            <dc:title>Daniel Markstedt</dc:title>
          </cc:Agent>
        </dc:creator>
        <dc:rights>
          <cc:Agent>
            <dc:title></dc:title>
          </cc:Agent>
        </dc:rights>
        <dc:description>Made for inclusion in Freeciv (www.freeciv.org)</dc:description>
        <cc:license
           rdf:resource="http://web.resource.org/cc/PublicDomain" />
      </cc:Work>
      <cc:License
         rdf:about="http://web.resource.org/cc/PublicDomain">
        <cc:permits
           rdf:resource="http://web.resource.org/cc/Reproduction" />
        <cc:permits
           rdf:resource="http://web.resource.org/cc/Distribution" />
        <cc:permits
           rdf:resource="http://web.resource.org/cc/DerivativeWorks" />
      </cc:License>
    </rdf:RDF>
  </metadata>
  <g
     inkscape:label="Layer 1"
     inkscape:groupmode="layer"
     id="layer1">
    <rect
       style="fill:#ffffff;fill-opacity:1.0000000;stroke-width:0.0000000;stroke-miterlimit:4.0000000;stroke-dasharray:none"
       id="rect2548"
       width="375.00000"
       height="250.00000"
       x="0.0000000"
       y="0.0000000" />
    <path
       style="fill:#000000;fill-opacity:1.0000000;fill-rule:evenodd;stroke:#000000;stroke-width:0.0000000;stroke-linecap:butt;stroke-linejoin:miter;stroke-miterlimit:4.0000000;stroke-dasharray:none;stroke-opacity:1.0000000"
       d="M 0.90523879,0.91021231 L 0.56042489,87.788782 C 0.56042489,87.788782 58.018419,87.417052 90.048203,87.530802 C 97.893211,87.558112 103.62582,88.780632 107.90793,89.869682 C 112.19006,90.958732 115.00717,92.363852 116.97762,94.105002 C 118.94808,95.846152 123.47837,98.722582 125.89521,106.43257 C 127.97366,113.06305 126.78771,115.24842 125.91210,118.41618 C 125.03648,121.58397 123.46888,124.60968 121.76789,127.23608 C 120.06691,129.86248 112.11330,136.14438 112.11330,136.14438 L 374.43957,136.14438 L 374.42307,1.1681923 L 0.90523879,0.91021231 z "
       id="path2544"
       sodipodi:nodetypes="ccsssssscccc" />
    <path
       style="fill:#df0000;fill-opacity:1.0000000;fill-rule:evenodd;stroke:#000000;stroke-width:0.0000000;stroke-linecap:butt;stroke-linejoin:miter;stroke-miterlimit:4.0000000;stroke-dasharray:none;stroke-opacity:1.0000000"
       d="M 0.56057139,110.06982 L 0.56057139,249.72340 L 374.43943,249.28145 L 374.43943,160.00923 L 89.831885,159.56730 C 89.831885,159.56730 64.218857,154.15884 64.199526,134.27489 C 64.184309,118.62198 77.993227,113.34620 83.852297,114.14899 C 91.311479,115.17103 96.792401,116.69017 99.996451,122.54589 C 103.20048,128.40162 103.53195,135.26050 103.53195,135.26050 C 103.53195,135.26050 109.60857,128.63138 108.83518,122.44419 C 108.06180,116.25700 105.07332,110.65774 100.43838,110.51175 L 98.684441,110.45652 C 77.098569,110.73273 0.56057139,110.06982 0.56057139,110.06982 z "
       id="path2546"
       sodipodi:nodetypes="cccccssscsscc" />
  </g>
</svg>
