<?xml version="1.0" encoding="UTF-8" standalone="no"?>

<svg
   xmlns:dc="http://purl.org/dc/elements/1.1/"
   xmlns:cc="http://creativecommons.org/ns#"
   xmlns:rdf="http://www.w3.org/1999/02/22-rdf-syntax-ns#"
   xmlns:svg="http://www.w3.org/2000/svg"
   xmlns="http://www.w3.org/2000/svg"
   xmlns:sodipodi="http://sodipodi.sourceforge.net/DTD/sodipodi-0.dtd"
   xmlns:inkscape="http://www.inkscape.org/namespaces/inkscape"
   version="1.1"
   id="svg2"
   x="0px"
   y="0px"
   width="500px"
   height="333px"
   viewBox="0 0 500 333"
   enable-background="new 0 0 500 333"
   xml:space="preserve">
<defs
   id="defs3">
<inkscape:perspective
   id="perspective10"
   inkscape:vp_z="744.09448 : 526.18109 : 1"
   inkscape:vp_y="0 : 1000 : 0"
   inkscape:vp_x="0 : 526.18109 : 1"
   sodipodi:type="inkscape:persp3d"
   inkscape:persp3d-origin="372.04724 : 350.78739 : 1">
</inkscape:perspective>
<inkscape:perspective
   id="perspective2516"
   inkscape:vp_z="744.09448 : 526.18109 : 1"
   inkscape:vp_y="0 : 1000 : 0"
   inkscape:vp_x="0 : 526.18109 : 1"
   sodipodi:type="inkscape:persp3d"
   inkscape:persp3d-origin="372.04724 : 350.78739 : 1">
</inkscape:perspective>
</defs>
<sodipodi:namedview
   id="base"
   showgrid="false"
   inkscape:cy="153.93127"
   inkscape:cx="83.043553"
   inkscape:zoom="1.4"
   borderopacity="1.0"
   bordercolor="#666666"
   pagecolor="#ffffff"
   inkscape:window-y="90"
   inkscape:window-x="1498"
   inkscape:window-height="802"
   inkscape:window-width="1299"
   inkscape:current-layer="layer4"
   inkscape:document-units="px"
   inkscape:pageshadow="2"
   inkscape:pageopacity="0.0"
   inkscape:window-maximized="0">
</sodipodi:namedview>
<g
   id="layer2"
   transform="translate(-6.6428657,52.047611)"
   inkscape:label="Background"
   inkscape:groupmode="layer"
   sodipodi:insensitive="true">
<rect
   id="rect2524"
   x="6.6430001"
   y="-52.048"
   width="500"
   height="333"
   style="fill:#0051ba" />
</g>
<g
   id="layer3"
   inkscape:label="Font"
   inkscape:groupmode="layer">
</g>
<g
   id="layer4"
   inkscape:label="Bird"
   inkscape:groupmode="layer">
<g
   id="g3240"
   transform="matrix(1.487296,0,0,1.487296,-120.76584,-32.426082)">
<path
   id="path2526"
   sodipodi:nodetypes="csscssssssssssc"
   d="m 196.518,88 c 0,0 -7.322,-0.089 -9.464,0.179 -2.143,0.268 -4.197,0.982 -8.393,4.107 -4.196,3.125 -6.518,8.393 -6.518,8.393 0,0 1.56,-1.026 5.178,-2.232 2.411,-0.804 4.732,-0.982 8.304,-0.803 2.964,0.148 6.964,1.161 9.107,2.232 2.143,1.071 5.268,2.321 5.625,3.929 0.357,1.607 0.447,3.839 0.179,6.071 -0.268,2.232 -2.321,6.25 -3.214,7.411 -0.893,1.161 -5.803,6.786 -6.25,8.036 -0.446,1.25 -2.053,4.375 -1.964,7.946 0.089,3.572 -0.178,8.75 2.5,12.768 2.679,4.018 6.607,9.732 10.089,12.679 3.482,2.946 18.929,14.196 18.929,14.196"
   style="fill:none;stroke:#f9dd16;stroke-width:2.5;stroke-linecap:round;stroke-linejoin:round" />
<path
   id="path3298"
   d="m 180.089,97.464 c 0,0 2.768,-1.429 5,-1.696 2.232,-0.268 10.893,0.536 10.893,0.536"
   style="fill:none;stroke:#f9dd16;stroke-width:2.5;stroke-linecap:round;stroke-linejoin:round" />
<path
   id="path3300"
   sodipodi:nodetypes="cssccssccsc"
   d="m 192.5,87.732 c 0,0 -0.268,-5.178 0,-6.607 0.268,-1.429 2.321,-4.464 4.732,-5.268 2.411,-0.803 8.036,-5.625 8.036,-5.625 L 205.089,78 c 0,0 1.518,-3.036 2.589,-3.839 0.863,-0.647 3.676,-1.985 5.357,-3.036 1.483,-0.927 5.536,-6.339 5.536,-6.339 v 8.125 c 0,0 -0.089,2.054 -0.446,2.946 -0.357,0.893 -1.786,2.5 -1.786,2.5"
   style="fill:none;stroke:#f9dd16;stroke-width:2.5;stroke-linecap:round;stroke-linejoin:round" />
<path
   id="path3322"
   d="m 226.786,68.714 c 0,0 -0.982,2.5 -0.625,4.821 0.357,2.321 4.286,5.446 4.732,7.321 0.446,1.875 0.536,6.786 0.536,6.786"
   style="fill:none;stroke:#f9dd16;stroke-width:2.5;stroke-linecap:round;stroke-linejoin:round" />
<path
   id="path3324"
   d="m 218.661,71.571 c 0,0 4.643,-3.214 5.446,-5.357 0.804,-2.143 -0.268,-7.946 1.072,-10.893 1.339,-2.946 5.982,-6.071 5.982,-6.071 0,0 -3.571,3.304 -3.482,5.804 0.089,2.5 1.964,4.732 2.857,5.982 0.893,1.25 2.054,3.75 2.232,6.339 0.178,2.589 0,9.107 0,9.107 0,0 2.143,-2.857 3.393,-3.75 1.25,-0.893 3.75,-1.696 4.286,-1.518 0.536,0.178 -0.268,2.678 -1.161,3.839 -0.893,1.161 -1.071,7.946 -1.25,9.643 -0.179,1.697 -0.804,5.179 -1.964,6.518 -1.16,1.339 -2.232,2.679 -1.696,3.839 0.536,1.16 2.411,3.125 2.411,4.464 0,1.339 -0.804,9.286 -0.625,10.446 0.179,1.16 4.464,5.893 4.464,5.893 0,0 -2.232,-0.446 -3.929,0.179 -1.696,0.625 -0.714,2.679 0.447,3.571 1.161,0.893 2.946,2.143 4.018,2.232 1.072,0.089 2.411,-0.357 2.411,-0.357 0,0 -3.303,2.054 -4.375,2.679 -1.071,0.625 -5.446,2.411 -5.446,2.411"
   style="fill:none;stroke:#f9dd16;stroke-width:2.5;stroke-linecap:round;stroke-linejoin:round" />
<path
   id="path3326"
   sodipodi:nodetypes="cssszssc"
   d="m 223.839,79.696 c 0,0 -3.571,3.571 -6.964,4.196 -3.393,0.625 -8.75,-0.803 -10.446,-0.982 -1.697,-0.179 1.563,1.39 4.107,3.571 1.25,1.072 1.624,1.71 2.5,2.054 0.876,0.344 1.25,0.268 3.036,0.179 1.786,-0.089 2.857,-0.804 4.018,-1.518 1.161,-0.714 3.661,-3.571 3.661,-3.571"
   style="fill:none;stroke:#f9dd16;stroke-width:2.5;stroke-linecap:round;stroke-linejoin:round" />
<path
   id="path3328"
   sodipodi:nodetypes="cssssssssc"
   d="m 197.143,87.732 c 0.178,-1.25 0.268,-2.053 2.589,-3.303 3.657,-1.969 6.339,-2.589 8.304,-1.607 1.964,0.982 1.875,2.857 0.982,3.214 -0.893,0.357 -3.393,1.339 -3.929,2.679 -0.464,1.161 0.268,2.946 1.696,3.571 1.251,0.547 4.464,-0.357 4.643,0.179 0.178,0.536 -2.947,2.857 -5.357,2.589 -2.411,-0.268 -6.875,-1.697 -7.946,-3.572 -1.071,-1.875 -0.982,-3.75 -0.982,-3.75 z"
   style="fill:#f9dd16;stroke:#f9dd16;stroke-width:2.5;stroke-linecap:round;stroke-linejoin:round" />
<path
   id="path3330"
   d="m 197.143,101.036 c 0,0 3.125,-0.268 6.696,1.607 3.571,1.875 3.571,3.571 9.107,3.928 5.536,0.357 9.643,-2.768 10.714,-4.018 1.071,-1.25 2.321,-2.947 2.143,-3.393 -0.179,-0.446 -2.679,-0.536 -2.054,-2.054 0.625,-1.518 2.054,-1.607 2.321,-4.018 0.268,-2.411 0.179,-5.357 0.179,-5.357 0,0 -1.786,3.661 -2.946,4.197 -1.16,0.536 -3.572,0.446 -5.268,2.768 -1.696,2.322 -0.179,2.589 -2.946,4.911 -2.768,2.322 -5,3.482 -6.786,3.482 -1.786,0 -4.018,-0.179 -4.018,-0.179"
   style="fill:#f9dd16;stroke:#f9dd16;stroke-width:2.5;stroke-linecap:round;stroke-linejoin:round" />
<path
   id="path3332"
   d="m 236.25,103.268 c 0,0 -2.857,-0.447 -4.821,0.178 -1.964,0.625 -6.161,4.375 -7.232,5.089 -1.071,0.714 -4.732,2.232 -7.768,2.232 -3.036,0 -8.393,-1.786 -10.089,-2.232 -1.696,-0.446 -5.625,-0.446 -5.625,-0.446"
   style="fill:none;stroke:#f9dd16;stroke-width:2;stroke-linecap:round;stroke-linejoin:round" />
<path
   id="path3334"
   d="m 236.071,110.857 c 0,0 -5.178,-0.268 -6.161,0.447 -0.982,0.714 -3.929,3.393 -5.982,3.661 -2.054,0.268 -5.982,0.446 -7.322,-0.446 -1.339,-0.893 -4.196,-0.089 -6.071,0.357 -1.875,0.446 -5.179,0.893 -7.143,0 -1.964,-0.893 -4.018,-2.232 -4.018,-2.232"
   style="fill:none;stroke:#f9dd16;stroke-width:2;stroke-linecap:round;stroke-linejoin:round" />
<path
   id="path3336"
   d="m 233.304,126.929 c 0,0 -4.375,-1.25 -6.072,-1.697 -1.696,-0.446 -4.196,-1.25 -6.428,-1.518 -2.232,-0.268 -5.447,-0.446 -6.518,-1.071 -1.071,-0.625 -4.643,-2.411 -6.607,-2.411 -1.964,0 -4.464,-0.536 -6.25,-0.982 -1.786,-0.446 -5.268,-0.446 -5.268,-0.446"
   style="fill:none;stroke:#f9dd16;stroke-width:2;stroke-linecap:round;stroke-linejoin:round" />
<path
   id="path3338"
   d="m 207.768,120.411 c 0,0 3.303,-1.518 5.982,-1.518 2.679,0 6.964,0.536 10.089,1.071 3.125,0.535 8.125,0.446 9.464,0.357 1.339,-0.089 3.661,-1.071 3.661,-1.071"
   style="fill:none;stroke:#f9dd16;stroke-width:2;stroke-linecap:round;stroke-linejoin:round" />
<path
   id="path3340"
   d="m 201.25,119.786 c 0,0 -0.625,5.714 -2.232,7.143 -1.607,1.429 -3.75,2.857 -4.911,3.125 -1.161,0.268 -4.821,0.179 -4.821,0.179"
   style="fill:none;stroke:#f9dd16;stroke-width:2;stroke-linecap:round;stroke-linejoin:round" />
<path
   id="path3342"
   d="m 234.107,126.482 c 0,0 9.018,3.929 10.179,4.822 1.161,0.893 5.179,5.268 6.339,7.143 1.16,1.875 3.304,3.214 4.285,5 0.982,1.786 1.25,5.625 1.25,5.625"
   style="fill:none;stroke:#f9dd16;stroke-width:2;stroke-linecap:round;stroke-linejoin:round" />
<path
   id="path3344"
   d="m 229.286,142.643 c 0,0 7.232,0.09 12.5,0.893 5.268,0.804 11.25,2.768 12.857,4.286 1.607,1.518 7.5,7.143 8.125,8.661 0.625,1.518 1.875,6.428 1.875,6.428"
   style="fill:none;stroke:#f9dd16;stroke-width:2;stroke-linecap:round;stroke-linejoin:round" />
<path
   id="path3346"
   d="m 248.571,135.321 c 0,0 5.894,-2.857 8.661,-3.036 2.768,-0.178 6.518,-0.178 8.393,0.536 1.875,0.714 9.196,6.607 10.625,7.679 1.429,1.072 3.75,2.857 4.821,4.554 1.071,1.697 0.804,4.911 0.804,4.911"
   style="fill:none;stroke:#f9dd16;stroke-width:2;stroke-linecap:round;stroke-linejoin:round" />
<path
   id="path3348"
   d="m 255.893,147.554 c 0,0 7.947,-0.714 12.947,-0.357 5,0.357 9.018,1.607 12.5,2.946 3.481,1.34 5.803,2.143 6.964,4.018 1.161,1.875 1.25,3.661 1.25,3.661"
   style="fill:none;stroke:#f9dd16;stroke-width:2;stroke-linecap:round;stroke-linejoin:round" />
<path
   id="path3350"
   d="m 261.34,154.875 c 0,0 9.464,-0.804 14.82,-0.268 5.357,0.535 10.805,1.607 11.965,2.5 1.16,0.893 5.268,3.75 5.982,5 0.714,1.25 1.428,4.643 1.428,4.643"
   style="fill:none;stroke:#f9dd16;stroke-width:2;stroke-linecap:round;stroke-linejoin:round" />
<path
   id="path3352"
   d="m 264.732,163.089 c 0,0 7.321,-0.804 12.232,-0.447 4.91,0.357 12.5,1.161 15.893,3.125 3.393,1.965 4.285,2.59 5.714,3.929 1.429,1.339 3.036,3.214 3.036,3.214 0,0 8.393,-7.053 10.179,-8.928 1.785,-1.875 6.518,-7.679 8.035,-8.75 1.518,-1.072 6.161,-3.75 6.161,-3.75 l -7.769,0.089"
   style="fill:none;stroke:#f9dd16;stroke-width:2;stroke-linecap:round;stroke-linejoin:round" />
<path
   id="path3354"
   d="m 295.268,164.161 c 0.715,-0.089 5.447,-0.536 8.661,-1.875 3.214,-1.339 11.25,-6.786 12.321,-8.036 1.071,-1.25 3.036,-6.696 4.107,-8.125 1.071,-1.429 4.196,-4.196 4.196,-4.196 l -5.268,0.268 c 0,0 3.125,-4.018 4.375,-7.232 1.25,-3.214 2.678,-9.821 2.856,-14.375 0.178,-4.554 0.357,-13.125 -0.268,-16.607 -0.625,-3.482 -3.571,-9.196 -3.75,-11.339 -0.179,-2.143 -0.357,-4.643 -0.357,-7.143 0,-2.5 0.804,-4.732 0.804,-4.732 0,0 -4.107,2.768 -5.893,5.179 -1.786,2.411 -4.643,7.054 -4.554,10.179 0.089,3.125 0.089,7.054 1.696,7.857 1.607,0.804 2.5,0.982 3.75,0.982 1.25,0 3.75,0.089 4.196,1.875 0.446,1.786 0.625,5.625 -0.268,7.679 -0.893,2.053 -4.286,3.75 -5.714,5.178 -1.429,1.429 -2.5,5.536 -2.054,6.875 0.446,1.339 1.071,4.375 3.214,5 2.143,0.625 2.5,3.214 0.09,5.179 -2.411,1.964 -6.161,2.5 -8.125,5.179 -1.965,2.679 -2.857,4.643 -2.054,6.875 0.804,2.232 0.714,5.714 -0.536,6.696 -1.25,0.982 -7.231,4.464 -8.481,5.179 -1.25,0.714 -4.107,1.786 -4.107,1.786"
   style="fill:none;stroke:#f9dd16;stroke-width:2;stroke-linecap:round;stroke-linejoin:round" />
<path
   id="path3356"
   d="m 316.25,87.286 c 0,0 0.446,-5.536 -0.357,-8.75 -0.803,-3.214 -1.964,-6.607 -4.196,-10 -2.232,-3.393 -7.231,-9.107 -9.196,-10.268 -1.965,-1.161 -7.857,-3.839 -7.857,-3.839 0,0 0.179,5.357 0,6.786 -0.178,1.429 -2.232,5.268 -3.125,6.786 -0.893,1.518 -4.821,7.054 -5.982,8.661 -1.16,1.607 -2.589,5.536 -1.875,7.679 0.715,2.143 3.93,4.196 4.644,6.25 0.714,2.054 0.179,3.929 -0.357,5.089 -0.536,1.16 -2.411,4.286 -2.411,4.286"
   style="fill:none;stroke:#f9dd16;stroke-width:2;stroke-linecap:round;stroke-linejoin:round" />
<path
   id="path3358"
   d="m 302.768,58.357 c 0,0 1.161,2.232 0,5.625 -1.16,3.393 -4.018,6.161 -4.91,7.5 -0.892,1.339 -4.018,4.554 -4.286,6.429 -0.268,1.875 0,7.321 0,7.321"
   style="fill:none;stroke:#f9dd16;stroke-width:2;stroke-linecap:round;stroke-linejoin:round" />
<path
   id="path3360"
   d="m 265.268,132.821 c 0.357,-0.089 3.304,-3.571 3.572,-4.821 0.268,-1.25 0.714,-3.661 0.445,-4.375 -0.268,-0.714 -2.32,-2.589 -2.32,-2.589 0,0 5.625,0.893 6.785,2.054 1.16,1.161 3.482,4.911 3.304,6.071 -0.178,1.16 -1.071,4.643 -1.696,5.804 -0.625,1.161 -2.322,3.214 -2.322,3.214"
   style="fill:none;stroke:#f9dd16;stroke-width:2;stroke-linecap:round;stroke-linejoin:round" />
<path
   id="path3362"
   d="m 275.357,124.786 c 0.089,-0.357 2.321,-3.929 2.946,-7.054 0.625,-3.125 0.981,-7.053 0.446,-10.536 -0.535,-3.482 -1.518,-5.982 -2.679,-7.411 -1.161,-1.429 -4.375,-3.482 -4.375,-3.482 0,0 4.196,-0.804 6.964,0.089 2.769,0.893 7.322,3.393 7.947,4.196 0.625,0.803 3.303,3.929 4.553,5 1.25,1.071 2.322,3.571 2.322,3.571 0,0 0.982,-2.589 2.768,-3.214 1.786,-0.625 4.91,-0.714 5.625,-0.178 0.715,0.536 -1.071,4.375 -1.429,5 -0.356,0.625 -1.875,3.214 -1.875,5.089 0,1.875 -0.714,3.839 0.089,4.197 0.805,0.357 3.75,-1.786 4.555,-2.143 0.803,-0.357 6.249,-0.625 6.249,-0.625 0,0 -1.785,1.607 -2.589,3.482 -0.804,1.875 -2.321,4.821 -2.679,6.339 -0.356,1.518 -0.893,6.339 -0.268,6.964 0.625,0.625 2.768,-0.357 3.929,0.179 1.16,0.536 0.356,2.321 -0.446,2.857 -0.804,0.535 -3.304,2.589 -4.107,5 -0.804,2.41 -0.446,5.535 -1.607,6.964 -1.161,1.429 -3.304,4.286 -4.643,5.446 -1.339,1.161 -6.519,4.375 -6.519,4.375"
   style="fill:none;stroke:#f9dd16;stroke-width:2;stroke-linecap:round;stroke-linejoin:round" />
<path
   id="path3364"
   d="m 297.232,79.875 c 0,0 2.946,-2.143 4.643,-0.625 1.696,1.518 3.125,4.107 2.232,6.875 -0.893,2.768 -4.554,6.696 -5.536,8.571 -0.981,1.875 -2.589,3.839 -2.589,5.357 0,1.518 0.268,5.714 0.268,5.714"
   style="fill:none;stroke:#f9dd16;stroke-width:2;stroke-linecap:round;stroke-linejoin:round" />
<path
   id="path3366"
   d="m 281.16,145.946 c 2.769,-0.625 6.161,-3.839 6.786,-5.179 0.625,-1.339 3.571,-6.964 2.589,-9.643 -0.981,-2.679 -2.589,-4.732 -5.178,-4.464 -2.59,0.268 -3.661,2.947 -3.304,3.929 0.356,0.982 2.589,3.214 2.411,5.089 -0.18,1.875 -0.357,4.286 -1.607,5 -1.25,0.714 -4.018,2.054 -4.018,2.054"
   style="fill:none;stroke:#f9dd16;stroke-width:2;stroke-linecap:round;stroke-linejoin:round" />
<path
   id="path3368"
   d="m 291.16,132.107 c 0.536,-0.357 2.68,-1.518 3.93,-1.875 1.25,-0.357 4.82,-0.893 4.82,-0.893 0,0 -2.678,2.232 -3.75,4.643 -1.07,2.41 -1.518,5.714 -0.893,6.964 0.625,1.25 0.447,3.125 0.09,4.196 -0.357,1.072 -3.304,4.822 -3.929,5.715 -0.625,0.893 -3.304,3.214 -3.304,3.214"
   style="fill:none;stroke:#f9dd16;stroke-width:2;stroke-linecap:round;stroke-linejoin:round" />
<path
   id="path3370"
   d="m 294.465,130.768 c -0.269,-0.625 -1.34,-3.393 -1.25,-6.607 0.089,-3.214 1.695,-9.107 1.695,-9.107 0,0 -2.053,1.875 -2.589,2.857 -0.536,0.982 -2.946,4.732 -2.946,4.732 0,0 -0.357,-5.804 -0.893,-6.964 -0.536,-1.161 -3.304,-4.822 -4.197,-5.089 -0.893,-0.268 -5,-2.321 -5,-2.321"
   style="fill:none;stroke:#f9dd16;stroke-width:2;stroke-linecap:round;stroke-linejoin:round" />
<path
   id="path3372"
   d="m 272.426,137.346 c -2.146,-0.316 -7.576,-0.758 -11.364,-0.821 -3.788,-0.063 -10.986,0.694 -10.986,0.694"
   style="fill:none;stroke:#f9dd16;stroke-width:2;stroke-linecap:round;stroke-linejoin:round" />
<path
   id="path3374"
   d="m 194.464,130.232 c 0,0 2.232,3.125 1.696,5.357 -0.536,2.232 -1.786,4.107 -2.768,4.821 -0.982,0.714 -3.304,2.679 -3.304,2.679"
   style="fill:none;stroke:#f9dd16;stroke-width:2;stroke-linecap:round;stroke-linejoin:round" />
<path
   id="path3376"
   d="m 193.929,140.054 c 0.625,0.357 3.036,1.875 3.928,4.375 0.893,2.5 0.982,5.179 0.714,6.25 -0.268,1.071 -0.803,3.571 -0.803,3.571"
   style="fill:none;stroke:#f9dd16;stroke-width:2;stroke-linecap:round;stroke-linejoin:round" />
<path
   id="path3378"
   d="m 195.625,137.821 c 0,0 4.643,-0.357 6.25,-1.339 1.607,-0.982 2.946,-3.036 2.321,-4.822 -0.625,-1.786 -5.268,-4.554 -5.268,-4.554"
   style="fill:none;stroke:#f9dd16;stroke-width:2;stroke-linecap:round;stroke-linejoin:round" />
<path
   id="path3380"
   d="m 207.589,120.411 c 0,0 0.804,3.036 0.446,5.179 -0.357,2.143 -0.714,3.393 -1.607,4.196 -0.893,0.804 -2.143,1.964 -2.143,1.964"
   style="fill:none;stroke:#f9dd16;stroke-width:2;stroke-linecap:round;stroke-linejoin:round" />
<path
   id="path3382"
   d="m 220.536,173.179 c 0,0 -0.357,1.786 1.429,3.661 1.786,1.875 10.179,8.57 12.054,10.268 1.875,1.696 5.982,4.821 7.143,6.964 1.161,2.144 1.964,4.019 1.161,5.894 -0.803,1.875 -1.071,3.125 -3.661,4.731 -2.589,1.607 -5,2.144 -6.25,4.464 -1.25,2.322 -1.161,6.161 -1.161,6.161 0,0 1.071,-2.054 2.857,-3.214 1.786,-1.161 2.947,-1.697 6.339,-1.697 3.393,0 5.625,0.536 5.625,0.536"
   style="fill:none;stroke:#f9dd16;stroke-width:2;stroke-linecap:round;stroke-linejoin:round" />
<path
   id="path3384"
   d="m 245.714,172.465 c 0,0 -2.054,0.803 -2.232,3.303 -0.178,2.5 0.447,6.072 3.125,7.768 2.679,1.697 7.411,5.805 7.947,6.786 0.536,0.982 1.606,6.071 0.893,8.661 -0.714,2.589 -3.839,6.518 -4.731,7.857 -0.894,1.339 -3.84,3.125 -4.644,5 -0.803,1.875 -1.25,4.731 -1.25,4.731 0,0 0.714,-1.339 4.107,-2.679 3.393,-1.339 11.161,-0.893 12.946,-0.714 1.785,0.179 5.893,0.804 8.66,2.054 2.769,1.25 4.019,3.66 3.84,3.214 -0.179,-0.446 0.268,-3.929 -0.893,-5.446 -1.161,-1.518 -4.375,-3.84 -5.982,-5.179 -1.607,-1.339 -2.143,-2.768 -0.893,-4.731 1.25,-1.965 4.018,-6.34 5.357,-7.322 1.339,-0.982 2.143,-1.785 3.035,-1.785 0.892,0 1.696,0.982 1.696,0.982"
   style="fill:none;stroke:#f9dd16;stroke-width:2;stroke-linecap:round;stroke-linejoin:round" />
<path
   id="path3386"
   d="m 272.5,195.143 c -0.09,-0.803 0.804,-3.482 1.785,-5.178 0.982,-1.697 3.036,-3.482 5.09,-4.107 2.054,-0.625 4.375,-0.804 5.268,-0.715 0.893,0.09 2.947,1.429 2.5,0.893 -0.446,-0.535 -3.303,-3.57 -6.16,-3.57 -2.857,0 -4.554,0.268 -6.697,1.606 -2.143,1.339 -3.66,4.732 -4.195,6.339 -0.536,1.607 -3.394,6.965 -3.394,6.607 0,-0.358 1.964,-2.232 3.125,-2.41 1.16,-0.179 2.857,0.357 2.678,0.535 z"
   style="fill:none;stroke:#f9dd16;stroke-width:2;stroke-linecap:round;stroke-linejoin:round" />
<path
   id="path3388"
   d="m 281.785,182.196 c 0,0 3.305,-3.304 5.982,-4.731 2.679,-1.43 5.179,-2.322 7.857,-2.59 2.678,-0.268 5.179,-0.268 5.982,0.179 0.803,0.446 2.41,1.964 2.41,1.964 l -2.321,-4.107"
   style="fill:none;stroke:#f9dd16;stroke-width:2;stroke-linecap:round;stroke-linejoin:round" />
<path
   id="path3390"
   d="m 297.143,174.25 c -0.893,-0.179 -3.928,-1.34 -10.089,-1.25 -6.161,0.09 -10.269,0.446 -12.679,2.946 -2.41,2.5 -4.554,4.644 -4.643,6.786 -0.09,2.143 1.696,3.839 1.696,3.839"
   style="fill:none;stroke:#f9dd16;stroke-width:2;stroke-linecap:round;stroke-linejoin:round" />
<path
   id="path3392"
   d="m 241.696,201.66 c 0,0 2.232,-2.231 3.929,-2.231 1.697,0 3.571,0.179 4.554,0.804 0.981,0.625 2.768,3.482 2.768,3.482"
   style="fill:none;stroke:#f9dd16;stroke-width:2;stroke-linecap:round;stroke-linejoin:round" />
<path
   id="path3394"
   d="m 255.893,195.59 c 0.982,0.625 1.786,2.231 3.215,1.964 1.428,-0.269 3.303,-0.446 3.035,1.429 -0.268,1.875 -0.535,4.196 -1.696,5.357 -1.161,1.16 -3.304,3.125 -3.393,4.285 -0.089,1.16 -0.536,4.196 -0.536,4.196"
   style="fill:none;stroke:#f9dd16;stroke-width:2;stroke-linecap:round;stroke-linejoin:round" />
<path
   id="path3396"
   d="m 262.143,198.268 c 0,0 1.607,-2.768 1.25,-5.625 -0.357,-2.857 -3.75,-5.089 -4.285,-6.428 -0.536,-1.34 -0.893,-4.019 0.268,-5.536 1.16,-1.519 5.357,-4.554 7.321,-5.089 1.964,-0.536 4.375,-1.607 5.536,-1.697 1.16,-0.089 4.196,0.536 4.196,0.536 0,0 -6.875,-2.144 -8.394,-2.679 -1.518,-0.535 -7.5,-1.785 -10.893,-2.5 -3.393,-0.715 -9.375,-1.965 -13.661,-2.143 -4.286,-0.179 -9.464,-0.893 -12.946,-1.786 -3.482,-0.893 -11.964,-5 -13.839,-6.339 -1.875,-1.34 -5.536,-4.465 -5.536,-8.036 0,-3.571 0.268,-8.661 1.964,-10.536 1.696,-1.875 4.821,-5.089 5,-6.786 0.179,-1.697 -0.268,-2.946 -0.982,-5 -0.714,-2.054 -0.982,-5.536 -0.982,-5.536"
   style="fill:none;stroke:#f9dd16;stroke-width:2;stroke-linecap:round;stroke-linejoin:round" />
<path
   id="path3398"
   d="m 229.375,142.732 c 0.625,-0.447 1.964,-2.322 2.321,-3.929 0.357,-1.607 -0.803,-5.089 -2.321,-6.518 -1.518,-1.428 -4.554,-3.571 -6.339,-4.196 -1.785,-0.625 -4.732,-1.875 -5.804,-1.339 -1.071,0.536 -5.893,3.393 -6.696,4.375 -0.803,0.982 -2.679,5.089 -2.768,6.071 -0.089,0.982 3.75,7.143 3.75,7.143"
   style="fill:none;stroke:#f9dd16;stroke-width:2;stroke-linecap:round;stroke-linejoin:round" />
<path
   id="path3400"
   d="m 209.911,132.107 c -0.089,-0.715 0.179,-1.34 -0.714,-1.875 -0.893,-0.536 -3.125,-0.09 -3.125,-0.09"
   style="fill:none;stroke:#f9dd16;stroke-width:2;stroke-linecap:round;stroke-linejoin:round" />
<path
   id="path3402"
   d="m 207.411,137.821 c 0,0 -2.768,0.179 -3.304,1.339 -0.536,1.161 -1.964,1.786 -0.714,4.554 1.25,2.768 2.411,5.446 3.303,6.875 0.893,1.428 1.607,2.232 2.5,2.321 0.893,0.089 1.964,0.268 1.964,0.268"
   style="fill:none;stroke:#f9dd16;stroke-width:2;stroke-linecap:round;stroke-linejoin:round" />
<path
   id="path3404"
   d="m 203.304,135.143 -0.536,6.25"
   style="fill:none;stroke:#f9dd16;stroke-width:2;stroke-linecap:round;stroke-linejoin:round" />
<path
   id="path3406"
   d="m 203.125,144.071 c 0,0 -1.161,-0.089 -2.054,0.446 -0.893,0.536 -2.321,2.59 -2.321,2.59"
   style="fill:none;stroke:#f9dd16;stroke-width:2;stroke-linecap:round;stroke-linejoin:round" />
<path
   id="path3408"
   d="m 198.393,152.464 c 0.357,0 3.571,-0.089 4.732,1.161 1.161,1.25 1.607,2.946 1.875,4.018 0.268,1.072 0.982,4.375 0.982,4.375"
   style="fill:none;stroke:#f9dd16;stroke-width:2;stroke-linecap:round;stroke-linejoin:round" />
<path
   id="path3410"
   d="m 209.107,153.089 c 0,0 -2.589,-1.161 -3.482,-0.714 -0.893,0.447 -1.071,3.393 -1.071,3.393"
   style="fill:none;stroke:#f9dd16;stroke-width:2;stroke-linecap:round;stroke-linejoin:round" />
<path
   id="path3412"
   d="m 206.429,160.946 c 0,0 3.214,-1.161 4.643,-0.179 1.429,0.982 1.964,2.232 2.232,3.304 0.268,1.071 0.089,3.036 0.089,3.036"
   style="fill:none;stroke:#f9dd16;stroke-width:2;stroke-linecap:round;stroke-linejoin:round" />
<path
   id="path3414"
   d="m 212.946,155.5 c 0,0 -0.803,1.875 -0.714,3.125 0.089,1.25 0.357,3.929 0.357,3.929"
   style="fill:none;stroke:#f9dd16;stroke-width:2;stroke-linecap:round;stroke-linejoin:round" />
<path
   id="path3416"
   d="m 213.571,165.143 c 0,0 4.822,-1.16 6.161,-0.268 1.339,0.893 4.107,2.59 4.554,4.107 0.447,1.517 -3.393,4.018 -3.393,4.018"
   style="fill:none;stroke:#f9dd16;stroke-width:2;stroke-linecap:round;stroke-linejoin:round" />
<path
   id="path3418"
   d="m 222.946,171.215 c 0.893,0.445 4.643,2.143 6.25,3.928 1.607,1.786 2.857,2.768 2.679,3.929 -0.178,1.161 -2.857,3.482 -2.857,3.482"
   style="fill:none;stroke:#f9dd16;stroke-width:2;stroke-linecap:round;stroke-linejoin:round" />
<path
   id="path3420"
   d="m 224.196,169.34 c 0.357,-0.18 2.768,-1.786 6.339,-0.447 3.571,1.34 5.625,2.5 6.161,4.554 0.536,2.054 0.893,4.821 -0.803,5.269 -1.697,0.445 -3.929,0 -3.929,0"
   style="fill:none;stroke:#f9dd16;stroke-width:2;stroke-linecap:round;stroke-linejoin:round" />
<path
   id="path3422"
   d="m 239.286,166.839 c -0.446,0 -3.929,0.178 -4.554,1.25 -0.625,1.07 0.982,4.106 0.982,4.106"
   style="fill:none;stroke:#f9dd16;stroke-width:2;stroke-linecap:round;stroke-linejoin:round" />
<path
   id="path3424"
   d="m 234.554,188 c -0.447,-0.982 -1.161,-2.5 0.178,-2.946 1.339,-0.446 3.75,-1.071 5.536,-0.357 1.786,0.714 2.857,3.75 4.196,4.375 1.339,0.625 2.768,1.429 4.018,1.607 1.25,0.178 1.697,3.304 1.518,4.375 -0.179,1.071 -0.357,5.089 -0.357,5.089"
   style="fill:none;stroke:#f9dd16;stroke-width:2;stroke-linecap:round;stroke-linejoin:round" />
<path
   id="path3426"
   d="m 247.857,184.607 c -0.357,-0.179 -2.678,-0.893 -3.571,-0.536 -0.893,0.357 -1.25,3.304 -1.25,3.304"
   style="fill:none;stroke:#f9dd16;stroke-width:2;stroke-linecap:round;stroke-linejoin:round" />
<path
   id="path3428"
   d="m 242.589,166.839 c 0,0 2.679,4.821 4.196,6.071 1.518,1.25 4.464,1.875 4.732,3.572 0.268,1.696 -0.089,5.893 -0.178,6.785 -0.09,0.893 0.356,4.197 0.356,4.197"
   style="fill:none;stroke:#f9dd16;stroke-width:2;stroke-linecap:round;stroke-linejoin:round" />
<path
   id="path3430"
   d="m 261.875,189.875 c -0.535,-0.179 -2.143,-0.268 -3.215,0.535 -1.07,0.805 -4.018,0.357 -4.018,0.357"
   style="fill:none;stroke:#f9dd16;stroke-width:2;stroke-linecap:round;stroke-linejoin:round" />
<path
   id="path3432"
   d="m 250.715,184.071 c 0,0 2.32,-1.696 4.375,-2.054 2.053,-0.357 3.75,0.268 3.75,0.268"
   style="fill:none;stroke:#f9dd16;stroke-width:2;stroke-linecap:round;stroke-linejoin:round" />
<path
   id="path3434"
   d="m 261.875,178.804 c 0,0 -4.375,-2.769 -5.715,-4.644 -1.339,-1.875 -2.231,-5.535 -2.231,-5.535"
   style="fill:none;stroke:#f9dd16;stroke-width:2;stroke-linecap:round;stroke-linejoin:round" />
<path
   id="path3436"
   d="m 255.804,173.357 c -0.446,-0.179 -2.411,-0.179 -2.946,0.625 -0.536,0.803 -1.161,3.482 -1.161,3.482"
   style="fill:none;stroke:#f9dd16;stroke-width:2;stroke-linecap:round;stroke-linejoin:round" />
<path
   id="path3438"
   d="m 226.148,129.959 c 0,0 0.884,2.904 0.252,4.419 -0.631,1.515 -5.43,6.566 -7.576,8.839 -2.146,2.272 -3.662,4.798 -3.157,7.45 0.505,2.652 2.778,3.915 5.556,5.682 2.778,1.768 8.333,3.662 11.743,4.167 3.409,0.505 7.703,1.768 12.501,2.272 4.798,0.505 11.869,1.768 16.162,3.031 4.294,1.262 6.44,2.526 8.587,4.167 2.146,1.642 5.051,4.42 5.051,4.42"
   style="fill:none;stroke:#f9dd16;stroke-width:2;stroke-linecap:round;stroke-linejoin:round" />
<path
   id="path3440"
   d="m 219.464,142.464 c 0,0 -0.804,2.857 1.339,4.553 2.143,1.697 7.946,4.465 11.428,4.911 3.482,0.446 9.197,0.357 13.125,1.339 3.929,0.982 10.536,3.036 12.768,4.554 2.232,1.518 6.607,5.268 6.607,5.268"
   style="fill:none;stroke:#f9dd16;stroke-width:2;stroke-linecap:round;stroke-linejoin:round" />
<path
   id="path3442"
   d="m 224.732,136.75 c 0,0 0.625,3.036 1.697,3.661 1.071,0.625 3.125,2.232 3.125,2.232 0,0 -1.429,3.393 -2.143,4.732 -0.714,1.339 -2.857,4.643 -3.661,5.714 -0.804,1.071 -2.589,3.125 -2.589,3.125"
   style="fill:none;stroke:#f9dd16;stroke-width:2;stroke-linecap:round;stroke-linejoin:round" />
<path
   id="path3444"
   d="m 242.589,130.321 c -0.804,-0.357 -3.214,0.268 -5.625,0 -2.411,-0.268 -5.625,-1.339 -5.625,-1.339 0,0 5.536,3.75 6.518,5.178 0.982,1.429 0.804,5.089 -0.089,6.607 -0.893,1.518 -0.893,6.34 -1.339,7.232 -0.447,0.893 -0.714,4.196 -0.714,4.196"
   style="fill:none;stroke:#f9dd16;stroke-width:2;stroke-linecap:round;stroke-linejoin:round" />
<path
   id="path3446"
   d="m 232.946,152.286 c 0,0 0.268,2.768 0.089,3.572 -0.179,0.803 -1.786,4.196 -1.786,4.196"
   style="fill:none;stroke:#f9dd16;stroke-width:2;stroke-linecap:round;stroke-linejoin:round" />
<path
   id="path3448"
   d="m 238.393,135.321 c 0,0 3.214,0.179 5.446,0.714 2.232,0.536 6.339,1.429 6.339,1.429"
   style="fill:none;stroke:#f9dd16;stroke-width:2;stroke-linecap:round;stroke-linejoin:round" />
</g>
</g>
</svg>