<?xml version="1.0" encoding="UTF-8" standalone="no"?>
<!-- Created with Sodipodi ("http://www.sodipodi.com/") -->
<svg
   xmlns:dc="http://purl.org/dc/elements/1.1/"
   xmlns:cc="http://web.resource.org/cc/"
   xmlns:rdf="http://www.w3.org/1999/02/22-rdf-syntax-ns#"
   xmlns:svg="http://www.w3.org/2000/svg"
   xmlns="http://www.w3.org/2000/svg"
   xmlns:sodipodi="http://inkscape.sourceforge.net/DTD/sodipodi-0.dtd"
   xmlns:inkscape="http://www.inkscape.org/namespaces/inkscape"
   id="svg378"
   sodipodi:version="0.32"
   width="280mm"
   height="529.13000pt"
   sodipodi:docbase="/home/daniel/freeciv/data/flags"
   sodipodi:docname="mongolia.svg"
   inkscape:version="0.42">
  <metadata
     id="metadata3528">
    <rdf:RDF>
      <cc:Work
         rdf:about="">
        <dc:format>image/svg+xml</dc:format>
        <dc:type
           rdf:resource="http://purl.org/dc/dcmitype/StillImage" />
      </cc:Work>
    </rdf:RDF>
  </metadata>
  <defs
     id="defs380" />
  <sodipodi:namedview
     id="base"
     snaptoguides="false"
     inkscape:zoom="0.43262028"
     inkscape:cx="491.05492"
     inkscape:cy="279.68225"
     inkscape:window-width="753"
     inkscape:window-height="513"
     inkscape:window-x="48"
     inkscape:window-y="136"
     inkscape:current-layer="svg378">
    <sodipodi:guide
       orientation="horizontal"
       position="285.041046"
       id="guide203" />
    <sodipodi:guide
       orientation="vertical"
       position="427.344666"
       id="guide204" />
    <sodipodi:guide
       orientation="horizontal"
       position="318.585083"
       id="guide395" />
  </sodipodi:namedview>
  <rect
     style="font-size:12.000000px;fill:#f74902;fill-opacity:1.0000000;fill-rule:evenodd;stroke-width:1.0000000pt"
     id="rect171"
     x="0.0000000"
     y="0.0000000"
     width="997.12500"
     height="661.41248" />
  <rect
     style="font-size:12.000000px;fill:#54b7c6;fill-opacity:1.0000000;fill-rule:evenodd;stroke-width:1.0000000pt"
     id="rect403"
     y="0.0000000"
     width="332.37503"
     height="661.41248"
     x="332.37503" />
  <path
     style="font-size:12.000000px;fill:#fcd856;fill-opacity:1.0000000;fill-rule:evenodd;stroke-width:1.0000000pt"
     d="M 163.69284,184.89854 C 182.05738,185.50653 184.88280,178.20704 184.88280,170.90755 C 184.88280,163.60805 184.88280,149.00906 184.88280,145.96791 C 184.88280,142.92675 191.94567,139.88560 191.94567,134.41008 C 191.94567,128.93575 188.41423,122.85344 187.00222,119.20310 C 184.88280,128.32777 181.35138,137.45244 174.99314,140.49359 C 172.16772,133.19409 171.46171,130.76093 172.87510,127.11058 C 174.28713,123.46144 172.87510,117.98712 170.04968,112.51279 C 167.93027,124.06943 161.57342,127.11178 160.86742,130.76093 C 160.16002,134.41008 158.04200,144.75192 153.80317,139.27640 C 149.56573,133.80209 146.74031,127.11178 144.62089,119.81229 C 140.38206,134.41008 142.50148,137.45244 143.91489,139.88560 C 145.32690,142.31876 146.74031,149.61826 146.74031,152.65941 C 146.74031,155.70057 143.91489,167.86640 145.32690,171.51673 C 146.74031,175.16588 147.44631,186.11453 163.69284,184.89854 z "
     id="path226" />
  <path
     sodipodi:type="arc"
     style="font-size:12.000000px;fill:#fcd856;fill-opacity:1.0000000;fill-rule:evenodd;stroke-width:1.0000000pt"
     id="path227"
     d="M 221.01331 236.07993 A 39.212036 39.212036 0 1 1  142.58923,236.07993 A 39.212036 39.212036 0 1 1  221.01331 236.07993 z"
     sodipodi:cx="181.80127"
     sodipodi:cy="236.07993"
     sodipodi:rx="39.212036"
     sodipodi:ry="39.212036"
     transform="matrix(0.879802,0.000000,0.000000,0.757658,6.526130,43.27899)" />
  <path
     style="font-size:12.000000px;fill:#fcd856;fill-opacity:1.0000000;fill-rule:evenodd;stroke-width:1.0000000pt"
     d="M 214.59741,233.88707 C 196.38450,263.04120 161.30767,271.14413 135.29847,251.59990 C 128.44248,246.44973 123.42827,240.68256 118.65884,233.29701 C 122.96028,254.25518 135.99938,269.09238 154.04299,274.38946 C 180.60214,282.18389 207.73064,264.03892 214.59741,233.88707 z "
     id="path232"
     sodipodi:nodetypes="ccccc" />
  <rect
     style="font-size:12.000000px;fill:#fcd856;fill-opacity:1.0000000;fill-rule:evenodd;stroke-width:1.0000000pt"
     id="rect233"
     width="102.64443"
     height="24.466980"
     x="113.68322"
     y="463.59787" />
  <path
     style="font-size:12.000000px;fill:#fcd856;fill-opacity:1.0000000;fill-rule:evenodd;stroke-width:1.0000000pt"
     d="M 118.70530,290.68592 L 164.47977,322.51065 L 210.77908,290.68592 L 118.70530,290.68592 z "
     id="path235"
     sodipodi:nodetypes="cccc" />
  <rect
     style="font-size:12.000000px;fill:#fcd856;fill-opacity:1.0000000;fill-rule:evenodd;stroke-width:1.0000000pt"
     id="rect249"
     width="92.600212"
     height="24.467005"
     x="118.70535"
     y="325.14505" />
  <path
     style="font-size:12.000000px;fill:#fcd856;fill-opacity:1.0000000;fill-rule:evenodd;stroke-width:1.0000000pt"
     d="M 118.70530,503.74255 L 164.47977,528.66214 L 210.77908,503.74255 L 118.70530,503.74255 z "
     id="path250"
     sodipodi:nodetypes="cccc" />
  <rect
     style="font-size:12.000000px;fill:#fcd856;fill-opacity:1.0000000;fill-rule:evenodd;stroke-width:1.0000000pt"
     id="rect251"
     width="44.681557"
     height="236.56195"
     x="49.432701"
     y="291.04095" />
  <rect
     style="font-size:12.000000px;fill:#fcd856;fill-opacity:1.0000000;fill-rule:evenodd;stroke-width:1.0000000pt"
     id="rect612"
     width="44.681557"
     height="236.56195"
     x="233.24225"
     y="291.04089" />
  <path
     style="font-size:12.000000px;fill:#fcd856;fill-opacity:1.0000000;fill-rule:evenodd;stroke-width:0.62500000"
     d="M 120.53841,386.18543 C 130.24374,370.55641 148.08615,355.29428 159.35031,361.52706 C 170.77955,368.05081 175.96327,375.56960 177.30931,383.44965 C 177.66648,390.56085 170.61174,401.57000 161.41581,400.07868 C 151.01883,398.77106 143.26118,418.03773 145.01432,426.64556 C 146.50887,435.95586 150.54182,446.26678 156.85183,454.96796 C 122.88602,435.28126 108.27568,404.19933 120.53841,386.18543 z M 164.66725,386.71729 C 161.73956,390.40868 155.05214,389.90706 149.74124,385.59876 C 144.42889,381.29037 145.98427,378.49895 148.91049,374.80747 C 151.84008,371.11759 155.03778,367.91852 160.34918,372.22615 C 165.66103,376.53520 167.59537,383.02732 164.66725,386.71729 z M 206.63118,427.86517 C 197.21440,443.70137 175.89905,455.76242 164.59802,449.65025 C 153.12703,443.24750 154.83769,429.71911 153.37773,421.81800 C 152.91325,414.67708 160.68377,405.67393 169.85500,407.04919 C 180.21853,408.22416 187.50463,387.48969 181.60516,377.75823 C 179.97681,368.42286 176.67736,367.85115 167.32652,356.49737 C 201.41989,375.82610 218.55509,409.59769 206.63118,427.86517 z M 168.31432,421.24734 C 171.17062,417.49915 176.34163,417.18586 181.69209,421.44425 C 187.04254,425.70263 188.55595,429.95431 185.70061,433.70327 C 182.84336,437.45072 176.69341,439.28336 171.34295,435.02497 C 165.99249,430.76659 165.45802,424.99554 168.31432,421.24734 z "
     id="path633"
     sodipodi:nodetypes="cccccccccccccccccccccccc" />
</svg>
