<?xml version="1.0" encoding="UTF-8" standalone="no"?>
<svg
   xmlns:dc="http://purl.org/dc/elements/1.1/"
   xmlns:cc="http://creativecommons.org/ns#"
   xmlns:rdf="http://www.w3.org/1999/02/22-rdf-syntax-ns#"
   xmlns:svg="http://www.w3.org/2000/svg"
   xmlns="http://www.w3.org/2000/svg"
   xmlns:sodipodi="http://sodipodi.sourceforge.net/DTD/sodipodi-0.dtd"
   xmlns:inkscape="http://www.inkscape.org/namespaces/inkscape"
   version="1.0"
   x="0.0000000"
   y="0.0000000"
   width="450"
   height="300"
   id="svg955"
   sodipodi:version="0.32"
   inkscape:version="1.0.2 (e86c870879, 2021-01-15)"
   sodipodi:docname="mongolia.svg">
  <metadata
     id="metadata1090">
    <rdf:RDF>
      <cc:Work
         rdf:about="">
        <dc:format>image/svg+xml</dc:format>
        <dc:type
           rdf:resource="http://purl.org/dc/dcmitype/StillImage" />
      </cc:Work>
    </rdf:RDF>
  </metadata>
  <sodipodi:namedview
     id="base"
     pagecolor="#ffffff"
     bordercolor="#666666"
     borderopacity="1.0"
     inkscape:pageopacity="0.0"
     inkscape:pageshadow="2"
     inkscape:zoom="1.1083333"
     inkscape:cx="246.6177"
     inkscape:cy="144.07298"
     inkscape:window-width="765"
     inkscape:window-height="540"
     inkscape:window-x="660"
     inkscape:window-y="135"
     inkscape:current-layer="svg955"
     inkscape:document-rotation="0"
     showgrid="false"
     inkscape:window-maximized="0" />
  <defs
     id="defs957" />
  <rect
     width="450"
     height="300"
     x="0"
     y="0"
     style="fill:#e90649;fill-opacity:1;fill-rule:evenodd;stroke:none;stroke-width:1pt;stroke-linecap:butt;stroke-linejoin:miter;stroke-opacity:1"
     id="rect964" />
  <rect
     width="150"
     height="300"
     x="150"
     y="0"
     style="fill:#0082d1;fill-opacity:1;fill-rule:evenodd;stroke:none;stroke-width:1pt;stroke-linecap:butt;stroke-linejoin:miter;stroke-opacity:1"
     id="rect1586" />
  <g
     id="g1323"
     transform="translate(-25,2.6953124e-4)">
    <rect
       id="rect3450"
       style="fill:#ffce00;fill-opacity:1;fill-rule:evenodd;stroke:none;stroke-width:1pt;stroke-linecap:butt;stroke-linejoin:miter;stroke-opacity:1"
       y="141.69202"
       x="40.000004"
       height="130.90907"
       width="27.272724" />
    <rect
       id="rect4072"
       style="fill:#ffce00;fill-opacity:1;fill-rule:evenodd;stroke:none;stroke-width:1pt;stroke-linecap:butt;stroke-linejoin:miter;stroke-opacity:1"
       y="141.69202"
       x="132.72726"
       height="130.90907"
       width="27.272724" />
    <path
       id="path4073"
       style="fill:#ffce00;fill-opacity:1;fill-rule:evenodd;stroke:none;stroke-width:1pt;stroke-linecap:butt;stroke-linejoin:miter;stroke-opacity:1"
       d="M 72.727275,256.23745 H 127.27272 L 100,272.60109 Z" />
    <path
       id="path4695"
       style="fill:#ffce00;fill-opacity:1;fill-rule:evenodd;stroke:none;stroke-width:1pt;stroke-linecap:butt;stroke-linejoin:miter;stroke-opacity:1"
       d="M 72.727275,141.69201 H 127.27272 L 100,158.05564 Z" />
    <rect
       id="rect4696"
       style="fill:#ffce00;fill-opacity:1;fill-rule:evenodd;stroke:none;stroke-width:1pt;stroke-linecap:butt;stroke-linejoin:miter;stroke-opacity:1"
       y="239.87383"
       x="72.727272"
       height="10.90909"
       width="54.545448" />
    <rect
       id="rect5318"
       style="fill:#ffce00;fill-opacity:1;fill-rule:evenodd;stroke:none;stroke-width:1pt;stroke-linecap:butt;stroke-linejoin:miter;stroke-opacity:1"
       y="163.51019"
       x="72.727272"
       height="10.90909"
       width="54.545448" />
    <path
       id="path5343"
       style="fill:#ffce00;fill-opacity:1;fill-rule:evenodd;stroke:none;stroke-width:1pt;stroke-linecap:butt;stroke-linejoin:miter;stroke-opacity:1"
       d="m 127.27243,207.14821 c 0,15.06222 -12.2104,27.27255 -27.272706,27.27255 -15.062305,0 -27.272709,-12.21033 -27.272709,-27.27255 0,-15.06223 12.210404,-27.27256 27.272709,-27.27256 15.062306,0 27.272706,12.21033 27.272706,27.27256 z" />
    <path
       id="path9072"
       style="fill:#e90649;fill-opacity:1;fill-rule:evenodd;stroke:none;stroke-width:1pt;stroke-linecap:butt;stroke-linejoin:miter;stroke-opacity:1"
       d="m 99.999758,237.1462 c -8.665634,0.007 -15.694134,-7.01612 -15.694134,-15.6817 0,-8.66558 7.0285,-15.6885 15.694134,-15.68171 v 15.68171 z" />
    <path
       id="path10316"
       style="fill:#ffce00;fill-opacity:1;fill-rule:evenodd;stroke:none;stroke-width:1pt;stroke-linecap:butt;stroke-linejoin:miter;stroke-opacity:1"
       d="m 112.92715,221.46463 c 0,7.15461 -5.79994,12.95455 -12.954524,12.95455 -7.154588,0 -12.954525,-5.79994 -12.954525,-12.95455 0,-7.15461 5.799937,-12.95456 12.954525,-12.95456 7.154584,0 12.954524,5.79995 12.954524,12.95456 z" />
    <path
       id="path10938"
       style="fill:#e90649;fill-opacity:1;fill-rule:evenodd;stroke:none;stroke-width:1pt;stroke-linecap:butt;stroke-linejoin:miter;stroke-opacity:1"
       d="m 99.999758,177.14779 c 8.656032,0.007 15.669532,7.02574 15.669532,15.68171 0,8.65597 -7.0135,15.6749 -15.669532,15.6817 v -15.6817 z" />
    <path
       id="path10939"
       style="fill:#ffce00;fill-opacity:1;fill-rule:evenodd;stroke:none;stroke-width:1pt;stroke-linecap:butt;stroke-linejoin:miter;stroke-opacity:1"
       d="m 112.95421,192.82913 c 0,7.15461 -5.79994,12.95455 -12.954524,12.95455 -7.154588,0 -12.954525,-5.79994 -12.954525,-12.95455 0,-7.15461 5.799937,-12.95456 12.954525,-12.95456 7.154584,0 12.954524,5.79995 12.954524,12.95456 z" />
    <path
       id="path5965"
       style="fill:#e90649;fill-opacity:1;fill-rule:evenodd;stroke:none;stroke-width:1pt;stroke-linecap:butt;stroke-linejoin:miter;stroke-opacity:1"
       d="m 105.45429,221.6016 c 0,3.01245 -2.44208,5.45453 -5.454533,5.45453 -3.012455,0 -5.454532,-2.44208 -5.454532,-5.45453 0,-3.01246 2.442077,-5.45453 5.454532,-5.45453 3.012453,0 5.454533,2.44207 5.454533,5.45453 z" />
    <path
       id="path6587"
       style="fill:#e90649;fill-opacity:1;fill-rule:evenodd;stroke:none;stroke-width:1pt;stroke-linecap:butt;stroke-linejoin:miter;stroke-opacity:1"
       d="m 105.45429,192.6925 c 0,3.01245 -2.44208,5.45453 -5.454533,5.45453 -3.012455,0 -5.454532,-2.44208 -5.454532,-5.45453 0,-3.01246 2.442077,-5.45453 5.454532,-5.45453 3.012453,0 5.454533,2.44207 5.454533,5.45453 z" />
    <path
       id="path12803"
       style="fill:#ffce00;fill-opacity:1;fill-rule:evenodd;stroke:none;stroke-width:1pt;stroke-linecap:butt;stroke-linejoin:miter;stroke-opacity:1"
       d="m 130.00027,106.2383 c 0,16.56855 -13.43145,30 -30.00001,30 -16.568547,0 -30.000006,-13.43145 -30.000006,-30 0,-16.56856 13.431459,-30.000003 30.000006,-30.000003 16.56856,0 30.00001,13.431443 30.00001,30.000003 z" />
    <path
       id="path12804"
       style="fill:#e90649;fill-opacity:1;fill-rule:evenodd;stroke:none;stroke-width:1pt;stroke-linecap:butt;stroke-linejoin:miter;stroke-opacity:1"
       d="m 132.72729,92.601487 c 0,18.074773 -14.6525,32.727243 -32.72728,32.727243 -18.074784,0 -32.727285,-14.65247 -32.727285,-32.727243 0,-18.074774 14.652501,-32.727246 32.727285,-32.727246 18.07478,0 32.72728,14.652472 32.72728,32.727246 z" />
    <path
       id="path14048"
       style="fill:#ffce00;fill-opacity:1;fill-rule:evenodd;stroke:none;stroke-width:1pt;stroke-linecap:butt;stroke-linejoin:miter;stroke-opacity:1"
       d="m 121.81807,98.057093 c 0,12.049857 -9.76832,21.818187 -21.818173,21.818187 -12.049849,0 -21.818178,-9.76833 -21.818178,-21.818187 0,-12.049861 9.768329,-21.818184 21.818178,-21.818184 12.049853,0 21.818173,9.768323 21.818173,21.818184 z" />
    <path
       id="rect5472"
       d="m 99.46875,27.4375 c -4.148544,3.010098 -1.038662,7.855756 -1.34375,10.4375 -0.329238,2.78592 -1.716347,3.349189 -2.34375,5.625 -0.795794,2.886589 -0.403686,5.8769 0.1875,7.0625 0.536985,1.0769 0.931927,2.017286 1.125,2.84375 0.01514,0.06482 0.05016,0.123871 0.0625,0.1875 0.0044,0.01424 -0.0042,0.04816 0,0.0625 0.0014,0.0079 -0.0013,0.02337 0,0.03125 0.0061,0.02159 0.02566,0.0407 0.03125,0.0625 0.01119,0.0436 0.02219,0.08059 0.03125,0.125 0.0023,0.0111 -0.0021,0.0201 0,0.03125 0.0015,0.01287 -0.0014,0.01843 0,0.03125 0.0016,0.009 -0.0015,0.02226 0,0.03125 0.02485,0.148332 0.06262,0.282084 0.0625,0.4375 0.0012,1.507063 -1.242935,2.75 -2.75,2.75 -1.507066,2e-6 -2.719931,-1.242935 -2.71875,-2.75 -1.8e-5,-0.02355 -5.75e-4,-0.0391 0,-0.0625 5.75e-4,-0.0234 -0.0012,-0.03924 0,-0.0625 0.0013,-0.02558 0.02927,-0.03711 0.03125,-0.0625 5.39e-4,-0.0069 -5.91e-4,-0.02434 0,-0.03125 8.83e-4,-0.01459 -0.0011,-0.04796 0,-0.0625 0.0012,-0.01147 -0.0013,-0.01982 0,-0.03125 0.0014,-0.01449 -0.0016,-0.0168 0,-0.03125 0.0029,-0.02276 -0.0034,-0.03992 0,-0.0625 0.0054,-0.04322 0.02392,-0.08214 0.03125,-0.125 0.0023,-0.0111 -0.0024,-0.0202 0,-0.03125 0.0013,-0.0071 -0.0014,-0.02413 0,-0.03125 0.002,-0.0088 -0.0021,-0.02248 0,-0.03125 0.0028,-0.01422 0.0282,-0.01707 0.03125,-0.03125 0.0028,-0.0109 -0.0029,-0.0204 0,-0.03125 0.0065,-0.02829 0.02402,-0.06558 0.03125,-0.09375 0.0019,-0.0064 -0.002,-0.02484 0,-0.03125 0.0057,-0.02108 0.02516,-0.04148 0.03125,-0.0625 0.0061,-0.02102 -0.0065,-0.07279 0,-0.09375 0.435925,-1.411547 1.723192,-2.682296 1.71875,-4.53125 -0.0059,-2.446341 -1.658552,-3.674823 -2.03125,-4.4375 -0.262706,-0.537717 -0.693549,-2.045607 -0.0625,-3.5625 -1.152792,1.418558 -2.444858,2.503828 -2.4375,4.0625 0.0055,1.164394 0.65506,2.335061 0.59375,4.03125 -0.07113,1.968042 -3.258099,3.228352 -3.375,8.15625 0,7.531168 6.093836,13.625003 13.625,13.625 7.53116,0 13.625,-6.093831 13.625,-13.625 -0.1169,-4.927898 -3.30387,-6.188208 -3.375,-8.15625 -0.0613,-1.696189 0.58825,-2.866856 0.59375,-4.03125 0.007,-1.558672 -1.28471,-2.643942 -2.4375,-4.0625 0.63105,1.516893 0.2002,3.024783 -0.0625,3.5625 -0.3727,0.762677 -2.02536,1.991159 -2.03125,4.4375 -0.004,1.848954 1.28282,3.119703 1.71875,4.53125 0.003,0.0083 -0.003,0.02289 0,0.03125 0.002,0.007 -0.002,0.02425 0,0.03125 0.004,0.01051 -0.004,0.02068 0,0.03125 0.006,0.02102 0.0255,0.04142 0.0312,0.0625 0.0114,0.04217 0.0215,0.08256 0.0312,0.125 0.0146,0.05423 0.0199,0.100733 0.0312,0.15625 0.005,0.02858 0.0272,0.06502 0.0312,0.09375 0.009,0.05403 -0.006,0.101207 0,0.15625 0.002,0.02908 -10e-4,0.06448 0,0.09375 0.002,0.02539 0.03,0.03692 0.0312,0.0625 1.4e-4,0.0074 -8e-5,0.02388 0,0.03125 4.3e-4,0.01167 -2.9e-4,0.01955 0,0.03125 5.7e-4,0.0234 2e-5,0.03895 0,0.0625 10e-4,1.507063 -1.21168,2.75 -2.71875,2.75 -1.17739,10e-7 -2.18058,-0.767475 -2.5625,-1.8125 -0.003,-0.0084 0.003,-0.02285 0,-0.03125 -0.10117,-0.28554 -0.18775,-0.585999 -0.1875,-0.90625 -1.3e-4,-0.164835 0.0346,-0.311954 0.0625,-0.46875 0.004,-0.0224 -0.005,-0.04029 0,-0.0625 0.007,-0.03553 0.0226,-0.05874 0.0312,-0.09375 0.005,-0.02789 0.0257,-0.06596 0.0312,-0.09375 0.006,-0.02159 -0.007,-0.07238 0,-0.09375 0.006,-0.02768 0.0246,-0.03493 0.0312,-0.0625 0.0107,-0.0317 0.0194,-0.06258 0.0312,-0.09375 0.002,-0.0091 -0.002,-0.02211 0,-0.03125 0.26043,-0.977433 0.81655,-1.871895 1.0625,-2.53125 0.44265,-1.186733 1.35942,-3.137552 1.34375,-5.625 -0.0118,-1.878721 -0.45159,-6.08455 -2.75,-9.34375 C 100.72339,33.29902 99.533203,32.180524 98.9058,30.5 98.585891,29.643267 98.83928,28.537797 99.4683,27.4375 Z"
       style="fill:#ffce00;fill-opacity:1;fill-rule:nonzero;stroke:none;stroke-width:1.875;stroke-linecap:round;stroke-linejoin:round;stroke-miterlimit:4;stroke-opacity:1" />
  </g>
</svg>
