<?xml version="1.0" encoding="UTF-8" standalone="no"?>
<!-- Created with Sodipodi ("http://www.sodipodi.com/") -->
<svg
   xmlns:dc="http://purl.org/dc/elements/1.1/"
   xmlns:cc="http://web.resource.org/cc/"
   xmlns:rdf="http://www.w3.org/1999/02/22-rdf-syntax-ns#"
   xmlns:svg="http://www.w3.org/2000/svg"
   xmlns="http://www.w3.org/2000/svg"
   xmlns:sodipodi="http://inkscape.sourceforge.net/DTD/sodipodi-0.dtd"
   xmlns:inkscape="http://www.inkscape.org/namespaces/inkscape"
   id="svg378"
   sodipodi:version="0.32"
   width="280mm"
   height="529.13000pt"
   sodipodi:docbase="/Users/daniel/Desktop/updated flags"
   sodipodi:docname="mongolia.svg"
   inkscape:version="0.42">
  <metadata
     id="metadata3528">
    <rdf:RDF>
      <cc:Work
         rdf:about="">
        <dc:format>image/svg+xml</dc:format>
        <dc:type
           rdf:resource="http://purl.org/dc/dcmitype/StillImage" />
      </cc:Work>
    </rdf:RDF>
  </metadata>
  <defs
     id="defs380" />
  <sodipodi:namedview
     id="base"
     snaptoguides="false"
     inkscape:zoom="0.43262028"
     inkscape:cx="470.67468"
     inkscape:cy="279.68225"
     inkscape:window-width="701"
     inkscape:window-height="507"
     inkscape:window-x="48"
     inkscape:window-y="136"
     inkscape:current-layer="svg378">
    <sodipodi:guide
       orientation="horizontal"
       position="285.041046"
       id="guide203" />
    <sodipodi:guide
       orientation="vertical"
       position="427.344666"
       id="guide204" />
    <sodipodi:guide
       orientation="horizontal"
       position="318.585083"
       id="guide395" />
  </sodipodi:namedview>
  <rect
     style="font-size:12.000000px;fill:#d61517;fill-opacity:1.0000000;fill-rule:evenodd;stroke-width:1.0000000pt"
     id="rect171"
     x="0.0000000"
     y="0.0000000"
     width="997.12500"
     height="661.41248" />
  <rect
     style="font-size:12.000000px;fill:#018edf;fill-opacity:1.0000000;fill-rule:evenodd;stroke-width:1.0000000pt"
     id="rect403"
     y="0.0000000"
     width="332.37503"
     height="661.41248"
     x="332.37503" />
  <g
     id="g3530"
     transform="translate(0.000000,85.18607)">
    <path
       transform="matrix(0.937314,0.000000,0.000000,0.704478,0.000000,3.644928)"
       id="path226"
       d="M 180.27400,184.64600 C 193.51400,185.15500 195.55100,179.04400 195.55100,172.93300 C 195.55100,166.82200 195.55100,154.60000 195.55100,152.05400 C 195.55100,149.50800 200.64300,146.96200 200.64300,142.37800 C 200.64300,137.79500 198.09700,132.70300 197.07900,129.64700 C 195.55100,137.28600 193.00500,144.92500 188.42100,147.47100 C 186.38400,141.36000 185.87500,139.32300 186.89400,136.26700 C 187.91200,133.21200 186.89400,128.62900 184.85700,124.04600 C 183.32900,133.72100 178.74600,136.26800 178.23700,139.32300 C 177.72700,142.37800 176.20000,151.03600 173.14400,146.45200 C 170.08900,141.86900 168.05200,136.26800 166.52400,130.15700 C 163.46800,142.37800 164.99600,144.92500 166.01500,146.96200 C 167.03300,148.99900 168.05200,155.11000 168.05200,157.65600 C 168.05200,160.20200 166.01500,170.38700 167.03300,173.44300 C 168.05200,176.49800 168.56100,185.66400 180.27400,184.64600 z "
       style="font-size:12.000000px;fill:#ffd700;fill-opacity:0.86666697;fill-rule:evenodd;stroke-width:1.0000000pt" />
    <path
       transform="matrix(0.798177,0.000000,0.000000,0.599904,27.10620,23.15600)"
       sodipodi:ry="39.212036"
       sodipodi:rx="39.212036"
       sodipodi:cy="236.07993"
       sodipodi:cx="181.80127"
       d="M 221.01331 236.07993 A 39.212036 39.212036 0 1 1  142.58923,236.07993 A 39.212036 39.212036 0 1 1  221.01331 236.07993 z"
       id="path227"
       style="font-size:12.000000px;fill:#ffd700;fill-opacity:0.86666697;fill-rule:evenodd;stroke-width:1.0000000pt"
       sodipodi:type="arc" />
    <path
       transform="matrix(0.978282,0.000000,0.000000,0.969300,-5.631165,-78.03106)"
       sodipodi:nodetypes="ccccc"
       id="path232"
       d="M 226.42200,260.09300 C 209.53200,283.90800 177.00300,290.52700 152.88300,274.56200 C 146.52500,270.35500 141.87500,265.64400 137.45200,259.61100 C 141.44100,276.73100 153.53300,288.85100 170.26600,293.17800 C 194.89600,299.54500 220.05400,284.72300 226.42200,260.09300 z "
       style="font-size:12.000000px;fill:#ffd700;fill-opacity:0.86666697;fill-rule:evenodd;stroke-width:1.0000000pt" />
    <rect
       y="355.95926"
       x="124.32165"
       height="19.372650"
       width="93.121460"
       id="rect233"
       style="font-size:12.000000px;fill:#ffd700;fill-opacity:0.86666697;fill-rule:evenodd;stroke-width:1.0000000pt" />
    <path
       sodipodi:nodetypes="cccc"
       transform="matrix(0.937314,0.000000,0.000000,0.899687,0.000000,-102.8492)"
       id="path235"
       d="M 137.49700,357.79000 L 181.80200,385.79800 L 226.61500,357.79000 L 137.49700,357.79000 z "
       style="font-size:12.000000px;fill:#ffd700;fill-opacity:0.86666697;fill-rule:evenodd;stroke-width:1.0000000pt" />
    <rect
       y="246.33405"
       x="128.87784"
       height="19.372671"
       width="84.009102"
       id="rect249"
       style="font-size:12.000000px;fill:#ffd700;fill-opacity:0.86666697;fill-rule:evenodd;stroke-width:1.0000000pt" />
    <path
       sodipodi:nodetypes="cccc"
       transform="matrix(0.937314,0.000000,0.000000,0.704478,0.000000,135.6902)"
       id="path250"
       d="M 137.49700,357.79000 L 181.80200,385.79800 L 226.61500,357.79000 L 137.49700,357.79000 z "
       style="font-size:12.000000px;fill:#ffd700;fill-opacity:0.86666697;fill-rule:evenodd;stroke-width:1.0000000pt" />
    <rect
       y="219.33084"
       x="66.032059"
       height="187.30681"
       width="40.536167"
       id="rect251"
       style="font-size:12.000000px;fill:#ffd700;fill-opacity:0.86666697;fill-rule:evenodd;stroke-width:1.0000000pt" />
    <rect
       y="219.33081"
       x="232.78844"
       height="187.30681"
       width="40.536167"
       id="rect612"
       style="font-size:12.000000px;fill:#ffd700;fill-opacity:0.86666697;fill-rule:evenodd;stroke-width:1.0000000pt" />
    <path
       sodipodi:nodetypes="cccccccccccccccccccccccc"
       transform="matrix(-0.489416,-0.799394,0.600818,-0.367841,-7.320761,617.3574)"
       id="path633"
       d="M 219.00300,427.25600 C 220.44500,449.06000 216.38200,476.56800 205.90800,479.11900 C 195.18100,481.52100 188.04300,478.35300 183.23500,471.99600 C 179.45700,465.62200 178.58400,450.10100 185.34200,444.66000 C 192.79400,438.15500 188.26500,414.40200 182.82800,407.66800 C 177.21000,400.08600 169.43300,393.45600 160.96900,390.02100 C 192.99700,383.16200 218.04500,401.32500 219.00300,427.25600 z M 189.87500,459.55100 C 189.95000,453.92900 194.57400,449.42800 200.19500,449.50400 C 205.81700,449.57900 206.19100,453.34100 206.11700,458.96200 C 206.04000,464.58400 205.54300,469.94700 199.92200,469.87200 C 194.30000,469.79600 189.79900,465.17200 189.87500,459.55100 z M 141.91900,452.31600 C 140.18500,430.53300 148.11500,403.43300 158.55300,400.74200 C 169.24700,398.19600 174.87100,412.09800 179.76400,418.39000 C 183.62700,424.71200 183.03200,438.89200 176.34800,444.42300 C 168.98400,451.02700 174.55300,475.80000 183.26200,480.50200 C 188.98000,488.00800 191.42300,486.09000 203.19800,489.74200 C 171.26500,497.03000 143.22500,478.23200 141.91900,452.31600 z M 170.27900,430.02200 C 170.27900,435.64400 167.05300,439.77900 161.43100,439.77900 C 155.80900,439.77900 152.70000,436.93400 152.69900,431.31200 C 152.70000,425.69000 155.80900,419.40900 161.43100,419.40900 C 167.05300,419.40900 170.27900,424.40000 170.27900,430.02200 z "
       style="font-size:12.000000px;fill:#ffd700;fill-opacity:0.86666697;fill-rule:evenodd;stroke-width:0.62500000" />
  </g>
</svg>
