<?xml version="1.0" encoding="UTF-8" standalone="no"?>
<svg
   width="900"
   height="600"
   viewBox="-60 -40 120 80"
   version="1.1"
   id="svg18"
   sodipodi:docname="morocco.svg"
   inkscape:version="1.2.2 (b0a8486541, 2022-12-01)"
   xmlns:inkscape="http://www.inkscape.org/namespaces/inkscape"
   xmlns:sodipodi="http://sodipodi.sourceforge.net/DTD/sodipodi-0.dtd"
   xmlns="http://www.w3.org/2000/svg"
   xmlns:svg="http://www.w3.org/2000/svg">
  <defs
     id="defs22" />
  <sodipodi:namedview
     id="namedview20"
     pagecolor="#ffffff"
     bordercolor="#666666"
     borderopacity="1.0"
     inkscape:showpageshadow="2"
     inkscape:pageopacity="0.0"
     inkscape:pagecheckerboard="0"
     inkscape:deskcolor="#d1d1d1"
     showgrid="false"
     inkscape:zoom="0.78666667"
     inkscape:cx="475.42373"
     inkscape:cy="284.74576"
     inkscape:window-width="910"
     inkscape:window-height="703"
     inkscape:window-x="503"
     inkscape:window-y="109"
     inkscape:window-maximized="0"
     inkscape:current-layer="svg18" />
  <desc
     id="desc2">Flag of Morocco</desc>
  <rect
     y="-40"
     x="-60"
     height="80"
     width="120"
     style="fill: #c1272d"
     id="rect4" />
  <g
     style="fill: #006233;stroke:#000000;stroke-width:0.29600827"
     transform="matrix(0.4392946,0,0,0.4618638,-84.342931,-57.008939)"
     id="g16">
    <path
       d="M 181.25,113.1875 L 146.46875,113.21875 L 186.0625,141.96875 L 192,137.65625 L 168,120.21875 L 178.96875,120.1875 L 181.25,113.1875 z"
       id="path6" />
    <path
       d="M 202.76559,113.19883 L 191.98787,80.129551 L 176.88014,126.66968 L 182.81636,130.98395 L 191.984,102.77011 L 195.40325,113.19235 L 202.76559,113.19883 z"
       id="path8" />
    <path
       d="M 209.40356,133.66496 L 237.52382,113.19577 L 188.59298,113.20916 L 186.32426,120.18802 L 215.99017,120.18841 L 207.13464,126.66096 L 209.40356,133.66496 z"
       id="path10" />
    <path
       d="M 191.99045,146.30222 L 220.14744,166.72085 L 205.01425,120.18899 L 197.67588,120.1879 L 206.84278,148.40198 L 197.95051,141.97999 L 191.99045,146.30222 z"
       id="path12" />
    <path
       d="M 174.59078,133.64658 L 163.8725,166.73517 L 203.45052,137.96351 L 201.18387,130.98397 L 177.18341,148.42084 L 180.54323,137.97929 L 174.59078,133.64658 z"
       id="path14" />
  </g>
</svg>
