<?xml version="1.0" encoding="UTF-8" standalone="no"?>
<svg
   version="1"
   width="900"
   height="600"
   id="svg14"
   sodipodi:docname="netherlands_antilles.svg"
   inkscape:version="1.2.2 (b0a8486541, 2022-12-01)"
   xmlns:inkscape="http://www.inkscape.org/namespaces/inkscape"
   xmlns:sodipodi="http://sodipodi.sourceforge.net/DTD/sodipodi-0.dtd"
   xmlns="http://www.w3.org/2000/svg"
   xmlns:svg="http://www.w3.org/2000/svg">
  <defs
     id="defs18" />
  <sodipodi:namedview
     id="namedview16"
     pagecolor="#ffffff"
     bordercolor="#666666"
     borderopacity="1.0"
     inkscape:showpageshadow="2"
     inkscape:pageopacity="0.0"
     inkscape:pagecheckerboard="0"
     inkscape:deskcolor="#d1d1d1"
     showgrid="false"
     inkscape:zoom="0.78666667"
     inkscape:cx="449.36441"
     inkscape:cy="307.62712"
     inkscape:window-width="825"
     inkscape:window-height="647"
     inkscape:window-x="500"
     inkscape:window-y="112"
     inkscape:window-maximized="0"
     inkscape:current-layer="svg14" />
  <rect
     width="900"
     height="600"
     fill="#ffffff"
     id="rect2" />
  <rect
     width="200"
     height="600"
     x="350"
     fill="#ae1c28"
     id="rect4" />
  <rect
     width="900"
     height="200"
     y="200"
     fill="#21468b"
     id="rect6" />
  <path
     sodipodi:type="star"
     style="fill:#ffffff;fill-opacity:1;stroke:none"
     id="path3611"
     sodipodi:sides="5"
     sodipodi:cx="328.57144"
     sodipodi:cy="217.14285"
     sodipodi:r1="246.12923"
     sodipodi:r2="93.001854"
     sodipodi:arg1="-0.05807416"
     sodipodi:arg2="0.53311568"
     inkscape:flatsided="false"
     inkscape:rounded="0"
     inkscape:randomized="0"
     d="M 574.28574,202.85714 408.66722,264.40817 418.08786,446.41651 308.37041,307.92426 138.18133,373.12748 235.99073,225.98353 121.38747,84.273 l 170.16698,47.55229 99.36036,-152.785147 7.35958,176.532877 176.01135,47.28412 z"
     transform="matrix(0.10311963,-0.02916735,0.02780555,0.10817002,360.13931,351.16918)" />
  <path
     sodipodi:type="star"
     style="fill:#ffffff;fill-opacity:1;stroke:none"
     id="path3611-2"
     sodipodi:sides="5"
     sodipodi:cx="328.57144"
     sodipodi:cy="217.14285"
     sodipodi:r1="246.12923"
     sodipodi:r2="93.001854"
     sodipodi:arg1="-0.05807416"
     sodipodi:arg2="0.53311568"
     inkscape:flatsided="false"
     inkscape:rounded="0"
     inkscape:randomized="0"
     d="M 574.28574,202.85714 408.66722,264.40817 418.08786,446.41651 308.37041,307.92426 138.18133,373.12748 235.99073,225.98353 121.38747,84.273 l 170.16698,47.55229 99.36036,-152.785147 7.35958,176.532877 176.01135,47.28412 z"
     transform="matrix(0.10311963,-0.02916735,0.02780555,0.10817002,460.13931,351.16918)" />
  <path
     sodipodi:type="star"
     style="fill:#ffffff;fill-opacity:1;stroke:none"
     id="path3611-5"
     sodipodi:sides="5"
     sodipodi:cx="328.57144"
     sodipodi:cy="217.14285"
     sodipodi:r1="246.12923"
     sodipodi:r2="93.001854"
     sodipodi:arg1="-0.05807416"
     sodipodi:arg2="0.53311568"
     inkscape:flatsided="false"
     inkscape:rounded="0"
     inkscape:randomized="0"
     d="M 574.28574,202.85714 408.66722,264.40817 418.08786,446.41651 308.37041,307.92426 138.18133,373.12748 235.99073,225.98353 121.38747,84.273 l 170.16698,47.55229 99.36036,-152.785147 7.35958,176.532877 176.01135,47.28412 z"
     transform="matrix(0.10311963,-0.02916735,0.02780555,0.10817002,360.13931,226.16918)" />
  <path
     sodipodi:type="star"
     style="fill:#ffffff;fill-opacity:1;stroke:none"
     id="path3611-2-4"
     sodipodi:sides="5"
     sodipodi:cx="328.57144"
     sodipodi:cy="217.14285"
     sodipodi:r1="246.12923"
     sodipodi:r2="93.001854"
     sodipodi:arg1="-0.05807416"
     sodipodi:arg2="0.53311568"
     inkscape:flatsided="false"
     inkscape:rounded="0"
     inkscape:randomized="0"
     d="M 574.28574,202.85714 408.66722,264.40817 418.08786,446.41651 308.37041,307.92426 138.18133,373.12748 235.99073,225.98353 121.38747,84.273 l 170.16698,47.55229 99.36036,-152.785147 7.35958,176.532877 176.01135,47.28412 z"
     transform="matrix(0.10311963,-0.02916735,0.02780555,0.10817002,460.13931,226.16918)" />
  <path
     sodipodi:type="star"
     style="fill:#ffffff;fill-opacity:1;stroke:none"
     id="path3611-2-7"
     sodipodi:sides="5"
     sodipodi:cx="328.57144"
     sodipodi:cy="217.14285"
     sodipodi:r1="246.12923"
     sodipodi:r2="93.001854"
     sodipodi:arg1="-0.05807416"
     sodipodi:arg2="0.53311568"
     inkscape:flatsided="false"
     inkscape:rounded="0"
     inkscape:randomized="0"
     d="M 574.28574,202.85714 408.66722,264.40817 418.08786,446.41651 308.37041,307.92426 138.18133,373.12748 235.99073,225.98353 121.38747,84.273 l 170.16698,47.55229 99.36036,-152.785147 7.35958,176.532877 176.01135,47.28412 z"
     transform="matrix(0.10311963,-0.02916735,0.02780555,0.10817002,272.63931,288.66918)" />
  <path
     sodipodi:type="star"
     style="fill:#ffffff;fill-opacity:1;stroke:none"
     id="path3611-2-7-4"
     sodipodi:sides="5"
     sodipodi:cx="328.57144"
     sodipodi:cy="217.14285"
     sodipodi:r1="246.12923"
     sodipodi:r2="93.001854"
     sodipodi:arg1="-0.05807416"
     sodipodi:arg2="0.53311568"
     inkscape:flatsided="false"
     inkscape:rounded="0"
     inkscape:randomized="0"
     d="M 574.28574,202.85714 408.66722,264.40817 418.08786,446.41651 308.37041,307.92426 138.18133,373.12748 235.99073,225.98353 121.38747,84.273 l 170.16698,47.55229 99.36036,-152.785147 7.35958,176.532877 176.01135,47.28412 z"
     transform="matrix(0.10311963,-0.02916735,0.02780555,0.10817002,547.63931,288.66918)" />
</svg>
