<?xml version="1.0" encoding="UTF-8" standalone="no"?>
<svg
   xmlns:dc="http://purl.org/dc/elements/1.1/"
   xmlns:cc="http://creativecommons.org/ns#"
   xmlns:rdf="http://www.w3.org/1999/02/22-rdf-syntax-ns#"
   xmlns:svg="http://www.w3.org/2000/svg"
   xmlns="http://www.w3.org/2000/svg"
   xmlns:sodipodi="http://sodipodi.sourceforge.net/DTD/sodipodi-0.dtd"
   xmlns:inkscape="http://www.inkscape.org/namespaces/inkscape"
   version="1"
   x="0.00000000"
   y="0.00000000"
   width="750pt"
   height="499.99683pt"
   id="svg1"
   sodipodi:docname="newfoundland.svg"
   inkscape:version="1.0.2 (e86c870879, 2021-01-15)">
  <metadata
     id="metadata24">
    <rdf:RDF>
      <cc:Work
         rdf:about="">
        <dc:format>image/svg+xml</dc:format>
        <dc:type
           rdf:resource="http://purl.org/dc/dcmitype/StillImage" />
      </cc:Work>
    </rdf:RDF>
  </metadata>
  <sodipodi:namedview
     pagecolor="#ffffff"
     bordercolor="#666666"
     borderopacity="1"
     objecttolerance="10"
     gridtolerance="10"
     guidetolerance="10"
     inkscape:pageopacity="0"
     inkscape:pageshadow="2"
     inkscape:window-width="1157"
     inkscape:window-height="874"
     id="namedview22"
     showgrid="false"
     inkscape:zoom="0.85118508"
     inkscape:cx="500"
     inkscape:cy="355.55325"
     inkscape:window-x="412"
     inkscape:window-y="27"
     inkscape:window-maximized="0"
     inkscape:current-layer="svg1" />
  <defs
     id="defs3">
    <inkscape:perspective
       sodipodi:type="inkscape:persp3d"
       inkscape:vp_x="0 : 288.88702 : 1"
       inkscape:vp_y="0 : 1000 : 0"
       inkscape:vp_z="1000 : 288.88702 : 1"
       inkscape:persp3d-origin="500 : 177.7766 : 1"
       id="perspective19" />
    <inkscape:perspective
       id="perspective4209"
       inkscape:persp3d-origin="485.5 : 272.55575 : 1"
       inkscape:vp_z="971 : 431.05575 : 1"
       inkscape:vp_y="0 : 1000 : 0"
       inkscape:vp_x="0 : 431.05575 : 1"
       sodipodi:type="inkscape:persp3d" />
  </defs>
  <rect
     style="opacity:1;fill:#cc0000;fill-opacity:1;stroke:none;stroke-opacity:1"
     id="rect2392"
     width="1000"
     height="666.32001"
     x="0"
     y="0.34243897" />
  <rect
     id="rect124"
     style="font-size:12px;fill:#000066;stroke-width:1pt"
     y="0.021445312"
     x="0"
     height="333.33099"
     width="500" />
  <g
     style="font-size:12px"
     id="g584"
     transform="scale(8.333333,11.11104)">
    <path
       id="path146"
       style="fill:#ffffff;stroke-width:1pt"
       d="M 0,0 V 3.3541 L 53.2918,30 H 60 V 26.6459 L 6.7082,0 Z M 60,0 V 3.35405 L 6.7082,30 H 0 V 26.6458 L 53.2918,0 Z" />
    <path
       id="path136"
       style="fill:#ffffff;stroke-width:1pt"
       d="M 25,0 V 30 H 35 V 0 Z M 0,10 V 20 H 60 V 10 Z" />
    <path
       id="path141"
       style="fill:#cc0000;stroke-width:1pt"
       d="m 0,12 v 6 H 60 V 12 Z M 27,0 v 30 h 6 V 0 Z" />
    <path
       id="path150"
       style="fill:#cc0000;stroke-width:1pt"
       d="M 0,30 20,20 h 4.4721 L 4.47214,30 Z M 0,0 20,10 H 15.5279 L 0,2.23607 Z m 35.5279,10 20,-10 H 60 L 40,10 Z M 60,30 40,20 h 4.4721 L 60,27.7639 Z" />
  </g>
  <g
     id="g2610"
     transform="matrix(0.3473739,0,0,0.2609093,945.48634,195.19897)">
    <g
       id="g2757">
      <path
         style="fill:#000000;stroke:none"
         d="m -605.67237,189.09822 c -43.90237,7.92315 -85.47941,26.11471 -123.22808,58.04106 -31.88823,26.96972 -60.62407,62.80696 -81.95911,104.91632 -21.22189,41.88573 -36.25228,87.25544 -44.8922,136.75266 -5.19819,29.7799 -5.26341,58.9042 -5.26341,89.29144 0,38.21996 3.47709,73.56167 11.86396,110.20656 31.12759,136.00534 120.99961,237.64394 223.33579,262.70668 18.66669,4.57156 37.96018,2.75436 56.8745,2.75436 12.01237,0 24.80676,1.70699 36.73145,-0.22926 37.76704,-6.13376 74.33023,-24.81015 107.23213,-50.22362 30.93617,-23.89552 58.16187,-56.69283 80.33523,-94.34405 20.90671,-35.50019 37.23502,-76.54047 47.42859,-119.85969 8.66151,-36.80979 11.46021,-71.81284 11.46021,-110.20655 0,-17.99263 1.15941,-36.79451 -0.10071,-54.70106 -1.81347,-25.76903 -6.90018,-52.02715 -13.13683,-76.42061 -38.42109,-150.27025 -147.05968,-259.02562 -264.61808,-259.02562 -13.70972,0 -28.47695,-2.11059 -42.06344,0.34138 z"
         id="path6" />
      <path
         style="fill:#ffffff;stroke:none"
         d="m -844.42677,566.03329 c 42.13772,0 85.11861,-6.86498 122.63563,-34.84136 15.47994,-11.54273 29.37924,-26.47129 42.65588,-42.15682 9.30668,-10.99572 17.93857,-22.97525 26.65992,-34.81723 3.05878,-4.15326 8.91804,-9.57349 10.28303,-15.28412 1.39816,-5.84979 -1.82354,-16.57603 -2.69976,-22.52397 -2.75131,-18.68041 -7.0631,-38.13146 -8.17571,-57.11434 20.27753,1.18492 34.21238,22.13462 41.81223,45.85236 4.54641,14.1909 8.13187,32.9043 17.44092,42.89127 7.01749,7.52944 14.78678,6.39198 23.09638,6.98323 l -5.21349,33.78595 -6.63536,45.85236 -11.84886,-8.04427 7.80248,127.09953 2.36977,38.61251 1.43075,24.13282 -4.49368,20.91512 97.75304,2.41328 -23.10526,-165.71205 h -34.95412 c 0,-4.18382 -1.02374,-11.42367 0.60903,-15.10312 1.67898,-3.78564 7.22602,-4.74773 10.05494,-6.39118 7.77403,-4.51686 15.53799,-9.69335 22.51282,-16.22047 17.78276,-16.64199 31.27979,-38.96566 44.3627,-62.03422 4.59143,-8.09576 10.66812,-16.04431 14.35193,-24.93725 1.82472,-4.40505 -1.04981,-8.3757 -2.66718,-12.06641 -3.25429,-7.42889 -6.35099,-16.17865 -6.82139,-24.93725 -1.12978,-21.04624 13.03374,-39.45154 23.05195,-53.09221 l 34.02043,160.88548 15.15291,71.59404 6.51627,26.5461 c 30.04514,0 48.22602,39.41614 45.51738,78.02946 -1.16415,16.60097 -6.0364,28.74219 -11.1557,43.43908 28.84781,-5.27865 36.65561,-52.27411 42.58063,-84.46488 16.32298,-88.67364 5.70582,-186.69392 -28.36852,-265.46104 -14.94496,-34.54774 -33.81782,-66.08693 -56.27554,-92.16486 -78.9815,-91.71301 -193.65945,-116.48144 -289.11204,-59.17858 -35.11289,21.07921 -67.04496,52.88474 -93.06623,91.01138 -21.79123,31.92934 -39.57583,70.93763 -50.70853,111.81541 -10.93265,40.14254 -17.36965,81.82153 -17.36965,124.68625 z"
         id="path10" />
      <path
         style="fill:#ff8080;stroke:none"
         d="m -653.06778,359.29545 c 3.61923,18.99414 5.81542,38.67928 8.64966,57.91877 0.81283,5.51596 4.05883,16.39262 2.48945,21.71954 -1.51488,5.1411 -6.52102,9.81804 -9.36178,13.67527 -7.22721,9.81321 -14.4402,19.5862 -21.92038,29.03098 -41.23698,52.06817 -91.17338,83.58885 -148.11068,83.58885 v 0.80443 h 62.79893 l -5.33199,23.3284 11.25641,-7.23985 -21.36585,86.87816 -18.92025,46.65679 c 15.88043,8.97741 29.98945,26.71181 47.39542,29.76381 l -1.18489,27.35053 h 150.48045 l 12.92473,-55.50549 -1.615,-28.95938 -4.09971,-66.76748 -4.14709,-67.5719 -1.87805,-27.35053 11.84886,7.23984 c 6.16792,-24.73212 8.184,-53.17506 11.84885,-78.83388 -4.74191,0.5084 -8.93344,0.96612 -13.62618,-0.74329 -20.41617,-7.43613 -23.25338,-46.09852 -33.3877,-66.82861 -8.78237,-17.96528 -20.14779,-23.27289 -34.74321,-28.15496 z"
         id="path1786" />
      <path
         style="fill:#ff5555;stroke:none"
         d="m -442.75062,360.09988 c -10.64383,14.75641 -24.64621,33.6685 -21.6449,56.30991 1.01486,7.65654 3.67196,15.02349 6.49436,21.71954 1.12327,2.66507 3.6767,6.36624 2.95096,9.65313 -0.83179,3.76794 -3.91072,7.43452 -5.69219,10.45756 -4.08193,6.92773 -8.11647,13.8997 -12.11605,20.91511 -19.15012,33.59209 -43.05636,68.60237 -74.85454,78.83389 v 16.08854 h 35.54656 c 0.47218,14.88593 3.96226,30.41782 6.04114,45.04794 3.6921,25.99185 7.07969,52.07219 10.90272,78.02946 2.05933,13.97934 1.9681,36.29415 8.79363,47.46121 2.66658,4.36322 6.65372,12.58527 10.57095,14.79905 7.74797,4.3785 18.91374,-4.82093 27.08293,-2.38432 2.36503,0.70548 4.49842,3.02465 6.51687,4.73245 6.46651,5.4685 24.46729,20.20078 28.11555,2.96351 0.54623,-2.58141 0.75892,-5.37679 0.91414,-8.04428 6.34329,1.09403 12.67235,2.91686 18.95817,4.51365 2.5475,0.64676 5.86577,2.58623 7.70175,-0.49151 -35.79776,-6.55045 -41.7915,-74.83347 -28.5818,-110.20655 5.56777,-14.90926 15.89286,-29.05029 28.5818,-31.37267 l -9.8221,-41.83023 -27.25237,-128.70838 -12.69071,-60.33205 z"
         id="path1804" />
      <path
         style="fill:#996633;stroke:none"
         d="m -843.74924,564.91505 c -1.8146,42.27829 4.66613,87.54985 15.53835,127.09953 4.25616,15.48281 10.00156,29.88287 14.67622,45.04793 39.61487,-33.63954 47.10157,-99.38379 61.0216,-155.25449 l -11.25641,7.23985 5.33198,-24.13282 z"
         id="path3332" />
      <path
         style="fill:#0000cc;stroke:none"
         d="m -387.08516,617.03256 c -34.8072,7.38143 -43.14938,71.41546 -30.34433,108.24456 7.04592,20.26594 21.61528,37.97299 39.23097,34.23723 34.82141,-7.38464 43.15352,-71.40419 30.34432,-108.24455 -7.04592,-20.26594 -21.61527,-37.973 -39.23096,-34.23724 z"
         id="path3584" />
      <path
         style="fill:#ffffff;stroke:none"
         d="m -789.92205,788.85968 c 5.00318,11.80899 13.08529,22.59315 20.14306,32.1771 13.5616,18.41495 27.86198,35.14221 43.84076,49.60662 87.27154,78.99879 203.83109,83.09735 293.85157,9.76012 19.8024,-16.13199 37.60471,-35.61522 53.91229,-57.75789 7.45115,-10.11728 16.04157,-21.30767 21.32794,-33.78595 z"
         id="path4202" />
    </g>
  </g>
</svg>
