<?xml version="1.0" encoding="UTF-8" standalone="no"?>
<svg
   xmlns:dc="http://purl.org/dc/elements/1.1/"
   xmlns:cc="http://creativecommons.org/ns#"
   xmlns:rdf="http://www.w3.org/1999/02/22-rdf-syntax-ns#"
   xmlns:svg="http://www.w3.org/2000/svg"
   xmlns="http://www.w3.org/2000/svg"
   xmlns:sodipodi="http://sodipodi.sourceforge.net/DTD/sodipodi-0.dtd"
   xmlns:inkscape="http://www.inkscape.org/namespaces/inkscape"
   id="svg1"
   sodipodi:version="0.32"
   width="749.99994pt"
   height="499.99686pt"
   sodipodi:docname="newzealand.svg"
   inkscape:version="1.0.2 (e86c870879, 2021-01-15)"
   version="1.1">
  <metadata
     id="metadata3599">
    <rdf:RDF>
      <cc:Work
         rdf:about="">
        <dc:format>image/svg+xml</dc:format>
        <dc:type
           rdf:resource="http://purl.org/dc/dcmitype/StillImage" />
      </cc:Work>
    </rdf:RDF>
  </metadata>
  <defs
     id="defs3" />
  <sodipodi:namedview
     id="base"
     inkscape:zoom="0.42921382"
     inkscape:cx="521.49543"
     inkscape:cy="278.08759"
     inkscape:window-width="812"
     inkscape:window-height="595"
     inkscape:window-x="55"
     inkscape:window-y="103"
     inkscape:current-layer="svg1"
     inkscape:document-rotation="0"
     showgrid="false"
     inkscape:window-maximized="0" />
  <rect
     height="666.66248"
     width="999.99994"
     y="0"
     x="0"
     id="rect124"
     style="fill:#000066;fill-opacity:1;fill-rule:nonzero;stroke:none;stroke-width:1pt;stroke-linecap:butt;stroke-linejoin:miter;stroke-opacity:1" />
  <path
     id="path146"
     d="M 0,6.6210937e-6 V 37.267547 L 444.09832,333.33127 h 55.90166 V 296.06372 L 55.901664,6.6210937e-6 Z m 499.99998,0 V 37.266997 L 55.901664,333.33127 H 0 V 296.0626 L 444.09832,6.6210937e-6 Z"
     style="fill:#ffffff;fill-opacity:1;fill-rule:nonzero;stroke:none;stroke-width:1pt;stroke-linecap:butt;stroke-linejoin:miter;stroke-opacity:1" />
  <path
     id="path136"
     d="M 208.33333,6.6210937e-6 V 333.33127 h 83.33332 V 6.6210937e-6 Z M 0,111.11043 V 222.22084 H 499.99998 V 111.11043 Z"
     style="font-size:12px;fill:#ffffff;stroke-width:1pt" />
  <path
     id="path141"
     d="m 0,133.33251 v 66.66625 H 499.99998 V 133.33251 Z M 224.99999,6.6210937e-6 V 333.33127 h 50 V 6.6210937e-6 Z"
     style="font-size:12px;fill:#cc0000;fill-opacity:1;stroke-width:1pt" />
  <g
     id="g141"
     transform="matrix(9.84506,0,0,9.84506,-136.2972,41.622359)">
    <path
       id="path133"
       d="m 90,7.9949625 0.899187,2.7674125 h 2.90983 l -2.354102,1.710356 0.899187,2.767412 L 90,13.529788 l -2.354102,1.710355 0.899187,-2.767412 -2.354102,-1.710356 h 2.90983 z"
       style="fill:#ffffff;fill-opacity:1;fill-rule:nonzero;stroke:none;stroke-width:1pt;stroke-linecap:butt;stroke-linejoin:miter;stroke-opacity:1" />
    <path
       id="path132"
       d="m 90,8.8456133 0.708204,2.1796277 H 93 l -1.854102,1.347084 0.708204,2.179627 L 90,13.204868 88.145898,14.551952 88.854102,12.372325 87,11.025241 h 2.291796 z"
       style="fill:#cc0000;fill-opacity:1;fill-rule:nonzero;stroke:none;stroke-width:1pt;stroke-linecap:butt;stroke-linejoin:miter;stroke-opacity:1" />
  </g>
  <path
     id="path150"
     d="M 0,333.33127 166.66666,222.22084 h 37.2675 L 37.267832,333.33127 Z M 0,6.6210937e-6 166.66666,111.11043 h -37.2675 L 0,24.845077 Z M 296.06582,111.11043 462.73248,6.6210937e-6 h 37.2675 L 333.33332,111.11043 Z M 499.99998,333.33127 333.33332,222.22084 h 37.2675 l 129.39916,86.26502 z"
     style="fill:#cc0000;fill-opacity:1;fill-rule:nonzero;stroke:none;stroke-width:1pt;stroke-linecap:butt;stroke-linejoin:miter;stroke-opacity:1" />
  <g
     transform="matrix(9.84506,0,0,9.84506,-247.8284,176.67124)"
     id="g132">
    <path
       id="path134"
       d="m 90,7.9949625 0.899187,2.7674125 h 2.90983 l -2.354102,1.710356 0.899187,2.767412 L 90,13.529788 l -2.354102,1.710355 0.899187,-2.767412 -2.354102,-1.710356 h 2.90983 z"
       style="fill:#ffffff;fill-opacity:1;fill-rule:nonzero;stroke:none;stroke-width:1pt;stroke-linecap:butt;stroke-linejoin:miter;stroke-opacity:1" />
    <path
       id="path135"
       d="m 90,8.8456133 0.708204,2.1796277 H 93 l -1.854102,1.347084 0.708204,2.179627 L 90,13.204868 88.145898,14.551952 88.854102,12.372325 87,11.025241 h 2.291796 z"
       style="fill:#cc0000;fill-opacity:1;fill-rule:nonzero;stroke:none;stroke-width:1pt;stroke-linecap:butt;stroke-linejoin:miter;stroke-opacity:1" />
  </g>
  <g
     transform="matrix(9.801797,0,0,9.801797,-30.45316,30.330459)"
     id="g139">
    <path
       id="path138"
       d="m 90,20.647738 0.75263,2.316356 h 2.435561 l -1.97041,1.431587 0.752629,2.316356 L 90,25.28045 l -1.97041,1.431587 0.752629,-2.316356 -1.97041,-1.431587 h 2.435561 z"
       style="fill:#ffffff;fill-opacity:1;fill-rule:nonzero;stroke:none;stroke-width:1pt;stroke-linecap:butt;stroke-linejoin:miter;stroke-opacity:1" />
    <path
       id="path137"
       d="m 90,21.371344 0.59017,1.816357 H 92.5 l -1.545085,1.12257 0.59017,1.816356 L 90,25.004057 88.454915,26.126627 89.045085,24.310271 87.5,23.187701 h 1.90983 z"
       style="fill:#cc0000;fill-opacity:1;fill-rule:nonzero;stroke:none;stroke-width:1pt;stroke-linecap:butt;stroke-linejoin:miter;stroke-opacity:1" />
  </g>
  <g
     id="g3683"
     transform="matrix(1.110265,0,0,1.110265,-82.85004,-54.485791)">
    <path
       style="fill:#ffffff;fill-opacity:1;fill-rule:evenodd;stroke:none;stroke-width:1pt;stroke-linecap:butt;stroke-linejoin:miter;stroke-opacity:1"
       d="m 749.99997,464.02577 8.23915,25.35749 h 26.66244 l -21.57037,15.67179 8.23915,25.35749 -21.57037,-15.67179 -21.57037,15.67179 8.23915,-25.35749 -21.57037,-15.67179 h 26.66244 z"
       id="path142" />
    <path
       style="fill:#cc0000;fill-opacity:1;fill-rule:evenodd;stroke:none;stroke-width:1pt;stroke-linecap:butt;stroke-linejoin:miter;stroke-opacity:1"
       d="m 749.99997,470.05583 6.88532,21.19082 h 22.28135 l -18.026,13.09665 6.88532,21.19082 -18.02599,-13.09665 -18.02599,13.09665 6.88532,-21.19082 -18.026,-13.09665 h 22.28135 z"
       id="path143" />
  </g>
</svg>
