<svg xmlns="http://www.w3.org/2000/svg" xmlns:xlink="http://www.w3.org/1999/xlink" version="1.0" width="600" height="300"><rect style="opacity:1;fill:#fff;fill-opacity:1;fill-rule:evenodd;stroke:none;stroke-width:.64999998;stroke-linecap:butt;stroke-linejoin:miter;stroke-miterlimit:4;stroke-dasharray:none;stroke-opacity:1" width="600" height="300" rx="0" ry="0"/><rect id="a" style="fill:#c00;fill-opacity:1;fill-rule:evenodd;stroke-opacity:1" y="120" x="0" ry="0" rx="0" height="60" width="600"/><use xlink:href="#a" height="300" width="600" transform="matrix(0 .5 -1 0 450 0)"/><path style="fill:#ebeae3;fill-opacity:1;fill-rule:evenodd;stroke:#000;stroke-width:.32597154px;stroke-linecap:butt;stroke-linejoin:miter;stroke-opacity:1" d="M322.003 91.631c1.926-3.012.774-4.958-2.138-5.559 0 0-9.292 2.979-19.327 3.305-10.035.327-21.957-2.523-21.957-2.523-2.139 1.341-1.617 4.525-.556 6.513 0 0 10.505 3.49 22.464 3.147 7.596-.217 14.794-2.155 18.832-3.44 2.32-.738 2.683-1.409 2.682-1.443z"/><path style="fill:#fff;fill-opacity:1;stroke:#161111;stroke-width:1.1578174699999999;stroke-miterlimit:4;stroke-dasharray:none;stroke-opacity:1" d="m-236.364 69.913-22.33-46.389-51.338 3.857 29.01-42.533-29.01-42.532 51.339 3.857 22.33-46.39 22.329 46.39 51.339-3.857-29.01 42.532 29.01 42.533-51.34-3.857-22.329 46.39z" transform="matrix(.8637 0 0 .8637 504.146 163.086)"/><g style="fill:#c00;fill-opacity:1;stroke:#161111;stroke-width:.07538979;stroke-miterlimit:4;stroke-dasharray:none;stroke-opacity:1"><path d="M15.776 11.622c.115-.118.3-.248.403-.53.096-.265.143-.75.23-.996.115-.422.346-.833.071-.805-.262.027-.347.289-.446.48a1.36 1.36 0 0 0-.11.33c-.013.053-.014.113-.064.139.072-.64-.1-1.119-.159-2.069-.024-.398-.087-.798-.287-.801-.15-.002-.175.204-.199.358 0-.218.008-.677-.243-.677-.305 0-.213.641-.254.966-.007-.115-.01-.362-.043-.522a.247.247 0 0 0-.067-.134c-.018-.017-.045-.026-.084-.026-.275 0-.269.4-.26.798.004.042 0 .233.004.358 0-.217.002-.642-.217-.623-.182.015-.196.493-.204.747.012.254-.073.846-.103 1.014-.008.12-.053.274-.072.44-.042.358-.002.777.043.992.091.338.328.49.316.72-.012.23 0 .634 0 .816 0 .18.152.19.467.12.514-.114.795.115 1.22-.054-.054-.502.07-.86.058-1.041z" style="fill:#c00;fill-opacity:1;stroke:#161111;stroke-width:.07538979;stroke-miterlimit:4;stroke-dasharray:none;stroke-opacity:1" transform="matrix(13.50416 0 0 13.02889 98.957 17.585)"/><g style="fill:#c00;fill-opacity:1;stroke:#161111;stroke-width:.54135574;stroke-miterlimit:4;stroke-dasharray:none;stroke-opacity:1"><path d="M149.023 76.45c.768-2.175 1.738-3.029 2.674-3.503M150.418 83.949c.067-.445.339-.798.717-1.18M140.21 59.897c.054 1.923.167 5.623.167 6.507M147.079 54.639c-.107 1.023.014 1.85-.009 2.895-.015.696.096 1.975.183 3.525-.022.56.171 3.355-.005 4.39M143.463 56.556c.036.38.025.839.043 1.35.085 2.463.03 6.135.102 7.922" style="fill:#c00;fill-opacity:1;stroke:#161111;stroke-width:.54135574;stroke-miterlimit:4;stroke-dasharray:none;stroke-opacity:1" transform="matrix(1.8708 0 0 1.82393 29.323 17.963)"/></g></g><path d="M299.712 76.392c24.227 3.994 23.362 5.125 23.362 5.125l6.323-18.902s.665-3.728-1.065-5.99c-1.73-2.264-6.59-.999-6.59-.999s-.665-3.062-2.795-3.794c-2.13-.732-10.05 2.862-12.513 3.66-2.462.8-3.727 1.598-7.188 1.532-3.461-.067-9.65-3.128-10.782-3.727-1.132-.6-2.796-1.199-4.327-1.132-1.53.067-3.128.466-3.927 1.53-.798 1.066-.798 2.397-.798 2.397s-1.265-.799-3.262-.799c-1.996 0-3.128.266-4.06 1.331-.932 1.065-2.13 4.06-2.13 4.06l2.263 5.125.134 7.056 4.725 7.454 22.63-3.927z" style="fill:#b02320;fill-opacity:1;fill-rule:evenodd;stroke:#000;stroke-width:.81492889;stroke-linecap:butt;stroke-linejoin:miter;stroke-miterlimit:4;stroke-dasharray:none;stroke-opacity:1"/><path d="M322.296 87.072s1.22 1.454 1.173 1.97c-.047.516-.563.986-.563.986s.376.375.282.938c-.094.563-.845.61-.845.61s.14.516-.328.75c-.47.235-2.393.657-2.393.657s-9.384-2.674-19.424-2.674-21.864 3.237-21.864 3.237-1.22-.422-1.267-1.22c-.047-.797.141-1.36.141-1.36s-.668.07-.845-.516c-.247-.82.094-1.455.094-1.455s-.465.15.047-.938c.376-.798.939-1.08.939-1.08s10.51-3.753 22.473-3.8c11.964-.046 22.38 3.8 22.38 3.895z" style="fill:#ebeae3;fill-opacity:1;fill-rule:evenodd;stroke:#000;stroke-width:.32597154px;stroke-linecap:butt;stroke-linejoin:miter;stroke-opacity:1"/><path d="M272.643 63.435s-.4-1.363.48-2.565c.882-1.201 2.485-1.121 2.965-.88.481.24.401.8 1.042.96.641.16 1.122-.32 1.122-.32" style="fill:none;fill-rule:evenodd;stroke:#000;stroke-width:.7171374;stroke-linecap:butt;stroke-linejoin:miter;stroke-miterlimit:4;stroke-dasharray:none;stroke-opacity:1"/><path d="m331.14 66.624-3.639 7.529-1.43.25s-.873-.524-3.363-.35c-1.782.125-2.309.576-2.309.576l3.238-7.503s.252 1.612.627 2.56c.477 1.204 2.284 2.333 2.284 2.333s.25-1.44-.226-3.187c-.527-1.932-1.757-4.542-1.757-4.542l6.575 2.334z" style="fill:#fc0;fill-opacity:.94117647;fill-rule:evenodd;stroke:#000;stroke-width:.74973458;stroke-linecap:butt;stroke-linejoin:miter;stroke-miterlimit:4;stroke-dasharray:none;stroke-opacity:1"/><path style="fill:#121116;fill-opacity:1;stroke:#121116;stroke-width:.7311542;stroke-linejoin:round;stroke-miterlimit:4;stroke-dasharray:none;stroke-opacity:1" d="M297.808 43.225h4.073v17.309h-4.073z"/><path d="m272.85 75.147 2.615 5.597s11.132-4.34 24.271-4.259c19.71.122 25.306 4.076 25.306 4.076l2.92-6.935-2.19 1.278-2.251 1.399-2.555.973-3.102-.243-2.738-2.007-1.399-2.92-2.311 2.129-4.076.912-4.015-1.034-3.528-4.44s-2.628 4.936-5.961 5.23c-4.806.427-7.604-2.31-7.604-2.31s-1.786 4.014-4.745 4.744c-4.683 1.156-8.577-2.19-8.637-2.19z" style="fill:#f6ca1f;fill-opacity:1;fill-rule:evenodd;stroke:#000;stroke-width:.6193459;stroke-linecap:butt;stroke-linejoin:miter;stroke-miterlimit:4;stroke-dasharray:none;stroke-opacity:1"/><g style="stroke-width:2.24300003;stroke-miterlimit:4;stroke-dasharray:none"><g style="stroke-width:2.24300003;stroke-miterlimit:4;stroke-dasharray:none"><path d="M430.628 247.41c0 3.607-2.88 6.533-6.44 6.54-3.558.008-6.45-2.907-6.465-6.515-.014-3.607 2.856-6.545 6.415-6.566 3.558-.021 6.462 2.882 6.49 6.49" style="opacity:1;fill:#eee;fill-opacity:1;stroke:#1e1e1e;stroke-width:2.24300003;stroke-linejoin:round;stroke-miterlimit:4;stroke-dasharray:none;stroke-opacity:1" transform="translate(177.407 -39.62) scale(.32597)"/><path d="M421.17 250.768s5.215-.088 5.746-2.21c.53-2.12-.354-4.86-.354-4.86s2.475 2.74 1.768 4.86c-.707 2.122-1.4 2.67-3.182 3.094-1.207.287-3.005-.177-3.978-.884z" style="fill:#a3afb8;fill-opacity:1;fill-rule:evenodd;stroke:none;stroke-width:2.24300003;stroke-linecap:butt;stroke-linejoin:miter;stroke-miterlimit:4;stroke-dasharray:none;stroke-opacity:1" transform="translate(177.407 -39.62) scale(.32597)"/></g><g style="stroke-width:2.24300003;stroke-miterlimit:4;stroke-dasharray:none"><path d="M430.628 247.41c0 3.607-2.88 6.533-6.44 6.54-3.558.008-6.45-2.907-6.465-6.515-.014-3.607 2.856-6.545 6.415-6.566 3.558-.021 6.462 2.882 6.49 6.49" style="opacity:1;fill:#eee;fill-opacity:1;stroke:#1e1e1e;stroke-width:2.24300003;stroke-linejoin:round;stroke-miterlimit:4;stroke-dasharray:none;stroke-opacity:1" transform="translate(172.297 -37.23) scale(.32597)"/><path d="M421.17 250.768s5.215-.088 5.746-2.21c.53-2.12-.354-4.86-.354-4.86s2.475 2.74 1.768 4.86c-.707 2.122-1.4 2.67-3.182 3.094-1.207.287-3.005-.177-3.978-.884z" style="fill:#a3afb8;fill-opacity:1;fill-rule:evenodd;stroke:none;stroke-width:2.24300003;stroke-linecap:butt;stroke-linejoin:miter;stroke-miterlimit:4;stroke-dasharray:none;stroke-opacity:1" transform="translate(172.297 -37.23) scale(.32597)"/></g><g style="stroke-width:2.24300003;stroke-miterlimit:4;stroke-dasharray:none"><path d="M430.628 247.41c0 3.607-2.88 6.533-6.44 6.54-3.558.008-6.45-2.907-6.465-6.515-.014-3.607 2.856-6.545 6.415-6.566 3.558-.021 6.462 2.882 6.49 6.49" style="opacity:1;fill:#eee;fill-opacity:1;stroke:#1e1e1e;stroke-width:2.24300003;stroke-linejoin:round;stroke-miterlimit:4;stroke-dasharray:none;stroke-opacity:1" transform="translate(183.34 -41.02) scale(.32597)"/><path d="M421.17 250.768s5.215-.088 5.746-2.21c.53-2.12-.354-4.86-.354-4.86s2.475 2.74 1.768 4.86c-.707 2.122-1.4 2.67-3.182 3.094-1.207.287-3.005-.177-3.978-.884z" style="fill:#a3afb8;fill-opacity:1;fill-rule:evenodd;stroke:none;stroke-width:2.24300003;stroke-linecap:butt;stroke-linejoin:miter;stroke-miterlimit:4;stroke-dasharray:none;stroke-opacity:1" transform="translate(183.34 -41.02) scale(.32597)"/></g><g style="stroke-width:2.24300003;stroke-miterlimit:4;stroke-dasharray:none"><path d="M430.628 247.41c0 3.607-2.88 6.533-6.44 6.54-3.558.008-6.45-2.907-6.465-6.515-.014-3.607 2.856-6.545 6.415-6.566 3.558-.021 6.462 2.882 6.49 6.49" style="opacity:1;fill:#eee;fill-opacity:1;stroke:#1e1e1e;stroke-width:2.24300003;stroke-linejoin:round;stroke-miterlimit:4;stroke-dasharray:none;stroke-opacity:1" transform="translate(190.022 -39.675) scale(.32597)"/><path d="M421.17 250.768s5.215-.088 5.746-2.21c.53-2.12-.354-4.86-.354-4.86s2.475 2.74 1.768 4.86c-.707 2.122-1.4 2.67-3.182 3.094-1.207.287-3.005-.177-3.978-.884z" style="fill:#a3afb8;fill-opacity:1;fill-rule:evenodd;stroke:none;stroke-width:2.24300003;stroke-linecap:butt;stroke-linejoin:miter;stroke-miterlimit:4;stroke-dasharray:none;stroke-opacity:1" transform="translate(190.022 -39.675) scale(.32597)"/></g><g style="stroke-width:2.24300003;stroke-miterlimit:4;stroke-dasharray:none"><path d="M430.628 247.41c0 3.607-2.88 6.533-6.44 6.54-3.558.008-6.45-2.907-6.465-6.515-.014-3.607 2.856-6.545 6.415-6.566 3.558-.021 6.462 2.882 6.49 6.49" style="opacity:1;fill:#eee;fill-opacity:1;stroke:#1e1e1e;stroke-width:2.24300003;stroke-linejoin:round;stroke-miterlimit:4;stroke-dasharray:none;stroke-opacity:1" transform="translate(195.115 -35.479) scale(.32597)"/><path d="M421.17 250.768s5.215-.088 5.746-2.21c.53-2.12-.354-4.86-.354-4.86s2.475 2.74 1.768 4.86c-.707 2.122-1.4 2.67-3.182 3.094-1.207.287-3.005-.177-3.978-.884z" style="fill:#a3afb8;fill-opacity:1;fill-rule:evenodd;stroke:none;stroke-width:2.24300003;stroke-linecap:butt;stroke-linejoin:miter;stroke-miterlimit:4;stroke-dasharray:none;stroke-opacity:1" transform="translate(195.115 -35.479) scale(.32597)"/></g><g style="stroke-width:2.24300003;stroke-miterlimit:4;stroke-dasharray:none"><path d="M430.628 247.41c0 3.607-2.88 6.533-6.44 6.54-3.558.008-6.45-2.907-6.465-6.515-.014-3.607 2.856-6.545 6.415-6.566 3.558-.021 6.462 2.882 6.49 6.49" style="opacity:1;fill:#eee;fill-opacity:1;stroke:#1e1e1e;stroke-width:2.24300003;stroke-linejoin:round;stroke-miterlimit:4;stroke-dasharray:none;stroke-opacity:1" transform="translate(197.316 -28.592) scale(.32597)"/><path d="M421.17 250.768s5.215-.088 5.746-2.21c.53-2.12-.354-4.86-.354-4.86s2.475 2.74 1.768 4.86c-.707 2.122-1.4 2.67-3.182 3.094-1.207.287-3.005-.177-3.978-.884z" style="fill:#a3afb8;fill-opacity:1;fill-rule:evenodd;stroke:none;stroke-width:2.24300003;stroke-linecap:butt;stroke-linejoin:miter;stroke-miterlimit:4;stroke-dasharray:none;stroke-opacity:1" transform="translate(197.316 -28.592) scale(.32597)"/></g><g style="stroke-width:2.24300003;stroke-miterlimit:4;stroke-dasharray:none"><path d="M430.628 247.41c0 3.607-2.88 6.533-6.44 6.54-3.558.008-6.45-2.907-6.465-6.515-.014-3.607 2.856-6.545 6.415-6.566 3.558-.021 6.462 2.882 6.49 6.49" style="opacity:1;fill:#eee;fill-opacity:1;stroke:#1e1e1e;stroke-width:2.24300003;stroke-linejoin:round;stroke-miterlimit:4;stroke-dasharray:none;stroke-opacity:1" transform="translate(196.5 -21.625) scale(.32597)"/><path d="M421.17 250.768s5.215-.088 5.746-2.21c.53-2.12-.354-4.86-.354-4.86s2.475 2.74 1.768 4.86c-.707 2.122-1.4 2.67-3.182 3.094-1.207.287-3.005-.177-3.978-.884z" style="fill:#a3afb8;fill-opacity:1;fill-rule:evenodd;stroke:none;stroke-width:2.24300003;stroke-linecap:butt;stroke-linejoin:miter;stroke-miterlimit:4;stroke-dasharray:none;stroke-opacity:1" transform="translate(196.5 -21.625) scale(.32597)"/></g><g style="stroke-width:2.24300003;stroke-miterlimit:4;stroke-dasharray:none"><path d="M430.628 247.41c0 3.607-2.88 6.533-6.44 6.54-3.558.008-6.45-2.907-6.465-6.515-.014-3.607 2.856-6.545 6.415-6.566 3.558-.021 6.462 2.882 6.49 6.49" style="opacity:1;fill:#eee;fill-opacity:1;stroke:#1e1e1e;stroke-width:2.24300003;stroke-linejoin:round;stroke-miterlimit:4;stroke-dasharray:none;stroke-opacity:1" transform="translate(193.404 -15.513) scale(.32597)"/><path d="M421.17 250.768s5.215-.088 5.746-2.21c.53-2.12-.354-4.86-.354-4.86s2.475 2.74 1.768 4.86c-.707 2.122-1.4 2.67-3.182 3.094-1.207.287-3.005-.177-3.978-.884z" style="fill:#a3afb8;fill-opacity:1;fill-rule:evenodd;stroke:none;stroke-width:2.24300003;stroke-linecap:butt;stroke-linejoin:miter;stroke-miterlimit:4;stroke-dasharray:none;stroke-opacity:1" transform="translate(193.404 -15.513) scale(.32597)"/></g><g style="stroke-width:2.24300003;stroke-miterlimit:4;stroke-dasharray:none"><path d="M430.628 247.41c0 3.607-2.88 6.533-6.44 6.54-3.558.008-6.45-2.907-6.465-6.515-.014-3.607 2.856-6.545 6.415-6.566 3.558-.021 6.462 2.882 6.49 6.49" style="opacity:1;fill:#eee;fill-opacity:1;stroke:#1e1e1e;stroke-width:2.24300003;stroke-linejoin:round;stroke-miterlimit:4;stroke-dasharray:none;stroke-opacity:1" transform="translate(167.326 -35.397) scale(.32597)"/><path d="M421.17 250.768s5.215-.088 5.746-2.21c.53-2.12-.354-4.86-.354-4.86s2.475 2.74 1.768 4.86c-.707 2.122-1.4 2.67-3.182 3.094-1.207.287-3.005-.177-3.978-.884z" style="fill:#a3afb8;fill-opacity:1;fill-rule:evenodd;stroke:none;stroke-width:2.24300003;stroke-linecap:butt;stroke-linejoin:miter;stroke-miterlimit:4;stroke-dasharray:none;stroke-opacity:1" transform="translate(167.326 -35.397) scale(.32597)"/></g><g style="stroke-width:2.68218017;stroke-miterlimit:4;stroke-dasharray:none"><path d="M430.628 247.41c0 3.607-2.88 6.533-6.44 6.54-3.558.008-6.45-2.907-6.465-6.515-.014-3.607 2.856-6.545 6.415-6.566 3.558-.021 6.462 2.882 6.49 6.49" style="opacity:1;fill:#eee;fill-opacity:1;stroke:#1e1e1e;stroke-width:2.68218017;stroke-linejoin:round;stroke-miterlimit:4;stroke-dasharray:none;stroke-opacity:1" transform="matrix(.2726 0 0 .2726 183.956 -22.737)"/><path d="M421.17 250.768s5.215-.088 5.746-2.21c.53-2.12-.354-4.86-.354-4.86s2.475 2.74 1.768 4.86c-.707 2.122-1.4 2.67-3.182 3.094-1.207.287-3.005-.177-3.978-.884z" style="fill:#a3afb8;fill-opacity:1;fill-rule:evenodd;stroke:none;stroke-width:2.68218017;stroke-linecap:butt;stroke-linejoin:miter;stroke-miterlimit:4;stroke-dasharray:none;stroke-opacity:1" transform="matrix(.2726 0 0 .2726 183.956 -22.737)"/></g><g style="stroke-width:2.68218017;stroke-miterlimit:4;stroke-dasharray:none"><path d="M430.628 247.41c0 3.607-2.88 6.533-6.44 6.54-3.558.008-6.45-2.907-6.465-6.515-.014-3.607 2.856-6.545 6.415-6.566 3.558-.021 6.462 2.882 6.49 6.49" style="opacity:1;fill:#eee;fill-opacity:1;stroke:#1e1e1e;stroke-width:2.68218017;stroke-linejoin:round;stroke-miterlimit:4;stroke-dasharray:none;stroke-opacity:1" transform="matrix(.2726 0 0 .2726 183.977 -20.521)"/><path d="M421.17 250.768s5.215-.088 5.746-2.21c.53-2.12-.354-4.86-.354-4.86s2.475 2.74 1.768 4.86c-.707 2.122-1.4 2.67-3.182 3.094-1.207.287-3.005-.177-3.978-.884z" style="fill:#a3afb8;fill-opacity:1;fill-rule:evenodd;stroke:none;stroke-width:2.68218017;stroke-linecap:butt;stroke-linejoin:miter;stroke-miterlimit:4;stroke-dasharray:none;stroke-opacity:1" transform="matrix(.2726 0 0 .2726 183.977 -20.521)"/></g><g style="stroke-width:2.68218017;stroke-miterlimit:4;stroke-dasharray:none"><path d="M430.628 247.41c0 3.607-2.88 6.533-6.44 6.54-3.558.008-6.45-2.907-6.465-6.515-.014-3.607 2.856-6.545 6.415-6.566 3.558-.021 6.462 2.882 6.49 6.49" style="opacity:1;fill:#eee;fill-opacity:1;stroke:#1e1e1e;stroke-width:2.68218017;stroke-linejoin:round;stroke-miterlimit:4;stroke-dasharray:none;stroke-opacity:1" transform="matrix(.2726 0 0 .2726 184.099 -17.261)"/><path d="M421.17 250.768s5.215-.088 5.746-2.21c.53-2.12-.354-4.86-.354-4.86s2.475 2.74 1.768 4.86c-.707 2.122-1.4 2.67-3.182 3.094-1.207.287-3.005-.177-3.978-.884z" style="fill:#a3afb8;fill-opacity:1;fill-rule:evenodd;stroke:none;stroke-width:2.68218017;stroke-linecap:butt;stroke-linejoin:miter;stroke-miterlimit:4;stroke-dasharray:none;stroke-opacity:1" transform="matrix(.2726 0 0 .2726 184.099 -17.261)"/></g><g style="stroke-width:2.48017144;stroke-miterlimit:4;stroke-dasharray:none"><path d="M430.628 247.41c0 3.607-2.88 6.533-6.44 6.54-3.558.008-6.45-2.907-6.465-6.515-.014-3.607 2.856-6.545 6.415-6.566 3.558-.021 6.462 2.882 6.49 6.49" style="opacity:1;fill:#eee;fill-opacity:1;stroke:#1e1e1e;stroke-width:2.48017144;stroke-linejoin:round;stroke-miterlimit:4;stroke-dasharray:none;stroke-opacity:1" transform="matrix(.2948 0 0 .2948 174.72 -19.291)"/><path d="M421.17 250.768s5.215-.088 5.746-2.21c.53-2.12-.354-4.86-.354-4.86s2.475 2.74 1.768 4.86c-.707 2.122-1.4 2.67-3.182 3.094-1.207.287-3.005-.177-3.978-.884z" style="fill:#a3afb8;fill-opacity:1;fill-rule:evenodd;stroke:none;stroke-width:2.48017144;stroke-linecap:butt;stroke-linejoin:miter;stroke-miterlimit:4;stroke-dasharray:none;stroke-opacity:1" transform="matrix(.2948 0 0 .2948 174.72 -19.291)"/></g><g style="stroke-width:2.24300003;stroke-miterlimit:4;stroke-dasharray:none"><path d="M430.628 247.41c0 3.607-2.88 6.533-6.44 6.54-3.558.008-6.45-2.907-6.465-6.515-.014-3.607 2.856-6.545 6.415-6.566 3.558-.021 6.462 2.882 6.49 6.49" style="opacity:1;fill:#eee;fill-opacity:1;stroke:#1e1e1e;stroke-width:2.24300003;stroke-linejoin:round;stroke-miterlimit:4;stroke-dasharray:none;stroke-opacity:1" transform="translate(161.5 -22.358) scale(.32597)"/><path d="M421.17 250.768s5.215-.088 5.746-2.21c.53-2.12-.354-4.86-.354-4.86s2.475 2.74 1.768 4.86c-.707 2.122-1.4 2.67-3.182 3.094-1.207.287-3.005-.177-3.978-.884z" style="fill:#a3afb8;fill-opacity:1;fill-rule:evenodd;stroke:none;stroke-width:2.24300003;stroke-linecap:butt;stroke-linejoin:miter;stroke-miterlimit:4;stroke-dasharray:none;stroke-opacity:1" transform="translate(161.5 -22.358) scale(.32597)"/></g><g style="stroke-width:2.38831472;stroke-miterlimit:4;stroke-dasharray:none"><path d="M430.628 247.41c0 3.607-2.88 6.533-6.44 6.54-3.558.008-6.45-2.907-6.465-6.515-.014-3.607 2.856-6.545 6.415-6.566 3.558-.021 6.462 2.882 6.49 6.49" style="opacity:1;fill:#eee;fill-opacity:1;stroke:#1e1e1e;stroke-width:2.38831472;stroke-linejoin:round;stroke-miterlimit:4;stroke-dasharray:none;stroke-opacity:1" transform="matrix(.30614 0 0 .30614 169.83 -7.918)"/><path d="M421.17 250.768s5.215-.088 5.746-2.21c.53-2.12-.354-4.86-.354-4.86s2.475 2.74 1.768 4.86c-.707 2.122-1.4 2.67-3.182 3.094-1.207.287-3.005-.177-3.978-.884z" style="fill:#a3afb8;fill-opacity:1;fill-rule:evenodd;stroke:none;stroke-width:2.38831472;stroke-linecap:butt;stroke-linejoin:miter;stroke-miterlimit:4;stroke-dasharray:none;stroke-opacity:1" transform="matrix(.30614 0 0 .30614 169.83 -7.918)"/></g><g style="stroke-width:2.24300003;stroke-miterlimit:4;stroke-dasharray:none"><path d="M430.628 247.41c0 3.607-2.88 6.533-6.44 6.54-3.558.008-6.45-2.907-6.465-6.515-.014-3.607 2.856-6.545 6.415-6.566 3.558-.021 6.462 2.882 6.49 6.49" style="opacity:1;fill:#eee;fill-opacity:1;stroke:#1e1e1e;stroke-width:2.24300003;stroke-linejoin:round;stroke-miterlimit:4;stroke-dasharray:none;stroke-opacity:1" transform="translate(155.598 -35.454) scale(.32597)"/><path d="M421.17 250.768s5.215-.088 5.746-2.21c.53-2.12-.354-4.86-.354-4.86s2.475 2.74 1.768 4.86c-.707 2.122-1.4 2.67-3.182 3.094-1.207.287-3.005-.177-3.978-.884z" style="fill:#a3afb8;fill-opacity:1;fill-rule:evenodd;stroke:none;stroke-width:2.24300003;stroke-linecap:butt;stroke-linejoin:miter;stroke-miterlimit:4;stroke-dasharray:none;stroke-opacity:1" transform="translate(155.598 -35.454) scale(.32597)"/></g><g style="stroke-width:2.24300003;stroke-miterlimit:4;stroke-dasharray:none"><path d="M430.628 247.41c0 3.607-2.88 6.533-6.44 6.54-3.558.008-6.45-2.907-6.465-6.515-.014-3.607 2.856-6.545 6.415-6.566 3.558-.021 6.462 2.882 6.49 6.49" style="opacity:1;fill:#eee;fill-opacity:1;stroke:#1e1e1e;stroke-width:2.24300003;stroke-linejoin:round;stroke-miterlimit:4;stroke-dasharray:none;stroke-opacity:1" transform="translate(150.383 -37.51) scale(.32597)"/><path d="M421.17 250.768s5.215-.088 5.746-2.21c.53-2.12-.354-4.86-.354-4.86s2.475 2.74 1.768 4.86c-.707 2.122-1.4 2.67-3.182 3.094-1.207.287-3.005-.177-3.978-.884z" style="fill:#a3afb8;fill-opacity:1;fill-rule:evenodd;stroke:none;stroke-width:2.24300003;stroke-linecap:butt;stroke-linejoin:miter;stroke-miterlimit:4;stroke-dasharray:none;stroke-opacity:1" transform="translate(150.383 -37.51) scale(.32597)"/></g><g style="stroke-width:2.24300003;stroke-miterlimit:4;stroke-dasharray:none"><path d="M430.628 247.41c0 3.607-2.88 6.533-6.44 6.54-3.558.008-6.45-2.907-6.465-6.515-.014-3.607 2.856-6.545 6.415-6.566 3.558-.021 6.462 2.882 6.49 6.49" style="opacity:1;fill:#eee;fill-opacity:1;stroke:#1e1e1e;stroke-width:2.24300003;stroke-linejoin:round;stroke-miterlimit:4;stroke-dasharray:none;stroke-opacity:1" transform="translate(145.389 -39.86) scale(.32597)"/><path d="M421.17 250.768s5.215-.088 5.746-2.21c.53-2.12-.354-4.86-.354-4.86s2.475 2.74 1.768 4.86c-.707 2.122-1.4 2.67-3.182 3.094-1.207.287-3.005-.177-3.978-.884z" style="fill:#a3afb8;fill-opacity:1;fill-rule:evenodd;stroke:none;stroke-width:2.24300003;stroke-linecap:butt;stroke-linejoin:miter;stroke-miterlimit:4;stroke-dasharray:none;stroke-opacity:1" transform="translate(145.389 -39.86) scale(.32597)"/></g><g style="stroke-width:2.24300003;stroke-miterlimit:4;stroke-dasharray:none"><path d="M430.628 247.41c0 3.607-2.88 6.533-6.44 6.54-3.558.008-6.45-2.907-6.465-6.515-.014-3.607 2.856-6.545 6.415-6.566 3.558-.021 6.462 2.882 6.49 6.49" style="opacity:1;fill:#eee;fill-opacity:1;stroke:#1e1e1e;stroke-width:2.24300003;stroke-linejoin:round;stroke-miterlimit:4;stroke-dasharray:none;stroke-opacity:1" transform="translate(139.66 -41.109) scale(.32597)"/><path d="M421.17 250.768s5.215-.088 5.746-2.21c.53-2.12-.354-4.86-.354-4.86s2.475 2.74 1.768 4.86c-.707 2.122-1.4 2.67-3.182 3.094-1.207.287-3.005-.177-3.978-.884z" style="fill:#a3afb8;fill-opacity:1;fill-rule:evenodd;stroke:none;stroke-width:2.24300003;stroke-linecap:butt;stroke-linejoin:miter;stroke-miterlimit:4;stroke-dasharray:none;stroke-opacity:1" transform="translate(139.66 -41.109) scale(.32597)"/></g><g style="stroke-width:2.24300003;stroke-miterlimit:4;stroke-dasharray:none"><path d="M430.628 247.41c0 3.607-2.88 6.533-6.44 6.54-3.558.008-6.45-2.907-6.465-6.515-.014-3.607 2.856-6.545 6.415-6.566 3.558-.021 6.462 2.882 6.49 6.49" style="opacity:1;fill:#eee;fill-opacity:1;stroke:#1e1e1e;stroke-width:2.24300003;stroke-linejoin:round;stroke-miterlimit:4;stroke-dasharray:none;stroke-opacity:1" transform="translate(132.903 -39.493) scale(.32597)"/><path d="M421.17 250.768s5.215-.088 5.746-2.21c.53-2.12-.354-4.86-.354-4.86s2.475 2.74 1.768 4.86c-.707 2.122-1.4 2.67-3.182 3.094-1.207.287-3.005-.177-3.978-.884z" style="fill:#a3afb8;fill-opacity:1;fill-rule:evenodd;stroke:none;stroke-width:2.24300003;stroke-linecap:butt;stroke-linejoin:miter;stroke-miterlimit:4;stroke-dasharray:none;stroke-opacity:1" transform="translate(132.903 -39.493) scale(.32597)"/></g><g style="stroke-width:2.24300003;stroke-miterlimit:4;stroke-dasharray:none"><path d="M430.628 247.41c0 3.607-2.88 6.533-6.44 6.54-3.558.008-6.45-2.907-6.465-6.515-.014-3.607 2.856-6.545 6.415-6.566 3.558-.021 6.462 2.882 6.49 6.49" style="opacity:1;fill:#eee;fill-opacity:1;stroke:#1e1e1e;stroke-width:2.24300003;stroke-linejoin:round;stroke-miterlimit:4;stroke-dasharray:none;stroke-opacity:1" transform="translate(128.129 -34.72) scale(.32597)"/><path d="M421.17 250.768s5.215-.088 5.746-2.21c.53-2.12-.354-4.86-.354-4.86s2.475 2.74 1.768 4.86c-.707 2.122-1.4 2.67-3.182 3.094-1.207.287-3.005-.177-3.978-.884z" style="fill:#a3afb8;fill-opacity:1;fill-rule:evenodd;stroke:none;stroke-width:2.24300003;stroke-linecap:butt;stroke-linejoin:miter;stroke-miterlimit:4;stroke-dasharray:none;stroke-opacity:1" transform="translate(128.129 -34.72) scale(.32597)"/></g><g style="stroke-width:2.24300003;stroke-miterlimit:4;stroke-dasharray:none"><path d="M430.628 247.41c0 3.607-2.88 6.533-6.44 6.54-3.558.008-6.45-2.907-6.465-6.515-.014-3.607 2.856-6.545 6.415-6.566 3.558-.021 6.462 2.882 6.49 6.49" style="opacity:1;fill:#eee;fill-opacity:1;stroke:#1e1e1e;stroke-width:2.24300003;stroke-linejoin:round;stroke-miterlimit:4;stroke-dasharray:none;stroke-opacity:1" transform="translate(126.146 -28.036) scale(.32597)"/><path d="M421.17 250.768s5.215-.088 5.746-2.21c.53-2.12-.354-4.86-.354-4.86s2.475 2.74 1.768 4.86c-.707 2.122-1.4 2.67-3.182 3.094-1.207.287-3.005-.177-3.978-.884z" style="fill:#a3afb8;fill-opacity:1;fill-rule:evenodd;stroke:none;stroke-width:2.24300003;stroke-linecap:butt;stroke-linejoin:miter;stroke-miterlimit:4;stroke-dasharray:none;stroke-opacity:1" transform="translate(126.146 -28.036) scale(.32597)"/></g><g style="stroke-width:2.24300003;stroke-miterlimit:4;stroke-dasharray:none"><path d="M430.628 247.41c0 3.607-2.88 6.533-6.44 6.54-3.558.008-6.45-2.907-6.465-6.515-.014-3.607 2.856-6.545 6.415-6.566 3.558-.021 6.462 2.882 6.49 6.49" style="opacity:1;fill:#eee;fill-opacity:1;stroke:#1e1e1e;stroke-width:2.24300003;stroke-linejoin:round;stroke-miterlimit:4;stroke-dasharray:none;stroke-opacity:1" transform="translate(127.027 -21.058) scale(.32597)"/><path d="M421.17 250.768s5.215-.088 5.746-2.21c.53-2.12-.354-4.86-.354-4.86s2.475 2.74 1.768 4.86c-.707 2.122-1.4 2.67-3.182 3.094-1.207.287-3.005-.177-3.978-.884z" style="fill:#a3afb8;fill-opacity:1;fill-rule:evenodd;stroke:none;stroke-width:2.24300003;stroke-linecap:butt;stroke-linejoin:miter;stroke-miterlimit:4;stroke-dasharray:none;stroke-opacity:1" transform="translate(127.027 -21.058) scale(.32597)"/></g><g style="stroke-width:2.24300003;stroke-miterlimit:4;stroke-dasharray:none"><path d="M430.628 247.41c0 3.607-2.88 6.533-6.44 6.54-3.558.008-6.45-2.907-6.465-6.515-.014-3.607 2.856-6.545 6.415-6.566 3.558-.021 6.462 2.882 6.49 6.49" style="opacity:1;fill:#eee;fill-opacity:1;stroke:#1e1e1e;stroke-width:2.24300003;stroke-linejoin:round;stroke-miterlimit:4;stroke-dasharray:none;stroke-opacity:1" transform="translate(130.259 -14.742) scale(.32597)"/><path d="M421.17 250.768s5.215-.088 5.746-2.21c.53-2.12-.354-4.86-.354-4.86s2.475 2.74 1.768 4.86c-.707 2.122-1.4 2.67-3.182 3.094-1.207.287-3.005-.177-3.978-.884z" style="fill:#a3afb8;fill-opacity:1;fill-rule:evenodd;stroke:none;stroke-width:2.24300003;stroke-linecap:butt;stroke-linejoin:miter;stroke-miterlimit:4;stroke-dasharray:none;stroke-opacity:1" transform="translate(130.259 -14.742) scale(.32597)"/></g><g style="stroke-width:2.83223772;stroke-miterlimit:4;stroke-dasharray:none"><path d="M430.628 247.41c0 3.607-2.88 6.533-6.44 6.54-3.558.008-6.45-2.907-6.465-6.515-.014-3.607 2.856-6.545 6.415-6.566 3.558-.021 6.462 2.882 6.49 6.49" style="opacity:1;fill:#eee;fill-opacity:1;stroke:#1e1e1e;stroke-width:2.83223772;stroke-linejoin:round;stroke-miterlimit:4;stroke-dasharray:none;stroke-opacity:1" transform="matrix(.19748 -.05291 .08437 .31486 168.369 18.75)"/><path d="M421.17 250.768s5.215-.088 5.746-2.21c.53-2.12-.354-4.86-.354-4.86s2.475 2.74 1.768 4.86c-.707 2.122-1.4 2.67-3.182 3.094-1.207.287-3.005-.177-3.978-.884z" style="fill:#a3afb8;fill-opacity:1;fill-rule:evenodd;stroke:none;stroke-width:2.83223772;stroke-linecap:butt;stroke-linejoin:miter;stroke-miterlimit:4;stroke-dasharray:none;stroke-opacity:1" transform="matrix(.19748 -.05291 .08437 .31486 168.369 18.75)"/></g><g style="stroke-width:2.83223772;stroke-miterlimit:4;stroke-dasharray:none"><path d="M430.628 247.41c0 3.607-2.88 6.533-6.44 6.54-3.558.008-6.45-2.907-6.465-6.515-.014-3.607 2.856-6.545 6.415-6.566 3.558-.021 6.462 2.882 6.49 6.49" style="opacity:1;fill:#eee;fill-opacity:1;stroke:#1e1e1e;stroke-width:2.83223772;stroke-linejoin:round;stroke-miterlimit:4;stroke-dasharray:none;stroke-opacity:1" transform="matrix(.19849 .049 -.07812 .31647 262.458 -25.127)"/><path d="M421.17 250.768s5.215-.088 5.746-2.21c.53-2.12-.354-4.86-.354-4.86s2.475 2.74 1.768 4.86c-.707 2.122-1.4 2.67-3.182 3.094-1.207.287-3.005-.177-3.978-.884z" style="fill:#a3afb8;fill-opacity:1;fill-rule:evenodd;stroke:none;stroke-width:2.83223772;stroke-linecap:butt;stroke-linejoin:miter;stroke-miterlimit:4;stroke-dasharray:none;stroke-opacity:1" transform="matrix(.19849 .049 -.07812 .31647 262.458 -25.127)"/></g></g><path d="m297.952 33.632.151 3.562s-4.223.371-4.395.758c-.82 1.839.985 4.32.985 4.32s1.42-1.061 5.002-1.061c3.41 0 5.153.833 5.153.833s.91-1.44.91-2.5c0-1.061-.38-2.122-.38-2.122s-1.743-.228-2.273-.228h-1.516l-.151-3.637-3.486.075z" style="fill:#b3a192;fill-opacity:1;fill-rule:evenodd;stroke:#000;stroke-width:.7311542;stroke-linecap:butt;stroke-linejoin:miter;stroke-miterlimit:4;stroke-dasharray:none;stroke-opacity:1"/><path d="M303.974 39.158c0 .4-.337.724-.754.725-.417 0-.755-.322-.757-.722-.002-.4.334-.724.751-.727.417-.002.757.32.76.719M305.715 39.546c0 .417-.352.755-.787.756-.435 0-.788-.336-.79-.753-.002-.416.349-.756.784-.759.435-.002.79.333.793.75M302.231 39.13c0 .4-.337.724-.754.725-.417 0-.756-.322-.757-.721-.002-.4.334-.725.75-.728.418-.002.758.32.761.719M298.738 39.17c0 .415-.351.753-.785.754-.434 0-.786-.335-.788-.751-.002-.416.348-.754.782-.757.433-.002.788.332.791.748M296.799 39.3c0 .415-.351.752-.785.753-.434 0-.786-.335-.788-.75-.002-.416.348-.755.782-.757.433-.003.787.331.791.747M300.358 37.118a.65.65 0 0 1-.662.636.65.65 0 0 1-.665-.633.65.65 0 0 1 .66-.638.65.65 0 0 1 .667.63M300.358 34.163a.65.65 0 0 1-.662.636.65.65 0 0 1-.665-.633.65.65 0 0 1 .66-.639.65.65 0 0 1 .667.63M300.358 35.754a.65.65 0 0 1-.662.636.65.65 0 0 1-.665-.633.65.65 0 0 1 .66-.639.65.65 0 0 1 .667.631" style="fill:#f0ddcb;fill-opacity:1;stroke:#121116;stroke-width:.37258548;stroke-linejoin:round;stroke-miterlimit:4;stroke-dasharray:none;stroke-opacity:1"/><path d="M294.834 39.827c0 .401-.339.727-.758.728-.418 0-.758-.324-.76-.725-.002-.4.336-.728.754-.73.419-.002.76.32.764.721" style="fill:#f0ddcb;fill-opacity:1;stroke:#121116;stroke-width:.37258551;stroke-linejoin:round;stroke-miterlimit:4;stroke-dasharray:none;stroke-opacity:1"/><path d="M300.528 38.975c0 .439-.372.795-.832.796-.46 0-.833-.354-.835-.793-.002-.439.369-.796.829-.799.46-.002.835.351.838.79" style="fill:#916c68;fill-opacity:1;stroke:#4d3126;stroke-width:.37258548;stroke-linejoin:round;stroke-miterlimit:4;stroke-dasharray:none;stroke-opacity:1"/><g style="stroke-width:2.53446817;stroke-miterlimit:4;stroke-dasharray:none"><path d="M430.628 247.41c0 3.607-2.88 6.533-6.44 6.54-3.558.008-6.45-2.907-6.465-6.515-.014-3.607 2.856-6.545 6.415-6.566 3.558-.021 6.462 2.882 6.49 6.49" transform="matrix(.24125 0 0 .24125 197.401 -31.281)" style="opacity:1;fill:#eee;fill-opacity:1;stroke:#1e1e1e;stroke-width:3.03071785;stroke-linejoin:round;stroke-miterlimit:4;stroke-dasharray:none;stroke-opacity:1"/><path d="M372.26 210.537s4.36-.074 4.804-1.848c.444-1.774-.295-4.065-.295-4.065s2.07 2.291 1.478 4.065c-.591 1.774-1.172 2.233-2.661 2.587-1.01.24-2.513-.148-3.326-.739z" style="fill:#a3afb8;fill-opacity:1;fill-rule:evenodd;stroke:none;stroke-width:2.53446817;stroke-linecap:butt;stroke-linejoin:miter;stroke-miterlimit:4;stroke-dasharray:none;stroke-opacity:1" transform="matrix(.28848 0 0 .28848 191.616 -31.52)"/></g><path d="M274.98 81.335s1.388 1.296 1.759 2.453c.37 1.158.925 4.26.925 4.26s14.537-4.028 21.666-3.704c7.13.324 23.564 3.935 23.564 3.935s.278-1.76.602-3.611c.324-1.852 1.667-3.889 1.667-3.889s-15.694-4.907-25.601-4.444c-9.907.463-14.86 1.528-17.083 2.222-2.222.694-7.638 2.824-7.5 2.778z" style="fill:#fc0;fill-opacity:1;fill-rule:evenodd;stroke:#000;stroke-width:.32597154px;stroke-linecap:butt;stroke-linejoin:miter;stroke-opacity:1"/><path d="M296.663 22.53h6.252s-1.542 1.067-1.856 2.084c-.27.875-.19 2.311-.19 2.311s1.705 0 2.463-.644 2.35-1.78 2.35-1.78v7.957s-1.535-1.484-2.463-1.97a9.027 9.027 0 0 0-2.236-.797s0 1.289.53 2.047c.53.758 2.653 3.637 2.653 3.637l-8.943.341s2.121-2.236 2.994-3.865c.568-1.06.34-2.16.34-2.16s-1.515 0-2.273.531c-.758.53-2.084 2.122-2.084 2.122V24.69s.569 1.477 1.819 2.046c1.25.568 2.425.265 2.425.265s.243-1.523-.265-2.463c-.524-.969-1.63-2.046-1.516-2.008z" style="fill:#fc0;fill-opacity:1;fill-rule:evenodd;stroke:#000;stroke-width:.7311542;stroke-linecap:butt;stroke-linejoin:miter;stroke-miterlimit:4;stroke-dasharray:none;stroke-opacity:1"/><path d="M296.173 47.78s-4.448-.053-8.252-2.304c-3.805-2.25-7.643-4.608-13.29-3.269-1.157.274-5.413 2.144-7.288 8.2-1.316 4.248.214 9.377 1.554 11.681 1.34 2.305 3.5 4.64 3.5 4.64l2.298-1.556s-5.852-4.96-5.155-11.39c.697-6.43 3.912-7.93 3.912-7.93s3.965-3.109 9.27-.162c5.306 2.948 10.504 4.287 10.504 4.287s4.876 1.18 5.305 1.126c.429-.054-2.465-3.376-2.358-3.323z" style="fill:#fc0;fill-opacity:1;fill-rule:evenodd;stroke:#121116;stroke-width:.7311542;stroke-linecap:butt;stroke-linejoin:miter;stroke-miterlimit:4;stroke-dasharray:none;stroke-opacity:1"/><path d="m271.572 71.9-2.363-4.645 7.09-2.771s-1.712 2.282-2.12 3.911c-.497 1.991-.325 3.668-.325 3.668s.652-.49 1.467-1.793c.618-.99 1.63-4.564 1.63-4.564l3.178 10.187c.024.027-1.634-1.634-2.8-1.831-1.314-.223-2.905.2-2.905.2l-1.874.571-.978-2.933z" style="fill:#fc0;fill-opacity:1;fill-rule:evenodd;stroke:#000;stroke-width:.74973458;stroke-linecap:butt;stroke-linejoin:miter;stroke-miterlimit:4;stroke-dasharray:none;stroke-opacity:1"/><path d="M304.19 47.697s4.447-.054 8.252-2.305c3.805-2.25 7.642-4.608 13.29-3.269 1.156.275 5.412 2.144 7.288 8.2 1.316 4.248-.215 9.377-1.554 11.682-1.34 2.304-2.251 3.66-2.251 3.66l-2.762-.992s5.066-4.544 4.37-10.975c-.697-6.43-3.912-7.93-3.912-7.93s-3.966-3.109-9.271-.161c-5.305 2.947-10.503 4.287-10.503 4.287s-4.877 1.179-5.305 1.125c-.43-.054 2.465-3.376 2.357-3.322z" style="fill:#fc0;fill-opacity:1;fill-rule:evenodd;stroke:#121116;stroke-width:.7311542;stroke-linecap:butt;stroke-linejoin:miter;stroke-miterlimit:4;stroke-dasharray:none;stroke-opacity:1"/><path style="fill:#fc0;fill-opacity:1;stroke:#121116;stroke-width:.7311542;stroke-linejoin:round;stroke-miterlimit:4;stroke-dasharray:none;stroke-opacity:1" d="M301.892 43.295h1.857v17.317h-1.857zM295.64 43.219h2.198v17.317h-2.198z"/><path d="M305.757 39.202c0 3.073-2.706 5.565-6.05 5.57-3.344.007-6.062-2.475-6.075-5.547-.013-3.072 2.683-5.574 6.027-5.592 3.343-.019 6.072 2.454 6.098 5.526" style="fill:#fc0;fill-opacity:1;stroke:#121116;stroke-width:.7311542;stroke-linejoin:round;stroke-miterlimit:4;stroke-dasharray:none;stroke-opacity:1"/><path d="m294.317 60.467 10.426-.086s-1.223.73-2.274 2.596-.901 3.046-.901 3.046 1.587-.021 2.703-.837c1.115-.815 2.36-2.338 2.36-2.338l-.043 9.61s-.751-1.222-1.995-1.951c-1.245-.73-3.004-.73-3.004-.73h-3.561s-1.628.097-2.36.58c-1.031.68-2.317 1.995-2.317 1.995l-.171-9.075s.515 1.588 2.188 2.231c1.673.644 2.617.558 2.617.558s0-2.038-.858-3.09c-.858-1.05-2.81-2.466-2.81-2.51z" style="fill:#fc0;fill-opacity:1;fill-rule:evenodd;stroke:#000;stroke-width:.6193459;stroke-linecap:butt;stroke-linejoin:miter;stroke-miterlimit:4;stroke-dasharray:none;stroke-opacity:1"/><path d="M300.126 68.013s1.525 3.56 3.299 5.13c1.032.915 4.137 1.604 5.54 1.245 3.154-.805 5.322-3.328 5.322-3.328s-.113 2.764 1.862 4.288c1.974 1.523 3.554 1.918 5.19 1.466 1.636-.45 6.262-3.892 6.262-3.892l.96.846s-2.654 2.576-5.442 3.944c-1.436.704-5.794.313-7.205-.815-1.41-1.129-2.248-3.863-2.248-3.863s-.868 1.758-2.73 2.379c-1.862.62-4.42.593-6.796-.101-1.599-.467-3.676-2.673-4.07-3.406-.395-.733-.283-1.128-.283-1.128s-1.171 3.358-3.61 4.274c-2.304.865-4.93.872-7.16.23-2.256-.648-2.431-1.91-2.431-1.91s-.17 3.555-5.078 4.57c-4.909 1.016-8.801-2.594-8.801-2.594l.677-1.016s2.764 3.103 6.996 2.82c4.23-.281 5.641-5.697 5.641-5.697s1.862 2.82 6.827 2.877c4.965.056 6.375-6.432 6.375-6.432l.903.113z" style="fill:#f6ca1f;fill-opacity:1;fill-rule:evenodd;stroke:#000;stroke-width:.58674878;stroke-linecap:butt;stroke-linejoin:miter;stroke-miterlimit:4;stroke-dasharray:none;stroke-opacity:1"/><g style="fill:#fc0;fill-opacity:1;stroke:#000;stroke-width:2.20000005;stroke-miterlimit:4;stroke-dasharray:none;stroke-opacity:1"><path d="M338.569 336.292s.114-5.3 1.253-6.894c1.616-2.259 3.814-2.35 4.935-2.036 1.384.387 2.82 1.645 2.585 5.326-.235 3.682-1.253 5.484-.156 6.894 1.096 1.41 1.253 2.35 3.368 2.037 2.115-.314 3.055-1.019 2.585-2.977-.47-1.958-1.097.157-1.488-1.488-.392-1.645 2.046-8.752 1.645-13.16-.392-4.31-2.037-7.756-5.327-8.618-3.092-.81-5.719-.783-8.617 1.332-2.78 2.028-6.345 8.695-6.345 8.695l-.079 14.257 5.797-.313-.156-3.055z" style="fill:#fc0;fill-opacity:1;fill-rule:evenodd;stroke:#000;stroke-width:2.20000005;stroke-linecap:butt;stroke-linejoin:miter;stroke-miterlimit:4;stroke-dasharray:none;stroke-opacity:1" transform="translate(177.53 -39.538) scale(.32597)"/><path d="M327.77 340.13s-2.217-4.816-3.897-5.823c-2.382-1.428-4.435-.636-5.338.099-1.114.907-1.93 2.633-.248 5.916 1.683 3.283 3.335 4.53 2.892 6.26-.444 1.73-.213 2.655-2.278 3.21-2.065.556-3.208.284-3.557-1.7-.35-1.983 1.068-.293.771-1.958-.296-1.665-5.364-7.21-6.754-11.414-1.358-4.108-1.223-7.925 1.451-10.026 2.513-1.975 4.933-2.998 8.434-2.213 3.358.752 9.285 5.445 9.285 5.445l5.755 13.045-5.442 2.023-1.074-2.864z" style="fill:#fc0;fill-opacity:1;fill-rule:evenodd;stroke:#000;stroke-width:2.20000005;stroke-linecap:butt;stroke-linejoin:miter;stroke-miterlimit:4;stroke-dasharray:none;stroke-opacity:1" transform="translate(177.53 -39.538) scale(.32597)"/><path d="M326.662 297.907s-5.64 9.479-4.387 16.764c1.253 7.285 8.773 22.953 8.773 22.953l.079 2.115 4.058-.439-.925-2.146s2.027-18.756.784-24.676c-.925-4.401-8.304-14.492-8.382-14.57zM335.67 341.305s2.818 3.373 6.189 5.014c3.682 1.793 5.195 1.805 6.658.705 1.072-.806.705-4.23-.548-5.17-1.253-.94-2.675-.463-2.898.47-.377 1.574-.89 1.47-2.037.861-1.674-.887-5.562-3.29-5.562-3.29l-1.802 1.41zM331.304 342.07s-1.186 4.233-3.586 7.112c-2.622 3.146-3.997 3.778-5.783 3.376-1.308-.295-2.379-3.569-1.621-4.94.757-1.372 2.25-1.52 2.836-.761.99 1.281 1.415.975 2.21-.05 1.163-1.496 3.723-5.283 3.723-5.283l2.221.547z" style="fill:#fc0;fill-opacity:1;fill-rule:evenodd;stroke:#000;stroke-width:2.20000005;stroke-linecap:butt;stroke-linejoin:miter;stroke-miterlimit:4;stroke-dasharray:none;stroke-opacity:1" transform="translate(177.53 -39.538) scale(.32597)"/><path d="M342.094 341.932c0 1.253-3.953 2.27-8.835 2.272-4.882.002-8.85-1.01-8.87-2.263-.018-1.253 3.92-2.273 8.801-2.28 4.882-.008 8.865 1 8.904 2.253" transform="rotate(-9.523 -43.436 -974.198) scale(.32597)" style="opacity:1;fill:#fc0;fill-opacity:1;stroke:#000;stroke-width:2.19999981;stroke-linejoin:round;stroke-miterlimit:4;stroke-dasharray:none;stroke-opacity:1"/></g><g style="fill:#fc0;fill-opacity:1;stroke:#000;stroke-width:2.19999981;stroke-miterlimit:4;stroke-dasharray:none;stroke-opacity:1"><path d="M338.569 336.292s.114-5.3 1.253-6.894c1.616-2.259 3.814-2.35 4.935-2.036 1.384.387 2.82 1.645 2.585 5.326-.235 3.682-1.253 5.484-.156 6.894 1.096 1.41 1.253 2.35 3.368 2.037 2.115-.314 3.055-1.019 2.585-2.977-.47-1.958-1.097.157-1.488-1.488-.392-1.645 2.046-8.752 1.645-13.16-.392-4.31-2.037-7.756-5.327-8.618-3.092-.81-5.719-.783-8.617 1.332-2.78 2.028-6.345 8.695-6.345 8.695l-.079 14.257 5.797-.313-.156-3.055z" style="fill:#fc0;fill-opacity:1;fill-rule:evenodd;stroke:#000;stroke-width:2.19999981;stroke-linecap:butt;stroke-linejoin:miter;stroke-miterlimit:4;stroke-dasharray:none;stroke-opacity:1" transform="rotate(20.528 320.438 658.035) scale(.32597)"/><path d="M327.77 340.13s-2.217-4.816-3.897-5.823c-2.382-1.428-4.435-.636-5.338.099-1.114.907-1.93 2.633-.248 5.916 1.683 3.283 3.335 4.53 2.892 6.26-.444 1.73-.213 2.655-2.278 3.21-2.065.556-3.208.284-3.557-1.7-.35-1.983 1.068-.293.771-1.958-.296-1.665-5.364-7.21-6.754-11.414-1.358-4.108-1.223-7.925 1.451-10.026 2.513-1.975 4.933-2.998 8.434-2.213 3.358.752 9.285 5.445 9.285 5.445l5.755 13.045-5.442 2.023-1.074-2.864z" style="fill:#fc0;fill-opacity:1;fill-rule:evenodd;stroke:#000;stroke-width:2.19999981;stroke-linecap:butt;stroke-linejoin:miter;stroke-miterlimit:4;stroke-dasharray:none;stroke-opacity:1" transform="rotate(20.528 320.438 658.035) scale(.32597)"/><path d="M326.662 297.907s-5.64 9.479-4.387 16.764c1.253 7.285 8.773 22.953 8.773 22.953l.079 2.115 4.058-.439-.925-2.146s2.027-18.756.784-24.676c-.925-4.401-8.304-14.492-8.382-14.57zM335.67 341.305s2.818 3.373 6.189 5.014c3.682 1.793 5.195 1.805 6.658.705 1.072-.806.705-4.23-.548-5.17-1.253-.94-2.675-.463-2.898.47-.377 1.574-.89 1.47-2.037.861-1.674-.887-5.562-3.29-5.562-3.29l-1.802 1.41zM331.304 342.07s-1.186 4.233-3.586 7.112c-2.622 3.146-3.997 3.778-5.783 3.376-1.308-.295-2.379-3.569-1.621-4.94.757-1.372 2.25-1.52 2.836-.761.99 1.281 1.415.975 2.21-.05 1.163-1.496 3.723-5.283 3.723-5.283l2.221.547z" style="fill:#fc0;fill-opacity:1;fill-rule:evenodd;stroke:#000;stroke-width:2.19999981;stroke-linecap:butt;stroke-linejoin:miter;stroke-miterlimit:4;stroke-dasharray:none;stroke-opacity:1" transform="rotate(20.528 320.438 658.035) scale(.32597)"/><path d="M342.094 341.932c0 1.253-3.953 2.27-8.835 2.272-4.882.002-8.85-1.01-8.87-2.263-.018-1.253 3.92-2.273 8.801-2.28 4.882-.008 8.865 1 8.904 2.253" transform="rotate(11.003 419.487 1157.353) scale(.32597)" style="opacity:1;fill:#fc0;fill-opacity:1;stroke:#000;stroke-width:2.19999981;stroke-linejoin:round;stroke-miterlimit:4;stroke-dasharray:none;stroke-opacity:1"/></g><path d="M274.431 81.17s.304 1.277 1.034.608c.73-.67 10.767-4.623 24.94-4.623 14.174 0 23.48 3.893 24.028 4.136.548.243.791.547 1.278 0 .486-.547-.487-1.4-.487-1.4s-9.854-4.196-25.244-4.136c-15.39.061-25.366 4.441-25.366 4.441s-.67.487-.183.973z" style="fill:#cca715;fill-opacity:1;fill-rule:evenodd;stroke:#000;stroke-width:.32597154px;stroke-linecap:butt;stroke-linejoin:miter;stroke-opacity:1"/><path d="M292.404 87.065s.452-1.257 1.242-1.5c.63-.192 1.624.427 1.624.427s-1.198-.11-1.573.103c-.338.192-.44.764-.44.764s.256-.456 1.175-.411c.918.044 1.021.044 1.021.044s-1.558.117-1.918.565c-.36.449 1.47.654 1.47.654s-2.8.015-3.167-.154c-.367-.169-.602-.742-1.227-.566-.625.177-1.264.735-1.264.735s.713-1.198 1.161-1.205c.448-.007.713-.03 1.117.154s.779.39.779.39zM281.935 89.332s.212-1.319.944-1.702c.583-.306 1.674.118 1.674.118s-1.197.113-1.526.392c-.297.252-.292.833-.292.833s.169-.496 1.08-.622c.91-.127 1.011-.146 1.011-.146s-1.509.404-1.78.91c-.27.508 1.565.372 1.565.372s-2.748.532-3.14.434c-.393-.098-.73-.618-1.311-.33-.581.29-1.106.956-1.106.956s.479-1.308.918-1.398c.439-.09.695-.161 1.126-.055.431.105.837.238.837.238zM301.233 86.6s.524-1.229 1.326-1.424c.64-.157 1.597.52 1.597.52s-1.19-.18-1.576.01c-.35.173-.484.738-.484.738s.283-.44 1.197-.343c.915.098 1.017.104 1.017.104s-1.562.027-1.947.453c-.386.427 1.43.738 1.43.738s-2.797-.147-3.154-.337c-.357-.19-.558-.776-1.192-.636-.634.14-1.304.66-1.304.66s.78-1.154 1.229-1.136c.448.019.713.012 1.106.22.393.206.755.433.755.433zM310.072 87.6s.664-1.16 1.484-1.26c.654-.08 1.525.702 1.525.702s-1.16-.317-1.566-.172c-.367.13-.567.676-.567.676s.332-.404 1.229-.2c.897.202.998.22.998.22s-1.554-.155-1.987.224c-.433.378 1.333.9 1.333.9s-2.76-.473-3.091-.704c-.333-.23-.465-.835-1.11-.77-.646.065-1.373.503-1.373.503s.91-1.055 1.353-.984c.443.07.707.095 1.073.346s.7.519.7.519zM318.85 89.167s.619-.883 1.285-.904c.53-.016 1.174.676 1.174.676s-.91-.34-1.246-.253c-.305.078-.506.502-.506.502s.297-.3 1.003-.072c.706.23.786.251.786.251s-1.238-.238-1.613.034c-.376.273 1.005.82 1.005.82s-2.183-.581-2.433-.79c-.25-.21-.312-.706-.835-.701-.524.005-1.14.304-1.14.304s.809-.781 1.16-.692c.35.09.56.128.836.357.276.228.524.468.524.468z" style="fill:#000;fill-opacity:1;fill-rule:evenodd;stroke:none;stroke-width:.2;stroke-linecap:butt;stroke-linejoin:miter;stroke-miterlimit:4;stroke-dasharray:none;stroke-opacity:1"/><path d="M290.639 81.076c.21 1.048-1.021 2.178-2.751 2.525-1.73.346-3.303-.222-3.511-1.27-.211-1.047 1.02-2.178 2.75-2.524 1.73-.347 3.303.222 3.512 1.27z" style="fill:#0f6545;fill-opacity:1;stroke:#000;stroke-width:.43534634;stroke-linejoin:round;stroke-miterlimit:4;stroke-dasharray:none;stroke-opacity:1"/><path d="M286.72 80.905c.051.254-.216.522-.597.598-.38.076-.73-.068-.781-.321-.051-.254.216-.522.597-.598.38-.076.73.067.781.321z" style="fill:#cecfc1;fill-opacity:1;stroke:none;stroke-width:1.20000005;stroke-linejoin:round;stroke-miterlimit:4;stroke-dasharray:none;stroke-opacity:1"/><path d="M315.088 82.344c-.32 1.02-1.943 1.417-3.627.889-1.683-.529-2.788-1.784-2.467-2.803.32-1.02 1.943-1.417 3.627-.889 1.683.529 2.788 1.784 2.467 2.803z" style="fill:#0f6545;fill-opacity:1;stroke:#000;stroke-width:.43534634;stroke-linejoin:round;stroke-miterlimit:4;stroke-dasharray:none;stroke-opacity:1"/><path d="M311.735 80.308c-.078.247-.44.353-.811.237-.37-.116-.608-.41-.53-.658.077-.247.44-.353.81-.237.37.117.608.411.53.658z" style="fill:#cecfc1;fill-opacity:1;stroke:none;stroke-width:1.20000005;stroke-linejoin:round;stroke-miterlimit:4;stroke-dasharray:none;stroke-opacity:1"/><path style="fill:#1f2d86;fill-opacity:1;stroke:#000;stroke-width:.6193459;stroke-linejoin:round;stroke-miterlimit:4;stroke-dasharray:none;stroke-opacity:1" d="M296.627 78.715h6.337v3.195h-6.337z"/><path d="M299.298 79.395c0 .145-.27.262-.602.262-.333 0-.603-.117-.603-.262 0-.144.27-.261.603-.261.332 0 .602.117.602.261z" style="fill:#707c8b;fill-opacity:1;stroke:none;stroke-width:1.89999998;stroke-linejoin:round;stroke-miterlimit:4;stroke-dasharray:none;stroke-opacity:1"/><path style="fill:#9f1209;fill-opacity:1;fill-rule:evenodd;stroke:#000;stroke-width:.32597154px;stroke-linecap:butt;stroke-linejoin:miter;stroke-opacity:1" d="m278.715 81.91 1.048 3.09-1.938 1.047s-.89.628-1.78.157c-.891-.471-1.416-1.883-.944-2.462.939-1.147 3.614-1.885 3.614-1.833z"/><path style="fill:#8f322f;fill-opacity:1;stroke:none;stroke-width:1.89999998;stroke-linejoin:round;stroke-miterlimit:4;stroke-dasharray:none;stroke-opacity:1" d="M277.092 84.11c0 .52-.399.942-.89.942-.493 0-.891-.422-.891-.943 0-.52.398-.943.89-.943s.891.422.89.943z"/><path style="fill:#e2a494;fill-opacity:1;stroke:none;stroke-width:1.89999998;stroke-linejoin:round;stroke-miterlimit:4;stroke-dasharray:none;stroke-opacity:1" d="M276.25 83.74a.526.526 0 0 1-.103.43.261.261 0 0 1-.336.056.526.526 0 0 1-.234-.376.526.526 0 0 1 .102-.431c.09-.1.219-.121.337-.055.117.066.206.21.233.376z"/><path style="fill:#9f1209;fill-opacity:1;fill-rule:evenodd;stroke:#000;stroke-width:.32597154px;stroke-linecap:butt;stroke-linejoin:miter;stroke-opacity:1" d="m321.175 82.312-1.04 2.752 2.466 1.292s1.091.486 1.78-.118c.587-.516.72-1.711.25-2.315-.444-.572-3.49-1.628-3.456-1.611z"/><path style="fill:#aa675d;fill-opacity:1;stroke:none;stroke-width:1.89999998;stroke-linejoin:round;stroke-miterlimit:4;stroke-dasharray:none;stroke-opacity:1" d="M324.128 84.518c0 .339-.353.613-.788.613-.436 0-.789-.274-.789-.613 0-.338.353-.612.789-.612.435 0 .788.274.788.612z"/><path style="fill:#e2a494;fill-opacity:1;stroke:none;stroke-width:1.89999998;stroke-linejoin:round;stroke-miterlimit:4;stroke-dasharray:none;stroke-opacity:1" d="M323.373 84.426a.48.48 0 0 1-.184.393.311.311 0 0 1-.37 0 .48.48 0 0 1-.184-.393.48.48 0 0 1 .184-.393.311.311 0 0 1 .37 0 .48.48 0 0 1 .184.393z"/><path d="M392.104 363.607c0 .722-.612 1.307-1.369 1.307-.756 0-1.369-.585-1.368-1.307 0-.721.612-1.306 1.368-1.306.757 0 1.37.585 1.369 1.306z" style="opacity:1;fill:#f5d8bc;fill-opacity:1;stroke:none;stroke-width:1.89999998;stroke-linejoin:round;stroke-miterlimit:4;stroke-dasharray:none;stroke-opacity:1" transform="translate(177.53 -39.538) scale(.32597)"/><path d="M392.104 363.607c0 .722-.612 1.307-1.369 1.307-.756 0-1.369-.585-1.368-1.307 0-.721.612-1.306 1.368-1.306.757 0 1.37.585 1.369 1.306z" transform="translate(180.226 -39.382) scale(.32597)" style="opacity:1;fill:#f5d8bc;fill-opacity:1;stroke:none;stroke-width:1.89999998;stroke-linejoin:round;stroke-miterlimit:4;stroke-dasharray:none;stroke-opacity:1"/><path d="M392.104 363.607c0 .722-.612 1.307-1.369 1.307-.756 0-1.369-.585-1.368-1.307 0-.721.612-1.306 1.368-1.306.757 0 1.37.585 1.369 1.306z" transform="matrix(.4097 0 0 .4097 146.026 -68.782)" style="opacity:1;fill:#f5d8bc;fill-opacity:1;stroke:none;stroke-width:1.89999998;stroke-linejoin:round;stroke-miterlimit:4;stroke-dasharray:none;stroke-opacity:1"/><path d="M392.104 363.607c0 .722-.612 1.307-1.369 1.307-.756 0-1.369-.585-1.368-1.307 0-.721.612-1.306 1.368-1.306.757 0 1.37.585 1.369 1.306z" transform="translate(180.16 -36.575) scale(.32597)" style="opacity:1;fill:#f5d8bc;fill-opacity:1;stroke:none;stroke-width:1.89999998;stroke-linejoin:round;stroke-miterlimit:4;stroke-dasharray:none;stroke-opacity:1"/><path d="M392.104 363.607c0 .722-.612 1.307-1.369 1.307-.756 0-1.369-.585-1.368-1.307 0-.721.612-1.306 1.368-1.306.757 0 1.37.585 1.369 1.306z" transform="translate(177.558 -36.91) scale(.32597)" style="opacity:1;fill:#f5d8bc;fill-opacity:1;stroke:none;stroke-width:1.89999998;stroke-linejoin:round;stroke-miterlimit:4;stroke-dasharray:none;stroke-opacity:1"/><path d="M392.104 363.607c0 .722-.612 1.307-1.369 1.307-.756 0-1.369-.585-1.368-1.307 0-.721.612-1.306 1.368-1.306.757 0 1.37.585 1.369 1.306z" style="opacity:1;fill:#f5d8bc;fill-opacity:1;stroke:none;stroke-width:1.89999998;stroke-linejoin:round;stroke-miterlimit:4;stroke-dasharray:none;stroke-opacity:1" transform="rotate(-13.037 39.07 -620.857) scale(.32597)"/><path d="M392.104 363.607c0 .722-.612 1.307-1.369 1.307-.756 0-1.369-.585-1.368-1.307 0-.721.612-1.306 1.368-1.306.757 0 1.37.585 1.369 1.306z" transform="rotate(-13.037 38.401 -632.734) scale(.32597)" style="opacity:1;fill:#f5d8bc;fill-opacity:1;stroke:none;stroke-width:1.89999998;stroke-linejoin:round;stroke-miterlimit:4;stroke-dasharray:none;stroke-opacity:1"/><path d="M392.104 363.607c0 .722-.612 1.307-1.369 1.307-.756 0-1.369-.585-1.368-1.307 0-.721.612-1.306 1.368-1.306.757 0 1.37.585 1.369 1.306z" transform="matrix(.39915 -.09243 .09243 .39915 103.783 -28.571)" style="opacity:1;fill:#f5d8bc;fill-opacity:1;stroke:none;stroke-width:1.89999998;stroke-linejoin:round;stroke-miterlimit:4;stroke-dasharray:none;stroke-opacity:1"/><path d="M392.104 363.607c0 .722-.612 1.307-1.369 1.307-.756 0-1.369-.585-1.368-1.307 0-.721.612-1.306 1.368-1.306.757 0 1.37.585 1.369 1.306z" transform="rotate(-13.037 50.716 -633.851) scale(.32597)" style="opacity:1;fill:#f5d8bc;fill-opacity:1;stroke:none;stroke-width:1.89999998;stroke-linejoin:round;stroke-miterlimit:4;stroke-dasharray:none;stroke-opacity:1"/><path d="M392.104 363.607c0 .722-.612 1.307-1.369 1.307-.756 0-1.369-.585-1.368-1.307 0-.721.612-1.306 1.368-1.306.757 0 1.37.585 1.369 1.306z" transform="rotate(-13.037 50.55 -622.297) scale(.32597)" style="opacity:1;fill:#f5d8bc;fill-opacity:1;stroke:none;stroke-width:1.89999998;stroke-linejoin:round;stroke-miterlimit:4;stroke-dasharray:none;stroke-opacity:1"/><g><path d="M392.104 363.607c0 .722-.612 1.307-1.369 1.307-.756 0-1.369-.585-1.368-1.307 0-.721.612-1.306 1.368-1.306.757 0 1.37.585 1.369 1.306z" style="opacity:1;fill:#f5d8bc;fill-opacity:1;stroke:none;stroke-width:1.89999998;stroke-linejoin:round;stroke-miterlimit:4;stroke-dasharray:none;stroke-opacity:1" transform="rotate(-21.219 106.626 -308.568) scale(.32597)"/><path d="M392.104 363.607c0 .722-.612 1.307-1.369 1.307-.756 0-1.369-.585-1.368-1.307 0-.721.612-1.306 1.368-1.306.757 0 1.37.585 1.369 1.306z" transform="rotate(-21.219 105.693 -315.844) scale(.32597)" style="opacity:1;fill:#f5d8bc;fill-opacity:1;stroke:none;stroke-width:1.89999998;stroke-linejoin:round;stroke-miterlimit:4;stroke-dasharray:none;stroke-opacity:1"/><path d="M392.104 363.607c0 .722-.612 1.307-1.369 1.307-.756 0-1.369-.585-1.368-1.307 0-.721.612-1.306 1.368-1.306.757 0 1.37.585 1.369 1.306z" transform="matrix(.38193 -.1483 .1483 .38193 78.962 1.814)" style="opacity:1;fill:#f5d8bc;fill-opacity:1;stroke:none;stroke-width:1.89999998;stroke-linejoin:round;stroke-miterlimit:4;stroke-dasharray:none;stroke-opacity:1"/><path d="M392.104 363.607c0 .722-.612 1.307-1.369 1.307-.756 0-1.369-.585-1.368-1.307 0-.721.612-1.306 1.368-1.306.757 0 1.37.585 1.369 1.306z" transform="rotate(-21.219 113.218 -317.072) scale(.32597)" style="opacity:1;fill:#f5d8bc;fill-opacity:1;stroke:none;stroke-width:1.89999998;stroke-linejoin:round;stroke-miterlimit:4;stroke-dasharray:none;stroke-opacity:1"/><path d="M392.104 363.607c0 .722-.612 1.307-1.369 1.307-.756 0-1.369-.585-1.368-1.307 0-.721.612-1.306 1.368-1.306.757 0 1.37.585 1.369 1.306z" transform="rotate(-21.219 113.623 -309.958) scale(.32597)" style="opacity:1;fill:#f5d8bc;fill-opacity:1;stroke:none;stroke-width:1.89999998;stroke-linejoin:round;stroke-miterlimit:4;stroke-dasharray:none;stroke-opacity:1"/></g><g><path d="M392.104 363.607c0 .722-.612 1.307-1.369 1.307-.756 0-1.369-.585-1.368-1.307 0-.721.612-1.306 1.368-1.306.757 0 1.37.585 1.369 1.306z" style="opacity:1;fill:#f5d8bc;fill-opacity:1;stroke:none;stroke-width:1.89999998;stroke-linejoin:round;stroke-miterlimit:4;stroke-dasharray:none;stroke-opacity:1" transform="scale(.3512) rotate(13.764 1202.252 2412.144)"/><path d="M392.104 363.607c0 .722-.612 1.307-1.369 1.307-.756 0-1.369-.585-1.368-1.307 0-.721.612-1.306 1.368-1.306.757 0 1.37.585 1.369 1.306z" transform="scale(.3512) rotate(13.764 1196.14 2446.176)" style="opacity:1;fill:#f5d8bc;fill-opacity:1;stroke:none;stroke-width:1.89999998;stroke-linejoin:round;stroke-miterlimit:4;stroke-dasharray:none;stroke-opacity:1"/><path d="M392.104 363.607c0 .722-.612 1.307-1.369 1.307-.756 0-1.369-.585-1.368-1.307 0-.721.612-1.306 1.368-1.306.757 0 1.37.585 1.369 1.306z" transform="rotate(13.764 569.733 722.293) scale(.44142)" style="opacity:1;fill:#f5d8bc;fill-opacity:1;stroke:none;stroke-width:1.89999998;stroke-linejoin:round;stroke-miterlimit:4;stroke-dasharray:none;stroke-opacity:1"/><path d="M392.104 363.607c0 .722-.612 1.307-1.369 1.307-.756 0-1.369-.585-1.368-1.307 0-.721.612-1.306 1.368-1.306.757 0 1.37.585 1.369 1.306z" transform="scale(.3512) rotate(13.764 1160.566 2441.038)" style="opacity:1;fill:#f5d8bc;fill-opacity:1;stroke:none;stroke-width:1.89999998;stroke-linejoin:round;stroke-miterlimit:4;stroke-dasharray:none;stroke-opacity:1"/><path d="M392.104 363.607c0 .722-.612 1.307-1.369 1.307-.756 0-1.369-.585-1.368-1.307 0-.721.612-1.306 1.368-1.306.757 0 1.37.585 1.369 1.306z" transform="scale(.3512) rotate(13.764 1168.822 2408.479)" style="opacity:1;fill:#f5d8bc;fill-opacity:1;stroke:none;stroke-width:1.89999998;stroke-linejoin:round;stroke-miterlimit:4;stroke-dasharray:none;stroke-opacity:1"/></g><path d="M322.483 55.582s-1.282 1.202-2.804 1.202c-1.523 0-2.404-.641-2.885-.962-.48-.32.16-1.282.16-1.282" style="fill:none;fill-rule:evenodd;stroke:#000;stroke-width:.74973458;stroke-linecap:butt;stroke-linejoin:miter;stroke-miterlimit:4;stroke-dasharray:none;stroke-opacity:1"/><path d="M295.56 57.986s-2.324-.4-3.285-.721c-.962-.32-.722-.962-1.843-.882-1.122.08-2.244.882-2.004 2.003.24 1.122 1.042 1.283 1.843 1.042.802-.24.561-1.602-.48-1.522-1.042.08-.16.961-.16.961" style="fill:none;fill-rule:evenodd;stroke:#000;stroke-width:.68454021;stroke-linecap:butt;stroke-linejoin:miter;stroke-miterlimit:4;stroke-dasharray:none;stroke-opacity:1"/><path d="M279.534 56.223s.641.962 2.324.801c1.683-.16 2.324-1.041 2.404-1.442.08-.4 0-1.122-.32-1.442-.321-.32-1.443-.481-1.443-.481" style="fill:none;fill-rule:evenodd;stroke:#000;stroke-width:.65194309;stroke-linecap:butt;stroke-linejoin:miter;stroke-miterlimit:4;stroke-dasharray:none;stroke-opacity:1"/></svg>