<?xml version="1.0" encoding="UTF-8" standalone="no"?>
<!-- Created with Sodipodi ("http://www.sodipodi.com/") -->
<svg
   xmlns:dc="http://purl.org/dc/elements/1.1/"
   xmlns:cc="http://web.resource.org/cc/"
   xmlns:rdf="http://www.w3.org/1999/02/22-rdf-syntax-ns#"
   xmlns:svg="http://www.w3.org/2000/svg"
   xmlns="http://www.w3.org/2000/svg"
   xmlns:sodipodi="http://inkscape.sourceforge.net/DTD/sodipodi-0.dtd"
   xmlns:inkscape="http://www.inkscape.org/namespaces/inkscape"
   version="1"
   x="0.00000000"
   y="0.00000000"
   width="1116.1300px"
   height="744.09448px"
   id="svg378"
   sodipodi:version="0.32"
   sodipodi:docname="ottoman.svg"
   sodipodi:docbase="/home/daniel/expflags"
   inkscape:version="0.42">
  <metadata
     id="metadata20">
    <rdf:RDF>
      <cc:Work
         rdf:about="">
        <dc:format>image/svg+xml</dc:format>
        <dc:type
           rdf:resource="http://purl.org/dc/dcmitype/StillImage" />
      </cc:Work>
    </rdf:RDF>
  </metadata>
  <sodipodi:namedview
     id="base"
     showguides="true"
     inkscape:guide-bbox="true"
     inkscape:zoom="0.46230688"
     inkscape:cx="531.49426"
     inkscape:cy="393.33910"
     inkscape:window-width="753"
     inkscape:window-height="513"
     inkscape:window-x="20"
     inkscape:window-y="42"
     inkscape:current-layer="svg378" />
  <defs
     id="defs380" />
  <rect
     width="1116.1271"
     height="744.09003"
     x="-1116.1262"
     y="-744.09448"
     transform="scale(-1.000000,-1.000000)"
     style="font-size:12.000000px;fill:#ff0000;fill-opacity:1.0000000;fill-rule:evenodd;stroke-width:1.0247000pt"
     id="rect149" />
  <path
     sodipodi:type="arc"
     style="opacity:1.0000000;fill:#00b335;fill-opacity:1.0000000;fill-rule:nonzero;stroke:none;stroke-width:7.3112502;stroke-miterlimit:4.0000000;stroke-dasharray:none;stroke-opacity:1.0000000"
     id="path3118"
     sodipodi:cx="602.41370"
     sodipodi:cy="430.45001"
     sodipodi:rx="401.24863"
     sodipodi:ry="190.34975"
     d="M 1003.6623 430.45001 A 401.24863 190.34975 0 1 1  201.16507,430.45001 A 401.24863 190.34975 0 1 1  1003.6623 430.45001 z"
     transform="matrix(1.134771,0.000000,0.000000,1.134771,-125.5389,-116.4127)" />
  <g
     id="g3120"
     transform="translate(-14.93512,-45.97249)"
     style="fill:#ffff00;fill-opacity:1.0000000">
    <g
       style="fill:#ffff00;fill-opacity:1.0000000;stroke:none"
       id="g6"
       transform="matrix(0.480389,0.000000,0.000000,-0.480389,249.9148,591.3943)">
      <path
         sodipodi:nodetypes="czzccccccccz"
         id="path8"
         d="M 230.00000,617.00000 C 177.50000,599.50000 100.47101,547.78985 65.710145,454.11594 C 31.839043,362.83978 48.036232,240.04107 126.53623,161.54107 C 205.03623,83.041063 315.94203,79.289855 415.00000,116.00000 L 455.00000,135.00000 L 405.00000,141.00000 C 340.00000,149.00000 299.00000,170.00000 262.00000,215.00000 C 193.00000,299.00000 193.00000,421.00000 262.00000,505.00000 C 299.00000,550.00000 340.00000,571.00000 405.00000,579.00000 L 455.00000,585.00000 L 415.00000,604.00000 C 367.00000,627.00000 282.50000,634.50000 230.00000,617.00000 z "
         style="fill:#ffff00;fill-opacity:1.0000000" />
    </g>
    <g
       style="fill:#ffff00;fill-opacity:1.0000000;stroke:none"
       id="g2266"
       transform="matrix(0.480389,0.000000,0.000000,-0.480389,452.1612,590.6197)">
      <path
         sodipodi:nodetypes="czzccccccccz"
         id="path2268"
         d="M 230.00000,617.00000 C 177.50000,599.50000 100.47101,547.78985 65.710145,454.11594 C 31.839043,362.83978 48.036232,240.04107 126.53623,161.54107 C 205.03623,83.041063 315.94203,79.289855 415.00000,116.00000 L 455.00000,135.00000 L 405.00000,141.00000 C 340.00000,149.00000 299.00000,170.00000 262.00000,215.00000 C 193.00000,299.00000 193.00000,421.00000 262.00000,505.00000 C 299.00000,550.00000 340.00000,571.00000 405.00000,579.00000 L 455.00000,585.00000 L 415.00000,604.00000 C 367.00000,627.00000 282.50000,634.50000 230.00000,617.00000 z "
         style="fill:#ffff00;fill-opacity:1.0000000" />
    </g>
    <g
       style="fill:#ffff00;fill-opacity:1.0000000;stroke:none"
       id="g2270"
       transform="matrix(0.480389,0.000000,0.000000,-0.480389,653.9786,590.6197)">
      <path
         sodipodi:nodetypes="czzccccccccz"
         id="path2272"
         d="M 230.00000,617.00000 C 177.50000,599.50000 100.47101,547.78985 65.710145,454.11594 C 31.839043,362.83978 48.036232,240.04107 126.53623,161.54107 C 205.03623,83.041063 315.94203,79.289855 415.00000,116.00000 L 455.00000,135.00000 L 405.00000,141.00000 C 340.00000,149.00000 299.00000,170.00000 262.00000,215.00000 C 193.00000,299.00000 193.00000,421.00000 262.00000,505.00000 C 299.00000,550.00000 340.00000,571.00000 405.00000,579.00000 L 455.00000,585.00000 L 415.00000,604.00000 C 367.00000,627.00000 282.50000,634.50000 230.00000,617.00000 z "
         style="fill:#ffff00;fill-opacity:1.0000000" />
    </g>
  </g>
</svg>
