<?xml version="1.0" encoding="UTF-8" standalone="no"?>
<svg
   xmlns:dc="http://purl.org/dc/elements/1.1/"
   xmlns:cc="http://creativecommons.org/ns#"
   xmlns:rdf="http://www.w3.org/1999/02/22-rdf-syntax-ns#"
   xmlns:svg="http://www.w3.org/2000/svg"
   xmlns="http://www.w3.org/2000/svg"
   xmlns:sodipodi="http://sodipodi.sourceforge.net/DTD/sodipodi-0.dtd"
   xmlns:inkscape="http://www.inkscape.org/namespaces/inkscape"
   width="392.34375pt"
   height="261.5625pt"
   id="svg2161"
   sodipodi:version="0.32"
   inkscape:version="1.0.2 (e86c870879, 2021-01-15)"
   sodipodi:docname="prussia.svg"
   version="1.1">
  <defs
     id="defs2163" />
  <sodipodi:namedview
     id="base"
     pagecolor="#ffffff"
     bordercolor="#666666"
     borderopacity="1.0"
     inkscape:pageopacity="0.0"
     inkscape:pageshadow="2"
     inkscape:zoom="0.98909112"
     inkscape:cx="295"
     inkscape:cy="174.28571"
     inkscape:document-units="px"
     inkscape:current-layer="layer1"
     inkscape:window-width="919"
     inkscape:window-height="683"
     inkscape:window-x="384"
     inkscape:window-y="107"
     inkscape:document-rotation="0"
     showgrid="false"
     inkscape:window-maximized="0" />
  <metadata
     id="metadata2166">
    <rdf:RDF>
      <cc:Work
         rdf:about="">
        <dc:format>image/svg+xml</dc:format>
        <dc:type
           rdf:resource="http://purl.org/dc/dcmitype/StillImage" />
      </cc:Work>
    </rdf:RDF>
  </metadata>
  <g
     inkscape:label="Layer 1"
     inkscape:groupmode="layer"
     id="layer1">
    <rect
       style="fill:#ffffff;fill-opacity:1;fill-rule:nonzero;stroke:none;stroke-width:8.38291;stroke-linecap:butt;stroke-linejoin:round;stroke-miterlimit:4;stroke-dasharray:none;stroke-opacity:1"
       id="rect2350"
       width="523.125"
       height="348.75"
       x="0"
       y="-7.8825835e-15" />
    <path
       style="fill:#000000;stroke:none"
       id="path8"
       d="m 0,27.401126 v 26.28489 H 261.56249 523.125 V 27.401126 0.95595571 H 261.56249 0 Z" />
    <path
       style="fill:#000000;stroke:none"
       id="path32"
       d="M 0,322.30482 V 348.75 H 261.56249 523.125 V 322.30482 295.85966 H 261.56249 0 Z" />
    <g
       id="g4863"
       transform="matrix(1.448844,0,0,1.448844,-2.98713,-105.005)">
      <path
         sodipodi:nodetypes="cczccccc"
         id="path2200"
         d="m 135.26525,138.14324 c -7.38757,1.01393 -6.17276,7.11356 -0.57559,9.20955 1.34306,-1.1512 1.61883,-2.82163 4.02917,-3.45359 2.41034,-0.63196 4.35831,3.39949 3.45358,5.18038 l -7.0349,0.86565 15.09326,3.73912 -6.90716,-16.69231 z"
         style="fill:#fdd639;fill-opacity:1;fill-rule:evenodd;stroke:none;stroke-width:1px;stroke-linecap:butt;stroke-linejoin:miter;stroke-opacity:1" />
      <path
         sodipodi:nodetypes="cccccc"
         id="path3089"
         d="m 125.52353,206.25217 -12.08349,14.83409 c -3.47687,-0.15489 -6.52521,0.7309 -10.0633,2.84105 -1.24846,3.68696 0.25785,7.86365 2.74365,10.02017 l 25.73636,-22.3847 z"
         style="fill:#fdd639;fill-opacity:1;fill-rule:evenodd;stroke:none;stroke-width:1px;stroke-linecap:butt;stroke-linejoin:miter;stroke-opacity:1" />
      <path
         sodipodi:nodetypes="czcccc"
         id="path3976"
         d="m 153.77815,208.18469 c 0,0 14.69218,19.71201 23.50749,24.48697 8.8153,4.77495 10.77426,-4.40766 10.77426,-4.40766 L 173.85746,220.91791 157.69607,205.736 Z"
         style="fill:#fdd639;fill-opacity:1;fill-rule:evenodd;stroke:none;stroke-width:1px;stroke-linecap:butt;stroke-linejoin:miter;stroke-opacity:1" />
      <path
         id="path2196"
         d="m 142.30239,259.13116 c 0,-0.54214 -1.08939,-1.48206 -2.42086,-2.08872 -1.5573,-0.70956 -2.24161,-1.68288 -1.91836,-2.72857 0.42353,-1.37009 0.27463,-1.34879 -0.9475,0.13555 -1.28426,1.55981 -1.59332,1.58838 -2.70408,0.25 -0.68975,-0.8311 -1.76149,-1.5042 -2.38164,-1.49578 -0.62016,0.008 -0.46559,0.43396 0.34348,0.94563 1.82179,1.15213 0.68243,2.5038 -1.42791,1.69398 -1.85921,-0.71344 -2.02228,-3.77577 -0.29313,-5.50492 0.6875,-0.6875 1.25116,-1.79 1.25259,-2.45 0.001,-0.66 0.74836,-1.20605 1.65987,-1.21345 2.57896,-0.0209 5.72638,-3.42661 6.82635,-7.38646 1.46513,-5.27443 1.14769,-7.22913 -0.44746,-2.75528 -1.65842,4.6513 -5.22768,8.65519 -7.71566,8.65519 -1.00413,0 -1.82569,0.60209 -1.82569,1.33797 0,0.83738 -1.3095,1.3872 -3.5,1.46955 -1.925,0.0724 -3.5,-0.30472 -3.5,-0.83797 0,-0.53325 0.3748,-0.96955 0.83288,-0.96955 1.50196,0 0.5616,-4.19973 -1.15552,-5.16068 -0.92255,-0.51629 -1.67736,-1.98624 -1.67736,-3.26657 0,-2.78531 -2.38242,-5.02371 -4.48727,-4.21601 -1.70916,0.65587 -2.0812,3.64326 -0.45371,3.64326 0.58246,0 0.7809,-0.45 0.44098,-1 -0.90474,-1.4639 1.07042,-1.22254 2.32035,0.28354 0.58589,0.70594 0.70895,1.86004 0.27348,2.56464 -0.43548,0.70461 -0.58334,2.37142 -0.3286,3.70403 0.31287,1.63667 -0.0746,2.62929 -1.19416,3.05889 -2.19593,0.84266 -3.41728,-0.46427 -1.54211,-1.65016 1.28812,-0.81463 1.28451,-0.94598 -0.029,-1.05632 -0.825,-0.0693 -2.5125,-0.044 -3.75,0.0563 -2.14007,0.17336 -3.1935,-1.42214 -1.40471,-2.12754 0.46491,-0.18333 1.14849,-1.57083 1.51905,-3.08333 0.49321,-2.01306 0.29793,-2.75 -0.72871,-2.75 -1.58314,0 -2.84515,-4.75247 -1.48521,-5.59297 0.48521,-0.29987 0.58033,-1.03366 0.21138,-1.63064 -0.40371,-0.65322 -0.20462,-0.79728 0.5,-0.3618 0.64395,0.39798 0.97796,1.03566 0.74225,1.41706 -0.23572,0.38139 0.12657,1.73075 0.80508,2.99856 1.09935,2.05415 1.37532,2.13444 2.53471,0.73746 0.71558,-0.86222 2.34062,-1.56767 3.61122,-1.56767 1.43191,0 2.55149,-0.76034 2.94494,-2 0.90535,-2.85251 3.46788,-2.6195 2.74939,0.25 -0.54381,2.17187 -0.49442,2.18923 1.42236,0.5 1.09215,-0.9625 2.5128,-1.75 3.15699,-1.75 1.65934,0 1.45135,-1.0747 -0.48152,-2.48805 -2.34973,-1.71817 -1.027,-3.14763 3.59677,-3.887 2.9852,-0.47736 3.84417,-1.01342 3.41518,-2.13136 -0.31523,-0.82147 -0.975,-1.49359 -1.46616,-1.49359 -0.49115,0 -0.89301,-0.9 -0.89301,-2 0,-1.1 0.45,-2 1,-2 0.55,0 1,-0.9 1,-2 0,-1.1 0.66088,-2 1.46862,-2 0.9666,0 1.25812,0.5982 0.85282,1.75 -0.43455,1.23493 -0.29193,1.45473 0.4846,0.74678 0.6987,-0.63699 0.88291,-3.11045 0.50462,-6.77569 l -0.59577,-5.77248 -2.54887,5.77569 c -1.48275,3.3599 -2.57125,7.72384 -2.60238,10.43334 -0.0294,2.5617 -0.3933,4.44764 -0.80858,4.19098 -0.41528,-0.25666 -0.75506,-1.31354 -0.75506,-2.34862 0,-1.03508 -0.40775,-2.13397 -0.90612,-2.44198 -0.49837,-0.30801 -0.65248,-1.52993 -0.34248,-2.71539 0.38615,-1.47663 0.19913,-1.93009 -0.59388,-1.43998 -0.69453,0.42924 -1.15752,0.0682 -1.15752,-0.90265 0,-0.88992 -0.45,-1.33992 -1,-1 -0.55,0.33992 -1,0.0864 -1,-0.56343 0,-0.88492 -0.37329,-0.87165 -1.48727,0.0529 -0.81799,0.67888 -2.24231,0.94458 -3.16515,0.59045 -1.44247,-0.55352 -1.25063,-1.09539 1.36727,-3.86187 3.59596,-3.80008 6.68357,-9.10124 4.02291,-6.90702 -1.42252,1.17315 -1.66586,0.43753 -2.31431,-6.99608 -0.83702,-9.59542 -2.24064,-8.25693 -2.35316,2.24396 -0.0391,3.64582 -0.63985,7.3378 -1.35269,8.31266 -1.10594,1.51246 -1.24466,1.16036 -1.00808,-2.55887 0.23096,-3.63092 -0.012,-3.19058 -1.53688,2.78552 -2.12004,8.30854 -5.03216,13.75109 -7.62491,14.2504 -1.69087,0.32563 -1.7879,-0.17228 -1.16859,-5.99673 0.97636,-9.18244 1.7097,-23.52243 1.14307,-22.35185 -0.26624,0.55 -1.55532,5.99051 -2.86463,12.09003 l -2.38056,11.09003 2.36149,6.28171 c 2.19058,5.82708 3.35243,11.31896 1.33033,6.28823 -0.49742,-1.2375 -1.36889,-2.25 -1.93662,-2.25 -0.56772,0 -1.03222,-1.09844 -1.03222,-2.44098 0,-4.71789 -1.71059,-3.42903 -2.95376,2.22553 -1.65319,7.5196 -4.728556,14.63151 -7.305434,16.89415 -2.073926,1.82102 -2.074004,1.82083 -0.498567,-1.1787 6.310401,-12.01459 10.246761,-29.5 6.641131,-29.5 -0.48585,0 -0.88337,0.70156 -0.88337,1.55902 0,0.92379 -0.4704,1.26829 -1.15451,0.84549 -0.735384,-0.45449 -0.882204,-0.27293 -0.404434,0.50013 1.000154,1.61826 -6.849753,17.65448 -9.056592,18.50132 -2.902412,1.11376 -3.376627,-0.68068 -1.828873,-6.9205 0.816566,-3.292 1.717249,-7.11046 2.001519,-8.48546 0.507214,-2.45338 4.010128,-15.80784 5.049331,-19.25 0.290582,-0.9625 0.15363,-1.75 -0.304337,-1.75 -0.457968,0 -1.662616,2.33677 -2.676995,5.19282 -2.781703,7.83206 -11.562853,26.20277 -12.213735,25.55189 -0.314151,-0.31415 0.157225,-1.68287 1.047501,-3.04161 0.890275,-1.35873 1.505628,-2.86027 1.36745,-3.33676 -0.138177,-0.47649 0.26683,-1.7978 0.900018,-2.93624 0.633187,-1.13845 2.492007,-5.41345 4.130709,-9.5 1.638703,-4.08656 3.705564,-9.2301 4.593026,-11.4301 2.928039,-7.25855 -0.959555,-1.46817 -8.4575,12.59703 -1.796806,3.37058 -4.827346,5.82727 -7.242581,5.87117 -2.122191,0.0386 -2.116457,0.219 -0.180623,-5.68325 2.248256,-6.85482 8.165032,-19.6996 13.950351,-30.28495 l 3.552512,-6.5 -4.049642,4.5 c -2.227303,2.475 -6.565169,7.79089 -9.639702,11.81308 -3.074533,4.0222 -5.799628,7.10352 -6.055766,6.84738 -0.731117,-0.73111 1.809454,-4.74356 6.17287,-9.74912 10.55523,-12.10858 12.912868,-15.22797 10.132344,-13.4061 -1.492457,0.9779 -3.142821,2.58008 -3.667475,3.5604 -0.524654,0.98033 -2.375518,2.4916 -4.113031,3.35838 -3.239237,1.61595 -8.851838,2.15221 -8.851838,0.84576 0,-0.40162 3.9375,-4.71861 8.75,-9.59332 l 8.75,-8.8631 -7.225036,3.59332 c -3.97377,1.97633 -7.561397,3.59332 -7.972506,3.59332 -1.35988,0 4.017111,-3.45665 9.651767,-6.20474 3.089989,-1.50702 4.438722,-2.53253 3.045775,-2.31587 -1.375,0.21387 -3.871193,0.61399 -5.547095,0.88915 -2.796247,0.45911 -6.531397,-0.69587 -5.423945,-1.67718 0.259072,-0.22957 3.84604,-2.26861 7.97104,-4.5312 l 7.5,-4.11381 -5.5,0.44916 -5.5,0.44917 5.343474,-1.22234 5.343474,-1.22234 -3.343474,-1.34918 -3.343474,-1.34919 5,-1.38152 c 2.75,-0.75984 6.125,-1.4248 7.499999,-1.47767 2.008264,-0.0772 1.713214,-0.35314 -1.499999,-1.40272 -3.935315,-1.28545 -3.87789,-1.30194 3.551033,-1.0197 7.43556,0.28248 14.94897,2.46144 14.94897,4.33533 0,0.52658 0.92339,0.71594 2.05198,0.42081 l 2.05197,-0.53661 -2.05197,-2.18423 c -2.29624,-2.44423 -2.70828,-6.76575 -0.79639,-8.35248 0.69058,-0.57313 2.46794,-1.34633 3.94968,-1.71823 3.77217,-0.94675 8.41132,3.49477 6.79831,6.5087 -1.3635,2.54773 -3.20195,2.54996 -5.50358,0.007 -1.6277,-1.79859 -1.64331,-2 -0.15499,-2 0.91025,0 1.65499,0.675 1.65499,1.5 0,0.825 0.675,1.5 1.5,1.5 2.22846,0 1.81588,-3.76058 -0.55158,-5.02761 -2.69971,-1.44484 -5.98138,-0.89167 -7.31283,1.23267 -0.83551,1.33306 -0.58507,2.21981 1.14787,4.06445 2.83617,3.01895 2.8234,5.56093 -0.0335,6.66255 -2.06016,0.79442 -2.09607,0.92969 -0.42561,1.60331 1.32359,0.53375 1.66149,1.38475 1.23095,3.10016 -0.40482,1.61292 -0.16359,2.36447 0.75894,2.36447 2.09305,0 2.78239,-1.1786 1.5546,-2.65799 -0.87224,-1.05099 -0.65351,-1.34201 1.00868,-1.34201 2.71198,0 2.76642,2.58498 0.0847,4.02021 -2.94123,1.5741 -6.20297,0.31367 -5.43663,-2.10086 0.71261,-2.24524 -1.03735,-2.63409 -1.88723,-0.41935 -0.31658,0.825 -1.21365,1.5 -1.99349,1.5 -0.81967,0 -1.60896,1.30191 -1.87078,3.08581 -0.36888,2.51329 -0.0302,3.24654 1.8257,3.95213 1.25323,0.47648 2.82332,1.90036 3.4891,3.16419 1.58753,3.01355 2.82299,3.76404 6.22684,3.78256 3.58745,0.0195 6.68426,1.66445 6.68426,3.55049 0,2.0107 0.97417,1.83772 3.61331,-0.64163 1.23322,-1.15855 2.00158,-2.73355 1.70747,-3.5 -0.29412,-0.76646 -0.0891,-1.39355 0.45565,-1.39355 0.54473,0 1.20854,-1.14105 1.47514,-2.53566 0.4325,-2.26248 0.31039,-2.38429 -1.13342,-1.13057 -0.88998,0.7728 -2.81349,1.61838 -4.27447,1.87908 -2.27528,0.406 -2.73789,0.0661 -3.225,-2.36943 -0.58797,-2.93985 -3.61868,-4.06499 -3.61868,-1.34342 0,0.825 0.675,1.5 1.5,1.5 0.825,0 1.5,0.72314 1.5,1.60699 0,1.05452 -0.5438,1.39831 -1.58179,1 -0.86998,-0.33385 -1.99498,-0.60699 -2.5,-0.60699 -1.47252,0 -1.05761,-3.63942 0.5688,-4.98922 0.85866,-0.71263 2.55819,-0.96527 4.02196,-0.59789 1.77828,0.44632 2.70892,0.18288 3.11777,-0.88258 0.87449,-2.27887 2.5568,-0.68394 1.79854,1.70512 -0.54826,1.72741 -0.34952,1.93895 1.20932,1.28724 1.02597,-0.42892 2.9904,-1.00738 4.3654,-1.28546 5.07701,-1.02678 6.45135,-3.66772 2.75,-5.28444 -1.98495,-0.867 -1.86715,-0.94251 1,-0.64097 2.03804,0.21435 3.25,-0.10212 3.25,-0.84863 0,-1.36582 -4.8396,-6.46317 -6.13636,-6.46317 -0.475,0 -0.86364,-0.54 -0.86364,-1.2 0,-0.93333 0.26667,-0.93333 1.2,0 1.44444,1.44444 2.8,1.55992 2.8,0.23854 0,-0.5288 -1.70357,-1.42018 -3.78571,-1.98084 -2.41305,-0.64977 -3.859,-1.66087 -3.98783,-2.78854 -0.86667,-7.58606 -0.85417,-7.6287 2.52354,-8.61218 2.15884,-0.62859 3.25,-1.56922 3.25,-2.80164 0,-1.02044 0.45,-1.85534 1,-1.85534 0.55,0 1,0.8349 1,1.85534 0,1.23242 1.09116,2.17305 3.25,2.80164 2.57094,0.74857 3.22967,1.45786 3.1527,3.39466 -0.0535,1.3466 -0.43917,3.23586 -0.85699,4.19836 -0.59119,1.36186 -0.27928,1.75 1.40632,1.75 1.1913,0 1.88789,0.45 1.54797,1 -0.33992,0.55 -0.1556,1 0.4096,1 0.5652,0 0.76861,0.675 0.45203,1.5 -0.36765,0.95806 0.0177,1.5 1.06656,1.5 1.19643,0 1.42905,0.47501 0.85699,1.75 -0.43185,0.9625 -0.78518,4.225 -0.78518,7.25 0,4.93875 0.2291,5.53254 2.24506,5.8189 1.69322,0.24052 2.09707,-0.0667 1.64301,-1.25 -0.85145,-2.21884 0.43229,-1.94592 3.20371,0.6811 2.77492,2.63034 2.9131,3.38797 0.97198,5.3291 -1.73279,1.73279 -3.27938,-0.0119 -1.6988,-1.91639 0.80267,-0.96716 0.28365,-1.16171 -2.2958,-0.86058 -1.83799,0.21458 -3.65011,-0.1241 -4.04008,-0.75507 -0.52885,-0.8557 -1.06288,-0.84894 -2.11811,0.0268 -1.96595,1.6316 -1.83543,4.30298 0.17259,3.53243 1.01073,-0.38786 1.42397,-0.15526 1.14237,0.64301 -0.24265,0.68787 -1.14467,1.19411 -2.00448,1.12497 -1.03455,-0.0832 -1.36842,0.42414 -0.98714,1.5 1.33041,3.75394 4.26569,5.58494 4.26569,2.66089 0,-1.88604 3.09681,-3.53098 6.68426,-3.55049 3.40385,-0.0185 4.63931,-0.76901 6.22684,-3.78256 0.66578,-1.26383 2.23587,-2.68771 3.4891,-3.16419 1.85585,-0.70559 2.19458,-1.43884 1.8257,-3.95213 -0.26182,-1.7839 -1.05111,-3.08581 -1.87078,-3.08581 -0.77984,0 -1.67691,-0.675 -1.99349,-1.5 -0.84988,-2.21474 -2.59984,-1.82589 -1.88723,0.41935 0.76634,2.41453 -2.4954,3.67496 -5.43663,2.10086 -2.68175,-1.43523 -2.62731,-4.02021 0.0847,-4.02021 1.66219,0 1.88092,0.29102 1.00868,1.34201 -1.22779,1.47939 -0.53845,2.65799 1.5546,2.65799 0.92253,0 1.16376,-0.75155 0.75894,-2.36447 -0.43054,-1.71541 -0.0926,-2.56641 1.23095,-3.10016 1.67046,-0.67362 1.63455,-0.80889 -0.42561,-1.60331 -2.85686,-1.10162 -2.86963,-3.6436 -0.0335,-6.66255 1.73294,-1.84464 1.98338,-2.73139 1.14787,-4.06445 -1.33145,-2.12434 -4.61312,-2.67751 -7.31283,-1.23267 -2.36746,1.26703 -2.78004,5.02761 -0.55158,5.02761 0.825,0 1.5,-0.675 1.5,-1.5 0,-0.825 0.74474,-1.5 1.65499,-1.5 1.48832,0 1.47271,0.20141 -0.15499,2 -2.30163,2.54327 -4.14008,2.54104 -5.50358,-0.007 -1.61301,-3.01393 3.02614,-7.45545 6.79831,-6.5087 1.48174,0.3719 3.2591,1.1451 3.94968,1.71823 1.91189,1.58673 1.49985,5.90825 -0.79639,8.35248 l -2.05197,2.18423 2.05197,0.53661 c 1.12859,0.29513 2.05198,0.10577 2.05198,-0.42081 0,-1.87389 7.51341,-4.05285 14.94897,-4.33533 7.42892,-0.28224 7.48635,-0.26575 3.55103,1.0197 -3.21321,1.04958 -3.50826,1.32549 -1.5,1.40272 1.375,0.0529 4.75,0.71783 7.5,1.47767 l 5,1.38152 -3.34347,1.34919 -3.34348,1.34918 5.34348,1.22234 5.34347,1.22234 -5.5,-0.44917 -5.5,-0.44916 7.5,4.11381 c 4.125,2.26259 7.71197,4.30163 7.97104,4.5312 0.92255,0.81747 -2.48903,2.21866 -4.46273,1.8329 -1.10457,-0.21588 -3.58331,-0.61374 -5.50831,-0.88413 -3.17996,-0.44667 -2.9929,-0.24696 2.04578,2.18412 5.60145,2.70261 11.02944,6.17575 9.65176,6.17575 -0.41111,0 -3.99873,-1.61699 -7.9725,-3.59332 l -7.22504,-3.59332 8.75,8.8631 c 4.8125,4.87471 8.75,9.1917 8.75,9.59332 0,1.30645 -5.6126,0.77019 -8.85184,-0.84576 -1.73751,-0.86678 -3.58837,-2.37805 -4.11303,-3.35838 -0.52465,-0.98032 -2.17502,-2.5825 -3.66747,-3.5604 -2.78053,-1.82187 -0.42289,1.29752 10.13234,13.4061 4.36342,5.00556 6.90399,9.01801 6.17287,9.74912 -0.25614,0.25614 -2.98123,-2.82518 -6.05577,-6.84738 -3.07453,-4.02219 -7.4124,-9.33808 -9.6397,-11.81308 l -4.04964,-4.5 3.55251,6.5 c 1.95388,3.575 4.50584,8.525 5.67101,11 1.16517,2.475 2.70607,5.64919 3.42422,7.05375 1.33008,2.6014 4.72508,11.62333 5.90658,15.69625 1.35285,4.66362 -6.40219,1.38469 -8.43396,-3.56598 -1.26672,-3.08653 -10.99662,-19.96465 -11.02757,-19.12915 -0.0383,1.03343 11.04235,27.31599 12.00569,28.47674 0.52602,0.63383 0.67436,1.43446 0.32963,1.77919 -0.34473,0.34473 0.14513,1.80487 1.08857,3.24476 0.94345,1.43988 1.45833,2.875 1.14418,3.18915 -0.78217,0.78217 -9.56863,-18.18228 -13.65043,-29.46271 -1.83454,-5.0699 -3.5007,-9.05282 -3.70258,-8.85094 -0.20189,0.20189 1.22387,6.14999 3.16836,13.218 1.94449,7.06802 3.76501,13.97594 4.0456,15.35094 0.2806,1.375 1.17827,5.19346 1.99484,8.48546 2.41697,9.74412 -1.4855,10.03542 -6.37527,0.47588 -2.86807,-5.6071 -5.95819,-8.24161 -4.49195,-3.82965 0.82614,2.48588 0.86317,4.09457 0.16831,7.31268 -0.30028,1.3907 -1.39166,2.0213 -3.83266,2.21451 -1.87706,0.14857 -2.85034,0.0236 -2.16284,-0.27771 0.6875,-0.30131 1.25,-1.18534 1.25,-1.9645 0,-0.77917 0.525,-1.41667 1.16667,-1.41667 0.64166,0 0.92761,-0.23905 0.63544,-0.53122 -0.29217,-0.29218 -1.91312,0.26187 -3.60211,1.23122 -3.61791,2.07639 -3.9072,1.89713 -4.35731,-2.7 -0.30459,-3.11083 0.017,-3.66679 2.8922,-5 1.77918,-0.825 3.07563,-1.95 2.88098,-2.5 -0.19465,-0.55 -1.65035,-7.075 -3.23489,-14.5 -3.30794,-15.5007 -4.32551,-13.86143 -2.33021,3.75391 0.7011,6.18966 0.9959,11.53275 0.65511,11.87354 -2.37536,2.37537 -6.17489,-3.66982 -8.87941,-14.12745 -1.5125,-5.84843 -1.76657,-6.30512 -1.54445,-2.77606 0.16454,2.61421 -0.0898,3.86832 -0.66728,3.2908 -0.51323,-0.51323 -1.23857,-4.77857 -1.61186,-9.47853 -0.3733,-4.69996 -0.91719,-8.78386 -1.20866,-9.07533 -0.29147,-0.29147 -0.84595,3.09266 -1.23218,7.52029 -0.50574,5.79776 -1.03237,7.8468 -1.88213,7.3232 -1.99123,-1.22693 2.43198,5.06186 5.12315,7.28395 2.76734,2.28498 1.60528,4.22967 -1.53239,2.56443 -1.90137,-1.00911 -4.75112,0.9673 -3.46056,2.40002 0.37944,0.42124 -0.0627,0.49671 -0.98254,0.16771 -1.31295,-0.4696 -1.80714,0.19912 -2.29912,3.11113 -0.34468,2.04011 -1.04183,4.3751 -1.54923,5.18885 -0.61306,0.98321 -0.72547,0.2527 -0.33509,-2.17767 0.4378,-2.72563 -0.0789,-5.11263 -2.02834,-9.37085 -1.43869,-3.14249 -2.62947,-6.89675 -2.6462,-8.34278 -0.0509,-4.40198 -1.62527,-0.32024 -2.33768,6.06079 -0.43397,3.88699 -0.26402,5.91939 0.53635,6.41404 0.78856,0.48735 0.96284,0.18004 0.53306,-0.93995 -0.41694,-1.08654 -0.12887,-1.66404 0.83006,-1.66404 0.80774,0 1.46862,0.9 1.46862,2 0,1.1 0.45,2 1,2 1.52971,0 1.18944,2.95342 -0.53947,4.68233 -1.38596,1.38595 -1.37247,1.66158 0.13524,2.76404 0.92109,0.67352 2.68611,1.03124 3.92225,0.79494 2.88569,-0.55164 4.33188,1.66406 2.13476,3.27064 -1.93287,1.41335 -2.14086,2.48805 -0.48152,2.48805 0.64419,0 2.06484,0.7875 3.15699,1.75 1.91678,1.68923 1.96617,1.67187 1.42236,-0.5 -0.39654,-1.58372 -0.11918,-2.25 0.93663,-2.25 0.825,0 1.73535,0.9 2.02301,2 0.32563,1.24519 1.36402,2 2.75139,2 2.85004,0 5.34015,2.75895 6.15148,6.81562 0.35029,1.75141 1.03063,3.18438 1.51188,3.18438 0.48125,0 0.875,0.45 0.875,1 0,0.55 -1.6875,1.00689 -3.75,1.01531 -2.70407,0.011 -3.33971,0.27479 -2.27896,0.94563 1.87874,1.18815 0.65189,2.49208 -1.54983,1.6472 -1.2405,-0.47603 -1.51483,-1.39006 -1.07588,-3.58477 0.32404,-1.6202 0.13205,-3.22833 -0.42664,-3.57362 -0.66923,-0.41361 -0.61628,-1.10921 0.1552,-2.03878 1.32621,-1.59799 3.37413,-1.94489 2.42611,-0.41097 -0.33992,0.55 -0.14148,1 0.44098,1 1.62749,0 1.25545,-2.98739 -0.45371,-3.64326 -2.10914,-0.80935 -4.48727,1.43271 -4.48727,4.23052 0,1.34333 -0.88055,2.81363 -2.06457,3.4473 -1.57663,0.84379 -1.80311,1.41996 -0.95826,2.43793 0.82062,0.98878 0.77273,1.46686 -0.18543,1.85132 -0.98849,0.39662 -0.99829,0.53683 -0.0417,0.59724 0.6875,0.0434 1.25,0.51525 1.25,1.0485 0,0.53325 -1.575,0.91034 -3.5,0.83797 -2.1905,-0.0823 -3.5,-0.63217 -3.5,-1.46955 0,-0.73588 -0.82156,-1.33797 -1.82569,-1.33797 -2.48798,0 -6.05724,-4.00389 -7.71566,-8.65519 -1.67248,-4.69074 -1.90591,-2.56968 -0.30519,2.77306 1.26461,4.22088 4.10094,7.34771 6.68408,7.36868 0.91151,0.007 1.65845,0.55345 1.65987,1.21345 0.001,0.66 0.56509,1.7625 1.25259,2.45 1.72915,1.72915 1.56608,4.79148 -0.29313,5.50492 -2.11034,0.80982 -3.2497,-0.54185 -1.42791,-1.69398 0.80907,-0.51167 0.96364,-0.93721 0.34348,-0.94563 -0.62015,-0.008 -1.69189,0.66468 -2.38164,1.49578 -1.11076,1.33838 -1.41982,1.30981 -2.70408,-0.25 -1.07676,-1.30778 -1.35072,-1.37499 -1.06431,-0.26109 0.21213,0.825 -0.65114,2.49642 -1.91836,3.71427 -1.26723,1.21784 -2.30405,1.7707 -2.30405,1.22856 z"
         style="fill:#000000" />
      <path
         id="path2194"
         d="m 135.5058,235.43833 c 1.5119,-1.74829 3.79992,-7.56912 3.79285,-9.64922 -0.002,-0.60543 -0.9263,0.41247 -2.05389,2.262 -1.12758,1.84953 -2.29057,3.12236 -2.58442,2.82851 -0.29385,-0.29386 0.70968,-2.65693 2.23007,-5.25128 l 2.76435,-4.717 -2.67619,1.75351 c -1.63194,1.06929 -2.67618,2.66108 -2.67618,4.07947 0,1.27929 -0.48921,2.62832 -1.08713,2.99786 -0.78285,0.48382 -0.78285,0.97617 0,1.75902 1.78103,1.78103 1.35462,4.72701 -0.57691,3.98581 -1.11889,-0.42936 -1.42717,-0.25527 -0.94099,0.53138 1.00278,1.62253 2.04032,1.4645 3.80844,-0.58006 z"
         style="fill:#ffffff;fill-opacity:1" />
      <path
         id="path2192"
         d="m 152.90742,236.01839 c 0.48618,-0.78665 0.1779,-0.96074 -0.94099,-0.53138 -1.19404,0.4582 -1.66404,0.0992 -1.66404,-1.27105 0,-1.05028 0.45734,-2.19225 1.01631,-2.53771 0.55897,-0.34546 0.72772,-1.09507 0.375,-1.66578 -0.4194,-0.6786 -0.91387,-0.59665 -1.429,0.23684 -0.55784,0.9026 -1.39568,0.2772 -2.87126,-2.14324 -2.31699,-3.80062 -2.67927,-2.96766 -0.94945,2.18304 1.88635,5.61675 4.88836,8.27779 6.46343,5.72928 z"
         style="fill:#ffffff;fill-opacity:1" />
      <path
         id="path2190"
         d="m 150.30239,226.30334 c 0,-1.03674 -1.15793,-2.6437 -2.57318,-3.57101 -2.55896,-1.67669 -2.56652,-1.67318 -1.36732,0.63499 1.35081,2.59999 2.99225,4.82101 3.56294,4.82101 0.20766,0 0.37756,-0.84825 0.37756,-1.88499 z"
         style="fill:#ffffff;fill-opacity:1" />
      <path
         id="path2188"
         d="m 131.89079,223.44339 c -1.07549,-1.07549 -1.64645,0.43075 -0.89148,2.35181 0.7082,1.80207 0.76169,1.80519 1.11193,0.0649 0.20237,-1.00555 0.10317,-2.09305 -0.22045,-2.41667 z"
         style="fill:#ffffff;fill-opacity:1" />
      <path
         id="path2186"
         d="m 154.28708,223.93833 c 0.008,-0.4125 -0.43469,-0.75 -0.98469,-0.75 -0.55,0 -0.99311,1.0125 -0.98469,2.25 0.0124,1.81944 0.20082,1.96296 0.98469,0.75 0.53316,-0.825 0.97627,-1.8375 0.98469,-2.25 z"
         style="fill:#ffffff;fill-opacity:1" />
      <path
         id="path2182"
         d="m 139.28708,216.50048 c 0.008,-0.65332 -0.88469,-1.12006 -1.98469,-1.0372 -1.99139,0.15001 -2.90443,1.72505 -1,1.72505 0.55,0 1.00689,0.7875 1.01531,1.75 0.0131,1.49555 0.15626,1.5319 0.98469,0.25 0.53316,-0.825 0.97627,-2.03453 0.98469,-2.68785 z"
         style="fill:#ffffff;fill-opacity:1" />
      <path
         id="path2180"
         d="m 148.37571,217.18833 c 1.85328,0 0.87109,-1.57858 -1.07332,-1.72505 -2.15107,-0.16203 -2.40892,0.52177 -1.27954,3.39326 0.6697,1.70275 0.74531,1.70851 1.07332,0.0818 0.19408,-0.9625 0.76987,-1.75 1.27954,-1.75 z"
         style="fill:#ffffff;fill-opacity:1" />
      <path
         id="path2178"
         d="m 182.66402,214.68833 c -0.31659,-0.825 -0.12561,-1.5 0.42439,-1.5 0.55,0 1.26799,-0.69837 1.59554,-1.55194 0.32754,-0.85356 0.21585,-1.31728 -0.24821,-1.03047 -0.46406,0.2868 -2.80321,-5.97052 -5.19812,-13.90516 -2.3949,-7.93465 -4.48795,-14.29305 -4.65122,-14.12978 -0.16327,0.16327 0.59418,4.30647 1.68323,9.20711 1.08904,4.90063 2.7121,12.39774 3.6068,16.66024 0.8947,4.2625 2.01743,7.75 2.49496,7.75 0.47753,0 0.60921,-0.675 0.29263,-1.5 z"
         style="fill:#ffffff;fill-opacity:1" />
      <path
         id="path2176"
         d="m 108.42806,191.2885 c 1.0494,-4.61991 1.76568,-8.54215 1.59174,-8.7161 -0.17394,-0.17394 -1.78892,4.61195 -3.58884,10.6353 -2.19798,7.35546 -3.01992,11.69514 -2.50315,13.21609 0.6624,1.94953 0.89621,1.63856 1.68084,-2.23546 0.50128,-2.475 1.77001,-8.27993 2.81941,-12.89983 z"
         style="fill:#ffffff;fill-opacity:1" />
      <path
         id="path2170"
         d="m 135.28708,188.82332 c -0.008,-1.17424 -0.45153,-2.80999 -0.98469,-3.63499 -0.72185,-1.11699 -0.97328,-0.55049 -0.98469,2.21862 -0.0119,2.89105 -0.34913,3.59051 -1.51531,3.14301 -1.04401,-0.40063 -1.5,0.0719 -1.5,1.55443 0,2.0422 0.1031,2.06249 2.5,0.49198 1.38845,-0.90974 2.49319,-2.58732 2.48469,-3.77305 z"
         style="fill:#ffffff;fill-opacity:1" />
      <path
         id="path2168"
         d="m 154.30239,191.58134 c 0,-1.01759 -0.55016,-1.39587 -1.5,-1.03138 -1.16618,0.4475 -1.50341,-0.25196 -1.51531,-3.14301 -0.0114,-2.76911 -0.26284,-3.33561 -0.98469,-2.21862 -1.49888,2.31935 -1.17826,5.1442 0.75,6.60795 2.34201,1.77784 3.25,1.71779 3.25,-0.21494 z"
         style="fill:#ffffff;fill-opacity:1" />
      <path
         id="path2156"
         d="m 142.11767,182.83171 c 0.46966,-1.80655 1.47563,-3.14979 2.36542,-3.15845 3.87828,-0.0377 6.17109,-4.73314 3.57766,-7.32657 -0.98886,-0.98886 -0.98656,-1.39929 0.0113,-2.01598 0.69058,-0.4268 -0.62585,-0.68322 -2.93314,-0.57132 -3.07855,0.1493 -4.25208,0.65295 -4.43565,1.90368 -0.13729,0.93537 -1.0459,2.58058 -2.01915,3.656 -1.58528,1.75171 -1.59492,1.88832 -0.0926,1.31183 1.47806,-0.56719 1.54876,-0.2758 0.59611,2.45696 -0.59446,1.70526 -1.48681,3.10047 -1.98301,3.10047 -0.49619,0 -0.90217,0.45 -0.90217,1 0,2.18112 2.18044,0.8188 3.6012,-2.25 l 1.50465,-3.25 -0.57557,3.5 c -0.31656,1.925 -1.01538,3.65 -1.55292,3.83333 -0.53755,0.18334 -0.97736,0.73171 -0.97736,1.21862 0,2.17146 3.07996,-0.58018 3.81528,-3.40857 z"
         style="fill:#fdd639;fill-opacity:1" />
      <path
         id="path2154"
         d="m 144.27745,176.65828 c -1.93795,-2.33509 0.43603,-4.48743 2.58227,-2.34119 1.3262,1.3262 1.34384,1.70837 0.12554,2.71947 -1.10642,0.91824 -1.70069,0.83522 -2.70781,-0.37828 z"
         style="fill:#fdd639;fill-opacity:1" />
      <path
         id="path2152"
         d="m 142.57322,171.58416 c 0.3323,-0.33229 1.19479,-0.36782 1.91667,-0.0789 0.79773,0.31923 0.56078,0.55619 -0.60417,0.60417 -1.05416,0.0434 -1.64479,-0.19293 -1.3125,-0.52522 z"
         style="fill:#fdd639;fill-opacity:1" />
      <path
         id="path2150"
         d="m 148.02327,184.67684 c 0.13412,-1.09368 -0.0107,-1.42601 -0.32185,-0.73851 -0.93783,2.07228 -2.6725,1.40375 -2.09434,-0.80715 0.42439,-1.62286 0.25793,-1.82475 -0.78847,-0.95631 -1.10664,0.91843 -1.24766,2.06916 -0.59273,4.83678 0.30229,1.27744 3.60332,-0.75218 3.79739,-2.33481 z"
         style="fill:#fdd639;fill-opacity:1" />
      <path
         id="path2146"
         d="m 131.301,173.93833 c -7.6e-4,-0.6875 -2.698,-2.04243 -5.99387,-3.01096 -6.77554,-1.99106 -14.36385,-8.33736 -15.53142,-12.98931 -0.96866,-3.85945 0.14486,-7.41662 2.51574,-8.03662 1.97924,-0.51758 2.87308,-2.71311 1.10456,-2.71311 -0.49851,0 -0.65261,-0.97043 -0.34244,-2.15651 0.51751,-1.97895 0.28745,-2.10122 -2.79391,-1.48495 -3.09877,0.61976 -4.90418,2.0414 -4.94196,3.89146 -0.008,0.4125 0.40046,0.75 0.90862,0.75 0.50816,0 0.84566,2.61966 0.75,5.82146 -0.14862,4.97422 0.2305,6.35263 2.60494,9.47113 3.94741,5.18438 9.11992,8.85254 14.54168,10.31242 6.07426,1.63557 7.17974,1.6579 7.17806,0.14499 z"
         style="fill:#fdd639;fill-opacity:1" />
      <path
         id="path2144"
         d="m 137.91835,173.74674 c 0.30425,-0.79287 0.40263,-2.21295 0.21861,-3.15572 -0.30845,-1.58035 -0.45165,-1.56992 -1.83457,0.13354 -0.86175,1.0615 -0.96813,1.52815 -0.25,1.09671 0.6875,-0.41304 1.25,-0.27442 1.25,0.30804 0,0.58246 -0.45,1.05902 -1,1.05902 -0.55,0 -1,0.45 -1,1 0,1.52643 1.98964,1.19057 2.61596,-0.44159 z"
         style="fill:#fdd639;fill-opacity:1" />
      <path
         id="path2142"
         d="m 160.80863,173.64349 c 6.83189,-1.98608 13.82355,-8.03857 15.85301,-13.72352 1.75893,-4.92712 2.68471,-13.04248 1.67436,-14.67726 -1.10723,-1.79154 -6.53361,-1.8367 -6.53361,-0.0544 0,0.825 -0.43255,1.8103 -0.96123,2.18956 -0.54101,0.38811 0.22404,1.78805 1.75,3.20226 3.08812,2.86197 3.29027,4.28659 1.28816,9.07829 -1.77971,4.25945 -8.21547,8.99853 -15.21767,11.20578 -2.94759,0.92914 -5.35926,2.28217 -5.35926,3.00673 0,1.68833 1.02276,1.65734 7.50624,-0.22746 z"
         style="fill:#fdd639;fill-opacity:1" />
      <path
         id="path2140"
         d="m 188.08588,238.43833 c -1.8889,-2.16547 -3.78349,-5.76301 -3.78349,-7.18426 0,-2.21888 1.9908,-0.94838 2.63914,1.68426 0.37248,1.5125 1.33281,3.7625 2.13406,5 1.73256,2.67587 1.1604,2.96493 -0.98971,0.5 z"
         style="fill:#000000;fill-opacity:1" />
      <path
         id="path2138"
         d="m 128.96906,149.52166 c -1.23835,-1.23834 -0.67751,-3.33333 0.89235,-3.33333 0.85746,0 1.2809,0.45 0.94098,1 -0.38805,0.62788 2.10182,1.04658 6.69098,1.12517 6.90871,0.11831 7.06256,0.16902 2.80902,0.92587 -5.72666,1.01898 -10.47829,1.13733 -11.33333,0.28229 z"
         style="fill:#aa0000;fill-opacity:1" />
    </g>
  </g>
</svg>
