<?xml version="1.0" encoding="UTF-8" standalone="no"?>
<svg
   width="450"
   height="300"
   version="1.1"
   id="svg6"
   sodipodi:docname="rhineland.svg"
   inkscape:version="1.2.2 (b0a8486541, 2022-12-01)"
   xmlns:inkscape="http://www.inkscape.org/namespaces/inkscape"
   xmlns:sodipodi="http://sodipodi.sourceforge.net/DTD/sodipodi-0.dtd"
   xmlns="http://www.w3.org/2000/svg"
   xmlns:svg="http://www.w3.org/2000/svg">
  <defs
     id="defs10" />
  <sodipodi:namedview
     id="namedview8"
     pagecolor="#ffffff"
     bordercolor="#666666"
     borderopacity="1.0"
     inkscape:showpageshadow="2"
     inkscape:pageopacity="0.0"
     inkscape:pagecheckerboard="0"
     inkscape:deskcolor="#d1d1d1"
     showgrid="false"
     inkscape:zoom="1.5733333"
     inkscape:cx="230.40254"
     inkscape:cy="153.49576"
     inkscape:window-width="893"
     inkscape:window-height="660"
     inkscape:window-x="543"
     inkscape:window-y="91"
     inkscape:window-maximized="0"
     inkscape:current-layer="svg6" />
  <rect
     fill="#ffffff"
     width="450"
     height="300"
     id="rect2" />
  <path
     style="fill:#006600;stroke:none;fill-opacity:1"
     d="M 0,3.8026125e-6 0,75.989643 c 0,17.140163 -2.5391065,28.976057 12.175567,40.313507 14.891883,11.47444 34.667105,12.66228 50.88786,3.34355 14.626668,-8.40286 23.361819,-20.412026 41.907653,-19.62133 22.79277,0.97287 34.34831,24.2127 56.87467,25.86747 26.319,1.93274 38.40736,-23.28582 62.86147,-25.73549 26.0925,-2.614745 38.3455,23.93474 62.86148,25.73549 25.71633,1.88875 37.40656,-21.76603 60.86587,-25.46752 33.36647,-5.26519 50.40891,37.3719 85.8109,22.22097 4.11992,-1.76276 8.56912,-3.99346 11.82594,-7.13003 C 452.35955,109.46208 450,93.134206 450,84.988416 L 450,3.8026125e-6 l -450,0 z"
     id="path4"
     sodipodi:nodetypes="ccsscccsccsccc" />
  <path
     style="fill:#006600;stroke:none;fill-opacity:1"
     d="m 0,183.5 0,116.5 450,0 0,-116.5 c -14.456,9.5139 -28.36,20.44777 -46,14.14813 -20.208,-7.21786 -30.798,-26.69627 -55,-23.24121 -22.825,3.25822 -34.593,26.67729 -59,25.63917 -25.795,-1.09707 -38.518,-28.70656 -66,-25.76507 -23.719,2.53784 -35.703,27.47661 -61,25.71411 -22.601,-1.57366 -34.212,-24.81687 -57,-25.84899 C 80.1894,172.97713 68.1635,197.50026 44,199.9142 24.878,201.82457 14.5156,193.09383 0,183.5 z"
     id="path8"
     sodipodi:nodetypes="cccccssccssc" />
</svg>
