<?xml version="1.0" encoding="UTF-8" standalone="no"?>
<!-- Created with Sodipodi ("http://www.sodipodi.com/") -->
<svg
   xmlns:dc="http://purl.org/dc/elements/1.1/"
   xmlns:cc="http://web.resource.org/cc/"
   xmlns:rdf="http://www.w3.org/1999/02/22-rdf-syntax-ns#"
   xmlns:svg="http://www.w3.org/2000/svg"
   xmlns="http://www.w3.org/2000/svg"
   xmlns:sodipodi="http://inkscape.sourceforge.net/DTD/sodipodi-0.dtd"
   xmlns:inkscape="http://www.inkscape.org/namespaces/inkscape"
   id="svg554"
   sodipodi:version="0.32"
   width="165mm"
   height="143mm"
   sodipodi:docbase="/Users/daniel/Desktop"
   sodipodi:docname="rome.svg"
   inkscape:version="0.42"
   inkscape:export-filename="/Users/daniel/Desktop/rome.png"
   inkscape:export-xdpi="16.860001"
   inkscape:export-ydpi="16.860001">
  <metadata
     id="metadata19195">
    <rdf:RDF>
      <cc:Work
         rdf:about="">
        <dc:format>image/svg+xml</dc:format>
        <dc:type
           rdf:resource="http://purl.org/dc/dcmitype/StillImage" />
      </cc:Work>
    </rdf:RDF>
  </metadata>
  <defs
     id="defs556" />
  <sodipodi:namedview
     id="base"
     inkscape:zoom="0.67868538"
     inkscape:cx="294.20641"
     inkscape:cy="253.34645"
     inkscape:window-width="721"
     inkscape:window-height="538"
     inkscape:window-x="3"
     inkscape:window-y="70"
     inkscape:current-layer="svg554" />
  <rect
     y="0.0000000"
     x="0.0000000"
     height="506.69290"
     width="584.64569"
     id="rect559"
     style="font-size:12.000000px;fill:#cc0000;fill-rule:evenodd;stroke-width:1.0000000" />
  <g
     id="g2264"
     transform="translate(0.000000,12.00000)">
    <path
       d="M 255.06724,253.05328 C 243.19776,263.96698 228.95470,284.43041 226.92021,288.52310 C 224.88512,292.61578 224.54623,296.02600 228.27673,299.09576 C 232.00684,302.16532 238.96666,309.35028 236.25889,313.77324 C 232.04038,310.06105 225.14781,306.92742 221.47308,305.19644 C 217.79834,303.46543 214.07158,329.67824 210.59145,329.53985 C 205.11606,329.32210 210.72804,313.38302 209.78554,307.20529 C 208.84302,301.02753 205.08004,304.84453 203.25876,305.63182 C 199.61620,307.20642 195.80580,309.49794 191.65164,312.39694 C 188.26022,307.62198 190.97308,301.48324 197.41645,298.75472 C 199.01887,298.19069 205.01085,297.04288 206.43304,296.62967 C 207.14413,296.42307 197.69126,285.12107 193.17735,285.70338 C 184.25107,286.85489 192.48272,282.14443 194.99350,281.67303 C 196.63205,281.36539 213.35522,292.44527 214.71165,290.56954 C 220.13776,283.06625 230.98959,254.07679 234.71990,249.98391 C 240.48490,246.91454 247.26735,240.43457 251.67602,238.72936 C 254.04980,242.82205 255.74560,253.05328 255.06724,252.71223 L 255.06724,253.05328 L 255.06724,253.05328 L 255.06724,253.05328 z "
       id="path2259"
       sodipodi:nodetypes="ccccsssscssssccccccc"
       style="font-size:12.000000px;fill:#ffd90c;fill-opacity:1.0000000;fill-rule:evenodd;stroke:#000000;stroke-width:2.0556350" />
    <g
       transform="translate(0.000000,18.00000)"
       style="stroke:none;stroke-width:2.0000000;stroke-miterlimit:4.0000000;stroke-dasharray:none;stroke-opacity:1.0000000"
       id="g2146">
      <text
         style="font-size:144.00000px;font-style:italic;font-weight:bold;line-height:100.00000%;writing-mode:lr-tb;text-anchor:start;fill:#ffd90c;stroke:none;stroke-width:2.0000000;stroke-miterlimit:4.0000000;stroke-dasharray:none;stroke-opacity:1.0000000;font-family:Nimbus Roman No9 L"
         x="114.81244"
         y="419.79321"
         id="text670"
         sodipodi:linespacing="100.00000%"
         xml:space="default"
         sodipodi:fill-cmyk="(0 0.15 0.95 0)">
        <tspan
           x="114.81244"
           y="419.79321"
           sodipodi:role="line"
           id="tspan654">S</tspan>
      </text>
      <text
         style="font-size:144.00000px;font-style:italic;font-weight:bold;line-height:100.00000%;writing-mode:lr-tb;text-anchor:start;fill:#ffd90c;stroke:none;stroke-width:2.0000000;stroke-miterlimit:4.0000000;stroke-dasharray:none;stroke-opacity:1.0000000;font-family:Nimbus Roman No9 L"
         x="199.01891"
         y="419.9729"
         id="text673"
         sodipodi:linespacing="100.00000%"
         xml:space="default"
         sodipodi:fill-cmyk="(0 0.15 0.95 0)">
        <tspan
           x="199.01891"
           y="419.97290"
           sodipodi:role="line"
           id="tspan652">P</tspan>
      </text>
      <text
         style="font-size:144.00000px;font-style:italic;font-weight:bold;line-height:100.00000%;writing-mode:lr-tb;text-anchor:start;fill:#ffd90c;stroke:none;stroke-width:2.0000000;stroke-miterlimit:4.0000000;stroke-dasharray:none;stroke-opacity:1.0000000;font-family:Nimbus Roman No9 L"
         x="280.22186"
         y="421.77759"
         id="text676"
         sodipodi:linespacing="100.00000%"
         xml:space="default"
         sodipodi:fill-cmyk="(0 0.15 0.95 0)">
        <tspan
           x="280.22186"
           y="421.77759"
           sodipodi:role="line"
           id="tspan650">Q</tspan>
      </text>
      <text
         style="font-size:144.00000px;font-style:italic;font-weight:bold;line-height:100.00000%;writing-mode:lr-tb;text-anchor:start;fill:#ffd90c;stroke:none;stroke-width:2.0000000;stroke-miterlimit:4.0000000;stroke-dasharray:none;stroke-opacity:1.0000000;font-family:Nimbus Roman No9 L"
         x="377.66537"
         y="419.97134"
         id="text679"
         sodipodi:linespacing="100.00000%"
         xml:space="default"
         sodipodi:fill-cmyk="(0 0.15 0.95 0)">
        <tspan
           x="377.66537"
           y="419.97134"
           sodipodi:role="line"
           id="tspan656">R</tspan>
      </text>
    </g>
    <path
       style="font-size:12.000000px;fill:#ffd90c;fill-opacity:1.0000000;fill-rule:evenodd;stroke:#000000;stroke-width:2.0556350"
       sodipodi:nodetypes="cccccscc"
       id="path619"
       d="M 321.62778,144.83015 C 318.32681,165.57835 326.02901,184.11342 335.10673,180.79367 C 336.75711,188.26306 343.63392,194.34913 349.13541,193.79587 C 348.31022,201.54194 357.93787,217.58717 365.91513,216.75748 C 370.04110,227.82330 376.91791,244.42173 387.37095,235.29233 C 390.39666,248.01773 396.99860,262.40332 407.17639,259.36038 C 411.85288,257.97723 403.87561,91.991454 404.70080,94.757879 L 321.62778,144.83016 L 321.62778,144.83015 z " />
    <path
       style="font-size:12.000000px;fill:#ffd90c;fill-opacity:1.0000000;fill-rule:evenodd;stroke:#000000;stroke-width:2.0556350"
       sodipodi:nodetypes="ccsccccccccccccscccccscsscccccccccccccccccccssscccscsscccccccccccccccccccccccccccccc"
       id="path1831"
       d="M 367.88777,248.98232 C 350.48332,243.84028 349.96060,236.67568 345.55938,227.82310 C 341.15815,218.97033 341.02698,206.40497 327.95446,200.15867 C 317.58717,195.20502 316.62924,188.37759 315.52898,181.73821 C 314.42853,175.09878 321.35252,145.93671 321.35252,145.93671 C 321.35252,145.93671 318.06329,146.26087 317.15157,144.83016 C 321.68631,144.18197 333.06714,149.20077 336.75711,143.72358 C 339.27988,146.85343 342.96985,147.17755 345.55938,144.83016 C 347.76009,148.74246 357.40732,148.28413 358.76306,143.72358 C 364.00926,146.59641 373.58934,141.25344 371.96655,137.08415 C 379.68030,139.17454 385.69296,132.79211 384.07018,127.12501 C 394.89598,126.93515 395.01794,118.33959 390.67192,113.84615 C 394.88423,113.26509 397.35218,108.70457 393.97270,104.99359 C 398.37412,101.67390 401.67490,108.31336 401.67490,113.84615 C 401.67490,119.37906 406.53189,218.25496 406.53189,228.21426 C 406.53189,238.17355 409.52276,255.58896 412.67807,262.19384 C 419.22519,275.89832 424.39230,277.87585 432.68358,277.22744 C 426.19245,266.01596 425.94832,254.31348 424.84806,245.46110 C 423.74761,236.60872 419.21031,117.84776 418.57972,117.86984 L 418.57189,117.84901 C 422.73564,118.97637 425.74119,117.84363 427.98517,116.18559 C 423.98371,115.89654 422.34390,111.78058 421.53965,110.48486 C 419.78394,106.95074 418.17956,97.247595 415.97884,91.714764 C 413.77794,86.181933 399.33186,61.357980 391.77199,56.304544 C 382.96992,51.644226 368.90247,46.015759 365.36481,52.984818 C 360.22492,61.821909 369.76623,79.542520 375.26752,80.649083 C 380.76921,81.755665 368.66597,76.222853 369.76623,82.862266 C 370.86649,89.501601 374.16727,97.247634 370.86649,101.67390 C 367.56552,106.10019 363.16449,108.31332 358.76306,108.31332 C 354.36183,108.31332 352.16132,108.31332 349.96060,111.63302 C 347.76009,114.95279 342.25860,117.16591 337.85718,113.84615 C 333.45614,110.52644 326.85440,109.41990 323.55323,109.41990 C 320.25246,109.41990 312.61701,110.72783 312.22801,109.55412 L 312.48369,95.694234 C 315.27467,97.623915 325.93562,95.351627 330.24307,90.322174 C 323.23764,89.859635 319.13477,79.354126 319.26888,75.057167 C 322.98196,75.672215 326.87613,73.302803 330.11523,70.959652 C 325.28154,70.810589 319.34680,64.549394 317.69249,57.199728 C 321.84959,57.456350 322.92949,54.854337 325.99612,52.638178 C 320.93317,52.958760 311.82256,46.011549 309.50497,39.700276 C 306.20400,36.380589 283.94236,35.670922 277.34042,35.670922 C 270.73848,35.670922 271.83894,37.492907 271.83894,40.812613 C 271.83894,44.132300 274.03965,41.919117 266.33745,46.345386 C 254.93959,49.402381 254.03394,61.697415 259.93030,66.135156 C 262.13102,63.922032 262.75613,61.834752 264.58702,59.629987 C 266.13972,57.974979 269.58536,58.751268 270.91409,60.585136 C 272.03745,61.939707 274.71821,63.955040 276.67048,64.003983 C 278.65838,63.854665 280.54703,62.586256 283.17003,64.508849 C 295.21805,70.047514 287.90486,85.852091 272.93919,85.075410 C 275.86839,91.732071 281.05820,93.880452 290.39728,90.493321 C 289.09106,94.277133 285.08550,100.61327 282.70271,102.65777 C 266.19101,111.99730 255.06744,131.90794 262.19171,159.60679 C 266.59313,167.35277 275.81435,190.63175 260.83616,197.94549 C 245.49832,204.46221 244.52023,213.50467 240.64152,223.13956 C 236.16433,233.24784 224.75375,249.93340 215.80662,248.68102 C 222.51956,260.08847 248.08804,242.80090 252.03370,235.56896 C 255.58996,243.59497 255.44509,255.59855 265.49287,258.02460 C 259.50097,243.32637 264.52731,236.44564 277.42343,226.04174 C 284.22565,235.02881 270.48084,276.49524 253.55585,280.68131 C 261.34752,284.52654 272.84679,278.52660 277.04793,277.55438 C 275.41360,281.27647 256.65146,292.89300 247.71548,293.02730 C 260.56403,303.72487 276.14012,287.79912 282.94195,280.83539 C 281.96366,288.34749 263.33053,306.26075 254.82761,307.89273 C 255.27183,321.26166 326.08226,323.93380 328.56117,309.01159 C 319.75891,306.60825 305.81558,294.58333 301.54728,282.04508 C 312.68671,293.28044 321.94200,301.48344 336.84737,293.79259 C 322.00837,290.01452 313.58650,282.92353 310.34974,278.72532 C 317.75730,280.90430 321.30338,282.11204 330.10603,281.00532 C 317.90139,274.81274 302.04475,240.25308 305.10452,225.01118 C 320.37247,235.34851 322.11369,243.98221 317.80291,257.95823 C 330.78733,258.29184 329.82157,238.63167 332.35588,232.24939 C 340.33628,246.99344 354.72793,259.01973 367.88777,248.98232 L 367.88777,248.98232 L 367.88777,248.98232 L 367.88777,248.98232 L 367.88777,248.98232 L 367.88777,248.98232 L 367.88777,248.98232 L 367.88777,248.98232 L 367.88777,248.98232 L 367.88777,248.98232 L 367.88777,248.98232 L 367.88777,248.98232 L 367.88777,248.98232 L 367.88777,248.98232 z " />
    <path
       style="font-size:12.000000px;fill:#ffd90c;fill-opacity:1.0000000;fill-rule:evenodd;stroke:#000000;stroke-width:2.0556350"
       sodipodi:nodetypes="cccscc"
       id="path1832"
       d="M 287.29365,69.273907 C 278.73513,68.491412 270.17680,69.665126 265.50854,72.012505 C 260.84027,74.359873 250.92052,75.337967 244.30722,72.990580 C 248.58629,80.423960 257.14461,82.380208 266.87015,78.076593 C 272.21248,75.605181 279.90234,72.794961 283.20879,73.577398 C 291.96172,75.337967 288.65527,69.665126 287.29365,69.273907 L 287.29365,69.273907 z " />
    <path
       style="font-size:12.000000px;fill:#ffd90c;fill-opacity:1.0000000;fill-rule:evenodd;stroke:#000000;stroke-width:2.0556350"
       sodipodi:nodetypes="cccccccc"
       id="path611"
       d="M 259.73570,146.21338 C 264.41200,160.04548 261.93642,179.96378 249.00760,181.34696 C 246.53202,187.43311 241.03033,191.58274 234.42859,193.51924 C 231.67775,205.96815 224.52587,218.14043 218.19939,214.54404 C 215.17348,227.27003 202.79499,246.35775 197.01843,233.90917 C 194.26759,251.33769 179.13826,263.50984 173.08664,256.31724 C 168.13548,250.50780 179.13826,106.93012 179.13826,106.93012 L 259.73570,146.21338 L 259.73570,146.21338 z " />
    <path
       style="font-size:12.000000px;fill:#ffd90c;fill-opacity:1.0000000;fill-rule:evenodd;stroke:#000000;stroke-width:2.0556350"
       sodipodi:nodetypes="ccccsscscccccccccccscc"
       id="path610"
       d="M 273.08838,109.34176 C 262.97383,107.77687 252.12062,109.89504 248.23056,113.02493 C 244.34051,116.15473 234.77589,117.39560 232.44225,114.26573 C 230.10802,111.13589 226.99577,109.57092 223.10572,108.78848 C 208.21268,104.68632 209.91867,80.151911 216.10322,77.489990 C 226.12575,73.624540 229.34469,53.906803 215.27802,53.834366 C 200.49267,53.481598 189.83093,54.845938 183.60683,61.105664 C 177.38235,67.365410 170.49653,77.847007 168.64332,90.009364 C 167.01486,100.69712 161.39023,114.30506 153.90793,120.39120 C 158.21553,121.99714 161.57543,120.96979 162.96936,120.71530 C 160.08499,127.51200 162.93842,253.38590 151.52673,273.10597 C 149.19238,280.93073 165.53147,279.36531 170.97736,266.84605 C 176.42383,254.32680 183.42574,115.83061 184.20414,108.78848 C 184.98216,101.74632 187.40233,110.86736 191.20664,113.67314 C 189.23342,122.28838 192.75444,127.53641 198.20836,128.68233 C 197.88631,136.19102 205.94169,137.51860 209.87912,136.17470 C 209.41513,141.19360 215.05014,143.22504 220.77168,141.65195 C 223.74179,147.54823 232.77233,148.55984 235.09873,145.05844 C 239.07493,149.85627 244.02648,146.21252 245.66845,143.21686 C 249.78639,147.41397 260.17130,150.71862 259.76761,144.03866 C 258.43712,134.33599 266.16438,113.76799 273.08838,109.34176 L 273.08838,109.34176 L 273.08838,109.34176 z " />
    <path
       style="font-size:12.000000px;fill:#ffd90c;fill-opacity:1.0000000;fill-rule:evenodd;stroke:#000000;stroke-width:2.0556350"
       sodipodi:nodetypes="cc"
       id="path612"
       d="M 200.31921,135.14766 C 200.59427,151.74619 200.04414,229.20625 196.46831,235.84559" />
    <path
       style="font-size:12.000000px;fill:#ffd90c;fill-opacity:1.0000000;fill-rule:evenodd;stroke:#000000;stroke-width:2.0556350"
       sodipodi:nodetypes="cc"
       id="path616"
       d="M 218.19939,214.54404 C 220.39990,201.54194 218.74951,141.51046 218.74951,141.51046" />
    <path
       style="font-size:12.000000px;fill:#ffd90c;fill-opacity:1.0000000;fill-rule:evenodd;stroke:#000000;stroke-width:2.0556350"
       sodipodi:nodetypes="cc"
       id="path617"
       d="M 234.70385,193.79585 C 235.80411,182.73017 235.52904,145.38345 235.52904,145.38345" />
    <path
       style="font-size:12.000000px;fill:#ffd90c;fill-opacity:1.0000000;fill-rule:evenodd;stroke:#000000;stroke-width:2.0556350"
       sodipodi:nodetypes="cc"
       id="path618"
       d="M 249.28286,181.07032 C 250.10786,170.83455 248.45766,145.66008 248.45766,145.66008" />
    <path
       style="font-size:12.000000px;fill:#ffd90c;fill-opacity:1.0000000;fill-rule:evenodd;stroke:#000000;stroke-width:2.0556350"
       sodipodi:nodetypes="cc"
       id="path620"
       d="M 334.83127,180.79369 C 331.53049,172.21777 334.83127,145.10682 334.83127,145.10682" />
    <path
       style="font-size:12.000000px;fill:#ffd90c;fill-opacity:1.0000000;fill-rule:evenodd;stroke:#000000;stroke-width:2.0556350"
       sodipodi:nodetypes="cc"
       id="path621"
       d="M 349.13521,193.79587 C 345.28451,185.21998 348.03515,146.76666 348.03515,146.76666" />
    <path
       style="font-size:12.000000px;fill:#ffd90c;fill-opacity:1.0000000;fill-rule:evenodd;stroke:#000000;stroke-width:2.0556350"
       sodipodi:nodetypes="cc"
       id="path622"
       d="M 365.91513,216.75748 C 362.06384,203.47830 365.91513,143.72358 365.91513,143.72358" />
    <path
       style="font-size:12.000000px;fill:#ffd90c;fill-opacity:1.0000000;fill-rule:evenodd;stroke:#000000;stroke-width:2.0556350"
       sodipodi:nodetypes="cc"
       id="path623"
       d="M 387.37095,234.46224 C 382.96992,220.90674 383.32506,132.12541 383.32506,132.12541" />
    <path
       style="font-size:12.000000px;fill:#ffd90c;fill-opacity:1.0000000;fill-rule:evenodd;stroke:#000000;stroke-width:2.0556350"
       sodipodi:nodetypes="cc"
       id="path849"
       d="M 189.61675,190.98169 C 190.97308,171.88268 190.69998,132.38677 189.57897,127.12887" />
    <path
       style="font-size:12.000000px;fill:#ffd90c;fill-opacity:1.0000000;fill-rule:evenodd;stroke:#000000;stroke-width:2.0556350"
       sodipodi:nodetypes="cc"
       id="path850"
       d="M 392.84993,123.10261 C 392.51065,139.81420 390.71617,180.40898 395.12464,193.36904" />
    <path
       style="font-size:12.000000px;fill:#ffd90c;fill-opacity:1.0000000;fill-rule:evenodd;stroke:#000000;stroke-width:2.0556350"
       sodipodi:nodetypes="ccccsssscssssccccccc"
       id="path852"
       d="M 255.06724,253.05328 C 243.19776,263.96698 228.95470,284.43041 226.92021,288.52310 C 224.88512,292.61578 224.54623,296.02600 228.27673,299.09576 C 232.00684,302.16532 238.96666,309.35028 236.25889,313.77324 C 232.04038,310.06105 225.14781,306.92742 221.47308,305.19644 C 217.79834,303.46543 214.07158,329.67824 210.59145,329.53985 C 205.11606,329.32210 210.72804,313.38302 209.78554,307.20529 C 208.84302,301.02753 205.08004,304.84453 203.25876,305.63182 C 199.61620,307.20642 195.80580,309.49794 191.65164,312.39694 C 188.26022,307.62198 190.97308,301.48324 197.41645,298.75472 C 199.01887,298.19069 205.01085,297.04288 206.43304,296.62967 C 207.14413,296.42307 197.69126,285.12107 193.17735,285.70338 C 184.25107,286.85489 192.48272,282.14443 194.99350,281.67303 C 196.63205,281.36539 213.35522,292.44527 214.71165,290.56954 C 220.13776,283.06625 230.98959,254.07679 234.71990,249.98391 C 240.48490,246.91454 247.26735,240.43457 251.67602,238.72936 C 254.04980,242.82205 255.74560,253.05328 255.06724,252.71223 L 255.06724,253.05328 L 255.06724,253.05328 L 255.06724,253.05328 z " />
    <path
       style="fill:#000000;fill-opacity:1.0000000;fill-rule:evenodd;stroke:none;stroke-width:1.0000000pt;stroke-linecap:butt;stroke-linejoin:miter;stroke-opacity:1.0000000"
       sodipodi:nodetypes="ccc"
       id="path861"
       d="M 272.36244,44.328683 C 275.41478,53.878161 285.24917,50.126574 286.26661,45.010765 C 287.28386,42.282339 277.78855,44.328683 272.36244,44.328683 L 272.36244,44.328683 z " />
    <path
       style="font-size:12.000000px;fill:#ffd90c;fill-opacity:1.0000000;fill-rule:evenodd;stroke:#000000;stroke-width:2.0556350"
       id="path862"
       d="M 311.66300,108.59831 C 308.07032,110.40490 300.76809,116.54370 302.65557,115.07307" />
    <path
       style="font-size:12.000000px;fill:#ffd90c;fill-opacity:1.0000000;fill-rule:evenodd;stroke:#000000;stroke-width:2.0556350"
       id="path863"
       d="M 373.15726,136.94364 C 373.15726,143.03208 373.79940,136.47030 371.75355,146.60101" />
    <path
       style="font-size:12.000000px;fill:#ffd90c;fill-opacity:1.0000000;fill-rule:evenodd;stroke:#000000;stroke-width:2.0556350"
       id="path864"
       d="M 356.50264,145.96261 C 353.87611,151.24541 355.14004,147.01921 355.21169,156.52613 C 355.20915,156.18814 355.21953,157.20196 355.22109,157.53991" />
    <path
       style="font-size:12.000000px;fill:#ffd90c;fill-opacity:1.0000000;fill-rule:evenodd;stroke:#000000;stroke-width:2.0556350"
       sodipodi:nodetypes="cc"
       id="path865"
       d="M 340.00797,145.88207 C 339.92789,149.83797 339.84782,160.65885 340.24818,161.93720" />
    <path
       style="font-size:12.000000px;fill:#ffd90c;fill-opacity:1.0000000;fill-rule:evenodd;stroke:#000000;stroke-width:2.0556350"
       sodipodi:nodetypes="cc"
       id="path866"
       d="M 326.87632,145.96261 C 326.87632,148.08938 326.55623,157.38305 326.55623,158.30199" />
    <path
       style="font-size:12.000000px;fill:#ffd90c;fill-opacity:1.0000000;fill-rule:evenodd;stroke:#000000;stroke-width:2.0556350"
       sodipodi:nodetypes="cc"
       id="path867"
       d="M 209.17276,135.65519 C 211.73488,144.39975 210.29338,170.83105 209.07233,177.03944" />
    <path
       style="font-size:12.000000px;fill:#ffd90c;fill-opacity:1.0000000;fill-rule:evenodd;stroke:#000000;stroke-width:2.0556350"
       sodipodi:nodetypes="cc"
       id="path868"
       d="M 227.10835,145.96261 C 228.83293,151.16491 227.41787,157.41685 227.26908,162.87769" />
    <path
       style="font-size:12.000000px;fill:#ffd90c;fill-opacity:1.0000000;fill-rule:evenodd;stroke:#000000;stroke-width:2.0556350"
       sodipodi:nodetypes="cc"
       id="path869"
       d="M 241.20105,147.08996 C 242.32206,150.63432 241.36100,156.11136 241.36100,161.10518" />
    <path
       style="font-size:12.000000px;fill:#ffd90c;fill-opacity:1.0000000;fill-rule:evenodd;stroke:#000000;stroke-width:2.0556350"
       id="path870"
       d="M 254.01221,147.25101 C 254.01221,150.78646 254.01221,154.32185 254.01221,157.85726" />
    <path
       d="M 328.14510,252.31656 C 340.01458,263.23026 354.25764,283.69369 356.29213,287.78638 C 358.32722,291.87906 358.66611,295.28928 354.93561,298.35904 C 351.20550,301.42860 344.24568,308.61356 346.95345,313.03652 C 351.17196,309.32433 358.06453,306.19070 361.73926,304.45972 C 365.41400,302.72871 369.14076,328.94152 372.62089,328.80313 C 378.09628,328.58538 372.48430,312.64630 373.42680,306.46857 C 374.36932,300.29081 378.13230,304.10781 379.95358,304.89510 C 383.59614,306.46970 387.40654,308.76122 391.56070,311.66022 C 394.95212,306.88526 392.23926,300.74652 385.79589,298.01800 C 384.19347,297.45397 378.20149,296.30616 376.77930,295.89295 C 376.06821,295.68635 385.52108,284.38435 390.03499,284.96666 C 398.96127,286.11817 390.72962,281.40771 388.21884,280.93631 C 386.58029,280.62867 369.85712,291.70855 368.50069,289.83282 C 363.07458,282.32953 353.32783,254.81351 349.59752,250.72063 C 343.83252,247.65126 336.68171,235.27754 332.27304,233.57233 C 329.89926,237.66502 327.46674,252.31656 328.14510,251.97551 L 328.14510,252.31656 L 328.14510,252.31656 L 328.14510,252.31656 z "
       id="path2261"
       sodipodi:nodetypes="ccccsssscssssccccccc"
       style="font-size:12.000000px;fill:#ffd90c;fill-opacity:1.0000000;fill-rule:evenodd;stroke:#000000;stroke-width:2.0556350" />
  </g>
</svg>
