<?xml version="1.0" encoding="UTF-8" standalone="no"?>
<!-- Created with Sodipodi ("http://www.sodipodi.com/") -->
<svg
   xmlns:dc="http://purl.org/dc/elements/1.1/"
   xmlns:cc="http://web.resource.org/cc/"
   xmlns:rdf="http://www.w3.org/1999/02/22-rdf-syntax-ns#"
   xmlns:svg="http://www.w3.org/2000/svg"
   xmlns="http://www.w3.org/2000/svg"
   xmlns:sodipodi="http://inkscape.sourceforge.net/DTD/sodipodi-0.dtd"
   xmlns:inkscape="http://www.inkscape.org/namespaces/inkscape"
   id="svg554"
   sodipodi:version="0.32"
   width="165mm"
   height="311.81000pt"
   sodipodi:docbase="/Users/daniel/Desktop"
   sodipodi:docname="rome.svg"
   inkscape:version="0.42"
   inkscape:export-filename="/Users/daniel/Desktop/rome.png"
   inkscape:export-xdpi="16.860001"
   inkscape:export-ydpi="16.860001">
  <metadata
     id="metadata19195">
    <rdf:RDF>
      <cc:Work
         rdf:about="">
        <dc:format>image/svg+xml</dc:format>
        <dc:type
           rdf:resource="http://purl.org/dc/dcmitype/StillImage" />
      </cc:Work>
    </rdf:RDF>
  </metadata>
  <defs
     id="defs556" />
  <sodipodi:namedview
     id="base"
     inkscape:zoom="0.67868538"
     inkscape:cx="294.20641"
     inkscape:cy="146.49598"
     inkscape:window-width="721"
     inkscape:window-height="538"
     inkscape:window-x="3"
     inkscape:window-y="70"
     inkscape:current-layer="svg554"
     showguides="true"
     inkscape:guide-bbox="true" />
  <rect
     y="0.0000000"
     x="0.0000000"
     height="389.76251"
     width="584.64569"
     id="rect559"
     style="font-size:12.000000px;fill:#cc0000;fill-rule:evenodd;stroke-width:1.0000000" />
  <text
     style="font-size:144.00000px;font-style:italic;font-weight:bold;line-height:100.00000%;writing-mode:lr-tb;text-anchor:start;fill:#ffd90c;stroke:none;stroke-width:2.0000000;stroke-miterlimit:4.0000000;stroke-dasharray:none;stroke-opacity:1.0000000;font-family:Nimbus Roman No9 L"
     x="39.667164"
     y="144.15898"
     id="text670"
     sodipodi:linespacing="100.00000%"
     xml:space="default"
     sodipodi:fill-cmyk="(0 0.15 0.95 0)">
    <tspan
       x="39.667164"
       y="144.15898"
       sodipodi:role="line"
       id="tspan654">S</tspan>
  </text>
  <text
     style="font-size:144.00000px;font-style:italic;font-weight:bold;line-height:100.00000%;writing-mode:lr-tb;text-anchor:start;fill:#ffd90c;stroke:none;stroke-width:2.0000000;stroke-miterlimit:4.0000000;stroke-dasharray:none;stroke-opacity:1.0000000;font-family:Nimbus Roman No9 L"
     x="458.34378"
     y="142.86523"
     id="text673"
     sodipodi:linespacing="100.00000%"
     xml:space="default"
     sodipodi:fill-cmyk="(0 0.15 0.95 0)">
    <tspan
       x="458.34378"
       y="142.86523"
       sodipodi:role="line"
       id="tspan652">P</tspan>
  </text>
  <text
     style="font-size:144.00000px;font-style:italic;font-weight:bold;line-height:100.00000%;writing-mode:lr-tb;text-anchor:start;fill:#ffd90c;stroke:none;stroke-width:2.0000000;stroke-miterlimit:4.0000000;stroke-dasharray:none;stroke-opacity:1.0000000;font-family:Nimbus Roman No9 L"
     x="28.157921"
     y="310.64642"
     id="text676"
     sodipodi:linespacing="100.00000%"
     xml:space="default"
     sodipodi:fill-cmyk="(0 0.15 0.95 0)">
    <tspan
       x="28.157921"
       y="310.64642"
       sodipodi:role="line"
       id="tspan650">Q</tspan>
  </text>
  <text
     style="font-size:144.00000px;font-style:italic;font-weight:bold;line-height:100.00000%;writing-mode:lr-tb;text-anchor:start;fill:#ffd90c;stroke:none;stroke-width:2.0000000;stroke-miterlimit:4.0000000;stroke-dasharray:none;stroke-opacity:1.0000000;font-family:Nimbus Roman No9 L"
     x="456.81064"
     y="309.57455"
     id="text679"
     sodipodi:linespacing="100.00000%"
     xml:space="default"
     sodipodi:fill-cmyk="(0 0.15 0.95 0)">
    <tspan
       x="456.81064"
       y="309.57455"
       sodipodi:role="line"
       id="tspan656">R</tspan>
  </text>
  <g
     id="g1386"
     transform="translate(0.340265,0.000000)">
    <path
       d="M 255.06724,265.05328 C 243.19776,275.96698 228.95470,296.43041 226.92021,300.52310 C 224.88512,304.61578 224.54623,308.02600 228.27673,311.09576 C 232.00684,314.16532 238.96666,321.35028 236.25889,325.77324 C 232.04038,322.06105 225.14781,318.92742 221.47308,317.19644 C 217.79834,315.46543 214.07158,341.67824 210.59145,341.53985 C 205.11606,341.32210 210.72804,325.38302 209.78554,319.20529 C 208.84302,313.02753 205.08004,316.84453 203.25876,317.63182 C 199.61620,319.20642 195.80580,321.49794 191.65164,324.39694 C 188.26022,319.62198 190.97308,313.48324 197.41645,310.75472 C 199.01887,310.19069 205.01085,309.04288 206.43304,308.62967 C 207.14413,308.42307 197.69126,297.12107 193.17735,297.70338 C 184.25107,298.85489 192.48272,294.14443 194.99350,293.67303 C 196.63205,293.36539 213.35522,304.44527 214.71165,302.56954 C 220.13776,295.06625 230.98959,266.07679 234.71990,261.98391 C 240.48490,258.91454 247.26735,252.43457 251.67602,250.72936 C 254.04980,254.82205 255.74560,265.05328 255.06724,264.71223 L 255.06724,265.05328 L 255.06724,265.05328 L 255.06724,265.05328 z "
       id="path2259"
       sodipodi:nodetypes="ccccsssscssssccccccc"
       style="font-size:12.000000px;fill:#ffd90c;fill-opacity:1.0000000;fill-rule:evenodd;stroke:#000000;stroke-width:2.0556350" />
    <path
       style="font-size:12.000000px;fill:#ffd90c;fill-opacity:1.0000000;fill-rule:evenodd;stroke:#000000;stroke-width:2.0556350"
       sodipodi:nodetypes="cccccscc"
       id="path619"
       d="M 321.62778,156.83015 C 318.32681,177.57835 326.02901,196.11342 335.10673,192.79367 C 336.75711,200.26306 343.63392,206.34913 349.13541,205.79587 C 348.31022,213.54194 357.93787,229.58717 365.91513,228.75748 C 370.04110,239.82330 376.91791,256.42173 387.37095,247.29233 C 390.39666,260.01773 396.99860,274.40332 407.17639,271.36038 C 411.85288,269.97723 403.87561,103.99145 404.70080,106.75788 L 321.62778,156.83016 L 321.62778,156.83015 z " />
    <path
       style="font-size:12.000000px;fill:#ffd90c;fill-opacity:1.0000000;fill-rule:evenodd;stroke:#000000;stroke-width:2.0556350"
       sodipodi:nodetypes="ccsccccccccccccscccccscsscccccccccccccccccccssscccscsscccccccccccccccccccccccccccccc"
       id="path1831"
       d="M 367.88777,260.98232 C 350.48332,255.84028 349.96060,248.67568 345.55938,239.82310 C 341.15815,230.97033 341.02698,218.40497 327.95446,212.15867 C 317.58717,207.20502 316.62924,200.37759 315.52898,193.73821 C 314.42853,187.09878 321.35252,157.93671 321.35252,157.93671 C 321.35252,157.93671 318.06329,158.26087 317.15157,156.83016 C 321.68631,156.18197 333.06714,161.20077 336.75711,155.72358 C 339.27988,158.85343 342.96985,159.17755 345.55938,156.83016 C 347.76009,160.74246 357.40732,160.28413 358.76306,155.72358 C 364.00926,158.59641 373.58934,153.25344 371.96655,149.08415 C 379.68030,151.17454 385.69296,144.79211 384.07018,139.12501 C 394.89598,138.93515 395.01794,130.33959 390.67192,125.84615 C 394.88423,125.26509 397.35218,120.70457 393.97270,116.99359 C 398.37412,113.67390 401.67490,120.31336 401.67490,125.84615 C 401.67490,131.37906 406.53189,230.25496 406.53189,240.21426 C 406.53189,250.17355 409.52276,267.58896 412.67807,274.19384 C 419.22519,287.89832 424.39230,289.87585 432.68358,289.22744 C 426.19245,278.01596 425.94832,266.31348 424.84806,257.46110 C 423.74761,248.60872 419.21031,129.84776 418.57972,129.86984 L 418.57189,129.84901 C 422.73564,130.97637 425.74119,129.84363 427.98517,128.18559 C 423.98371,127.89654 422.34390,123.78058 421.53965,122.48486 C 419.78394,118.95074 418.17956,109.24760 415.97884,103.71476 C 413.77794,98.181933 399.33186,73.357980 391.77199,68.304544 C 382.96992,63.644226 368.90247,58.015759 365.36481,64.984818 C 360.22492,73.821909 369.76623,91.542520 375.26752,92.649083 C 380.76921,93.755665 368.66597,88.222853 369.76623,94.862266 C 370.86649,101.50160 374.16727,109.24763 370.86649,113.67390 C 367.56552,118.10019 363.16449,120.31332 358.76306,120.31332 C 354.36183,120.31332 352.16132,120.31332 349.96060,123.63302 C 347.76009,126.95279 342.25860,129.16591 337.85718,125.84615 C 333.45614,122.52644 326.85440,121.41990 323.55323,121.41990 C 320.25246,121.41990 312.61701,122.72783 312.22801,121.55412 L 312.48369,107.69423 C 315.27467,109.62391 325.93562,107.35163 330.24307,102.32217 C 323.23764,101.85963 319.13477,91.354126 319.26888,87.057167 C 322.98196,87.672215 326.87613,85.302803 330.11523,82.959652 C 325.28154,82.810589 319.34680,76.549394 317.69249,69.199728 C 321.84959,69.456350 322.92949,66.854337 325.99612,64.638178 C 320.93317,64.958760 311.82256,58.011549 309.50497,51.700276 C 306.20400,48.380589 283.94236,47.670922 277.34042,47.670922 C 270.73848,47.670922 271.83894,49.492907 271.83894,52.812613 C 271.83894,56.132300 274.03965,53.919117 266.33745,58.345386 C 254.93959,61.402381 254.03394,73.697415 259.93030,78.135156 C 262.13102,75.922032 262.75613,73.834752 264.58702,71.629987 C 266.13972,69.974979 269.58536,70.751268 270.91409,72.585136 C 272.03745,73.939707 274.71821,75.955040 276.67048,76.003983 C 278.65838,75.854665 280.54703,74.586256 283.17003,76.508849 C 295.21805,82.047514 287.90486,97.852091 272.93919,97.075410 C 275.86839,103.73207 281.05820,105.88045 290.39728,102.49332 C 289.09106,106.27713 285.08550,112.61327 282.70271,114.65777 C 266.19101,123.99730 255.06744,143.90794 262.19171,171.60679 C 266.59313,179.35277 275.81435,202.63175 260.83616,209.94549 C 245.49832,216.46221 244.52023,225.50467 240.64152,235.13956 C 236.16433,245.24784 224.75375,261.93340 215.80662,260.68102 C 222.51956,272.08847 248.08804,254.80090 252.03370,247.56896 C 255.58996,255.59497 255.44509,267.59855 265.49287,270.02460 C 259.50097,255.32637 264.52731,248.44564 277.42343,238.04174 C 284.22565,247.02881 270.48084,288.49524 253.55585,292.68131 C 261.34752,296.52654 272.84679,290.52660 277.04793,289.55438 C 275.41360,293.27647 256.65146,304.89300 247.71548,305.02730 C 260.56403,315.72487 276.14012,299.79912 282.94195,292.83539 C 281.96366,300.34749 263.33053,318.26075 254.82761,319.89273 C 255.27183,333.26166 326.08226,335.93380 328.56117,321.01159 C 319.75891,318.60825 305.81558,306.58333 301.54728,294.04508 C 312.68671,305.28044 321.94200,313.48344 336.84737,305.79259 C 322.00837,302.01452 313.58650,294.92353 310.34974,290.72532 C 317.75730,292.90430 321.30338,294.11204 330.10603,293.00532 C 317.90139,286.81274 302.04475,252.25308 305.10452,237.01118 C 320.37247,247.34851 322.11369,255.98221 317.80291,269.95823 C 330.78733,270.29184 329.82157,250.63167 332.35588,244.24939 C 340.33628,258.99344 354.72793,271.01973 367.88777,260.98232 L 367.88777,260.98232 L 367.88777,260.98232 L 367.88777,260.98232 L 367.88777,260.98232 L 367.88777,260.98232 L 367.88777,260.98232 L 367.88777,260.98232 L 367.88777,260.98232 L 367.88777,260.98232 L 367.88777,260.98232 L 367.88777,260.98232 L 367.88777,260.98232 L 367.88777,260.98232 z " />
    <path
       style="font-size:12.000000px;fill:#ffd90c;fill-opacity:1.0000000;fill-rule:evenodd;stroke:#000000;stroke-width:2.0556350"
       sodipodi:nodetypes="cccscc"
       id="path1832"
       d="M 287.29365,81.273907 C 278.73513,80.491412 270.17680,81.665126 265.50854,84.012505 C 260.84027,86.359873 250.92052,87.337967 244.30722,84.990580 C 248.58629,92.423960 257.14461,94.380208 266.87015,90.076593 C 272.21248,87.605181 279.90234,84.794961 283.20879,85.577398 C 291.96172,87.337967 288.65527,81.665126 287.29365,81.273907 L 287.29365,81.273907 z " />
    <path
       style="font-size:12.000000px;fill:#ffd90c;fill-opacity:1.0000000;fill-rule:evenodd;stroke:#000000;stroke-width:2.0556350"
       sodipodi:nodetypes="cccccccc"
       id="path611"
       d="M 259.73570,158.21338 C 264.41200,172.04548 261.93642,191.96378 249.00760,193.34696 C 246.53202,199.43311 241.03033,203.58274 234.42859,205.51924 C 231.67775,217.96815 224.52587,230.14043 218.19939,226.54404 C 215.17348,239.27003 202.79499,258.35775 197.01843,245.90917 C 194.26759,263.33769 179.13826,275.50984 173.08664,268.31724 C 168.13548,262.50780 179.13826,118.93012 179.13826,118.93012 L 259.73570,158.21338 L 259.73570,158.21338 z " />
    <path
       style="font-size:12.000000px;fill:#ffd90c;fill-opacity:1.0000000;fill-rule:evenodd;stroke:#000000;stroke-width:2.0556350"
       sodipodi:nodetypes="ccccsscscccccccccccscc"
       id="path610"
       d="M 273.08838,121.34176 C 262.97383,119.77687 252.12062,121.89504 248.23056,125.02493 C 244.34051,128.15473 234.77589,129.39560 232.44225,126.26573 C 230.10802,123.13589 226.99577,121.57092 223.10572,120.78848 C 208.21268,116.68632 209.91867,92.151911 216.10322,89.489990 C 226.12575,85.624540 229.34469,65.906803 215.27802,65.834366 C 200.49267,65.481598 189.83093,66.845938 183.60683,73.105664 C 177.38235,79.365410 170.49653,89.847007 168.64332,102.00936 C 167.01486,112.69712 161.39023,126.30506 153.90793,132.39120 C 158.21553,133.99714 161.57543,132.96979 162.96936,132.71530 C 160.08499,139.51200 162.93842,265.38590 151.52673,285.10597 C 149.19238,292.93073 165.53147,291.36531 170.97736,278.84605 C 176.42383,266.32680 183.42574,127.83061 184.20414,120.78848 C 184.98216,113.74632 187.40233,122.86736 191.20664,125.67314 C 189.23342,134.28838 192.75444,139.53641 198.20836,140.68233 C 197.88631,148.19102 205.94169,149.51860 209.87912,148.17470 C 209.41513,153.19360 215.05014,155.22504 220.77168,153.65195 C 223.74179,159.54823 232.77233,160.55984 235.09873,157.05844 C 239.07493,161.85627 244.02648,158.21252 245.66845,155.21686 C 249.78639,159.41397 260.17130,162.71862 259.76761,156.03866 C 258.43712,146.33599 266.16438,125.76799 273.08838,121.34176 L 273.08838,121.34176 L 273.08838,121.34176 z " />
    <path
       style="font-size:12.000000px;fill:#ffd90c;fill-opacity:1.0000000;fill-rule:evenodd;stroke:#000000;stroke-width:2.0556350"
       sodipodi:nodetypes="cc"
       id="path612"
       d="M 200.31921,147.14766 C 200.59427,163.74619 200.04414,241.20625 196.46831,247.84559" />
    <path
       style="font-size:12.000000px;fill:#ffd90c;fill-opacity:1.0000000;fill-rule:evenodd;stroke:#000000;stroke-width:2.0556350"
       sodipodi:nodetypes="cc"
       id="path616"
       d="M 218.19939,226.54404 C 220.39990,213.54194 218.74951,153.51046 218.74951,153.51046" />
    <path
       style="font-size:12.000000px;fill:#ffd90c;fill-opacity:1.0000000;fill-rule:evenodd;stroke:#000000;stroke-width:2.0556350"
       sodipodi:nodetypes="cc"
       id="path617"
       d="M 234.70385,205.79585 C 235.80411,194.73017 235.52904,157.38345 235.52904,157.38345" />
    <path
       style="font-size:12.000000px;fill:#ffd90c;fill-opacity:1.0000000;fill-rule:evenodd;stroke:#000000;stroke-width:2.0556350"
       sodipodi:nodetypes="cc"
       id="path618"
       d="M 249.28286,193.07032 C 250.10786,182.83455 248.45766,157.66008 248.45766,157.66008" />
    <path
       style="font-size:12.000000px;fill:#ffd90c;fill-opacity:1.0000000;fill-rule:evenodd;stroke:#000000;stroke-width:2.0556350"
       sodipodi:nodetypes="cc"
       id="path620"
       d="M 334.83127,192.79369 C 331.53049,184.21777 334.83127,157.10682 334.83127,157.10682" />
    <path
       style="font-size:12.000000px;fill:#ffd90c;fill-opacity:1.0000000;fill-rule:evenodd;stroke:#000000;stroke-width:2.0556350"
       sodipodi:nodetypes="cc"
       id="path621"
       d="M 349.13521,205.79587 C 345.28451,197.21998 348.03515,158.76666 348.03515,158.76666" />
    <path
       style="font-size:12.000000px;fill:#ffd90c;fill-opacity:1.0000000;fill-rule:evenodd;stroke:#000000;stroke-width:2.0556350"
       sodipodi:nodetypes="cc"
       id="path622"
       d="M 365.91513,228.75748 C 362.06384,215.47830 365.91513,155.72358 365.91513,155.72358" />
    <path
       style="font-size:12.000000px;fill:#ffd90c;fill-opacity:1.0000000;fill-rule:evenodd;stroke:#000000;stroke-width:2.0556350"
       sodipodi:nodetypes="cc"
       id="path623"
       d="M 387.37095,246.46224 C 382.96992,232.90674 383.32506,144.12541 383.32506,144.12541" />
    <path
       style="font-size:12.000000px;fill:#ffd90c;fill-opacity:1.0000000;fill-rule:evenodd;stroke:#000000;stroke-width:2.0556350"
       sodipodi:nodetypes="cc"
       id="path849"
       d="M 189.61675,202.98169 C 190.97308,183.88268 190.69998,144.38677 189.57897,139.12887" />
    <path
       style="font-size:12.000000px;fill:#ffd90c;fill-opacity:1.0000000;fill-rule:evenodd;stroke:#000000;stroke-width:2.0556350"
       sodipodi:nodetypes="cc"
       id="path850"
       d="M 392.84993,135.10261 C 392.51065,151.81420 390.71617,192.40898 395.12464,205.36904" />
    <path
       style="font-size:12.000000px;fill:#ffd90c;fill-opacity:1.0000000;fill-rule:evenodd;stroke:#000000;stroke-width:2.0556350"
       sodipodi:nodetypes="ccccsssscssssccccccc"
       id="path852"
       d="M 255.06724,265.05328 C 243.19776,275.96698 228.95470,296.43041 226.92021,300.52310 C 224.88512,304.61578 224.54623,308.02600 228.27673,311.09576 C 232.00684,314.16532 238.96666,321.35028 236.25889,325.77324 C 232.04038,322.06105 225.14781,318.92742 221.47308,317.19644 C 217.79834,315.46543 214.07158,341.67824 210.59145,341.53985 C 205.11606,341.32210 210.72804,325.38302 209.78554,319.20529 C 208.84302,313.02753 205.08004,316.84453 203.25876,317.63182 C 199.61620,319.20642 195.80580,321.49794 191.65164,324.39694 C 188.26022,319.62198 190.97308,313.48324 197.41645,310.75472 C 199.01887,310.19069 205.01085,309.04288 206.43304,308.62967 C 207.14413,308.42307 197.69126,297.12107 193.17735,297.70338 C 184.25107,298.85489 192.48272,294.14443 194.99350,293.67303 C 196.63205,293.36539 213.35522,304.44527 214.71165,302.56954 C 220.13776,295.06625 230.98959,266.07679 234.71990,261.98391 C 240.48490,258.91454 247.26735,252.43457 251.67602,250.72936 C 254.04980,254.82205 255.74560,265.05328 255.06724,264.71223 L 255.06724,265.05328 L 255.06724,265.05328 L 255.06724,265.05328 z " />
    <path
       style="fill:#000000;fill-opacity:1.0000000;fill-rule:evenodd;stroke:none;stroke-width:1.0000000pt;stroke-linecap:butt;stroke-linejoin:miter;stroke-opacity:1.0000000"
       sodipodi:nodetypes="ccc"
       id="path861"
       d="M 272.36244,56.328683 C 275.41478,65.878161 285.24917,62.126574 286.26661,57.010765 C 287.28386,54.282339 277.78855,56.328683 272.36244,56.328683 L 272.36244,56.328683 z " />
    <path
       style="font-size:12.000000px;fill:#ffd90c;fill-opacity:1.0000000;fill-rule:evenodd;stroke:#000000;stroke-width:2.0556350"
       id="path862"
       d="M 311.66300,120.59831 C 308.07032,122.40490 300.76809,128.54370 302.65557,127.07307" />
    <path
       style="font-size:12.000000px;fill:#ffd90c;fill-opacity:1.0000000;fill-rule:evenodd;stroke:#000000;stroke-width:2.0556350"
       id="path863"
       d="M 373.15726,148.94364 C 373.15726,155.03208 373.79940,148.47030 371.75355,158.60101" />
    <path
       style="font-size:12.000000px;fill:#ffd90c;fill-opacity:1.0000000;fill-rule:evenodd;stroke:#000000;stroke-width:2.0556350"
       id="path864"
       d="M 356.50264,157.96261 C 353.87611,163.24541 355.14004,159.01921 355.21169,168.52613 C 355.20915,168.18814 355.21953,169.20196 355.22109,169.53991" />
    <path
       style="font-size:12.000000px;fill:#ffd90c;fill-opacity:1.0000000;fill-rule:evenodd;stroke:#000000;stroke-width:2.0556350"
       sodipodi:nodetypes="cc"
       id="path865"
       d="M 340.00797,157.88207 C 339.92789,161.83797 339.84782,172.65885 340.24818,173.93720" />
    <path
       style="font-size:12.000000px;fill:#ffd90c;fill-opacity:1.0000000;fill-rule:evenodd;stroke:#000000;stroke-width:2.0556350"
       sodipodi:nodetypes="cc"
       id="path866"
       d="M 326.87632,157.96261 C 326.87632,160.08938 326.55623,169.38305 326.55623,170.30199" />
    <path
       style="font-size:12.000000px;fill:#ffd90c;fill-opacity:1.0000000;fill-rule:evenodd;stroke:#000000;stroke-width:2.0556350"
       sodipodi:nodetypes="cc"
       id="path867"
       d="M 209.17276,147.65519 C 211.73488,156.39975 210.29338,182.83105 209.07233,189.03944" />
    <path
       style="font-size:12.000000px;fill:#ffd90c;fill-opacity:1.0000000;fill-rule:evenodd;stroke:#000000;stroke-width:2.0556350"
       sodipodi:nodetypes="cc"
       id="path868"
       d="M 227.10835,157.96261 C 228.83293,163.16491 227.41787,169.41685 227.26908,174.87769" />
    <path
       style="font-size:12.000000px;fill:#ffd90c;fill-opacity:1.0000000;fill-rule:evenodd;stroke:#000000;stroke-width:2.0556350"
       sodipodi:nodetypes="cc"
       id="path869"
       d="M 241.20105,159.08996 C 242.32206,162.63432 241.36100,168.11136 241.36100,173.10518" />
    <path
       style="font-size:12.000000px;fill:#ffd90c;fill-opacity:1.0000000;fill-rule:evenodd;stroke:#000000;stroke-width:2.0556350"
       id="path870"
       d="M 254.01221,159.25101 C 254.01221,162.78646 254.01221,166.32185 254.01221,169.85726" />
    <path
       d="M 328.14510,264.31656 C 340.01458,275.23026 354.25764,295.69369 356.29213,299.78638 C 358.32722,303.87906 358.66611,307.28928 354.93561,310.35904 C 351.20550,313.42860 344.24568,320.61356 346.95345,325.03652 C 351.17196,321.32433 358.06453,318.19070 361.73926,316.45972 C 365.41400,314.72871 369.14076,340.94152 372.62089,340.80313 C 378.09628,340.58538 372.48430,324.64630 373.42680,318.46857 C 374.36932,312.29081 378.13230,316.10781 379.95358,316.89510 C 383.59614,318.46970 387.40654,320.76122 391.56070,323.66022 C 394.95212,318.88526 392.23926,312.74652 385.79589,310.01800 C 384.19347,309.45397 378.20149,308.30616 376.77930,307.89295 C 376.06821,307.68635 385.52108,296.38435 390.03499,296.96666 C 398.96127,298.11817 390.72962,293.40771 388.21884,292.93631 C 386.58029,292.62867 369.85712,303.70855 368.50069,301.83282 C 363.07458,294.32953 353.32783,266.81351 349.59752,262.72063 C 343.83252,259.65126 336.68171,247.27754 332.27304,245.57233 C 329.89926,249.66502 327.46674,264.31656 328.14510,263.97551 L 328.14510,264.31656 L 328.14510,264.31656 L 328.14510,264.31656 z "
       id="path2261"
       sodipodi:nodetypes="ccccsssscssssccccccc"
       style="font-size:12.000000px;fill:#ffd90c;fill-opacity:1.0000000;fill-rule:evenodd;stroke:#000000;stroke-width:2.0556350" />
  </g>
</svg>
