<?xml version="1.0" encoding="UTF-8" standalone="no"?>
<svg
   xmlns:dc="http://purl.org/dc/elements/1.1/"
   xmlns:cc="http://creativecommons.org/ns#"
   xmlns:rdf="http://www.w3.org/1999/02/22-rdf-syntax-ns#"
   xmlns:svg="http://www.w3.org/2000/svg"
   xmlns="http://www.w3.org/2000/svg"
   xmlns:sodipodi="http://sodipodi.sourceforge.net/DTD/sodipodi-0.dtd"
   xmlns:inkscape="http://www.inkscape.org/namespaces/inkscape"
   id="svg554"
   sodipodi:version="0.32"
   width="438.48428pt"
   height="292.3219pt"
   sodipodi:docname="rome.svg"
   inkscape:version="1.0.2 (e86c870879, 2021-01-15)"
   inkscape:export-filename="/Users/daniel/Desktop/rome.png"
   inkscape:export-xdpi="16.860001"
   inkscape:export-ydpi="16.860001"
   inkscape:output_extension="org.inkscape.output.svg.inkscape"
   version="1.1">
  <metadata
     id="metadata19195">
    <rdf:RDF>
      <cc:Work
         rdf:about="">
        <dc:format>image/svg+xml</dc:format>
        <dc:type
           rdf:resource="http://purl.org/dc/dcmitype/StillImage" />
      </cc:Work>
    </rdf:RDF>
  </metadata>
  <defs
     id="defs556" />
  <sodipodi:namedview
     id="base"
     inkscape:zoom="0.67868538"
     inkscape:cx="294.20641"
     inkscape:cy="146.49598"
     inkscape:window-width="750"
     inkscape:window-height="577"
     inkscape:window-x="539"
     inkscape:window-y="198"
     inkscape:current-layer="svg554"
     showguides="true"
     inkscape:guide-bbox="true"
     inkscape:document-rotation="0"
     showgrid="false"
     inkscape:window-maximized="0" />
  <rect
     y="0"
     x="0"
     height="389.76251"
     width="584.64569"
     id="rect559"
     style="font-size:12px;fill:#cc0000;fill-rule:evenodd;stroke-width:1" />
  <path
     style="fill:#ffd90c;stroke:none;stroke-width:2;stroke-miterlimit:4;stroke-opacity:1"
     d="m 48.807789,110.76054 20.179687,-1.05468 c 0.281221,6.4219 1.382782,10.75783 3.304688,13.00781 3.093714,3.65627 8.812458,5.48439 17.15625,5.48437 6.937443,2e-5 11.953066,-1.24217 15.046876,-3.72656 3.09368,-2.48435 4.64055,-5.48435 4.64062,-9 -7e-5,-3.04684 -1.26569,-5.62496 -3.79687,-7.73437 -1.78132,-1.54684 -6.668029,-4.05465 -14.660157,-7.52344 -7.992231,-3.468704 -13.828163,-6.363232 -17.507813,-8.683595 -3.679717,-2.320257 -6.574246,-5.331973 -8.683594,-9.035156 -2.109397,-3.70306 -3.164084,-8.038993 -3.164062,-13.007813 -2.2e-5,-8.671791 3.1406,-15.867097 9.421875,-21.585937 6.281212,-5.718648 15.374953,-8.57802 27.28125,-8.578125 12.093681,1.05e-4 21.456951,2.836039 28.089841,8.507812 6.63272,5.671966 10.27725,13.218833 10.9336,22.640625 l -20.32032,0.914063 c -0.5157,-4.921797 -2.29695,-8.695231 -5.34375,-11.320313 -3.04694,-2.624913 -7.54694,-3.937412 -13.499996,-3.9375 -5.859428,8.8e-5 -10.043017,1.031337 -12.550781,3.09375 -2.507856,2.062583 -3.761761,4.664143 -3.761719,7.804688 -4.2e-5,2.953199 1.148394,5.390697 3.445312,7.3125 2.296828,1.968818 7.38276,4.664127 15.257814,8.085937 11.8593,5.109432 19.40617,9.257865 22.64062,12.445313 4.82804,4.687544 7.2421,10.710971 7.24219,18.070311 -9e-5,9.09377 -3.59774,16.8633 -10.79297,23.3086 -7.19538,6.44531 -17.2149,9.66796 -30.058591,9.66796 -8.859416,0 -16.53519,-1.48828 -23.027344,-4.46484 -6.492208,-2.97656 -11.074234,-7.11327 -13.746094,-12.41016 -2.671885,-5.29685 -3.914071,-11.39059 -3.726562,-18.28125 z"
     id="text670" />
  <path
     style="fill:#ffd90c;stroke:none;stroke-width:2;stroke-miterlimit:4;stroke-opacity:1"
     d="M 485.41409,142.86523 H 464.17972 L 485.76566,39.787109 h 41.90625 c 7.45304,1.03e-4 13.34757,0.879009 17.68359,2.636719 4.33585,1.757911 7.76944,4.664158 10.30078,8.71875 2.53115,4.054775 3.79677,8.894614 3.79688,14.519531 -1.1e-4,5.203197 -1.00792,10.265692 -3.02344,15.1875 -2.01572,4.921932 -4.48838,8.859429 -7.41797,11.8125 -2.92978,2.953173 -6.08212,5.191452 -9.45703,6.714844 -3.37508,1.523477 -7.92195,2.683637 -13.64063,3.480467 -3.32819,0.46879 -9.56255,0.70317 -18.70312,0.70313 h -13.57031 z m 11.74219,-56.390621 h 6.53906 c 11.20307,5.7e-5 18.67963,-0.703068 22.42969,-2.109375 3.74993,-1.40619 6.70305,-3.656187 8.85938,-6.75 2.15617,-3.093681 3.23429,-6.492115 3.23437,-10.195312 -8e-5,-2.484297 -0.55086,-4.523358 -1.65234,-6.117188 -1.10164,-1.593666 -2.64852,-2.753822 -4.64063,-3.480468 -1.99226,-0.726477 -6.43366,-1.089758 -13.32422,-1.089844 h -15.1875 z"
     id="text673" />
  <path
     style="fill:#ffd90c;stroke:none;stroke-width:2;stroke-miterlimit:4;stroke-opacity:1"
     d="m 103.9548,308.60736 c -3.28133,1.26563 -6.679761,2.22656 -10.195317,2.88281 -3.515687,0.65625 -7.148496,0.98438 -10.898437,0.98438 -12.562542,0 -22.722688,-3.92578 -30.480469,-11.77735 -7.757829,-7.85154 -11.636731,-18.10544 -11.636719,-30.76171 -1.2e-5,-10.35933 2.414048,-20.83588 7.242188,-31.42969 4.8281,-10.59367 11.636687,-18.69132 20.425781,-24.29297 8.789014,-5.60146 18.785097,-8.40224 29.988281,-8.40234 12.749922,1e-4 23.038972,3.94932 30.867192,11.84765 7.82801,7.89852 11.74207,18.41023 11.74218,31.53516 -1.1e-4,10.0313 -2.09776,19.64067 -6.29297,28.82812 -4.19541,9.18753 -9.80869,16.64064 -16.83984,22.35938 4.49991,4.40625 9.23428,8.01563 14.20313,10.82812 l -9.98438,13.14844 c -6.56259,-3.18751 -12.60946,-8.4375 -18.14062,-15.75 z m 1.75781,-22.92187 c 4.26554,-4.31247 7.69913,-9.89059 10.30078,-16.73438 2.60147,-6.8437 3.90225,-13.28901 3.90234,-19.33594 -9e-5,-8.15618 -2.17977,-14.54289 -6.53906,-19.16015 -4.35946,-4.61711 -9.91414,-6.9257 -16.664062,-6.92578 -4.640689,8e-5 -8.929747,1.06649 -12.867187,3.19921 -3.937552,2.1329 -7.558642,5.21493 -10.863281,9.2461 -3.304729,4.03132 -6.000039,9.0235 -8.085938,14.97656 -2.085972,5.95318 -3.12894,11.9063 -3.128906,17.85938 -3.4e-5,8.01565 2.214808,14.33205 6.644531,18.94921 4.429643,4.61721 10.089793,6.9258 16.980469,6.92579 1.921816,10e-6 3.937439,-0.14061 6.046875,-0.42188 0.749936,-0.14061 1.206967,-0.28123 1.371094,-0.42187 0.163997,-0.14061 0.246028,-0.35155 0.246093,-0.63282 -6.5e-5,-0.37498 -0.703189,-1.21873 -2.109375,-2.53125 -2.953184,-2.81247 -6.093806,-4.8281 -9.421875,-6.04687 l 7.734375,-11.8125 c 6.328058,3.18753 11.812427,7.47659 16.453127,12.86719 z"
     id="text676" />
  <path
     style="fill:#ffd90c;stroke:none;stroke-width:2;stroke-miterlimit:4;stroke-opacity:1"
     d="M 484.37314,309.57455 H 463.13876 L 484.7247,206.49643 h 45.77344 c 7.87492,1e-4 14.00382,0.8087 18.38672,2.42578 4.38271,1.61729 7.92177,4.58213 10.61718,8.89453 2.69521,4.31259 4.04287,9.53915 4.04297,15.67969 -1e-4,8.76569 -2.6251,15.99615 -7.875,21.69141 -5.25009,5.69536 -13.19539,9.2227 -23.83593,10.58203 2.71867,2.43754 5.27335,5.64847 7.66406,9.63281 4.73429,8.06253 10.00772,19.45314 15.82031,34.17187 H 532.5372 c -1.8282,-5.81249 -5.41413,-14.88279 -10.75781,-27.21093 -2.90631,-6.65622 -6.00006,-11.13278 -9.28125,-13.42969 -2.01568,-1.35933 -5.5313,-2.03902 -10.54688,-2.03906 h -8.64843 z m 12.16406,-58.14843 h 11.25 c 11.39056,6e-5 18.94915,-0.67963 22.67578,-2.03907 3.72649,-1.35931 6.64445,-3.49212 8.75391,-6.39843 2.10929,-2.90618 3.16398,-5.95306 3.16406,-9.14063 -8e-5,-3.74992 -1.52352,-6.56242 -4.57031,-8.4375 -1.87508,-1.12491 -5.92976,-1.68741 -12.16406,-1.6875 h -23.34375 z"
     id="text679" />
  <g
     id="g1386"
     transform="translate(0.340265)">
    <path
       d="m 255.06724,265.05328 c -11.86948,10.9137 -26.11254,31.37713 -28.14703,35.46982 -2.03509,4.09268 -2.37398,7.5029 1.35652,10.57266 3.73011,3.06956 10.68993,10.25452 7.98216,14.67748 -4.21851,-3.71219 -11.11108,-6.84582 -14.78581,-8.5768 -3.67474,-1.73101 -7.4015,24.4818 -10.88163,24.34341 -5.47539,-0.21775 0.13659,-16.15683 -0.80591,-22.33456 -0.94252,-6.17776 -4.7055,-2.36076 -6.52678,-1.57347 -3.64256,1.5746 -7.45296,3.86612 -11.60712,6.76512 -3.39142,-4.77496 -0.67856,-10.9137 5.76481,-13.64222 1.60242,-0.56403 7.5944,-1.71184 9.01659,-2.12505 0.71109,-0.2066 -8.74178,-11.5086 -13.25569,-10.92629 -8.92628,1.15151 -0.69463,-3.55895 1.81615,-4.03035 1.63855,-0.30764 18.36172,10.77224 19.71815,8.89651 5.42611,-7.50329 16.27794,-36.49275 20.00825,-40.58563 5.765,-3.06937 12.54745,-9.54934 16.95612,-11.25455 2.37378,4.09269 4.06958,14.32392 3.39122,13.98287 v 0.34105 z"
       id="path2259"
       sodipodi:nodetypes="ccccsssscssssccccccc"
       style="font-size:12px;fill:#ffd90c;fill-opacity:1;fill-rule:evenodd;stroke:#000000;stroke-width:2.05563" />
    <path
       style="font-size:12px;fill:#ffd90c;fill-opacity:1;fill-rule:evenodd;stroke:#000000;stroke-width:2.05563"
       sodipodi:nodetypes="cccccscc"
       id="path619"
       d="m 321.62778,156.83015 c -3.30097,20.7482 4.40123,39.28327 13.47895,35.96352 1.65038,7.46939 8.52719,13.55546 14.02868,13.0022 -0.82519,7.74607 8.80246,23.7913 16.77972,22.96161 4.12597,11.06582 11.00278,27.66425 21.45582,18.53485 3.02571,12.7254 9.62765,27.11099 19.80544,24.06805 4.67649,-1.38315 -3.30078,-167.36893 -2.47559,-164.6025 l -83.07302,50.07228 z" />
    <path
       style="font-size:12px;fill:#ffd90c;fill-opacity:1;fill-rule:evenodd;stroke:#000000;stroke-width:2.05563"
       sodipodi:nodetypes="ccsccccccccccccscccccscsscccccccccccccccccccssscccscsscccccccccccccccccccccccccccccc"
       id="path1831"
       d="m 367.88777,260.98232 c -17.40445,-5.14204 -17.92717,-12.30664 -22.32839,-21.15922 -4.40123,-8.85277 -4.5324,-21.41813 -17.60492,-27.66443 -10.36729,-4.95365 -11.32522,-11.78108 -12.42548,-18.42046 -1.10045,-6.63943 5.82354,-35.8015 5.82354,-35.8015 0,0 -3.28923,0.32416 -4.20095,-1.10655 4.53474,-0.64819 15.91557,4.37061 19.60554,-1.10658 2.52277,3.12985 6.21274,3.45397 8.80227,1.10658 2.20071,3.9123 11.84794,3.45397 13.20368,-1.10658 5.2462,2.87283 14.82628,-2.47014 13.20349,-6.63943 7.71375,2.09039 13.72641,-4.29204 12.10363,-9.95914 10.8258,-0.18986 10.94776,-8.78542 6.60174,-13.27886 4.21231,-0.58106 6.68026,-5.14158 3.30078,-8.85256 4.40142,-3.31969 7.7022,3.31977 7.7022,8.85256 0,5.53291 4.85699,104.40881 4.85699,114.36811 0,9.95929 2.99087,27.3747 6.14618,33.97958 6.54712,13.70448 11.71423,15.68201 20.00551,15.0336 -6.49113,-11.21148 -6.73526,-22.91396 -7.83552,-31.76634 -1.10045,-8.85238 -5.63775,-127.61334 -6.26834,-127.59126 l -0.008,-0.0208 c 4.16375,1.12736 7.1693,-0.005 9.41328,-1.66342 -4.00146,-0.28905 -5.64127,-4.40501 -6.44552,-5.70073 -1.75571,-3.53412 -3.36009,-13.23726 -5.56081,-18.7701 -2.2009,-5.532827 -16.64698,-30.35678 -24.20685,-35.410216 -8.80207,-4.660318 -22.86952,-10.288785 -26.40718,-3.319726 -5.13989,8.837091 4.40142,26.557702 9.90271,27.664265 5.50169,1.106582 -6.60155,-4.42623 -5.50129,2.213183 1.10026,6.639334 4.40104,14.385364 1.10026,18.811634 -3.30097,4.42629 -7.702,6.63942 -12.10343,6.63942 -4.40123,0 -6.60174,0 -8.80246,3.3197 -2.20051,3.31977 -7.702,5.53289 -12.10342,2.21313 -4.40104,-3.31971 -11.00278,-4.42625 -14.30395,-4.42625 -3.30077,0 -10.93622,1.30793 -11.32522,0.13422 l 0.25568,-13.85989 c 2.79098,1.92968 13.45193,-0.3426 17.75938,-5.37206 -7.00543,-0.46254 -11.1083,-10.968044 -10.97419,-15.265003 3.71308,0.615048 7.60725,-1.754364 10.84635,-4.097515 -4.83369,-0.149063 -10.76843,-6.410258 -12.42274,-13.759924 4.1571,0.256622 5.237,-2.345391 8.30363,-4.56155 -5.06295,0.320582 -14.17356,-6.626629 -16.49115,-12.937902 -3.30097,-3.319687 -25.56261,-4.029354 -32.16455,-4.029354 -6.60194,0 -5.50148,1.821985 -5.50148,5.141691 0,3.319687 2.20071,1.106504 -5.50149,5.532773 -11.39786,3.056995 -12.30351,15.352029 -6.40715,19.78977 2.20072,-2.213124 2.82583,-4.300404 4.65672,-6.505169 1.5527,-1.655008 4.99834,-0.878719 6.32707,0.955149 1.12336,1.354571 3.80412,3.369904 5.75639,3.418847 1.9879,-0.149318 3.87655,-1.417727 6.49955,0.504866 12.04802,5.538665 4.73483,21.343242 -10.23084,20.566561 2.9292,6.65666 8.11901,8.80504 17.45809,5.41791 -1.30622,3.78381 -5.31178,10.11995 -7.69457,12.16445 -16.5117,9.33953 -27.63527,29.25017 -20.511,56.94902 4.40142,7.74598 13.62264,31.02496 -1.35555,38.3387 -15.33784,6.51672 -16.31593,15.55918 -20.19464,25.19407 -4.47719,10.10828 -15.88777,26.79384 -24.8349,25.54146 6.71294,11.40745 32.28142,-5.88012 36.22708,-13.11206 3.55626,8.02601 3.41139,20.02959 13.45917,22.45564 -5.9919,-14.69823 -0.96556,-21.57896 11.93056,-31.98286 6.80222,8.98707 -6.94259,50.4535 -23.86758,54.63957 7.79167,3.84523 19.29094,-2.15471 23.49208,-3.12693 -1.63433,3.72209 -20.39647,15.33862 -29.33245,15.47292 12.84855,10.69757 28.42464,-5.22818 35.22647,-12.19191 -0.97829,7.5121 -19.61142,25.42536 -28.11434,27.05734 0.44422,13.36893 71.25465,16.04107 73.73356,1.11886 -8.80226,-2.40334 -22.74559,-14.42826 -27.01389,-26.96651 11.13943,11.23536 20.39472,19.43836 35.30009,11.74751 -14.839,-3.77807 -23.26087,-10.86906 -26.49763,-15.06727 7.40756,2.17898 10.95364,3.38672 19.75629,2.28 -12.20464,-6.19258 -28.06128,-40.75224 -25.00151,-55.99414 15.26795,10.33733 17.00917,18.97103 12.69839,32.94705 12.98442,0.33361 12.01866,-19.32656 14.55297,-25.70884 7.9804,14.74405 22.37205,26.77034 35.53189,16.73293 v 0 0 0 0 0 0 0 0 0 0 0 0 z" />
    <path
       style="font-size:12px;fill:#ffd90c;fill-opacity:1;fill-rule:evenodd;stroke:#000000;stroke-width:2.05563"
       sodipodi:nodetypes="cccscc"
       id="path1832"
       d="m 287.29365,81.273907 c -8.55852,-0.782495 -17.11685,0.391219 -21.78511,2.738598 -4.66827,2.347368 -14.58802,3.325462 -21.20132,0.978075 4.27907,7.43338 12.83739,9.389628 22.56293,5.086013 5.34233,-2.471412 13.03219,-5.281632 16.33864,-4.499195 8.75293,1.760569 5.44648,-3.912272 4.08486,-4.303491 z" />
    <path
       style="font-size:12px;fill:#ffd90c;fill-opacity:1;fill-rule:evenodd;stroke:#000000;stroke-width:2.05563"
       sodipodi:nodetypes="cccccccc"
       id="path611"
       d="m 259.7357,158.21338 c 4.6763,13.8321 2.20072,33.7504 -10.7281,35.13358 -2.47558,6.08615 -7.97727,10.23578 -14.57901,12.17228 -2.75084,12.44891 -9.90272,24.62119 -16.2292,21.0248 -3.02591,12.72599 -15.4044,31.81371 -21.18096,19.36513 -2.75084,17.42852 -17.88017,29.60067 -23.93179,22.40807 -4.95116,-5.80944 6.05162,-149.38712 6.05162,-149.38712 z" />
    <path
       style="font-size:12px;fill:#ffd90c;fill-opacity:1;fill-rule:evenodd;stroke:#000000;stroke-width:2.05563"
       sodipodi:nodetypes="ccccsscscccccccccccscc"
       id="path610"
       d="m 273.08838,121.34176 c -10.11455,-1.56489 -20.96776,0.55328 -24.85782,3.68317 -3.89005,3.1298 -13.45467,4.37067 -15.78831,1.2408 -2.33423,-3.12984 -5.44648,-4.69481 -9.33653,-5.47725 -14.89304,-4.10216 -13.18705,-28.636569 -7.0025,-31.29849 10.02253,-3.86545 13.24147,-23.583187 -0.8252,-23.655624 -14.78535,-0.352768 -25.44709,1.011572 -31.67119,7.271298 -6.22448,6.259746 -13.1103,16.741343 -14.96351,28.903696 -1.62846,10.68776 -7.25309,24.2957 -14.73539,30.38184 4.3076,1.60594 7.6675,0.57859 9.06143,0.3241 -2.88437,6.7967 -0.0309,132.6706 -11.44263,152.39067 -2.33435,7.82476 14.00474,6.25934 19.45063,-6.25992 5.44647,-12.51925 12.44838,-151.01544 13.22678,-158.05757 0.77802,-7.04216 3.19819,2.07888 7.0025,4.88466 -1.97322,8.61524 1.5478,13.86327 7.00172,15.00919 -0.32205,7.50869 7.73333,8.83627 11.67076,7.49237 -0.46399,5.0189 5.17102,7.05034 10.89256,5.47725 2.97011,5.89628 12.00065,6.90789 14.32705,3.40649 3.9762,4.79783 8.92775,1.15408 10.56972,-1.84158 4.11794,4.19711 14.50285,7.50176 14.09916,0.8218 -1.33049,-9.70267 6.39677,-30.27067 13.32077,-34.6969 z" />
    <path
       style="font-size:12px;fill:#ffd90c;fill-opacity:1;fill-rule:evenodd;stroke:#000000;stroke-width:2.05563"
       sodipodi:nodetypes="cc"
       id="path612"
       d="m 200.31921,147.14766 c 0.27506,16.59853 -0.27507,94.05859 -3.8509,100.69793" />
    <path
       style="font-size:12px;fill:#ffd90c;fill-opacity:1;fill-rule:evenodd;stroke:#000000;stroke-width:2.05563"
       sodipodi:nodetypes="cc"
       id="path616"
       d="m 218.19939,226.54404 c 2.20051,-13.0021 0.55012,-73.03358 0.55012,-73.03358" />
    <path
       style="font-size:12px;fill:#ffd90c;fill-opacity:1;fill-rule:evenodd;stroke:#000000;stroke-width:2.05563"
       sodipodi:nodetypes="cc"
       id="path617"
       d="m 234.70385,205.79585 c 1.10026,-11.06568 0.82519,-48.4124 0.82519,-48.4124" />
    <path
       style="font-size:12px;fill:#ffd90c;fill-opacity:1;fill-rule:evenodd;stroke:#000000;stroke-width:2.05563"
       sodipodi:nodetypes="cc"
       id="path618"
       d="m 249.28286,193.07032 c 0.825,-10.23577 -0.8252,-35.41024 -0.8252,-35.41024" />
    <path
       style="font-size:12px;fill:#ffd90c;fill-opacity:1;fill-rule:evenodd;stroke:#000000;stroke-width:2.05563"
       sodipodi:nodetypes="cc"
       id="path620"
       d="m 334.83127,192.79369 c -3.30078,-8.57592 0,-35.68687 0,-35.68687" />
    <path
       style="font-size:12px;fill:#ffd90c;fill-opacity:1;fill-rule:evenodd;stroke:#000000;stroke-width:2.05563"
       sodipodi:nodetypes="cc"
       id="path621"
       d="m 349.13521,205.79587 c -3.8507,-8.57589 -1.10006,-47.02921 -1.10006,-47.02921" />
    <path
       style="font-size:12px;fill:#ffd90c;fill-opacity:1;fill-rule:evenodd;stroke:#000000;stroke-width:2.05563"
       sodipodi:nodetypes="cc"
       id="path622"
       d="m 365.91513,228.75748 c -3.85129,-13.27918 0,-73.0339 0,-73.0339" />
    <path
       style="font-size:12px;fill:#ffd90c;fill-opacity:1;fill-rule:evenodd;stroke:#000000;stroke-width:2.05563"
       sodipodi:nodetypes="cc"
       id="path623"
       d="m 387.37095,246.46224 c -4.40103,-13.5555 -4.04589,-102.33683 -4.04589,-102.33683" />
    <path
       style="font-size:12px;fill:#ffd90c;fill-opacity:1;fill-rule:evenodd;stroke:#000000;stroke-width:2.05563"
       sodipodi:nodetypes="cc"
       id="path849"
       d="m 189.61675,202.98169 c 1.35633,-19.09901 1.08323,-58.59492 -0.0378,-63.85282" />
    <path
       style="font-size:12px;fill:#ffd90c;fill-opacity:1;fill-rule:evenodd;stroke:#000000;stroke-width:2.05563"
       sodipodi:nodetypes="cc"
       id="path850"
       d="m 392.84993,135.10261 c -0.33928,16.71159 -2.13376,57.30637 2.27471,70.26643" />
    <path
       style="font-size:12px;fill:#ffd90c;fill-opacity:1;fill-rule:evenodd;stroke:#000000;stroke-width:2.05563"
       sodipodi:nodetypes="ccccsssscssssccccccc"
       id="path852"
       d="m 255.06724,265.05328 c -11.86948,10.9137 -26.11254,31.37713 -28.14703,35.46982 -2.03509,4.09268 -2.37398,7.5029 1.35652,10.57266 3.73011,3.06956 10.68993,10.25452 7.98216,14.67748 -4.21851,-3.71219 -11.11108,-6.84582 -14.78581,-8.5768 -3.67474,-1.73101 -7.4015,24.4818 -10.88163,24.34341 -5.47539,-0.21775 0.13659,-16.15683 -0.80591,-22.33456 -0.94252,-6.17776 -4.7055,-2.36076 -6.52678,-1.57347 -3.64256,1.5746 -7.45296,3.86612 -11.60712,6.76512 -3.39142,-4.77496 -0.67856,-10.9137 5.76481,-13.64222 1.60242,-0.56403 7.5944,-1.71184 9.01659,-2.12505 0.71109,-0.2066 -8.74178,-11.5086 -13.25569,-10.92629 -8.92628,1.15151 -0.69463,-3.55895 1.81615,-4.03035 1.63855,-0.30764 18.36172,10.77224 19.71815,8.89651 5.42611,-7.50329 16.27794,-36.49275 20.00825,-40.58563 5.765,-3.06937 12.54745,-9.54934 16.95612,-11.25455 2.37378,4.09269 4.06958,14.32392 3.39122,13.98287 v 0.34105 z" />
    <path
       style="fill:#000000;fill-opacity:1;fill-rule:evenodd;stroke:none;stroke-width:1pt;stroke-linecap:butt;stroke-linejoin:miter;stroke-opacity:1"
       sodipodi:nodetypes="ccc"
       id="path861"
       d="m 272.36244,56.328683 c 3.05234,9.549478 12.88673,5.797891 13.90417,0.682082 1.01725,-2.728426 -8.47806,-0.682082 -13.90417,-0.682082 z" />
    <path
       style="font-size:12px;fill:#ffd90c;fill-opacity:1;fill-rule:evenodd;stroke:#000000;stroke-width:2.05563"
       id="path862"
       d="m 311.663,120.59831 c -3.59268,1.80659 -10.89491,7.94539 -9.00743,6.47476" />
    <path
       style="font-size:12px;fill:#ffd90c;fill-opacity:1;fill-rule:evenodd;stroke:#000000;stroke-width:2.05563"
       id="path863"
       d="m 373.15726,148.94364 c 0,6.08844 0.64214,-0.47334 -1.40371,9.65737" />
    <path
       style="font-size:12px;fill:#ffd90c;fill-opacity:1;fill-rule:evenodd;stroke:#000000;stroke-width:2.05563"
       id="path864"
       d="m 356.50264,157.96261 c -2.62653,5.2828 -1.3626,1.0566 -1.29095,10.56352 -0.003,-0.33799 0.008,0.67583 0.009,1.01378" />
    <path
       style="font-size:12px;fill:#ffd90c;fill-opacity:1;fill-rule:evenodd;stroke:#000000;stroke-width:2.05563"
       sodipodi:nodetypes="cc"
       id="path865"
       d="m 340.00797,157.88207 c -0.0801,3.9559 -0.16015,14.77678 0.24021,16.05513" />
    <path
       style="font-size:12px;fill:#ffd90c;fill-opacity:1;fill-rule:evenodd;stroke:#000000;stroke-width:2.05563"
       sodipodi:nodetypes="cc"
       id="path866"
       d="m 326.87632,157.96261 c 0,2.12677 -0.32009,11.42044 -0.32009,12.33938" />
    <path
       style="font-size:12px;fill:#ffd90c;fill-opacity:1;fill-rule:evenodd;stroke:#000000;stroke-width:2.05563"
       sodipodi:nodetypes="cc"
       id="path867"
       d="m 209.17276,147.65519 c 2.56212,8.74456 1.12062,35.17586 -0.10043,41.38425" />
    <path
       style="font-size:12px;fill:#ffd90c;fill-opacity:1;fill-rule:evenodd;stroke:#000000;stroke-width:2.05563"
       sodipodi:nodetypes="cc"
       id="path868"
       d="m 227.10835,157.96261 c 1.72458,5.2023 0.30952,11.45424 0.16073,16.91508" />
    <path
       style="font-size:12px;fill:#ffd90c;fill-opacity:1;fill-rule:evenodd;stroke:#000000;stroke-width:2.05563"
       sodipodi:nodetypes="cc"
       id="path869"
       d="m 241.20105,159.08996 c 1.12101,3.54436 0.15995,9.0214 0.15995,14.01522" />
    <path
       style="font-size:12px;fill:#ffd90c;fill-opacity:1;fill-rule:evenodd;stroke:#000000;stroke-width:2.05563"
       id="path870"
       d="m 254.01221,159.25101 c 0,3.53545 0,7.07084 0,10.60625" />
    <path
       d="m 328.1451,264.31656 c 11.86948,10.9137 26.11254,31.37713 28.14703,35.46982 2.03509,4.09268 2.37398,7.5029 -1.35652,10.57266 -3.73011,3.06956 -10.68993,10.25452 -7.98216,14.67748 4.21851,-3.71219 11.11108,-6.84582 14.78581,-8.5768 3.67474,-1.73101 7.4015,24.4818 10.88163,24.34341 5.47539,-0.21775 -0.13659,-16.15683 0.80591,-22.33456 0.94252,-6.17776 4.7055,-2.36076 6.52678,-1.57347 3.64256,1.5746 7.45296,3.86612 11.60712,6.76512 3.39142,-4.77496 0.67856,-10.9137 -5.76481,-13.64222 -1.60242,-0.56403 -7.5944,-1.71184 -9.01659,-2.12505 -0.71109,-0.2066 8.74178,-11.5086 13.25569,-10.92629 8.92628,1.15151 0.69463,-3.55895 -1.81615,-4.03035 -1.63855,-0.30764 -18.36172,10.77224 -19.71815,8.89651 -5.42611,-7.50329 -15.17286,-35.01931 -18.90317,-39.11219 -5.765,-3.06937 -12.91581,-15.44309 -17.32448,-17.1483 -2.37378,4.09269 -4.8063,18.74423 -4.12794,18.40318 v 0.34105 z"
       id="path2261"
       sodipodi:nodetypes="ccccsssscssssccccccc"
       style="font-size:12px;fill:#ffd90c;fill-opacity:1;fill-rule:evenodd;stroke:#000000;stroke-width:2.05563" />
  </g>
</svg>
