<?xml version="1.0" encoding="UTF-8" standalone="no"?>
<!-- Creator: CorelDRAW -->
<svg
   xmlns:dc="http://purl.org/dc/elements/1.1/"
   xmlns:cc="http://web.resource.org/cc/"
   xmlns:rdf="http://www.w3.org/1999/02/22-rdf-syntax-ns#"
   xmlns:svg="http://www.w3.org/2000/svg"
   xmlns="http://www.w3.org/2000/svg"
   xmlns:sodipodi="http://inkscape.sourceforge.net/DTD/sodipodi-0.dtd"
   xmlns:inkscape="http://www.inkscape.org/namespaces/inkscape"
   xml:space="preserve"
   width="2531.2500px"
   height="1350.0000pt"
   style="shape-rendering:geometricPrecision; text-rendering:geometricPrecision; image-rendering:optimizeQuality; fill-rule:evenodd; clip-rule:evenodd"
   viewBox="0 0 8.5 11"
   id="svg1342"
   sodipodi:version="0.32"
   inkscape:version="0.42"
   sodipodi:docname="sapmi.svg"
   sodipodi:docbase="/Users/daniel/Desktop"><metadata
   id="metadata1358"><rdf:RDF><cc:Work
       rdf:about=""><dc:format>image/svg+xml</dc:format><dc:type
         rdf:resource="http://purl.org/dc/dcmitype/StillImage" /></cc:Work></rdf:RDF></metadata><sodipodi:namedview
   inkscape:window-height="513"
   inkscape:window-width="754"
   inkscape:pageshadow="2"
   inkscape:pageopacity="0.0"
   borderopacity="1.0"
   bordercolor="#666666"
   pagecolor="#ffffff"
   id="base"
   inkscape:zoom="0.19694752"
   inkscape:cx="1168.4392"
   inkscape:cy="858.51457"
   inkscape:window-x="0"
   inkscape:window-y="27"
   inkscape:current-layer="svg1342" />
 <defs
   id="defs1344">
  <style
   type="text/css"
   id="style1346">
   
    .fil0 {fill:#0033AB}
    .fil2 {fill:#007336}
    .fil3 {fill:#D42E12}
    .fil1 {fill:#F7D117}
   
  </style>
 
  <metadata
   id="CorelCorpID_0Corel-Layer" />
  
 
   
   
   
   
   
   
  </defs>
 <rect
   id="_136607520"
   class="fil0"
   x="3.5556929"
   y="-6.6250000e-06"
   width="8.9443073"
   height="11.000007"
   style="fill:#0033ab" /><rect
   id="_136678936"
   class="fil1"
   x="2.4121289"
   y="-6.6250000e-06"
   width="1.1435643"
   height="11.000007"
   style="fill:#f7d117" /><rect
   id="_136689144"
   class="fil2"
   x="1.2685645"
   y="-6.6250000e-06"
   width="1.1435643"
   height="11.000007"
   style="fill:#007336" /><rect
   id="_136695184"
   class="fil3"
   x="-4.0000000"
   y="-6.6250000e-06"
   width="5.2685647"
   height="11.000007"
   style="fill:#d42e12" /><path
   id="_136686600"
   class="fil0"
   d="M 2.4121278,9.4207585 C 0.24709960,9.4207585 -1.5086633,7.6649956 -1.5086633,5.4999674 C -1.5086633,3.3349392 0.24709960,1.5791763 2.4121278,1.5791763 L 2.4121278,9.4207585 z M 2.4121278,8.7672933 C 0.60794311,8.7672933 -0.85519813,7.3041586 -0.85519813,5.4999674 C -0.85519813,3.6957826 0.60793661,2.2326415 2.4121278,2.2326415 L 2.4121278,8.7672933 z "
   style="fill:#0033ab" /><path
   id="_136682368"
   class="fil3"
   d="M 2.4121278,1.5791763 C 4.5771560,1.5791763 6.3329189,3.3349392 6.3329189,5.4999674 C 6.3329189,7.6649956 4.5771560,9.4207585 2.4121278,9.4207585 L 2.4121278,1.5791763 z M 2.4121278,2.2326415 C 4.2163125,2.2326415 5.6794538,3.6957762 5.6794538,5.4999674 C 5.6794538,7.3041521 4.2163191,8.7672933 2.4121278,8.7672933 L 2.4121278,2.2326415 z "
   style="fill:#d42e12" />
</svg>