<?xml version="1.0" encoding="UTF-8" standalone="no"?>
<!DOCTYPE svg PUBLIC "-//W3C//DTD SVG 20010904//EN"
"http://www.w3.org/TR/2001/REC-SVG-20010904/DTD/svg10.dtd">
<!-- Created with Sodipodi ("http://www.sodipodi.com/") -->
<svg
   id="svg548"
   sodipodi:version="0.32"
   width="187mm"
   height="140mm"
   sodipodi:docbase="/home/scarlet/sodipodi-flags/Regional/"
   sodipodi:docname="/home/scarlet/sodipodi-flags/Regional/uk_scotland.svg"
   xmlns="http://www.w3.org/2000/svg"
   xmlns:sodipodi="http://sodipodi.sourceforge.net/DTD/sodipodi-0.dtd"
   xmlns:xlink="http://www.w3.org/1999/xlink">
  <defs
     id="defs550" />
  <sodipodi:namedview
     id="base" />
  <rect
     style="font-size:12;fill:#ffffff;fill-rule:evenodd;stroke-width:1pt;fill-opacity:1;"
     id="rect555"
     width="662.598450"
     height="496.062959"
     x="0.000000"
     y="-0.000036" />
  <path
     style="fill:#000072;fill-rule:evenodd;stroke:none;stroke-opacity:1;stroke-width:1pt;stroke-linejoin:miter;stroke-linecap:butt;fill-opacity:0.776471;"
     d="M 585.724 497.187 C 585.599 497.187 585.474 497.187 585.349 497.187 M 586.181 497.199 L 329.455 304.065 L 74.6019 496.812 L 586.181 497.199 z "
     id="path576"
     transform="matrix(-1.000000,-1.224606e-16,1.224606e-16,-1.000000,658.3262,498.2695)"
     sodipodi:nodetypes="cccccc" />
  <path
     style="fill:#000072;fill-rule:evenodd;stroke:none;stroke-opacity:1;stroke-width:1pt;stroke-linejoin:miter;stroke-linecap:butt;fill-opacity:0.776471;"
     d="M 585.724 497.187 C 585.599 497.187 585.474 497.187 585.349 497.187 M 586.181 497.199 L 329.455 304.065 L 74.6019 496.812 L 586.181 497.199 z "
     id="path577"
     transform="translate(-0.478921,0.614304)"
     sodipodi:nodetypes="cccccc" />
  <path
     style="fill:#000072;fill-rule:evenodd;stroke:none;stroke-opacity:1;stroke-width:1pt;stroke-linejoin:miter;stroke-linecap:butt;fill-opacity:0.776471;"
     d="M 585.724 497.187 C 585.599 497.187 585.474 497.187 585.349 497.187 M 539.7 499.177 L 346.267 241.761 L 152.729 498.79 L 539.7 499.177 z "
     id="path578"
     transform="matrix(6.123028e-17,-1.000000,1.000000,6.123028e-17,163.6628,594.1733)"
     sodipodi:nodetypes="cccccc" />
  <path
     style="fill:#000072;fill-rule:evenodd;stroke:none;stroke-opacity:1;stroke-width:1pt;stroke-linejoin:miter;stroke-linecap:butt;fill-opacity:0.776471;"
     d="M 585.724 497.187 C 585.599 497.187 585.474 497.187 585.349 497.187 M 539.7 499.177 L 346.267 241.761 L 152.729 498.79 L 539.7 499.177 z "
     id="path581"
     transform="matrix(6.123032e-17,1.000000,-1.000000,6.123032e-17,499.1294,-96.80990)"
     sodipodi:nodetypes="cccccc" />
</svg>
