<?xml version="1.0" encoding="UTF-8" standalone="no"?>
<!-- Created with Sodipodi ("http://www.sodipodi.com/") -->

<svg
   version="1"
   x="0"
   y="0"
   width="1062.99"
   height="708.661"
   id="svg378"
   sodipodi:docname="singapore.svg"
   inkscape:version="1.2.2 (b0a8486541, 2022-12-01)"
   xmlns:inkscape="http://www.inkscape.org/namespaces/inkscape"
   xmlns:sodipodi="http://sodipodi.sourceforge.net/DTD/sodipodi-0.dtd"
   xmlns="http://www.w3.org/2000/svg"
   xmlns:svg="http://www.w3.org/2000/svg">
  <sodipodi:namedview
     id="namedview12"
     pagecolor="#ffffff"
     bordercolor="#666666"
     borderopacity="1.0"
     inkscape:pageshadow="2"
     inkscape:pageopacity="0.0"
     inkscape:pagecheckerboard="0"
     showgrid="false"
     inkscape:zoom="0.7174231"
     inkscape:cx="531.76431"
     inkscape:cy="356.13573"
     inkscape:window-width="979"
     inkscape:window-height="694"
     inkscape:window-x="26"
     inkscape:window-y="23"
     inkscape:window-maximized="0"
     inkscape:current-layer="svg378"
     inkscape:showpageshadow="2"
     inkscape:deskcolor="#d1d1d1">
    <inkscape:grid
       type="xygrid"
       id="grid117" />
  </sodipodi:namedview>
  <defs
     id="defs380" />
  <rect
     width="1062.99"
     height="708.661"
     x="0"
     y="0"
     style="font-size:12;fill:#ffffff;fill-rule:evenodd;stroke-width:1pt;"
     id="rect149" />
  <rect
     width="1062.99"
     height="354.331"
     x="0"
     y="0"
     style="font-size:12;fill:#df0000;fill-rule:evenodd;stroke-width:1pt;"
     id="rect148" />
  <path
     d="M 263.397 473.624 C 240.211 478.94 222.983 496.108 218.112 519.45 C 211.494 551.162 232.151 582.212 263.924 588.84 C 231.823 597.992 198.651 579.539 189.583 547.734 C 180.516 515.93 198.969 482.758 230.774 473.69 C 241.939 470.506 252.218 470.486 263.397 473.624 z "
     transform="matrix(2.11676,0,0,2.11676,-312.396,-943.158)"
     style="font-size:12;fill:#ffffff;fill-rule:evenodd;stroke-width:0.524368;"
     id="path141" />
  <polygon
     points="266.186,534.45 255.778,527.018 245.421,534.523 249.273,522.327 238.935,514.796 251.725,514.691 255.692,502.532 259.744,514.663 272.534,514.679 262.249,522.281 266.186,534.45 "
     transform="matrix(1.83411,0,0,1.83411,-255.129,-795.563)"
     style="font-size:12;fill:#ffffff;fill-rule:evenodd;stroke-width:0.524368;"
     id="polygon142" />
  <polygon
     points="266.186,534.45 255.778,527.018 245.421,534.523 249.273,522.327 238.935,514.796 251.725,514.691 255.692,502.532 259.744,514.663 272.534,514.679 262.249,522.281 266.186,534.45 "
     transform="matrix(1.83411,0,0,1.83411,-229.205,-718.704)"
     style="font-size:12;fill:#ffffff;fill-rule:evenodd;stroke-width:0.524368;"
     id="polygon144" />
  <polygon
     points="266.186,534.45 255.778,527.018 245.421,534.523 249.273,522.327 238.935,514.796 251.725,514.691 255.692,502.532 259.744,514.663 272.534,514.679 262.249,522.281 266.186,534.45 "
     transform="matrix(1.83411,0,0,1.83411,-142.945,-719.269)"
     style="font-size:12;fill:#ffffff;fill-rule:evenodd;stroke-width:0.524368;"
     id="polygon145" />
  <polygon
     points="266.186,534.45 255.778,527.018 245.421,534.523 249.273,522.327 238.935,514.796 251.725,514.691 255.692,502.532 259.744,514.663 272.534,514.679 262.249,522.281 266.186,534.45 "
     transform="matrix(1.83411,0,0,1.83411,-117.224,-795.502)"
     style="font-size:12;fill:#ffffff;fill-rule:evenodd;stroke-width:0.524368;"
     id="polygon146" />
  <polygon
     points="266.186,534.45 255.778,527.018 245.421,534.523 249.273,522.327 238.935,514.796 251.725,514.691 255.692,502.532 259.744,514.663 272.534,514.679 262.249,522.281 266.186,534.45 "
     transform="matrix(1.83411,0,0,1.83411,-185.512,-846.078)"
     style="font-size:12;fill:#ffffff;fill-rule:evenodd;stroke-width:0.524368;"
     id="polygon147" />
</svg>
