<?xml version="1.0" encoding="UTF-8" standalone="no"?>
<!-- Created with Inkscape (http://www.inkscape.org/) -->

<svg
   version="1.0"
   width="600"
   height="400"
   id="svg607"
   inkscape:version="1.1.2 (0a00cf5339, 2022-02-04)"
   sodipodi:docname="songhai.svg"
   xmlns:inkscape="http://www.inkscape.org/namespaces/inkscape"
   xmlns:sodipodi="http://sodipodi.sourceforge.net/DTD/sodipodi-0.dtd"
   xmlns="http://www.w3.org/2000/svg"
   xmlns:svg="http://www.w3.org/2000/svg"
   xmlns:rdf="http://www.w3.org/1999/02/22-rdf-syntax-ns#"
   xmlns:cc="http://creativecommons.org/ns#"
   xmlns:dc="http://purl.org/dc/elements/1.1/">
  <metadata
     id="metadata13">
    <rdf:RDF>
      <cc:Work
         rdf:about="">
        <dc:format>image/svg+xml</dc:format>
        <dc:type
           rdf:resource="http://purl.org/dc/dcmitype/StillImage" />
      </cc:Work>
    </rdf:RDF>
  </metadata>
  <sodipodi:namedview
     pagecolor="#ffffff"
     bordercolor="#666666"
     borderopacity="1"
     objecttolerance="10"
     gridtolerance="10"
     guidetolerance="10"
     inkscape:pageopacity="0"
     inkscape:pageshadow="2"
     inkscape:window-width="825"
     inkscape:window-height="602"
     id="namedview11"
     showgrid="false"
     inkscape:zoom="0.834386"
     inkscape:cx="306.81243"
     inkscape:cy="200.74642"
     inkscape:window-x="718"
     inkscape:window-y="193"
     inkscape:window-maximized="0"
     inkscape:current-layer="svg607"
     showguides="true"
     inkscape:guide-bbox="true"
     inkscape:pagecheckerboard="0" />
  <defs
     id="defs609">
    <inkscape:perspective
       sodipodi:type="inkscape:persp3d"
       inkscape:vp_x="0 : 200 : 1"
       inkscape:vp_y="0 : 1000 : 0"
       inkscape:vp_z="799.99988 : 200 : 1"
       inkscape:persp3d-origin="399.99994 : 133.33333 : 1"
       id="perspective15" />
  </defs>
  <rect
     width="600"
     height="400"
     id="rect611"
     style="fill: rgb(255, 255, 255);"
     x="0"
     y="4.2632564e-14" />
  <g
     id="g3593"
     transform="matrix(1.99019, 0, 0, 1.82874, -496.293, -165.748)">
    <circle
       sodipodi:ry="60"
       sodipodi:rx="60"
       sodipodi:cy="120"
       sodipodi:cx="120"
       style="fill: rgb(51, 153, 255); fill-opacity: 1;"
       id="circle1456"
       transform="matrix(0.886243, 0, 0, 0.886243, 293.651, 93.6508)"
       r="60"
       cy="120"
       cx="120"
       d="m 180,120 c 0,33.13708 -26.86292,60 -60,60 -33.137085,0 -60,-26.86292 -60,-60 0,-33.137085 26.862915,-60 60,-60 33.13708,0 60,26.862915 60,60 z" />
    <circle
       sodipodi:ry="60"
       sodipodi:rx="60"
       sodipodi:cy="120"
       sodipodi:cx="120"
       style="fill: rgb(255, 255, 255); fill-opacity: 1;"
       id="circle3256"
       transform="matrix(0.886243, 0, 0, 0.886243, 313.968, 93.6508)"
       r="60"
       cy="120"
       cx="120"
       d="m 180,120 c 0,33.13708 -26.86292,60 -60,60 -33.137085,0 -60,-26.86292 -60,-60 0,-33.137085 26.862915,-60 60,-60 33.13708,0 60,26.862915 60,60 z" />
    <path
       style="fill: rgb(51, 153, 255); fill-opacity: 1;"
       id="path3258"
       d="m 385.68392,232.29387 22.74177,-16.25698 22.56395,16.50279 -8.43369,-26.65238 22.66774,-16.35998 -27.95408,-0.21508 -8.55454,-26.61381 -8.84287,26.51943 -27.95474,-0.0882 22.48892,16.60497 -8.72246,26.55928 z" />
  </g>
</svg>
