<?xml version="1.0" encoding="UTF-8" standalone="no"?>
<svg
   width="750"
   height="500"
   version="1.1"
   id="svg16"
   sodipodi:docname="southern_sudan.svg"
   inkscape:version="1.2.2 (b0a8486541, 2022-12-01)"
   xmlns:inkscape="http://www.inkscape.org/namespaces/inkscape"
   xmlns:sodipodi="http://sodipodi.sourceforge.net/DTD/sodipodi-0.dtd"
   xmlns="http://www.w3.org/2000/svg"
   xmlns:svg="http://www.w3.org/2000/svg">
  <defs
     id="defs20" />
  <sodipodi:namedview
     id="namedview18"
     pagecolor="#ffffff"
     bordercolor="#666666"
     borderopacity="1.0"
     inkscape:showpageshadow="2"
     inkscape:pageopacity="0.0"
     inkscape:pagecheckerboard="0"
     inkscape:deskcolor="#d1d1d1"
     showgrid="false"
     inkscape:zoom="0.944"
     inkscape:cx="384.5339"
     inkscape:cy="250"
     inkscape:window-width="838"
     inkscape:window-height="645"
     inkscape:window-x="540"
     inkscape:window-y="91"
     inkscape:window-maximized="0"
     inkscape:current-layer="svg16" />
  <rect
     width="750"
     height="500"
     fill="#ffffff"
     x="0"
     y="0"
     id="rect2" />
  <rect
     width="750"
     height="150"
     fill="#078930"
     x="0"
     y="350"
     id="rect4" />
  <rect
     width="750"
     height="150"
     fill="#da121a;"
     x="0"
     y="175"
     id="rect6" />
  <rect
     width="750"
     height="150"
     fill="#000000"
     x="0"
     y="0"
     id="rect8" />
  <path
     d="M 0,0 0,500 312,250 0,0 z"
     fill="#0f47af"
     id="path10" />
  <g
     transform="matrix(0,0.333135,0.33455333,0,-1.4194696,71.2595)"
     fill="#fcdd09"
     id="g14">
    <path
       transform="matrix(11.9122,0,0,12.4579,-2509.82,-6130.71)"
       d="m 266.186,534.45 -10.408,-7.432 -10.357,7.505 3.852,-12.196 -10.338,-7.531 12.79,-0.105 3.967,-12.159 4.052,12.131 12.79,0.016 -10.285,7.602 3.937,12.169 z"
       fill="#fcdd09"
       id="path12" />
  </g>
</svg>
