<?xml version="1.0" encoding="UTF-8" standalone="no"?>
<svg
   xmlns:dc="http://purl.org/dc/elements/1.1/"
   xmlns:cc="http://web.resource.org/cc/"
   xmlns:rdf="http://www.w3.org/1999/02/22-rdf-syntax-ns#"
   xmlns:svg="http://www.w3.org/2000/svg"
   xmlns="http://www.w3.org/2000/svg"
   xmlns:sodipodi="http://inkscape.sourceforge.net/DTD/sodipodi-0.dtd"
   xmlns:inkscape="http://www.inkscape.org/namespaces/inkscape"
   version="1.0"
   width="445.50000pt"
   height="297pt"
   viewBox="0 0 468 297"
   preserveAspectRatio="xMidYMid meet"
   id="svg3708"
   sodipodi:version="0.32"
   inkscape:version="0.42"
   sodipodi:docname="csa.svg"
   sodipodi:docbase="/Users/daniel/Desktop"
   inkscape:export-filename="/Users/daniel/Desktop/csa.png"
   inkscape:export-xdpi="13.533821"
   inkscape:export-ydpi="13.533821">
  <defs
     id="defs3725" />
  <sodipodi:namedview
     inkscape:window-height="507"
     inkscape:window-width="701"
     inkscape:pageshadow="2"
     inkscape:pageopacity="0.0"
     borderopacity="1.0"
     bordercolor="#666666"
     pagecolor="#ffffff"
     id="base"
     inkscape:zoom="0.74006732"
     inkscape:cx="326.17282"
     inkscape:cy="185.62500"
     inkscape:window-x="3"
     inkscape:window-y="60"
     inkscape:current-layer="svg3708" />
  <metadata
     id="metadata3710">
Created by potrace 1.7, written by Peter Selinger 2001-2005
<rdf:RDF>
  <cc:Work
     rdf:about="">
    <dc:format>image/svg+xml</dc:format>
    <dc:type
       rdf:resource="http://purl.org/dc/dcmitype/StillImage" />
  </cc:Work>
</rdf:RDF>
</metadata>
  <path
     style="fill:#0000aa;fill-opacity:1.0000000;stroke:none"
     id="path3714"
     d="M 0.12760029,30.616021 C 0.12760029,30.616021 186.01378,147.66098 186.01378,148.02056 L 0.87045529,264.70593 L 0.87045529,303.54111 L 31.727675,303.54111 C 31.727675,303.54111 232.47104,175.88840 233.67104,175.88840 C 235.04247,175.88840 432.57922,300.86842 436.52208,303.74510 L 468.87163,303.54111 L 468.87163,264.34634 C 468.87163,264.34634 283.72831,148.55993 283.72831,148.02056 L 468.70020,32.953324 L 468.87163,-7.5000000 L 436.93472,-7.4930710 L 234.01390,118.71437 L 37.499074,-7.5000000 L 0.69902629,-7.5000000 L 0.12760029,30.616021 z "
     sodipodi:nodetypes="cscccscccsccccccc" />
  <path
     style="fill:#fd0000;fill-opacity:1.0000000;stroke:none"
     id="path3716"
     d="M 233.67104,108.82578 L 423.27152,-7.5000000 L 49.727720,-7.5000000 L 233.67104,108.82578 z "
     sodipodi:nodetypes="cccc" />
  <path
     style="fill:#fd0000;fill-opacity:1.0000000;stroke:none"
     id="path3718"
     d="M 0.29902929,253.19920 L 172.12803,148.02056 C 172.12803,148.02056 1.4990323,41.043989 0.64188729,41.043989 C -0.043828710,41.043989 -0.21525771,253.19920 0.29902929,253.19920 z "
     sodipodi:nodetypes="ccss" />
  <path
     style="fill:#fd0000;fill-opacity:1.0000000;stroke:none"
     id="path3720"
     d="M 297.95692,148.20035 C 298.47120,148.73973 467.21448,253.19920 468.41448,253.91837 C 469.95734,254.99713 469.95734,41.163855 469.10020,41.163855 C 468.41448,41.163855 297.78549,148.02056 297.95692,148.20035 z "
     sodipodi:nodetypes="ccss" />
  <path
     style="fill:#fd0000;fill-opacity:1.0000000;stroke:none"
     id="path3722"
     d="M 47.270575,304.50000 L 421.67152,303.54111 C 421.67152,303.54111 234.52819,186.67596 233.49961,186.67596 C 232.29961,186.67596 46.927726,304.50088 47.270575,304.50000 z "
     sodipodi:nodetypes="ccss" />
  <polygon
     transform="matrix(-0.172021,-0.124753,0.125267,-0.188776,244.8896,244.9276)"
     style="font-size:12.000000px;fill:#ffffff;fill-rule:evenodd;stroke-width:1.0000000pt"
     points="349.08100,386.74500 294.26900,346.44100 238.96800,386.07200 260.36200,321.48800 205.58200,281.14000 273.61600,281.53000 295.06100,216.96200 315.71400,281.78700 383.74900,282.23000 328.47900,321.90400 349.08100,386.74500 "
     id="polygon1863" />
  <polygon
     id="polygon3983"
     points="349.08100,386.74500 294.26900,346.44100 238.96800,386.07200 260.36200,321.48800 205.58200,281.14000 273.61600,281.53000 295.06100,216.96200 315.71400,281.78700 383.74900,282.23000 328.47900,321.90400 349.08100,386.74500 "
     style="font-size:12.000000px;fill:#ffffff;fill-rule:evenodd;stroke-width:1.0000000pt"
     transform="matrix(-0.172021,-0.124753,0.125267,-0.188776,317.5714,199.5788)" />
  <polygon
     id="polygon3985"
     points="349.08100,386.74500 294.26900,346.44100 238.96800,386.07200 260.36200,321.48800 205.58200,281.14000 273.61600,281.53000 295.06100,216.96200 315.71400,281.78700 383.74900,282.23000 328.47900,321.90400 349.08100,386.74500 "
     style="font-size:12.000000px;fill:#ffffff;fill-rule:evenodd;stroke-width:1.0000000pt"
     transform="matrix(-0.172021,-0.124753,0.125267,-0.188776,379.9074,160.3546)" />
  <polygon
     id="polygon3987"
     points="349.08100,386.74500 294.26900,346.44100 238.96800,386.07200 260.36200,321.48800 205.58200,281.14000 273.61600,281.53000 295.06100,216.96200 315.71400,281.78700 383.74900,282.23000 328.47900,321.90400 349.08100,386.74500 "
     style="font-size:12.000000px;fill:#ffffff;fill-rule:evenodd;stroke-width:1.0000000pt"
     transform="matrix(-0.172021,-0.124753,0.125267,-0.188776,444.8805,120.6742)" />
  <polygon
     id="polygon3989"
     points="349.08100,386.74500 294.26900,346.44100 238.96800,386.07200 260.36200,321.48800 205.58200,281.14000 273.61600,281.53000 295.06100,216.96200 315.71400,281.78700 383.74900,282.23000 328.47900,321.90400 349.08100,386.74500 "
     style="font-size:12.000000px;fill:#ffffff;fill-rule:evenodd;stroke-width:1.0000000pt"
     transform="matrix(-0.172021,-0.124753,0.125267,-0.188776,317.1368,285.0638)" />
  <polygon
     id="polygon3991"
     points="349.08100,386.74500 294.26900,346.44100 238.96800,386.07200 260.36200,321.48800 205.58200,281.14000 273.61600,281.53000 295.06100,216.96200 315.71400,281.78700 383.74900,282.23000 328.47900,321.90400 349.08100,386.74500 "
     style="font-size:12.000000px;fill:#ffffff;fill-rule:evenodd;stroke-width:1.0000000pt"
     transform="matrix(-0.172021,-0.124753,0.125267,-0.188776,378.8062,324.7440)" />
  <polygon
     id="polygon3993"
     points="349.08100,386.74500 294.26900,346.44100 238.96800,386.07200 260.36200,321.48800 205.58200,281.14000 273.61600,281.53000 295.06100,216.96200 315.71400,281.78700 383.74900,282.23000 328.47900,321.90400 349.08100,386.74500 "
     style="font-size:12.000000px;fill:#ffffff;fill-rule:evenodd;stroke-width:1.0000000pt"
     transform="matrix(-0.172021,-0.124753,0.125267,-0.188776,443.7794,364.4243)" />
  <polygon
     id="polygon3995"
     points="349.08100,386.74500 294.26900,346.44100 238.96800,386.07200 260.36200,321.48800 205.58200,281.14000 273.61600,281.53000 295.06100,216.96200 315.71400,281.78700 383.74900,282.23000 328.47900,321.90400 349.08100,386.74500 "
     style="font-size:12.000000px;fill:#ffffff;fill-rule:evenodd;stroke-width:1.0000000pt"
     transform="matrix(-0.172021,-0.124753,0.125267,-0.188776,178.3806,283.9300)" />
  <polygon
     id="polygon3997"
     points="349.08100,386.74500 294.26900,346.44100 238.96800,386.07200 260.36200,321.48800 205.58200,281.14000 273.61600,281.53000 295.06100,216.96200 315.71400,281.78700 383.74900,282.23000 328.47900,321.90400 349.08100,386.74500 "
     style="font-size:12.000000px;fill:#ffffff;fill-rule:evenodd;stroke-width:1.0000000pt"
     transform="matrix(-0.172021,-0.124753,0.125267,-0.188776,115.6101,323.6104)" />
  <polygon
     id="polygon3999"
     points="349.08100,386.74500 294.26900,346.44100 238.96800,386.07200 260.36200,321.48800 205.58200,281.14000 273.61600,281.53000 295.06100,216.96200 315.71400,281.78700 383.74900,282.23000 328.47900,321.90400 349.08100,386.74500 "
     style="font-size:12.000000px;fill:#ffffff;fill-rule:evenodd;stroke-width:1.0000000pt"
     transform="matrix(-0.172021,-0.124753,0.125267,-0.188776,51.73821,362.1569)" />
  <polygon
     id="polygon4001"
     points="349.08100,386.74500 294.26900,346.44100 238.96800,386.07200 260.36200,321.48800 205.58200,281.14000 273.61600,281.53000 295.06100,216.96200 315.71400,281.78700 383.74900,282.23000 328.47900,321.90400 349.08100,386.74500 "
     style="font-size:12.000000px;fill:#ffffff;fill-rule:evenodd;stroke-width:1.0000000pt"
     transform="matrix(-0.172021,-0.124753,0.125267,-0.188776,50.63696,120.6742)" />
  <polygon
     id="polygon4003"
     points="349.08100,386.74500 294.26900,346.44100 238.96800,386.07200 260.36200,321.48800 205.58200,281.14000 273.61600,281.53000 295.06100,216.96200 315.71400,281.78700 383.74900,282.23000 328.47900,321.90400 349.08100,386.74500 "
     style="font-size:12.000000px;fill:#ffffff;fill-rule:evenodd;stroke-width:1.0000000pt"
     transform="matrix(-0.172021,-0.124753,0.125267,-0.188776,113.4076,161.4882)" />
  <polygon
     id="polygon4005"
     points="349.08100,386.74500 294.26900,346.44100 238.96800,386.07200 260.36200,321.48800 205.58200,281.14000 273.61600,281.53000 295.06100,216.96200 315.71400,281.78700 383.74900,282.23000 328.47900,321.90400 349.08100,386.74500 "
     style="font-size:12.000000px;fill:#ffffff;fill-rule:evenodd;stroke-width:1.0000000pt"
     transform="matrix(-0.172021,-0.124753,0.125267,-0.188776,177.2795,200.0347)" />
</svg>
