<?xml version="1.0" encoding="UTF-8" standalone="no"?>
<svg
   width="450"
   height="300"
   id="svg2991"
   version="1.1"
   inkscape:version="1.1.2 (0a00cf5339, 2022-02-04)"
   sodipodi:docname="swahili.svg"
   xmlns:inkscape="http://www.inkscape.org/namespaces/inkscape"
   xmlns:sodipodi="http://sodipodi.sourceforge.net/DTD/sodipodi-0.dtd"
   xmlns="http://www.w3.org/2000/svg"
   xmlns:svg="http://www.w3.org/2000/svg">
  <defs
     id="defs22" />
  <sodipodi:namedview
     id="namedview20"
     pagecolor="#ffffff"
     bordercolor="#666666"
     borderopacity="1.0"
     inkscape:pageshadow="2"
     inkscape:pageopacity="0.0"
     inkscape:pagecheckerboard="0"
     showgrid="false"
     inkscape:zoom="1.6946993"
     inkscape:cx="224.81865"
     inkscape:cy="150.17414"
     inkscape:window-width="927"
     inkscape:window-height="706"
     inkscape:window-x="497"
     inkscape:window-y="159"
     inkscape:window-maximized="0"
     inkscape:current-layer="g17" />
  <g
     inkscape:label="Layer 1"
     inkscape:groupmode="layer"
     transform="translate(0,-752.36218)"
     id="g17">
    <rect
       fill="#800000"
       width="450"
       height="300"
       y="752.36218"
       id="rect2" />
    <rect
       fill="#ffcc00"
       width="450"
       height="150"
       y="752.36218"
       id="rect4" />
    <g
       transform="translate(25,0)"
       id="g10">
      <path
         transform="matrix(1.0638298,0,0,1,5.319148,889.36218)"
         d="m 136,88 c 0,27.61424 -21.04262,50 -47,50 -25.957383,0 -47,-22.38576 -47,-50 0,-27.614237 21.042617,-50 47,-50 25.95738,0 47,22.385763 47,50 z"
         sodipodi:ry="50"
         sodipodi:rx="47"
         sodipodi:cy="88"
         sodipodi:cx="89"
         fill="#ffffff"
         sodipodi:type="arc"
         id="path6" />
      <path
         transform="matrix(0.85106383,0,0,0.8,44.255319,906.96218)"
         d="m 136,88 c 0,27.61424 -21.04262,50 -47,50 -25.957383,0 -47,-22.38576 -47,-50 0,-27.614237 21.042617,-50 47,-50 25.95738,0 47,22.385763 47,50 z"
         sodipodi:ry="50"
         sodipodi:rx="47"
         sodipodi:cy="88"
         sodipodi:cx="89"
         fill="#800000"
         sodipodi:type="arc"
         id="path8" />
    </g>
    <g
       id="g3060"
       transform="translate(-10.000002,-12)">
      <path
         transform="matrix(1.0638298,0,0,1,40.31915,751.36218)"
         d="m 136,88 c 0,27.61424 -21.04262,50 -47,50 -25.957383,0 -47,-22.38576 -47,-50 0,-27.614237 21.042617,-50 47,-50 25.95738,0 47,22.385763 47,50 z"
         sodipodi:ry="50"
         sodipodi:rx="47"
         sodipodi:cy="88"
         sodipodi:cx="89"
         fill="#ffffff"
         sodipodi:type="arc"
         id="path12" />
      <path
         transform="matrix(0.85106383,0,0,0.8,79.25532,768.96218)"
         d="m 136,88 c 0,27.61424 -21.04262,50 -47,50 -25.957383,0 -47,-22.38576 -47,-50 0,-27.614237 21.042617,-50 47,-50 25.95738,0 47,22.385763 47,50 z"
         sodipodi:ry="50"
         sodipodi:rx="47"
         sodipodi:cy="88"
         sodipodi:cx="89"
         fill="#ffcc00"
         sodipodi:type="arc"
         id="path14" />
    </g>
  </g>
</svg>
