<?xml version="1.0" encoding="UTF-8" standalone="no"?>
<!-- Created with Sodipodi ("http://www.sodipodi.com/") -->

<svg
   version="1"
   x="0.00000000"
   y="0.00000000"
   width="1062.98999"
   height="708.661011"
   id="svg378"
   sodipodi:version="0.32"
   sodipodi:docname="syria.svg"
   inkscape:version="1.1.2 (0a00cf5339, 2022-02-04)"
   xmlns:inkscape="http://www.inkscape.org/namespaces/inkscape"
   xmlns:sodipodi="http://sodipodi.sourceforge.net/DTD/sodipodi-0.dtd"
   xmlns="http://www.w3.org/2000/svg"
   xmlns:svg="http://www.w3.org/2000/svg"
   xmlns:rdf="http://www.w3.org/1999/02/22-rdf-syntax-ns#"
   xmlns:cc="http://creativecommons.org/ns#"
   xmlns:dc="http://purl.org/dc/elements/1.1/">
  <metadata
     id="metadata5459">
    <rdf:RDF>
      <cc:Work
         rdf:about="">
        <dc:format>image/svg+xml</dc:format>
        <dc:type
           rdf:resource="http://purl.org/dc/dcmitype/StillImage" />
      </cc:Work>
    </rdf:RDF>
  </metadata>
  <sodipodi:namedview
     id="base"
     inkscape:zoom="0.4854225"
     inkscape:cx="531.49576"
     inkscape:cy="355.36054"
     inkscape:window-width="833"
     inkscape:window-height="574"
     inkscape:window-x="537"
     inkscape:window-y="119"
     inkscape:current-layer="svg378"
     pagecolor="#ffffff"
     bordercolor="#666666"
     borderopacity="1.0"
     inkscape:pageshadow="2"
     inkscape:pageopacity="0.0"
     inkscape:pagecheckerboard="0"
     showgrid="false"
     inkscape:window-maximized="0" />
  <defs
     id="defs380" />
  <rect
     width="1062.9900"
     height="708.66101"
     fill="#ffffff"
     id="rect171" />
  <rect
     width="1062.98999"
     height="236.220001"
     y="475.558563"
     fill="#000000"
     id="rect256" />
  <rect
     width="1062.98999"
     height="236.220001"
     fill="#ce1126"
     id="rect255" />
  <path
     d="M 266.186 534.45 L 255.778 527.018 L 245.421 534.523 L 249.273 522.327 L 238.935 514.796 L 251.725 514.691 L 255.692 502.532 L 259.744 514.663 L 272.534 514.679 L 262.249 522.281 L 266.186 534.45 z "
     transform="matrix(4.106327,0.000000,0.000000,4.163411,-765.3043,-1811.356)"
     style="font-size:12;fill:#007a3d;fill-rule:evenodd;stroke-width:0.112872;fill-opacity:1;"
     id="path205" />
  <path
     d="M 266.186 534.45 L 255.778 527.018 L 245.421 534.523 L 249.273 522.327 L 238.935 514.796 L 251.725 514.691 L 255.692 502.532 L 259.744 514.663 L 272.534 514.679 L 262.249 522.281 L 266.186 534.45 z "
     transform="matrix(4.106327,0.000000,0.000000,4.163411,-254.4345,-1811.357)"
     style="font-size:12;fill:#007a3d;fill-rule:evenodd;stroke-width:0.112872;fill-opacity:1;"
     id="path583" />
</svg>
