<?xml version="1.0" encoding="UTF-8" standalone="no"?>
<svg
   xmlns:dc="http://purl.org/dc/elements/1.1/"
   xmlns:cc="http://creativecommons.org/ns#"
   xmlns:rdf="http://www.w3.org/1999/02/22-rdf-syntax-ns#"
   xmlns:svg="http://www.w3.org/2000/svg"
   xmlns="http://www.w3.org/2000/svg"
   xmlns:sodipodi="http://sodipodi.sourceforge.net/DTD/sodipodi-0.dtd"
   xmlns:inkscape="http://www.inkscape.org/namespaces/inkscape"
   version="1"
   x="0"
   y="0"
   width="196.875mm"
   height="131.25mm"
   id="svg378"
   sodipodi:version="0.33pre"
   sodipodi:docname="tunisia.svg"
   inkscape:version="1.0.2 (e86c870879, 2021-01-15)">
  <metadata
     id="metadata9">
    <rdf:RDF>
      <cc:Work
         rdf:about="">
        <dc:format>image/svg+xml</dc:format>
        <dc:type
           rdf:resource="http://purl.org/dc/dcmitype/StillImage" />
      </cc:Work>
    </rdf:RDF>
  </metadata>
  <sodipodi:namedview
     id="base"
     inkscape:document-rotation="0"
     showgrid="false"
     inkscape:zoom="1.6177381"
     inkscape:cx="373.77249"
     inkscape:cy="242.1623"
     inkscape:window-width="1518"
     inkscape:window-height="1016"
     inkscape:window-x="50"
     inkscape:window-y="27"
     inkscape:window-maximized="0"
     inkscape:current-layer="svg378" />
  <defs
     id="defs380" />
  <rect
     width="744.09448"
     height="496.06302"
     x="0"
     y="0"
     style="font-size:12px;fill:#e70013;fill-rule:evenodd;stroke-width:1pt"
     id="rect171" />
  <ellipse
     style="fill:#ffffff;fill-opacity:1;fill-rule:evenodd;stroke:none;stroke-width:1.02703pt;stroke-linecap:butt;stroke-linejoin:miter;stroke-opacity:1"
     id="path554"
     cx="372.70578"
     cy="247.81223"
     rx="125.11321"
     ry="125.11322" />
  <path
     style="font-size:12px;fill:#e70013;fill-opacity:1;fill-rule:evenodd;stroke-width:1pt"
     d="m 372.70526,330.7817 c -45.799,0 -82.969,-37.17 -82.969,-82.969 0,-45.8 37.17,-82.97 82.969,-82.97 11.45,0 24.483,2.634 33.336,9.136 -60.681,2.284 -76.029,53.75 -76.029,74.492 0,20.742 9.813,67.001 76.028,73.833 -7.535,4.857 -21.885,8.478 -33.335,8.478 z"
     id="path556"
     sodipodi:nodetypes="ccccccc" />
  <polygon
     sodipodi:type="star"
     style="font-size:12px;fill:#e70013;fill-opacity:1;fill-rule:evenodd;stroke-width:1pt"
     id="polygon559"
     sodipodi:sides="5"
     sodipodi:cx="402.3378"
     sodipodi:cy="248.47075"
     sodipodi:r1="55.328888"
     sodipodi:r2="21.298595"
     sodipodi:arg1="0.66730589"
     sodipodi:arg2="1.2956244"
     points="445.798,282.712 408.125,268.968 383.202,300.385 384.632,260.308 347.051,246.314 385.608,235.289 387.304,195.223 409.704,228.486 448.333,217.718 423.62,249.301 445.798,282.712 "
     inkscape:flatsided="false"
     inkscape:rounded="0"
     inkscape:randomized="0"
     d="m 445.79819,282.71225 -37.6733,-13.74419 -24.9227,31.41718 1.42982,-40.07662 -37.58105,-13.99445 38.55697,-11.02453 1.69633,-40.06622 22.3997,33.26309 38.62944,-10.76784 -24.71319,31.58224 z" />
</svg>
