<?xml version="1.0" encoding="UTF-8" standalone="no"?>
<svg
   xmlns:dc="http://purl.org/dc/elements/1.1/"
   xmlns:cc="http://creativecommons.org/ns#"
   xmlns:rdf="http://www.w3.org/1999/02/22-rdf-syntax-ns#"
   xmlns:svg="http://www.w3.org/2000/svg"
   xmlns="http://www.w3.org/2000/svg"
   xmlns:xlink="http://www.w3.org/1999/xlink"
   xmlns:sodipodi="http://sodipodi.sourceforge.net/DTD/sodipodi-0.dtd"
   xmlns:inkscape="http://www.inkscape.org/namespaces/inkscape"
   version="1"
   x="0"
   y="0"
   width="1064.3221"
   height="708.77441"
   id="svg378"
   sodipodi:version="0.32"
   sodipodi:docname="united_nations.svg"
   inkscape:version="1.0.2 (e86c870879, 2021-01-15)">
  <metadata
     id="metadata6904">
    <rdf:RDF>
      <cc:Work
         rdf:about="">
        <dc:format>image/svg+xml</dc:format>
        <dc:type
           rdf:resource="http://purl.org/dc/dcmitype/StillImage" />
      </cc:Work>
    </rdf:RDF>
  </metadata>
  <sodipodi:namedview
     id="base"
     inkscape:zoom="0.46230688"
     inkscape:cx="531.53584"
     inkscape:cy="372.12001"
     inkscape:window-width="853"
     inkscape:window-height="602"
     inkscape:window-x="331"
     inkscape:window-y="53"
     inkscape:current-layer="svg378"
     inkscape:document-rotation="0"
     showgrid="false"
     inkscape:window-maximized="0">
    <sodipodi:guide
       orientation="horizontal"
       position="0.041584432,124.79697"
       id="guide572" />
    <sodipodi:guide
       orientation="vertical"
       position="455.1697,-47.20233"
       id="guide574" />
    <sodipodi:guide
       orientation="horizontal"
       position="0.041584432,304.36378"
       id="guide588" />
  </sodipodi:namedview>
  <defs
     id="defs380">
    <linearGradient
       id="linearGradient595">
      <stop
         style="stop-color:#000;stop-opacity:1;"
         offset="0"
         id="stop596" />
      <stop
         style="stop-color:#fff;stop-opacity:1;"
         offset="1"
         id="stop597" />
    </linearGradient>
    <linearGradient
       xlink:href="#linearGradient595"
       id="linearGradient598" />
  </defs>
  <rect
     transform="scale(-1)"
     id="rect149"
     style="font-size:12px;fill:#3399cc;fill-opacity:1;fill-rule:evenodd;stroke:#000000;stroke-width:0.999144pt"
     y="-708.10828"
     x="-1063.6561"
     height="707.4422"
     width="1062.99" />
  <g
     id="g1288"
     transform="translate(0.04158443,-18.282827)">
    <g
       style="font-size:12px"
       id="g867">
      <g
         id="g728">
        <rect
           y="374.81308"
           x="530.60583"
           height="146.32018"
           width="5.8277049"
           id="rect582"
           style="font-size:12px;fill:#ffffff;fill-opacity:1;fill-rule:evenodd;stroke:none;stroke-width:0.436618pt" />
        <rect
           transform="rotate(45.044282)"
           y="-100.4101"
           x="609.60321"
           height="146.32018"
           width="5.8277049"
           id="rect589"
           style="font-size:12px;fill:#ffffff;fill-opacity:1;fill-rule:evenodd;stroke:none;stroke-width:0.436618pt" />
        <rect
           transform="rotate(90.068616)"
           y="-492.27338"
           x="329.37262"
           height="146.32016"
           width="5.827704"
           id="rect590"
           style="font-size:12px;fill:#ffffff;fill-opacity:1;fill-rule:evenodd;stroke:none;stroke-width:0.436618pt" />
        <rect
           transform="rotate(135.00806)"
           y="-570.97552"
           x="-144.35017"
           height="146.32019"
           width="5.8277049"
           id="rect591"
           style="font-size:12px;fill:#ffffff;fill-opacity:1;fill-rule:evenodd;stroke:none;stroke-width:0.436618pt" />
        <rect
           transform="rotate(-179.94765)"
           y="-289.23291"
           x="-537.18213"
           height="146.32022"
           width="5.8277068"
           id="rect592"
           style="font-size:12px;fill:#ffffff;fill-opacity:1;fill-rule:evenodd;stroke:none;stroke-width:0.436618pt" />
        <rect
           transform="rotate(-134.92331)"
           y="188.05542"
           x="-616.44952"
           height="146.32019"
           width="5.8277049"
           id="rect593"
           style="font-size:12px;fill:#ffffff;fill-opacity:1;fill-rule:evenodd;stroke:none;stroke-width:0.436618pt" />
        <rect
           transform="rotate(-90.072157)"
           y="579.33978"
           x="-336.97723"
           height="146.32021"
           width="5.8277059"
           id="rect594"
           style="font-size:12px;fill:#ffffff;fill-opacity:1;fill-rule:evenodd;stroke:none;stroke-width:0.436618pt" />
        <rect
           transform="rotate(-45.047847)"
           y="656.94604"
           x="138.64062"
           height="146.32019"
           width="5.8277049"
           id="rect595"
           style="font-size:12px;fill:#ffffff;fill-opacity:1;fill-rule:evenodd;stroke:none;stroke-width:0.436618pt" />
        <path
           id="path598"
           d="M 604.071,151.222 C 704.104,188.615 754.943,300.149 717.55,400.181 680.158,500.214 568.624,551.053 468.591,513.661 368.558,476.268 317.719,364.734 355.112,264.701 392.504,164.669 504.038,113.83 604.071,151.222 Z m -2.46,6.581 c 96.4,36.034 145.393,143.518 109.358,239.918 C 674.935,494.122 567.451,543.114 471.051,507.08 374.65,471.045 325.658,363.561 361.692,267.161 397.727,170.761 505.211,121.768 601.611,157.803 Z"
           style="font-size:12px;fill:#ffffff;fill-opacity:1;fill-rule:evenodd;stroke:none;stroke-width:1.25" />
        <path
           id="path603"
           d="m 590.902,186.452 c 80.586,30.123 121.541,119.974 91.418,200.56 C 652.197,467.598 562.346,508.554 481.76,478.43 401.174,448.307 360.219,358.456 390.342,277.87 420.465,197.284 510.316,156.329 590.902,186.452 Z m -2.362,6.318 c 77.098,28.82 116.281,114.782 87.462,191.88 -28.82,77.099 -114.782,116.282 -191.88,87.462 C 407.023,443.293 367.84,357.33 396.66,280.232 425.479,203.134 511.442,163.951 588.54,192.77 Z"
           style="font-size:12px;fill:#ffffff;fill-opacity:1;fill-rule:evenodd;stroke:none;stroke-width:1.55165" />
        <path
           id="path606"
           d="m 578.398,219.902 c 62.122,23.221 93.693,92.485 70.472,154.607 -23.221,62.122 -92.485,93.693 -154.607,70.472 -62.121,-23.221 -93.693,-92.485 -70.472,-154.607 23.221,-62.122 92.485,-93.694 154.607,-70.472 z m -2.374,6.354 c 58.614,21.91 88.404,87.264 66.493,145.879 -21.91,58.615 -87.264,88.404 -145.879,66.494 -58.615,-21.911 -88.404,-87.265 -66.494,-145.88 21.911,-58.615 87.265,-88.404 145.88,-66.493 z"
           style="font-size:12px;fill:#ffffff;fill-opacity:1;fill-rule:evenodd;stroke:none;stroke-width:2.01284" />
        <path
           id="path609"
           d="m 566.271,252.345 c 44.213,16.527 66.683,65.824 50.156,110.037 -16.527,44.213 -65.823,66.683 -110.037,50.156 -44.213,-16.527 -66.683,-65.823 -50.156,-110.036 16.527,-44.213 65.824,-66.683 110.037,-50.157 z m -2.173,5.815 c 41.003,15.328 61.842,61.045 46.514,102.049 -15.327,41.003 -61.044,61.842 -102.048,46.514 -41.003,-15.327 -61.842,-61.044 -46.515,-102.048 15.328,-41.003 61.045,-61.842 102.049,-46.515 z"
           style="font-size:12px;fill:#ffffff;fill-opacity:1;fill-rule:evenodd;stroke:none;stroke-width:2.82814" />
        <path
           id="path612"
           d="m 552.629,288.839 c 24.069,8.997 36.301,35.832 27.304,59.901 -8.997,24.068 -35.832,36.3 -59.901,27.303 -24.068,-8.996 -36.3,-35.832 -27.303,-59.9 8.996,-24.069 35.832,-36.301 59.9,-27.304 z m -2.351,6.291 c 20.596,7.699 31.064,30.663 23.365,51.259 -7.699,20.597 -30.664,31.064 -51.26,23.365 -20.596,-7.699 -31.064,-30.663 -23.365,-51.259 7.699,-20.597 30.664,-31.064 51.26,-23.365 z"
           style="font-size:12px;fill:#ffffff;fill-opacity:1;fill-rule:evenodd;stroke:none;stroke-width:5.19524" />
      </g>
      <path
         transform="matrix(0.125362,-0.03052161,0.03052161,0.125362,201.1238,226.9922)"
         id="path727"
         d="m 3134.38,2184.38 c 0,7.81 -4.69,26.56 -1.57,31.24 3.13,6.26 17.19,6.26 23.44,4.69 17.19,-4.69 35.94,-25 45.31,-40.62 6.25,-7.81 10.94,-17.19 10.94,-28.13 0,0 -7.81,-35.94 -7.81,-35.94 -1.56,-12.5 -3.13,-34.37 -15.63,-40.62 1.57,-3.12 6.25,-7.81 6.25,-12.5 -1.56,-14.06 -25,-12.5 -34.37,-3.12 -4.69,4.68 -4.69,15.62 -6.25,21.87 -1.56,12.5 -7.81,37.5 -14.06,48.44 -6.25,10.93 -21.88,25 -23.44,37.5 0,9.37 9.37,15.62 17.19,17.19 z m -757.82,-165.63 c 0,0 3.13,9.37 3.13,9.37 0,1.57 1.56,4.69 3.12,4.69 9.38,10.94 26.57,-10.93 9.38,-15.62 -1.56,0 -4.69,-1.57 -6.25,0 -3.13,0 -6.25,0 -9.38,1.56 z m 14.07,-21.87 c -7.82,6.24 -10.94,10.93 0,17.18 0,0 0,-17.18 0,-17.18 z m -171.88,-153.13 c -12.5,9.37 -10.94,3.13 -17.19,6.25 -4.68,3.12 -1.56,7.81 -6.25,14.06 -1.56,3.13 -6.25,4.69 -6.25,7.82 -1.56,4.68 3.13,7.81 7.82,9.37 6.25,1.56 25,1.56 31.25,-1.56 6.25,-4.69 4.68,-10.94 7.81,-15.63 1.56,-1.56 4.69,-4.68 6.25,-6.25 1.56,-7.81 -14.06,-18.75 -23.44,-14.06 z m 453.13,-7.81 c 0,0 0,15.62 0,15.62 0,0 -3.13,12.5 -3.13,12.5 17.19,-1.56 28.13,-6.25 43.75,-10.94 4.69,-1.56 14.06,-4.68 17.19,-1.56 4.69,3.13 1.56,7.82 0,10.94 -3.13,6.25 -14.06,17.19 -18.75,21.88 -14.06,12.5 -32.81,12.5 -50,25 -9.38,7.81 -12.5,15.62 -21.88,23.43 -9.37,7.81 -15.62,9.38 -20.31,12.5 -4.69,4.69 -1.56,7.81 -10.94,12.5 0,0 6.25,-10.93 6.25,-10.93 -4.68,-1.57 -10.93,-1.57 -14.06,-6.26 -1.56,-4.68 -1.56,-9.37 0,-14.06 3.13,-9.37 7.81,-34.37 14.06,-40.62 1.57,-1.56 14.07,-4.69 18.75,-6.25 0,0 -3.12,9.37 -3.12,9.37 4.69,0 12.5,0 15.62,-1.56 7.82,-1.56 17.19,-17.19 21.88,-23.44 0,0 -21.88,6.25 -21.88,6.25 4.69,-9.37 17.19,-28.12 26.57,-34.37 z m -420.32,9.37 c -4.68,14.07 4.69,9.38 9.38,15.63 3.12,3.12 3.12,7.81 3.12,12.5 0,0 -12.5,1.56 -12.5,1.56 0,0 -6.25,7.81 -6.25,7.81 0,0 -7.81,7.81 -7.81,7.81 0,0 20.31,7.82 20.31,7.82 -10.93,3.12 -17.18,1.56 -25,10.94 0,0 26.57,0 26.57,0 17.18,1.56 29.68,6.24 46.87,-1.57 0,0 -3.12,-3.12 -3.12,-3.12 0,0 6.25,-14.07 6.25,-14.07 0,0 -10.94,-7.81 -10.94,-7.81 0,0 -3.13,-9.37 -3.13,-9.37 0,0 -17.18,-25 -17.18,-25 0,0 -6.25,-3.13 -6.25,-3.13 6.25,-6.25 18.75,-17.19 3.12,-21.87 0,0 -7.81,-1.56 -7.81,-1.56 0,0 7.81,-7.82 7.81,-7.82 -9.37,-1.56 -17.19,-3.12 -25,3.13 -9.37,9.37 -10.94,21.87 1.56,28.12 z m 12.5,-201.56 c 0,0 -1.56,10.94 -1.56,10.94 0,0 -3.12,-4.69 -3.12,-4.69 0,0 -1.57,18.75 -1.57,18.75 1.57,10.94 14.07,7.81 17.19,4.69 3.13,-1.56 4.69,-7.82 4.69,-10.94 0,-3.12 -1.56,-6.25 -3.13,-7.81 -3.12,-1.57 -4.68,-1.57 -7.81,-1.57 0,0 0,-9.37 0,-9.37 0,0 -4.69,0 -4.69,0 z M 978.127,1628.12 c -3.125,23.44 3.125,23.44 6.25,43.76 1.563,10.93 -3.125,14.06 3.125,35.93 3.125,9.38 4.688,18.75 14.058,23.44 0,-26.56 -1.56,-42.19 -7.808,-67.19 -4.687,-15.62 -9.375,-17.18 -12.5,-35.94 0,0 -3.125,0 -3.125,0 z M 3143.75,1562.5 c -7.81,3.12 -10.94,7.81 -10.94,15.62 -1.56,7.82 4.69,14.07 12.5,12.5 10.94,-3.12 15.63,-29.68 -1.56,-28.12 z m -1462.5,-134.38 c -4.69,7.82 -6.25,15.63 1.56,21.88 0,-7.81 3.13,-15.62 -1.56,-21.88 z m 456.25,48.44 c 0,0 4.69,4.69 4.69,4.69 12.5,-9.37 15.62,-15.63 25,-25 7.81,-7.81 12.5,-7.81 17.19,-10.94 3.12,-3.12 3.12,-6.25 4.68,-10.93 3.13,-6.26 7.82,-7.82 7.82,-18.76 1.56,-9.37 -3.13,-23.43 -14.07,-21.87 0,0 -1.56,-7.81 -1.56,-7.81 -4.69,0 -12.5,1.56 -17.19,4.68 -4.68,3.13 -3.12,9.38 -9.37,14.07 -7.81,7.81 -20.31,10.93 -23.44,12.5 -4.69,1.56 -3.12,6.25 -10.94,10.93 -10.93,6.26 -17.18,1.57 -23.43,3.13 -7.82,1.56 -20.32,12.5 -26.57,17.19 -9.37,9.37 -12.5,15.62 -17.18,26.56 -1.57,3.12 -4.69,7.81 -3.13,10.94 1.56,3.12 6.25,3.12 9.38,1.56 6.25,-1.56 20.31,-7.81 25,-6.25 4.68,0 6.25,3.13 9.37,4.69 4.69,1.56 7.81,1.56 10.94,3.12 3.12,1.56 6.25,6.25 9.37,9.38 7.82,4.68 17.19,-4.69 20.32,-10.94 1.56,-3.12 3.12,-6.25 3.12,-10.94 z m 21.88,-118.75 c 0,0 0,1.57 0,1.57 0,0 -1.57,-1.57 -1.57,-1.57 0,0 1.57,0 1.57,0 z m 12.5,12.5 c 3.12,9.38 17.18,20.31 25,28.13 3.12,-1.56 4.68,-3.13 6.25,-6.25 4.68,-7.81 4.68,-23.44 -3.13,-28.13 -4.69,-3.12 -10.94,-1.56 -15.62,0 0,-1.56 -1.57,-6.25 -3.13,-7.81 -10.94,-12.5 -29.69,18.75 -9.37,14.06 z m -62.5,-26.56 c 9.37,10.94 9.37,12.5 23.43,12.5 -3.12,9.37 -17.18,23.44 -26.56,15.63 -6.25,-4.69 -6.25,-10.94 -9.37,-12.5 -4.69,-3.13 -6.25,7.81 -9.38,10.93 -7.81,10.94 -18.75,9.38 -21.87,28.13 0,0 6.25,-3.13 6.25,-3.13 4.68,12.5 17.18,0 25,-3.12 -1.57,1.56 -4.69,4.69 -6.25,7.81 -1.57,4.69 3.12,9.38 7.81,7.81 4.69,-1.56 10.94,-9.37 15.62,-12.5 4.69,-3.12 6.25,-3.12 10.94,-4.69 4.69,-3.12 10.94,-7.81 15.63,-10.93 14.06,-9.38 14.06,-3.13 20.31,-18.75 0,-3.13 1.56,-4.69 1.56,-7.82 -4.69,-14.06 -28.12,-4.68 -29.69,-6.24 0,0 -9.37,-3.13 -9.37,-3.13 -3.13,-1.56 -9.38,0 -14.06,0 z m 71.87,3.13 c 0,0 -7.81,0 -7.81,0 0,0 1.56,4.68 1.56,4.68 9.38,-1.56 15.63,-1.56 17.19,-12.5 -7.81,0 -9.38,0 -10.94,7.82 z m -490.62,-14.07 c 0,0 -10.94,34.38 -10.94,34.38 0,0 1.56,15.62 1.56,15.62 0,0 3.13,31.25 3.13,31.25 4.68,-6.25 14.06,-26.56 15.62,-34.37 0,0 3.13,-12.5 3.13,-12.5 1.56,-9.38 3.12,-12.5 0,-21.88 0,0 -10.94,7.81 -10.94,7.81 0,0 1.56,-20.31 1.56,-20.31 0,0 -3.12,0 -3.12,0 z m 507.81,4.69 c 0,-9.38 1.56,-7.81 9.37,-6.25 0,0 1.57,-15.63 1.57,-15.63 -4.69,1.57 -10.94,1.57 -15.63,4.69 -7.81,7.81 -7.81,15.63 4.69,17.19 z m -43.75,-25 c 0,0 4.69,6.25 4.69,6.25 10.93,-1.56 14.06,1.56 23.43,4.69 0,0 -3.12,-6.25 -3.12,-6.25 0,0 4.69,-6.25 4.69,-6.25 9.37,0 10.93,-7.82 7.81,-15.63 -1.56,-1.56 -4.69,-3.12 -6.25,-4.69 -15.63,-10.93 -18.75,3.13 -23.44,9.38 0,0 -7.81,12.5 -7.81,12.5 z m 40.62,-1.56 c 3.13,0 6.25,0 9.38,-1.56 6.25,-4.69 4.69,-20.32 0,-23.44 -4.69,-1.56 -7.81,3.12 -7.81,6.25 0,0 -1.57,4.69 -1.57,4.69 0,0 0,7.81 0,7.81 0,0 0,6.25 0,6.25 z m -501.56,-6.25 c 6.25,-6.25 9.38,-17.19 10.94,-25 -10.94,4.69 -10.94,14.06 -10.94,25 z m 65.63,-95.31 c 0,14.06 -3.13,26.56 -9.38,39.06 -7.81,14.06 -25,32.81 -29.69,46.87 0,0 -3.12,-4.69 -3.12,-4.69 -7.81,9.38 -10.94,31.26 -7.81,42.19 9.37,-7.81 12.5,-18.75 18.75,-28.12 12.5,-20.31 28.12,-37.5 35.93,-60.94 1.57,-6.25 4.69,-23.44 1.57,-29.69 -1.57,-3.12 -3.13,-3.12 -6.25,-4.68 z m 1404.68,167.18 c 9.38,-10.94 14.07,-34.37 18.75,-48.44 10.94,-32.81 28.13,-46.87 28.13,-89.06 0,-9.37 -1.56,-28.12 -12.5,-31.25 -17.19,-3.12 -12.5,20.31 -14.06,25 0,4.69 -1.57,7.81 -3.13,10.94 -9.37,15.63 -7.81,34.37 -9.37,51.56 0,0 -9.38,56.25 -9.38,56.25 0,0 1.56,25 1.56,25 z M 2942.19,1087.5 c 0,3.12 1.56,4.69 3.12,7.81 1.57,1.57 3.13,3.13 4.69,4.69 9.38,6.25 15.63,-3.12 12.5,-9.38 -1.56,-3.12 -7.81,-4.68 -10.94,-4.68 -3.12,0 -6.25,0 -9.37,1.56 z m 234.37,-6.25 c 0,14.06 3.13,37.5 7.82,50 0,0 10.93,26.56 10.93,26.56 0,0 10.94,50 10.94,50 9.38,-9.37 6.25,-21.87 4.69,-32.81 -4.69,-21.88 -12.5,-43.75 -18.75,-64.06 -4.69,-10.94 -7.81,-21.88 -15.63,-29.69 z m -82.81,-32.81 c 0,0 -3.12,17.18 -3.12,17.18 0,0 -20.32,-9.37 -20.32,-9.37 -1.56,10.94 1.57,28.13 9.38,37.5 0,0 15.62,14.06 15.62,14.06 12.5,12.5 25,26.57 35.94,40.63 9.38,14.06 9.38,18.75 12.5,25 3.13,3.12 6.25,6.25 10.94,4.68 3.12,-1.56 4.69,-9.37 6.25,-12.5 0,0 6.25,-9.37 6.25,-9.37 3.12,-7.81 -1.56,-20.31 -4.69,-28.13 0,0 -7.81,-23.43 -7.81,-23.43 -3.13,-10.94 -4.69,-20.31 -10.94,-29.69 -10.94,-12.5 -20.31,-12.5 -32.81,-17.19 0,0 -17.19,-9.37 -17.19,-9.37 z m -432.81,-17.19 c -1.56,6.25 -3.13,15.63 -10.94,17.19 -1.56,0 -7.81,-1.56 -9.37,-3.13 0,0 -7.82,17.19 -7.82,17.19 -3.12,4.69 -9.37,17.19 -9.37,21.88 -1.56,7.81 9.37,7.81 15.62,1.56 6.25,-4.69 7.82,-12.5 12.5,-18.75 7.82,-12.5 20.32,-17.19 23.44,-32.81 0,0 -14.06,-3.13 -14.06,-3.13 z m 485.94,-15.63 c 3.12,14.07 6.25,15.63 12.5,28.13 3.12,7.81 1.56,12.5 10.93,10.94 -4.68,-7.81 -17.18,-34.38 -23.43,-39.07 z m -657.82,25 c -17.18,-3.12 -7.81,17.19 -10.93,25 -4.69,7.82 -23.44,18.76 -31.25,12.5 -4.69,1.57 -9.38,1.57 -14.07,0 -4.68,-1.56 -7.81,-4.68 -12.5,-4.68 0,0 -26.56,15.62 -26.56,15.62 -4.69,3.13 -10.94,6.25 -17.19,6.25 -4.68,0 -10.93,0 -14.06,3.13 -4.69,3.12 -1.56,12.5 0,17.18 0,0 6.25,10.94 6.25,10.94 -15.62,3.13 -15.62,14.06 -15.62,28.13 0,7.81 0,35.93 1.56,42.19 1.56,7.81 10.94,15.62 18.75,18.74 4.69,3.13 12.5,4.69 17.19,4.69 0,0 3.12,-18.75 3.12,-18.75 0,0 4.69,0 4.69,0 0,0 3.12,15.63 3.12,15.63 1.57,0 4.69,0 6.25,0 0,0 18.75,6.25 18.75,6.25 1.57,1.56 1.57,1.56 3.13,3.12 1.56,4.69 -3.13,12.5 -3.13,17.19 1.57,10.94 12.5,14.06 21.88,14.06 -1.56,12.5 0,9.38 -1.56,17.19 0,7.81 -4.69,7.81 3.12,25 1.56,3.12 4.69,10.94 9.38,10.94 4.68,0 15.62,-10.94 26.56,-15.63 1.56,7.81 1.56,9.38 7.81,14.07 0,0 -3.12,7.81 -3.12,7.81 0,0 18.75,-9.38 18.75,-9.38 -7.82,23.44 -17.19,17.19 -29.69,31.25 -4.69,7.82 -3.13,15.63 -6.25,23.44 0,0 1.56,1.56 1.56,1.56 0,0 6.25,-3.12 6.25,-3.12 0,0 4.69,-1.56 4.69,-1.56 14.06,-1.57 1.56,14.06 1.56,17.18 0,4.69 3.13,6.25 6.25,7.82 0,0 -7.81,4.68 -7.81,4.68 0,0 3.12,10.94 3.12,10.94 0,0 -28.12,0 -28.12,0 -14.06,1.56 -26.56,10.94 -39.06,18.75 0,0 0,3.13 0,3.13 0,0 4.68,1.56 4.68,1.56 0,0 -28.12,10.94 -28.12,10.94 7.81,3.12 18.75,0 26.56,0 7.81,-1.57 6.25,0 15.63,-1.57 0,0 4.68,3.13 4.68,3.13 0,0 -1.56,6.25 -1.56,6.25 0,0 32.81,14.06 32.81,14.06 7.82,3.13 14.07,0 18.75,3.13 6.25,4.68 3.13,12.5 14.07,15.62 12.5,4.69 23.43,-1.56 34.37,-3.12 0,0 -14.06,12.5 -14.06,12.5 0,0 4.69,10.93 4.69,10.93 0,0 15.62,-3.12 15.62,-3.12 -12.5,10.93 -10.94,1.56 -32.81,1.56 4.69,3.13 18.75,10.94 21.87,12.5 7.82,3.13 12.5,0 23.44,4.69 9.38,3.12 20.31,10.94 25,-3.13 1.56,3.13 3.13,6.25 4.69,7.81 4.69,3.13 7.81,3.13 12.5,4.69 6.25,1.57 20.31,12.5 18.75,20.31 -1.56,1.57 -3.13,3.13 -4.69,4.69 -1.56,-4.69 -3.12,-9.37 -6.25,-14.06 -7.81,-10.94 -21.87,-7.81 -32.81,-10.94 0,0 -21.88,-7.81 -21.88,-7.81 0,0 -17.18,-3.12 -17.18,-3.12 -9.38,-1.57 -14.07,-7.82 -23.44,-7.82 -3.13,0 -7.81,1.56 -7.81,4.69 0,3.13 3.12,6.25 4.68,7.81 9.38,6.25 6.25,1.56 20.32,12.5 7.81,6.25 10.93,4.69 18.75,7.82 0,0 7.81,4.68 7.81,4.68 6.25,1.56 7.81,-1.56 14.06,0 3.13,0 9.38,1.56 12.5,3.13 0,0 -28.12,9.37 -28.12,9.37 0,0 -20.32,-4.68 -20.32,-4.68 3.13,9.37 4.69,10.93 -3.12,18.74 0,0 -3.13,-6.24 -3.13,-6.24 -4.68,4.68 -4.68,7.81 -9.37,12.5 0,0 -7.81,7.81 -7.81,7.81 -1.57,3.12 -6.25,7.81 -9.38,7.81 -4.69,0 -9.37,-6.25 -12.5,-9.38 -6.25,-4.68 -9.37,-4.68 -17.19,-3.12 4.69,9.38 7.82,7.81 15.63,12.5 6.25,4.69 21.87,20.31 26.56,26.56 -1.56,0 -3.12,0 -4.69,3.13 -3.12,3.12 -1.56,17.19 1.57,21.87 3.12,3.13 6.25,4.69 10.93,4.69 0,0 -20.31,15.63 -20.31,15.63 7.81,3.12 10.94,1.56 17.19,7.81 0,0 -15.63,0 -15.63,0 0,0 -18.75,-17.19 -18.75,-17.19 0,0 -20.31,-10.94 -20.31,-10.94 7.81,1.56 20.31,3.13 28.13,0 14.06,-6.25 9.37,-21.87 0,-31.25 -6.25,-4.69 -10.94,-4.69 -18.75,-6.25 -6.25,-1.56 -15.63,-6.25 -21.88,-6.25 0,0 -17.19,1.57 -17.19,1.57 0,0 1.57,-4.69 1.57,-4.69 -4.69,-1.57 -6.25,-3.13 -10.94,0 -4.69,-4.69 -4.69,-6.25 -10.94,-7.81 0,0 0,7.81 0,7.81 0,0 -6.25,-7.81 -6.25,-7.81 0,0 -1.56,7.81 -1.56,7.81 -3.13,-6.25 -3.13,-7.81 -9.38,-10.94 0,0 3.13,20.31 3.13,20.31 0,0 -3.13,4.69 -3.13,4.69 -9.37,6.25 -10.93,21.87 -10.93,31.25 0,18.75 -4.69,23.44 -7.82,37.5 -1.56,10.94 1.57,15.62 -3.12,31.25 -1.56,6.25 -9.38,23.44 -12.5,28.13 0,0 -7.81,7.81 -7.81,7.81 0,0 -6.25,9.37 -6.25,9.37 -3.13,4.69 -7.82,7.82 -10.94,12.5 -3.13,6.25 0,9.38 1.56,12.5 1.56,9.38 -4.69,6.25 4.69,20.32 0,0 -6.25,6.24 -6.25,6.24 0,0 6.25,0 6.25,0 -4.69,10.94 1.56,18.76 12.5,17.19 7.81,-1.56 17.19,-10.93 20.31,-18.75 0,0 3.13,0 3.13,0 0,0 17.18,35.94 17.18,35.94 3.13,4.69 3.13,12.5 9.38,14.06 6.25,1.56 9.37,-4.68 12.5,-9.37 3.12,-3.13 6.25,-4.69 9.37,-7.81 4.69,-7.82 -1.56,-20.32 0,-28.13 1.57,-6.25 6.25,-9.37 7.82,-17.19 0,-10.94 -7.82,-14.06 -12.5,-20.31 -4.69,-6.25 -4.69,-12.5 -4.69,-20.31 0,-17.19 9.37,-21.88 12.5,-35.94 1.56,-9.38 -3.13,-15.62 -3.13,-21.88 0,-4.68 1.57,-9.37 6.25,-9.37 10.94,-1.56 10.94,10.94 10.94,18.75 0,0 -3.12,15.62 -3.12,15.62 -1.57,6.26 -4.69,10.94 -4.69,18.76 1.56,6.24 4.69,10.93 6.25,15.62 3.12,4.69 3.12,9.38 6.25,12.5 3.12,1.56 4.69,3.12 7.81,3.12 3.13,1.57 6.25,3.13 9.38,3.13 7.81,-1.56 17.18,-15.63 25,-20.31 4.68,-3.13 10.93,-1.56 15.62,-1.56 -3.12,4.68 -10.94,12.5 -14.06,15.62 -6.25,3.12 -17.19,4.69 -18.75,14.06 -4.69,12.5 12.5,12.5 10.94,23.44 -1.57,7.81 -12.5,-3.12 -17.19,6.25 -6.25,9.37 0,15.63 1.56,23.44 0,4.69 -3.12,9.37 -4.69,14.06 -7.81,10.94 -12.5,3.13 -21.87,7.81 -7.81,3.13 -17.19,14.06 -25,15.63 -6.25,1.56 -10.94,-3.13 -15.63,-3.13 -6.25,0 -12.5,9.38 -21.87,0 -9.38,-10.94 3.12,-15.62 1.56,-25 0,0 -4.69,-15.62 -4.69,-15.62 -9.37,4.68 -18.75,10.94 -17.18,23.44 3.12,10.93 12.5,20.31 6.25,28.12 -4.69,3.12 -14.07,3.12 -21.88,7.81 -9.37,4.69 -20.31,20.31 -23.44,21.88 -4.68,3.12 -9.37,3.12 -14.06,6.25 0,0 -17.19,14.06 -17.19,14.06 -1.56,1.56 -1.56,1.56 -3.12,3.12 0,0 -18.75,-7.81 -18.75,-7.81 0,0 0,10.94 0,10.94 -7.81,0 -7.81,0 -14.06,-1.56 -4.69,-1.57 -14.07,-3.13 -17.19,3.12 -3.13,4.69 9.37,9.38 12.5,10.94 18.75,10.94 20.31,32.81 10.94,40.63 -6.25,4.68 -15.63,0 -21.88,-1.57 -14.06,-3.12 -35.94,-10.93 -50,-12.5 -18.75,0 -14.06,12.5 -18.75,21.88 -1.56,6.25 -7.81,9.37 -9.37,14.06 -1.57,1.56 -1.57,3.13 -1.57,4.69 0,-1.56 3.13,18.75 3.13,17.18 1.56,6.26 12.5,6.26 18.75,7.82 7.81,3.12 9.37,7.81 15.62,12.5 6.25,3.12 9.38,1.56 15.63,0 14.06,0 26.56,7.81 48.44,-1.56 4.68,-1.57 9.37,-4.69 10.93,-7.82 4.69,-4.68 3.13,-9.37 9.38,-14.06 7.81,-6.25 21.87,-7.81 29.69,-12.5 6.25,-4.69 3.12,-14.06 14.06,-17.19 7.81,-1.56 15.62,4.69 26.56,1.57 9.38,-1.57 20.31,-10.94 29.69,-12.5 9.37,0 14.06,10.93 26.56,15.62 0,0 50,15.62 50,15.62 1.56,0 4.69,1.57 6.25,3.13 12.5,12.5 -7.81,15.63 -15.62,17.19 -6.25,1.56 -7.82,1.56 -14.07,1.56 1.57,1.56 1.57,3.12 3.13,4.69 6.25,3.12 21.87,6.25 28.12,1.56 3.13,-3.13 3.13,-6.25 3.13,-10.94 6.25,-1.56 9.37,-3.12 12.5,-9.37 0,-4.69 -1.56,-9.38 3.12,-12.5 3.13,-3.13 9.38,-3.13 14.07,-3.13 -6.25,-9.37 -12.5,-6.25 -21.88,-7.81 -4.69,-1.56 -6.25,-4.69 -10.94,-6.25 -4.68,0 -9.37,3.13 -15.62,0 -4.69,-1.56 -9.38,-6.25 -14.06,-7.81 -4.69,-3.13 -17.19,-6.25 -15.63,-14.06 1.56,-3.13 3.13,-4.69 6.25,-4.69 1.56,-1.57 3.13,-1.57 4.69,-1.57 0,0 1.56,6.26 1.56,6.26 17.19,-4.69 10.94,3.12 25,6.24 12.5,4.69 28.13,1.57 40.63,7.82 7.81,3.12 4.68,7.81 10.93,15.62 7.82,7.82 20.32,6.25 31.25,6.25 -1.56,1.57 -3.12,1.57 -3.12,3.13 -3.13,4.68 0,7.81 3.12,9.37 10.94,7.81 29.69,-4.69 15.63,-12.5 0,0 25,-9.37 25,-9.37 -10.94,-6.25 -17.19,-1.56 -31.25,-12.5 7.81,0 9.37,0 15.62,-4.69 0,0 1.57,-6.25 1.57,-6.25 0,0 26.56,-10.94 26.56,-10.94 -9.38,12.5 0,9.38 1.56,23.44 7.81,0 17.19,3.12 25,3.12 6.25,-1.56 23.44,-6.24 28.13,-9.37 4.68,-3.13 6.25,-7.81 10.93,-10.94 0,0 18.75,-6.25 18.75,-6.25 7.82,-4.68 14.07,-10.94 20.32,-17.18 3.12,-3.13 6.25,-6.26 10.93,-4.69 6.25,3.12 6.25,18.75 6.25,25 1.57,4.69 3.13,10.93 3.13,15.62 -3.13,20.31 -25,21.88 -39.06,31.25 -9.38,6.25 -17.19,17.19 -26.57,20.32 -12.5,7.81 -46.87,17.18 -62.5,20.31 0,0 -32.81,3.12 -32.81,3.12 -7.81,3.13 -17.19,9.38 -20.31,15.63 -3.13,6.25 0,14.06 -7.81,17.18 -7.82,3.13 -39.07,4.69 -46.88,3.13 -12.5,-3.13 -7.81,-6.25 -26.56,-6.25 -17.19,0 -35.94,1.56 -53.13,-3.12 3.13,-3.13 9.38,-9.38 10.94,-14.07 1.56,-3.12 0,-4.69 0,-7.81 0,-1.56 0,-4.69 -1.56,-6.25 -3.13,-4.69 -15.63,-4.69 -20.31,-4.69 -10.94,1.56 -9.38,4.69 -26.57,4.69 0,0 -57.81,1.56 -57.81,1.56 -28.12,0 -51.56,9.38 -62.5,9.38 -7.81,0 -25,-3.13 -32.81,-6.25 -6.25,-3.13 -12.5,-9.38 -20.31,-6.25 -7.82,1.56 -10.94,7.81 -20.32,10.93 -9.37,3.13 -26.56,3.13 -37.5,9.38 -10.93,6.25 -6.25,12.5 -18.75,17.19 -6.25,1.56 -26.56,0 -34.37,0 -17.19,-1.57 -26.56,4.69 -42.19,9.37 0,0 -17.19,4.69 -17.19,4.69 -6.25,1.56 -18.75,3.13 -21.87,7.81 -3.13,4.69 0,10.94 0,15.63 0,4.69 -1.56,9.37 -3.13,14.06 -9.37,10.94 -31.25,18.75 -29.68,35.94 1.56,10.93 7.81,12.5 18.75,23.43 14.06,17.19 23.43,40.63 39.06,54.69 20.31,17.19 50,39.07 76.56,46.88 0,0 46.88,6.25 46.88,6.25 25,4.68 43.75,12.5 70.31,14.06 0,0 59.37,-4.69 59.37,-4.69 12.5,0 31.25,-1.56 43.75,3.13 12.5,4.68 14.07,14.06 37.5,14.06 0,0 32.82,-1.56 32.82,-1.56 7.81,-1.56 14.06,-3.13 21.87,1.56 18.75,12.5 -17.19,29.69 -3.12,43.75 7.81,7.81 35.93,12.5 46.87,17.19 7.81,1.56 31.25,17.18 35.94,23.44 3.12,3.12 3.12,6.24 6.25,10.93 3.12,4.69 10.94,7.81 10.94,12.5 0,4.69 -10.94,12.5 -14.07,15.63 -9.37,7.81 -28.12,28.12 -20.31,42.18 3.13,4.69 12.5,9.38 17.19,12.5 0,0 43.75,17.19 43.75,17.19 18.75,9.38 18.75,25 29.69,34.38 7.81,6.25 21.87,6.25 32.81,7.81 0,0 45.31,15.62 45.31,15.62 15.63,6.26 7.81,15.63 20.31,18.76 26.57,4.68 70.32,-15.63 93.75,-28.13 0,0 46.88,-18.75 46.88,-18.75 18.75,-7.81 35.94,-17.19 53.12,-26.56 32.82,-20.32 60.94,-48.44 79.69,-81.25 6.25,-9.38 23.44,-31.25 25,-37.5 3.13,-9.38 -6.25,-15.63 -1.56,-23.44 6.25,-10.94 28.12,-25 34.37,-37.5 4.69,-6.25 4.69,-17.19 -1.56,-21.87 -6.25,-3.13 -10.94,0 -23.44,-4.69 12.5,-25 32.82,-48.44 50,-70.31 7.82,-9.38 21.88,-26.57 23.44,-39.07 1.56,-14.06 -10.94,-15.62 -15.62,-21.87 -4.69,-4.69 -3.13,-7.82 -6.25,-9.38 -6.25,-3.12 -17.19,1.56 -23.44,0 -4.69,0 -7.81,-3.12 -10.94,-4.68 -4.69,-3.13 -10.94,-1.57 -15.62,-1.57 -4.69,-21.87 14.06,-59.37 23.43,-79.69 18.75,-43.74 42.19,-87.5 40.63,-135.93 0,0 -3.13,-37.5 -3.13,-37.5 -1.56,-4.69 -4.68,-10.94 -10.93,-9.38 -9.38,1.57 -20.32,28.13 -25,35.94 0,0 -25,35.94 -25,35.94 -6.25,7.81 -10.94,18.75 -18.75,25 -6.25,4.69 -15.63,7.81 -23.44,10.93 -1.56,-7.81 -6.25,-6.24 -12.5,-4.68 0,0 -29.69,12.5 -29.69,12.5 -6.25,3.12 -18.75,10.94 -26.56,10.94 -6.25,0 -9.38,-4.69 -18.75,-3.13 -6.25,0 -17.19,3.13 -21.88,1.56 -6.25,-1.56 -12.5,-7.81 -18.75,-9.37 -4.68,-1.56 -14.06,0 -18.75,1.56 -15.62,0 -39.06,-9.38 -54.68,-14.06 3.12,-1.56 6.25,-1.56 6.25,-4.69 3.12,-7.81 -7.82,-21.87 7.81,-25 1.56,0 4.69,0 6.25,0 0,0 26.56,1.56 26.56,1.56 0,0 15.63,-1.56 15.63,-1.56 7.81,1.56 9.37,6.25 20.31,6.25 0,0 39.06,-6.25 39.06,-6.25 15.63,0 20.31,15.63 37.5,6.25 14.06,-7.81 29.69,-37.5 35.94,-51.56 0,0 17.19,-32.82 17.19,-32.82 0,0 7.81,-23.43 7.81,-23.43 7.81,-17.19 14.06,-25 14.06,-45.31 0,0 0,-29.69 0,-29.69 0,-12.5 -1.56,-21.88 -15.62,-10.94 -10.94,9.37 -15.63,20.31 -31.25,17.19 -6.25,18.75 -6.25,43.75 -26.57,53.12 -7.81,4.69 -15.62,1.56 -23.43,3.13 -4.69,1.56 -10.94,4.69 -14.07,3.12 -4.68,0 -7.81,-3.12 -7.81,-7.81 1.56,-6.25 12.5,-9.38 17.19,-10.94 15.62,-4.68 23.44,-6.25 35.94,-18.75 7.81,-9.37 9.37,-17.19 15.62,-25 6.25,-6.25 10.94,-4.69 17.19,-10.93 4.69,-4.69 14.06,-20.32 18.75,-26.57 0,0 25,-54.69 25,-54.69 10.94,-15.62 26.56,-17.18 32.81,-37.5 0,0 1.56,7.82 1.56,7.82 17.19,-6.25 18.75,-21.88 17.19,-37.5 9.38,0 28.13,3.12 35.94,1.56 0,0 37.5,-18.75 37.5,-18.75 9.37,-4.69 25,-14.06 28.12,-23.44 3.13,-6.25 -4.68,-28.12 -7.81,-32.81 -1.56,-3.12 -3.12,-4.69 -6.25,-6.25 -7.81,-3.13 -18.75,-1.56 -23.44,-12.5 -6.25,-9.37 -10.93,-40.63 -15.62,-53.13 -9.38,-32.81 -10.94,-26.56 -15.63,-39.06 -3.12,-7.81 -1.56,-15.62 -1.56,-23.44 -1.56,-6.24 -4.69,-10.93 -4.69,-14.06 0,-6.25 4.69,-9.37 9.38,-14.06 7.81,-10.94 7.81,-20.31 15.62,-26.56 6.25,-4.69 10.94,-1.56 14.07,-6.25 10.93,-12.5 -10.94,-25 -1.57,-39.07 4.69,-6.24 17.19,-17.18 25,-17.18 6.25,-1.56 10.94,1.56 17.19,0 6.25,-3.13 7.81,-14.06 10.94,-20.32 7.81,-15.62 17.19,-14.06 21.87,-35.93 1.57,-7.81 3.13,-18.75 0,-25 -6.25,-9.38 -17.18,-3.13 -20.31,3.12 -6.25,7.81 -6.25,18.75 -6.25,28.13 -1.56,9.37 -4.69,21.87 -10.94,29.68 -7.81,10.94 -20.31,1.57 -23.43,-4.68 -1.57,-3.13 0,-6.25 0,-9.38 1.56,-12.5 -1.57,-17.18 3.12,-31.25 1.56,-6.25 9.38,-23.43 7.81,-26.56 0,-4.69 -12.5,-21.87 -15.62,-26.56 -6.25,-7.81 -17.19,-25 -29.69,-18.75 -10.94,4.68 -10.94,25 -14.06,35.94 -1.56,4.68 -4.69,14.06 -9.38,14.06 -3.12,1.56 -7.81,-3.13 -10.93,-6.25 -7.82,-9.38 -12.5,-15.63 -12.5,-29.69 4.68,1.56 17.18,6.25 18.75,0 0,-6.25 -6.25,-17.19 -12.5,-17.19 -6.25,-1.56 -7.82,4.69 -15.63,-1.56 -6.25,-6.25 -18.75,-32.81 -25,-42.19 -7.81,-12.5 -20.31,-23.44 -32.81,-31.25 -7.81,-3.12 -32.81,-15.62 -40.63,-10.93 -3.12,1.56 -3.12,6.24 -4.68,9.37 -1.57,-1.56 -3.13,-3.13 -6.25,-3.13 -10.94,-3.12 -15.63,9.38 -17.19,17.19 0,3.13 0,9.38 -4.69,10.94 -4.69,1.56 -7.81,-1.56 -10.94,-4.69 -7.81,-6.25 -7.81,-7.81 -18.75,-12.5 1.57,6.25 3.13,12.5 6.25,18.75 7.82,12.5 14.07,12.5 10.94,28.13 -12.5,-6.25 -26.56,-14.06 -34.37,-25 0,0 12.5,-3.13 12.5,-3.13 0,0 0,-3.12 0,-3.12 -4.69,-3.13 -20.32,-17.19 -20.32,-23.44 0,-4.69 6.25,-4.69 6.25,-9.37 1.57,-4.69 -3.12,-7.82 0,-14.07 4.69,-4.69 14.07,-7.81 14.07,-14.06 0,-3.13 -3.13,-6.25 -6.25,-7.81 -6.25,-4.69 -17.19,-14.06 -25,-7.82 -6.25,4.69 -3.13,15.63 -7.82,29.69 -4.68,-1.56 -12.5,-6.25 -17.18,-7.81 -6.25,-1.56 -14.07,1.56 -21.88,-3.12 -10.94,-4.69 -14.06,-14.07 -23.44,-18.76 -17.18,-9.37 -32.81,-6.24 -50,-4.68 -7.81,0 -20.31,0 -28.12,3.12 -6.25,3.13 -9.38,7.82 -12.5,12.5 -7.81,7.82 -21.88,10.94 -21.88,23.44 1.57,10.94 10.94,12.5 14.07,15.62 0,0 7.81,20.32 7.81,20.32 -10.94,1.56 -15.63,-1.56 -25,-1.56 0,0 -37.5,4.68 -37.5,4.68 -18.75,-1.56 -23.44,-12.5 -34.38,-18.75 -6.25,-3.12 -10.93,-3.12 -15.62,-6.25 -4.69,-4.68 -4.69,-9.37 -6.25,-10.94 -3.13,-4.68 -18.75,-7.81 -23.44,-7.81 0,3.13 0,4.69 -3.12,7.81 -3.13,4.69 -17.19,10.94 -23.44,10.94 -3.13,1.56 -7.81,0 -10.94,-1.56 0,0 1.56,-6.25 1.56,-6.25 1.57,-7.81 -3.12,-7.81 -9.37,-6.25 -9.38,1.56 -15.63,7.81 -23.44,12.5 3.13,-4.69 6.25,-10.94 10.94,-15.62 6.25,-4.69 14.06,-6.26 21.87,-9.38 0,0 25,-12.5 25,-12.5 6.25,-3.12 15.63,-6.25 20.32,-9.38 14.06,-9.37 20.31,-42.18 18.75,-59.37 -25,7.81 -18.75,9.37 -35.94,17.19 -6.25,3.12 -9.38,3.12 -14.06,4.68 -4.69,3.13 -6.25,7.82 -7.82,12.5 z m 170.32,-42.182 c 0,0 14.06,12.502 14.06,12.502 0,0 9.37,21.87 9.37,21.87 9.38,-3.12 10.94,-6.25 17.19,-7.81 3.13,-1.56 21.88,4.69 18.75,-7.81 -1.56,-1.57 -3.12,-3.13 -4.69,-4.69 0,0 -1.56,4.69 -1.56,4.69 -4.69,-4.69 -10.94,-10.94 -17.19,-14.07 -6.25,-3.12 -28.12,-4.682 -35.93,-4.682 z m 51.56,12.502 c 21.87,0 18.75,-6.25 31.25,-6.25 6.25,-1.57 15.62,1.56 21.87,3.12 0,0 -1.56,6.25 -1.56,6.25 12.5,6.25 12.5,-1.56 21.88,1.56 9.37,4.69 14.06,17.19 29.68,23.44 6.25,3.13 9.38,4.69 15.63,1.56 3.12,6.26 4.69,6.26 10.94,6.26 1.56,-7.82 6.25,-9.38 4.68,-14.07 -1.56,-4.69 -17.18,-12.5 -20.31,3.13 -4.69,-7.82 -1.56,-9.38 -3.12,-14.06 -4.69,-7.82 -15.63,-9.38 -23.44,-7.82 -1.56,-15.622 0,-10.94 -20.31,-23.435 -6.25,-4.687 -20.32,-12.5 -28.13,-14.063 -9.37,-1.562 -12.5,4.688 -20.31,7.813 -4.69,4.687 -9.38,3.125 -14.06,6.25 -4.69,4.687 -4.69,14.065 -4.69,20.315 z m 334.37,-39.065 c 0,0 17.19,23.437 17.19,23.437 6.25,10.938 12.5,21.878 20.31,31.248 6.25,6.25 15.63,10.94 25,9.38 6.25,-1.56 26.57,-18.75 12.5,-28.13 -4.68,-3.12 -12.5,0 -17.18,0 1.56,-10.935 1.56,-17.185 0,-28.122 0,-3.126 0,-9.376 -6.25,-7.813 -7.82,3.125 -1.57,26.563 -12.5,18.75 0,0 -4.69,-3.125 -4.69,-3.125 0,0 -4.69,-4.688 -4.69,-4.688 -6.25,6.25 0,9.376 4.69,15.626 6.25,6.252 10.94,12.502 10.94,21.872 -15.63,-12.5 -15.63,-21.872 -25,-35.935 -6.25,-7.813 -10.94,-12.5 -20.32,-12.5 z m 68.75,-9.375 c 3.13,10.938 17.19,35.938 28.13,40.62 -6.25,-14.058 -14.06,-34.37 -28.13,-40.62 z m -1157.81,10.938 c 4.69,0 10.94,0 14.06,0 0,0 39.07,15.624 39.07,15.624 10.93,3.126 21.87,4.688 28.12,15.628 -20.31,0 -15.62,-3.13 -31.25,-7.815 -14.06,-3.125 -18.75,0 -29.69,-1.563 -6.25,-1.562 -9.37,-3.124 -14.06,-4.687 0,0 -42.19,3.125 -42.19,3.125 -10.93,-1.562 -12.5,-9.375 -18.75,-12.5 -6.25,-4.688 -12.5,-3.125 -18.75,0 -10.93,3.125 -21.87,9.375 -32.81,15.625 -20.31,10.935 -43.75,23.435 -59.37,40.625 -10.94,12.5 -9.38,20.31 -20.32,32.81 -10.93,10.94 -34.37,20.31 -51.56,39.07 -12.5,14.06 -12.5,23.43 -17.19,28.12 -3.12,3.12 -23.43,12.5 -28.12,14.06 -4.69,1.56 -9.38,1.56 -12.5,3.13 -4.69,3.12 -7.81,7.81 -10.94,12.5 0,0 -17.19,15.62 -17.19,15.62 -4.68,6.25 -23.43,29.69 -25,35.94 -1.56,10.94 15.63,17.19 4.69,31.25 -1.56,1.56 -3.12,3.12 -4.69,4.69 -10.93,6.25 -12.5,-4.69 -20.31,-6.25 -9.37,-3.13 -25,7.81 -32.81,0 -4.69,-6.25 -1.56,-14.06 -1.56,-20.32 -1.57,-7.81 -4.69,-10.93 -6.25,-17.18 -3.13,-7.82 1.56,-21.88 -7.82,-37.5 -4.68,-9.38 -10.93,-12.5 -17.18,-1.56 0,0 -4.69,9.37 -4.69,9.37 -4.69,-14.06 0,-25 -10.94,-28.13 -14.06,-3.12 -20.31,14.07 -29.69,23.44 -23.43,23.44 -26.56,20.32 -43.75,31.25 0,0 -23.43,20.31 -23.43,20.31 0,0 -14.07,7.82 -14.07,7.82 -7.81,6.25 -14.06,20.31 -18.75,29.68 0,0 -21.87,60.94 -21.87,60.94 -4.69,12.5 -12.5,32.82 -26.56,35.94 -4.69,1.56 -18.75,0 -23.44,-1.56 -4.69,-3.13 -7.81,-7.82 -12.5,-9.38 -4.69,0 -17.19,0 -28.13,-6.25 -6.25,-6.25 -14.06,-18.75 -20.31,-21.87 -6.25,-3.13 -12.5,-3.13 -18.75,-3.13 -7.81,0 -18.75,0 -25,-1.56 -15.62,-6.25 -23.44,-31.25 -28.12,-45.31 -1.57,-6.25 -4.69,-15.63 -9.38,-18.75 -6.25,-6.25 -15.62,3.12 -23.44,0 -6.25,-1.57 -18.75,-17.19 -26.56,-21.88 -1.56,-1.56 -6.25,-6.25 -9.37,-4.69 -3.13,0 -4.69,6.26 -6.25,9.38 -1.57,12.5 1.56,15.62 7.81,25 1.56,1.56 6.25,7.81 1.56,10.94 -7.81,4.68 -15.62,-20.32 -25,-9.38 -1.56,3.13 -1.56,4.69 -3.12,6.25 0,0 -3.13,0 -3.13,0 0,0 -4.69,-26.56 -4.69,-26.56 0,0 0,-10.94 0,-10.94 0,0 -7.81,-25 -7.81,-25 0,0 -14.06,10.94 -14.06,10.94 0,0 -1.56,-14.06 -1.56,-14.06 0,0 -3.13,-10.94 -3.13,-10.94 -1.56,-7.81 -7.81,-7.81 -14.06,-4.69 -12.5,7.82 -21.88,20.32 -29.69,25 -9.373,4.69 -15.623,0 -21.873,1.56 -7.813,3.13 -14.063,12.5 -17.188,20.32 0,0 -18.75,62.5 -18.75,62.5 -15.625,48.44 -23.437,59.37 -23.437,112.5 0,0 3.125,29.68 3.125,29.68 0,0 1.562,40.63 1.562,40.63 0,0 3.125,20.31 3.125,20.31 0,0 3.125,0 3.125,0 0,-20.31 4.688,-57.81 12.5,-76.56 7.813,-20.31 17.188,-23.44 20.313,-48.44 0,0 1.562,20.32 1.562,20.32 9.375,-7.82 9.375,-14.07 21.876,-18.76 3.125,7.82 4.687,9.38 6.25,18.76 1.562,7.81 1.562,14.06 4.687,21.87 3.123,7.81 6.253,9.37 9.373,15.63 3.13,4.68 4.69,12.5 6.25,18.74 3.13,10.94 4.69,28.13 17.19,32.82 6.25,-10.94 6.25,-25 7.81,-37.5 1.56,-3.13 3.13,-12.5 6.25,-14.06 7.81,-1.57 9.38,12.5 9.38,17.18 3.12,12.5 4.68,28.13 10.93,39.06 6.25,14.07 12.5,12.5 20.32,34.38 0,0 3.12,-7.81 3.12,-7.81 3.13,10.93 -3.12,18.75 7.81,26.56 0,-6.25 1.57,-32.81 4.69,-37.5 1.56,-3.13 6.25,-3.13 9.38,-3.13 0,0 1.56,53.13 1.56,53.13 0,6.25 1.56,14.06 4.69,18.75 7.81,9.38 18.75,3.12 21.87,10.94 0,0 3.13,28.12 3.13,28.12 3.12,20.32 7.81,45.32 14.06,64.06 4.69,14.07 10.94,32.82 20.31,43.76 3.13,4.68 7.81,10.93 14.06,9.37 6.25,-1.56 4.69,-9.37 6.25,-14.06 1.57,-6.25 4.69,-7.81 6.25,-12.5 1.57,-7.81 0,-17.19 4.69,-23.44 -3.12,9.37 0,10.94 0,20.31 0,12.5 1.56,26.56 4.69,39.06 4.69,18.76 7.81,35.94 17.19,53.13 6.25,10.94 21.87,25 31.25,34.37 12.5,15.63 25,29.69 40.62,43.76 0,0 18.75,15.62 18.75,15.62 0,0 15.63,12.5 15.63,12.5 14.06,9.38 17.18,-4.69 26.56,-4.69 4.69,1.57 20.31,15.63 25,20.31 23.44,26.57 15.62,18.76 31.25,42.19 0,0 35.94,46.88 35.94,46.88 9.37,10.93 20.31,31.25 34.37,34.37 0,0 14.06,3.13 14.06,3.13 15.63,4.69 32.82,12.5 50,9.37 6.25,0 10.94,-3.12 14.07,-6.25 4.68,-4.69 7.81,-10.93 14.06,-10.93 6.25,1.56 20.31,9.37 26.56,12.5 15.63,9.37 37.5,25 54.69,29.68 17.19,4.69 31.25,-7.81 29.69,-20.31 -3.13,-12.5 -20.32,-26.56 -28.13,-46.87 -7.81,-17.19 -12.5,-35.94 -21.87,-51.57 0,0 -21.88,-32.81 -21.88,-32.81 0,0 -12.5,-25 -12.5,-25 0,0 -6.25,-10.94 -6.25,-10.94 -1.56,-3.12 -3.12,-14.06 -3.12,-18.75 0,0 -12.5,-45.31 -12.5,-45.31 -6.25,-15.62 -21.88,-15.62 -29.69,-37.5 6.25,9.38 18.75,21.88 28.12,26.56 -3.12,-12.5 -10.93,-32.81 -17.18,-43.75 0,0 -14.07,-17.19 -14.07,-17.19 7.82,7.82 14.07,14.07 25,17.19 0,0 4.69,-12.5 4.69,-12.5 6.25,-12.5 10.94,-14.06 12.5,-29.69 1.56,-26.56 -18.75,-67.18 -18.75,-100 0,-14.06 4.69,-28.12 7.81,-42.18 0,0 3.13,-25 3.13,-25 0,-4.69 3.12,-7.82 4.69,-14.06 0,0 1.56,-17.19 1.56,-17.19 3.12,-9.38 4.69,-12.5 4.69,-21.88 0,0 -4.69,-26.56 -4.69,-26.56 0,0 1.56,-18.75 1.56,-18.75 0,0 0,-25 0,-25 0,-18.75 10.94,-26.56 14.06,-39.06 1.57,-6.25 -4.68,-23.44 -7.81,-26.56 -4.69,-3.13 -15.62,-1.57 -10.94,-9.38 4.69,-7.81 17.19,7.81 20.32,12.5 6.25,-15.62 3.12,-18.75 1.56,-32.81 0,0 -1.56,-40.63 -1.56,-40.63 -1.57,-10.94 -7.82,-17.18 -7.82,-21.87 1.57,-4.69 6.25,-4.69 12.5,-10.94 6.25,-6.25 9.38,-14.06 10.94,-21.87 0,0 3.13,-26.57 3.13,-26.57 3.12,-12.5 15.62,-28.12 29.68,-31.25 14.07,-1.56 26.57,14.06 34.38,14.06 7.81,0 12.5,-7.81 15.62,-12.5 0,0 23.44,-50 23.44,-50 0,0 3.13,0 3.13,0 6.25,14.07 14.06,17.19 23.43,28.13 0,0 7.82,10.94 7.82,10.94 1.56,1.56 4.68,0 7.81,-1.57 6.25,-6.24 15.62,-31.24 12.5,-39.06 -1.56,-6.25 -7.81,-12.5 -9.38,-20.31 0,-4.69 3.13,-9.37 6.25,-14.06 4.69,-9.38 7.82,-20.31 15.63,-26.57 15.62,-14.06 43.75,-14.06 59.37,0 7.82,7.82 6.25,12.5 9.38,17.19 4.69,6.25 12.5,6.25 14.06,15.63 0,3.12 -1.56,10.94 -3.12,15.62 0,9.38 1.56,12.5 -3.13,21.88 -6.25,9.37 -15.62,15.62 -20.31,26.56 -6.25,12.5 1.56,14.06 -1.56,25 -4.69,10.94 -14.07,18.75 -18.75,29.69 -4.69,6.25 -4.69,12.5 -12.5,17.19 -6.25,3.12 -15.63,1.56 -21.88,1.56 -9.37,1.56 -17.19,6.25 -25,9.37 0,3.13 0,6.25 1.56,9.38 1.57,9.37 9.38,9.37 17.19,7.81 12.5,-1.56 29.69,-9.38 40.63,1.56 9.37,10.94 9.37,40.63 17.18,51.56 7.82,7.82 14.07,7.82 23.44,10.94 6.25,3.13 10.94,6.25 15.63,10.94 10.93,10.94 6.25,18.75 10.93,26.56 4.69,4.69 9.38,3.13 14.07,9.38 0,0 18.75,39.06 18.75,39.06 0,0 17.18,-12.5 17.18,-12.5 4.69,6.25 10.94,6.25 12.5,-1.56 0,-4.69 -1.56,-14.06 -3.12,-18.75 9.37,10.93 9.37,18.75 7.81,32.81 0,3.12 -1.56,6.25 0,9.38 0,6.24 6.25,18.74 10.94,23.43 6.25,4.69 10.94,3.13 17.19,0 6.25,-7.81 10.93,-21.87 20.31,-31.25 7.81,-7.81 21.87,-9.37 35.94,-23.44 -3.13,-1.56 -12.5,-6.24 -10.94,-10.93 3.12,-6.25 12.5,-6.25 18.75,-9.38 9.37,-6.25 17.19,-17.19 20.31,-28.12 0,0 -18.75,-3.13 -18.75,-3.13 0,0 -10.94,-3.12 -10.94,-3.12 0,0 -15.62,0 -15.62,0 0,0 -14.06,-12.5 -14.06,-12.5 0,0 -21.88,-3.13 -21.88,-3.13 4.69,-7.81 7.81,-12.5 17.19,-12.5 4.69,0 10.94,3.13 14.06,1.57 6.25,-1.57 6.25,-7.82 10.94,-10.94 9.37,-9.38 21.87,-10.94 25,-23.44 12.5,3.12 15.62,0 21.87,1.56 12.5,6.25 14.07,29.69 18.75,42.19 -15.62,-6.25 -14.06,7.81 -15.62,18.75 6.25,-3.12 14.06,-10.94 20.31,-12.5 0,0 20.31,1.56 20.31,1.56 4.69,0 6.25,-1.56 10.94,-3.12 10.94,-1.56 17.19,6.25 21.88,15.62 6.25,-3.12 6.25,-6.25 3.12,-12.5 0,0 7.81,0 7.81,0 0,0 -3.12,-12.5 -3.12,-12.5 -7.81,0 -9.38,-1.56 -12.5,6.25 -6.25,-4.69 -6.25,-4.69 -14.06,-6.25 0,0 6.25,-4.68 6.25,-4.68 0,0 0,-3.13 0,-3.13 -12.5,-7.81 3.12,-10.94 6.25,-18.75 1.56,-4.69 0,-7.81 -1.57,-10.94 0,0 20.32,-6.25 20.32,-6.25 9.37,-9.37 15.62,-1.56 20.31,-12.5 15.62,4.69 12.5,-15.62 25,-18.75 3.12,-1.56 7.81,0 10.94,0 4.68,-1.56 9.37,-3.12 14.06,-4.68 6.25,0 9.37,0 15.62,-1.57 6.25,-3.12 12.5,-10.93 17.19,-15.62 3.13,-3.13 9.38,-7.81 10.94,-10.94 1.56,-4.69 0,-9.37 0,-17.19 6.25,1.56 10.94,1.56 15.62,-3.12 4.69,-3.13 4.69,-9.38 -1.56,-12.5 -1.56,0 -6.25,0 -7.81,0 0,0 23.44,-17.19 23.44,-17.19 0,0 6.25,-18.75 6.25,-18.75 0,0 -6.25,1.56 -6.25,1.56 0,0 3.12,-9.37 3.12,-9.37 0,0 -17.19,0 -17.19,0 3.13,-3.13 12.5,-12.5 15.63,-15.63 7.81,-4.68 15.62,-3.12 20.31,-12.5 -15.62,1.56 -35.94,14.06 -46.87,25 0,0 -17.19,18.75 -17.19,18.75 0,0 1.56,-6.25 1.56,-6.25 -15.62,3.13 -15.62,12.5 -21.87,15.63 0,0 -3.13,1.56 -3.13,1.56 4.69,0 -26.56,-1.56 -21.87,0 -7.82,-1.56 -15.63,-9.37 -21.88,-15.63 -4.69,-4.68 -7.81,-9.37 -14.06,-6.24 0,0 -26.56,-25 -26.56,-25 3.12,-3.13 4.68,-4.69 1.56,-7.82 -3.13,-3.12 -10.94,-6.25 -17.19,-10.94 -10.94,-10.93 -9.37,-20.31 -9.37,-34.37 0,-12.5 -1.57,-12.5 -4.69,-23.44 -1.56,-4.69 -1.56,-7.81 -4.69,-12.5 -3.12,-4.69 -10.94,-10.93 -15.62,-15.62 -6.25,-6.25 -14.07,-14.07 -21.88,-15.63 -10.94,-3.122 -20.31,3.13 -29.69,0 -7.81,-3.122 -17.18,-14.06 -26.56,-18.748 -6.25,-1.562 -14.06,-1.562 -20.31,-1.562 0,-3.125 0,-9.375 -3.13,-10.938 -4.68,-3.124 -14.06,0 -20.31,0 -6.25,0 -7.81,-4.687 -12.5,-6.25 -4.69,-1.562 -26.56,-3.124 -29.69,0 -3.12,1.563 -1.56,6.25 -1.56,9.376 z m 1123.44,-62.5 c 10.94,17.187 31.25,40.624 50,45.312 -4.69,-9.375 -9.38,-10.938 -15.63,-17.188 -9.37,-7.812 -25,-23.437 -34.37,-28.124 z M 2962.5,837.5 c 0,0 -3.12,-7.812 -3.12,-7.812 6.25,3.124 12.5,6.25 15.62,12.5 1.56,4.687 1.56,7.812 1.56,12.5 0,9.374 14.07,31.25 23.44,32.812 3.13,1.562 3.13,0 6.25,0 0,0 -4.69,-31.25 -4.69,-31.25 -3.12,-4.688 -7.81,-3.125 -12.5,-9.375 0,0 -28.12,-40.625 -28.12,-40.625 -1.56,-3.125 -7.81,-12.5 -6.25,-17.188 3.12,-3.124 10.94,-3.124 14.06,-3.124 0,0 -26.56,-29.688 -26.56,-29.688 -3.13,-3.125 -7.81,-9.375 -14.06,-7.812 -6.25,1.562 -9.38,9.374 -12.5,14.062 -3.13,4.688 -7.82,9.375 -7.82,14.062 1.57,6.25 7.82,14.063 10.94,18.75 0,0 25,25 25,25 6.25,7.813 9.38,12.5 18.75,17.188 z m 401.57,32.812 c -1.57,-23.437 -14.07,-46.874 -29.69,-65.624 0,0 -25,-25 -25,-25 -9.38,-12.5 -18.75,-32.813 -32.82,-48.438 -15.62,-15.625 -28.12,-20.312 -42.18,-32.812 0,0 -23.44,-25 -23.44,-25 0,0 -42.19,-42.188 -42.19,-42.188 -10.94,-10.938 -23.44,-28.125 -31.25,-40.625 -7.81,-14.063 -4.69,-18.75 -9.37,-25 -3.13,-4.687 -15.63,-10.937 -21.88,-12.5 0,0 3.13,-6.25 3.13,-6.25 0,0 -10.94,-6.25 -10.94,-6.25 7.81,-12.5 -1.56,-9.375 -9.38,-21.875 -3.12,-4.688 -3.12,-10.938 -7.81,-20.312 -7.81,-10.938 -18.75,-20.313 -29.69,-28.126 0,0 -53.12,-35.937 -53.12,-35.937 -17.19,-10.937 -40.63,-26.563 -60.94,-29.687 -15.62,-1.563 -26.56,6.25 -42.19,7.812 -14.06,1.562 -43.75,-1.562 -54.68,10.938 -10.94,10.937 10.93,34.374 18.75,43.75 0,0 21.87,26.562 21.87,26.562 6.25,7.812 7.81,12.5 14.06,21.875 6.25,6.25 18.75,15.625 23.44,23.437 4.69,7.813 -4.69,9.376 1.56,20.313 4.69,9.375 17.19,21.875 20.32,31.25 1.56,6.25 1.56,15.625 6.25,20.313 4.68,3.124 10.93,0 15.62,0 7.81,-1.563 31.25,-10.938 37.5,-6.25 6.25,4.687 26.56,29.687 31.25,35.937 3.13,3.125 9.38,10.937 7.81,15.625 0,7.812 -23.43,-3.125 -18.75,7.812 1.57,3.126 15.63,12.5 20.32,17.188 0,0 17.18,18.75 17.18,18.75 0,0 20.32,18.75 20.32,18.75 4.68,4.688 9.37,14.062 14.06,17.188 9.37,4.687 15.62,-6.25 23.44,0 15.62,9.374 25,32.812 40.62,48.437 10.94,7.813 14.06,6.25 23.44,10.937 7.81,4.688 12.5,10.938 20.31,17.188 12.5,7.812 14.06,3.125 28.13,17.188 18.75,18.75 34.37,37.5 50,57.812 6.25,7.812 21.87,25 29.69,28.125 1.56,0 3.12,0 4.68,0 0,0 18.75,-7.813 18.75,-7.813 0,0 1.57,0 1.57,-1.562 1.56,-4.688 1.56,-10.938 3.12,-15.625 1.56,-4.687 4.69,-6.25 6.25,-12.5 1.56,-4.687 1.56,-14.063 6.25,-15.625 4.69,-1.562 12.5,6.25 15.63,7.812 z M 3029.69,434.375 c 0,-6.25 -1.56,-7.813 -3.13,-14.063 -7.81,-14.062 -17.18,-23.437 -31.25,-29.687 -4.68,-1.563 -18.75,-6.25 -21.87,-1.563 -4.69,6.25 10.94,18.75 15.62,21.876 4.69,4.687 10.94,7.812 15.63,12.5 9.37,6.25 14.06,7.812 25,10.937 z M 2437.5,250 c 20.31,3.125 28.13,3.125 46.88,12.5 17.18,7.812 26.56,18.75 46.87,21.875 0,0 -20.31,-26.563 -20.31,-26.563 0,0 14.06,-7.812 14.06,-7.812 -6.25,-6.25 -9.37,-6.25 -15.62,-10.938 -3.13,-3.124 -3.13,-6.25 -6.25,-9.374 -3.13,0 -10.94,0 -14.07,0 -9.37,1.562 -17.18,3.124 -28.12,6.25 -9.38,1.562 -21.88,3.124 -23.44,14.062 z m 98.44,-34.375 c -3.13,7.813 -10.94,9.375 -18.75,14.063 1.56,1.562 1.56,3.124 3.12,4.687 4.69,3.125 29.69,9.375 35.94,10.937 15.63,1.563 17.19,-7.812 35.94,-9.374 0,0 23.44,-1.563 23.44,-1.563 21.87,0 51.56,1.563 71.87,-6.25 -6.25,-10.937 -10.94,-10.937 -21.87,-15.625 -17.19,-6.25 -35.94,-9.375 -54.69,-4.688 -17.19,3.126 -17.19,9.376 -39.06,9.376 0,0 -35.94,-1.563 -35.94,-1.563 z M 1921.88,2834.38 c -353.13,-109.38 71.87,21.87 0,0 z"
         style="font-size:12px;fill:#ffffff;fill-opacity:1" />
    </g>
    <g
       id="g1243">
      <g
         style="font-size:12px"
         transform="translate(-0.474472,1.525879e-5)"
         id="g903">
        <g
           id="g847">
          <path
             transform="matrix(0.675352,0.414961,-0.34273,0.551092,337.1457,37.47079)"
             sodipodi:nodetypes="csscssc"
             id="path664"
             d="m 119.382,127.638 c -12.209,24.574 -11.35,43.791 -10.328,58.837 0.717,8.53 1.697,14.166 4.475,24.153 2.778,9.988 6.539,25.1 6.661,35.538 0.133,-10.362 2.991,-25.6 5.339,-33.94 2.347,-8.341 4.668,-18.549 4.959,-26.246 0.348,-15.653 1.04,-34.105 -11.106,-58.342 z"
             style="font-size:12px;fill:#ffffff;fill-rule:evenodd;stroke-width:1pt" />
          <g
             style="font-size:12px"
             id="g718">
            <path
               transform="matrix(0.06614187,0.896429,0.987543,0.07300016,217.5379,416.2006)"
               sodipodi:nodetypes="csscssc"
               id="path705"
               d="m 105.375,119.116 c -3.069,27.507 1.382,53.471 3.679,67.359 2.063,8.174 3.017,13.902 5.795,23.889 2.778,9.988 7.399,31.854 8.462,41.984 0.268,-8.757 0.645,-32.2 1.817,-40.937 0.924,-8.708 1.731,-15.455 2.897,-24.194 2.192,-20.281 -4.554,-49.699 -22.65,-68.101 z"
               style="font-size:12px;fill:#ffffff;fill-rule:evenodd;stroke:none;stroke-width:1pt;stroke-opacity:1" />
            <path
               transform="matrix(0.762059,-0.465422,0.63157,0.769607,209.8484,432.3975)"
               sodipodi:nodetypes="csscssc"
               id="path704"
               d="m 119.411,131.086 c -12.209,24.574 -11.379,40.343 -10.357,55.389 0.717,8.53 2.851,15.348 8.665,23.909 6.436,9.057 22.497,20.702 32.897,27.134 -7.03,-7.618 -16.132,-17.931 -18.745,-26.224 -2.659,-7.967 -1.674,-17.617 -1.383,-25.314 0.348,-15.653 1.069,-30.657 -11.077,-54.894 z"
               style="font-size:12px;fill:#ffffff;fill-rule:evenodd;stroke:none;stroke-width:1pt;stroke-opacity:1" />
          </g>
          <g
             style="font-size:12px"
             id="g721">
            <path
               transform="matrix(-0.29704,0.819137,0.813681,0.435394,233.5597,305.4356)"
               sodipodi:nodetypes="csscssc"
               id="path702"
               d="m 114.62,121.491 c -9.394,23.397 -5.024,49.284 -4.002,64.33 0.717,8.53 2.758,14.355 6.407,23.986 3.934,9.328 9.27,28.538 12.535,39.644 1.051,-11.36 -0.737,-28.948 -0.783,-37.358 -0.271,-8.597 1.42,-18.416 1.711,-26.113 0.348,-15.653 -0.143,-42.865 -15.868,-64.489 z"
               style="font-size:12px;fill:#ffffff;fill-rule:evenodd;stroke:none;stroke-width:1pt;stroke-opacity:1" />
            <path
               transform="matrix(0.833624,-0.126335,0.235329,0.919017,220.5993,316.4285)"
               sodipodi:nodetypes="csscssc"
               id="path701"
               d="m 119.41,133.147 c -9.453,25.82 -9.991,37.606 -7.813,51.943 1.23,8.439 1.06,15.38 5.559,24.724 4.513,8.925 15.154,23.674 27.084,31.24 -8.786,-10.767 -12.932,-20.149 -13.9,-29.064 -0.709,-8.551 -0.143,-18.313 0.148,-26.01 0.348,-15.653 1.068,-28.596 -11.078,-52.833 z"
               style="font-size:12px;fill:#ffffff;fill-rule:evenodd;stroke:none;stroke-width:1pt;stroke-opacity:1" />
          </g>
          <g
             style="font-size:12px"
             id="g724">
            <path
               transform="matrix(-0.501116,0.712812,0.671328,0.633219,250.9268,220.8291)"
               sodipodi:nodetypes="csscssc"
               id="path699"
               d="m 112.858,124.225 c -7.629,22.746 -4.826,47.204 -3.804,62.25 0.717,8.53 3.017,13.902 5.795,23.889 2.778,9.988 11.575,22.832 17.293,34.076 -4.291,-11.417 -3.88,-23.021 -3.301,-31.658 0.411,-8.672 1.356,-19.105 1.647,-26.802 0.348,-15.653 -1.556,-39.87 -17.63,-61.755 z"
               style="font-size:12px;fill:#ffffff;fill-rule:evenodd;stroke:none;stroke-width:1pt;stroke-opacity:1" />
            <path
               transform="matrix(0.837625,0.09629924,-0.01345914,0.948573,235.5406,228.0458)"
               sodipodi:nodetypes="csscssc"
               id="path698"
               d="m 119.382,127.638 c -12.209,24.574 -9.268,40.789 -8.098,55.813 1.065,10.588 4.231,17.211 9.034,26.413 5.174,10.097 11.522,19.975 18.223,30.173 -4.786,-9.977 -6.821,-19.829 -7.831,-28.107 -1.278,-8.45 -0.513,-18.253 -0.222,-25.95 0.348,-15.653 1.04,-34.105 -11.106,-58.342 z"
               style="font-size:12px;fill:#ffffff;fill-rule:evenodd;stroke:none;stroke-width:1pt;stroke-opacity:1" />
          </g>
          <g
             style="font-size:12px"
             id="g727">
            <path
               transform="matrix(-0.6636,0.491273,0.476894,0.738491,290.9689,160.3364)"
               sodipodi:nodetypes="csscssc"
               id="path696"
               d="m 119.382,127.638 c -12.209,24.574 -10.327,40.448 -8.867,55.436 0.645,8.848 5.103,20.997 8.597,29.042 4.472,10.932 10.381,23.724 14.906,35.909 -0.604,-11.68 -3.67,-24.063 -3.303,-33.845 0.029,-8.648 -0.518,-20.503 -0.227,-28.2 0.348,-15.653 1.04,-34.105 -11.106,-58.342 z"
               style="font-size:12px;fill:#ffffff;fill-rule:evenodd;stroke:none;stroke-width:1pt;stroke-opacity:1" />
            <path
               transform="matrix(0.775055,0.311312,-0.259001,0.830543,274.4003,162.52)"
               sodipodi:nodetypes="csscssc"
               id="path695"
               d="m 119.382,127.638 c -12.209,24.574 -9.45,43.319 -8.428,58.365 0.716,8.53 5.754,21.612 9.633,28.45 5.395,9.023 13.147,19.28 19.848,29.478 -4.786,-9.977 -8.475,-21.979 -10.017,-30.909 -1.422,-8.426 -1.049,-19.515 -0.758,-27.212 0.348,-15.653 1.868,-33.935 -10.278,-58.172 z"
               style="font-size:12px;fill:#ffffff;fill-rule:evenodd;stroke:none;stroke-width:1pt;stroke-opacity:1" />
          </g>
          <g
             style="font-size:12px"
             id="g733">
            <path
               transform="matrix(-0.816969,0.06729826,0.06729826,0.816969,407.5899,67.8589)"
               sodipodi:nodetypes="csscssc"
               id="path676"
               d="m 119.382,127.638 c -12.209,24.574 -9.326,38.745 -8.304,53.791 0.717,8.53 2.892,18.304 5.67,28.291 2.778,9.988 12.621,24.192 17.746,35.983 -4.276,-15.63 -4.078,-24.453 -4.674,-33.32 -0.816,-8.627 -0.108,-18.666 0.668,-26.403 1.079,-15.62 1.04,-34.105 -11.106,-58.342 z"
               style="font-size:12px;fill:#ffffff;fill-rule:evenodd;stroke:none;stroke-width:1pt;stroke-opacity:1" />
            <path
               transform="matrix(0.532683,0.623069,-0.623069,0.532683,391.9935,61.54626)"
               sodipodi:nodetypes="csscssc"
               id="path674"
               d="m 119.382,127.638 c -12.209,24.574 -10.006,43.341 -8.984,58.387 0.717,8.53 3.073,17.34 7.566,26.682 4.808,9.484 13.356,19.732 20.057,29.93 -4.786,-9.977 -8.67,-21.982 -9.289,-30.233 -0.728,-7.402 0.814,-20.015 0.62,-27.715 -0.576,-16.443 0.909,-33.577 -9.97,-57.051 z"
               style="font-size:12px;fill:#ffffff;fill-rule:evenodd;stroke:none;stroke-width:1pt;stroke-opacity:1" />
          </g>
          <g
             id="g844">
            <path
               transform="matrix(-0.750512,0.344161,0.314675,0.820839,336.3612,98.19086)"
               sodipodi:nodetypes="csscssc"
               id="path687"
               d="m 107.069,125.195 c -4.73,24.698 -0.641,43.259 3.517,57.967 1.737,6.588 7.069,19.339 12.031,28.435 5.609,9.772 11.232,20.428 16.977,31.513 -2.753,-10.83 -4.205,-20.668 -5.92,-29.432 -1.163,-5.68 -2.137,-18.933 -3.944,-27.38 -2.673,-15.274 -5.268,-38.523 -22.661,-61.103 z"
               style="font-size:12px;fill:#ffffff;fill-rule:evenodd;stroke-width:1pt" />
            <path
               transform="matrix(0.69438,0.464179,-0.424409,0.759447,316.5091,101.9)"
               sodipodi:nodetypes="csscssc"
               id="path684"
               d="m 116.912,123.797 c -12.208,24.574 -9.478,47.898 -6.998,62.677 1.695,8.72 3.353,13.603 7.375,23.186 4.451,9.946 9.965,19.303 16.666,29.501 -4.786,-9.977 -4.582,-18.4 -6.093,-26.861 -1.256,-8.462 0.778,-23.229 0.289,-34.874 -0.954,-15.154 -1.622,-31.956 -11.239,-53.629 z"
               style="font-size:12px;fill:#ffffff;fill-rule:evenodd;stroke-width:1pt" />
          </g>
        </g>
        <g
           transform="matrix(-1,0,0,1,1073.611,1.525879e-5)"
           id="g883">
          <path
             transform="matrix(0.675352,0.414961,-0.34273,0.551092,337.1457,37.47079)"
             sodipodi:nodetypes="csscssc"
             id="path884"
             d="m 119.382,127.638 c -12.209,24.574 -11.35,43.791 -10.328,58.837 0.717,8.53 1.697,14.166 4.475,24.153 2.778,9.988 6.539,25.1 6.661,35.538 0.133,-10.362 2.991,-25.6 5.339,-33.94 2.347,-8.341 4.668,-18.549 4.959,-26.246 0.348,-15.653 1.04,-34.105 -11.106,-58.342 z"
             style="font-size:12px;fill:#ffffff;fill-rule:evenodd;stroke-width:1pt" />
          <g
             style="font-size:12px"
             id="g885">
            <path
               transform="matrix(0.06614187,0.896429,0.987543,0.07300016,217.5379,416.2006)"
               sodipodi:nodetypes="csscssc"
               id="path886"
               d="m 105.375,119.116 c -3.069,27.507 1.382,53.471 3.679,67.359 2.063,8.174 3.017,13.902 5.795,23.889 2.778,9.988 7.399,31.854 8.462,41.984 0.268,-8.757 0.645,-32.2 1.817,-40.937 0.924,-8.708 1.731,-15.455 2.897,-24.194 2.192,-20.281 -4.554,-49.699 -22.65,-68.101 z"
               style="font-size:12px;fill:#ffffff;fill-rule:evenodd;stroke:none;stroke-width:1pt;stroke-opacity:1" />
            <path
               transform="matrix(0.762059,-0.465422,0.63157,0.769607,209.8484,432.3975)"
               sodipodi:nodetypes="csscssc"
               id="path887"
               d="m 119.411,131.086 c -12.209,24.574 -11.379,40.343 -10.357,55.389 0.717,8.53 2.851,15.348 8.665,23.909 6.436,9.057 22.497,20.702 32.897,27.134 -7.03,-7.618 -16.132,-17.931 -18.745,-26.224 -2.659,-7.967 -1.674,-17.617 -1.383,-25.314 0.348,-15.653 1.069,-30.657 -11.077,-54.894 z"
               style="font-size:12px;fill:#ffffff;fill-rule:evenodd;stroke:none;stroke-width:1pt;stroke-opacity:1" />
          </g>
          <g
             style="font-size:12px"
             id="g888">
            <path
               transform="matrix(-0.29704,0.819137,0.813681,0.435394,233.5597,305.4356)"
               sodipodi:nodetypes="csscssc"
               id="path889"
               d="m 114.62,121.491 c -9.394,23.397 -5.024,49.284 -4.002,64.33 0.717,8.53 2.758,14.355 6.407,23.986 3.934,9.328 9.27,28.538 12.535,39.644 1.051,-11.36 -0.737,-28.948 -0.783,-37.358 -0.271,-8.597 1.42,-18.416 1.711,-26.113 0.348,-15.653 -0.143,-42.865 -15.868,-64.489 z"
               style="font-size:12px;fill:#ffffff;fill-rule:evenodd;stroke:none;stroke-width:1pt;stroke-opacity:1" />
            <path
               transform="matrix(0.833624,-0.126335,0.235329,0.919017,220.5993,316.4285)"
               sodipodi:nodetypes="csscssc"
               id="path890"
               d="m 119.41,133.147 c -9.453,25.82 -9.991,37.606 -7.813,51.943 1.23,8.439 1.06,15.38 5.559,24.724 4.513,8.925 15.154,23.674 27.084,31.24 -8.786,-10.767 -12.932,-20.149 -13.9,-29.064 -0.709,-8.551 -0.143,-18.313 0.148,-26.01 0.348,-15.653 1.068,-28.596 -11.078,-52.833 z"
               style="font-size:12px;fill:#ffffff;fill-rule:evenodd;stroke:none;stroke-width:1pt;stroke-opacity:1" />
          </g>
          <g
             style="font-size:12px"
             id="g891">
            <path
               transform="matrix(-0.501116,0.712812,0.671328,0.633219,250.9268,220.8291)"
               sodipodi:nodetypes="csscssc"
               id="path892"
               d="m 112.858,124.225 c -7.629,22.746 -4.826,47.204 -3.804,62.25 0.717,8.53 3.017,13.902 5.795,23.889 2.778,9.988 11.575,22.832 17.293,34.076 -4.291,-11.417 -3.88,-23.021 -3.301,-31.658 0.411,-8.672 1.356,-19.105 1.647,-26.802 0.348,-15.653 -1.556,-39.87 -17.63,-61.755 z"
               style="font-size:12px;fill:#ffffff;fill-rule:evenodd;stroke:none;stroke-width:1pt;stroke-opacity:1" />
            <path
               transform="matrix(0.837625,0.09629924,-0.01345914,0.948573,235.5406,228.0458)"
               sodipodi:nodetypes="csscssc"
               id="path893"
               d="m 119.382,127.638 c -12.209,24.574 -9.268,40.789 -8.098,55.813 1.065,10.588 4.231,17.211 9.034,26.413 5.174,10.097 11.522,19.975 18.223,30.173 -4.786,-9.977 -6.821,-19.829 -7.831,-28.107 -1.278,-8.45 -0.513,-18.253 -0.222,-25.95 0.348,-15.653 1.04,-34.105 -11.106,-58.342 z"
               style="font-size:12px;fill:#ffffff;fill-rule:evenodd;stroke:none;stroke-width:1pt;stroke-opacity:1" />
          </g>
          <g
             style="font-size:12px"
             id="g894">
            <path
               transform="matrix(-0.6636,0.491273,0.476894,0.738491,290.9689,160.3364)"
               sodipodi:nodetypes="csscssc"
               id="path895"
               d="m 119.382,127.638 c -12.209,24.574 -10.327,40.448 -8.867,55.436 0.645,8.848 5.103,20.997 8.597,29.042 4.472,10.932 10.381,23.724 14.906,35.909 -0.604,-11.68 -3.67,-24.063 -3.303,-33.845 0.029,-8.648 -0.518,-20.503 -0.227,-28.2 0.348,-15.653 1.04,-34.105 -11.106,-58.342 z"
               style="font-size:12px;fill:#ffffff;fill-rule:evenodd;stroke:none;stroke-width:1pt;stroke-opacity:1" />
            <path
               transform="matrix(0.775055,0.311312,-0.259001,0.830543,274.4003,162.52)"
               sodipodi:nodetypes="csscssc"
               id="path896"
               d="m 119.382,127.638 c -12.209,24.574 -9.45,43.319 -8.428,58.365 0.716,8.53 5.754,21.612 9.633,28.45 5.395,9.023 13.147,19.28 19.848,29.478 -4.786,-9.977 -8.475,-21.979 -10.017,-30.909 -1.422,-8.426 -1.049,-19.515 -0.758,-27.212 0.348,-15.653 1.868,-33.935 -10.278,-58.172 z"
               style="font-size:12px;fill:#ffffff;fill-rule:evenodd;stroke:none;stroke-width:1pt;stroke-opacity:1" />
          </g>
          <g
             style="font-size:12px"
             id="g897">
            <path
               transform="matrix(-0.816969,0.06729826,0.06729826,0.816969,407.5899,67.8589)"
               sodipodi:nodetypes="csscssc"
               id="path898"
               d="m 119.382,127.638 c -12.209,24.574 -9.326,38.745 -8.304,53.791 0.717,8.53 2.892,18.304 5.67,28.291 2.778,9.988 12.621,24.192 17.746,35.983 -4.276,-15.63 -4.078,-24.453 -4.674,-33.32 -0.816,-8.627 -0.108,-18.666 0.668,-26.403 1.079,-15.62 1.04,-34.105 -11.106,-58.342 z"
               style="font-size:12px;fill:#ffffff;fill-rule:evenodd;stroke:none;stroke-width:1pt;stroke-opacity:1" />
            <path
               transform="matrix(0.532683,0.623069,-0.623069,0.532683,391.9935,61.54626)"
               sodipodi:nodetypes="csscssc"
               id="path899"
               d="m 119.382,127.638 c -12.209,24.574 -10.006,43.341 -8.984,58.387 0.717,8.53 3.073,17.34 7.566,26.682 4.808,9.484 13.356,19.732 20.057,29.93 -4.786,-9.977 -8.67,-21.982 -9.289,-30.233 -0.728,-7.402 0.814,-20.015 0.62,-27.715 -0.576,-16.443 0.909,-33.577 -9.97,-57.051 z"
               style="font-size:12px;fill:#ffffff;fill-rule:evenodd;stroke:none;stroke-width:1pt;stroke-opacity:1" />
          </g>
          <g
             id="g900">
            <path
               transform="matrix(-0.750512,0.344161,0.314675,0.820839,336.3612,98.19086)"
               sodipodi:nodetypes="csscssc"
               id="path901"
               d="m 107.069,125.195 c -4.73,24.698 -0.641,43.259 3.517,57.967 1.737,6.588 7.069,19.339 12.031,28.435 5.609,9.772 11.232,20.428 16.977,31.513 -2.753,-10.83 -4.205,-20.668 -5.92,-29.432 -1.163,-5.68 -2.137,-18.933 -3.944,-27.38 -2.673,-15.274 -5.268,-38.523 -22.661,-61.103 z"
               style="font-size:12px;fill:#ffffff;fill-rule:evenodd;stroke-width:1pt" />
            <path
               transform="matrix(0.69438,0.464179,-0.424409,0.759447,316.5091,101.9)"
               sodipodi:nodetypes="csscssc"
               id="path902"
               d="m 116.912,123.797 c -12.208,24.574 -9.478,47.898 -6.998,62.677 1.695,8.72 3.353,13.603 7.375,23.186 4.451,9.946 9.965,19.303 16.666,29.501 -4.786,-9.977 -4.582,-18.4 -6.093,-26.861 -1.256,-8.462 0.778,-23.229 0.289,-34.874 -0.954,-15.154 -1.622,-31.956 -11.239,-53.629 z"
               style="font-size:12px;fill:#ffffff;fill-rule:evenodd;stroke-width:1pt" />
          </g>
        </g>
      </g>
      <g
         id="g1240">
        <path
           id="path679"
           d="m 533.413,561.526 c -15.117,0.511 -14.114,-8.897 -42.858,-9.663 -11.051,-0.285 -62.091,21.043 -93,16 2,8 31.72,20.399 58,19 13.575,-0.732 53.209,-26.422 69,-15 0,0 -19.112,6.818 -40,24 -12.814,10.713 -23,28 -25,35 8,0 16,3 24,-2 7,-4 19.69,-43.914 49.989,-51.337"
           style="font-size:12px;fill:#ffffff" />
        <path
           transform="matrix(-1,0,0,1,1066.532,1.525879e-5)"
           id="path680"
           d="m 533.413,561.526 c -15.117,0.511 -14.114,-8.897 -42.858,-9.663 -11.051,-0.285 -62.091,21.043 -93,16 2,8 31.72,20.399 58,19 13.575,-0.732 53.209,-26.422 69,-15 0,0 -19.112,6.818 -40,24 -12.814,10.713 -23,28 -25,35 8,0 16,3 24,-2 7,-4 19.69,-43.914 49.989,-51.337"
           style="font-size:12px;fill:#ffffff" />
      </g>
    </g>
  </g>
</svg>
