<?xml version="1.0" encoding="UTF-8" standalone="no"?>
<svg
   xmlns:dc="http://purl.org/dc/elements/1.1/"
   xmlns:cc="http://creativecommons.org/ns#"
   xmlns:rdf="http://www.w3.org/1999/02/22-rdf-syntax-ns#"
   xmlns:svg="http://www.w3.org/2000/svg"
   xmlns="http://www.w3.org/2000/svg"
   xmlns:sodipodi="http://sodipodi.sourceforge.net/DTD/sodipodi-0.dtd"
   xmlns:inkscape="http://www.inkscape.org/namespaces/inkscape"
   width="658.125pt"
   height="438.75pt"
   id="svg2820"
   sodipodi:version="0.32"
   inkscape:version="1.0.2 (e86c870879, 2021-01-15)"
   sodipodi:docname="viking.svg"
   inkscape:export-filename="/home/daniel/Desktop/viking.png"
   inkscape:export-xdpi="90.000000"
   inkscape:export-ydpi="90.000000"
   version="1.1">
  <defs
     id="defs2822" />
  <sodipodi:namedview
     id="base"
     pagecolor="#ffffff"
     bordercolor="#666666"
     borderopacity="1.0"
     inkscape:pageopacity="0.0"
     inkscape:pageshadow="2"
     inkscape:zoom="0.76844207"
     inkscape:cx="441.25776"
     inkscape:cy="310.60073"
     inkscape:document-units="px"
     inkscape:current-layer="layer1"
     inkscape:window-width="1123"
     inkscape:window-height="803"
     inkscape:window-x="529"
     inkscape:window-y="100"
     inkscape:document-rotation="0"
     showgrid="false"
     inkscape:window-maximized="0" />
  <metadata
     id="metadata2825">
    <rdf:RDF>
      <cc:Work
         rdf:about="">
        <dc:format>image/svg+xml</dc:format>
        <dc:type
           rdf:resource="http://purl.org/dc/dcmitype/StillImage" />
      </cc:Work>
    </rdf:RDF>
  </metadata>
  <g
     inkscape:label="Layer 1"
     inkscape:groupmode="layer"
     id="layer1">
    <rect
       style="fill:#ffffff;fill-opacity:1;stroke:none;stroke-width:4.56826;stroke-miterlimit:4;stroke-dasharray:none;stroke-opacity:1"
       id="rect1313"
       width="877.5"
       height="585"
       x="0"
       y="-1.7763568e-15" />
    <path
       id="path2271"
       style="fill:#000000;stroke:none"
       d="m 381.36084,167.10819 c 12.24419,-10.8263 10.85834,-37.02074 -0.74093,-45.72021 -11.59927,-8.69947 -11.4985,-9.66365 -18.36773,-26.591507 -5.31635,-29.964821 -26.70914,-53.414862 -56.67396,-50.031737 -30.44812,3.383125 -32.38134,9.959355 -66.21259,6.57623 -21.26535,-1.933214 -29.48151,-0.483303 -42.53071,7.732857 C 180.4026,69.2232 166.8701,93.87168 166.8701,113.68713 c 0,17.88223 3.86643,17.88223 21.74866,0 18.95997,-16.517949 23.75223,-14.010687 38.66429,1.44991 24.08666,25.7303 48.34712,51.30567 73.3021,79.16576 31.2547,26.64571 40.8872,10.2134 51.51986,2.96385 10.63266,-7.24955 22.97292,-22.90893 29.25583,-30.15846 z M 323.94376,73.08963 c 14.35431,14.916132 30.19522,46.32375 1.44991,76.36196 -8.69946,8.69946 -16.91563,15.94902 -18.36554,15.94902 -1.44991,0 -17.39892,-14.01579 -34.79785,-31.41473 -17.88223,-17.39893 -29.48152,-31.41474 -26.0984,-31.41474 3.86643,0 11.59929,5.31634 17.88224,12.08259 12.56589,12.5659 31.3395,14.78039 42.04741,6.28295 13.72622,-10.89268 9.6783,-29.48152 0,-36.73107 -8.20567,-6.146472 -22.15675,-4.888049 -31.41473,-0.4833 -6.14368,2.923029 -10.63268,3.38312 -24.64849,-0.96661 -24.2141,-13.255148 -60.38914,13.990294 -68.6658,21.83428 3.0266,-10.099403 9.69632,-22.222768 20.81875,-29.08384 18.29925,-11.834817 39.40759,-11.744072 60.11113,-5.237822 12.08259,6.28295 45.24906,-13.611013 61.68137,2.821312 z"
       sodipodi:nodetypes="csccccscccscccscscsssccccc" />
    <path
       style="fill:#ffffff;fill-opacity:1;stroke:none"
       d="m 298.57644,108.47376 c -5.86948,12.84424 -26.33137,2.89371 -20.07545,-9.219462 5.85113,-11.303588 25.94493,-3.62478 20.07545,9.219462 z"
       id="path2275" />
    <path
       style="fill:#ffffff;fill-opacity:1;stroke:none"
       d="m 347.75922,172.78373 c -32.38137,28.99822 -40.24777,22.09841 -10.28296,-8.83303 39.92247,-38.2248 58.06572,-33.53042 10.28296,8.83303 z"
       id="path2273"
       sodipodi:nodetypes="ccc" />
    <path
       style="fill:#000000;stroke:none"
       d="m 394.98938,104.98766 c -2.89982,33.83125 -0.9666,38.66426 -0.9666,62.34615 0,23.68189 -40.03569,48.63218 -61.37956,44.46396 -18.60515,0.25184 -33.56717,-3.54424 -57.02982,-5.31636 -53.16339,0 -89.41116,43.98064 -89.41116,108.7433 0,57.02982 18.84884,82.64491 113.09304,157.55698 53.16339,41.56409 64.02172,43.36768 76.58761,75.16969 2.44853,24.84372 15.62735,37.76489 13.30685,11.34163 0,-33.34793 -16.43232,-57.51312 -67.1792,-98.59392 -84.57812,-68.62913 -108.7433,-101.01045 -108.7433,-145.47438 -0.4833,-32.38134 13.0492,-60.89625 35.76447,-76.36196 15.46571,-10.63268 19.33214,-10.63268 68.14582,-7.73286 l 51.71346,3.38313 c 23.39275,-3.35005 36.05519,-13.85364 41.56411,-38.66429 l 2.89982,-45.43053 c 3.38312,-49.78027 10.63268,-68.62911 33.34793,-87.961252 26.09841,-21.74866 64.27939,-21.265357 100.52716,0.966612 19.81544,12.08258 47.36375,47.84705 79.26178,101.01044 37.21438,62.82946 57.99645,82.16161 95.2108,90.37777 19.81545,3.86643 20.29875,-2.89982 0.48329,-11.59927 C 695.1209,231.12989 674.33884,204.5482 645.34063,144.13525 626.9751,105.95427 610.54277,78.88927 597.49359,65.84007 551.57976,19.926234 489.71688,3.493913 447.18617,26.209181 416.73804,42.641502 397.8892,71.15641 394.98938,104.98766 Z"
       id="path2269" />
    <path
       style="fill:#000000;stroke:none"
       id="path2779"
       d="m 457.49867,74.388588 c -20.30482,17.148144 -29.64464,37.365322 -33.99438,91.495342 -4.34973,52.19677 -11.59928,68.62909 -36.24775,80.71168 -10.14939,5.31634 -18.36555,5.31634 -40.11421,0.9666 -105.84348,-22.23196 -155.62375,62.82947 -83.12821,142.09125 13.04919,14.49911 37.69768,35.28116 54.6133,45.91383 35.24915,20.29876 62.95748,46.94128 76.36196,80.2284 5.79963,-9.66607 0.96659,-37.21437 -8.69946,-56.54651 -3.86643,-7.73286 -27.5483,-29.96482 -53.16339,-50.26359 -53.6467,-42.5307 -74.42875,-68.62909 -74.42875,-92.31097 0,-38.66428 22.23196,-51.71346 77.32857,-46.88043 33.34794,2.89981 40.5975,1.9332 60.41294,-7.73287 31.89804,-15.46571 43.98063,-36.73107 48.33036,-84.57812 3.86643,-46.88045 16.43232,-76.36197 36.24777,-84.57813 29.96482,-12.56589 54.6133,8.69947 99.56055,85.06143 14.98239,25.61507 33.34793,53.16339 41.08079,61.86284 14.98241,17.39895 41.0808,27.06502 70.07903,27.06502 l 18.84882,-0.48331 -23.68186,-12.08259 C 652.59018,236.44623 622.62536,202.61498 592.66054,148.9683 578.16145,122.86989 557.05921,94.756719 547.31157,82.761791 529.27228,61.510886 481.67382,57.319695 457.49867,74.388588 Z"
       sodipodi:nodetypes="cccccccscscccccccccccc" />
    <path
       style="fill:#000000;stroke:none"
       id="path2781"
       d="m 468.62074,130.85354 c -12.18145,17.08857 -9.35198,37.93019 8.53025,21.49787 19.08135,-19.2384 32.38134,-3.38311 59.44634,37.21438 16.4323,24.64849 31.41473,40.59748 47.36375,50.26355 12.56589,7.73287 24.16518,12.56591 25.61509,11.116 1.93321,-1.93322 -3.38314,-10.63268 -11.59929,-19.81545 -8.21616,-9.18276 -23.68187,-33.83125 -34.31454,-54.6133 -21.74867,-41.56411 -49.91338,-63.46223 -65.9679,-63.0498 -15.63797,0.40173 -20.58927,5.48449 -29.0737,17.38675 z"
       sodipodi:nodetypes="ccscssczs" />
    <path
       style="fill:#000000;stroke:none"
       id="path2783"
       d="m 462.16251,177.2385 c -12.08259,17.39892 -9.66609,23.19857 7.24953,19.81544 13.53249,-2.41652 17.39893,-0.4833 38.18099,22.23197 18.36553,19.81544 25.61509,24.64848 38.18096,24.64848 h 15.46573 L 528.85837,205.2701 c -26.09838,-31.89805 -31.90411,-41.07471 -43.02009,-41.07471 -8.69947,0 -19.32606,6.27686 -23.67577,13.04311 z"
       sodipodi:nodetypes="ccccccsc" />
    <path
       style="fill:#000000;stroke:none"
       id="path2785"
       d="m 454.43907,220.96478 c 0,26.61571 -45.11979,66.79867 -72.26781,63.07249 -17.03405,-2.66158 -26.28329,4.5314 -11.91081,9.85452 21.2926,7.98473 54.82837,3.1939 70.79777,-10.64626 19.69564,-16.50173 31.40653,-48.97291 22.88952,-63.8777 -3.18041,-6.90658 -8.97634,-6.46073 -9.50867,1.59695 z"
       sodipodi:nodetypes="cccccc" />
    <path
       style="fill:#000000;stroke:none"
       id="path2787"
       d="m 472.27088,266.01954 c -6.19598,10.63117 -6.82473,14.92909 -23.41036,28.78626 -13.12381,6.66438 -30.09682,11.72142 -39.60494,11.4726 -35.16219,-0.92018 -17.35104,14.68974 12.23988,17.8602 30.23785,-2.41897 41.69417,-8.02537 59.84692,-30.42352 11.69333,-20.72648 16.89741,-52.88464 6.86933,-53.36937 -9.88086,-0.47761 -9.65712,14.89216 -15.94083,25.67383 z"
       sodipodi:nodetypes="ccsccsz" />
    <path
       style="fill:#000000;stroke:none"
       id="path2789"
       d="m 549.28561,355.91603 c 10.63268,7.73284 62.22377,47.26993 53.52431,58.86923 -4.34974,6.28292 -9.66607,11.59927 -11.11599,11.59927 -1.44989,0 -14.49912,-14.4991 -28.99821,-32.38134 -14.49909,-17.88224 -85.10426,-82.83986 -91.19877,-76.62601 -6.30892,6.43245 67.03359,95.40808 77.18297,107.49067 18.84882,22.23195 18.84882,24.23195 9.66607,32.93142 -11.59927,10.63267 -48.81366,-56.28343 -57.32552,-68.36602 -8.51186,-12.08259 -40.90282,-67.79728 -45.92145,-61.06364 -3.87843,5.2038 13.90259,41.46841 32.26811,81.0993 33.34797,72.01221 31.83125,72.49553 21.19859,78.29518 -5.79964,2.89982 -11.11598,4.83303 -11.59928,4.34975 -0.96659,-0.48332 -8.76625,-22.71529 -15.5325,-49.297 -12.08259,-47.84704 -32.79786,-108.25998 -38.59749,-108.25998 -14.98242,0.48332 -14.01582,10.14939 8.69943,96.66071 20.29877,78.29518 24.6485,89.41116 32.38138,87.96125 4.83303,-0.48329 27.54828,-10.14938 50.26355,-21.26536 42.53071,-20.78205 71.04562,-45.43053 110.19321,-94.7275 17.88224,-22.71527 34.79786,-60.89623 29.48152,-65.72927 -4.83305,-4.83305 -169.15625,-85.06144 -173.50598,-85.06144 -3.38312,0 -4.34971,6.28295 -2.41652,16.4323 1.93319,10.14935 73.00744,43.70328 82.67351,49.36221 9.66607,5.65892 58.93444,38.11576 54.58469,46.33192 -4.83302,9.18278 -5.31632,9.18278 -17.88222,0.9666 -42.53071,-27.5483 -118.22465,-83.46678 -127.78578,-76.13632 -8.78914,9.75478 49.12969,58.83123 59.76237,66.56407 z"
       sodipodi:nodetypes="ccsczcczzccccccccccsczcccc" />
    <path
       style="fill:#000000;stroke:none"
       id="path2791"
       d="m 286.72938,294.44266 c -11.11598,13.5325 -13.5325,23.68189 -8.21616,41.56411 6.76625,25.13178 20.78206,39.63089 67.1792,71.04562 23.68187,15.94902 43.49732,31.41473 44.94723,34.79786 1.44993,3.38311 2.89982,0 2.89982,-7.24956 0.48331,-10.63267 -8.21616,-21.74866 -42.53069,-56.06319 -48.81368,-47.84707 -56.06323,-62.34618 -38.66431,-80.71173 0,0 11.44226,-9.17052 9.4183,-12.81365 -2.86231,-5.15216 -24.2855,-5.03898 -35.03339,9.43054 z"
       sodipodi:nodetypes="cccsccccc" />
    <path
       style="fill:#000000;stroke:none"
       d="m 393.53947,375.15436 c 4.34973,3.38314 4.34974,-2.89982 7.73286,-29.48152 3.38312,-26.5817 -5.31636,-31.41473 -14.98241,-8.69947 -9.66605,22.71526 2.89982,34.79785 7.24955,38.18099 z"
       id="path2793"
       sodipodi:nodetypes="ccsc" />
    <path
       style="fill:#000000;stroke:none"
       d="m 403.68885,350.02257 c -0.0489,23.80628 3.93277,30.26925 14.4991,35.28116 13.81907,6.55478 15.94902,2.89984 10.14938,-4.34973 -3.86643,-4.34973 -6.76625,-16.91561 -6.28295,-27.065 0.96661,-24.16518 -18.31663,-27.2363 -18.36553,-3.86643 z"
       id="path1314"
       sodipodi:nodetypes="csccz" />
    <path
       style="fill:#000000;stroke:none"
       d="m 387.35032,376.20047 c -4.59853,-9.55798 -3.86643,-12.58419 -19.90924,-31.97754 -16.91562,-15.46572 -23.68186,-35.28116 -16.91562,-47.84704 4.34971,-9.18278 3.86642,-10.14939 -6.28295,-10.14939 -6.28296,0 -14.98241,3.86643 -19.33214,8.69946 -17.39892,18.84884 -6.75197,36.12137 43.9949,82.03522 25.1318,22.71525 20.86157,12.28849 18.44505,-0.76071 z"
       id="path1342"
       sodipodi:nodetypes="cccsccc" />
  </g>
</svg>
