<?xml version="1.0" encoding="UTF-8" standalone="no"?>
<!DOCTYPE svg PUBLIC "-//W3C//DTD SVG 20010904//EN"
"http://www.w3.org/TR/2001/REC-SVG-20010904/DTD/svg10.dtd">
<!-- Created with Sodipodi ("http://www.sodipodi.com/") -->
<svg
   id="svg548"
   sodipodi:version="0.33pre"
   width="233.33mm"
   height="140mm"
   sodipodi:docbase="/home/tobias/Desktop/Flags/"
   sodipodi:docname="/home/tobias/Desktop/Flags/Wales.svg"
   xmlns="http://www.w3.org/2000/svg"
   xmlns:sodipodi="http://sodipodi.sourceforge.net/DTD/sodipodi-0.dtd"
   xmlns:xlink="http://www.w3.org/1999/xlink">
  <defs
     id="defs550" />
  <sodipodi:namedview
     id="base" />
  <rect
     style="font-size:12;fill:#ffffff;fill-rule:evenodd;stroke-width:1pt;fill-opacity:1;"
     id="rect667"
     width="826.759888"
     height="248.031494"
     x="0.000000"
     y="0.000008" />
  <rect
     style="font-size:12;fill:#007900;fill-rule:evenodd;stroke-width:1pt;fill-opacity:1;"
     id="rect669"
     width="826.759888"
     height="248.031494"
     x="0.000000"
     y="248.031502" />
  <path
     style="font-size:12;fill:#ff0000;fill-rule:evenodd;stroke:#000000;stroke-width:1.72289;stroke-linejoin:round;"
     d="M 730.003 69.5305 C 725.028 104.351 729.971 154.787 738.612 171.283 C 728.128 167.516 716.465 158.642 710.695 147.019 C 706.607 159.716 702.521 172.413 698.433 185.11 C 724.354 237.739 656.95 279.163 600.856 282.033 C 635.096 300.614 679.909 323.735 679.909 335.911 C 666.289 341.034 658.167 326.518 647.296 321.822 C 658.951 352.14 651.751 374.603 645.731 404.529 C 639.838 411.533 645.725 416.182 648.079 422.008 C 653.471 424.095 658.863 426.183 664.255 428.27 C 665.124 429.053 665.994 429.836 666.864 430.619 C 666.864 430.619 678.251 431.14 681.383 447.055 C 673.806 437.857 663.472 440.793 663.472 440.793 C 662.168 441.663 660.863 442.533 659.559 443.402 C 656.515 441.576 653.471 439.75 650.427 437.924 C 640.344 431.226 630.085 431.588 619.119 436.358 C 613.553 439.707 607.81 439.529 602.421 436.88 C 596.246 430.176 582.854 436.097 582.592 436.097 C 582.332 436.097 568.243 445.489 568.243 445.489 C 568.243 445.489 564.851 444.706 564.59 444.706 C 564.33 444.706 555.447 444.502 543.719 452.011 C 546.81 436.057 558.329 436.358 558.329 436.358 C 557.26 433.025 559.721 433.575 560.417 432.183 C 564.213 427.974 572.244 428.705 578.157 426.966 C 566.852 426.444 555.546 425.923 544.241 425.4 C 544.415 424.878 544.588 424.357 544.762 423.835 C 537.348 423.188 531.521 422.896 527.282 429.836 C 526.855 418.182 536.659 416.054 542.936 413.398 C 545.776 409.003 551.968 409.723 557.808 410.268 C 557.808 410.268 590.159 422.269 587.811 421.486 C 585.462 420.704 549.72 405.333 549.72 405.333 C 547.955 402.687 550.241 401.136 550.241 400.875 C 550.241 400.614 540.601 394.777 533.804 401.397 C 535.123 387.552 551.546 391.222 551.546 391.222 C 552.48 386.732 556.942 387.359 559.112 389.396 C 563.373 393.571 567.634 397.744 571.895 401.919 C 575.897 404.442 579.896 406.963 583.898 409.485 C 595.032 414.397 606.871 412.607 616.77 396.701 C 613.391 388.489 614.952 384.863 622.511 380.003 C 620.565 374.524 621.266 368.869 623.554 363.567 C 620.202 358.627 618.2 344.826 621.468 341.65 C 613.972 339.004 611.031 331.475 610.509 331.475 C 603.636 332.887 597.678 330.646 594.855 327.823 C 584.22 332.517 575.173 329.977 568.243 323.91 C 556.032 328.074 544.882 325.182 539.023 319.995 C 529.672 322.289 514.964 315.581 512.41 307.994 C 507.033 307.994 501.534 301.986 495.712 302.516 C 490.924 310.39 489.665 309.619 482.407 316.082 C 474.992 323.805 477.634 336.82 483.451 342.955 C 492.582 346.434 501.713 349.913 510.844 353.392 C 531.718 354.596 536.711 366.563 536.414 378.177 C 528.531 375.814 528.236 374.509 524.411 374.264 C 519.019 372.35 513.627 370.436 508.235 368.523 C 491.391 395.695 467.491 414.75 433.357 423.574 C 439.879 426.648 446.403 425.487 452.925 426.444 C 455.274 427.836 457.621 429.226 459.97 430.619 C 470.12 432.752 477.272 435.946 477.189 445.489 C 470.398 437.921 463.783 438.114 458.404 441.837 C 447.587 446.374 441.358 436.445 432.835 433.749 C 425.611 428.543 418.565 430.747 412.224 434.009 C 405.102 429.341 396.923 431.728 388.743 432.705 C 378.55 433.718 366.946 436.321 361.87 442.097 C 358.518 444.743 357.174 440.793 356.913 441.054 C 345.184 437.258 339.955 447.577 339.955 447.577 C 337.175 435.658 343.214 433.088 349.608 431.401 C 345.26 428.879 340.911 426.357 336.563 423.835 C 336.293 422.346 335.315 422.092 337.868 421.486 C 332.739 418.201 327.611 420.737 321.953 425.921 C 322.476 415.051 335.88 408.238 341.52 411.834 C 345.585 408.829 353.003 408.295 358.479 412.877 C 364.639 417.536 373.974 418.138 380.134 416.269 C 377.475 408.916 368.994 404.563 364.218 404.267 C 357.484 402.629 349.692 400.286 351.956 396.179 C 347.801 390.264 341.883 392.114 335.259 396.962 C 337.631 383.509 351.825 384.875 355.608 387.83 C 356.975 383.688 361.341 382.721 365.001 387.047 C 370.776 388.595 371.61 392.613 374.916 395.396 C 381.326 401.958 391.265 405.346 399.44 406.615 C 407.081 402.229 416.133 401.549 425.009 401.397 C 426.711 393.943 431.588 392.31 438.053 392.266 C 437.833 385.621 441.139 382.682 447.446 379.742 C 447.446 379.742 437.455 378.873 436.749 372.437 C 419.989 372.352 408.939 370.069 407.528 359.131 C 392.268 354.328 382.655 342.822 388.743 330.432 C 381.159 332.725 376.222 332.902 369.697 330.432 C 359.112 339.72 342.706 350.948 332.65 344.711 C 327.886 349.651 316.734 355.479 316.474 355.479 C 315.153 367.299 306.037 381.829 306.037 381.829 C 301.509 370.442 292.925 357.995 293.514 346.784 C 278.251 366.622 269.337 372.524 257.249 385.482 C 247.456 395.547 242.427 407.377 238.985 420.442 C 246.286 424.627 255.683 423.921 264.032 425.661 C 266.298 428.626 265.771 427.4 266.641 428.27 C 275.546 428.445 282.121 433.366 282.034 442.619 C 274.091 434.413 266.12 439.489 266.12 439.489 C 259.601 444.902 251.336 442.458 243.421 439.489 C 236.557 432.162 226.549 427.979 218.113 434.271 C 207.939 442.56 203.35 429.894 187.588 438.706 C 176.366 448.914 160.779 449.868 156.54 443.663 C 156.54 443.663 148.756 440.571 137.756 452.273 C 140.899 433.243 152.627 435.054 152.627 435.054 C 152.454 433.054 152.28 431.053 152.106 429.053 C 150.627 428.53 149.15 428.009 147.671 427.487 C 139.755 423.993 129.918 424.865 125.494 428.53 C 128.519 416.061 140.101 415.988 148.714 417.312 C 150.28 415.573 151.844 413.833 153.41 412.094 C 149.832 410.706 150.622 408.268 151.584 405.832 C 146.801 401.032 143.24 400.072 137.234 405.05 C 139.128 392.923 150.624 393.714 158.628 399.048 C 162.967 396.334 172.371 401.478 178.457 405.05 C 196.989 411.27 208.537 412.076 227.245 388.091 C 227.405 376.684 228.09 372.26 238.202 365.393 C 234.351 358.431 236.437 351.469 246.03 348.174 C 242.627 344.958 245.258 340.225 247.616 335.264 C 233.87 334.647 218.454 336.076 207.677 339.824 C 204.118 350.699 199.513 362.097 191.763 369.306 C 191.938 340.98 175.615 320.902 155.759 299.646 C 132.979 284.722 122.89 254.676 121.058 244.857 C 116.87 255.854 114.014 257.641 114.014 257.901 C 108.95 263.399 112.392 275.903 101.918 276.165 C 92.1422 288.125 80.3577 281.122 80.3577 281.122 C 91.5129 279.568 93.4141 275.046 95.4899 267.555 C 88.5024 265.908 94.6101 260.072 98.0989 257.901 C 100.267 257.482 105.753 243.619 109.318 244.074 C 110.796 230.42 112.275 216.765 113.753 203.112 C 104.779 199.384 98.7738 193.559 99.4035 183.544 C 96.0872 179.282 93.8188 173.102 98.3598 170.76 C 96.3669 165.626 94.0249 159.968 86.6192 157.976 C 103.787 154.998 105.939 165.462 110.361 166.325 C 115.406 169.343 118.879 186.678 124.972 195.807 C 120.342 180.84 122.696 170.76 127.32 157.715 C 127.333 150.666 124.377 143.794 117.406 139.712 C 132.072 139.364 138.017 154.584 138.538 155.107 C 147.791 167.152 135.305 175.522 139.321 180.935 C 142.191 178.761 143.665 173.792 147.931 174.413 C 151.502 170.507 154.203 166.249 153.932 157.454 C 162.919 162.58 160.732 170.148 157.845 177.544 C 158.38 188.609 156.82 191.64 149.497 195.546 C 142.163 199.911 140.797 203.525 141.67 208.851 C 150.575 218.368 152.367 247.726 152.367 247.726 C 161.331 250.427 164.603 258.159 164.107 264.423 C 172.575 263.667 180.291 270.225 181.587 276.165 C 186.592 271.466 193.648 275.84 198.546 280.861 C 200.273 278.242 203.943 277.027 207.939 278.512 C 207.93 273.909 210.518 271.034 214.721 267.294 C 204.595 259.437 201.808 240.026 213.157 229.462 C 210.887 215.234 215.215 201.814 222.549 200.242 C 220.178 184.647 229.505 179.701 233.246 175.978 C 230.801 168.82 238.71 155.713 243.16 155.628 C 238.707 148.208 246.961 134.672 253.597 133.712 C 253.597 133.451 249.161 123.276 249.161 123.276 C 249.161 123.276 227.91 126.466 224.115 145.974 C 221.496 141.918 218.896 135.799 218.896 135.799 C 218.896 135.799 210.41 158.5 210.148 157.979 C 202.818 153.529 206.113 142.583 206.113 142.583 C 200.795 136.759 201.764 129.364 199.589 122.754 C 179.674 121.885 159.759 121.015 139.843 120.145 C 139.843 120.145 146.626 132.669 146.626 132.408 C 139.557 132.54 105.037 103.016 98.3598 77.8793 C 116.053 91.7746 134.926 95.4578 154.976 99.5341 C 149.671 102.143 144.366 104.752 139.06 107.361 C 194.047 112.074 250.988 101.882 250.726 101.621 C 244.574 88.7924 224.375 88.8372 224.375 88.8372 C 224.375 91.7071 224.375 94.577 224.375 97.4469 C 222.549 96.1425 220.723 94.8379 218.896 93.5335 C 218.81 95.7076 218.723 97.8819 218.636 100.056 C 217.244 99.0994 215.853 98.1427 214.461 97.1862 C 214.027 99.0124 213.591 100.839 213.157 102.665 C 211.765 101.708 210.374 100.752 208.982 99.795 C 208.373 101.447 207.765 103.1 207.156 104.752 C 205.59 103.535 204.026 102.317 202.46 101.1 C 202.46 101.1 198.546 101.099 198.285 100.578 C 195.731 87.5294 183.413 87.2718 183.413 87.2718 C 168.955 85.4106 157.67 88.4894 144.8 89.0981 C 163.701 65.3869 189.669 67.5976 214.461 65.0952 C 216.268 54.5524 225.536 51.4724 236.376 49.9629 C 236.376 49.9629 287.252 52.5719 287.513 52.5719 C 294.058 43.9311 314.386 40.3096 314.386 40.3096 C 321.517 36.7439 329.434 38.2842 335.78 29.6126 C 334.124 41.4569 334.04 43.8753 333.171 51.0066 C 335.346 51.2675 337.519 51.5282 339.694 51.7892 C 333.78 55.6156 325.903 61.0132 319.988 64.8398 C 313.404 74.8131 314.676 74.9674 317.517 80.2274 C 319.517 83.7061 321.518 87.1849 323.518 90.6636 C 333.663 93.7889 341.059 98.0923 343.347 104.752 C 332.373 103.437 324.385 105.479 324.562 110.231 C 324.778 113.73 333.109 115.288 336.501 117.375 C 342.802 123.281 344.87 128.482 345.173 135.799 C 337.085 135.365 326.527 123.286 320.909 134.495 C 318.228 139.978 321.192 147.403 328.214 149.888 C 341.093 153.417 342.302 171.021 342.041 171.021 C 341.781 171.021 313.75 152.312 315.162 169.779 C 314.694 177.495 318.285 179.211 321.17 181.457 C 329.568 184.558 336.732 188.188 335.78 197.111 C 323.699 192.759 317.969 196.172 316.474 203.112 C 318.04 207.634 319.604 212.156 321.17 216.679 C 337.519 213.373 353.87 210.07 370.22 206.764 C 377.365 200.253 380.583 189.423 379.872 177.805 C 380.725 160.499 374.509 145.155 396.57 125.885 C 442.567 87.5552 489.35 57.473 541.632 28.569 C 531.027 46.2431 523.395 79.1781 551.15 81.2738 C 560.052 81.4057 657.732 40.3096 657.732 40.3096 C 623.771 65.0952 584.701 99.6996 630.077 114.666 C 588.445 127.627 553.915 169.725 584.158 203.634 C 562.556 197.482 534.214 211.405 529.108 227.115 C 553.681 226.932 575.897 225.573 599.291 233.637 C 599.291 233.637 664.507 246.631 668.95 217.984 C 634.119 225.471 608.297 222.009 607.118 190.589 C 607.421 163.645 647.904 148.485 682.377 168.673 C 685.942 161.368 689.388 154.062 692.954 146.757 C 680.344 148.317 668.959 150.455 655.909 147.405 C 682.44 122.232 707.4 97.4524 730.003 69.5305 z "
     id="path554"
     sodipodi:nodetypes="cccccccccccccccccccccccccccccccccccccccccccccccccccccccccccccccccccccccccccccccccccccccccccccccccccccccccccccccccccccccccccccccccccccccccccccccccccccccccccccccccccccccccccccccccccccccccccccccccccccccccccccccccccc" />
  <path
     style="font-size:12;fill:#ffffff;fill-rule:evenodd;stroke:#000000;stroke-width:1.37831pt;"
     d="M 665.846 193.417 C 666.199 204.591 632.665 207.476 630.56 195.005 C 629.489 188.656 647.322 177.539 665.846 193.417 z "
     id="path555"
     sodipodi:nodetypes="csc" />
  <path
     style="font-size:12;fill:none;fill-rule:evenodd;stroke:#000000;stroke-width:1.37831pt;stroke-linecap:round;"
     d="M 715.956 116.251 C 715.956 116.251 713.82 142.166 710.688 147.435 "
     id="path556" />
  <path
     style="font-size:12;fill:none;fill-rule:evenodd;stroke:#000000;stroke-width:1.725;stroke-dasharray:none;stroke-linecap:round;"
     d="M 703.853 117.675 C 703.853 117.817 693.031 146.866 693.031 146.866 "
     id="path557" />
  <path
     style="font-size:12;fill:none;fill-rule:evenodd;stroke:#000000;stroke-width:1.37831pt;"
     d="M 682.472 168.838 C 684.639 170.524 693.011 174.992 698.541 185.334 "
     id="path558"
     sodipodi:nodetypes="cc" />
  <path
     style="font-size:12;fill:none;fill-rule:evenodd;stroke:#000000;stroke-width:1.37831pt;"
     d="M 666.02 193.472 C 666.02 193.472 676.228 212.795 668.967 218.204 "
     id="path559"
     sodipodi:nodetypes="cc" />
  <path
     style="font-size:12;fill:none;fill-rule:evenodd;stroke:#000000;stroke-width:1.37831pt;"
     d="M 552.061 243.408 C 567.441 241.557 589.51 275.731 600.759 282.424 "
     id="path560"
     sodipodi:nodetypes="cc" />
  <path
     style="font-size:12;fill:none;fill-rule:evenodd;stroke:#000000;stroke-width:1.37831pt;"
     d="M 666.118 430.372 C 666.118 430.372 659.71 435.07 663.128 441.194 "
     id="path561" />
  <path
     style="font-size:12;fill:none;fill-rule:evenodd;stroke:#000000;stroke-width:1.37831pt;"
     d="M 558.469 436.067 C 558.469 436.067 566.157 438.203 565.304 444.611 "
     id="path562" />
  <path
     style="font-size:12;fill:none;fill-rule:evenodd;stroke:#000000;stroke-width:1.37831pt;"
     d="M 542.948 413.712 C 542.948 413.712 548.501 419.551 544.799 424.391 "
     id="path563"
     sodipodi:nodetypes="cc" />
  <path
     style="font-size:12;fill:none;fill-rule:evenodd;stroke:#000000;stroke-width:1.37831pt;"
     d="M 551.776 391.214 C 551.776 391.214 559.18 394.773 550.352 400.897 "
     id="path564" />
  <path
     style="font-size:12;fill:none;fill-rule:evenodd;stroke:#000000;stroke-width:1.37831pt;"
     d="M 458.793 430.087 C 458.793 430.087 452.385 435.498 457.085 441.622 "
     id="path565" />
  <path
     style="font-size:12;fill:none;fill-rule:evenodd;stroke:#000000;stroke-width:1.37831pt;"
     d="M 349.577 431.654 C 349.577 431.654 361.254 432.223 357.124 441.051 "
     id="path566" />
  <path
     style="font-size:12;fill:none;fill-rule:evenodd;stroke:#000000;stroke-width:1.37831pt;"
     d="M 340.891 412.003 C 340.891 412.003 344.792 419.233 337.245 421.226 "
     id="path567"
     sodipodi:nodetypes="cc" />
  <path
     style="font-size:12;fill:none;fill-rule:evenodd;stroke:#000000;stroke-width:1.37831pt;"
     d="M 355.557 387.938 C 355.557 387.938 359.403 395.627 351.997 396.624 "
     id="path568" />
  <path
     style="font-size:12;fill:none;fill-rule:evenodd;stroke:#000000;stroke-width:1.37831pt;"
     d="M 347.156 429.945 C 347.156 429.945 358.405 420.262 363.674 425.388 C 368.942 430.514 391.298 420.975 391.298 420.975 "
     id="path569" />
  <path
     style="font-size:12;fill:none;fill-rule:evenodd;stroke:#000000;stroke-width:1.37831pt;"
     d="M 398.988 406.592 L 380.477 416.274 "
     id="path570" />
  <path
     style="font-size:12;fill:none;fill-rule:evenodd;stroke:#000000;stroke-width:1.37831pt;"
     d="M 425.046 401.324 C 425.046 401.324 438.715 415.991 448.683 398.19 "
     id="path571"
     sodipodi:nodetypes="cc" />
  <path
     style="font-size:12;fill:none;fill-rule:evenodd;stroke:#000000;stroke-width:1.37831pt;"
     d="M 438.289 392.067 C 447.544 399.471 443.752 403.908 472.802 384.401 "
     id="path572"
     sodipodi:nodetypes="cc" />
  <path
     style="font-size:12;fill:none;fill-rule:evenodd;stroke:#000000;stroke-width:1.37831pt;"
     d="M 447.117 379.679 C 447.117 379.679 471.893 382.243 473.032 384.094 C 475.881 381.103 498.004 363.183 470.807 360.621 C 466.252 379.275 447.544 379.964 447.117 379.679 z "
     id="path573"
     sodipodi:nodetypes="cccc" />
  <path
     style="font-size:12;fill:none;fill-rule:evenodd;stroke:#000000;stroke-width:1.37831pt;"
     d="M 152.427 435.116 C 152.427 435.116 161.55 436.452 156.209 443.794 "
     id="path574" />
  <path
     style="font-size:12;fill:none;fill-rule:evenodd;stroke:#000000;stroke-width:1.37831pt;"
     d="M 148.422 417.759 C 148.422 417.759 155.097 421.988 147.532 427.55 "
     id="path575" />
  <path
     style="font-size:12;fill:none;fill-rule:evenodd;stroke:#000000;stroke-width:1.37831pt;"
     d="M 158.881 399.29 C 158.881 399.29 161.996 407.3 151.537 406.188 "
     id="path576" />
  <path
     style="font-size:12;fill:none;fill-rule:evenodd;stroke:#000000;stroke-width:1.37831pt;"
     d="M 152.204 429.108 C 152.204 429.108 164.889 418.649 171.564 425.103 C 178.018 427.329 181.577 426.883 181.577 426.883 "
     id="path578"
     sodipodi:nodetypes="ccc" />
  <path
     style="font-size:12;fill:none;fill-rule:evenodd;stroke:#000000;stroke-width:1.37831pt;"
     d="M 266.358 428.441 C 266.135 428.441 262.575 436.006 265.691 439.788 "
     id="path579" />
  <path
     style="font-size:12;fill:none;fill-rule:evenodd;stroke:#000000;stroke-width:1.37831pt;"
     d="M 153.318 411.974 C 161.328 411.529 163.053 415.146 170.341 415.146 C 178.737 415.402 186.918 411.974 197.6 409.081 "
     id="path580"
     sodipodi:nodetypes="csc" />
  <path
     style="font-size:12;fill:none;fill-rule:evenodd;stroke:#000000;stroke-width:1.37831pt;"
     d="M 99.0221 171.205 C 99.0221 171.205 104.14 173.653 109.036 166.088 "
     id="path581" />
  <path
     style="font-size:12;fill:none;fill-rule:evenodd;stroke:#000000;stroke-width:1.37831pt;"
     d="M 95.9068 267.334 C 95.9068 267.334 104.14 269.782 102.805 276.013 "
     id="path582" />
  <path
     style="font-size:12;fill:none;fill-rule:evenodd;stroke:#000000;stroke-width:1.37831pt;"
     d="M 127.727 157.409 C 127.727 157.409 127.727 162.304 137.963 154.739 "
     id="path583" />
  <path
     style="font-size:12;fill:none;fill-rule:evenodd;stroke:#000000;stroke-width:1.37831pt;"
     d="M 138.854 180.552 C 138.854 180.552 131.065 201.469 140.411 206.363 "
     id="path584" />
  <path
     style="font-size:12;fill:none;fill-rule:evenodd;stroke:#000000;stroke-width:1.37831pt;"
     d="M 148.199 174.766 C 148.199 174.766 152.204 183.445 157.768 178.549 "
     id="path585" />
  <path
     style="font-size:12;fill:none;fill-rule:evenodd;stroke:#000000;stroke-width:1.37831pt;"
     d="M 139.744 119.803 L 133.29 109.345 L 139.076 107.342 "
     id="path586" />
  <path
     style="font-size:12;fill:none;fill-rule:evenodd;stroke:#000000;stroke-width:1.37831pt;"
     d="M 204.053 66.6205 C 204.053 66.6205 210.283 74.4086 210.505 78.859 C 210.728 83.3095 205.833 86.6475 205.833 86.6475 "
     id="path587"
     sodipodi:nodetypes="ccc" />
  <path
     style="font-size:12;fill:none;fill-rule:evenodd;stroke:#000000;stroke-width:1.37831pt;"
     d="M 199.601 76.1888 C 199.601 76.1888 198.267 80.8616 197.822 83.9771 C 197.822 86.2023 190.7 89.0952 190.7 89.0952 "
     id="path588"
     sodipodi:nodetypes="ccc" />
  <path
     style="font-size:12;fill:none;fill-rule:evenodd;stroke:#000000;stroke-width:1.37831pt;"
     d="M 284.828 53.0466 C 285.05 53.2691 283.937 59.2771 280.599 62.8376 "
     id="path589" />
  <path
     style="font-size:12;fill:none;fill-rule:evenodd;stroke:#000000;stroke-width:1.37831pt;"
     d="M 223.857 69.7357 C 223.857 69.7357 236.763 66.3979 239.433 69.2907 C 245.886 69.7356 257.903 72.6285 257.903 72.6285 C 257.903 72.6285 269.473 71.0709 273.257 68.4006 "
     id="path590"
     sodipodi:nodetypes="cccc" />
  <path
     style="font-size:12;fill:none;fill-rule:evenodd;stroke:#000000;stroke-width:1.37831pt;"
     d="M 230.755 68.6232 C 229.198 73.7411 241.434 88.8726 252.562 70.6258 "
     id="path591"
     sodipodi:nodetypes="cc" />
  <path
     style="font-size:12;fill-rule:evenodd;stroke:#000000;stroke-width:1.37831pt;stroke-linejoin:round;"
     d="M 234.761 68.1781 L 246.777 70.4034 C 246.777 70.4034 238.321 81.752 234.761 68.1781 z "
     id="path592" />
  <path
     style="font-size:12;fill:none;fill-rule:evenodd;stroke:#000000;stroke-width:1.72289;stroke-linecap:round;stroke-linejoin:round;"
     d="M 251.004 101.779 L 266.804 132.042 L 274.369 120.693 L 278.375 128.481 L 284.828 117.133 L 295.954 124.253 L 291.726 110.457 L 301.071 109.79 C 301.071 109.79 298.623 103.114 290.167 101.779 C 292.393 99.9987 300.181 94.8807 300.181 94.8807 C 300.181 94.8807 295.732 89.7627 288.833 89.5401 C 291.058 87.0925 294.173 81.0843 293.951 81.0843 C 293.729 81.0843 287.052 79.5267 287.052 79.5267 C 287.052 79.5267 302.852 84.6446 315.09 77.524 "
     id="path593"
     sodipodi:nodetypes="cccccccccccccc" />
  <path
     style="font-size:12;fill:none;fill-rule:evenodd;stroke:#000000;stroke-width:1.37831pt;"
     d="M 199.36 122.834 L 223.634 122.473 C 231.357 122.358 244.076 111.654 258.318 114.992 "
     id="path594"
     sodipodi:nodetypes="csc" />
  <path
     style="font-size:12;fill:none;fill-rule:evenodd;stroke:#000000;stroke-width:1.37831pt;stroke-linejoin:round;"
     d="M 202.94 122.251 C 202.94 122.028 204.72 117.578 204.72 117.578 L 206.5 121.806 L 208.726 122.028 L 213.175 118.245 L 214.956 122.251 L 216.958 122.251 L 219.628 116.91 L 222.076 122.251 L 226.972 114.018 L 231.868 120.026 L 233.647 112.682 L 238.321 117.355 L 240.545 111.125 L 245.219 115.13 L 247.444 109.79 L 249.892 114.685 "
     id="path595" />
  <path
     style="font-size:12;fill:none;fill-rule:evenodd;stroke:#000000;stroke-width:1.37831pt;"
     d="M 304.188 73.7411 C 304.188 73.7411 291.725 73.296 292.615 68.4006 C 293.507 62.8376 305.745 58.8322 305.745 58.8322 C 305.745 58.8322 321.988 48.3737 324.436 44.8133 "
     id="path596"
     sodipodi:nodetypes="cccc" />
  <path
     style="font-size:12;fill:none;fill-rule:evenodd;stroke:#000000;stroke-width:1.37831pt;"
     d="M 307.079 52.6015 C 307.079 52.6015 311.085 48.5962 317.761 50.5989 "
     id="path597" />
  <path
     style="font-size:12;fill:none;fill-rule:evenodd;stroke:#000000;stroke-width:1.37831pt;"
     d="M 207.612 278.683 C 207.612 278.683 206.055 286.471 216.958 302.048 C 213.843 319.404 230.153 333.044 236.607 335.269 "
     id="path598"
     sodipodi:nodetypes="ccc" />
  <path
     style="font-size:12;fill:none;fill-rule:evenodd;stroke:#000000;stroke-width:1.37831pt;"
     d="M 151.917 247.548 C 139.679 254.447 158.881 298.042 216.958 302.27 "
     id="path599"
     sodipodi:nodetypes="cc" />
  <path
     style="font-size:12;fill:none;fill-rule:evenodd;stroke:#000000;stroke-width:1.37831pt;"
     d="M 198.442 280.789 C 198.442 280.789 202.494 293.592 199.156 299.601 "
     id="path600"
     sodipodi:nodetypes="cc" />
  <path
     style="font-size:12;fill:none;fill-rule:evenodd;stroke:#000000;stroke-width:1.37831pt;"
     d="M 181.734 276.2 C 181.734 276.2 176.905 285.582 175.792 290.032 "
     id="path601"
     sodipodi:nodetypes="cc" />
  <path
     style="font-size:12;fill:none;fill-rule:evenodd;stroke:#000000;stroke-width:1.37831pt;"
     d="M 164.275 264.527 C 164.275 264.527 160.66 272.23 156.209 274.456 "
     id="path602"
     sodipodi:nodetypes="cc" />
  <path
     style="font-size:12;fill:none;fill-rule:evenodd;stroke:#000000;stroke-width:1.37831pt;"
     d="M 370.276 206.363 C 370.276 206.363 385.852 206.141 401.429 163.862 C 416.783 106.007 538.502 41.4755 540.95 29.4593 "
     id="path603"
     sodipodi:nodetypes="ccc" />
  <path
     style="font-size:12;fill:none;fill-rule:evenodd;stroke:#000000;stroke-width:1.37831pt;stroke-linecap:round;"
     d="M 414.618 138.138 C 437.485 125.445 508.094 99.5631 555.192 80.5768 "
     id="path604"
     sodipodi:nodetypes="cc" />
  <path
     style="font-size:12;fill:none;fill-rule:evenodd;stroke:#000000;stroke-width:1.37831pt;stroke-linejoin:round;"
     d="M 651.728 42.8601 C 651.728 42.8601 435.535 143.876 432.388 149.227 C 468.893 138.211 623.721 112.407 627.498 114.61 C 618.372 116.813 430.5 159.925 421.688 170.311 C 468.577 168.737 566.763 185.416 582.182 201.465 C 548.824 193.913 449.067 179.122 418.542 185.73 C 440.886 191.081 526.481 246.467 526.481 255.278 C 513.579 243.006 410.674 200.521 406.584 204.613 C 430.184 218.774 463.544 271.327 463.542 284.23 C 456.619 273.216 397.142 209.332 393.681 213.423 C 399.975 222.236 412.447 297.645 406.071 301.14 C 406.071 292.014 382.981 226.011 381.093 224.123 C 376.372 225.381 346.941 304.651 352.772 312.022 C 348.996 285.589 353.4 230.418 360.638 232.62 C 347.737 234.508 306.56 288.8 310.965 297.297 C 312.224 283.765 314.065 274.79 337.351 229.788 C 311.546 231.36 258.049 265.034 248.921 276.992 C 256.16 255.594 301.476 219.402 321.302 216.885 "
     id="path605"
     sodipodi:nodetypes="cccccccccccccccccc" />
  <path
     style="font-size:12;fill:none;fill-rule:evenodd;stroke:#000000;stroke-width:1.37831pt;"
     d="M 249.28 123.212 L 262.255 123.373 "
     id="path606" />
  <path
     style="font-size:12;fill:none;fill-rule:evenodd;stroke:#000000;stroke-width:1.37831pt;"
     d="M 198.025 99.5192 C 198.025 99.5192 206.747 102.857 224.837 88.5357 "
     id="path607" />
  <path
     style="font-size:12;fill:none;fill-rule:evenodd;stroke:#000000;stroke-width:1.37831pt;"
     d="M 256.28 264.055 C 251.112 257.379 260.156 154.867 279.324 128.162 C 272.648 176.403 294.83 225.72 300.429 225.505 "
     id="path608"
     sodipodi:nodetypes="ccc" />
  <path
     style="font-size:12;fill:none;fill-rule:evenodd;stroke:#000000;stroke-width:1.37831pt;"
     d="M 253.264 133.115 C 253.264 133.115 262.31 143.022 272.648 141.299 "
     id="path609" />
  <path
     style="font-size:12;fill:none;fill-rule:evenodd;stroke:#000000;stroke-width:1.37831pt;"
     d="M 243.144 155.728 C 243.144 155.728 247.666 163.481 264.895 164.773 "
     id="path610" />
  <path
     style="font-size:12;fill:none;fill-rule:evenodd;stroke:#000000;stroke-width:1.37831pt;"
     d="M 233.187 176.118 C 233.187 176.118 244.866 190.401 260.587 188.248 "
     id="path611"
     sodipodi:nodetypes="cc" />
  <path
     style="font-size:12;fill:none;fill-rule:evenodd;stroke:#000000;stroke-width:1.37831pt;"
     d="M 222.684 200.523 C 222.684 200.523 225.913 211.076 256.927 211.722 "
     id="path612"
     sodipodi:nodetypes="cc" />
  <path
     style="font-size:12;fill:none;fill-rule:evenodd;stroke:#000000;stroke-width:1.37831pt;"
     d="M 213.638 230.244 C 213.638 230.244 228.068 243.164 255.204 239.073 "
     id="path613"
     sodipodi:nodetypes="cc" />
  <path
     style="font-size:12;fill:none;fill-rule:evenodd;stroke:#000000;stroke-width:1.37831pt;"
     d="M 215.146 267.501 C 215.146 267.501 233.666 277.838 256.495 263.84 "
     id="path614"
     sodipodi:nodetypes="cc" />
  <path
     style="font-size:12;fill:none;fill-rule:evenodd;stroke:#000000;stroke-width:1.37831pt;"
     d="M 528.497 227.013 C 528.497 227.013 515.575 237.997 527.635 255.656 C 487.577 255.011 466.043 273.531 464.32 286.021 C 413.279 282.361 422.54 297.437 405.956 302.389 C 383.774 283.868 351.254 294.206 353.408 312.726 C 338.547 291.836 315.72 301.959 312.921 307.127 C 310.121 312.296 311.198 281.499 311.198 281.499 C 311.198 281.499 296.338 288.176 285.999 300.451 C 286.216 292.268 285.999 278.915 285.999 274.608 C 273.581 277.12 261.592 277.262 248.742 276.977 "
     id="path615"
     sodipodi:nodetypes="cccccccccc" />
  <path
     style="font-size:12;fill:none;fill-rule:evenodd;stroke:#000000;stroke-width:1.37831pt;"
     d="M 259.992 277.09 C 259.776 277.09 238.62 310.358 271.786 319.188 "
     id="path616"
     sodipodi:nodetypes="cc" />
  <path
     style="font-size:12;fill:none;fill-rule:evenodd;stroke:#000000;stroke-width:1.37831pt;"
     d="M 310.768 296.79 C 310.768 296.79 305.383 299.374 303.445 298.943 C 296.984 300.451 298.275 315.527 306.459 314.665 C 309.258 311.435 312.274 306.912 312.274 306.912 "
     id="path617"
     sodipodi:nodetypes="cccc" />
  <path
     style="font-size:12;fill:none;fill-rule:evenodd;stroke:#000000;stroke-width:1.37831pt;"
     d="M 299.137 305.835 C 299.137 305.835 296.769 309.067 293.107 305.62 C 291.168 302.175 284.278 321.127 296.338 321.772 C 298.491 316.172 305.168 314.665 305.168 314.665 "
     id="path618"
     sodipodi:nodetypes="cccc" />
  <path
     style="font-size:12;fill:none;fill-rule:evenodd;stroke:#000000;stroke-width:1.37831pt;"
     d="M 289.23 312.941 C 279.754 312.295 274.586 333.186 292.892 320.051 "
     id="path619"
     sodipodi:nodetypes="cc" />
  <path
     style="font-size:12;fill:none;fill-rule:evenodd;stroke:#000000;stroke-width:1.37831pt;"
     d="M 282.554 315.958 C 282.554 315.958 272.001 307.774 272.433 319.188 C 272.216 326.294 275.662 328.017 275.662 328.017 C 276.092 333.186 280.616 340.507 284.276 333.832 C 285.784 327.371 283.2 324.571 283.2 324.571 "
     id="path620"
     sodipodi:nodetypes="ccccc" />
  <path
     style="font-size:12;fill:none;fill-rule:evenodd;stroke:#000000;stroke-width:1.37831pt;"
     d="M 227.206 388.318 C 226.991 388.318 228.929 402.533 238.836 391.764 C 245.727 377.336 267.479 336.632 272.433 322.633 "
     id="path621"
     sodipodi:nodetypes="ccc" />
  <path
     style="font-size:12;fill:none;fill-rule:evenodd;stroke:#000000;stroke-width:1.37831pt;"
     d="M 257.357 311.435 C 257.357 311.435 242.066 315.742 247.881 333.832 C 256.71 340.94 265.325 339.862 265.325 339.862 "
     id="path622"
     sodipodi:nodetypes="ccc" />
  <path
     style="font-size:12;fill:none;fill-rule:evenodd;stroke:#000000;stroke-width:1.37831pt;"
     d="M 246.158 348.047 C 246.158 348.047 256.495 352.569 259.941 350.846 "
     id="path623" />
  <path
     style="font-size:12;fill:none;fill-rule:evenodd;stroke:#000000;stroke-width:1.37831pt;"
     d="M 238.303 365.776 C 238.303 365.776 242.927 373.89 249.389 371.089 "
     id="path624"
     sodipodi:nodetypes="cc" />
  <path
     style="font-size:12;fill:none;fill-rule:evenodd;stroke:#000000;stroke-width:1.37831pt;"
     d="M 320.459 301.959 C 320.459 301.959 321.75 323.71 315.29 331.463 C 308.828 339.216 316.803 355.319 316.803 355.319 "
     id="path625"
     sodipodi:nodetypes="ccc" />
  <path
     style="font-size:12;fill:none;fill-rule:evenodd;stroke:#000000;stroke-width:1.37831pt;"
     d="M 336.826 300.882 C 337.041 301.312 340.917 335.555 332.302 345.246 "
     id="path626" />
  <path
     style="font-size:12;fill:none;fill-rule:evenodd;stroke:#000000;stroke-width:1.37831pt;"
     d="M 369.776 293.991 C 369.776 293.991 382.412 318.44 369.705 330.5 "
     id="path627"
     sodipodi:nodetypes="cc" />
  <path
     style="font-size:12;fill:none;fill-rule:evenodd;stroke:#000000;stroke-width:1.37831pt;"
     d="M 405.956 301.527 C 405.956 301.527 398.633 323.28 388.296 330.601 "
     id="path628" />
  <path
     style="font-size:12;fill:none;fill-rule:evenodd;stroke:#000000;stroke-width:1.37831pt;"
     d="M 441.922 302.389 C 441.922 302.389 407.894 360.537 470.78 360.537 "
     id="path629"
     sodipodi:nodetypes="cc" />
  <path
     style="font-size:12;fill:none;fill-rule:evenodd;stroke:#000000;stroke-width:1.37831pt;"
     d="M 395.619 323.063 C 395.619 322.848 430.464 323.16 432.832 329.62 "
     id="path630"
     sodipodi:nodetypes="cc" />
  <path
     style="font-size:12;fill:none;fill-rule:evenodd;stroke:#000000;stroke-width:1.37831pt;"
     d="M 407.033 359.246 C 407.464 358.814 432.015 356.445 436.538 347.615 "
     id="path631" />
  <path
     style="font-size:12;fill:none;fill-rule:evenodd;stroke:#000000;stroke-width:1.37831pt;"
     d="M 436.563 372.458 C 436.779 372.458 451.613 363.553 448.599 357.306 "
     id="path632"
     sodipodi:nodetypes="cc" />
  <path
     style="font-size:12;fill:none;fill-rule:evenodd;stroke:#000000;stroke-width:1.37831pt;"
     d="M 435.246 285.806 C 436.968 308.419 409.187 321.341 398.203 319.188 "
     id="path633"
     sodipodi:nodetypes="cc" />
  <path
     style="font-size:12;fill:none;fill-rule:evenodd;stroke:#000000;stroke-width:1.37831pt;"
     d="M 433.093 299.374 C 433.093 299.374 452.476 308.85 469.057 293.559 "
     id="path634"
     sodipodi:nodetypes="cc" />
  <path
     style="font-size:12;fill:none;fill-rule:evenodd;stroke:#000000;stroke-width:1.37831pt;"
     d="M 464.535 286.238 C 464.535 286.238 471.858 299.374 480.687 298.513 C 492.316 295.067 496.623 302.174 496.623 302.174 "
     id="path635"
     sodipodi:nodetypes="ccc" />
  <path
     style="font-size:12;fill:none;fill-rule:evenodd;stroke:#000000;stroke-width:1.37831pt;"
     d="M 513.422 256.087 C 513.422 256.087 512.56 288.822 558.647 295.497 C 610.119 309.712 634.454 302.174 637.47 359.891 C 635.532 381.858 632.802 406.669 616.866 397.192 "
     id="path636"
     sodipodi:nodetypes="cccc" />
  <path
     style="font-size:12;fill:none;fill-rule:evenodd;stroke:#000000;stroke-width:1.37831pt;"
     d="M 622.61 380.565 C 622.61 380.565 630.217 386.956 635.386 378.558 "
     id="path637"
     sodipodi:nodetypes="cc" />
  <path
     style="font-size:12;fill:none;fill-rule:evenodd;stroke:#000000;stroke-width:1.37831pt;"
     d="M 623.618 363.628 C 623.618 363.628 633.017 365.325 637.324 356.281 "
     id="path638"
     sodipodi:nodetypes="cc" />
  <path
     style="font-size:12;fill:none;fill-rule:evenodd;stroke:#000000;stroke-width:1.37831pt;"
     d="M 620.982 341.687 C 620.982 341.687 631.149 344.221 634.379 337.544 "
     id="path639"
     sodipodi:nodetypes="cc" />
  <path
     style="font-size:12;fill:none;fill-rule:evenodd;stroke:#000000;stroke-width:1.37831pt;"
     d="M 621.317 314.88 C 621.317 314.88 613.59 330.006 610.791 331.514 "
     id="path640"
     sodipodi:nodetypes="cc" />
  <path
     style="font-size:12;fill:none;fill-rule:evenodd;stroke:#000000;stroke-width:1.37831pt;"
     d="M 601.289 305.19 C 601.289 305.19 601.721 321.341 594.829 327.802 "
     id="path641" />
  <path
     style="font-size:12;fill:none;fill-rule:evenodd;stroke:#000000;stroke-width:1.37831pt;"
     d="M 579.538 301.312 C 579.538 301.312 579.323 314.665 568.339 323.925 "
     id="path642" />
  <path
     style="font-size:12;fill:none;fill-rule:evenodd;stroke:#000000;stroke-width:1.37831pt;"
     d="M 539.05 319.834 C 539.265 319.618 556.709 300.451 552.187 294.636 "
     id="path643" />
  <path
     style="font-size:12;fill:none;fill-rule:evenodd;stroke:#000000;stroke-width:1.37831pt;"
     d="M 533.235 286.883 C 533.235 286.883 530.936 305.336 512.415 308.135 "
     id="path644"
     sodipodi:nodetypes="cc" />
  <path
     style="font-size:12;fill:none;fill-rule:evenodd;stroke:#000000;stroke-width:1.37831pt;"
     d="M 254.866 250.979 C 254.866 250.979 290.523 229.598 292.461 213.877 "
     id="path645"
     sodipodi:nodetypes="cc" />
  <path
     style="font-size:12;fill:none;fill-rule:evenodd;stroke:#000000;stroke-width:1.37831pt;"
     d="M 256.065 232.397 C 256.065 232.182 278.395 226.704 287.656 202.153 "
     id="path646"
     sodipodi:nodetypes="cc" />
  <path
     style="font-size:12;fill:none;fill-rule:evenodd;stroke:#000000;stroke-width:1.37831pt;"
     d="M 256.71 218.829 C 258.65 219.69 283.077 202.097 283.724 189.176 "
     id="path647"
     sodipodi:nodetypes="cc" />
  <path
     style="font-size:12;fill:none;fill-rule:evenodd;stroke:#000000;stroke-width:1.37831pt;"
     d="M 258.218 203.108 C 265.325 201.17 278.401 185.355 280.985 176.956 "
     id="path648"
     sodipodi:nodetypes="cc" />
  <path
     style="font-size:12;fill:none;fill-rule:evenodd;stroke:#000000;stroke-width:1.37831pt;"
     d="M 261.449 186.094 C 261.449 186.094 271.571 178.987 279.324 168.219 "
     id="path649"
     sodipodi:nodetypes="cc" />
  <path
     style="font-size:12;fill:none;fill-rule:evenodd;stroke:#000000;stroke-width:1.37831pt;"
     d="M 265.369 165.906 C 265.584 171.721 274.806 163.858 278.467 158.904 "
     id="path650"
     sodipodi:nodetypes="cc" />
  <path
     style="font-size:12;fill:none;fill-rule:evenodd;stroke:#000000;stroke-width:1.37831pt;"
     d="M 285.354 227.66 L 289.662 233.043 "
     id="path651" />
  <path
     style="font-size:12;fill:none;fill-rule:evenodd;stroke:#000000;stroke-width:1.37831pt;"
     d="M 276.246 236.047 L 279.108 240.581 "
     id="path652"
     sodipodi:nodetypes="cc" />
  <path
     style="font-size:12;fill:none;fill-rule:evenodd;stroke:#000000;stroke-width:1.37831pt;"
     d="M 266.403 244.242 C 266.403 244.457 269.848 249.196 269.848 249.196 "
     id="path653" />
  <path
     style="font-size:12;fill:none;fill-rule:evenodd;stroke:#000000;stroke-width:1.37831pt;"
     d="M 260.372 247.688 C 260.372 247.688 260.587 254.579 264.033 255.009 "
     id="path654" />
  <path
     style="font-size:12;fill:none;fill-rule:evenodd;stroke:#000000;stroke-width:1.37831pt;"
     d="M 261.879 230.244 C 261.879 230.244 265.756 243.381 269.202 241.226 "
     id="path655" />
  <path
     style="font-size:12;fill:none;fill-rule:evenodd;stroke:#000000;stroke-width:1.37831pt;"
     d="M 271.786 223.997 C 272.001 224.429 276.093 236.274 276.093 236.274 "
     id="path656" />
  <path
     style="font-size:12;fill:none;fill-rule:evenodd;stroke:#000000;stroke-width:1.37831pt;"
     d="M 280.401 216.029 L 285.569 226.367 "
     id="path657" />
  <path
     style="font-size:12;fill:none;fill-rule:evenodd;stroke:#000000;stroke-width:1.37831pt;"
     d="M 274.58 206.118 C 274.796 206.333 280.186 214.092 281.692 213.015 "
     id="path658"
     sodipodi:nodetypes="cc" />
  <path
     style="font-size:12;fill:none;fill-rule:evenodd;stroke:#000000;stroke-width:1.37831pt;"
     d="M 266.833 213.23 C 266.833 213.23 269.848 225.075 272.216 223.997 "
     id="path659" />
  <path
     style="font-size:12;fill:none;fill-rule:evenodd;stroke:#000000;stroke-width:1.37831pt;"
     d="M 256.539 222.12 L 262.095 230.459 "
     id="path660"
     sodipodi:nodetypes="cc" />
  <path
     style="font-size:12;fill:none;fill-rule:evenodd;stroke:#000000;stroke-width:1.37831pt;"
     d="M 264.68 199.231 C 264.68 199.231 266.618 211.722 268.34 211.292 "
     id="path661" />
  <path
     style="font-size:12;fill:none;fill-rule:evenodd;stroke:#000000;stroke-width:1.37831pt;"
     d="M 271.884 192.113 C 271.884 192.328 277.385 202.678 277.816 202.678 "
     id="path662"
     sodipodi:nodetypes="cc" />
  <path
     style="font-size:12;fill:none;fill-rule:evenodd;stroke:#000000;stroke-width:1.37831pt;"
     d="M 260.802 190.616 C 261.017 190.616 266.833 197.293 266.833 197.293 "
     id="path663" />
  <path
     style="font-size:12;fill:none;fill-rule:evenodd;stroke:#000000;stroke-width:1.37831pt;"
     d="M 269.417 180.279 C 269.632 180.495 274.371 188.463 274.371 188.463 "
     id="path664" />
  <path
     style="font-size:12;fill:none;fill-rule:evenodd;stroke:#000000;stroke-width:1.37831pt;"
     d="M 271.786 165.851 C 271.786 165.851 271.786 175.11 273.724 175.327 "
     id="path665" />
  <path
     style="font-size:12;fill:none;fill-rule:evenodd;stroke:#000000;stroke-width:1.37831pt;"
     d="M 267.264 158.743 L 272.001 165.634 "
     id="path666" />
</svg>
