<?xml version="1.0" encoding="UTF-8" standalone="no"?>
<svg
   xmlns:dc="http://purl.org/dc/elements/1.1/"
   xmlns:cc="http://creativecommons.org/ns#"
   xmlns:rdf="http://www.w3.org/1999/02/22-rdf-syntax-ns#"
   xmlns:svg="http://www.w3.org/2000/svg"
   xmlns="http://www.w3.org/2000/svg"
   xmlns:sodipodi="http://sodipodi.sourceforge.net/DTD/sodipodi-0.dtd"
   xmlns:inkscape="http://www.inkscape.org/namespaces/inkscape"
   height="131.24989mm"
   id="svg378"
   sodipodi:docname="wallonia.svg"
   sodipodi:version="0.32"
   version="1"
   width="196.87497mm"
   x="0"
   y="0"
   inkscape:version="1.0.2 (e86c870879, 2021-01-15)"
   inkscape:output_extension="org.inkscape.output.svg.inkscape">
  <metadata
     id="metadata2649">
    <rdf:RDF>
      <cc:Work
         rdf:about="">
        <dc:title>Clipart by Cedric de Launois - Belgium - Walloon</dc:title>
        <dc:description />
        <dc:subject>
          <rdf:Bag>
            <rdf:li />
            <rdf:li>europe</rdf:li>
            <rdf:li>0x8f3e6a0</rdf:li>
            <rdf:li>belgium</rdf:li>
            <rdf:li>flag</rdf:li>
            <rdf:li>sign</rdf:li>
          </rdf:Bag>
        </dc:subject>
        <dc:publisher>
          <cc:Agent
             rdf:about="http://www.openclipart.org">
            <dc:title>Cedric de Launois</dc:title>
          </cc:Agent>
        </dc:publisher>
        <dc:creator>
          <cc:Agent>
            <dc:title>Cedric de Launois</dc:title>
          </cc:Agent>
        </dc:creator>
        <dc:rights>
          <cc:Agent>
            <dc:title>Cedric de Launois</dc:title>
          </cc:Agent>
        </dc:rights>
        <dc:date />
        <dc:format>image/svg+xml</dc:format>
        <dc:type
           rdf:resource="http://purl.org/dc/dcmitype/StillImage" />
        <cc:license
           rdf:resource="http://web.resource.org/cc/PublicDomain" />
        <dc:language>en</dc:language>
      </cc:Work>
      <cc:License
         rdf:about="http://web.resource.org/cc/PublicDomain">
        <cc:permits
           rdf:resource="http://web.resource.org/cc/Reproduction" />
        <cc:permits
           rdf:resource="http://web.resource.org/cc/Distribution" />
        <cc:permits
           rdf:resource="http://web.resource.org/cc/DerivativeWorks" />
      </cc:License>
    </rdf:RDF>
  </metadata>
  <sodipodi:namedview
     id="base"
     showgrid="false"
     snaptogrid="false"
     inkscape:zoom="0.51695866"
     inkscape:cx="212.72858"
     inkscape:cy="173.92788"
     inkscape:window-width="1024"
     inkscape:window-height="712"
     inkscape:window-x="0"
     inkscape:window-y="27"
     inkscape:current-layer="svg378"
     inkscape:document-rotation="0"
     inkscape:window-maximized="0" />
  <defs
     id="defs380">
    <inkscape:perspective
       sodipodi:type="inkscape:persp3d"
       inkscape:vp_x="0 : 231.49565 : 1"
       inkscape:vp_y="0 : 1066.6667 : 0"
       inkscape:vp_z="793.70078 : 231.49565 : 1"
       inkscape:persp3d-origin="396.85039 : 143.30668 : 1"
       id="perspective2683" />
  </defs>
  <rect
     height="496.06256"
     id="rect135"
     style="font-size:12px;fill:#fff600;fill-opacity:1;fill-rule:evenodd;stroke:none;stroke-width:1pt"
     width="744.09436"
     x="0"
     y="0" />
  <g
     id="g3456"
     style="fill:#ff0000;fill-opacity:1"
     transform="translate(-7.5999997e-5)">
    <path
       transform="translate(35.63732,-1.525879e-5)"
       style="font-size:12px;fill:#ff0000;fill-opacity:1;fill-rule:evenodd;stroke:none;stroke-width:1.19849pt"
       sodipodi:nodetypes="csccccccccsc"
       id="path21141"
       d="m 247.333,273.899 c -31.57,-6.335 -64.376,-34.335 -63.581,-70.077 0.723,-14.716 5.239,-10.67 6.441,-21.822 -3.06,-26.698 25.833,-42.695 41.871,-50.548 9.02,-0.948 13.712,2.778 28.699,1.852 -10.205,4.629 -17.539,8.334 -17.22,12.037 l 8.493,-0.925 c 0,0 5.052,6.445 -21.886,11.11 8.458,8.37 13.394,8.334 22.959,6.482 12.437,-3.704 -34.018,16.149 -1.949,39.036 0.977,18.258 -28.973,-3.006 -34.882,28.298 -2.722,13.343 17.993,31.952 31.055,44.557 z" />
    <path
       transform="translate(35.63732,-1.525879e-5)"
       style="font-size:12px;fill:#ff0000;fill-opacity:1;fill-rule:evenodd;stroke:none;stroke-width:1.19849pt"
       sodipodi:nodetypes="ccccscccs"
       id="path21142"
       d="m 220.583,234.694 c 0.985,8.69 26.787,37.964 45.92,47.224 20.089,6.481 45.92,-9.26 49.747,-18.519 5.18,-11.224 6.02,-29.265 0.956,-36.653 -1.683,-2.825 -20.047,-24.234 -30.614,-25.848 -25.789,-3.942 -21.046,2.314 -31.569,0.926 0,5.555 -1.914,9.722 -5.741,11.574 -3.825,1.852 -8.609,-0.001 -17.697,2.777 -2.87,0.927 -12.348,6.647 -11.002,18.519 z" />
    <path
       transform="translate(35.63732,-1.525879e-5)"
       style="font-size:12px;fill:#ff0000;fill-opacity:1;fill-rule:evenodd;stroke:none;stroke-width:1.19849pt"
       sodipodi:nodetypes="cccc"
       id="path21143"
       d="m 207.051,258.985 c 13.244,34.96 65.453,55.823 95.382,52.054 -15.559,-15.06 -27.736,-11.46 -52.087,-32.41 -9.472,-1.31 -32.757,-9.564 -43.295,-19.644 z" />
    <path
       transform="translate(35.63732,-1.525879e-5)"
       style="font-size:12px;fill:#ff0000;fill-opacity:1;fill-rule:evenodd;stroke:none;stroke-width:1.19849pt"
       sodipodi:nodetypes="ccccccccccccccscsscc"
       id="path21144"
       d="m 232.757,126.074 c -3.382,-3.273 0.675,-8.512 8.794,-12.441 8.118,-3.928 12.853,-2.618 16.234,-2.618 17.589,-4.91 7.105,-4.583 24.692,-15.3863 3.72,2.4 18.603,12.3313 24.014,18.0043 0.451,44.959 -11.725,44.959 -13.529,75.95 -3.833,-5.675 -3.609,-19.859 -7.441,-34.046 -7.667,10.696 -13.98,10.912 -20.97,19.642 0,-5.237 -2.706,-5.238 -4.06,-7.857 -0.901,4.147 -9.92,9.604 -14.882,17.679 -2.93,-12.331 17.815,-21.388 15.56,-28.81 -6.088,-0.218 -13.529,3.493 -21.648,1.31 21.647,-6.765 14.207,-8.948 20.295,-15.059 -3.382,-0.654 -4.06,-1.158 -8.596,-0.654 8.8,-5.238 17.629,-7.658 17.39,-11.131 0,-4.666 -1.805,-9.167 -2.706,-13.75 -1.353,4.146 -3.562,7.58 -6.212,10.588 -2.284,2.903 -13.698,3.093 -15.196,1.852 -3.618,-3.548 -0.916,-6.984 4.496,-13.094 -8.794,2.619 -12.176,13.095 -16.235,9.821 z" />
    <path
       transform="translate(35.63732,-1.525879e-5)"
       style="font-size:12px;fill:#ff0000;fill-opacity:1;fill-rule:evenodd;stroke:none;stroke-width:1.19849pt"
       sodipodi:nodetypes="ccccccc"
       id="path21146"
       d="m 247.976,190.238 c 1.354,3.274 6.09,5.893 10.148,7.203 2.707,-3.929 27.737,-2.619 27.059,-2.619 -2.706,-7.53 -4.059,-15.715 -2.029,-29.791 -4.059,3.273 -13.867,9.493 -21.308,22.588 -2.03,-3.928 -10e-4,-6.546 -2.03,-11.785 -2.818,5.02 -11.05,9.385 -11.84,14.404 z" />
    <path
       transform="translate(35.63732,-1.525879e-5)"
       style="font-size:12px;fill:#ff0000;fill-opacity:1;fill-rule:evenodd;stroke:none;stroke-width:1.19849pt"
       sodipodi:nodetypes="ccccc"
       id="path25162"
       d="m 248.993,304.818 c 1.354,30.336 18.94,46.268 21.646,45.178 6.878,0.326 9.02,-6.549 30.78,-6.876 -9.922,-7.639 -24.578,-24.444 -27.059,-30.118 -5.074,-0.764 -12.176,-0.873 -25.367,-8.184 z" />
    <path
       transform="translate(35.63732,-1.525879e-5)"
       style="font-size:12px;fill:#ff0000;fill-opacity:1;fill-rule:evenodd;stroke:none;stroke-width:1.19849pt"
       sodipodi:nodetypes="ccsccccccccccccc"
       id="path25163"
       d="m 134.284,323.419 c -1.477,-9.013 2.318,-13.029 21.581,-15.168 16.302,-4.899 12.867,-6.318 23.014,-6.86 11.972,-0.681 17.103,11.614 68.204,18.424 0.242,5.718 3.056,12.156 10.05,21.017 -17.004,-3.536 -25.664,-10.41 -35.005,-13.03 -4.397,-0.327 -2.586,7.66 -6.984,9.952 -2.028,-4.365 0.678,-14.032 -2.704,-14.797 l -18.831,-5.76 c -1.587,8.535 2.383,13.597 6.642,22.849 -10.449,-0.96 -13.299,-9.64 -12.177,-23.373 -9.019,0.83 -14.378,0.185 -14.095,1.113 -2.819,1.854 -14.318,18.877 -12.176,22.587 -5.299,-1.353 -7.108,-3.884 -7.333,-9.23 -0.451,-2.292 6.104,-6.746 11.064,-14.276 -10.887,-1.188 -20.553,2.34 -31.25,6.552 z" />
    <path
       transform="translate(35.63732,-1.525879e-5)"
       style="font-size:12px;fill:#ff0000;fill-opacity:1;fill-rule:evenodd;stroke:none;stroke-width:1.19849pt"
       sodipodi:nodetypes="csccccccccc"
       id="path25165"
       d="m 279.896,313.863 c 28.223,36.265 46.84,39.278 54.71,51.071 2.97,4.739 6.757,8.382 8.91,9.114 6.218,0.309 14.827,0.154 18.654,-0.462 4.784,-6.173 -0.478,-10.494 -1.435,-15.278 -0.16,-7.716 3.509,-11.266 1.913,-17.593 -4.464,2.932 -8.928,6.79 -15.784,6.018 0.956,-7.408 7.174,-6.944 5.74,-14.352 5.58,-6.481 4.183,-9.994 4.501,-12.772 -32.365,3.842 -44.456,-5.215 -50.495,-4.55 -4.503,0.454 -15.597,1.56 -26.714,-1.196 z" />
    <path
       transform="translate(35.63732,-1.525879e-5)"
       style="font-size:12px;fill:#ff0000;fill-opacity:1;fill-rule:evenodd;stroke:none;stroke-width:1.19849pt"
       sodipodi:nodetypes="ccccccccccccccccccccc"
       id="path25166"
       d="m 332.122,370.239 c -15.535,37.299 -30.509,51.334 -38.968,59.665 -4.224,4.127 -19.013,0.371 -26.621,0.8 -14.075,0.691 -13.493,7.456 -14.632,12.6 7.993,-0.923 10.172,-5.391 15.618,-5.24 7.502,1.037 11.327,0.67 16.989,1.004 4.17,-1.179 6.207,-0.763 9.31,-1.145 -0.242,3.781 -12.341,9.782 -18.511,14.671 -3.214,5.035 -0.56,9.42 1.024,10.866 3.396,-2.677 4.009,-2.443 7.702,-3.682 0.157,-8.771 8.388,-9.043 14.181,-16.625 7.181,4.185 12.887,1.024 17.192,-2.47 3.61,1.937 7.114,12.266 16.837,19.187 2.624,-4.178 1.515,-5.564 1.532,-8.207 -5.649,-3.6 -11.478,-9.556 -14.643,-17.506 -2.753,-11.787 2.981,-18.289 5.99,-22.339 5.859,5.728 8.47,7.929 17.559,5.977 -7.674,-4.091 -11.787,-5.862 -13.592,-10.604 3.373,-4.393 12.371,-15.067 25.401,-27.094 -6.218,-1.026 -12.138,-0.616 -14.917,-2.137 -2.975,-1.237 -5.126,-5.167 -7.451,-7.721 z" />
    <path
       transform="translate(35.63732,-1.525879e-5)"
       style="font-size:12px;fill:#ff0000;fill-opacity:1;fill-rule:evenodd;stroke:none;stroke-width:1.19849pt"
       sodipodi:nodetypes="cccc"
       id="path25167"
       d="m 236.708,102.012 c 1.101,-3.4133 6.599,-6.5003 13.112,-10.2413 2.253,2.198 2.473,3.741 4.387,5.284 -6.06,1.544 -11.441,3.4143 -17.499,4.9573 z" />
    <path
       transform="translate(35.63732,-1.525879e-5)"
       style="font-size:12px;fill:#ff0000;fill-opacity:1;fill-rule:evenodd;stroke:none;stroke-width:1.19849pt"
       sodipodi:nodetypes="cccccc"
       id="path25170"
       d="m 237.831,104.138 c 6.313,-1.746 12.627,-2.835 18.265,-4.9093 2.481,2.6183 3.946,5.5643 7.102,7.5283 -2.254,0.654 -3.832,1.31 -6.426,1.964 -0.676,0 -2.705,-0.653 -3.044,-3.273 -6.933,0.492 -15.221,-0.654 -15.897,-1.31 z" />
    <path
       id="path25171"
       d="m 311.0625,78.5625 c -1.86449,-0.02316 -4.35125,0.570313 -8.15625,2.34375 -3.947,2.292 -9.5795,7.192251 -13.1875,9.15625 2.593,4.147 9.231,12.6635 12.5,15.0625 3.833,-5.6733 9.68099,-9.069998 12.5,-12.125 3.72,-2.62 8.1445,2.285998 11.1875,4.25 8.344,5.3473 11.27751,8.4105 15.5625,10.8125 -0.565,-12.8773 -6.88401,-26.390998 -19.625,-26.5 -5.58044,0.07563 -6.67937,-2.949042 -10.78125,-3 z m -7.84375,7.71875 c 3.946,-0.327 2.17,2.959002 3.75,5.25 1.353,1.856 -1.9135,3.585 -4.0625,1.625 -1.797,-1.641 -1.82949,-5.51 0.3125,-6.875 z"
       style="font-size:12px;fill:#ff0000;fill-opacity:1;fill-rule:evenodd;stroke:none;stroke-width:1.19849pt" />
    <path
       transform="translate(35.63732,-1.525879e-5)"
       style="font-size:12px;fill:#ff0000;fill-opacity:1;fill-rule:evenodd;stroke:none;stroke-width:1.19849pt"
       sodipodi:nodetypes="cccccccccccccccccc"
       id="path25173"
       d="m 250.853,88.2617 c -4.058,1.636 -7.103,1.964 -8.795,0.654 -2.029,-2.292 -3.382,-3.928 -4.058,-10.149 2.142,-7.966 7.667,-13.3132 14.205,-22.5879 1.354,-1.0906 4.398,3.055 8.118,5.2375 -1.014,-6.9283 -0.338,-8.9481 1.353,-11.6211 2.367,-4.0383 7.441,-11.6753 8.456,-10.4762 2.255,3.8745 -0.225,12.3309 2.369,11.9489 5.13,0.1639 4.51,-16.0403 15.389,-19.1507 2.593,-0.7641 -2.593,14.1868 0.676,14.4049 7.441,1.3088 9.133,-15.0593 16.235,-12.7683 5.863,0.382 13.416,14.8411 13.529,18.8241 0.113,9.2759 -4.847,18.5517 -9.133,20.298 -7.723,4.1458 -14.43,6.9838 -25.198,5.2378 0.903,-6.5478 -12.062,-3.493 -14.204,-1.965 -3.496,1.637 -4.623,2.619 -7.781,4.583 -1.352,-1.418 -2.706,-6.111 -4.057,-4.256 -0.339,5.893 -2.367,8.839 -7.104,11.786 z" />
    <path
       transform="translate(35.63732,-1.525879e-5)"
       style="font-size:12px;fill:#ff0000;fill-opacity:1;fill-rule:evenodd;stroke:none;stroke-width:1.19849pt"
       sodipodi:nodetypes="ccccccccccccccc"
       id="path25176"
       d="m 269.422,287.879 c 6.06,2.778 21.017,11.608 36.305,9.316 -2.551,2.16 -4.425,3.339 -6.976,5.499 7.938,8.708 14.641,7.925 24.484,11.762 12.419,3.102 32.446,1.497 35.648,1.857 -1.016,-8.512 1.741,-6.168 -0.06,-30.23 -4.34,8.839 -4.658,17.753 -15.481,22.336 -0.957,-2.469 -0.56,-4.611 0.174,-9.372 -4.146,2.778 -5.924,10.139 -20.894,10.298 2.031,-4.976 4.06,-8.97 8.795,-13.618 -4.33,-4.182 -15.085,0.149 -26.516,-6.65 12.707,0.73 22.033,-0.832 30.005,-2.067 -0.32,-4.321 0.04,-7.006 -1.633,-11 -6.828,5.181 -12.639,2.835 -21.328,0.814 -24.94,13.015 -32.632,10.643 -42.523,11.055 z" />
    <path
       transform="translate(35.63732,-1.525879e-5)"
       style="font-size:12px;fill:#ff0000;fill-opacity:1;fill-rule:evenodd;stroke:none;stroke-width:1.19849pt"
       sodipodi:nodetypes="cccc"
       id="path25177"
       d="m 315.288,273.389 c 5.41,-6.111 6.764,-12.221 8.792,-18.987 3.045,4.692 7.442,13.968 7.78,18.005 -3.045,1.418 -8.118,4.802 -16.572,0.982 z" />
    <path
       transform="translate(35.63732,-1.525879e-5)"
       style="font-size:12px;fill:#ff0000;fill-opacity:1;fill-rule:evenodd;stroke:none;stroke-width:1.19849pt"
       sodipodi:nodetypes="ccccccccccccccccccccsc"
       id="path25178"
       d="m 297.36,201.04 c 19.053,14.296 23.902,23.352 25.367,27.827 2.48,7.639 2.256,13.968 2.031,18.988 6.2,6.875 12.401,19.642 13.866,27.826 2.255,20.297 -8.342,26.19 -9.47,29.463 4.735,-0.873 11.5,-8.292 17.589,-12.439 0.45,3.273 -0.453,6.547 -0.678,9.821 3.27,-2.073 10.598,-19.861 11.839,-23.898 6.539,-2.51 6.539,30.663 4.735,42.231 0.452,2.62 -6.539,14.404 -9.47,20.297 3.832,-0.546 10.373,-6.985 15.559,-15.387 0,5.675 0.676,11.349 2.029,13.095 2.706,-4.365 0.869,-19.031 6.764,-18.334 -2.806,22.529 0.902,30.556 3.721,51.399 2.819,-6.22 0.901,-31.427 4.397,-42.231 2.48,-0.218 10.373,11.348 15.558,13.095 -4.96,-10.15 -13.98,-15.714 -14.883,-28.482 1.354,-2.073 10.148,9.602 16.237,13.422 3.607,2.401 6.538,0.874 8.793,-0.654 -9.357,-1.964 -24.127,-20.952 -26.043,-27.5 -7.215,-21.216 -7.741,-40.584 -40.1,-70.623 C 325.248,210.435 319.12,204.205 297.36,201.04 Z" />
    <path
       transform="translate(35.63732,-1.525879e-5)"
       style="font-size:12px;fill:#ff0000;fill-opacity:1;fill-rule:evenodd;stroke:none;stroke-width:1.19849pt"
       sodipodi:nodetypes="csscccsscccc"
       id="path25181"
       d="m 351.647,228.676 c -11.354,-13.258 -1.843,-49.538 8.611,-73.151 7.029,-15.256 31.157,-44.618 79.402,-49.076 34.482,-2.524 64.232,12.894 80.361,31.483 -3.255,-0.931 -6.328,-2.286 -9.567,0 3.171,0.954 38.149,30.359 16.263,63.89 4.666,-23.345 -13.149,-47.946 -32.527,-55.556 -25.568,-11.14 -56.369,-8.681 -84.186,2.778 -19.542,9.112 -48.317,34.107 -50.703,60.186 9.081,-19.596 22.961,-34.631 28.699,-38.89 -12.053,22.614 -10.941,26.064 -11.479,29.631 -7.434,9.704 -18.372,16.991 -24.874,28.705 z" />
    <path
       transform="translate(35.63732,-1.525879e-5)"
       style="font-size:12px;fill:#ff0000;fill-opacity:1;fill-rule:evenodd;stroke:none;stroke-width:1.19849pt"
       sodipodi:nodetypes="cccccc"
       id="path25184"
       d="m 400.915,112.005 c 15.147,-14.5063 88.651,-50.3092 101.886,-77.7784 -3.827,33.025 -33.484,46.6051 -37.31,51.8521 10.682,2.315 32.845,-8.333 49.267,-12.5 -12.436,13.271 -36.352,27.4703 -44.004,31.4823 -32.528,-7.2533 -53.575,0.308 -69.839,6.944 z" />
    <path
       transform="translate(35.63732,-1.525879e-5)"
       style="font-size:12px;fill:#ff0000;fill-opacity:1;fill-rule:evenodd;stroke:none;stroke-width:1.19849pt"
       sodipodi:nodetypes="cccccc"
       id="path25185"
       d="m 381.304,197.655 c 8.334,-48.036 58.499,-52.771 66.208,-53.975 -2.236,7.854 -8.889,15.199 -13.114,18.79 31.888,0.574 39.355,9.61 56.923,25.926 -28.222,-16.05 -45.944,-16.901 -63.059,-16.939 -9.566,14.97 -25.433,11.692 -46.958,26.198 z" />
    <path
       transform="translate(35.63732,-1.525879e-5)"
       style="font-size:12px;fill:#ff0000;fill-opacity:1;fill-rule:evenodd;stroke:none;stroke-width:1.19849pt"
       sodipodi:nodetypes="ccccc"
       id="path25187"
       d="m 452.947,143.423 c -1.354,1.31 -7.441,13.749 -10.824,16.368 5.414,0 8.457,0.655 11.163,1.31 3.495,-6.001 6.989,-12.003 12.514,-17.35 -3.608,-0.764 -8.569,-0.874 -12.853,-0.328 z" />
    <path
       transform="translate(35.63732,-1.525879e-5)"
       style="font-size:12px;fill:#ff0000;fill-opacity:1;fill-rule:evenodd;stroke:none;stroke-width:1.19849pt"
       sodipodi:nodetypes="ccccc"
       id="path25188"
       d="m 430.624,174.196 c -1.691,2.619 -3.383,4.257 -5.074,6.221 4.398,0 13.219,0.289 17.25,-0.656 0.95,-3.121 1.579,-2.946 2.706,-4.583 -2.931,-0.437 -8.229,-0.872 -14.882,-0.982 z" />
    <path
       transform="translate(35.63732,-1.525879e-5)"
       style="font-size:12px;fill:#ff0000;fill-opacity:1;fill-rule:evenodd;stroke:none;stroke-width:1.19849pt"
       sodipodi:nodetypes="cscccc"
       id="path25189"
       d="m 354.996,231.916 c 8.132,-14.506 38.882,-44.552 72.229,-47.222 13.743,-1.025 55.964,-4.169 73.184,19.906 -23.438,-16.203 -63.141,-12.499 -81.316,-1.388 -27.745,3.395 -46.876,25.308 -56.444,37.037 -2.55,-3.087 -3.19,-4.321 -7.653,-8.333 z" />
    <path
       transform="translate(35.63732,-1.525879e-5)"
       style="font-size:12px;fill:#ff0000;fill-opacity:1;fill-rule:evenodd;stroke:none;stroke-width:1.19849pt"
       sodipodi:nodetypes="cccccc"
       id="path25191"
       d="m 364.563,242.101 c 1.913,2.778 3.827,5.556 5.739,8.334 2.551,-2.162 33.803,-38.581 77.968,-24.538 -7.335,-7.407 -11.798,-10.185 -17.219,-10.185 0.638,-1.851 7.015,-3.704 20.089,-3.704 -43.209,-15.895 -72.067,14.507 -86.577,30.093 z" />
    <path
       transform="translate(35.63732,-1.525879e-5)"
       style="font-size:12px;fill:#ff0000;fill-opacity:1;fill-rule:evenodd;stroke:none;stroke-width:1.19849pt"
       sodipodi:nodetypes="ccscccssc"
       id="path25192"
       d="m 433.921,202.285 c 3.986,-4.166 38.587,-6.481 48.311,-2.314 24.554,6.636 50.079,29.891 54.53,61.575 10.368,71.646 -22.004,100.31 -17.22,174.077 -12.754,-24.382 -13.075,-41.358 -10.523,-62.963 -12.755,10.031 -21.685,19.137 -25.83,38.427 -7.813,-33.18 18.914,-47.496 29.178,-76.855 11.103,-31.755 6.146,-62.158 0.956,-78.241 -9.798,-30.369 -31.887,-54.014 -79.402,-53.706 z" />
    <path
       transform="translate(35.63732,-1.525879e-5)"
       style="font-size:12px;fill:#ff0000;fill-opacity:1;fill-rule:evenodd;stroke:none;stroke-width:1.19849pt"
       sodipodi:nodetypes="ccsscsccsccc"
       id="path25193"
       d="m 441.574,215.712 c 6.617,2.778 10.012,8.15 15.585,15.768 11.169,10.891 23.612,22.54 25.074,37.011 2.166,22.801 -4.003,37.86 -13.872,45.834 -10.684,7.861 -22.959,11.42 -47.356,4.63 13.713,11.266 19.208,11.292 29.657,11.574 10.513,0.309 27.744,-3.704 46.399,-24.538 2.87,22.225 -18.176,32.408 -17.22,32.408 0.956,0.926 32.527,-1.851 32.527,-52.778 0,-44.756 -30.932,-74.693 -61.226,-78.706 13.233,4.784 14.03,11.42 13.871,16.205 -7.175,-8.335 -15.308,-7.408 -23.439,-7.408 z" />
    <path
       transform="translate(35.63732,-1.525879e-5)"
       style="font-size:12px;fill:#ff0000;fill-opacity:1;fill-rule:evenodd;stroke:none;stroke-width:1.19849pt"
       sodipodi:nodetypes="cscccccccccccscc"
       id="path25194"
       d="m 372.694,252.749 c 12.756,-12.655 33.343,-23.348 49.746,-25 36.092,-3.538 61.546,38.581 55.966,58.334 -2.87,-6.79 -5.74,-10.803 -9.567,-11.11 16.423,28.858 -10.044,42.13 -17.697,43.055 5.102,-6.481 6.377,-24.074 2.868,-29.63 -6.696,6.173 -9.565,12.347 -18.176,12.038 8.929,-6.173 6.378,-8.642 9.568,-12.964 -4.785,0.926 -12.438,8.334 -25.832,8.334 10.206,-4.629 7.973,-20.371 7.655,-25 -5.421,1.851 -5.102,8.332 -10.523,13.888 1.594,-6.79 0.317,-8.025 -0.002,-12.037 -5.102,8.952 -12.117,10.495 -15.307,8.334 5.103,-3.704 3.433,-12.881 0.957,-14.815 -5.816,-4.547 -15.305,-2.778 -21.046,3.703 -1.914,-5.401 -5.74,-12.654 -8.61,-17.13 z" />
    <path
       transform="translate(35.63732,-1.525879e-5)"
       style="font-size:12px;fill:#ff0000;fill-opacity:1;fill-rule:evenodd;stroke:none;stroke-width:1.19849pt"
       sodipodi:nodetypes="cccccccccccccc"
       id="path25195"
       d="m 405.699,349.974 c 14.19,-1.081 22.642,-4.012 33.005,-15.278 21.047,1.234 33.483,-1.235 51.66,-14.815 -0.638,6.172 -13.712,17.902 -19.133,19.444 3.506,2.161 7.015,4.321 10.523,2.778 -4.784,9.568 -7.653,19.138 -8.61,42.594 -3.826,-6.481 -5.262,-17.131 -3.348,-31.02 -7.654,2.779 -7.176,28.242 -7.176,28.242 -2.551,-8.024 -3.189,-5.863 -1.912,-21.296 -9.885,11.419 -14.032,28.396 -15.306,60.185 -11.64,-16.048 -4.147,-48.766 -1.436,-60.185 -5.74,6.481 -30.134,19.906 -41.615,7.869 9.566,-0.926 23.916,-7.407 30.613,-18.519 -12.597,2.778 -21.366,4.631 -27.265,10e-4 z" />
    <path
       transform="translate(35.63732,-1.525879e-5)"
       style="font-size:12px;fill:#ff0000;fill-opacity:1;fill-rule:evenodd;stroke:none;stroke-width:1.19849pt"
       sodipodi:nodetypes="cccccc"
       id="path25196"
       d="m 382.262,273.584 c 5.102,30.247 18.335,34.667 35.873,37.6 -17.561,-10.676 -25.9,-24.146 -29.655,-33.433 5.102,1.08 6.377,-1.544 11.958,-2.778 0.318,-3.395 -0.798,-6.792 -3.827,-6.945 -7.654,-0.309 -10.045,2.16 -14.349,5.556 z" />
  </g>
</svg>
