<?xml version="1.0" encoding="UTF-8" standalone="no"?>
<svg
   xml:space="preserve"
   width="1023px"
   height="682px"
   style="shape-rendering:geometricPrecision; image-rendering:optimizeQuality"
   viewBox="0 0 1023 682"
   version="1.1"
   id="svg59"
   sodipodi:docname="zanzibar.svg"
   inkscape:version="1.1.2 (0a00cf5339, 2022-02-04)"
   xmlns:inkscape="http://www.inkscape.org/namespaces/inkscape"
   xmlns:sodipodi="http://sodipodi.sourceforge.net/DTD/sodipodi-0.dtd"
   xmlns="http://www.w3.org/2000/svg"
   xmlns:svg="http://www.w3.org/2000/svg"><sodipodi:namedview
   id="namedview61"
   pagecolor="#ffffff"
   bordercolor="#666666"
   borderopacity="1.0"
   inkscape:pageshadow="2"
   inkscape:pageopacity="0.0"
   inkscape:pagecheckerboard="0"
   showgrid="false"
   inkscape:zoom="0.74546888"
   inkscape:cx="511.08773"
   inkscape:cy="341.39587"
   inkscape:window-width="971"
   inkscape:window-height="706"
   inkscape:window-x="543"
   inkscape:window-y="109"
   inkscape:window-maximized="0"
   inkscape:current-layer="svg59" />
 <defs
   id="defs2">
 </defs>
 <g
   id="Layer 1">
     <rect
   x="0"
   y="0"
   width="1023"
   height="682"
   fill="#FCD116"
   id="rect4" />

     <rect
   x="0"
   y="0"
   width="1023"
   height="37"
   fill="#DA251D"
   id="rect6" />
     <rect
   x="0"
   y="37"
   width="1023"
   height="37"
   fill="#FFFFFF"
   id="rect8" />
     <rect
   x="0"
   y="74"
   width="1023"
   height="37"
   fill="#009700"
   id="rect10" />

     <rect
   x="0"
   y="645"
   width="1023"
   height="37"
   fill="#DA251D"
   id="rect12" />
     <rect
   x="0"
   y="607"
   width="1023"
   height="37"
   fill="#FFFFFF"
   id="rect14" />
     <rect
   x="0"
   y="571"
   width="1023"
   height="37"
   fill="#009700"
   id="rect16" />

     <rect
   x="0"
   y="215"
   width="1023"
   height="37"
   fill="#DA251D"
   id="rect18" />                   <rect
   x="0"
   y="252"
   width="1023"
   height="37"
   fill="#009700"
   id="rect20" />

     <rect
   x="0"
   y="393"
   width="1023"
   height="37"
   fill="#009700"
   id="rect22" />                   <rect
   x="0"
   y="430"
   width="1023"
   height="37"
   fill="#DA251D"
   id="rect24" />

     <circle
   cx="262"
   cy="163"
   r="46"
   fill="#009700"
   id="circle26" />
      <circle
   cx="272"
   cy="163"
   r="41"
   fill="#FCD116"
   id="circle28" />
     <circle
   cx="512"
   cy="163"
   r="46"
   fill="#009700"
   id="circle30" />
      <circle
   cx="522"
   cy="163"
   r="41"
   fill="#FCD116"
   id="circle32" />
     <circle
   cx="762"
   cy="163"
   r="46"
   fill="#009700"
   id="circle34" />
     <circle
   cx="772"
   cy="163"
   r="41"
   fill="#FCD116"
   id="circle36" />

     <circle
   cx="262"
   cy="519"
   r="46"
   fill="#009700"
   id="circle38" />
      <circle
   cx="272"
   cy="519"
   r="41"
   fill="#FCD116"
   id="circle40" />
     <circle
   cx="512"
   cy="519"
   r="46"
   fill="#009700"
   id="circle42" />
      <circle
   cx="522"
   cy="519"
   r="41"
   fill="#FCD116"
   id="circle44" />
     <circle
   cx="762"
   cy="519"
   r="46"
   fill="#009700"
   id="circle46" />
      <circle
   cx="772"
   cy="519"
   r="41"
   fill="#FCD116"
   id="circle48" />

      <circle
   cx="387"
   cy="341"
   r="46"
   fill="#009700"
   id="circle50" />
       <circle
   cx="397"
   cy="341"
   r="41"
   fill="#FCD116"
   id="circle52" />
      <circle
   cx="637"
   cy="341"
   r="46"
   fill="#009700"
   id="circle54" />
       <circle
   cx="647"
   cy="341"
   r="41"
   fill="#FCD116"
   id="circle56" />

 </g>
</svg>
