<?xml version="1.0" encoding="UTF-8" standalone="no"?>
<svg
   width="321"
   height="214"
   version="1.1"
   id="svg14"
   sodipodi:docname="zapotec.svg"
   inkscape:version="1.1.2 (0a00cf5339, 2022-02-04)"
   xmlns:inkscape="http://www.inkscape.org/namespaces/inkscape"
   xmlns:sodipodi="http://sodipodi.sourceforge.net/DTD/sodipodi-0.dtd"
   xmlns="http://www.w3.org/2000/svg"
   xmlns:svg="http://www.w3.org/2000/svg">
  <defs
     id="defs18" />
  <sodipodi:namedview
     id="namedview16"
     pagecolor="#ffffff"
     bordercolor="#666666"
     borderopacity="1.0"
     inkscape:pageshadow="2"
     inkscape:pageopacity="0.0"
     inkscape:pagecheckerboard="0"
     showgrid="false"
     inkscape:zoom="2.3757466"
     inkscape:cx="160.37064"
     inkscape:cy="106.91376"
     inkscape:window-width="931"
     inkscape:window-height="695"
     inkscape:window-x="636"
     inkscape:window-y="96"
     inkscape:window-maximized="0"
     inkscape:current-layer="svg14" />
  <path
     style="fill:#2f9761; stroke:none;"
     d="M0 0L0 74L12 74L12 61L24 61L24 49L36 49L36 37L48 37L48 25L101 25L101 59L73 59L73 39L89 39L89 45L79 45L79 53L95 53L95 31L61 31L61 74L115 74L115 61L127 61L127 49L139 49L139 37L151 37L151 25L205 25L205 59L176 59L176 39L192 39L192 45L182 45L182 53L199 53L199 31L164 31L164 74L219 74L219 61L231 61L231 49L243 49L243 37L255 37L255 25L309 25L309 59L280 59L280 39L296 39L296 45L286 45L286 53L303 53L303 31L268 31L268 74L321 74L321 0L0 0z"
     id="path2" />
  <path
     style="fill:#ffffff; stroke:none;"
     d="M48 25L48 37L36 37L36 49L24 49L24 61L12 61L12 74L0 74L0 85L321 85L321 74L268 74L268 31L303 31L303 53L286 53L286 45L296 45L296 39L280 39L280 59L309 59L309 25L255 25L255 37L243 37L243 49L231 49L231 61L219 61L219 74L164 74L164 31L199 31L199 53L182 53L182 45L192 45L192 39L176 39L176 59L205 59L205 25L151 25L151 37L139 37L139 49L127 49L127 61L115 61L115 74L61 74L61 31L95 31L95 53L79 53L79 45L89 45L89 39L73 39L73 59L101 59L101 25L48 25z"
     id="path4" />
  <path
     style="fill:#2f9761; stroke:none;"
     d="M0 85L0 108L321 108L321 85L0 85z"
     id="path6" />
  <path
     style="fill:#bc0d2a; stroke:none;"
     d="M0 108L0 131L321 131L321 108L0 108z"
     id="path8" />
  <path
     style="fill:#ffffff; stroke:none;"
     d="M0 131L0 142L12 142L12 155L24 155L24 167L36 167L36 179L48 179L48 191L101 191L101 157L73 157L73 177L89 177L89 171L79 171L79 163L95 163L95 185L61 185L61 142L115 142L115 155L127 155L127 167L139 167L139 179L151 179L151 191L205 191L205 157L176 157L176 177L192 177L192 171L182 171L182 163L199 163L199 185L164 185L164 142L219 142L219 155L231 155L231 167L243 167L243 179L255 179L255 191L309 191L309 157L280 157L280 177L296 177L296 171L286 171L286 163L303 163L303 185L268 185L268 142L321 142L321 131L0 131z"
     id="path10" />
  <path
     style="fill:#bc0d2a; stroke:none;"
     d="M0 142L0 214L321 214L321 142L268 142L268 185L303 185L303 163L286 163L286 171L296 171L296 177L280 177L280 157L309 157L309 191L255 191L255 179L243 179L243 167L231 167L231 155L219 155L219 142L164 142L164 185L199 185L199 163L182 163L182 171L192 171L192 177L176 177L176 157L205 157L205 191L151 191L151 179L139 179L139 167L127 167L127 155L115 155L115 142L61 142L61 185L95 185L95 163L79 163L79 171L89 171L89 177L73 177L73 157L101 157L101 191L48 191L48 179L36 179L36 167L24 167L24 155L12 155L12 142L0 142z"
     id="path12" />
</svg>
