<?xml version="1.0" encoding="UTF-8" standalone="no"?>
<!-- Created with Sodipodi ("http://www.sodipodi.com/") -->

<svg
   height="496.06311"
   id="svg548"
   sodipodi:docname="zulu.svg"
   sodipodi:version="0.32"
   width="744.09448"
   inkscape:version="1.1.2 (0a00cf5339, 2022-02-04)"
   version="1.1"
   xmlns:inkscape="http://www.inkscape.org/namespaces/inkscape"
   xmlns:sodipodi="http://sodipodi.sourceforge.net/DTD/sodipodi-0.dtd"
   xmlns="http://www.w3.org/2000/svg"
   xmlns:svg="http://www.w3.org/2000/svg"
   xmlns:rdf="http://www.w3.org/1999/02/22-rdf-syntax-ns#"
   xmlns:cc="http://creativecommons.org/ns#"
   xmlns:dc="http://purl.org/dc/elements/1.1/">
  <metadata
     id="metadata3">
    <rdf:RDF>
      <cc:Work
         rdf:about="">
        <dc:description />
        <dc:subject>
          <rdf:Bag>
            <rdf:li />
            <rdf:li>united_nations_member</rdf:li>
            <rdf:li>flag</rdf:li>
            <rdf:li>africa</rdf:li>
            <rdf:li>sign</rdf:li>
          </rdf:Bag>
        </dc:subject>
        <dc:publisher>
          <cc:Agent
             rdf:about="http://www.openclipart.org">
            <dc:title> Caleb Moore</dc:title>
          </cc:Agent>
        </dc:publisher>
        <dc:creator>
          <cc:Agent>
            <dc:title>Caleb Moore</dc:title>
          </cc:Agent>
        </dc:creator>
        <dc:rights>
          <cc:Agent>
            <dc:title> Caleb Moore</dc:title>
          </cc:Agent>
        </dc:rights>
        <dc:date />
        <dc:format>image/svg+xml</dc:format>
        <dc:type
           rdf:resource="http://purl.org/dc/dcmitype/StillImage" />
        <cc:license
           rdf:resource="http://web.resource.org/cc/PublicDomain" />
        <dc:language>en</dc:language>
      </cc:Work>
      <cc:License
         rdf:about="http://web.resource.org/cc/PublicDomain">
        <cc:permits
           rdf:resource="http://web.resource.org/cc/Reproduction" />
        <cc:permits
           rdf:resource="http://web.resource.org/cc/Distribution" />
        <cc:permits
           rdf:resource="http://web.resource.org/cc/DerivativeWorks" />
      </cc:License>
    </rdf:RDF>
  </metadata>
  <defs
     id="defs550" />
  <sodipodi:namedview
     id="base"
     showgrid="false"
     snaptogrid="true"
     inkscape:zoom="0.69346032"
     inkscape:cx="372.04724"
     inkscape:cy="244.42639"
     inkscape:window-width="845"
     inkscape:window-height="532"
     inkscape:window-x="741"
     inkscape:window-y="263"
     inkscape:current-layer="svg548"
     pagecolor="#ffffff"
     bordercolor="#666666"
     borderopacity="1.0"
     inkscape:pageshadow="2"
     inkscape:pageopacity="0.0"
     inkscape:pagecheckerboard="0"
     showguides="true"
     inkscape:window-maximized="0">
    <inkscape:grid
       id="GridFromPre046Settings"
       type="xygrid"
       originx="0"
       originy="0.00012300001"
       spacingx="3.7795276"
       spacingy="3.7795276"
       color="#3f3fff"
       empcolor="#3f3fff"
       opacity="0.15"
       empopacity="0.38"
       empspacing="5" />
  </sodipodi:namedview>
  <rect
     height="496.06299"
     id="rect585"
     style="font-size:12px;fill:#ffffff;fill-opacity:1;fill-rule:evenodd;stroke:none;stroke-width:1pt;stroke-opacity:1"
     width="744.09448"
     x="0"
     y="0" />
  <rect
     y="220.47311"
     x="0"
     width="744.09448"
     style="font-size:12px;fill:#008900;fill-opacity:1;fill-rule:evenodd;stroke:none;stroke-width:1pt;stroke-opacity:1"
     id="rect2700"
     height="55.119999" />
  <rect
     height="55.119999"
     id="rect966"
     style="font-size:12px;fill:#ffd900;fill-opacity:1;fill-rule:evenodd;stroke:none;stroke-width:1pt;stroke-opacity:1"
     width="744.09448"
     x="0"
     y="275.59311" />
  <rect
     height="55.119999"
     id="rect2774"
     style="font-size:12px;fill:#000000;fill-opacity:1;fill-rule:evenodd;stroke:none;stroke-width:1pt;stroke-opacity:1"
     width="744.09448"
     x="0"
     y="165.35312" />
  <rect
     height="496.06"
     id="rect967"
     style="font-size:12px;fill:#b10c0c;fill-opacity:1;fill-rule:evenodd;stroke:none;stroke-width:1pt;stroke-opacity:1"
     width="248.03"
     x="0"
     y="0.0031137227" />
  <g
     id="g2659"
     transform="translate(-4.24535,1.2300001e-4)">
    <rect
       transform="rotate(-90)"
       y="124.98671"
       x="-459.55972"
       width="412.4263"
       style="font-size:12px;fill:#ffffff;fill-opacity:1;fill-rule:evenodd;stroke:#000000;stroke-width:0.943591"
       ry="5.314961"
       rx="5.2379346"
       id="rect969"
       height="7.709765" />
    <g
       style="fill:#ffffff;fill-opacity:1"
       transform="matrix(0.311402,-0.655037,0.655037,0.311402,-333.9858,845.6664)"
       id="g984">
      <path
         transform="matrix(0.340001,0,0,0.300002,1256.811,136.4168)"
         style="font-size:12px;fill:#ffffff;fill-opacity:1;fill-rule:evenodd;stroke:#000000;stroke-width:3.91388;stroke-dasharray:none;stroke-opacity:1"
         sodipodi:nodetypes="ccccc"
         id="path985"
         d="m -106.299,265.748 -88.583,35.433 88.583,35.433 88.5825,-35.433 z" />
      <rect
         y="223.22833"
         x="761.81091"
         width="442.91345"
         style="font-size:12px;fill:#ffffff;fill-opacity:1;fill-rule:evenodd;stroke:#000000;stroke-width:1.25;stroke-dasharray:none"
         ry="4.8853593"
         rx="5.3101912"
         id="rect986"
         height="7.0865941" />
      <path
         transform="matrix(-0.500011,0,0,0.500001,1806.328,90.35433)"
         style="font-size:12px;fill:#ffffff;fill-opacity:1;fill-rule:evenodd;stroke:#000000;stroke-width:2.49997;stroke-dasharray:none;stroke-opacity:1"
         sodipodi:nodetypes="ccc"
         id="path987"
         d="m 1224.44,279.921 c -3.54,0 -7.09,-3.544 -7.09,-7.087 0,-3.543 3.55,-7.087 7.09,-7.087" />
      <path
         transform="matrix(-0.500011,0,0,0.500001,1802.785,90.35418)"
         style="font-size:12px;fill:#ffffff;fill-opacity:1;fill-rule:evenodd;stroke:#000000;stroke-width:2.49997;stroke-dasharray:none;stroke-opacity:1"
         sodipodi:nodetypes="ccc"
         id="path988"
         d="m 1224.44,279.921 c -3.54,0 -7.09,-3.544 -7.09,-7.087 0,-3.543 3.55,-7.087 7.09,-7.087" />
      <path
         transform="matrix(-0.500011,0,0,0.500001,1799.241,90.3546)"
         style="font-size:12px;fill:#ffffff;fill-opacity:1;fill-rule:evenodd;stroke:#000000;stroke-width:2.49997;stroke-dasharray:none;stroke-opacity:1"
         sodipodi:nodetypes="ccc"
         id="path989"
         d="m 1224.44,279.921 c -3.54,0 -7.09,-3.544 -7.09,-7.087 0,-3.543 3.55,-7.087 7.09,-7.087" />
    </g>
    <g
       style="fill:#ffffff;fill-opacity:1"
       id="g2641"
       transform="matrix(-0.311402,-0.655037,-0.655037,0.311402,588.6302,845.6664)">
      <path
         d="m -106.299,265.748 -88.583,35.433 88.583,35.433 88.5825,-35.433 z"
         id="path2643"
         sodipodi:nodetypes="ccccc"
         style="font-size:12px;fill:#ffffff;fill-opacity:1;fill-rule:evenodd;stroke:#000000;stroke-width:3.91388;stroke-dasharray:none;stroke-opacity:1"
         transform="matrix(0.340001,0,0,0.300002,1256.811,136.4168)" />
      <rect
         height="7.0865941"
         id="rect2645"
         rx="5.3101912"
         ry="4.8853593"
         style="font-size:12px;fill:#ffffff;fill-opacity:1;fill-rule:evenodd;stroke:#000000;stroke-width:1.25;stroke-dasharray:none"
         width="442.91345"
         x="761.81091"
         y="223.22833" />
      <path
         d="m 1224.44,279.921 c -3.54,0 -7.09,-3.544 -7.09,-7.087 0,-3.543 3.55,-7.087 7.09,-7.087"
         id="path2647"
         sodipodi:nodetypes="ccc"
         style="font-size:12px;fill:#ffffff;fill-opacity:1;fill-rule:evenodd;stroke:#000000;stroke-width:2.49997;stroke-dasharray:none;stroke-opacity:1"
         transform="matrix(-0.500011,0,0,0.500001,1806.328,90.35433)" />
      <path
         d="m 1224.44,279.921 c -3.54,0 -7.09,-3.544 -7.09,-7.087 0,-3.543 3.55,-7.087 7.09,-7.087"
         id="path2649"
         sodipodi:nodetypes="ccc"
         style="font-size:12px;fill:#ffffff;fill-opacity:1;fill-rule:evenodd;stroke:#000000;stroke-width:2.49997;stroke-dasharray:none;stroke-opacity:1"
         transform="matrix(-0.500011,0,0,0.500001,1802.785,90.35418)" />
      <path
         d="m 1224.44,279.921 c -3.54,0 -7.09,-3.544 -7.09,-7.087 0,-3.543 3.55,-7.087 7.09,-7.087"
         id="path2651"
         sodipodi:nodetypes="ccc"
         style="font-size:12px;fill:#ffffff;fill-opacity:1;fill-rule:evenodd;stroke:#000000;stroke-width:2.49997;stroke-dasharray:none;stroke-opacity:1"
         transform="matrix(-0.500011,0,0,0.500001,1799.241,90.3546)" />
    </g>
    <path
       d="m 128.84169,114.99494 c 25.69917,25.69894 77.0975,59.96499 77.0975,128.49613 0,59.96499 -51.39833,102.79671 -77.0975,128.49613 -25.69916,-25.69942 -77.097668,-68.53114 -77.097668,-128.49613 0,-68.53114 51.398508,-102.79719 77.097668,-128.49613 z"
       id="path552"
       sodipodi:nodetypes="ccccc"
       style="font-size:12px;fill:#ffffff;fill-rule:evenodd;stroke:#000000;stroke-width:0.90661;stroke-dasharray:none;stroke-opacity:1" />
    <g
       transform="matrix(0,-0.944457,0.725289,0,-51.0529,570.541)"
       id="g2296">
      <rect
         height="28.34643"
         id="rect557"
         style="font-size:12px;fill:#000000;fill-opacity:1;fill-rule:evenodd;stroke-width:1pt"
         width="8.5898457"
         x="261.0238"
         y="210.23622" />
      <rect
         height="28.346434"
         id="rect558"
         style="font-size:12px;fill:#000000;fill-opacity:1;fill-rule:evenodd;stroke-width:1pt"
         width="8.5898457"
         x="261.0238"
         y="257.48032" />
      <rect
         height="28.34643"
         id="rect559"
         style="font-size:12px;fill:#000000;fill-opacity:1;fill-rule:evenodd;stroke-width:1pt"
         width="8.5898457"
         x="278.20349"
         y="210.23625" />
      <rect
         height="28.346434"
         id="rect560"
         style="font-size:12px;fill:#000000;fill-opacity:1;fill-rule:evenodd;stroke-width:1pt"
         width="8.5898457"
         x="278.20349"
         y="257.48035" />
      <rect
         height="28.34643"
         id="rect561"
         style="font-size:12px;fill:#000000;fill-opacity:1;fill-rule:evenodd;stroke-width:1pt"
         width="8.5898457"
         x="295.38318"
         y="210.23619" />
      <rect
         height="28.346434"
         id="rect562"
         style="font-size:12px;fill:#000000;fill-opacity:1;fill-rule:evenodd;stroke-width:1pt"
         width="8.5898457"
         x="295.38318"
         y="257.48029" />
    </g>
    <g
       id="g2346"
       transform="matrix(0,-0.944457,0.725289,0,-51.0529,509.6167)">
      <rect
         y="210.23622"
         x="261.0238"
         width="8.5898457"
         style="font-size:12px;fill:#000000;fill-opacity:1;fill-rule:evenodd;stroke-width:1pt"
         id="rect2348"
         height="28.34643" />
      <rect
         y="257.48032"
         x="261.0238"
         width="8.5898457"
         style="font-size:12px;fill:#000000;fill-opacity:1;fill-rule:evenodd;stroke-width:1pt"
         id="rect2350"
         height="28.346434" />
      <rect
         y="210.23625"
         x="278.20349"
         width="8.5898457"
         style="font-size:12px;fill:#000000;fill-opacity:1;fill-rule:evenodd;stroke-width:1pt"
         id="rect2352"
         height="28.34643" />
      <rect
         y="257.48035"
         x="278.20349"
         width="8.5898457"
         style="font-size:12px;fill:#000000;fill-opacity:1;fill-rule:evenodd;stroke-width:1pt"
         id="rect2354"
         height="28.346434" />
      <rect
         y="210.23619"
         x="295.38318"
         width="8.5898457"
         style="font-size:12px;fill:#000000;fill-opacity:1;fill-rule:evenodd;stroke-width:1pt"
         id="rect2356"
         height="28.34643" />
      <rect
         y="257.48029"
         x="295.38318"
         width="8.5898457"
         style="font-size:12px;fill:#000000;fill-opacity:1;fill-rule:evenodd;stroke-width:1pt"
         id="rect2358"
         height="28.346434" />
    </g>
    <g
       transform="matrix(0,-0.944457,0.725289,0,-51.0529,448.6925)"
       id="g2360">
      <rect
         height="28.34643"
         id="rect2362"
         style="font-size:12px;fill:#000000;fill-opacity:1;fill-rule:evenodd;stroke-width:1pt"
         width="8.5898457"
         x="261.0238"
         y="210.23622" />
      <rect
         height="28.346434"
         id="rect2364"
         style="font-size:12px;fill:#000000;fill-opacity:1;fill-rule:evenodd;stroke-width:1pt"
         width="8.5898457"
         x="261.0238"
         y="257.48032" />
      <rect
         height="28.34643"
         id="rect2366"
         style="font-size:12px;fill:#000000;fill-opacity:1;fill-rule:evenodd;stroke-width:1pt"
         width="8.5898457"
         x="278.20349"
         y="210.23625" />
      <rect
         height="28.346434"
         id="rect2368"
         style="font-size:12px;fill:#000000;fill-opacity:1;fill-rule:evenodd;stroke-width:1pt"
         width="8.5898457"
         x="278.20349"
         y="257.48035" />
      <rect
         height="28.34643"
         id="rect2370"
         style="font-size:12px;fill:#000000;fill-opacity:1;fill-rule:evenodd;stroke-width:1pt"
         width="8.5898457"
         x="295.38318"
         y="210.23619" />
      <rect
         height="28.346434"
         id="rect2372"
         style="font-size:12px;fill:#000000;fill-opacity:1;fill-rule:evenodd;stroke-width:1pt"
         width="8.5898457"
         x="295.38318"
         y="257.48029" />
    </g>
    <path
       d="m 119.06322,69.463868 c -0.22214,-2.00662 0.20662,-2.24652 -1.0274,-3.76021 1.79672,0.75176 1.86533,2.75008 4.04997,1.33167 0.80281,-0.41538 1.15235,-0.42857 0.17723,-2.6576 2.27856,0.10559 9.74067,2.6646 10.93549,2.72407 3.13772,0.14396 8.86518,-3.29621 12.84083,0.93401 3.81558,3.85713 2.54154,7.86078 2.54154,13.20205 -1.53293,-0.734721 -0.79464,-1.096504 -2.42149,-3.006641 1.22014,4.669258 -0.0653,13.087339 -0.0653,18.039391 -0.6264,-1.194185 -0.53412,-0.675554 -1.14664,-1.912172 -1.62684,4.519947 -3.5771,5.450105 -3.5771,10.791454 -0.5872,-2.0948 -0.0204,-1.65192 -0.67377,-2.75377 -1.58112,3.43113 -12.18912,6.36413 -8.10158,9.82285 -3.68981,-2.16308 -5.30767,-1.93622 -6.98107,-3.88163 -0.72032,0.46512 -1.29364,1.34553 -1.96333,2.55268 -6.48697,-2.9844 -4.16757,-9.42195 -9.24984,-13.722191 -0.87957,1.803035 -0.47858,1.541194 -1.42921,4.475781 -1.02903,-4.075785 -1.30997,-6.665923 -2.46722,-9.662087 -0.99881,1.661035 -0.90898,1.024297 -2.72203,3.534391 -0.74972,-4.96494 -1.97068,-6.136739 -1.48801,-9.422103 -1.92658,1.359624 -0.66561,0.808961 -2.59136,2.482357 1.82448,-12.72269 9.70555,-22.12339 15.36032,-19.1123 z"
       id="path926"
       sodipodi:nodetypes="ccscsscccccccccccccccc"
       style="fill:#ffffff;fill-opacity:1;fill-rule:evenodd;stroke:#000000;stroke-width:0.784571pt;stroke-linecap:butt;stroke-linejoin:miter;stroke-opacity:1" />
    <path
       id="path2653"
       d="M 128.34188,272.83464 V 197.55997"
       style="fill:none;fill-opacity:0.75;fill-rule:evenodd;stroke:#000000;stroke-width:4.125;stroke-linecap:butt;stroke-linejoin:miter;stroke-miterlimit:4;stroke-dasharray:none;stroke-opacity:1" />
    <path
       sodipodi:nodetypes="ccccc"
       id="path2655"
       d="m 128.34188,194.88189 -10.09431,19.9826 10.09431,-4.32613 9.21022,4.32613 z"
       style="fill:#000000;fill-opacity:1;fill-rule:evenodd;stroke:#000000;stroke-width:1px;stroke-linecap:butt;stroke-linejoin:miter;stroke-opacity:1" />
    <ellipse
       transform="translate(-4,-4)"
       id="path2657"
       style="fill:#000000;fill-opacity:1;fill-rule:nonzero;stroke:none;stroke-width:4.125;stroke-linecap:butt;stroke-linejoin:miter;stroke-miterlimit:4;stroke-dasharray:none;stroke-opacity:1"
       cx="132.66801"
       cy="347.5325"
       rx="12.978393"
       ry="7.210218" />
  </g>
</svg>
