<?xml version="1.0" encoding="UTF-8" standalone="no"?>
<!-- Created with Inkscape (http://www.inkscape.org/) -->
<svg
   xmlns:dc="http://purl.org/dc/elements/1.1/"
   xmlns:cc="http://web.resource.org/cc/"
   xmlns:rdf="http://www.w3.org/1999/02/22-rdf-syntax-ns#"
   xmlns:svg="http://www.w3.org/2000/svg"
   xmlns="http://www.w3.org/2000/svg"
   xmlns:sodipodi="http://inkscape.sourceforge.net/DTD/sodipodi-0.dtd"
   xmlns:inkscape="http://www.inkscape.org/namespaces/inkscape"
   width="200.00000px"
   height="200.00000px"
   id="svg1345"
   sodipodi:version="0.32"
   inkscape:version="0.42"
   sodipodi:docbase="/home/daniel/Desktop"
   sodipodi:docname="magnetism.svg"
   inkscape:export-filename="/home/daniel/Desktop/magnetism.png"
   inkscape:export-xdpi="21.600000"
   inkscape:export-ydpi="21.600000">
  <defs
     id="defs1347" />
  <sodipodi:namedview
     id="base"
     pagecolor="#ffffff"
     bordercolor="#666666"
     borderopacity="1.0"
     inkscape:pageopacity="0.0"
     inkscape:pageshadow="2"
     inkscape:zoom="0.35000000"
     inkscape:cx="375.00000"
     inkscape:cy="520.00000"
     inkscape:document-units="px"
     inkscape:current-layer="layer1"
     inkscape:window-width="753"
     inkscape:window-height="513"
     inkscape:window-x="0"
     inkscape:window-y="26" />
  <metadata
     id="metadata1350">
    <rdf:RDF>
      <cc:Work
         rdf:about="">
        <dc:format>image/svg+xml</dc:format>
        <dc:type
           rdf:resource="http://purl.org/dc/dcmitype/StillImage" />
      </cc:Work>
    </rdf:RDF>
  </metadata>
  <g
     inkscape:label="Layer 1"
     inkscape:groupmode="layer"
     id="layer1">
    <rect
       style="fill:#b800fb;fill-opacity:1.0000000;stroke:none;stroke-width:0.62500000;stroke-miterlimit:4.0000000;stroke-dasharray:none;stroke-opacity:1.0000000;overflow:visible"
       id="rect1345"
       width="200.00000"
       height="200.00000"
       x="0.0000000"
       y="0.0000000" />
    <g
       transform="matrix(0.745012,0.000000,0.000000,0.745012,17.34203,2.729492e-5)"
       style="overflow:visible"
       id="g3">
	<path
   d="M 104.88700,198.03400 C 94.294000,203.33000 83.789000,208.59700 73.656000,214.74900 C 63.303000,221.03400 52.063000,227.92900 45.214000,238.20600 C 38.602000,248.12800 44.440000,260.73100 54.798000,265.82400 C 58.954000,267.86700 65.705000,268.56700 70.391000,268.43600 C 76.745000,268.25900 82.976000,268.09200 89.288000,267.39100 C 112.56500,264.80500 135.24400,256.67100 155.97100,246.10800 C 167.54900,240.20800 178.89400,234.42500 189.62300,227.03400 C 198.91500,220.63300 210.04600,212.45900 215.70800,202.38500 C 220.30800,194.20200 223.01900,187.52500 221.44900,178.07200 C 219.90800,168.78800 211.64400,164.13800 202.81700,164.13800 C 192.52000,164.13800 183.00400,166.13300 173.03100,168.52700 C 168.33000,169.65500 163.74200,170.99300 159.12100,172.42400 C 154.80400,173.76200 150.33100,176.03600 145.93700,176.94300 C 163.57800,161.06800 175.71800,140.61200 175.68900,116.31000 C 175.66200,93.875000 166.82200,69.118000 149.13100,54.381000 C 130.36900,38.751000 105.10500,33.704000 81.253000,36.691000 C 59.256000,39.445000 34.268000,50.842000 20.241000,68.559000 C 12.447000,78.404000 5.8620000,88.604000 2.4460000,100.86800 C -0.69300000,112.13900 -0.43800000,124.02800 1.1270000,135.51600 C 1.9620000,141.64900 3.9670000,147.22400 6.3170000,152.92800 C 8.4670000,158.14900 11.170000,162.11100 14.037000,166.88800 C 17.166000,172.10300 23.078000,176.25100 27.422000,180.45900 C 30.882000,183.81100 36.168000,187.75300 40.563000,189.75100 C 60.477000,198.80300 83.175000,205.47100 104.88700,198.03400"
   id="path5" />


	<path
   d="M 114.67800,174.30800 C 103.50700,178.89200 92.945000,183.14300 80.717000,183.50300 C 67.717000,183.88600 56.389000,181.75600 44.293000,177.02500 C 21.702000,168.19000 7.4720000,145.92800 5.4800000,122.20800 C 5.0080000,116.58600 6.5040000,111.06900 7.4030000,105.52400 C 8.2930000,100.03000 9.8680000,94.237000 12.240000,89.191000 C 17.152000,78.745000 25.435000,68.469000 34.655000,61.553000 C 44.897000,53.870000 54.394000,48.349000 66.718000,44.874000 C 78.011000,41.690000 89.701000,40.035000 101.44300,40.873000 C 125.12200,42.563000 147.45000,54.579000 157.23900,77.139000 C 166.77700,99.119000 163.74800,125.28400 150.44700,144.79500 C 146.05800,151.23300 140.85300,156.42900 134.86400,161.36200 C 131.41700,164.20100 128.05400,166.55900 124.26300,168.92800 C 121.70900,170.52500 117.74400,174.04400 114.67800,174.30800"
   id="path7"
   style="fill:#ffea66" />


	<path
   d="M 164.01600,82.037000 C 167.42200,97.565000 169.70200,112.13200 164.19500,127.55300 C 159.14400,141.69400 149.93000,156.69900 136.89900,164.89200 C 139.57800,164.80800 140.21900,167.26700 141.41900,169.03500 C 143.60100,172.25000 143.96200,174.04800 146.77500,171.14400 C 154.94900,162.71100 162.06800,154.59400 166.43200,143.51400 C 173.77700,124.86500 173.99600,99.970000 164.01600,82.037000"
   id="path9"
   style="fill:#cca300" />


	<path
   d="M 103.75800,198.03400 C 106.39700,197.67700 109.78100,194.37800 112.21800,192.98500 C 115.29800,191.22400 118.27600,189.45100 121.45900,187.86600 C 120.02500,186.12600 118.02700,188.58200 117.12700,187.67800 C 115.61300,186.15700 113.75000,184.74400 115.05600,181.84000 C 112.87300,183.65100 113.95200,188.07500 112.16500,188.81100 C 108.74200,190.22100 106.11100,192.25300 103.00200,190.69100 C 101.72700,190.05000 100.39000,187.75500 99.990000,186.35900 C 99.185000,183.54600 100.11800,183.30000 102.24800,182.21700 C 106.75100,179.92600 111.98000,178.86300 116.29700,176.27500 C 121.68700,173.04400 133.34100,162.09000 138.86200,167.61200 C 140.69800,169.44800 141.41700,173.05200 141.41700,174.87200 C 141.41700,175.73100 133.08900,178.85600 132.00100,179.58000 C 131.59700,177.21400 130.12600,175.33300 127.48100,176.56800 C 129.07600,177.62900 131.92000,180.03800 129.92900,182.02900 C 128.99500,182.96300 127.88600,183.24800 127.85800,184.85200 C 130.77200,183.98000 133.81600,182.25300 136.54500,180.88500 C 138.86200,179.72300 142.03300,179.22600 144.05400,177.69700 C 143.92900,179.05800 144.77400,180.54000 145.93700,180.70900 C 130.97300,184.45500 118.50000,193.13800 104.88600,199.91900 C 104.76200,199.02600 104.04000,198.43500 103.75800,198.03400"
   id="path11"
   style="fill:#ffe699" />


	<path
   d="M 96.979000,184.10000 C 95.435000,186.66500 99.062000,191.11600 100.36700,193.13900 C 88.914000,195.28700 77.646000,196.75900 66.004000,194.81900 C 59.791000,193.78400 54.244000,192.36000 48.400000,189.95100 C 45.325000,188.68300 42.264000,187.39000 39.207000,186.08100 C 36.568000,184.95200 34.673000,182.75800 32.202000,181.46400 C 43.069000,187.15800 53.629000,191.32000 65.957000,192.44200 C 72.148000,193.00500 78.299000,193.66400 84.516000,193.29700 C 87.008000,193.15100 89.591000,193.37500 92.058000,193.10100 C 92.621000,193.03800 95.871000,193.09200 96.225000,192.38600 C 97.051000,190.73600 94.947000,190.95300 94.255000,191.00900 C 69.375000,193.02600 45.327000,190.21300 25.445000,173.63800 C 21.793000,170.59300 16.760000,165.61100 15.253000,161.12800 C 27.107000,170.54200 38.624000,179.71600 53.492000,183.81700 C 61.575000,186.04600 69.107000,187.49000 77.524000,187.49000 C 82.387000,187.48900 93.586000,187.58100 96.979000,184.10000"
   id="path13"
   style="fill:#cca300" />


	<path
   d="M 122.58800,194.64600 C 101.29500,205.29200 79.509000,215.84500 60.822000,230.80000 C 57.132000,233.75300 50.051000,238.58900 49.148000,243.60500 C 47.996000,249.99800 58.600000,249.26700 62.577000,248.67100 C 74.769000,246.84400 86.879000,243.23300 98.483000,239.08500 C 121.04300,231.02000 143.16400,220.68100 164.12600,209.11600 C 175.17000,203.02300 185.89700,196.34300 196.05700,188.85600 C 200.35000,185.69200 205.18500,181.92900 207.81600,177.19400 C 212.03000,169.60700 204.73800,168.93800 198.72000,169.31200 C 185.60200,170.12800 172.51700,174.78200 160.25100,179.20200 C 147.47300,183.80700 135.06600,189.29700 122.58800,194.64600"
   id="path15"
   style="fill:#cca300" />


	<path
   d="M 197.53200,184.10000 C 193.86100,180.92600 185.68700,183.05500 181.51700,184.15300 C 175.69100,185.68700 169.88300,187.26600 164.23600,189.38400 C 152.66700,193.72300 141.28400,198.33000 130.00700,203.38300 C 118.96900,208.33000 108.04900,213.79800 97.498000,219.70600 C 87.773000,225.15200 76.770000,230.66800 68.811000,238.62800 C 66.741000,240.69900 63.522000,243.31100 64.213000,246.61600 C 61.558000,236.28100 78.625000,226.53900 85.777000,222.11300 C 95.866000,215.87000 106.44500,210.55300 117.15700,205.48100 C 138.81800,195.22600 161.94400,185.30800 185.63900,181.12500 C 187.83000,180.73800 190.36900,181.08500 192.57500,181.33000 C 193.97700,181.48600 197.78800,183.93600 197.53200,184.10000"
   id="path17" />


	<path
   d="M 70.616000,262.43600 C 82.213000,260.86900 93.907000,259.84800 105.24500,256.92700 C 118.64000,253.47700 130.90900,249.34500 143.82500,244.36000 C 165.22400,236.10000 186.66400,221.32500 202.83000,205.16700 C 206.57100,201.42700 210.52500,197.74500 213.73000,193.51700 C 201.16800,203.98200 187.25500,213.23900 172.67700,220.63200 C 182.26300,213.65700 191.11400,205.96100 199.96400,198.09200 C 203.19300,195.22200 208.76400,190.72200 209.96200,186.36000 C 210.98000,182.65500 207.28500,182.66700 205.29200,184.60300 C 187.42000,201.96500 167.97300,215.89700 145.51000,226.84600 C 129.93500,234.43800 113.49000,241.86200 96.694000,246.34200 C 88.821000,248.44300 80.843000,250.75600 72.721000,251.71000 C 66.078000,252.48900 56.730000,254.89100 50.276000,252.64500 C 49.320000,263.32200 65.229000,262.43600 70.616000,262.43600"
   id="path19"
   style="fill:#ffe64d" />


	<path
   d="M 164.01600,222.89100 C 152.88700,230.68700 139.51600,234.20400 127.48300,240.21600 C 128.62800,242.99000 124.00500,246.33000 122.21000,248.12500 C 131.70700,246.08700 140.74400,242.36300 149.14700,237.46500 C 153.33300,235.02400 168.19500,229.22800 164.01600,222.89100"
   id="path21" />


	<path
   d="M 155.35400,120.45100 C 155.35400,108.59700 153.76200,96.698000 145.71200,87.300000 C 141.88700,82.834000 137.94100,78.335000 133.00700,75.048000 C 127.96300,71.687000 122.26600,69.710000 116.68400,67.400000 C 95.742000,58.736000 69.245000,61.261000 50.652000,74.128000 C 32.271000,86.848000 20.681000,112.63200 25.579000,134.71500 C 28.083000,146.00300 33.066000,156.71000 42.001000,164.36300 C 50.718000,171.83100 60.938000,178.01300 72.190000,180.82200 C 73.552000,181.16200 75.012000,181.20100 76.266000,181.84100 C 63.993000,180.08500 52.617000,177.14300 41.895000,170.71000 C 32.776000,165.23900 25.744000,155.07600 22.020000,145.15100 C 17.691000,133.61400 16.063000,121.40600 18.348000,109.20900 C 20.347000,98.539000 24.388000,86.866000 31.822000,78.606000 C 40.128000,69.377000 48.724000,62.504000 60.031000,57.224000 C 69.886000,52.622000 83.073000,48.605000 94.133000,50.047000 C 105.75800,51.561000 118.10600,53.686000 128.11100,60.360000 C 137.93100,66.910000 146.62400,74.442000 152.63700,84.750000 C 154.26400,87.540000 156.01200,90.731000 157.23900,93.712000 C 157.90200,95.323000 158.13800,97.027000 158.93200,98.608000 C 159.62800,99.994000 156.60400,101.61300 156.93600,103.10400 C 157.76200,106.80600 159.04000,118.03700 155.35400,120.45100"
   id="path23" />


	<path
   d="M 66.471000,76.765000 C 64.019000,77.980000 64.366000,80.907000 66.660000,80.907000 C 67.911000,80.907000 68.589000,79.432000 68.354000,78.272000 C 68.197000,77.494000 67.082000,77.057000 66.471000,76.765000"
   id="path25" />


	<path
   d="M 74.757000,72.999000 C 72.530000,73.757000 72.890000,77.012000 75.132000,76.765000 C 77.161000,76.542000 77.195000,73.340000 74.757000,72.999000"
   id="path27" />


	<path
   d="M 70.616000,86.555000 C 71.183000,88.805000 73.551000,95.971000 75.888000,95.971000 C 79.489000,95.971000 71.879000,98.818000 71.367000,99.362000 C 70.703000,98.629000 71.072000,98.525000 71.744000,97.855000 C 72.967000,96.634000 70.713000,93.707000 70.176000,92.556000 C 69.169000,90.397000 68.128000,86.823000 66.472000,85.427000 C 66.012000,85.039000 64.777000,84.938000 64.214000,84.673000 C 65.747000,83.585000 67.990000,81.984000 70.068000,83.191000 C 73.514000,85.192000 76.961000,87.193000 80.407000,89.194000 C 79.086000,86.288000 77.251000,82.543000 75.886000,80.533000 C 75.701000,80.261000 72.761000,80.473000 75.206000,79.426000 C 76.793000,78.745000 78.943000,77.901000 80.032000,77.142000 C 80.637000,77.832000 80.003000,78.506000 78.898000,79.025000 C 78.898000,79.150000 78.898000,79.276000 78.898000,79.402000 C 79.946000,80.354000 85.556000,92.439000 85.027000,92.741000 C 81.841000,94.560000 81.233000,93.240000 78.055000,91.353000 C 76.121000,90.202000 71.546000,88.501000 70.616000,86.555000"
   id="path29" />


	<path
   d="M 110.16100,171.67100 C 111.25700,172.34200 113.92800,171.67500 113.92800,170.35400 C 113.92800,166.66500 107.58400,168.07200 105.07600,166.39900 C 101.47100,163.99500 103.82800,158.64700 107.14400,157.36100 C 108.29300,156.91600 112.41800,156.24100 112.41800,158.30100 C 112.41800,159.01200 115.00500,161.55800 112.04300,161.12700 C 110.57800,160.91400 110.33500,159.11300 108.65200,159.24300 C 108.15900,159.28100 106.39300,160.33900 106.39300,160.93800 C 106.39300,165.05300 110.68500,163.55900 114.11200,164.70400 C 119.11500,166.37500 116.79900,171.90700 113.54800,173.55400 C 112.67700,173.99400 108.65200,175.29400 108.65200,173.36600 C 108.65200,172.89500 107.52200,172.17500 107.52200,171.48300 C 107.52300,169.93200 109.27200,170.69500 110.16100,171.67100"
   id="path31" />


	<path
   d="M 94.342000,92.205000 C 92.344000,93.420000 93.433000,100.67900 93.390000,102.91800 C 93.335000,105.77400 92.056000,111.17300 93.963000,113.67200 C 94.091000,106.51800 94.287000,99.360000 94.342000,92.205000"
   id="path33"
   style="fill:#ffffff" />


	<path
   d="M 81.161000,109.52900 C 83.043000,109.05900 84.840000,108.77100 86.810000,108.40000 C 80.658000,96.222000 74.506000,84.045000 68.354000,71.867000 C 70.673000,78.559000 72.992000,85.251000 75.311000,91.943000 C 76.831000,96.331000 78.352000,100.71800 79.872000,105.10600 C 80.212000,106.08500 81.936000,109.96300 81.161000,109.52900"
   id="path35"
   style="fill:#ffffff" />


	<path
   d="M 140.29000,95.971000 C 140.73500,95.847000 140.63800,95.796000 141.04200,95.595000 C 140.49300,94.553000 140.60700,93.905000 141.41900,93.712000 C 142.15700,94.755000 146.30800,104.26300 145.37200,105.19800 C 144.55300,106.01700 142.83300,106.53700 142.17300,106.89400 C 142.18600,106.90100 140.66600,105.38600 141.60700,105.38600 C 144.51500,105.38600 141.64400,99.925000 141.41900,99.362000 C 139.00500,100.36800 135.06500,100.99200 138.02800,104.25700 C 138.45600,104.72900 140.03800,104.44100 140.29000,105.01100 C 141.09700,106.83600 135.27900,108.42800 134.64200,106.89400 C 136.92600,105.32900 135.61600,104.39000 135.01700,101.99700 C 133.68900,102.43900 129.45200,102.74900 130.27700,104.60900 C 130.48400,105.07500 131.47900,108.02300 131.81400,108.02300 C 132.15500,108.02300 134.50800,108.97600 134.64200,109.15200 C 136.16800,111.16200 131.86400,110.24500 130.49600,111.03500 C 129.30900,107.79600 128.12200,104.55700 126.93500,101.31800 C 126.79500,100.93900 126.14000,99.839000 126.35500,99.361000 C 126.43400,99.184000 127.11100,98.576000 127.11100,99.172000 C 127.11000,102.59400 138.63400,96.612000 140.29000,95.971000"
   id="path37" />


	<path
   d="M 46.887000,143.42500 C 50.017000,143.26100 53.151000,142.81700 56.270000,142.49400 C 59.424000,142.16800 59.880000,144.89900 57.540000,146.60000 C 53.966000,149.19900 46.667000,152.31700 46.136000,156.60600 C 46.010000,156.60600 45.884000,156.60600 45.758000,156.60600 C 45.125000,155.55200 44.400000,153.29700 43.794000,151.72100 C 43.060000,149.81100 44.063000,150.69300 44.254000,150.57900 C 44.312000,150.54500 45.976000,150.61900 46.136000,150.57900 C 48.717000,149.93700 51.805000,146.80000 54.044000,145.30700 C 50.776000,145.55900 46.055000,145.30300 43.500000,146.43800 C 43.181000,146.58000 43.595000,148.08200 42.746000,147.94400 C 41.879000,147.80300 40.993000,144.25900 40.592000,143.29800 C 39.667000,141.07900 42.746000,143.38200 42.746000,142.86000 C 42.746000,141.79100 49.642000,137.99700 51.032000,137.02300 C 47.241000,137.47700 40.907000,136.70200 39.733000,140.03500 C 39.272000,139.24600 37.037000,134.99500 38.226000,134.38600 C 38.638000,134.17500 39.251000,135.51500 39.544000,135.51500 C 40.730000,135.51500 41.914000,135.37900 43.095000,135.29100 C 46.126000,135.06300 49.156000,134.83600 52.187000,134.60900 C 54.773000,134.41500 54.981000,133.87300 55.905000,136.33700 C 56.694000,138.44600 49.029000,142.77100 46.887000,143.42500"
   id="path39" />


	<path
   d="M 45.004000,119.69900 C 46.931000,121.19800 51.505000,123.04900 53.290000,121.58100 C 52.999000,122.98300 52.387000,124.98900 51.407000,125.72400 C 52.052000,122.87900 42.784000,120.43200 40.863000,121.95800 C 41.839000,116.87500 46.922000,117.38600 51.407000,116.31000 C 48.869000,115.35800 45.462000,113.15500 43.500000,114.80200 C 43.821000,113.26400 44.686000,111.82200 45.005000,110.28300 C 45.131000,110.28300 45.257000,110.28300 45.383000,110.28300 C 45.277000,110.82100 45.518000,110.48500 45.758000,110.66000 C 44.959000,112.73300 53.630000,114.81600 55.552000,115.55600 C 55.305000,118.43300 46.944000,120.54600 45.004000,119.69900"
   id="path41" />


	<path
   d="M 51.786000,104.25600 C 53.869000,105.72800 55.953000,107.20000 58.036000,108.67200 C 58.277000,108.84200 57.711000,110.85200 57.435000,111.03500 C 56.901000,111.38900 54.331000,110.70300 53.722000,110.63800 C 50.675000,110.31200 47.242000,109.32700 45.004000,110.66000 C 45.185000,109.78900 47.265000,104.69400 47.265000,107.45700 C 47.265000,107.85900 53.986000,108.31000 54.798000,108.40000 C 52.798000,107.02500 49.677000,103.48300 47.265000,104.63400 C 47.458000,103.18600 48.165000,101.36700 48.769000,100.49100 C 48.895000,100.49100 49.021000,100.49100 49.148000,100.49100 C 48.736000,103.20400 54.676000,102.25600 56.681000,102.37400 C 54.783000,101.10800 52.758000,99.319000 50.652000,98.608000 C 50.231000,98.466000 49.868000,98.705000 49.148000,98.608000 C 50.067000,98.103000 50.490000,96.051000 50.652000,94.843000 C 50.778000,94.843000 50.905000,94.843000 51.031000,94.843000 C 50.556000,97.622000 55.156000,99.225000 57.264000,100.63000 C 58.467000,101.43100 62.176000,103.03600 59.693000,105.01100 C 58.707000,105.79500 53.177000,104.38900 51.786000,104.25600"
   id="path43" />


	<path
   d="M 103.00300,79.777000 C 102.60100,82.513000 99.746000,85.923000 101.49500,88.064000 C 100.09400,87.771000 98.094000,87.156000 97.353000,86.181000 C 100.04000,86.543000 102.62900,77.472000 101.12000,75.634000 C 106.20400,76.615000 105.69300,81.691000 106.76900,86.181000 C 107.62600,83.751000 109.86500,80.213000 108.27800,78.272000 C 109.81500,78.593000 111.25700,79.457000 112.79400,79.778000 C 112.58100,80.030000 112.61600,80.260000 112.41900,80.532000 C 109.86600,79.096000 108.25200,88.216000 107.52300,90.322000 C 104.24700,90.043000 103.37300,82.408000 103.00300,79.777000"
   id="path45" />


	<path
   d="M 113.92800,81.660000 C 113.50900,81.227000 113.23700,80.875000 113.17400,80.154000 C 115.91300,80.646000 118.64700,81.852000 121.30400,82.737000 C 121.69600,82.867000 120.70500,84.868000 120.70500,85.237000 C 120.70500,86.589000 119.57600,85.256000 119.57600,84.310000 C 119.57600,83.635000 118.65400,83.388000 117.87900,83.165000 C 115.86500,82.589000 115.93400,84.043000 115.05600,85.802000 C 116.97900,86.004000 117.49100,87.897000 118.82200,85.802000 C 119.32700,86.470000 118.96300,89.626000 118.06800,89.946000 C 117.59400,90.115000 116.57400,87.510000 114.67700,87.308000 C 114.21200,88.704000 112.73900,90.678000 114.28000,91.192000 C 117.22600,92.176000 116.18400,90.697000 118.63300,90.697000 C 120.03500,90.697000 117.96800,93.388000 117.69400,94.086000 C 115.36300,93.239000 113.03300,92.392000 110.70200,91.544000 C 108.94800,90.906000 109.70400,91.013000 109.78200,90.319000 C 109.67800,91.242000 111.34900,88.739000 111.38200,88.650000 C 112.23100,86.321000 113.07900,83.991000 113.92800,81.660000"
   id="path47" />


	<path
   d="M 140.29000,134.00900 C 141.42800,133.88000 142.17300,133.02600 142.17300,131.56100 C 142.17300,129.57300 137.19600,132.54300 136.14800,133.06800 C 131.60200,135.34400 131.44700,126.32200 135.39200,124.59400 C 135.85800,124.98400 136.67700,125.72400 137.46400,125.72400 C 138.20900,125.72400 137.27100,126.85700 137.27500,126.85300 C 136.83400,127.29300 135.12500,126.81800 134.64200,127.23000 C 133.43600,128.26000 134.26300,128.74700 134.26300,130.05400 C 134.26300,131.52400 139.13600,128.55900 139.91300,128.17100 C 144.01300,126.12100 144.16300,133.60300 142.17300,135.14100 C 139.13300,137.48800 138.40700,132.75800 140.29000,134.00900"
   id="path49" />


	<path
   d="M 138.78200,137.39800 C 139.47500,137.45000 139.89400,137.55000 140.66500,137.02300 C 139.87200,139.73800 137.90800,142.41300 136.52400,144.93000 C 135.79400,144.39900 133.88700,143.98700 133.88700,143.23600 C 133.88700,142.40600 134.43500,142.67300 135.20500,142.67300 C 136.59500,142.67300 136.81100,141.29600 137.65200,140.03500 C 136.64800,139.40700 135.64400,138.78000 134.64000,138.15200 C 134.29800,138.84600 133.86600,139.67100 133.31900,140.22300 C 132.86400,140.68300 133.88600,140.80800 133.88600,141.35200 C 133.88600,141.97300 133.58200,142.13900 133.13200,142.29500 C 132.59500,141.38300 131.25700,140.71800 130.11800,140.41100 C 130.28100,140.07000 130.79300,139.84600 130.87200,139.65700 C 130.94500,139.48200 131.87300,139.81500 132.00100,139.65700 C 132.38400,139.18500 132.78400,138.02200 133.13200,137.39700 C 132.13000,136.82500 130.59600,136.19500 130.11800,135.51400 C 129.14800,136.88700 128.22200,138.12300 129.17100,140.02000 C 129.92800,141.53300 128.27600,140.78800 128.04800,140.78800 C 123.89100,140.78800 130.05300,132.85600 130.49300,131.37300 C 131.62700,131.67400 130.76100,132.62300 131.24700,133.25600 C 132.27000,134.58800 138.05300,137.60300 138.78200,137.39800"
   id="path51" />


	<path
   d="M 78.524000,169.03500 C 79.173000,170.26000 81.915000,171.70500 81.915000,168.84700 C 81.915000,168.12500 79.538000,165.78900 79.088000,164.89300 C 78.329000,163.38400 78.944000,161.71900 80.406000,160.75000 C 83.205000,158.89500 84.560000,161.87900 86.243000,161.87900 C 87.388000,161.87900 86.692000,165.93800 85.301000,165.27100 C 83.984000,164.63900 85.648000,161.17700 82.664000,161.87900 C 79.339000,162.66100 83.411000,165.99600 84.360000,167.90400 C 85.870000,170.93900 82.167000,172.72100 79.652000,172.04800 C 77.248000,171.40300 77.394000,169.86000 77.394000,168.47000 C 77.395000,166.33700 79.477000,168.73100 78.524000,169.03500"
   id="path53" />


	<path
   d="M 69.862000,163.38700 C 70.209000,163.65500 72.838000,159.29900 73.557000,158.22100 C 74.578000,156.69000 76.707000,156.77900 76.562000,158.87300 C 76.422000,160.89600 74.560000,168.90200 76.641000,169.78700 C 76.641000,169.91300 76.641000,170.03800 76.641000,170.16400 C 75.313000,170.14000 74.111000,169.57200 72.851000,169.15200 C 71.576000,168.72700 72.536000,168.67500 72.499000,168.28100 C 72.592000,169.27500 73.251000,167.14800 73.250000,167.15200 C 73.863000,165.21300 73.765000,162.77600 74.003000,160.75000 C 73.039000,162.19600 68.774000,166.87100 70.616000,167.52700 C 70.614000,167.53200 70.239000,168.36900 70.238000,168.28100 C 69.813000,167.97500 64.913000,166.02200 67.038000,166.02200 C 68.269000,166.02200 68.215000,159.74300 68.355000,158.48900 C 67.169000,160.26700 63.360000,163.80600 64.589000,166.02200 C 58.857000,164.91800 61.752000,164.54500 63.991000,161.51500 C 65.910000,158.91900 67.309000,154.62200 70.639000,155.73600 C 71.511000,156.02800 69.920000,163.51700 69.862000,163.38700"
   id="path55" />


	<path
   d="M 63.083000,33.454000 C 60.628000,23.421000 40.735000,30.124000 44.253000,40.609000 C 47.796000,39.289000 51.340000,37.969000 54.883000,36.649000 C 56.234000,36.146000 63.140000,33.518000 63.083000,33.454000"
   id="path57" />


	<path
   d="M 46.511000,38.727000 C 47.674000,41.052000 48.836000,43.376000 49.999000,45.701000 C 50.606000,46.916000 54.821000,44.182000 55.883000,43.697000 C 58.377000,42.557000 60.870000,41.418000 63.364000,40.278000 C 63.616000,40.163000 61.113000,34.203000 60.822000,33.456000 C 57.944000,34.590000 48.555000,39.787000 46.511000,38.727000"
   id="path59" />


	<path
   d="M 57.810000,8.5980000 C 67.255000,13.726000 69.028000,25.212000 63.990000,34.033000 C 58.102000,44.341000 44.436000,43.905000 36.321000,37.138000 C 27.597000,29.865000 29.867000,16.319000 37.873000,9.6440000 C 41.447000,6.6650000 47.377000,5.5230000 51.786000,6.3380000 C 53.428000,6.6410000 55.824000,8.2700000 57.435000,8.2210000 C 59.331000,8.1630000 60.676000,4.8610000 61.951000,2.9480000 C 51.919000,-0.79700000 42.845000,-1.8380000 33.678000,5.0400000 C 24.570000,11.874000 20.839000,25.221000 27.122000,35.274000 C 33.500000,45.479000 45.204000,50.187000 56.776000,46.719000 C 67.598000,43.476000 75.429000,32.724000 74.002000,21.401000 C 73.342000,16.164000 71.524000,11.769000 67.978000,7.8430000 C 67.097000,6.8680000 63.382000,2.7670000 61.951000,2.9470000 C 60.541000,3.1250000 59.299000,7.9320000 57.810000,8.5980000"
   id="path61" />


	<path
   d="M 48.769000,5.9600000 C 51.900000,5.9600000 55.901000,6.0990000 58.185000,8.5980000 C 59.440000,6.7150000 60.696000,4.8310000 61.951000,2.9480000 C 57.557000,3.9520000 53.163000,4.9560000 48.769000,5.9600000"
   id="path63" />


	<path
   d="M 86.811000,97.854000 C 86.811000,102.50200 86.618000,104.00700 89.448000,107.64600 C 88.568000,104.38200 87.689000,101.11800 86.811000,97.854000"
   id="path65"
   style="fill:#ffffff" />


	<path
   d="M 79.653000,109.52900 C 76.515000,106.76700 73.376000,104.00600 70.238000,101.24400 C 65.232000,105.15700 81.115000,109.41100 80.032000,114.04900 C 74.257000,113.79800 68.481000,113.54600 62.705000,113.29500 C 64.337000,114.04800 65.968000,114.80200 67.600000,115.55500 C 53.666000,115.05300 39.731000,114.55100 25.797000,114.04900 C 25.797000,114.69400 25.715000,120.44700 25.835000,120.45200 C 27.171000,120.51100 28.508000,120.56900 29.844000,120.62800 C 36.757000,120.93100 43.670000,121.23400 50.583000,121.53800 C 56.332000,121.79000 62.081000,122.04200 67.829000,122.29400 C 71.855000,122.47100 76.221000,124.83000 80.031000,126.10000 C 77.866000,126.18800 61.575000,126.33900 61.575000,127.24400 C 61.575000,129.48600 67.117000,128.35900 68.994000,128.35900 C 72.546000,128.35900 76.099000,128.35900 79.651000,128.35900 C 74.253000,130.74400 68.856000,133.13000 63.458000,135.51500 C 68.982000,135.01300 74.506000,134.51100 80.031000,134.00900 C 76.138000,137.90100 72.246000,141.79300 68.353000,145.68400 C 70.791000,148.67400 72.936000,144.71600 75.010000,142.81600 C 77.939000,140.13200 80.868000,137.44800 83.797000,134.76300 C 82.164000,140.28600 80.530000,145.80900 78.897000,151.33200 C 82.790000,146.68700 86.683000,142.04200 90.576000,137.39700 C 90.802000,141.76100 91.027000,146.12600 91.252000,150.49100 C 91.375000,152.86900 91.497000,155.24600 91.620000,157.62400 C 91.728000,159.72000 92.088000,159.34600 94.340000,159.24200 C 94.214000,154.22100 94.088000,149.19900 93.961000,144.17800 C 99.485000,152.84000 105.01000,161.50100 110.53400,170.16300 C 106.89300,159.24100 103.25200,148.31900 99.611000,137.39700 C 105.26000,143.17100 110.90900,148.94700 116.55900,154.72100 C 113.04400,148.19400 109.52900,141.66600 106.01400,135.13900 C 109.75000,138.01800 113.48600,140.89800 117.22200,143.77700 C 119.23700,145.33100 121.25200,146.88300 123.26800,148.43700 C 124.74000,149.57100 125.27700,147.69200 126.35300,146.43700 C 118.82100,140.53700 111.28900,134.63600 103.75700,128.73500 C 112.16800,129.48800 120.57900,130.24200 128.99000,130.99500 C 120.95500,128.35900 112.92100,125.72200 104.88600,123.08600 C 113.17100,122.33300 121.45700,121.58000 129.74200,120.82600 C 130.18700,117.23500 121.94200,119.66100 119.86900,119.86200 C 115.25100,120.30900 110.63300,120.75600 106.01500,121.20300 C 111.41300,117.31100 116.81000,113.41900 122.20900,109.52700 C 115.43100,111.66100 108.65200,113.79600 101.87400,115.93000 C 107.52300,110.02900 113.17300,104.12900 118.82300,98.228000 C 116.34100,94.688000 112.25000,101.41200 110.37700,103.28500 C 106.91500,106.74700 103.45300,110.20800 99.991000,113.67000 C 102.50200,106.51400 105.01200,99.358000 107.52300,92.202000 C 103.50500,98.354000 99.488000,104.50600 95.470000,110.65800 C 95.470000,107.21300 95.470000,103.76700 95.470000,100.32200 C 95.470000,98.415000 96.622000,91.073000 94.409000,91.073000 C 92.748000,91.073000 92.473000,90.655000 92.412000,92.235000 C 92.322000,94.570000 92.232000,96.905000 92.142000,99.240000 C 91.996000,103.04600 91.850000,106.85200 91.703000,110.65700 C 89.945000,105.25900 88.187000,99.860000 86.430000,94.462000 C 86.305000,97.475000 86.180000,100.48700 86.055000,103.50000 C 82.617000,96.839000 79.179000,90.178000 75.741000,83.518000 C 73.616000,79.400000 71.490000,75.282000 69.364000,71.164000 C 68.631000,69.744000 68.148000,68.046000 66.470000,67.723000 C 65.842000,73.059000 70.018000,80.149000 71.658000,85.023000 C 73.580000,90.736000 75.503000,96.449000 77.426000,102.16200 C 78.107000,104.18500 78.787000,106.20800 79.468000,108.23100 C 79.720000,108.97900 80.506000,110.04700 79.653000,109.52900"
   id="path67" />


	<path
   d="M 79.653000,116.68500 C 69.939000,116.40800 60.224000,116.13000 50.510000,115.85200 C 44.429000,115.67800 38.349000,115.50400 32.269000,115.33100 C 27.349000,115.19000 27.022000,114.13200 26.552000,119.32200 C 36.871000,119.61400 47.190000,119.90700 57.510000,120.20000 C 63.580000,120.37200 69.650000,120.54400 75.720000,120.71700 C 78.597000,120.79800 81.859000,120.97400 79.653000,116.68500"
   id="path69"
   style="fill:#b2b2b2" />


	<path
   d="M 83.044000,112.54300 C 77.777000,115.13800 81.630000,122.01100 86.810000,118.94500 C 91.854000,115.96000 87.872000,109.03900 83.044000,112.54300"
   id="path71"
   style="fill:#ffe699" />


	<path
   d="M 83.419000,112.91800 C 82.517000,113.99200 81.145000,115.67600 81.915000,117.06200 C 82.654000,118.39200 85.246000,118.63100 86.244000,117.62700 C 87.881000,115.98100 87.564000,115.70200 87.564000,113.86100 C 87.564000,112.15400 83.641000,112.95800 83.419000,112.91800"
   id="path73" />


	<path
   d="M 104.13200,98.607000 C 102.05000,102.04700 99.967000,105.48800 97.885000,108.92800 C 96.350000,111.46400 94.177000,113.92000 95.827000,116.85600 C 97.762000,120.29800 102.01300,128.37700 97.353000,131.37300 C 100.18400,138.44000 107.08300,143.36100 112.41800,148.69600 C 109.40400,142.79600 106.39100,136.89600 103.37700,130.99600 C 106.84700,133.81000 110.31700,136.62600 113.78700,139.44000 C 115.30400,140.67000 122.67600,148.16800 124.09400,146.43700 C 116.68800,140.28500 109.28100,134.13300 101.87400,127.98100 C 108.02500,128.35800 114.17600,128.73500 120.32700,129.11200 C 114.55300,127.10300 108.77800,125.09500 103.00300,123.08600 C 107.39800,119.57100 111.79200,116.05600 116.18600,112.54200 C 109.90900,114.29900 103.63100,116.05700 97.353000,117.81400 C 98.434000,114.91700 105.53900,100.04200 104.13200,98.607000"
   id="path75"
   style="fill:#b2b2b2" />


	<path
   d="M 71.745000,122.33400 C 74.757000,123.21300 77.769000,124.09100 80.782000,124.97000 C 80.074000,122.47700 80.403000,122.33400 77.884000,122.33400 C 75.837000,122.33400 73.792000,122.33400 71.745000,122.33400"
   id="path77"
   style="fill:#b2b2b2" />


	<path
   d="M 80.407000,129.11400 C 76.264000,130.87100 72.121000,132.62900 67.979000,134.38600 C 72.875000,133.75800 77.770000,133.13100 82.666000,132.50300 C 82.604000,130.24000 81.920000,129.53200 80.407000,129.11400"
   id="path79"
   style="fill:#b2b2b2" />


	<path
   d="M 85.682000,134.38600 C 84.049000,138.78000 82.415000,143.17400 80.782000,147.56800 C 83.671000,143.92700 86.559000,140.28700 89.448000,136.64600 C 88.192000,135.89300 86.937000,135.14000 85.682000,134.38600"
   id="path81"
   style="fill:#b2b2b2" />


	<path
   d="M 95.847000,130.62000 C 99.112000,140.03600 102.37600,149.45200 105.64100,158.86700 C 100.24300,150.20500 94.846000,141.54300 89.448000,132.88100 C 87.243000,134.43700 86.457000,131.37500 84.739000,131.37500 C 83.270000,131.37500 84.285000,128.23300 84.175000,127.98300 C 83.825000,127.19600 81.917000,126.41600 81.917000,125.53600 C 81.917000,124.16300 81.758000,122.73400 82.292000,121.58100 C 83.407000,123.63400 84.980000,126.16800 86.623000,127.79500 C 88.138000,129.29500 90.621000,128.33800 92.446000,127.42500 C 98.628000,124.33500 93.731000,119.31700 91.707000,115.17800 C 96.606000,115.45800 100.45400,128.20000 95.847000,130.62000"
   id="path83"
   style="fill:#b2b2b2" />


	<path
   d="M 58.939000,255.65600 C 60.815000,259.19700 61.992000,259.16100 66.059000,259.73900 C 69.816000,260.27300 75.323000,260.90500 78.898000,259.42300 C 75.632000,259.80300 73.967000,257.40000 72.874000,254.90300 C 68.151000,256.58800 63.701000,255.63700 58.939000,255.65600"
   id="path85"
   style="fill:#cca300" />


</g>
  </g>
</svg>
