/* XPM */
static char * small_xpm[] = {
"660 20 64 1",
" 	c None",
".	c #0305F5",
"+	c #5B93E4",
"@	c #0A72EA",
"#	c #6574DD",
"$	c #59ACF5",
"%	c #5453DA",
"&	c #CFCFB3",
"*	c #308FD6",
"=	c #2230DA",
"-	c #E7B106",
";	c #030408",
">	c #03F2F2",
",	c #0DCEDE",
"'	c #2AAECD",
")	c #F90308",
"!	c #FDFDFA",
"~	c #9594B2",
"{	c #AEAEB2",
"]	c #EFEADF",
"^	c #EDD496",
"/	c #EDB1AA",
"(	c #ED927B",
"_	c #E8797C",
":	c #E45128",
"<	c #F93621",
"[	c #172F40",
"}	c #1753AD",
"|	c #304E52",
"1	c #AEA651",
"2	c #AE7396",
"3	c #9F3724",
"4	c #9C5127",
"5	c #A46D31",
"6	c #3AC644",
"7	c #93AABB",
"8	c #D4E6E2",
"9	c #A4D1D0",
"0	c #D16E23",
"a	c #D69013",
"b	c #5F7373",
"c	c #5E331C",
"d	c #624D32",
"e	c #6ECDF0",
"f	c #EDE92B",
"g	c #2C0E0F",
"h	c #B18D27",
"i	c #5A0206",
"j	c #A30409",
"k	c #899A68",
"l	c #77EAFA",
"m	c #8DD167",
"n	c #248C59",
"o	c #5E9070",
"p	c #B15A9D",
"q	c #98EBE0",
"r	c #134B54",
"s	c #1C724A",
"t	c #5BB770",
"u	c #2EAC52",
"v	c #54D83C",
"w	c #70EB2A",
"x	c #AAEC2F",
"y	c #1EFE04",
".....+@#$+..........+@#$+..........+@#$+..........+@#$+..........+@#$+..........+@#$+..........+@#$+.......%&%+*#$+.%&=.---------------;;;;;;;;;;;;;;;...............>>>>>>;;;,,,,'')))))))))))))))!!!!!!!!!!!!!!!@@@@@*;;;@@@@@@==%#~{&]!^/(_:<;;;;;;;;;;;;;;;;;;;;;;;;;;;;;;;;;;;;;;;;;;;;;;;;;;;;;;;;;;;;;;;;;;;;;;;;;;;;;;;;;;;;;;;;;;;;;;;;;;;;;;;;;;;;;;;;;;;;;;;;@@@@@[;;}@@@@@@|1((2||||||||||@@@@@*;;;@@@@@@!!!!!&3435!!!!!!!!!!!!!!!!!!!!!!!!!&3435!!!!!!!!!!!!!!!!!!!!!(/!!&3435!!!!!!!!!!!!!!!!!!!!!(/!!&3435!!!!!!!!!!!!!!!!!!!!6666666666666666666666666666666666666666666666666666666666666666666666666666666666666666666666666666666666666666!6666666!!!!!!!!!!!!!!!",
"....+}.}.=+........+}.}.=+........*~~~#=+........#+#7#=+........#+~{#=+........#+&&&&+........#+&&&&+.....%8~#9]!!]$.~&.---------------;;;0_0045444;;;.[.[.[.[.[.[.[.>>>>>>;;;,,'''*))a))))a<)):a:)!!!!!!!!!!!!!!!@@@@@;;;;;@@@@@==##~{&]]^/(__<;;;;;;;;;;;;;;;;;;;;;;;;;;;;;;;;;;;;;;;;;;;;;;;;;;;;;;;;;;;;;;;;;;;;;;;;;;;;;;;;;;;;;;;;;;;;;;;;;;;;;;;;;;;;;;;;;;;;;;;;@@@[[;;;;}@@@@@b&^/(_[c|d~^&&&@@@@@;;;;;@@@@@!!!!!34203!!!!!!!!!!!&;;8!!!!!!!!!!34203!!!!!!!!!!!&;;8!!!!!!((_!34203!!!!!!!!!!!&;;8!!!!!!((_!34203!!!!!!!!!!!&;;8!!!!!6666666666666666666666666666666666666666666666666666666666666666666666666666666666666666666666666!6666666666666!!!666666!!!!!!!!!!!!!!!",
"...+=$e@..@+......+=$e@..@+......$#9e#=.@+......$#99#..@+=.....$~999=.@+=.....$~&89^^&+=.....$~&]8]f&+....]~$&!!]!!]$=&~----5dgdch-----;g0a44^-a4004;;.=..=..=..=...=>>>>>>;;;,''('*)a-a))a--))a--)!!!!!!!!!!!!!!!@@@@@#303*@@@@@.%%#~&&]]^/(_:<;;;;;;;;;;;;;;;;;;;;;;;;;;;;;;;;;;;;;;;;;;;;;;;;;;;;;;;;;;;;;;;;;;;;;;;;;;;;;;;;;;;;;;;;;;;;;;;;;;;;;;;;;;;;;iij)jii;;;;@@[;;;;54[@@@@@|^^/(h||kk7dk||@@@@@#303*@@@@@!!!!!/(((0!!!!!!!!!!&;44;!!!!!!!!!!/(((0!!!!!!!!!!&;44;!!!!!!^(00/(((0!!!!!!!!!!&;44;!!!!!!^(00/(((0!!!!!!!!!!&;44;!!!!!6666666666666666666666666666666666666666666666666666666666666666666666666666666666!66666666666666!66666666666666!6666666!&{!!!!!!!!!!!!",
"...$$l%....e=.....$$l%....e=.....e&l}....e=.....{9l#=...$=.....e989&^{.$=.....ef9&&f^^e=.....m8]8]!]^e=..%8.9!!!!!!]8.%8---d[d;55dc----;a0043^-a43044;.[-..[..[..[h[.>>>>>;;;;;''(n*)<-))))-<)))-))!!!!!!!!!!!!!!!@@@@@@((_@@@@@@==%#~{&]!^/(_:<;;;;;;;;;;;;;;;;;;;;;;;;;;;;;;;;;;;;;;;;;;;;;;;;;;;;;;;;;;;;;;;;;;;;;;;;;;;;;;;;;[;[;;;;;;;;;;;ggggg;;;;;;;iji;;;;;iji;;@@}[}(4g_c@@@@@|^^((dc|7&o|{o&@@@@@@((_@@@@@@!!!!!!((_^!!!!!!!!!!]_((p!!!!!!!!!!!___^!!!!!!!!!!]_((p!!!!!!!/(_[((_^!!!!!!!!!!]_((p!!!!!!!/(_j((_^!!!!!!!!!!]_((p!!!!!6666666666666666666666666666666666666666666666666666666666666666666!66666666666666!6666666!666666!666666!!66!666!666!66!!{{{]!!!!!!!!!!",
"..+=l*......*....+=l*......*....+~9+......*....+7l+#1{=..*....+{99^f^f&.*....+&&q^f^^f&*....+&88!!!!!&*..{{+]!!!!!!!]+=&--cd-dc[--dd---;45044--h54544;.d-[..[...[=0|.>>>,,,404'*((@*))<)))))))))0<)!!!!!!!!!!!!!!!@@@@@r7&/}@@@@@.%%#~{8]]^/(__<;;;;;;;;;;;;;;;;;;;;;;;;;;;;;;;;;;;;;;;;;;;;;;;;;;;;;;;;;;;;;;;;[[[[[[;;;;;;;;;[[rrr[[;;;;;;;g[c|c|c[g;;;;ii;;ggigg;;ii;@@@@@((d(4++*@@|d/(2d|[d]d|d&~@@@@@r7&/}@@@@@!!!!/jj:3:(]!!!!!!!!;5((4d!!!!!!!!!(0<:22]!!!!!!!!;5((4d!!!!!!]((;;;;;[b!!!!!!!!;5((4d!!!!!!]((jjjjjjb!!!!!!!!;5((4d!!!!6666666666666666666666666666666666666666666666666666666666666666666!66666666!6666!!!6666!66!!666!!!666!!66!!666!!!666!!6!{{{{]!!!!!!!!!",
"..#@$=......$....#@$=......$....@9$=......$....@{$~^^^&..$....#98&f^^^^%+....@98&f]]^^^$....@9]]!!!!!^+..8~@8!]!!!!!!$.]-hc--chd5--dd--;;0000/-a4444;;.b-d=...[..=a5.>>>,,,__0'*&&*})))))))))))))))!!!!!!!!!!!!!!!@@@@};[;d;@@@@@==##~{&]!^/(_:<;;;;;;;;;;;;;;;;;;;;;;;;;;;;;;;;;;;;;;;;;;;;;;;;;[[rrr[[;;;;;;;[[r|s}rr[;;;;;[[|}%|b}r[[;;;;g[cc4d3dc[g;;ij;giiiiiiig;jg@@#+;;((_{{{7@@|d]]{b|||b|!|||@@@@};[;d;@@@@@!!!(jjjjjjj:!!!!!!!![g((g;!!!!!!!!~2&p(22p]!!!!!!![g((g;!!!!!!!(c;;;;;;g~!!!!!!![g((g;!!!!!!!(j))))))j~!!!!!!![g((g;!!!!6666666666666666666666666666666666666666666666666666!666666666!666!!!666!6666!666!!!666!666!!666!!!666!!66!!666!!!666!!6!{{7{{]!!!!!!!!",
"..$=}.......$....$=}.......$....+~}%#~2.=.$....${#&^&&^1.$....$99]!8f^&~$....+9&]!!!f&&$....$&!!!!!!!&$..&%+]!!!!!]!!e.8-c5--chh[a--[5-;;;440^-h444;;;.b-%.|.[..[dhb.>,,,''0c_n@;;s%)))))))))))))))!!!!!!!!!!!!!!!@@@@[;~;~;[@@@@=_%#{{4]]^/(_:<;;;;;;;;;;;;;;;;;;;;;;[;;;;;;;;;;;;;[[[;;;;;;;;;[[ss*ss[[;;;;;[[}oboob|r[;;;;[}sbobbbbr[;;;gcd44p4p44dcg;j;;iiijjjiii;;j@~(5;[@7{{{{{@@|&!!]&|c|4(~[&b@@@@[;~;~;[@@@@!!:jjjjjjjjj2!!!!!![sjssjsc!!!!!]222/</p2pp!!!!!![e(((~*b!!!!!!![g;;;;;;(]!!!!![s;ss;sc!!!!!!!jj)))))j(]!!!!![s)ss)sc!!!6666666666666666666666666666666666666!6666666666!666!666!666666!!66!66!!666666!!66!66!!666666!!66!66!!666!66!!66!66!!66!!{{~{{{!!!!!!!!",
"..$..%=..=#=$....$..1^{#=#=$....$%={f^{~#%$....+b=^f]^&{~$....${&f]]!!&9$....$78f!!!]&9$....$78!!!!]]&$..7%$8!!!!!!]!$=~-|h--[--4d--aca;40000--a4040g;.|-h[h=..h=had.,,',''&c&n*;;s%))))))))))))0))!!!!!!!!!!!!!!!@@@[;;[;;;;}@@@._%#~{3!]^/(__<;;;;;;;[[;;;;;;;;;;;rrsrr;;;;;;;;;[}snnr[;;;;;;;rsotttosr;;;;;r|ookkkob}[[;;[rbbb~5~bb|}[;;[cd4:::::4dc[;i;gijjjjjjjii;i@d({*@*{{&{{~7@|&!!]{b|k^((|~{@@@[;;[;;;;}@@@!4jj_0jjjjjjj^!!!!9ssjssjsn!!!!](2pp(j/p22p(!!!!8e''(1''']!!!!!]][;g;;[(((!!!!9ss;ss;sn!!!!!!]]j))))j(((!!!!9ss)ss)sn!!!6666666666666666666666!66666666666!66!66!66666666!66!66!6666666!!66!66!!666666!!66!66!!666666!!66!66!!666666!!66!66!!666!{71~{{{]!!!!!!",
"..$..~%..~+=e....$..~~1&&$=e....$==/f^f^7+e....$.#^^f]f7~e....$.f^f^f]8&e....$&^^!]!f&&e....$&]!!!!!]&e..#~$8!!!!!]!]e~%-ch--[---[ah5;c;0a050/-a4053dg.d-1hah.5a5ahd.,,'';;;;;;;;;}}))):<0-<))))<-)!!!!!!!!!!!!!!!@@};;;;[;;;;}@@=__:~{44c^/((_<;;;;;rrrr[;;;;;;;;;rsnuns[;;;;;;;;snutun};;;;;;[s$tmmmtus[;;;[rbok111kobr[;[[}bb25052kb|r;gcd4:::::::4dcg;giijj)j)jjii;;;[{{{+{{{{{{{7@|]]!!8{{]&{bc|b@@};;;;[;;;;}@@!:jp]/jjjj0jjj!!!8snsjjjjssm!!!/2p222j_p222p&!!](1''''''7(]!!!!]!d;;;;]((_^!!8sns;;;;ssm!!!!!]!j))))]((_^!!8sns))))ssm!!6666666!666666666666!6!6!6666666666!6!6!6666666666!6!6!6666666666!6!6!6666666666!6!6!6666666666!6!6!6666666666!6!6!66666!{{~~7{{{]!!!!!",
"...*=#~.=*+*=.....*=%~.=++*=.....+=#{&&&{$=.....+={{^&777=.....$^f^^f987=.....+ff^f]98{=.....+f!]!]!87=..%{.7!!]!!!!&=~=-ch5cgdc[g;dd[5;_0504^-a44543[.|-1-ah[hahaab.''';;;;!;;;;;}|)<---a:)))))a-<!!!!!!!!!!!!!!!@@;;[;;;;;[;;@@.___~{443^/((_<;;;;[rnunr[;;;;;;;;rn6v6ns;;;;;;;[suvwvun[;;;;;rstmxxxm$nr;;;[}ok1ha11ko}[;;rbbh200052o|r[[c34:::<:::pdcg;gijjj))))jjig;}@+{{{{77{{{~k#|8!!{]&]&&k|555@@;;[;;;;;[;;@@!]:j_(jjjj!/jj3!!(nusjjjjnss9!!22p^22:2p]22pp!!(((e'''*9((/!!!!!!{;;;;]!((/!!(nus;;;;nss9!!!!!!{))))]!((/!!(nus))))nss9!666666!!!666666666666!!!666666666666!!!666666666666!!!666666666666!!!666666666666!!!666666666666!!!666666666666!!!666666!{7{1~~7{{]!!!!",
"...$..{.+e.$......$.=~.+e.$......$.=k.7eb$......$.=k^&m{e......${f8f&8^e......$&^f&8&&e......$&^f!]8^e....{%e^!!]!!!e={.;;gc[5ha--;--dh;00004--a0404cc[%---1aaaaaaa5.''*;;;;;;;;;|}|)----0)<a::a--)!!!!!!!!!!!!!!!@r;;@;;;;;@;;}@=_0:~{4dc^/(((<;;;;[suyus[;;;;;;;[su6wvu}[;;;;;;[ntwxwtn[;;;;;rntmxfxmtbr;;;r|ok1aaa1ko|[;[r%b250:002bb[;g|44::<::<:44cg;gijj)))j)jjii;[@@*&{~({{{{{77h]!!!&&&&22h2h~@r;;@;;;;;@;;}@!!!:(_g=ii9!:jj]((_!sjjjjnnnu!!22_]2222p^!22p/((_]e''*'e]((!!!!!!{;;;;]!/(_]((_!s;;;;nnnu!!!!!!{))))]!/(_]((_!s))))nnnu!666666!!!666666666666!!!666666666666!!!666666666666!!!666666666666!!!666666666666!!!666666666666!!!666666666666!!!666666!{1~~{~~~k!!!!!",
"....*=~=7#e=.......+=~=7#e=.......*=~=7{9=.......*=k~7{e=.......*1^9&^e=.......*{^&8&9=.......*{&&8^e=....=~.*8!]!]9=~#.-|h-c1----5d-ch;05000^-a004d4g.|-1--aaaaahab='**;;!;!;;}|}|=)---a-0)<----<)!!!!!!!!!!!!!!!@[;[@;;;;;@r;2@=!!!~{fff^/cic<;;;;;rnusr[;;;;;;;;ru6v6nr;;;;;;;[suvwvus[;;;;g[stmxxxmtnr[;;[}bk1a-akko}r;;rsb~000052o}r[gcd4:::::::pd|g;gijjj)))jjjig;}r@@@+(({{{{{{~@8]!]]{+@@@@@@@@[;[@;;;;;@r;2@!!!!/====;%!!jj^((]!jjjjjjqsn!!((!]222pp]!]2p/((/!et'''*!((!!!!]{;;;;;{!!(_^((]!;;;;;;qsn!!!!]{))))){!!(_^((]!))))))qsn!6666666!666666666666!6!6!6666666666!6!6!6666666666!6!6!6666666666!6!6!6666666666!6!6!6666666666!6!6!6666666666!6!6!66666]{{~1k~~b]!!!!!",
".....$+~~l..........$~~~l..........$+~~l..........$+~{q..........$+~&9..........$k~&9..........$k~&q.......%&.$8]!q.#~..-45h[-----hc1ch;04-^-/---^a43[gb-o1-0j0ahbh5.*n*;;;&(;;|}|}|)<a<):---a<:<))!!!!!!!!!!!!!!!@((*@;;;;;@@2(*.;;;~{;;;^/;;;<;;;;;[rsr[;;;;;;;;;rsnunsr;;;;;;;[rnttun}[;;;;;[sotmmmtos[;;;[rbok111kobr[;[[|bb5205~bb|r;g[34::::<::43[g;giijjj)jjjiig;@[}@@@@*7{{{{1+@8]8!89@@@@@@@@@((*@;;;;;@@2(*!!!!~gg.[=;!!(((_]!!jjjjjj!sn!!((!/ppp2p^!!(((_]!9$''*'*8/(!!!!!dgb^;;|!!(_(_]!!;;;;;;!sn!!!!!djb^))j!!(_(_]!!))))))!sn!6666666666666666666666!66666666666!66!66!66666666!66!66!6666666!!66!66!!666666!!66!66!!666666!!66!66!!666666!!66!66!!666]{{~~~2k&!!!!!!",
"......97~............e7~............97~............97~............9k7............e7k............ek~............e7~......-a[55------cc[-;35/-------adcc.bkno1)j)absbb.*cicicicicccic[))<)))0--))))))!!!!!!!!!!!!!!!@#~@@};;;r@@gd@=;;;~{;;;^/;;;<;;;;;;;[[;;;;;;;;;;;[rsrr;;;;;;;;;[}snsr[;;;;;;[rsutttosr;;;;;r}ookkkoo|r;;;[rbb~bh2bbbr[;g[dd4::::444c[;i;iijjjjjjjig;i@@}[@@@7{{{{7~@@9!]]8{@@@@@@@@@#~@@};;;r@@gd@!!!!%=.d=[.!!/(((!!!jjjjjj!((!!!!!22p(2p&!!/(((!!et'''''t((]!!!]!]&{c;;{4c(((!!!;;;;;;!((!!!!]!]&{c)){4c(((!!!))))))!((!6666666666666666666666666666666666666!6666666666!666!666!666666!!66!66!!666666!!66!66!!666666!!66!66!!666!66!!66!66!!66!]{{1~b~]!!!!!!!",
"......e~e............e7e............eke............e7e............e~e............e~e............e{e............e1e......--[da------1;g-;g5-ah^-hahac3g.b-o1a0)4aash5.s@00000000:00r[))))):-a-:)))))!!!!!!!!!!!!!!!@@@@@@;;;}@[;;@=;;;~{;;;^/;;;<;;;;;;;;;;;;;;;;;;;;;[;[;;;;;;;;;;;[[[[[;;;;;;;;[[sbnnsr[;;;;;[r|bobob}r[;;;;[}|bbbobbr[[;;gcc4444444dcg;j;;iijjjjiiig;j@@@}[@{7{{{1~@@@8!!!&&@@@@@@@@@@@@@@;;;}@[;;@!!!!=gg8%g.{!!!!!!!!jjjjjj!(_!!!!!2p2(pp^!!!!!!!!$''''*'*(_!!!!&&2%2{gc34!!!!!!!;;;;;;!(_!!!!&&2%2{gc34!!!!!!!))))))!(_!6666666666666666666666666666666666666666666666666666!666666666!666!!!666!6666!666!!!666!666!!666!!!666!!66!!666!!!666!!6]{~~~k]!!!!!!!!",
"......&{{............&{{............&{{............&{{............&{{............&{{............&{{............&{{......---;5------cd--;;4450/-a44dccg.b----a-aaaahh.ss54444444440=[))))0-0)<-:))))!!!!!!!!!!!!!!!@@@@@@;;;}@;;[@=;;;~{;;;^/;;;<;;;;;;;;;;;;;;;;;;;;;;;;;;;;;;;;;;;;;;;;;;;;;;;;;[[[r[[;;;;;;;;[[}|}|r[[;;;;;[[rb}b||}[;;;;;g[cd443dc[g;;ij;;giiiiii;;jg@@@@@7{{{7{77@@@9!!8&9@@@@@@@@@@@@@@;;;}@;;[@!!!{=.=!~=g=!!!!!!!!jjjjjj!!!!!!!]2p2{2p!!!!!!!!8e''''''*!!!!!!c1#|~~4c;8!!!!!!!;;;;;;!!!!!!!c1#|~~4c)8!!!!!!!))))))!!!!6666666666666666666666666666666666666666666666666666666666666666666!66666666!6666!!!6666!66!!666!!!666!!66!!666!!!666!!6]{~o2]!!!!!!!!!",
"......&{{............&{~............&{7............&{~............&{{............&{{............&{~............&{{......----c|hhhd[d---;;c404aaa43ccg;.|5bhhhh1hhbd..%}04050505000[[)))<a:)))<-<)))!!!!!!!!!!!!!!!@@@@@@;;;@@;;;@.;;;~{;;;^/;;;<;;;;;;;;;;;;;;;;;;;;;;;;;;;;;;;;;;;;;;;;;;;;;;;;;;;;;;;;;;;;;;;;[[[[[[;;;;;;;;[[[rrr[[[;;;;;;g[ccc|cg[;;;;ii;;ggigg;;ji;@@@@+{{7~@{{~5@@8!!!{&@@@@@@@@@@@@@@;;;@@;;;@!!!=[g{!8=g=!!!!!!!!!/_(_!!!!!!!!22p/_2p!!!!!!!!$t''''''n'!!!!!;[/#%~5;;~!!!!!!!!/_(_!!!!!!!!)j/#%~5))~!!!!!!!!/_(_!!!!!6666666666666666666666666666666666666666666666666666666666666666666!66666666666666!6666666!666666!666666!!66!666!666!66!]{~~]!!!!!!!!!!",
"......&{7............&{{............&{{............&{{............&{7............&{7............&{{............&{~......-----5dcddh----;;;404443d3dg;;...........=.[.s}04:5:040505[[))))))))))<<)))!!!!!!!!!!!!!!!@@@@@@;;;}@;;;@==%#~{&]]^/(_:<;;;;;;;;;;;;;;;;;;;;;;;;;;;;;;;;;;;;;;;;;;;;;;;;;;;;;;;;;;;;;;;;;;;[;;;;;;;;;;;;;[;[;;;;;;;;;;;;gggg;;;;;;;iji;;;;;ijg;;@@@@3j4~@@@~jj3@@$9&7@@@@@@@@@@@@@@@;;;}@;;;@!!!=.=]!!==;]!!!!!!!!((((!!!!!!!!22p]/2p!!!!!!!!e'$$''$''$!!!!!;[{{1~7;;b!!!!!!!!((((!!!!!!!!)j{{1~7))b!!!!!!!!((((!!!!!6666666666666666666666666666666666666666666666666666666666666666666666666666666666666666666666666!6666666666666!!!666666]~o]!!!!!!!!!!!",
"......&{{............&{{............&{~............&{{............&{{............&{{............&{{............&{{......---------------;;;c4444d3dcg;;=.[.[.[.[.....=}|040h0000000[[)))))))))))))))!!!!!!!!!!!!!!!@@@@@@;;;@@[;[@==##~{&!]^/(_:<;;;;;;;;;;;;;;;;;;;;;;;;;;;;;;;;;;;;;;;;;;;;;;;;;;;;;;;;;;;;;;;;;;;;;;;;;;;;;;;;;;;;;;;;;;;;;;;;;;;;;;;;;;;;;iij)jii;;;;@@}cjjj}r@@@pjj@@@8{@@@@@@@@@@@@@@@@;;;@@[;[@!54[g#!!!2cc~!!!!!!!!^(_/!!!!!!!dg[p]2dcb!!!!!!!!!!^((]!!!!!!54;;/{%=~4c~!!!!!!!!^(_/!!!!!!54))/{%=~4j~!!!!!!!!^(_/!!!!!6666666666666666666666666666666666666666666666666666666666666666666666666666666666666666666666666666666666666666!6666666!!!!!!!!!!!!!!!",
".......{..............{..............{..............7..............~..............{..............7..............{.......---------------;;;;;;;;ggg;;;;..=.....[.[.[..}r05005000500[[)))))))))))))))!!!!!!!!!!!!!!!@@@@@;;;;;@@}@@.%%#~{&]]^/(__<;;;;;;;;;;;;;;;;;;;;;;;;;;;;;;;;;;;;;;;;;;;;;;;;;;;;;;;;;;;;;;;;;;;;;;;;;;;;;;;;;;;;;;;;;;;;;;;;;;;;;;;;;;;;;;;;;;;;;;;;@%jjjjc@}r@jjjj@@@;;;@@@@@@@@@@@@@@;;;;;@@}@@!3c3c5!!!4cc4!!!!!!!!;;;;!!!!!!];;;c!{g;d!!!!!!!!!!;;g;!!!!!!c3cc51~]4cc4!!!!!!!!;;;;!!!!!!c3cc51~]4cc4!!!!!!!!;;;;!!!!!666666666666666666666666666666666666666666666666666666666666666666666666666666666666666666666666666666666666666666666666!!!!!!!!!!!!!!!"};
