/* XPM */
static char * small_xpm[] = {
"585 20 64 1",
" 	c None",
".	c #030408",
"+	c #248C59",
"@	c #899A68",
"#	c #A30409",
"$	c #8DD167",
"%	c #134B54",
"&	c #D69013",
"*	c #CFCFB3",
"=	c #9C5127",
"-	c #5A0206",
";	c #EDE92B",
">	c #172F40",
",	c #E45128",
"'	c #624D32",
")	c #AEA651",
"!	c #3AC644",
"~	c #E7B106",
"{	c #2EAC52",
"]	c #D4E6E2",
"^	c #0305F5",
"/	c #EFEADF",
"(	c #EDD496",
"_	c #A46D31",
":	c #5F7373",
"<	c #2230DA",
"[	c #93AABB",
"}	c #FDFDFA",
"|	c #1C724A",
"1	c #D16E23",
"2	c #AEAEB2",
"3	c #ED927B",
"4	c #2C0E0F",
"5	c #54D83C",
"6	c #F90308",
"7	c #AAEC2F",
"8	c #70EB2A",
"9	c #1EFE04",
"0	c #5E9070",
"a	c #5BB770",
"b	c #5E331C",
"c	c #9F3724",
"d	c #F93621",
"e	c #9594B2",
"f	c #1753AD",
"g	c #5453DA",
"h	c #0A72EA",
"i	c #6574DD",
"j	c #98EBE0",
"k	c #5B93E4",
"l	c #308FD6",
"m	c #EDB1AA",
"n	c #03F2F2",
"o	c #77EAFA",
"p	c #6ECDF0",
"q	c #E8797C",
"r	c #A4D1D0",
"s	c #AE7396",
"t	c #2AAECD",
"u	c #59ACF5",
"v	c #B15A9D",
"w	c #0DCEDE",
"x	c #B18D27",
"y	c #304E52",
"^^^^^khiuk^^^^^^^^^^khiuk^^^^^^^^^^khiuk^^^^^^^^^^khiuk^^^^^^^^^^khiuk^^^^^^^^^^khiuk^^^^^^^^^^khiuk^^^^^^^g*gkliuk^g*<^~~~~~~~~~~~~~~~...............^^^^^^^^^^^^^^^666666666666666nnnnnn...wwwwtt<<gie2*/}(m3q,d........................................................................................................................hhhhh>..fhhhhhhy)33syyyyyyyyyyhhhhhl...hhhhhh}}}}}*c=c_}}}}}}}}}}}}}}}}}}}}}}}}}*c=c_}}}}}}}}}}}}}}}}}}}}}3m}}*c=c_}}}}}}}}}}}}}}}}}}}}!!!!!!!!!!!!!!!!!!!!!!!!!!!!!!!!!!!!!!!!!!!!!!!!!!!!!!!!!!!!!!!!!!!!!!!!!!!!!!!!!!!!!!!!!!!!!!!!!!!!!!!!!!!!!!!!}!!!!!!!",
"^^^^kf^f^<k^^^^^^^^kf^f^<k^^^^^^^^leeei<k^^^^^^^^iki[i<k^^^^^^^^ike2i<k^^^^^^^^ik****k^^^^^^^^ik****k^^^^^g]eir/}}/u^e*^~~~~~~~~~~~~~~~...1q11=_===...^>^>^>^>^>^>^>^66&6666&d66,&,6nnnnnn...wwtttl<<iie2*//(m3qqd........................................................................................................................hhh>>....fhhhhh:*(m3q>by'e(***hhhhh.....hhhhh}}}}}c=s1c}}}}}}}}}}}*..]}}}}}}}}}}c=s1c}}}}}}}}}}}*..]}}}}}}33q}c=s1c}}}}}}}}}}}}}}}}}}}}!!!!!!!!!!!!!!!!!!!!!!!!!!!!!!!!!!!!!!!!!!!!!!!!!!!!!!!!!!!!!!!!!!!!!!!!!!!!!!!!!!!!!!!!!!!!!!!!!}!!!!!!!!!!!!!}}}!!!!!!",
"^^^k<uph^^hk^^^^^^k<uph^^hk^^^^^^uirpi<^hk^^^^^^uirri^^hk<^^^^^uerrr<^hk<^^^^^ue*]r((*k<^^^^^ue*/]/;*k^^^^/eu*}}/}}/u<*e~~~~_'4'bx~~~~~.41&==(~&=11=..^<^^<^^<^^<^^^<6&~&66&~~66&~~6nnnnnn...wtt3tl^ggie**//(m3q,d.............................................................................................................--#6#--....hh>...._=>hhhhhy((m3xyy@@['@yyhhhhhic1clhhhhh}}}}}m3331}}}}}}}}}}*.==.}}}}}}}}}}m3331}}}}}}}}}}*.==.}}}}}}(311m3331}}}}}}}*2}}}}}}}}}}}!!!!!!!!!!!!!!!!!!!!!!!!!!!!!!!!!!!!!!!!!!!!!!!!!!!!!!!!!!!!!!!!!!!!!!!!!!!!!!!!!!}!!!!!!!!!!!!!!}!!!!!!!!!!!!!!}!!!!!!!",
"^^^uuog^^^^p<^^^^^uuog^^^^p<^^^^^p*of^^^^p<^^^^^2roi<^^^u<^^^^^pr]r*(2^u<^^^^^p;r**;((p<^^^^^$]/]/}/(p<^^g]^r}}}}}}/]^g]~~~'>'.__'b~~~~.&11=c(~&=c1==.^>~^^>^^>^^>x>^6d~6666~d666~66nnnnn.....tt3+l<<gie2*/}(m3q,d.................................................................................>.>...........44444.......-#-.....-#-..hhf>f3=4qbhhhhhy((33'by[*0y20*hhhhhh33qhhhhhh}}}}}}33q(}}}}}}}}}}/q33v}}}}}}}}}}}qqq(}}}}}}}}}}/q33v}}}}}}}m3q>33q(}}}}}}}222/}}}}}}}}}!!!!!!!!!!!!!!!!!!!!!!!!!!!!!!!!!!!!!!!!!!!!!!!!!!!!!!!!!!!!!!!!!!!}!!!!!!!!!!!!!!}!!!!!!!}!!!!!!}!!!!!!}}!!}!!!}!!!}!!}",
"^^k<ol^^^^^^l^^^^k<ol^^^^^^l^^^^kerk^^^^^^l^^^^k[oki)2<^^l^^^^k2rr(;(;*^l^^^^k**j(;((;*l^^^^k*]]}}}}}*l^^22k/}}}}}}}/k<*~~b'~'b>~~''~~~.=_1==~~x_=_==.^'~>^^>^^^><1y^66d6666666661d6nnnwww=1=tl33hl^ggie2]//(m3qqd................................................................>>>>>>.........>>%%%>>.......4>bybyb>4....--..44-44..--.hhhhh33'3=kklhhy'm3s'y>'/'y'*ehhhhh%[*mfhhhhh}}}}m##,c,3/}}}}}}}}._33='}}}}}}}}}31d,ss/}}}}}}}}._33='}}}}}}/33.....>:}}}}}2222/}}}}}}}}!!!!!!!!!!!!!!!!!!!!!!!!!!!!!!!!!!!!!!!!!!!!!!!!!!!!!!!!!!!!!!!!!!!}!!!!!!!!}!!!!}}}!!!!}!!}}!!!}}}!!!}}!!}}!!!}}}!!!}}!",
"^^ihu<^^^^^^u^^^^ihu<^^^^^^u^^^^hru<^^^^^^u^^^^h2ue(((*^^u^^^^ir]*;((((gk^^^^hr]*;//(((u^^^^hr//}}}}}(k^^]eh]}/}}}}}}u^/~xb~~bx'_~~''~~..1111m~&====..^:~'<^^^>^^<&_^666666666666666nnnwwwqq1tl**lf<<iie2*/}(m3q,d.................................................>>%%%>>.......>>%y|f%%>.....>>yfgy:f%>>....4>bb='c'b>4..-#.4-------4.#4hhik..33q222[hhy'//2:yyy:y}yyyhhhhf.>.'.hhhhh}}}3#######,}}}}}}}}>4334.}}}}}}}}es*v3ssv/}}}}}}}>4334.}}}}}}}3b......4e}}}}22[22/}}}}}}}!!!!!!!!!!!!!!!!!!!!!!!!!!!!!!!!!!!!!!!!!!!!!!!!!!!!}!!!!!!!!!}!!!}}}!!!}!!!!}!!!}}}!!!}!!!}}!!!}}}!!!}}!!}}!!!}}}!!!}}!",
"^^u<f^^^^^^^u^^^^u<f^^^^^^^u^^^^kefgies^<^u^^^^u2i*(**()^u^^^^urr/}];(*eu^^^^kr*/}}};**u^^^^u*}}}}}}}*u^^*gk/}}}}}/}}p^]~b_~~bxx>&~~>_~...==1(~x===...^:~g^y^>^^>'x:^666666666666666nwwwtt1bq+h..|g<qgi22=//(m3q,d......................>.............>>>.........>>||l||>>.....>>f0:00:y%>....>f|:0::::%>...4b'==v=v=='b4.#..---###---..#he3_.>h[22222hhy*}}/*yby=3e>*:hhhh>.e.e.>hhhh}},#########s}}}}}}>|6||#|b}}}}}/sssmdmvsvv}}}}}}>p333el:}}}}}}}>4......3/}}}22e222}}}}}}}!!!!!!!!!!!!!!!!!!!!!!!!!!!!!!!!!!!!!}!!!!!!!!!!}!!!}!!!}!!!!!!}}!!}!!}}!!!!!!}}!!}!!}}!!!!!!}}!!}!!}}!!!}!!}}!!}!!}}!!}",
"^^u^^g<^^<i<u^^^^u^^)(2i<i<u^^^^ug<2;(2eigu^^^^k:<(;/(*2eu^^^^u2*;//}}*ru^^^^u[];}}}/*ru^^^^u[]}}}}//*u^^[gu]}}}}}}/}u<e~yx~~>~~='~~&b&.=1111~~&=1=14.^y~x>x<^^x<x&'^666666666666166wwtwtt*b*+l..|g^qgie2c}/(m3qqd.......>>...........%%|%%.........>f|++%>.......%|0aaa0|%.....%y00@@@0:f>>..>%:::e_e::yf>..>b'=,,,,,='b>.-.4-#######--.-h'32lhl22*22e[hy*}}/2:y@(33ye2hhh>..>....fhhh}=##q1#######(}}}}r||6||#|+}}}}/3svv3#mvssv3}}}}]ptt3)ttt/}}}}}//>.4..>333}}}2[)e222/}}}}}!!!!!!!!!!!!!!!!!!!!!!}!!!!!!!!!!!}!!}!!}!!!!!!!!}!!}!!}!!!!!!!}}!!}!!}}!!!!!!}}!!}!!}}!!!!!!}}!!}!!}}!!!!!!}}!!}!!}}!!!",
"^^u^^eg^^ek<p^^^^u^^ee)**u<p^^^^u<<m;(;([kp^^^^u^i((;/;[ep^^^^u^;(;(;/]*p^^^^u*((}/};**p^^^^u*/}}}}}/*p^^ieu]}}}}}/}/peg~bx~~>~~~>&x_.b.1&1_1m~&=1_c'4^'~)x&x^_&_&x'^666,d1~d6666d~6wwtt.........ff<qq,e2==b(m33qd.....%%%%>.........%|+{+|>........|+{a{+f......>|ua$$$a{|>...>%:0@)))@0:%>.>>f::s_1_s@:y%.4b'=,,,,,,,='b4.4--##6#6##--...>222k2222222[hy//}}]22/*2:by:hhf....>....fhh},#v/m####1###}}}]|+|66##||$}}}msvsss#qvsssv*}}/3)tttttt[3/}}}}/}'..../33q(}}22ee[222/}}}}!!!!!!!}!!!!!!!!!!!!}!}!}!!!!!!!!!!}!}!}!!!!!!!!!!}!}!}!!!!!!!!!!}!}!}!!!!!!!!!!}!}!}!!!!!!!!!!}!}!}!!!!!!!!!!}!}!}!!!!!",
"^^^l<ie^<lkl<^^^^^l<ge^<kkl<^^^^^k<i2***2u<^^^^^k<22(*[[[<^^^^^u(;((;r][<^^^^^k;;(;/r]2<^^^^^k;}/}/}][<^^g2^[}}/}}}}*<e<~bx_b4'b>4.''>_.q1_1=(~&==_=c>^y~)~&x>x&x&&:^6d~~~&,66666&~dttt....}.....fy^qqqe2==c(m33qd....>%+{+%>........%+!5!+|.......>|{585{+>.....%|a$777$u+%...>f0@)x&))@0f>..%::xs111_s0y%>>bc=,,,d,,,v'b4.4-###6666##-4.fhk2222[[222e@iy]}}2/*/**@y___hh..>.....>..hh}/,#q3####}m##c}}3+{|66##+||r}}ssv(ss,sv/ssvv}}333ptttlr33m}}}}}}2..../}33m}}2[2)ee[22/}}}!!!!!!}}}!!!!!!!!!!!!}}}!!!!!!!!!!!!}}}!!!!!!!!!!!!}}}!!!!!!!!!!!!}}}!!!!!!!!!!!!}}}!!!!!!!!!!!!}}}!!!!!!!!!!!!}}}!!!!!!",
"^^^u^^2^kp^u^^^^^^u^<e^kp^u^^^^^^u^<@^[p:u^^^^^^u^<@(*$2p^^^^^^u2;];*](p^^^^^^u*(;*]**p^^^^^^u*(;}/](p^^^^2gp(}}/}}}p<2^..4b>_x&~~.~~'x.1111=~~&1=1=bb>g~~~)&&&&&&&_^6~~~~16d&,,&~~6ttl.........yfy<q1,e2='b(m333d....>|{9{|>.......>|{!85{f>......>+a878a+>.....%+a$7;7$a:%...%y0@)&&&)@0y>.>%g:s_1,11s::>.4y==,,d,,d,==b4.4-##666#6##--.>hhl*2e322222[[x/}}}****ssxsxeh%..h.....h..fh}}},3q4<--r},##/33q}|66##+++{}}ssq/ssssv(}ssvm33q/pttltp/33}}}}}}2..../}m3q}}2)ee2eee@}}}}!!!!!!}}}!!!!!!!!!!!!}}}!!!!!!!!!!!!}}}!!!!!!!!!!!!}}}!!!!!!!!!!!!}}}!!!!!!!!!!!!}}}!!!!!!!!!!!!}}}!!!!!!!!!!!!}}}!!!!!!",
"^^^^l<e<[ip<^^^^^^^k<e<[ip<^^^^^^^l<e<[2r<^^^^^^^l<@e[2p<^^^^^^^l)(r*(p<^^^^^^^l2(*]*r<^^^^^^^l2**](p<^^^^<e^l]}/}/r<ei^~yx~b)~~~~_'~bx.1_111(~&11='=4^y~)~~&&&&&x&:<6~~~&~16d~~~~d6tll..}.}..fyfy<<}}}e2;;;(mb-bd.....%+{|%>........%{!5!+%.......>|{585{|>....4>|a$777$a+%>..>f:@)&~&@@0f%..%|:e1111_s0f%>4b'=,,,,,,,v'y4.4-###666###-4.f%hhhk33222222eh]/}//2khhhhhhhh>.>h.....h%.sh}}}}m<<<<.g}}##(33/}6666##j|+}}33}/sssvv/}/svm33m}patttl}33}}}}/2.....2}}3q}/22e)@ee:/}}}}!!!!!!!}!!!!!!!!!!!!}!}!}!!!!!!!!!!}!}!}!!!!!!!!!!}!}!}!!!!!!!!!!}!}!}!!!!!!!!!!}!}!}!!!!!!!!!!}!}!}!!!!!!!!!!}!}!}!!!!!",
"^^^^^ukeeo^^^^^^^^^^ueeeo^^^^^^^^^^ukeeo^^^^^^^^^^uke2j^^^^^^^^^^uke*r^^^^^^^^^^u@e*r^^^^^^^^^^u@e*j^^^^^^^g*^u]/}j^ie^^~=_x>~~~~~xb)bx.1=~(~m~~~(&=c>4:~0)~1#1&x:x_^6d&d6,~~~&d,d66l+l...*3..yfyfy^...e2...(m...d.....>%|%>.........%|+{+|%.......>%+aa{+f>.....>|0a$$$a0|>...>%:0@)))@0:%>.>>y::_s1_e::y%.4>c=,,,,d,,=c>4.4--###6###--4.h>fhhhhl[2222)kh]/]}]rhhhhhhhhh33lh.....hhs3l}}}}e44^><.}}333q/}}6666##}|+}}33}mvvvsv(}}333q/}ruttltl]m3}}}}}'4:(..y}}3q}/22eees@*}}}}}!!!!!!!!!!!!!!!!!!!!!!}!!!!!!!!!!!}!!}!!}!!!!!!!!}!!}!!}!!!!!!!}}!!}!!}}!!!!!!}}!!}!!}}!!!!!!}}!!}!!}}!!!!!!}}!!}!!}}!!!",
"^^^^^^r[e^^^^^^^^^^^^p[e^^^^^^^^^^^^r[e^^^^^^^^^^^^r[e^^^^^^^^^^^^r@[^^^^^^^^^^^^p[@^^^^^^^^^^^^p@e^^^^^^^^^^^^p[e^^^^^^~&>__~~~~~~bb>~.c_m~~~~~~~&'bb^:@+0)6#6&:|::^66d6661~~666666lb-b-b-b-bbb-b><...e2...(m...d.......>>...........>%|%%.........>f|+|%>......>%|{aaa0|%.....%f00@@@00y%...>%::e:xs:::%>.4>''=,,,,===b>.-.--#######-4.-hhf>hhh[2222[ehhr}//]2hhhhhhhhhiehhf...%hh4'h}}}}g<^'<>^}}m333}}}6666##}33}}}}}ssv3sv*}}m333}}pattttta33/}}}/}/*2b..2=b3}/22)e:e/}}}}}}!!!!!!!!!!!!!!!!!!!!!!!!!!!!!!!!!!!!!}!!!!!!!!!!}!!!}!!!}!!!!!!}}!!}!!}}!!!!!!}}!!}!!}}!!!!!!}}!!}!!}}!!!}!!}}!!}!!}}!!}",
"^^^^^^pep^^^^^^^^^^^^p[p^^^^^^^^^^^^p@p^^^^^^^^^^^^p[p^^^^^^^^^^^^pep^^^^^^^^^^^^pep^^^^^^^^^^^^p2p^^^^^^^^^^^^p)p^^^^^^~~>'&~~~~~~).4~.4_~&x(~x&x&bc4^:~0)&16=&&|x_^66666,~&~,66666|h11111111,11%><...e2...(m...d.....................>.>...........>>>>>........>>|:++|%>.....>%y:0:0:f%>....>fy:::0::%>>..4bb======='b4.#..--####---4.#hhhf>h2[222)ehhh]}}}**hhhhhhhhhhhhhh...fh>..h}}}}<44]g4^2}}}}}}}}6666##}3q}}}}}svs3vv(}}}}}}}}uttttltl3q}}}}**sgs24bc=}}}/2eee@/}}}}}}}!!!!!!!!!!!!!!!!!!!!!!!!!!!!!!!!!!!!!!!!!!!!!!!!!!!!}!!!!!!!!!}!!!}}}!!!}!!!!}!!!}}}!!!}!!!}}!!!}}}!!!}}!!}}!!!}}}!!!}}!",
"^^^^^^*22^^^^^^^^^^^^*22^^^^^^^^^^^^*22^^^^^^^^^^^^*22^^^^^^^^^^^^*22^^^^^^^^^^^^*22^^^^^^^^^^^^*22^^^^^^^^^^^^*22^^^^^^~~~._~~~~~~b'~~..==_1m~&=='bb4^:~~~~&~&&&&xx^66661~16d~,6666||_=========1<><...e2...(m...d.................................................>>>%>>........>>fyfy%>>.....>>%:f:yyf>.....4>b'==c'b>4..-#..4------..#4hhhhh[222[2[[hhhr}}]*rhhhhhhhhhhhhhh...fh..>h}}}2<^<}e<4<}}}}}}}}66####}}}}}}}/svs2sv}}}}}}}}]pttttttl}}}}}}b)iyee=b.]}}}/2e0s/}}}}}}}}!!!!!!!!!!!!!!!!!!!!!!!!!!!!!!!!!!!!!!!!!!!!!!!!!!!!!!!!!!!!!!!!!!!}!!!!!!!!}!!!!}}}!!!!}!!}}!!!}}}!!!}}!!}}!!!}}}!!!}}!",
"^^^^^^*22^^^^^^^^^^^^*2e^^^^^^^^^^^^*2[^^^^^^^^^^^^*2e^^^^^^^^^^^^*22^^^^^^^^^^^^*22^^^^^^^^^^^^*2e^^^^^^^^^^^^*22^^^^^^~~~~byxxx'>'~~~..b=1=&&&=cbb4.^y_:xxxx)xx:'^^666d&,666d~d666gf1=1_1_1_111>>^...e2...(m...d................................................................>>>>>>........>>>%%%>>>......4>bbbyb4>....--..44-44..#-.hhhhk22[eh22e_hh]}}}2*hhhhhhhhhhhhhh...hh...h}}}<>42}]<4<}}}}}}}}}mq3q}}}}}}}}ssvmqsv}}}}}}}}uatttttt+t}}}}}.>mige_..e}}}/2ee/}}}}}}}}}!!!!!!!!!!!!!!!!!!!!!!!!!!!!!!!!!!!!!!!!!!!!!!!!!!!!!!!!!!!!!!!!!!!}!!!!!!!!!!!!!!}!!!!!!!}!!!!!!}!!!!!!}}!!}!!!}!!!}!!}",
"^^^^^^*2[^^^^^^^^^^^^*22^^^^^^^^^^^^*22^^^^^^^^^^^^*22^^^^^^^^^^^^*2[^^^^^^^^^^^^*2[^^^^^^^^^^^^*22^^^^^^^^^^^^*2e^^^^^^~~~~~_'b''x~~~~...=1===c'c'4..^^^^^^^^^^^<^>^6666666666dd666|f1=,_,1=1_1_>><<gie2*//(m3q,d...................................................................>.............>.>............4444.......-#-.....-#4..hhhhc#=ehhhe##chhur*[hhhhhhhhhhhhhhh...fh...h}}}<^</}}<<./}}}}}}}}3333}}}}}}}}ssv/msv}}}}}}}}ptuuttuttu}}}}}.>22)e[..:}}}/e0/}}}}}}}}}}!!!!!!!!!!!!!!!!!!!!!!!!!!!!!!!!!!!!!!!!!!!!!!!!!!!!!!!!!!!!!!!!!!!!!!!!!!!!!!!!!!!!!!!!!!!!!!!!!}!!!!!!!!!!!!!}}}!!!!!!",
"^^^^^^*22^^^^^^^^^^^^*22^^^^^^^^^^^^*2e^^^^^^^^^^^^*22^^^^^^^^^^^^*22^^^^^^^^^^^^*22^^^^^^^^^^^^*22^^^^^^^^^^^^*22^^^^^^~~~~~~~~~~~~~~~...b===='c'b4..<^>^>^>^>^^^^^<666666666666666fy1=1x1111111>><<iie2*}/(m3q,d.............................................................................................................--#6#--....hhfb###f%hhhv##hhh]2hhhhhhhhhhhhhhhh...hh>.>h}_=>4i}}}sbbe}}}}}}}}(3qm}}}}}}}'4>v/s'b:}}}}}}}}}}(33/}}}}}}_=..m2g<e=be}}}}}}}}}}}}}}}}}!!!!!!!!!!!!!!!!!!!!!!!!!!!!!!!!!!!!!!!!!!!!!!!!!!!!!!!!!!!!!!!!!!!!!!!!!!!!!!!!!!!!!!!!!!!!!!!!!!!!!!!!!!!!!!!!}!!!!!!!",
"^^^^^^^2^^^^^^^^^^^^^^2^^^^^^^^^^^^^^2^^^^^^^^^^^^^^[^^^^^^^^^^^^^^e^^^^^^^^^^^^^^2^^^^^^^^^^^^^^[^^^^^^^^^^^^^^2^^^^^^^~~~~~~~~~~~~~~~........444....^^<^^^^^>^>^>^^666666666666666f%1_11_111_11>>^ggie2*//(m3qqd........................................................................................................................hg####bhf%h####hhh...hhhhhhhhhhhhhh.....hhfhh}cbcb_}}}=bb=}}}}}}}}....}}}}}}/...b}24.'}}}}}}}}}}..4.}}}}}}bcbb_)e/=bb=}}}}}}}}}}}}}}}}}!!!!!!!!!!!!!!!!!!!!!!!!!!!!!!!!!!!!!!!!!!!!!!!!!!!!!!!!!!!!!!!!!!!!!!!!!!!!!!!!!!!!!!!!!!!!!!!!!!!!!!!!!!!!!!!!!!!!!!!!"};
