/* XPM */
static char * small_xpm[] = {
"645 20 64 1",
" 	c None",
".	c #0305F5",
"+	c #5B93E4",
"@	c #0A72EA",
"#	c #6574DD",
"$	c #59ACF5",
"%	c #5453DA",
"&	c #CFCFB3",
"*	c #308FD6",
"=	c #2230DA",
"-	c #E7B106",
";	c #030408",
">	c #F90308",
",	c #54D83C",
"'	c #03F2F2",
")	c #0DCEDE",
"!	c #2AAECD",
"~	c #9594B2",
"{	c #AEAEB2",
"]	c #EFEADF",
"^	c #FDFDFA",
"/	c #EDD496",
"(	c #EDB1AA",
"_	c #ED927B",
":	c #E8797C",
"<	c #E45128",
"[	c #F93621",
"}	c #172F40",
"|	c #1753AD",
"1	c #304E52",
"2	c #AEA651",
"3	c #AE7396",
"4	c #9F3724",
"5	c #9C5127",
"6	c #A46D31",
"7	c #3AC644",
"8	c #93AABB",
"9	c #D4E6E2",
"0	c #A4D1D0",
"a	c #D16E23",
"b	c #D69013",
"c	c #2EAC52",
"d	c #5E9070",
"e	c #5F7373",
"f	c #5E331C",
"g	c #624D32",
"h	c #6ECDF0",
"i	c #EDE92B",
"j	c #2C0E0F",
"k	c #B18D27",
"l	c #1C724A",
"m	c #5A0206",
"n	c #A30409",
"o	c #899A68",
"p	c #77EAFA",
"q	c #8DD167",
"r	c #248C59",
"s	c #B15A9D",
"t	c #98EBE0",
"u	c #134B54",
"v	c #5BB770",
"w	c #70EB2A",
"x	c #AAEC2F",
"y	c #1EFE04",
".....+@#$+..........+@#$+..........+@#$+..........+@#$+..........+@#$+..........+@#$+..........+@#$+.......%&%+*#$+.%&=.---------------;;;;;;;;;;;;;;;...............>>>>>>>>>>>>>>>,,,,,,,,,,,,,,,'''''';;;))))!!==%#~{&]^/(_:<[;;;;;;;;;;;;;;;;;;;;;;;;;;;;;;;;;;;;;;;;;;;;;;;;;;;;;;;;;;;;;;;;;;;;;;;;;;;;;;;;;;;;;;;;;;;;;;;;;;;;;;;;;;;;;;;;;;;;;;;;@@@@@};;|@@@@@@12__31111111111@@@@@*;;;@@@@@@^^^^^&4546^^^^^^^^^^^^^^^^^^^^^^^^^&4546^^^^^^^^^^^^^^^^^^^^^_(^^&4546^^^^^^^^^^^^^^^^^^^^^_(^^&4546^^^^^^^^^^^^^^^^^^^^7777777777777777777777777777777777777777777777777777777777777777777777777777777777777777777777777777777777777777^7777777^^^^^^^^^^^^^^^",
"....+|.|.=+........+|.|.=+........*~~~#=+........#+#8#=+........#+~{#=+........#+&&&&+........#+&&&&+.....%9~#0]^^]$.~&.---------------;;;a:aa56555;;;.}.}.}.}.}.}.}.>>b>>>>b[>><b<>,,,,,,,,7cd,,,,'''''';;;))!!!*==##~{&]]/(_::[;;;;;;;;;;;;;;;;;;;;;;;;;;;;;;;;;;;;;;;;;;;;;;;;;;;;;;;;;;;;;;;;;;;;;;;;;;;;;;;;;;;;;;;;;;;;;;;;;;;;;;;;;;;;;;;;;;;;;;;;@@@}};;;;|@@@@@e&/(_:}f1g~/&&&@@@@@;;;;;@@@@@^^^^^453a4^^^^^^^^^^^&;;9^^^^^^^^^^453a4^^^^^^^^^^^&;;9^^^^^^__:^453a4^^^^^^^^^^^&;;9^^^^^^__:^453a4^^^^^^^^^^^&;;9^^^^^7777777777777777777777777777777777777777777777777777777777777777777777777777777777777777777777777^7777777777777^^^777777^^^^^^^^^^^^^^^",
"...+=$h@..@+......+=$h@..@+......$#0h#=.@+......$#00#..@+=.....$~000=.@+=.....$~&90//&+=.....$~&]9]i&+....]~$&^^]^^]$=&~----6gjgfk-----;jab55/-b5aa5;;.=..=..=..=...=>b-b>>b-->>b-->,,,,,cdl;;l,,,,'''''';;;)!!_!*.%%#~&&]]/(_:<[;;;;;;;;;;;;;;;;;;;;;;;;;;;;;;;;;;;;;;;;;;;;;;;;;;;;;;;;;;;;;;;;;;;;;;;;;;;;;;;;;;;;;;;;;;;;;;;;;;;;;;;;;;;;;mmn>nmm;;;;@@};;;;65}@@@@@1//(_k11oo8go11@@@@@#4a4*@@@@@^^^^^(___a^^^^^^^^^^&;55;^^^^^^^^^^(___a^^^^^^^^^^&;55;^^^^^^/_aa(___a^^^^^^^^^^&;55;^^^^^^/_aa(___a^^^^^^^^^^&;55;^^^^^7777777777777777777777777777777777777777777777777777777777777777777777777777777777^77777777777777^77777777777777^7777777^&{^^^^^^^^^^^^",
"...$$p%....h=.....$$p%....h=.....h&p|....h=.....{0p#=...$=.....h090&/{.$=.....hi0&&i//h=.....q9]9]^]/h=..%9.0^^^^^^]9.%9---g}g;66gf----;baa54/-b54a55;.}-..}..}..}k}.>[->>>>-[>>>->>,,,,,l;;;,,,,,,''''';;;;;!!_r*==%#~{&]^/(_:<[;;;;;;;;;;;;;;;;;;;;;;;;;;;;;;;;;;;;;;;;;;;;;;;;;;;;;;;;;;;;;;;;;;;;;;;;;;;;;;;;;};};;;;;;;;;;;jjjjj;;;;;;;mnm;;;;;mnm;;@@|}|_5j:f@@@@@1//__gf18&d1{d&@@@@@@__:@@@@@@^^^^^^__:/^^^^^^^^^^]:__s^^^^^^^^^^^:::/^^^^^^^^^^]:__s^^^^^^^(_:}__:/^^^^^^^^^^]:__s^^^^^^^(_:n__:/^^^^^^^^^^]:__s^^^^^7777777777777777777777777777777777777777777777777777777777777777777^77777777777777^7777777^777777^777777^^77^777^777^77^^{{{]^^^^^^^^^^",
"..+=p*......*....+=p*......*....+~0+......*....+8p+#2{=..*....+{00/i/i&.*....+&&t/i//i&*....+&99^^^^^&*..{{+]^^^^^^^]+=&--fg-gf}--gg---;56a55--k65655;.g-}..}...}=a1.>>[>>>>>>>>>a[>,,,,,;;;c,,,,,,''')))5a5!*__@*.%%#~{9]]/(_::[;;;;;;;;;;;;;;;;;;;;;;;;;;;;;;;;;;;;;;;;;;;;;;;;;;;;;;;;;;;;;;;;}}}}}};;;;;;;;;}}uuu}};;;;;;;j}f1f1f}j;;;;mm;;jjmjj;;mm;@@@@@__g_5++*@@1g(_3g1}g]g1g&~@@@@@u8&(|@@@@@^^^^(nn<4<_]^^^^^^^^;6__5g^^^^^^^^^_a[<33]^^^^^^^^;6__5g^^^^^^]__;;;;;}e^^^^^^^^;6__5g^^^^^^]__nnnnnne^^^^^^^^;6__5g^^^^7777777777777777777777777777777777777777777777777777777777777777777^77777777^7777^^^7777^77^^777^^^777^^77^^777^^^777^^7^{{{{]^^^^^^^^^",
"..#@$=......$....#@$=......$....@0$=......$....@{$~///&..$....#09&i////%+....@09&i]]///$....@0]]^^^^^/+..9~@9^]^^^^^^$.]-kf--fkg6--gg--;;aaaa(-b5555;;.e-g=...}..=b6.>>>>>>>>>>>>>>>,,,,l;;;,,,,,,,''')))::a!*&&*|==##~{&]^/(_:<[;;;;;;;;;;;;;;;;;;;;;;;;;;;;;;;;;;;;;;;;;;;;;;;;;}}uuu}};;;;;;;}}u1l|uu};;;;;}}1|%1e|u}};;;;j}ff5g4gf}j;;mn;jmmmmmmmj;nj@@#+;;__:{{{8@@1g]]{e111e1^111@@@@|;};g;@@@@@^^^_nnnnnnn<^^^^^^^^}j__j;^^^^^^^^~3&s_33s]^^^^^^^}j__j;^^^^^^^_f;;;;;;j~^^^^^^^}j__j;^^^^^^^_n>>>>>>n~^^^^^^^}j__j;^^^^7777777777777777777777777777777777777777777777777777^777777777^777^^^777^7777^777^^^777^777^^777^^^777^^77^^777^^^777^^7^{{8{{]^^^^^^^^",
"..$=|.......$....$=|.......$....+~|%#~3.=.$....${#&/&&/2.$....$00]^9i/&~$....+0&]^^^i&&$....$&^^^^^^^&$..&%+]^^^^^]^^h.9-f6--fkk}b--}6-;;;55a/-k555;;;.e-%.1.}..}gke.>>>>>>>>>>>>>>>,,,7;;;l,,,,,,,')))!!af:r@;;l%=:%#{{5]]/(_:<[;;;;;;;;;;;;;;;;;;;;;;};;;;;;;;;;;;;}}};;;;;;;;;}}ll*ll}};;;;;}}|dedde1u};;;;}|ledeeeeu};;;jfg55s5s55gfj;n;;mmmnnnmmm;;n@~_6;}@8{{{{{@@1&^^]&1f15_~}&e@@@@};~;~;}@@@@^^<nnnnnnnnn3^^^^^^}lnllnlf^^^^^]333([(s3ss^^^^^^}h___~*e^^^^^^^}j;;;;;;_]^^^^^}l;ll;lf^^^^^^^nn>>>>>n_]^^^^^}l>ll>lf^^^7777777777777777777777777777777777777^7777777777^777^777^777777^^77^77^^777777^^77^77^^777777^^77^77^^777^77^^77^77^^77^^{{~{{{^^^^^^^^",
"..$..%=..=#=$....$..2/{#=#=$....$%={i/{~#%$....+e=/i]/&{~$....${&i]]^^&0$....$89i^^^]&0$....$89^^^^]]&$..8%$9^^^^^^]^$=~-1k--}--5g--bfb;5aaaa--b5a5aj;.1-k}k=..k=kbg.>>>>>>>>>>>>a>>,,,c;;;,,,,,,,,))!)!!&f&r*;;l%.:%#~{4^]/(_::[;;;;;;;}};;;;;;;;;;;uuluu;;;;;;;;;}|lrru};;;;;;;uldvvvdlu;;;;;u1ddooode|}};;}ueee~6~ee1|};;}fg5<<<<<5gf};m;jmnnnnnnnmm;m@g_{*@*{{&{{~8@1&^^]{e1o/__1~{@@@};;};;;;|@@@^5nn:annnnnnn/^^^^0llnllnlr^^^^]_3ss_n(s33s_^^^^9h!!_2!!!]^^^^^]]};j;;}___^^^^0ll;ll;lr^^^^^^]]n>>>>n___^^^^0ll>ll>lr^^^7777777777777777777777^77777777777^77^77^77777777^77^77^7777777^^77^77^^777777^^77^77^^777777^^77^77^^777777^^77^77^^777^{82~{{{]^^^^^^",
"..$..~%..~+=h....$..~~2&&$=h....$==(i/i/8+h....$.#//i]i8~h....$.i/i/i]9&h....$&//^]^i&&h....$&]^^^^^]&h..#~$9^^^^^]^]h~%-fk--}---}bk6;f;aba6a(-b5a64gj.g-2kbk.6b6bkg.>>><[a-[>>>>[->,,,d;;;,,,,,,,,))!!;;;;;;;;;||=::<~{55f/(__:[;;;;;uuuu};;;;;;;;;ulrcrl};;;;;;;;lrcvcr|;;;;;;}l$vqqqvcl};;;}uedo222odeu};}}|ee36a63oe1u;jfg5<<<<<<<5gfj;jmmnn>n>nnmm;;;}{{{+{{{{{{{8@1]]^^9{{]&{ef1e@@|;;;;};;;;|@@^<ns](nnnnannn^^^9lrlnnnnllq^^^(3s333n:s333s&^^]_2!!!!!!8_]^^^^]^g;;;;]__:/^^9lrl;;;;llq^^^^^]^n>>>>]__:/^^9lrl>>>>llq^^7777777^777777777777^7^7^7777777777^7^7^7777777777^7^7^7777777777^7^7^7777777777^7^7^7777777777^7^7^7777777777^7^7^77777^{{~~8{{{]^^^^^",
"...*=#~.=*+*=.....*=%~.=++*=.....+=#{&&&{$=.....+={{/&888=.....$/i//i098=.....+ii/i]09{=.....+i^]^]^98=..%{.8^^]^^^^&=~=-fk6fjgf}j;gg}6;:a6a5/-b55654}.1-2-bk}kbkbbe.>[---b<>>>>>b-[,,,l;;;,,,,,,,,!!!;;;;^;;;;;|1.:::~{554/(__:[;;;;}urcru};;;;;;;;ur7,7rl;;;;;;;}lc,w,cr};;;;;ulvqxxxq$ru;;;}|do2kb22od|};;ueek3aaa63d1u}}f45<<<[<<<sgfj;jmnnn>>>>nnmj;|@+{{{{88{{{~o#19^^{]&]&&o1666@@;;};;;;;};;@@^]<n:_nnnn^(nn4^^_rclnnnnrll0^^33s/33<3s]33ss^^___h!!!*0__(^^^^^^{;;;;]^__(^^_rcl;;;;rll0^^^^^^{>>>>]^__(^^_rcl>>>>rll0^777777^^^777777777777^^^777777777777^^^777777777777^^^777777777777^^^777777777777^^^777777777777^^^777777777777^^^777777^{8{2~~8{{]^^^^",
"...$..{.+h.$......$.=~.+h.$......$.=o.8he$......$.=o/&q{h......${i9i&9/h......$&/i&9&&h......$&/i^]9/h....{%h/^^]^^^h={.;;jf}6kb--;--gk;aaaa5--ba5a5ff}%---2bbbbbbb6.>----a>[b<<b-->,,,,;;;c,,,,,,,!!*;;;;;;;;;1|1=:a<~{5gf/(___[;;;;}lcycl};;;;;;;}lc7w,c|};;;;;;}rvwxwvr};;;;;urvqxixqveu;;;u1do2bbb2od1};}u%e36a<aa3ee};j155<<[<<[<55fj;jmnn>>>n>nnmm;}@@*&{~_{{{{{88k]^^^&&&&33k3k~@u;;@;;;;;@;;|@^^^<_:j=mm0^<nn]__:^lnnnnrrrc^^33:]3333s/^33s(__:]h!!*!h]__^^^^^^{;;;;]^(_:]__:^l;;;;rrrc^^^^^^{>>>>]^(_:]__:^l>>>>rrrc^777777^^^777777777777^^^777777777777^^^777777777777^^^777777777777^^^777777777777^^^777777777777^^^777777777777^^^777777^{2~~{~~~o^^^^^",
"....*=~=8#h=.......+=~=8#h=.......*=~=8{0=.......*=o~8{h=.......*2/0&/h=.......*{/&9&0=.......*{&&9/h=....=~.*9^]^]0=~#.-1k-f2----6g-fk;a6aaa/-baa5g5j.1-2--bbbbbkbe=>---b-a>[----[>,,,,l;;d,,,,,,,!**;;^;^;;|1|1==^^^~{iii/(fmf[;;;;;urclu};;;;;;;;uc7,7ru;;;;;;;}lc,w,cl};;;;j}lvqxxxqvru};;}|eo2b-bood|u;;ule~aaaa63d|u}jfg5<<<<<<<sg1j;jmnnn>>>nnnmj;|u@@@+__{{{{{{~@9]^]]{+@@@@@@@@};}@;;;;;@u;3@^^^^(====;%^^nn/__]^nnnnnntlr^^__^]333ss]^]3s(__(^hv!!!*^__^^^^]{;;;;;{^^_:/__]^;;;;;;tlr^^^^]{>>>>>{^^_:/__]^>>>>>>tlr^7777777^777777777777^7^7^7777777777^7^7^7777777777^7^7^7777777777^7^7^7777777777^7^7^7777777777^7^7^7777777777^7^7^77777]{{~2o~~e]^^^^^",
".....$+~~p..........$~~~p..........$+~~p..........$+~{t..........$+~&0..........$o~&0..........$o~&t.......%&.$9]^t.#~..-56k}-----kf2fk;a5-/-(---/b54}je-d2-anabkek6.>[b[><---b[<[>>,,,,cl;lc,,,,,,*r*;;;&_;;1|1|1.;;;~{;;;/(;;;[;;;;;}ulu};;;;;;;;;ulrcrlu;;;;;;;}urvvcr|};;;;;}ldvqqqvdl};;;}uedo222odeu};}}1ee63a6~ee1u;j}45<<<<[<<54}j;jmmnnn>nnnmmj;@}|@@@@*8{{{{2+@9]9^90@@@@@@@@@__*@;;;;;@@3_*^^^^~jj.}=;^^___:]^^nnnnnn^lr^^__^(sss3s/^^___:]^0$!!*!*9(_^^^^^gje/;;1^^_:_:]^^;;;;;;^lr^^^^^gne/>>n^^_:_:]^^>>>>>>^lr^7777777777777777777777^77777777777^77^77^77777777^77^77^7777777^^77^77^^777777^^77^77^^777777^^77^77^^777777^^77^77^^777]{{~~~3o&^^^^^^",
"......08~............h8~............08~............08~............0o8............h8o............ho~............h8~......-b}66------ff}-;46(-------bgff.eord2>n>belee.>>[>>>a-->>>>>>,,,,,d;;d,gc,,,*fmfmfmfmfffmf}=;;;~{;;;/(;;;[;;;;;;;}};;;;;;;;;;;}uluu;;;;;;;;;}|lrlu};;;;;;}ulcvvvdlu;;;;;u|ddooodd1u;;;}uee~ek3eeeu};j}gg5<<<<555f};m;mmnnnnnnnmj;m@@|}@@@8{{{{8~@@0^]]9{@@@@@@@@@#~@@|;;;u@@jg@^^^^%=.g=}.^^(___^^^nnnnnn^__^^^^^33s_3s&^^(___^^hv!!!!!v__]^^^]^]&{f;;{5f___^^^;;;;;;^__^^^^]^]&{f>>{5f___^^^>>>>>>^__^7777777777777777777777777777777777777^7777777777^777^777^777777^^77^77^^777777^^77^77^^777777^^77^77^^777^77^^77^77^^77^]{{2~e~]^^^^^^^",
"......h~h............h8h............hoh............h8h............h~h............h~h............h{h............h2h......--}gb------2;j-;j6-bk/-kbkbf4j.e-d2ba>5bblk6.>>>>><-b-<>>>>>,,,,,cl;l,mv,,,l@aaaaaaaa<aau}=;;;~{;;;/(;;;[;;;;;;;;;;;;;;;;;;;;;};};;;;;;;;;;;}}}}};;;;;;;;}}lerrlu};;;;;}u1edede|u};;;;}|1eeedeeu}};;jff5555555gfj;n;;mmnnnnmmmj;n@@@|}@{8{{{2~@@@9^^^&&@@@@@@@@@@@@@@;;;|@};;@^^^^=jj9%j.{^^^^^^^^nnnnnn^_:^^^^^3s3_ss/^^^^^^^^$!!!!*!*_:^^^^&&3%3{jf45^^^^^^^;;;;;;^_:^^^^&&3%3{jf45^^^^^^^>>>>>>^_:^7777777777777777777777777777777777777777777777777777^777777777^777^^^777^7777^777^^^777^777^^777^^^777^^77^^777^^^777^^7]{~~~o]^^^^^^^^",
"......&{{............&{{............&{{............&{{............&{{............&{{............&{{............&{{......---;6------fg--;;556a(-b55gffj.e----b-bbbbkk.>>>>a-a>[-<>>>>,,,,,,,l;mg,,,,ll6555555555a=}=;;;~{;;;/(;;;[;;;;;;;;;;;;;;;;;;;;;;;;;;;;;;;;;;;;;;;;;;;;;;;;;}}}u}};;;;;;;;}}|1|1u}};;;;;}}ue|e11|};;;;;j}fg554gf}j;;mn;;jmmmmmm;;nj@@@@@8{{{8{88@@@0^^9&0@@@@@@@@@@@@@@;;;|@;;}@^^^{=.=^~=j=^^^^^^^^nnnnnn^^^^^^^]3s3{3s^^^^^^^^9h!!!!!!*^^^^^^f2#1~~5f;9^^^^^^^;;;;;;^^^^^^^f2#1~~5f>9^^^^^^^>>>>>>^^^^7777777777777777777777777777777777777777777777777777777777777777777^77777777^7777^^^7777^77^^777^^^777^^77^^777^^^777^^7]{~d3]^^^^^^^^^",
"......&{{............&{~............&{8............&{~............&{{............&{{............&{~............&{{......----f1kkkg}g---;;f5a5bbb54ffj;.16ekkkk2kkeg..>>>[b<>>>[-[>>>,,,,,m,mm1,,,,,%|a5a6a6a6aaa}}.;;;~{;;;/(;;;[;;;;;;;;;;;;;;;;;;;;;;;;;;;;;;;;;;;;;;;;;;;;;;;;;;;;;;;;;;;;;;;;}}}}}};;;;;;;;}}}uuu}}};;;;;;j}fff1fj};;;;mm;;jjmjj;;nm;@@@@+{{8~@{{~6@@9^^^{&@@@@@@@@@@@@@@;;;@@;;;@^^^=}j{^9=j=^^^^^^^^^(:_:^^^^^^^^33s(:3s^^^^^^^^$v!!!!!!r!^^^^^;}(#%~6;;~^^^^^^^^(:_:^^^^^^^^>n(#%~6>>~^^^^^^^^(:_:^^^^^7777777777777777777777777777777777777777777777777777777777777777777^77777777777777^7777777^777777^777777^^77^777^777^77^]{~~]^^^^^^^^^^",
"......&{8............&{{............&{{............&{{............&{8............&{8............&{{............&{~......-----6gfggk----;;;5a5554g4gj;;...........=.}.>>>>>>>>>>[[>>>,,,,,cmgd1d,,,,l|a5<6<a5a6a6}}==%#~{&]]/(_:<[;;;;;;;;;;;;;;;;;;;;;;;;;;;;;;;;;;;;;;;;;;;;;;;;;;;;;;;;;;;;;;;;;;;};;;;;;;;;;;;;};};;;;;;;;;;;;jjjj;;;;;;;mnm;;;;;mnj;;@@@@4n5~@@@~nn4@@$0&8@@@@@@@@@@@@@@@;;;|@;;;@^^^=.=]^^==;]^^^^^^^^____^^^^^^^^33s](3s^^^^^^^^h!$$!!$!!$^^^^^;}{{2~8;;e^^^^^^^^____^^^^^^^^>n{{2~8>>e^^^^^^^^____^^^^^7777777777777777777777777777777777777777777777777777777777777777777777777777777777777777777777777^7777777777777^^^777777]~d]^^^^^^^^^^^",
"......&{{............&{{............&{~............&{{............&{{............&{{............&{{............&{{......---------------;;;f5555g4gfj;;=.}.}.}.}.....=>>>>>>>>>>>>>>>,,,,,,,,,de,,,,|1a5akaaaaaaa}}==##~{&^]/(_:<[;;;;;;;;;;;;;;;;;;;;;;;;;;;;;;;;;;;;;;;;;;;;;;;;;;;;;;;;;;;;;;;;;;;;;;;;;;;;;;;;;;;;;;;;;;;;;;;;;;;;;;;;;;;;;mmn>nmm;;;;@@|fnnn|u@@@snn@@@9{@@@@@@@@@@@@@@@@;;;@@};}@^65}j#^^^3ff~^^^^^^^^/_:(^^^^^^^gj}s]3gfe^^^^^^^^^^/__]^^^^^^65;;({%=~5f~^^^^^^^^/_:(^^^^^^65>>({%=~5n~^^^^^^^^/_:(^^^^^7777777777777777777777777777777777777777777777777777777777777777777777777777777777777777777777777777777777777777^7777777^^^^^^^^^^^^^^^",
".......{..............{..............{..............8..............~..............{..............8..............{.......---------------;;;;;;;;jjj;;;;..=.....}.}.}..>>>>>>>>>>>>>>>,,,,,,,,,,,,,,,|ua6aa6aaa6aa}}.%%#~{&]]/(_::[;;;;;;;;;;;;;;;;;;;;;;;;;;;;;;;;;;;;;;;;;;;;;;;;;;;;;;;;;;;;;;;;;;;;;;;;;;;;;;;;;;;;;;;;;;;;;;;;;;;;;;;;;;;;;;;;;;;;;;;;@%nnnnf@|u@nnnn@@@;;;@@@@@@@@@@@@@@;;;;;@@|@@^4f4f6^^^5ff5^^^^^^^^;;;;^^^^^^];;;f^{j;g^^^^^^^^^^;;j;^^^^^^f4ff62~]5ff5^^^^^^^^;;;;^^^^^^f4ff62~]5ff5^^^^^^^^;;;;^^^^^777777777777777777777777777777777777777777777777777777777777777777777777777777777777777777777777777777777777777777777777^^^^^^^^^^^^^^^"};
