<?xml version="1.0" encoding="UTF-8" standalone="no"?>
<!DOCTYPE svg PUBLIC "-//W3C//DTD SVG 20010904//EN"
"http://www.w3.org/TR/2001/REC-SVG-20010904/DTD/svg10.dtd">
<!-- Created with Inkscape ("http://www.inkscape.org/") -->
<svg
   id="svg1"
   sodipodi:version="0.32"
   inkscape:version="0.39"
   width="360mm"
   height="200mm"
   sodipodi:docname="b.copernicus_observatory.svg"
   xmlns="http://www.w3.org/2000/svg"
   xmlns:inkscape="http://www.inkscape.org/namespaces/inkscape"
   xmlns:sodipodi="http://sodipodi.sourceforge.net/DTD/sodipodi-0.dtd"
   xmlns:xlink="http://www.w3.org/1999/xlink"
   xmlns:rdf="http://www.w3.org/1999/02/22-rdf-syntax-ns#"
   xmlns:cc="http://web.resource.org/cc/"
   xmlns:dc="http://purl.org/dc/elements/1.1/"
   sodipodi:docbase="/home/fred/work/freeciv/r-hires!.5/src/buildings">
  <defs
     id="defs683">
    <linearGradient
       id="linearGradient758">
      <stop
         style="stop-color:#777777;stop-opacity:1;"
         offset="0.000000"
         id="stop759" />
      <stop
         style="stop-color:#bbbbbb;stop-opacity:1;"
         offset="1.000000"
         id="stop760" />
    </linearGradient>
    <linearGradient
       id="linearGradient704">
      <stop
         style="stop-color:#021242;stop-opacity:1;"
         offset="0.000000"
         id="stop705" />
      <stop
         style="stop-color:#07526d;stop-opacity:1;"
         offset="1.000000"
         id="stop706" />
    </linearGradient>
    <linearGradient
       id="linearGradient697">
      <stop
         style="stop-color:#8a4126;stop-opacity:1.0000000;"
         offset="0.0000000"
         id="stop698" />
      <stop
         style="stop-color:#ff9a3a;stop-opacity:1.0000000;"
         offset="1.0000000"
         id="stop699" />
    </linearGradient>
    <linearGradient
       id="linearGradient688">
      <stop
         style="stop-color:#808080;stop-opacity:1;"
         offset="0.000000"
         id="stop689" />
      <stop
         style="stop-color:#ffffff;stop-opacity:1;"
         offset="1.000000"
         id="stop690" />
    </linearGradient>
    <linearGradient
       xlink:href="#linearGradient758"
       id="linearGradient691"
       x1="0.492212"
       y1="-0.016106"
       x2="0.485981"
       y2="1.500000" />
    <linearGradient
       xlink:href="#linearGradient688"
       id="linearGradient692"
       x1="0.449704"
       y1="0.835938"
       x2="0.449704"
       y2="0.054688" />
    <linearGradient
       xlink:href="#linearGradient688"
       id="linearGradient694"
       x1="0.566978"
       y1="0.288462"
       x2="0.915888"
       y2="0.288462" />
    <linearGradient
       xlink:href="#linearGradient697"
       id="linearGradient696"
       x1="0.444840"
       y1="0.132812"
       x2="0.544484"
       y2="0.492188"
       spreadMethod="pad" />
    <linearGradient
       xlink:href="#linearGradient697"
       id="linearGradient701"
       x1="0.470405"
       y1="0.239583"
       x2="0.588785"
       y2="1.114583" />
    <radialGradient
       xlink:href="#linearGradient704"
       id="radialGradient703"
       cx="0.099567"
       cy="0.179688"
       r="0.886566"
       fx="0.099567"
       fy="0.179688" />
  </defs>
  <sodipodi:namedview
     id="base"
     snaptogrid="true"
     showgrid="true"
     inkscape:zoom="0.13425154"
     inkscape:cx="510.23623"
     inkscape:cy="283.46458"
     inkscape:window-width="640"
     inkscape:window-height="525"
     inkscape:window-x="0"
     inkscape:window-y="24" />
  <rect
     style="font-size:12;fill:url(#radialGradient703);fill-rule:evenodd;stroke-width:1pt;"
     id="rect702"
     width="1275.590576"
     height="708.661384"
     x="0.000000"
     y="-0.000015" />
  <g
     id="g729">
    <polygon
       sodipodi:type="star"
       style="font-size:12;fill:#ffe800;fill-rule:evenodd;stroke-width:1pt;fill-opacity:1;"
       id="polygon717"
       sodipodi:sides="5"
       sodipodi:cx="185.234589"
       sodipodi:cy="60.3403778"
       sodipodi:r1="16.8755436"
       sodipodi:r2="8.43777180"
       sodipodi:arg1="0.67350429"
       sodipodi:arg2="1.30182278"
       points="198.425,70.8661 187.477,68.4748 179.3,76.138 178.191,64.9866 168.376,59.5781 178.639,55.0775 180.75,44.0716 188.202,52.4415 199.321,51.048 193.664,60.7215 198.425,70.8661 " />
    <polygon
       sodipodi:type="star"
       style="font-size:12;fill:#ffe800;fill-rule:evenodd;stroke-width:1pt;fill-opacity:1;"
       id="polygon718"
       sodipodi:sides="5"
       sodipodi:cx="354.330719"
       sodipodi:cy="124.015724"
       sodipodi:r1="8.49313450"
       sodipodi:r2="4.24656725"
       sodipodi:arg1="0.43036112"
       sodipodi:arg2="1.05867970"
       points="362.049,127.559 356.412,127.717 353.346,132.452 351.453,127.139 346.003,125.686 350.471,122.244 350.169,116.612 354.823,119.798 360.086,117.77 358.494,123.181 362.049,127.559 " />
    <polygon
       sodipodi:type="star"
       style="font-size:12;fill:#ffe800;fill-rule:evenodd;stroke-width:1pt;fill-opacity:1;"
       id="polygon720"
       sodipodi:sides="5"
       sodipodi:cx="194.881897"
       sodipodi:cy="177.165329"
       sodipodi:r1="7.92309713"
       sodipodi:r2="3.96154857"
       sodipodi:arg1="1.10715044"
       sodipodi:arg2="1.73546898"
       points="198.425,184.252 194.232,181.073 189.237,182.725 190.965,177.755 187.85,173.515 193.11,173.622 196.181,169.349 197.704,174.385 202.717,175.985 198.398,178.991 198.425,184.252 " />
    <polygon
       sodipodi:type="star"
       style="font-size:12;fill:#ffe800;fill-rule:evenodd;stroke-width:1pt;fill-opacity:1;"
       id="polygon721"
       sodipodi:sides="5"
       sodipodi:cx="1056.67908"
       sodipodi:cy="53.1495972"
       sodipodi:r1="18.8077049"
       sodipodi:r2="9.40385246"
       sodipodi:arg1="1.22849083"
       sodipodi:arg2="1.85680938"
       points="1062.99,70.8661 1054.03,62.1714 1041.78,64.6283 1047.28,53.4142 1041.16,42.5273 1053.52,44.2913 1061.99,35.1059 1064.13,47.4102 1075.48,52.6203 1064.44,58.4608 1062.99,70.8661 " />
    <polygon
       sodipodi:type="star"
       style="font-size:12;fill:#ffe800;fill-rule:evenodd;stroke-width:1pt;fill-opacity:1;"
       id="polygon722"
       sodipodi:sides="5"
       sodipodi:cx="1045.27563"
       sodipodi:cy="159.448761"
       sodipodi:r1="11.2049417"
       sodipodi:r2="5.60247087"
       sodipodi:arg1="1.24905527"
       sodipodi:arg2="1.87737381"
       points="1048.82,170.079 1043.58,164.79 1036.26,166.103 1039.67,159.491 1036.16,152.932 1043.5,154.134 1048.66,148.766 1049.78,156.121 1056.48,159.364 1049.83,162.707 1048.82,170.079 " />
    <polygon
       sodipodi:type="star"
       style="font-size:12;fill:#ffe800;fill-rule:evenodd;stroke-width:1pt;fill-opacity:1;"
       id="polygon723"
       sodipodi:sides="5"
       sodipodi:cx="1151.57483"
       sodipodi:cy="88.5826416"
       sodipodi:r1="26.9850407"
       sodipodi:r2="13.4925203"
       sodipodi:arg1="1.16590631"
       sodipodi:arg2="1.79422486"
       points="1162.2,113.386 1148.59,101.74 1131.27,106.357 1138.14,89.8051 1128.4,74.7645 1146.26,76.181 1157.55,62.2684 1161.73,79.6955 1178.45,86.1376 1163.16,95.4917 1162.2,113.386 " />
    <polygon
       sodipodi:type="star"
       style="font-size:12;fill:#ffe800;fill-rule:evenodd;stroke-width:1pt;fill-opacity:1;"
       id="polygon724"
       sodipodi:sides="5"
       sodipodi:cx="1107.19751"
       sodipodi:cy="177.165329"
       sodipodi:r1="14.3582497"
       sodipodi:r2="7.17912483"
       sodipodi:arg1="0.51617688"
       sodipodi:arg2="1.14449537"
       points="1119.69,184.252 1110.17,183.702 1104.32,191.232 1101.9,182.009 1092.93,178.772 1100.95,173.622 1101.26,164.092 1108.64,170.132 1117.8,167.479 1114.33,176.362 1119.69,184.252 " />
    <polygon
       sodipodi:type="star"
       style="font-size:12;fill:#ffe800;fill-rule:evenodd;stroke-width:1pt;fill-opacity:1;"
       id="polygon725"
       sodipodi:sides="5"
       sodipodi:cx="875.654358"
       sodipodi:cy="53.1495972"
       sodipodi:r1="18.0957241"
       sodipodi:r2="9.04786205"
       sodipodi:arg1="-0.30527928"
       sodipodi:arg2="0.32303926"
       points="892.913,47.7108 884.234,56.0218 886.16,67.8832 875.574,62.1971 864.888,67.6943 867.025,55.869 858.495,47.4051 870.401,45.7828 875.815,35.0546 881.037,45.8772 892.913,47.7108 " />
    <polygon
       sodipodi:type="star"
       style="font-size:12;fill:#ffe800;fill-rule:evenodd;stroke-width:1pt;fill-opacity:1;"
       id="polygon726"
       sodipodi:sides="5"
       sodipodi:cx="425.196838"
       sodipodi:cy="159.448761"
       sodipodi:r1="13.5609989"
       sodipodi:r2="6.78049946"
       sodipodi:arg1="0.90086395"
       sodipodi:arg2="1.52918255"
       points="433.617,170.079 425.479,166.223 417.689,170.742 418.841,161.811 412.136,155.798 420.987,154.134 424.633,145.9 428.951,153.802 437.909,154.725 431.727,161.274 433.617,170.079 " />
    <polygon
       sodipodi:type="star"
       style="font-size:12;fill:#ffe800;fill-rule:evenodd;stroke-width:1pt;fill-opacity:1;"
       id="polygon727"
       sodipodi:sides="5"
       sodipodi:cx="248.031494"
       sodipodi:cy="212.598373"
       sodipodi:r1="21.2598572"
       sodipodi:r2="10.6299286"
       sodipodi:arg1="0.00000215"
       sodipodi:arg2="0.62832069"
       points="269.291,212.598 256.631,218.847 254.601,232.818 244.747,222.708 230.832,225.095 237.402,212.598 230.832,200.102 244.747,202.489 254.601,192.379 256.631,206.35 269.291,212.598 " />
    <polygon
       sodipodi:type="star"
       style="font-size:12;fill:#ffe800;fill-rule:evenodd;stroke-width:1pt;fill-opacity:1;"
       id="polygon728"
       sodipodi:sides="5"
       sodipodi:cx="46.3086472"
       sodipodi:cy="141.732239"
       sodipodi:r1="12.5319862"
       sodipodi:r2="6.26599312"
       sodipodi:arg1="0.59415668"
       sodipodi:arg2="1.22247517"
       points="56.6929,148.748 48.4474,147.622 42.8454,153.776 41.3681,145.586 33.784,142.16 41.1165,138.224 42.0312,129.953 48.0403,135.71 56.1897,134.024 52.571,141.518 56.6929,148.748 " />
  </g>
  <path
     style="font-size:12;opacity:0.99;fill:url(#linearGradient696);fill-rule:evenodd;stroke:#000000;stroke-width:1pt;"
     d="M 1275.59 212.598 L 1257.87 212.598 L 1257.87 212.598 L 1233.9 212.598 L 1222.44 219.738 L 1213.06 222.715 L 1204.72 230.314 L 1198.17 237.599 L 1195.2 240.576 L 1187.01 248.031 L 1187.01 265.747 L 1180.31 273.321 L 1169.29 276.298 L 1162.45 283.464 L 1159.48 294.159 L 1144.59 301.18 L 1116.14 301.18 L 1116.14 283.464 L 1108.87 274.81 L 1105.89 265.747 L 1098.43 274.81 L 1080.71 265.747 L 1052.31 265.747 L 1045.28 273.321 L 1027.56 301.18 L 992.127 318.897 L 531.497 265.747 L 468.852 265.747 L 460.631 273.321 L 450.991 294.159 L 442.914 301.18 L 389.765 301.18 L 372.048 301.18 L 364.663 294.159 L 328.941 291.182 L 312.568 283.464 L 265.749 283.464 L 205.402 283.464 L 194.883 291.182 L 159.45 292.671 L 132.47 292.671 L 124.017 291.182 L 116.097 283.464 L 106.3 283.464 L 98.236 276.298 L 53.1502 276.298 L 53.1502 301.18 L 35.4337 301.18 L 25.3037 312.02 L 17.7171 318.897 L 0.000610352 318.897 L 0.00114441 708.661 L 1275.59 708.661 L 1275.59 212.598 z "
     id="path695"
     sodipodi:nodetypes="cccccccccccccccccccccccccccccccccccccccccccccccccccccc" />
  <path
     style="font-size:12;fill:url(#linearGradient692);fill-rule:evenodd;stroke:#000000;stroke-width:1pt;"
     d="M 496.063 425.197 L 496.063 372.047 L 478.346 372.047 L 478.346 318.898 L 496.063 318.898 C 496.063 318.898 496.063 35.433 752.882 35.433 C 1009.84 35.433 1009.84 318.898 1009.84 318.898 L 1027.56 318.898 L 1027.56 372.047 L 1009.84 372.047 L 1009.84 425.197 L 1045.28 425.197 L 1045.28 602.362 L 301.181 602.362 L 301.181 496.063 L 389.764 478.346 L 427.175 440.747 L 460.63 442.913 L 478.346 425.197 L 496.063 425.197 z "
     id="path685"
     sodipodi:nodetypes="cccccccccccccccccccc" />
  <path
     style="fill:#000000;fill-rule:evenodd;stroke:black;stroke-opacity:1;stroke-width:1pt;stroke-linejoin:miter;stroke-linecap:butt;fill-opacity:1;"
     d="M 770.407 35.0811 C 708.661 88.5826 703.659 98.5866 673.228 159.449 C 646.726 230.315 637.795 344.868 637.795 344.868 L 566.929 336.614 C 568.858 339.246 584.646 236.632 602.362 177.165 C 622.562 116.565 655.512 70.8661 708.661 35.433 L 770.407 35.0811 z "
     id="path745"
     sodipodi:nodetypes="csccscc" />
  <path
     style="font-size:12;fill:url(#linearGradient694);fill-rule:evenodd;stroke:#000000;stroke-width:1pt;"
     d="M 496.063 318.898 C 496.063 318.898 649.815 355.908 754.513 354.331 C 859.211 352.755 1009.84 318.898 1009.84 318.898 L 1027.56 318.898 L 1027.56 372.047 L 1009.84 372.047 C 1009.84 372.047 860.925 409.49 753.025 407.48 C 645.124 405.47 496.063 372.047 496.063 372.047 L 478.346 372.047 L 478.346 318.898 L 496.063 318.898 z "
     id="path693"
     sodipodi:nodetypes="ccccccccccc" />
  <path
     style="fill:url(#linearGradient701);fill-rule:evenodd;stroke:black;stroke-opacity:1;stroke-width:1pt;stroke-linejoin:miter;stroke-linecap:butt;fill-opacity:1;"
     d="M 1275.59 327.318 L 1247.29 327.627 L 1240.16 336.614 L 1193.71 336.614 L 1187.01 345.488 L 1175.85 354.331 L 1133.86 354.331 L 1123.75 363.349 L 1116.14 372.047 L 1080.71 372.047 L 1070.17 381.21 L 1062.99 389.764 L 1009.84 389.764 L 980.866 389.764 L 963.005 399.071 L 956.693 407.48 L 921.26 407.48 L 913.887 413.955 L 903.543 418.42 L 896.026 425.197 L 893.049 418.42 L 893.049 407.48 L 896.026 389.764 L 893.049 372.047 L 878.165 382.698 L 868.11 389.764 L 832.677 389.764 L 824.582 396.094 L 814.961 407.48 L 779.528 407.48 L 769.511 418.42 L 751.65 425.197 L 733.789 436.281 L 717.416 442.913 L 708.661 451.166 L 690.945 454.142 L 681.694 460.63 L 673.228 469.027 L 673.228 478.346 L 655.512 478.346 L 655.512 496.063 L 637.795 496.063 L 631.088 506.237 L 620.079 513.779 L 602.362 513.779 L 602.362 531.496 L 566.929 531.496 L 558.156 538.982 L 549.213 541.959 L 488.2 541.959 L 460.63 540.47 L 442.913 538.982 L 434.617 531.496 L 389.764 531.496 L 379.546 521.121 L 372.047 513.779 L 318.898 513.779 L 309.59 503.26 L 294.706 496.063 L 265.748 496.063 L 257.496 488.376 L 248.032 485.399 L 241.123 478.346 L 177.165 478.346 L 114.608 478.346 L 53.1496 478.346 L 53.1496 496.063 L 35.4331 496.063 L 26.7915 503.26 L 17.7165 506.237 L 0 513.779 L 0 708.661 L 1275.59 708.661 L 1275.59 327.318 z "
     id="path700"
     sodipodi:nodetypes="cccccccccccccccccccccccccccccccccccccccccccccccccccccccccccccccccccccccccc" />
  <rect
     style="font-size:12;fill:url(#linearGradient691);fill-rule:evenodd;stroke-width:1pt;"
     id="rect746"
     width="170.344926"
     height="53.149567"
     x="53.149605"
     y="-159.448792"
     transform="matrix(0.920756,0.390139,-0.390139,0.920756,414.6248,205.5635)" />
  <path
     sodipodi:type="arc"
     style="font-size:12;fill:#92acf3;fill-rule:evenodd;stroke-width:1pt;fill-opacity:1;"
     id="path747"
     d="M 70.866142 -132.874039 A 26.574802 26.574783 0 1 0 17.716537,-132.874039 A 26.5748 26.5748 0 1 0 70.8661 -132.874 L 44.291340 -132.874039 z"
     sodipodi:cx="44.291340"
     sodipodi:cy="-132.874039"
     sodipodi:rx="26.574802"
     sodipodi:ry="26.574783"
     transform="matrix(0.611335,0.259032,-0.390139,0.920756,436.4193,214.7982)" />
  <metadata
     id="metadata42">
    <rdf:RDF
       id="RDF43">
      <cc:Work
         rdf:about=""
         id="Work44">
        <dc:format
           id="format45">image/svg+xml</dc:format>
        <dc:type
           id="type47"
           rdf:resource="http://purl.org/dc/dcmitype/StillImage" />
      </cc:Work>
    </rdf:RDF>
  </metadata>
</svg>
