<?xml version="1.0" encoding="UTF-8" standalone="no"?>
<!DOCTYPE svg PUBLIC "-//W3C//DTD SVG 20010904//EN"
"http://www.w3.org/TR/2001/REC-SVG-20010904/DTD/svg10.dtd">
<!-- Created with Sodipodi ("http://www.sodipodi.com/") -->
<svg
   id="svg548"
   sodipodi:version="0.32"
   width="1020.4700pt"
   height="566.93000pt"
   sodipodi:docname="b.great_library.svg"
   xmlns="http://www.w3.org/2000/svg"
   xmlns:sodipodi="http://sodipodi.sourceforge.net/DTD/sodipodi-0.dtd"
   xmlns:xlink="http://www.w3.org/1999/xlink"
   xmlns:inkscape="http://www.inkscape.org/namespaces/inkscape"
   inkscape:version="0.39pre4"
   xmlns:rdf="http://www.w3.org/1999/02/22-rdf-syntax-ns#"
   xmlns:cc="http://web.resource.org/cc/"
   xmlns:dc="http://purl.org/dc/elements/1.1/"
   sodipodi:docbase="/home/fred/work/freeciv/r-hires!.5/src/buildings">
  <defs
     id="defs550">
    <linearGradient
       id="linearGradient574">
      <stop
         style="stop-color:#3800ff;stop-opacity:1;"
         offset="0.000000"
         id="stop575" />
      <stop
         style="stop-color:#17a5ff;stop-opacity:1;"
         offset="1.000000"
         id="stop576" />
    </linearGradient>
    <linearGradient
       id="linearGradient559">
      <stop
         style="stop-color:#ffd585;stop-opacity:1;"
         offset="0.000000"
         id="stop560" />
      <stop
         style="stop-color:#ffffb7;stop-opacity:1;"
         offset="1.000000"
         id="stop561" />
    </linearGradient>
    <linearGradient
       xlink:href="#linearGradient559"
       id="linearGradient562"
       x1="0.01099533"
       y1="0.46093702"
       x2="1.00063765"
       y2="0.46093744"
       gradientUnits="objectBoundingBox"
       spreadMethod="reflect" />
    <linearGradient
       xlink:href="#linearGradient559"
       id="linearGradient563"
       x1="-2.00127578"
       y1="0.46093702"
       x2="-1.01163352"
       y2="0.46093744"
       gradientUnits="objectBoundingBox"
       gradientTransform="scale(-1.000000,1.000000)"
       spreadMethod="reflect" />
    <linearGradient
       xlink:href="#linearGradient559"
       id="linearGradient570"
       x1="1.81215572"
       y1="0.43750006"
       x2="1.01657510"
       y2="0.45312506"
       gradientUnits="objectBoundingBox"
       spreadMethod="reflect" />
    <linearGradient
       xlink:href="#linearGradient559"
       id="linearGradient571"
       x1="-0.18784523"
       y1="0.43750000"
       x2="-0.98342586"
       y2="0.45312500"
       gradientUnits="objectBoundingBox"
       gradientTransform="scale(-1.000000,1.000000)"
       spreadMethod="reflect" />
    <linearGradient
       xlink:href="#linearGradient574"
       id="linearGradient573"
       x1="-0.00003209"
       y1="0.26562423"
       x2="0.70588088"
       y2="0.87500000"
       gradientUnits="objectBoundingBox"
       spreadMethod="pad" />
  </defs>
  <sodipodi:namedview
     id="base"
     inkscape:zoom="0.61399264"
     inkscape:cx="627.72251"
     inkscape:cy="318.80729"
     inkscape:window-width="992"
     inkscape:window-height="746"
     inkscape:window-x="0"
     inkscape:window-y="0" />
  <rect
     style="fill:#ffffff;fill-opacity:1.0000000;fill-rule:evenodd;stroke:none;stroke-width:1.0000000pt;stroke-linecap:butt;stroke-linejoin:miter;stroke-opacity:1.0000000;"
     id="rect1062"
     width="1278.3354"
     height="714.02521"
     x="0.0000000"
     y="0.39446715"
     transform="matrix(0.997850,0.000000,0.000000,0.992489,0.000000,-0.391770)" />
  <rect
     style="font-size:12;fill:#934a00;fill-rule:evenodd;stroke:#000000;stroke-width:1.66697pt;"
     id="rect556"
     width="971.307190"
     height="645.195435"
     x="157.404814"
     y="32.736622" />
  <g
     id="g567"
     transform="matrix(1.666970,0.000000,0.000000,1.666970,46.35808,-559.0441)">
    <path
       style="fill:url(#linearGradient562);fill-rule:evenodd;stroke:black;stroke-opacity:1;stroke-width:1pt;stroke-linejoin:miter;stroke-linecap:butt;fill-opacity:1;"
       d="M 84.3239 743.737 C 84.3239 743.737 122.27 711.694 191.415 709.164 C 260.561 706.634 357.533 727.715 357.533 727.715 L 357.533 370.182 C 357.533 370.182 270.68 352.474 184.669 354.16 C 98.659 355.847 82.6374 379.457 82.6374 379.457 C 82.6374 379.457 84.3239 743.737 84.3239 743.737 z "
       id="path568"
       sodipodi:nodetypes="ccccccc"
       transform="translate(-3.372955,5.059402)" />
    <path
       style="fill:url(#linearGradient563);fill-rule:evenodd;stroke:black;stroke-opacity:1;stroke-width:1pt;stroke-linejoin:miter;stroke-linecap:butt;fill-opacity:1;"
       d="M 84.3239 743.737 C 84.3239 743.737 122.27 711.694 191.415 709.164 C 260.561 706.634 357.533 727.715 357.533 727.715 L 357.533 370.182 C 357.533 370.182 270.68 352.474 184.669 354.16 C 98.659 355.847 82.6374 379.457 82.6374 379.457 C 82.6374 379.457 84.3239 743.737 84.3239 743.737 z "
       id="path569"
       sodipodi:nodetypes="ccccccc"
       transform="matrix(-1.000000,0.000000,0.000000,1.000000,718.4393,5.059402)" />
  </g>
  <g
     id="g564"
     transform="matrix(1.666970,0.000000,0.000000,1.666970,46.35808,-567.4778)">
    <path
       style="fill:url(#linearGradient562);fill-rule:evenodd;stroke:black;stroke-opacity:1;stroke-width:1pt;stroke-linejoin:miter;stroke-linecap:butt;fill-opacity:1;"
       d="M 84.3239 743.737 C 84.3239 743.737 122.27 711.694 191.415 709.164 C 260.561 706.634 357.533 727.715 357.533 727.715 L 357.533 370.182 C 357.533 370.182 270.68 352.474 184.669 354.16 C 98.659 355.847 82.6374 379.457 82.6374 379.457 C 82.6374 379.457 84.3239 743.737 84.3239 743.737 z "
       id="path557"
       sodipodi:nodetypes="ccccccc"
       transform="translate(-3.372955,5.059402)" />
    <path
       style="fill:url(#linearGradient563);fill-rule:evenodd;stroke:black;stroke-opacity:1;stroke-width:1pt;stroke-linejoin:miter;stroke-linecap:butt;fill-opacity:1;"
       d="M 84.3239 743.737 C 84.3239 743.737 122.27 711.694 191.415 709.164 C 260.561 706.634 357.533 727.715 357.533 727.715 L 357.533 370.182 C 357.533 370.182 270.68 352.474 184.669 354.16 C 98.659 355.847 82.6374 379.457 82.6374 379.457 C 82.6374 379.457 84.3239 743.737 84.3239 743.737 z "
       id="path558"
       sodipodi:nodetypes="ccccccc"
       transform="matrix(-1.000000,0.000000,0.000000,1.000000,718.4393,5.059402)" />
  </g>
  <path
     style="fill:url(#linearGradient571);fill-rule:evenodd;stroke:black;stroke-opacity:1;stroke-width:1pt;stroke-linejoin:miter;stroke-linecap:butt;fill-opacity:1;"
     d="M 84.3239 743.737 C 84.3239 743.737 122.27 711.694 191.415 709.164 C 260.561 706.634 357.533 727.715 357.533 727.715 L 357.533 370.182 C 357.533 370.182 270.68 352.474 184.669 354.16 C 98.659 355.847 82.6374 379.457 82.6374 379.457 C 82.6374 379.457 84.3239 743.737 84.3239 743.737 z "
     id="path554"
     sodipodi:nodetypes="ccccccc"
     transform="matrix(1.666970,0.000000,0.000000,1.666970,46.35808,-567.4780)" />
  <path
     style="fill:url(#linearGradient570);fill-rule:evenodd;stroke:black;stroke-opacity:1;stroke-width:1pt;stroke-linejoin:miter;stroke-linecap:butt;fill-opacity:1;"
     d="M 84.3239 743.737 C 84.3239 743.737 122.27 711.694 191.415 709.164 C 260.561 706.634 357.533 727.715 357.533 727.715 L 357.533 370.182 C 357.533 370.182 270.68 352.474 184.669 354.16 C 98.659 355.847 82.6374 379.457 82.6374 379.457 C 82.6374 379.457 84.3239 743.737 84.3239 743.737 z "
     id="path555"
     sodipodi:nodetypes="ccccccc"
     transform="matrix(-1.666970,0.000000,0.000000,1.666970,1238.352,-567.4780)" />
  <path
     style="fill:url(#linearGradient573);fill-rule:nonzero;stroke:#000000;fill-opacity:1;stroke-opacity:1;stroke-width:1pt;stroke-linejoin:miter;stroke-linecap:butt;"
     id="path572"
     d="M 363.794 365.137 C 363.44 367.936 363.055 370.732 362.674 373.527 C 361.616 379.672 359.985 385.489 358.162 391.447 C 356.629 397.67 356.494 402.426 357.606 408.744 C 359.717 415.729 362.523 421.823 366.143 428.156 C 370.346 435.095 374.376 441.883 377.637 449.313 C 379.987 456.763 381.334 463.687 381.689 471.491 C 381.952 479.609 382.633 487.614 382.486 495.785 C 381.96 503.817 381.084 511.596 379.465 519.481 C 377.978 524.98 376.152 530.291 374.223 535.649 C 371.608 543.396 369.356 551.184 367.289 559.095 C 364.426 572.306 361.958 585.466 360.173 598.866 C 359.718 604.47 359.507 609.774 360.032 615.366 C 360.289 621.218 359.769 626.906 359.213 632.734 C 358.599 640.26 358.267 647.648 358.504 655.195 C 358.954 660.045 359.647 664.581 360.994 669.261 C 361.635 671.08 362.333 672.875 363.013 674.68 L 351.336 662.539 L 349.778 677.381 C 349.06 675.448 348.333 673.523 347.666 671.572 C 346.215 666.222 345.557 661.057 345.173 655.528 C 345.079 647.685 345.457 639.944 346.007 632.121 C 346.374 626.736 346.708 621.469 346.368 616.08 C 345.902 609.862 346.512 604.053 347.34 597.873 C 349.664 584.396 352.339 570.998 355.044 557.592 C 356.752 549.244 358.55 541.189 361.172 533.09 C 362.978 527.974 364.762 522.886 366.274 517.675 C 367.961 510.305 368.907 503.044 369.482 495.506 C 369.62 487.389 368.689 479.563 368.302 471.517 C 368.07 464.64 366.981 458.622 364.897 452.062 C 361.847 445.096 358.021 438.718 354.094 432.207 C 350.004 425.093 346.853 418.242 344.476 410.386 C 343.142 402.746 343.222 396.791 345.072 389.262 C 346.774 383.7 348.293 378.313 349.185 372.562 C 349.425 370.121 349.879 367.592 349.586 365.137 L 363.794 365.137 z "
     sodipodi:nodetypes="cccccccccccccccccccccccccccccccccccc"
     transform="matrix(1.666970,0.000000,0.000000,1.666970,46.35808,-567.4778)" />
  <g
     id="g586"
     transform="matrix(1.666970,0.000000,0.000000,1.666970,46.35808,-552.0157)">
    <path
       style="fill:black;fill-rule:nonzero;stroke:none;fill-opacity:1;stroke-opacity:1;stroke-width:1pt;stroke-linejoin:miter;stroke-linecap:butt;"
       id="path578"
       d="M 118.069 386.082 C 115.579 386.033 127.761 383.289 130.433 382.767 C 136.855 382.334 141.676 382.579 147.557 385.25 C 152.114 387.641 156.518 389.61 161.47 391.017 L 159.429 395.851 C 153.842 394.218 148.789 392.056 143.59 389.442 C 139.528 387.545 136.245 387.457 131.77 387.727 C 127.071 388.642 122.657 390.244 118.069 391.384 L 118.069 386.082 z " />
    <path
       style="fill:#000000;fill-rule:nonzero;stroke:none;fill-opacity:1;stroke-opacity:1;stroke-width:1pt;stroke-linejoin:miter;stroke-linecap:butt;"
       id="path579"
       d="M 148.589 390.435 C 148.158 392.013 147.962 393.729 147.87 395.577 C 148.165 400.181 149.155 404.381 150.371 408.827 C 151.698 413.533 152.714 417.971 153.071 422.853 C 152.478 428.879 150.92 432.484 146.99 437.089 C 142.292 440.441 138.407 441.951 132.699 442.8 L 132.046 437.673 C 135.877 437.161 138.425 436.161 141.601 433.961 C 144.692 430.426 145.791 427.612 146.258 422.945 C 145.939 418.389 144.94 414.24 143.717 409.845 C 142.417 405.06 141.38 400.504 141.001 395.556 C 141.029 394.404 141.836 388.396 141.485 390.435 L 148.589 390.435 z " />
    <path
       style="fill:#ff0000;fill-rule:nonzero;stroke:none;fill-opacity:1;stroke-opacity:1;stroke-width:1pt;stroke-linejoin:miter;stroke-linecap:butt;"
       id="path580"
       d="M 124.551 391.329 C 125.509 392.724 126.35 393.76 127.709 394.808 C 130.144 395.812 131.979 396.396 134.31 394.983 C 134.805 394.245 136.594 394.956 135.953 396.593 C 135.412 400.118 135.853 402.167 138.078 404.947 C 138.782 405.466 138.417 405.223 139.173 405.674 L 136.981 407.663 C 135.876 406.972 136.408 407.342 135.387 406.556 C 132.569 402.944 131.894 400.433 132.614 395.891 C 134.69 392.545 139.07 391.98 137.001 396.633 C 132.728 398.953 129.907 398.647 125.449 396.776 C 124.167 395.777 122 393.782 121.705 392.913 L 124.551 391.329 z " />
    <path
       style="fill:#ff0000;fill-rule:nonzero;stroke:none;fill-opacity:1;stroke-opacity:1;stroke-width:1pt;stroke-linejoin:miter;stroke-linecap:butt;"
       id="path581"
       d="M 128.262 412.359 C 128.325 412.223 130.848 416.514 131.444 417.536 C 133.652 421.993 135.108 425.606 134.88 430.592 C 132.297 435.012 129.563 435.296 124.574 435.534 C 122.042 435.783 121.38 435.403 122.442 437.773 C 122.902 438.528 122.657 438.15 123.178 438.904 L 120.116 440.085 C 119.496 439.192 119.788 439.638 119.237 438.748 C 117.695 434.018 120.061 433.446 124.513 432.954 C 127.764 432.829 129.77 433.05 131.483 430.174 C 131.732 425.749 130.266 422.476 128.294 418.539 C 127.096 416.532 125.536 414.535 124.71 412.359 L 128.262 412.359 z " />
    <path
       style="fill:#ff0000;fill-rule:nonzero;stroke:none;fill-opacity:1;stroke-opacity:1;stroke-width:1pt;stroke-linejoin:miter;stroke-linecap:butt;"
       id="path582"
       d="M 154.065 398.918 C 155.323 400.712 156.43 402.621 157.567 404.494 C 159.823 408.61 161.681 412.649 163.184 417.097 C 164.154 421.807 164.018 425.127 162.549 429.706 C 160.916 433.236 159.111 436.516 156.923 439.732 C 154.275 442.85 151.963 444.406 148.112 445.796 L 146.899 443.376 C 150.005 442.278 151.749 441.007 153.886 438.505 C 155.978 435.455 157.701 432.342 159.26 428.989 C 160.601 424.864 160.721 421.907 159.857 417.656 C 158.416 413.367 156.625 409.495 154.431 405.54 C 153.571 404.154 151.605 401.27 151.218 400.503 L 154.065 398.918 z " />
    <path
       style="fill:#ff0000;fill-rule:nonzero;stroke:none;fill-opacity:1;stroke-opacity:1;stroke-width:1pt;stroke-linejoin:miter;stroke-linecap:butt;"
       id="path583"
       d="M 162.76 401.743 C 162.378 401.74 164.956 400.465 165.636 400.026 L 168.027 401.887 C 166.315 403.003 164.788 404.041 162.76 404.393 L 162.76 401.743 z " />
    <path
       style="fill:#ff0000;fill-rule:nonzero;stroke:none;fill-opacity:1;stroke-opacity:1;stroke-width:1pt;stroke-linejoin:miter;stroke-linecap:butt;"
       id="path584"
       d="M 166.872 414.015 C 167.446 412.631 168.555 411.502 169.458 410.287 L 172.526 411.504 C 172.11 412.075 170.339 415.009 170.424 414.015 L 166.872 414.015 z " />
    <rect
       style="font-size:12;fill:none;fill-rule:evenodd;stroke-width:1pt;stroke:#000000;stroke-opacity:1;"
       id="rect585"
       width="54.810561"
       height="56.497076"
       x="116.367011"
       y="387.046277" />
  </g>
  <text
     style="fill:black;stroke:none;font-family:Electroharmonix;font-style:normal;font-weight:normal;font-size:12;text-anchor:start;writing-mode:lr;fill-opacity:1;stroke-opacity:1;stroke-width:1pt;stroke-linejoin:miter;stroke-linecap:butt;"
     x="603.472950"
     y="67.7085353"
     id="text601"
     transform="scale(0.558183,1.492914)"><tspan
       x="603.47296"
       y="67.708534"
       sodipodi:role="line"
       id="tspan858">
This  is  an  unofficial translation of the GNU General Public License</tspan><tspan
       x="603.47296"
       y="79.708534"
       sodipodi:role="line"
       id="tspan860">
into French. It was not published by the Free Software Foundation, and</tspan><tspan
       x="603.47296"
       y="91.708534"
       sodipodi:role="line"
       id="tspan862">
does  not  legally state the distribution terms for software that uses</tspan><tspan
       x="603.47296"
       y="103.70853"
       sodipodi:role="line"
       id="tspan864">
the  GNU GPL--only the original English text of the GNU GPL does that.</tspan><tspan
       x="603.47296"
       y="115.70853"
       sodipodi:role="line"
       id="tspan866">
However,  we  hope  that  this  translation  will help French speakers</tspan><tspan
       x="603.47296"
       y="127.70853"
       sodipodi:role="line"
       id="tspan868">
understand the GNU GPL better.</tspan><tspan
       x="603.47296"
       y="139.70853"
       sodipodi:role="line"
       id="tspan870"></tspan></text>
  <text
     style="fill:black;stroke:none;font-family:Electroharmonix;font-style:normal;font-weight:normal;font-size:12;text-anchor:start;writing-mode:lr;fill-opacity:1;stroke-opacity:1;stroke-width:1pt;stroke-linejoin:miter;stroke-linecap:butt;"
     x="315.978811"
     y="146.973976"
     id="text872"
     transform="scale(0.766433,1.392530)"><tspan
       x="315.97882"
       y="146.97397"
       sodipodi:role="line"
       id="tspan877">
This  is  an  unofficial translation of the GNU General Public License</tspan><tspan
       x="315.97882"
       y="158.97397"
       sodipodi:role="line"
       id="tspan879">
into French. It was not published by the Free Software Foundation, and</tspan><tspan
       x="315.97882"
       y="170.97397"
       sodipodi:role="line"
       id="tspan881">
does  not  legally state the distribution terms for software that uses</tspan><tspan
       x="315.97882"
       y="182.97397"
       sodipodi:role="line"
       id="tspan883">
the  GNU GPL--only the original English text of the GNU GPL does that.</tspan><tspan
       x="315.97882"
       y="194.97397"
       sodipodi:role="line"
       id="tspan885">
However,  we  hope  that  this  translation  will help French speakers</tspan><tspan
       x="315.97882"
       y="206.97397"
       sodipodi:role="line"
       id="tspan887">
understand the GNU GPL better.</tspan><tspan
       x="315.97882"
       y="218.97397"
       sodipodi:role="line"
       id="tspan889"></tspan><tspan
       x="315.97882"
       y="230.97397"
       sodipodi:role="line"
       id="tspan891">
Voici     (http://www.linux-france.org/article/these/gpl.html)     une</tspan><tspan
       x="315.97882"
       y="242.97397"
       sodipodi:role="line"
       id="tspan893">
adaptation  non  officielle  de la Licence Publique Générale du projet</tspan><tspan
       x="315.97882"
       y="254.97397"
       sodipodi:role="line"
       id="tspan895">
GNU.  Elle  n'a pas été publiée par la Free Software Foundation et son</tspan><tspan
       x="315.97882"
       y="266.97397"
       sodipodi:role="line"
       id="tspan897">
contenu  n'a  aucune portée légale car seule la version anglaise de ce</tspan><tspan
       x="315.97882"
       y="278.97397"
       sodipodi:role="line"
       id="tspan899">
document  détaille le mode de distribution des logiciels sous GNU GPL.</tspan><tspan
       x="315.97882"
       y="290.97397"
       sodipodi:role="line"
       id="tspan901">
Nous  espérons  cependant  qu'elle permettra aux francophones de mieux</tspan><tspan
       x="315.97882"
       y="302.97397"
       sodipodi:role="line"
       id="tspan903">
comprendre la GPL.</tspan><tspan
       x="315.97882"
       y="314.97397"
       sodipodi:role="line"
       id="tspan905"></tspan><tspan
       x="315.97882"
       y="326.97397"
       sodipodi:role="line"
       id="tspan907">
Licence Publique Générale GNU Version 2, Juin 1991</tspan><tspan
       x="315.97882"
       y="338.97397"
       sodipodi:role="line"
       id="tspan909"></tspan><tspan
       x="315.97882"
       y="350.97397"
       sodipodi:role="line"
       id="tspan911">
Copyright © Free Software Foundation, Inc.</tspan><tspan
       x="315.97882"
       y="362.97397"
       sodipodi:role="line"
       id="tspan913">
59 Temple Place, Suite 330, Boston, MA 02111-1307</tspan><tspan
       x="315.97882"
       y="374.97397"
       sodipodi:role="line"
       id="tspan915">
États-Unis, 1989, 1991.</tspan><tspan
       x="315.97882"
       y="386.97397"
       sodipodi:role="line"
       id="tspan917">
La  copie  et  la  distribution  de copies exactes de ce document sont</tspan><tspan
       x="315.97882"
       y="398.97397"
       sodipodi:role="line"
       id="tspan919">
autorisées, mais aucune modification n'est permise.</tspan><tspan
       x="315.97882"
       y="410.97397"
       sodipodi:role="line"
       id="tspan921"></tspan><tspan
       x="315.97882"
       y="422.97397"
       sodipodi:role="line"
       id="tspan923"></tspan><tspan
       x="315.97882"
       y="434.97397"
       sodipodi:role="line"
       id="tspan925"></tspan></text>
  <text
     style="fill:black;stroke:none;font-family:Electroharmonix;font-style:normal;font-weight:normal;font-size:12;text-anchor:start;writing-mode:lr;fill-opacity:1;stroke-opacity:1;stroke-width:1pt;stroke-linejoin:miter;stroke-linecap:butt;"
     x="983.970616"
     y="59.7278377"
     id="text931"
     transform="scale(0.714272,1.703299)"><tspan
       x="983.97064"
       y="59.727837"
       sodipodi:role="line"
       id="tspan936">
Nous  protégeons  vos droits de deux façons : d'abord par le copyright</tspan><tspan
       x="983.97064"
       y="71.727837"
       sodipodi:role="line"
       id="tspan938">
du  logiciel, ensuite par la remise de cette Licence qui vous autorise</tspan><tspan
       x="983.97064"
       y="83.727837"
       sodipodi:role="line"
       id="tspan940">
légalement à copier, distribuer et/ou modifier le logiciel.</tspan><tspan
       x="983.97064"
       y="95.727837"
       sodipodi:role="line"
       id="tspan942"></tspan><tspan
       x="983.97064"
       y="107.72784"
       sodipodi:role="line"
       id="tspan944">
En outre, pour protéger chaque auteur ainsi que la FSF, nous affirmons</tspan><tspan
       x="983.97064"
       y="119.72784"
       sodipodi:role="line"
       id="tspan946">
solennellement  que  le  programme  concerné  ne fait l'objet d'aucune</tspan><tspan
       x="983.97064"
       y="131.72784"
       sodipodi:role="line"
       id="tspan948">
garantie. Si un tiers le modifie puis le redistribue, tous ceux qui en</tspan><tspan
       x="983.97064"
       y="143.72784"
       sodipodi:role="line"
       id="tspan950">
recevront  une  copie doivent savoir qu'il ne s'agit pas de l'original</tspan><tspan
       x="983.97064"
       y="155.72784"
       sodipodi:role="line"
       id="tspan952">
afin  qu'une copie défectueuse n'entache pas la réputation de l'auteur</tspan><tspan
       x="983.97064"
       y="167.72784"
       sodipodi:role="line"
       id="tspan954">
du logiciel.</tspan><tspan
       x="983.97064"
       y="179.72784"
       sodipodi:role="line"
       id="tspan956"></tspan><tspan
       x="983.97064"
       y="191.72784"
       sodipodi:role="line"
       id="tspan958">
Enfin,  tout  programme  libre est sans cesse menacé par des dépôts de</tspan><tspan
       x="983.97064"
       y="203.72784"
       sodipodi:role="line"
       id="tspan960">
brevets.  Nous  souhaitons  à  tout  prix éviter que des distributeurs</tspan><tspan
       x="983.97064"
       y="215.72784"
       sodipodi:role="line"
       id="tspan962">
puissent déposer des brevets sur les Logiciels Libres pour leur propre</tspan><tspan
       x="983.97064"
       y="227.72784"
       sodipodi:role="line"
       id="tspan964">
compte.  Pour éviter cela, nous stipulons bien que tout dépôt éventuel</tspan><tspan
       x="983.97064"
       y="239.72784"
       sodipodi:role="line"
       id="tspan966">
de  brevet  doit accorder expressément à tout un chacun le libre usage</tspan><tspan
       x="983.97064"
       y="251.72784"
       sodipodi:role="line"
       id="tspan968">
du produit.</tspan><tspan
       x="983.97064"
       y="263.72784"
       sodipodi:role="line"
       id="tspan970"></tspan><tspan
       x="983.97064"
       y="275.72784"
       sodipodi:role="line"
       id="tspan972">
Les  dispositions précises et les conditions de copie, de distribution</tspan><tspan
       x="983.97064"
       y="287.72784"
       sodipodi:role="line"
       id="tspan974">
et de modification de nos logiciels sont les suivantes :</tspan><tspan
       x="983.97064"
       y="299.72784"
       sodipodi:role="line"
       id="tspan976"></tspan><tspan
       x="983.97064"
       y="311.72784"
       sodipodi:role="line"
       id="tspan978">
Stipulations et conditions relatives à la copie, la distribution et la</tspan><tspan
       x="983.97064"
       y="323.72784"
       sodipodi:role="line"
       id="tspan980">
modification</tspan><tspan
       x="983.97064"
       y="335.72784"
       sodipodi:role="line"
       id="tspan982"></tspan></text>
  <metadata
     id="metadata1056">
    <rdf:RDF
       id="RDF1057">
      <cc:Work
         rdf:about=""
         id="Work1058">
        <dc:format
           id="format1059">image/svg+xml</dc:format>
        <dc:type
           id="type1061"
           rdf:resource="http://purl.org/dc/dcmitype/StillImage" />
      </cc:Work>
    </rdf:RDF>
  </metadata>
</svg>
