#define goto_cursor_mask_width 16
#define goto_cursor_mask_height 16
static char goto_cursor_mask_bits[] = {
 0x3f,0x00,0x3f,0x00,0x3f,0x00,0xff,0x3f,0xff,0x7f,0xff,0x7f,0xfe,0x7f,0xff,
 0x7f,0xff,0x7f,0xff,0x7f,0xff,0x7f,0xff,0x7f,0xff,0x7f,0xff,0x7f,0xff,0x7f,
 0x7e,0x3f};
