#define goto_cursor_width 16
#define goto_cursor_height 16
#define goto_cursor_x_hot 1
#define goto_cursor_y_hot 1
static char goto_cursor_bits[] = {
 0x00,0x00,0x1e,0x00,0x0e,0x00,0x1e,0x00,0xfa,0x1f,0xf0,0x3f,0x00,0x00,0x3c,
 0x1e,0x66,0x33,0x06,0x33,0x06,0x33,0x76,0x33,0x66,0x33,0x66,0x33,0x3c,0x1e,
 0x00,0x00};
