/* XPM */
static char * explosions_trident_xpm[] = {
"30 148 17 1",
" 	c None",
".	c #A05F4A",
"+	c #763624",
"@	c #FFB012",
"#	c #EEEE12",
"$	c #BFA076",
"%	c #242424",
"&	c #FFFFFF",
"*	c #EED9CC",
"=	c #A0A0A0",
"-	c #D9BFA0",
";	c #E4E4E4",
">	c #CCCCCC",
",	c #EE1212",
"'	c #B0B0B0",
")	c #767676",
"!	c #768C4A",
"                              ",
"                              ",
"                              ",
"                              ",
"                              ",
"                              ",
"                              ",
"                              ",
"                              ",
"                              ",
"                              ",
"            >                 ",
"            -@#@@             ",
"           ##&&>-;            ",
"          @#;&&;=*&           ",
"           -&&&&;*#           ",
"           ##>&&&##           ",
"           ;#&;&&-            ",
"          , -###>>  ,         ",
"               @              ",
"                              ",
"                              ",
"                              ",
"                              ",
"                              ",
"                              ",
"                              ",
"                              ",
"                              ",
"                              ",
"                              ",
"                              ",
"                              ",
"                              ",
"                              ",
"                              ",
"                              ",
"                              ",
"                              ",
"           >                  ",
"           $$$$$$$ '          ",
"           $$@@@@@$'          ",
"          $@@--###@$          ",
"          @@*;#&&##@          ",
"         $@#&&&&#=#@          ",
"          @#&####*#$  +       ",
"         '@#;###&&#$          ",
"          $##&&&&##$+         ",
"          $-##>##@$$=         ",
"          >=@#-#@$ -          ",
"           '$ @@.             ",
"                              ",
"                              ",
"    +                         ",
"                        +     ",
"                              ",
"                              ",
"                              ",
"                              ",
"                              ",
"                              ",
"    =                         ",
"    =)                        ",
"                              ",
"                          '   ",
"             =                ",
"             =.+++      %     ",
"        %  $$@@@@$++          ",
"          $@#####*$.+         ",
"        .@#########@.         ",
"      %+$###**######@+        ",
"      %+@##*@@@@@*###$+       ",
"      +$###@@$$$@@###@.%      ",
"      +$*#*@$..+$@*##@.+      ",
"  +   +$##*@.. +.$*##@.       ",
"      +$##*@$.+++.*#*@.       ",
"       .#&#@@$.+.@##*$.       ",
"      +.@##*@@@@@@##@.+       ",
"      %+$#&##*****@@!.        ",
"       %.@#&###*#*@.++        ",
"       %+.$@#####@$+%         ",
"         %..$@@@@$++          ",
"      =%    ......            ",
"      =+                      ",
"           ,               =  ",
"                     ,     =  ",
"                              ",
"                              ",
"          =                   ",
" ,                       +    ",
"                              ",
"                              ",
"          %%+++++++ %         ",
"         %+...$$....+         ",
"      +%+...@@###@$.. %%      ",
"       ++.@#########.+ %      ",
"      +..@##-@@@@@##@$+%%     ",
"      +.@##-$....$@@@@..      ",
"    %+.@##@$........@@@..%    ",
"    %+.##@$.+.+++...$@#$+%%   ",
"    %.$##@..+%+%+++..$@@.+    ",
"    +.@#@$.+%    %%+.$@@.+    ",
"    +$##@..+%     %++.@#$+%   ",
"    +@##@..+       ++.$@$.%   ",
"    .$##@..+%      ++..@.+    ",
"    ).@#@..+%       ++.@.+    ",
"    %.@#@.++%%%   %%+..$+%    ",
"     +$@#@..++++%%%++...+     ",
",    +.@#@$.++++++++....+     ",
"      +.@##@..+.....$.++ %    ",
"     %%+.@##@@$...$@.+%%      ",
"      %++.$@##@@@@@$.%%       ",
"        +...$@@@@$.++%     +  ",
"         +++......            ",
"            %+%               ",
"           %                  ",
"                              ",
"                              ",
"                              ",
"                              ",
"          %% %                ",
"         +%+.+.+++            ",
"       +++....$.$.  +         ",
"       . ...@@@@@@@$.+%       ",
"   %   .$@@@@$$$.@@@@..+      ",
"   %++.$@@@$.......$$@$.%     ",
"   %+.$@@@$..++++....@@$.     ",
"    .$@@$$.++%%+%%+...@@$+    ",
"   +.@@@$.+%    %%%%...@@.+   ",
"    .@@$.+%        %+..$@$+   ",
"  %+.@$..%%         %++.@@.%  ",
"  %.$$$.+%           %+.@@.+  ",
"  +.@@$.%            %%+$@.+  ",
"  +.@@$.%%%          %%%.$.   ",
"  +.@@$.%%            +%.$.   ",
"  ..@@$.+%             %...   ",
"  +..@$.+              %...   ",
"   +.@$.++              +.    ",
"   ++.@.+++            %.+    ",
"    %.$@...++%        %%      ",
"     +.$$$...+++%%   ++       ",
"     %+.@@$$.....++++.+       ",
"       +.$$$$$$$$.....        ",
"       %+..$$@@@@$...         ",
"         %++.......+          ",
"          %%%+++++%           ",
"                              ",
"                              "};
