#define drop_cursor_width 27
#define drop_cursor_height 27
#define drop_cursor_x_hot 13
#define drop_cursor_y_hot 25
static unsigned char drop_cursor_bits[] = {
   0x00, 0x00, 0x00, 0x00, 0x00, 0xf8, 0x00, 0x00, 0x00, 0xff, 0x07, 0x00,
   0xc0, 0xff, 0x1f, 0x00, 0xe0, 0xff, 0x3f, 0x00, 0xf8, 0xff, 0xff, 0x00,
   0xf8, 0xff, 0xff, 0x00, 0xfc, 0xff, 0xff, 0x01, 0xfe, 0xff, 0xff, 0x03,
   0x9e, 0x8f, 0xcf, 0x03, 0x06, 0x02, 0x02, 0x03, 0x04, 0x02, 0x02, 0x01,
   0x08, 0x04, 0x81, 0x00, 0x10, 0x04, 0x41, 0x00, 0x10, 0x04, 0x41, 0x00,
   0x20, 0x04, 0x21, 0x00, 0x40, 0x88, 0x10, 0x00, 0x80, 0x88, 0x08, 0x00,
   0x00, 0x89, 0x04, 0x00, 0x00, 0x89, 0x04, 0x00, 0x00, 0x52, 0x02, 0x00,
   0x00, 0x54, 0x01, 0x00, 0x00, 0xd8, 0x00, 0x00, 0x00, 0xd8, 0x00, 0x00,
   0x00, 0x70, 0x00, 0x00, 0x00, 0x20, 0x00, 0x00, 0x00, 0x00, 0x00, 0x00};
