#define drop_cursor_mask_width 27
#define drop_cursor_mask_height 27
static char drop_cursor_mask_bits[] = {
   0x00, 0xfc, 0x01, 0x00, 0x80, 0xff, 0x0f, 0x00, 0xe0, 0xff, 0x3f, 0x00,
   0xf0, 0xff, 0x7f, 0x00, 0xfc, 0xff, 0xff, 0x01, 0xfc, 0xff, 0xff, 0x01,
   0xfe, 0xff, 0xff, 0x03, 0xff, 0xff, 0xff, 0x07, 0xff, 0xff, 0xff, 0x07,
   0xff, 0xff, 0xff, 0x07, 0xff, 0xdf, 0xff, 0x07, 0x1f, 0x8f, 0xc7, 0x07,
   0x3e, 0x8f, 0xe7, 0x03, 0x3c, 0x8e, 0xe3, 0x01, 0x78, 0x8e, 0xf3, 0x00,
   0xf8, 0xde, 0xfb, 0x00, 0xf0, 0xdf, 0x7f, 0x00, 0xe0, 0xdf, 0x3f, 0x00,
   0xc0, 0xdf, 0x1f, 0x00, 0x80, 0xff, 0x0f, 0x00, 0x80, 0xff, 0x0f, 0x00,
   0x00, 0xff, 0x07, 0x00, 0x00, 0xfe, 0x03, 0x00, 0x00, 0xfc, 0x01, 0x00,
   0x00, 0xfc, 0x01, 0x00, 0x00, 0xf8, 0x00, 0x00, 0x00, 0x70, 0x00, 0x00};
