#define goto_cursor_mask_width 27
#define goto_cursor_mask_height 27
static unsigned char goto_cursor_mask_bits[] = {
   0x00, 0x00, 0xc0, 0x07, 0x00, 0x00, 0xfe, 0x07, 0x00, 0xc0, 0xff, 0x07,
   0x00, 0xe0, 0xff, 0x07, 0x00, 0xe0, 0x9f, 0x07, 0x00, 0xe0, 0xbf, 0x03,
   0x00, 0xe0, 0xff, 0x03, 0x00, 0xf8, 0xff, 0x03, 0x00, 0xfe, 0xff, 0x03,
   0x80, 0xff, 0xff, 0x03, 0xe0, 0xff, 0xff, 0x01, 0xf8, 0xff, 0xff, 0x01,
   0xfe, 0xff, 0xff, 0x01, 0xff, 0xff, 0xff, 0x00, 0xff, 0xff, 0x0f, 0x00,
   0xff, 0xff, 0x0f, 0x00, 0xff, 0xff, 0x07, 0x00, 0xff, 0xff, 0x07, 0x00,
   0xfc, 0xff, 0x03, 0x00, 0x00, 0xff, 0x03, 0x00, 0x00, 0xff, 0x01, 0x00,
   0x00, 0xff, 0x01, 0x00, 0x00, 0xff, 0x00, 0x00, 0x00, 0xff, 0x00, 0x00,
   0x00, 0x7f, 0x00, 0x00, 0x00, 0x7e, 0x00, 0x00, 0x00, 0x3e, 0x00, 0x00};
