#define goto_cursor_width 27
#define goto_cursor_height 27
#define goto_cursor_x_hot 25
#define goto_cursor_y_hot 1
static char goto_cursor_bits[] = {
   0x00, 0x00, 0x00, 0x00, 0x00, 0x00, 0x80, 0x03, 0x00, 0x00, 0xfc, 0x03,
   0x00, 0x80, 0x07, 0x03, 0x00, 0xc0, 0x01, 0x01, 0x00, 0x00, 0x0f, 0x01,
   0x00, 0x00, 0x1b, 0x01, 0x00, 0xc0, 0x39, 0x01, 0x00, 0x70, 0xa4, 0x01,
   0x00, 0x1c, 0xb3, 0x00, 0x00, 0x8f, 0xfb, 0x00, 0xc0, 0xc3, 0xc9, 0x00,
   0xf0, 0xf0, 0x4c, 0x00, 0x7c, 0x78, 0x04, 0x00, 0x1e, 0x7c, 0x06, 0x00,
   0x0e, 0x3f, 0x03, 0x00, 0x8e, 0x1f, 0x03, 0x00, 0xf8, 0x8f, 0x01, 0x00,
   0x00, 0x8f, 0x01, 0x00, 0x00, 0xc6, 0x00, 0x00, 0x00, 0xe2, 0x00, 0x00,
   0x00, 0x62, 0x00, 0x00, 0x00, 0x72, 0x00, 0x00, 0x00, 0x3e, 0x00, 0x00,
   0x00, 0x3c, 0x00, 0x00, 0x00, 0x1c, 0x00, 0x00, 0x00, 0x00, 0x00, 0x00};
