#define nuke_cursor_width 27
#define nuke_cursor_height 27
#define nuke_cursor_x_hot 13
#define nuke_cursor_y_hot 13
static unsigned char nuke_cursor_bits[] = {
   0x00, 0x00, 0x00, 0x00, 0x00, 0x70, 0x00, 0x00, 0x00, 0x8e, 0x03, 0x00,
   0x80, 0xfd, 0x0d, 0x00, 0x60, 0x23, 0x36, 0x00, 0xd0, 0x20, 0x58, 0x00,
   0x30, 0x00, 0x60, 0x00, 0x28, 0xf8, 0xa0, 0x00, 0x18, 0xbe, 0xc3, 0x00,
   0x14, 0xef, 0x47, 0x01, 0x8c, 0xff, 0x8f, 0x01, 0x8c, 0xdb, 0x8e, 0x01,
   0x0a, 0x73, 0x86, 0x02, 0x3a, 0x70, 0xe0, 0x02, 0x0a, 0xf8, 0x80, 0x02,
   0x0c, 0x70, 0x80, 0x01, 0x0c, 0x70, 0x80, 0x01, 0x14, 0xf8, 0x40, 0x01,
   0x18, 0xfc, 0xc1, 0x00, 0x28, 0x00, 0xa0, 0x00, 0x30, 0x00, 0x60, 0x00,
   0xd0, 0x20, 0x58, 0x00, 0x60, 0x23, 0x36, 0x00, 0x80, 0xfd, 0x0d, 0x00,
   0x00, 0x8e, 0x03, 0x00, 0x00, 0x70, 0x00, 0x00, 0x00, 0x00, 0x00, 0x00};
