#define nuke_cursor_mask_width 27
#define nuke_cursor_mask_height 27
#define nuke_cursor_mask_x_hot 13
#define nuke_cursor_mask_y_hot 13
static unsigned char nuke_cursor_mask_bits[] = {
   0x00, 0xfc, 0x01, 0x00, 0x80, 0xff, 0x0f, 0x00, 0xc0, 0xff, 0x1f, 0x00,
   0xe0, 0xff, 0x3f, 0x00, 0xf0, 0xff, 0x7f, 0x00, 0xf8, 0x77, 0xff, 0x00,
   0xfc, 0xfd, 0xfd, 0x01, 0x7e, 0xff, 0xf7, 0x03, 0xfe, 0xff, 0xff, 0x03,
   0xfe, 0xff, 0xff, 0x03, 0xff, 0xff, 0xff, 0x07, 0xdf, 0xff, 0xdf, 0x07,
   0xff, 0xff, 0xff, 0x07, 0xff, 0xff, 0xff, 0x07, 0x7f, 0xfc, 0xf1, 0x07,
   0x1f, 0xfc, 0xc1, 0x07, 0x3f, 0xf8, 0xe1, 0x07, 0x3e, 0xfe, 0xe3, 0x03,
   0x7e, 0xfe, 0xf3, 0x03, 0x7e, 0xfe, 0xf3, 0x03, 0xfc, 0x71, 0xfc, 0x01,
   0xf8, 0x77, 0xff, 0x00, 0xf0, 0xff, 0x7f, 0x00, 0xe0, 0xff, 0x3f, 0x00,
   0xc0, 0xff, 0x1f, 0x00, 0x80, 0xff, 0x0f, 0x00, 0x00, 0xfc, 0x01, 0x00};
