#define patrol_cursor_mask_width 27
#define patrol_cursor_mask_height 27
static char patrol_cursor_mask_bits[] = {
 0x00,0xfc,0x07,0xf8,0x00,0xff,0x1f,0xf8,0xc0,0xff,0x7f,0xf8,0xe0,0xff,0xff,
 0xf8,0xff,0xff,0xff,0xf9,0xff,0xff,0xff,0xfb,0xff,0x7f,0xff,0xfb,0xff,0x77,
 0xfc,0xff,0xff,0x73,0xf0,0xff,0xff,0x71,0xf0,0xff,0xff,0x77,0xe0,0xfb,0xfe,
 0x77,0xe0,0xff,0xff,0xff,0xff,0xff,0xff,0xff,0xff,0xff,0xff,0xff,0xff,0xff,
 0x3f,0x70,0xff,0xfb,0x3e,0x70,0xff,0xff,0x7f,0x70,0xfc,0xff,0x7f,0x70,0xfe,
 0xff,0xff,0x71,0xff,0xff,0xfe,0xf7,0xff,0xff,0xfe,0xff,0xff,0xff,0xfc,0xff,
 0xff,0xff,0xf8,0xff,0x3f,0xf8,0xf0,0xff,0x1f,0xf8,0xc0,0xff,0x07,0xf8,0x00,
 0xff,0x01,0xf8};
