#define patrol_cursor_width 27
#define patrol_cursor_height 27
#define patrol_cursor_x_hot 13
#define patrol_cursor_y_hot 13
static char patrol_cursor_bits[] = {
 0x00,0x00,0x00,0xf8,0x00,0xf8,0x03,0xf8,0x00,0xfe,0x0f,0xf8,0x80,0xff,0x3f,
 0xf8,0xc0,0xff,0x7f,0xf8,0xe6,0x0f,0xfe,0xf8,0xe6,0x03,0xf8,0xf9,0xf6,0x21,
 0xe0,0xf9,0xfe,0x00,0xe0,0xfb,0x7e,0x20,0xc0,0xf9,0x3c,0x00,0x40,0xf8,0xfc,
 0x23,0x00,0xf8,0xfc,0x03,0x00,0xfa,0x3e,0xa8,0xe0,0xfb,0x02,0x00,0xfe,0xf9,
 0x00,0x20,0xfe,0xf9,0x10,0x00,0xe0,0xf9,0x1c,0x20,0xf0,0xfb,0x3e,0x00,0xf8,
 0xfb,0x3c,0x20,0x7c,0xfb,0xfc,0x00,0x3e,0xfb,0xf8,0x83,0x3f,0xfb,0xf0,0xff,
 0x1f,0xf8,0xe0,0xff,0x0f,0xf8,0x80,0xff,0x03,0xf8,0x00,0xfe,0x00,0xf8,0x00,
 0x00,0x00,0xf8};
